<svg width="140" height="260" viewBox="0 0 140 260" fill="none" xmlns="http://www.w3.org/2000/svg">
<path d="M12.264 95.3574C12.524 95.8714 12.7901 96.3794 13.0562 96.8873C14.7557 100.135 16.5277 103.267 18.2755 106.127C21.9404 112.102 25.5026 116.843 29.3852 121.463C31.006 123.398 32.6873 125.309 34.4533 127.28C35.7777 128.761 37.1566 130.273 38.596 131.858C46.5246 140.583 50.4859 156.282 54.9492 158.9C56.576 159.855 58.1303 160.418 59.7027 160.569C61.8437 160.775 71.2238 161.682 73.6489 160.642C74.5682 160.249 75.5479 159.735 76.6244 159.075C79.3278 157.412 83.7245 144.768 88.0608 140.886C88.6776 140.329 89.3187 139.755 89.984 139.15C93.3042 136.109 97.199 132.384 101.85 127.824C102.34 127.34 102.799 126.887 103.277 126.421C104.257 125.46 105.206 124.516 106.132 123.603C106.724 123.011 107.323 122.418 107.897 121.85C110.063 119.685 112.064 117.659 113.921 115.754C114.913 114.738 115.856 113.759 116.764 112.809C117.828 111.697 118.838 110.632 119.793 109.616C121.88 107.397 123.718 105.39 125.327 103.575C128.067 100.491 130.165 97.9577 131.756 95.8835C131.943 95.6356 132.125 95.3997 132.294 95.1639C133.824 93.114 134.828 91.5357 135.463 90.3081C135.584 90.0662 135.699 89.8425 135.796 89.6308C136.225 88.6814 136.413 87.9739 136.449 87.4358C136.497 86.7645 136.328 86.3352 136.135 86.0086C134.834 83.7954 124.106 82.8944 116.062 82.967C116.062 82.967 113.455 82.9912 106.513 82.8339C105.249 84.1703 103.658 85.5672 101.668 86.7706L101.801 86.8794C100.199 87.8349 98.3541 88.6633 96.2434 89.2317C93.8122 89.8848 91.3024 90.1327 88.7986 89.9997C82.2428 89.649 75.7596 86.6678 70.9395 81.6003C66.8875 81.431 63.0472 81.2496 59.3338 80.9654C58.1485 82.1385 56.703 83.3298 54.9552 84.3638H54.9431C53.3586 85.3011 51.5382 86.1175 49.4518 86.6799C47.0447 87.3269 44.5591 87.5748 42.0735 87.4358C35.3907 87.079 28.7623 83.9768 23.9483 78.6917L23.9362 78.6796C24.6317 77.5004 25.9985 75.5049 28.1092 73.5214C12.4333 66.4827 6.42182 57.9563 3.03507 60.4416C2.59358 60.7682 2.267 61.2459 2.03113 61.8325C-0.0553486 67.0329 5.3937 81.9148 12.264 95.3574Z" fill="#E77300"/>
<path d="M23.9492 78.6737H23.9613V78.6858C28.7753 83.9709 35.4037 87.0731 42.0865 87.4299C44.5661 87.5629 47.0578 87.321 49.4648 86.674C51.5513 86.1116 53.3717 85.2892 54.9562 84.3519L35.7061 68.817C35.7061 68.817 35.7182 68.817 35.7242 68.8109L35.7061 68.7988C32.5008 69.978 30.0151 71.7498 28.1282 73.5276C26.0115 75.5111 24.6447 77.5066 23.9553 78.6858L23.9492 78.6737Z" fill="#EAEAEA"/>
<path d="M54.9669 84.3468C56.7086 83.3188 58.154 82.1274 59.3455 80.9542C61.2142 79.1037 62.4359 77.3016 63.083 76.201H63.0709V76.1889C56.4728 68.9441 46.4637 65.8115 37.5795 68.2063C36.9384 68.3817 36.3276 68.5873 35.7349 68.805C35.7349 68.805 35.7228 68.805 35.7168 68.811L54.9669 84.3468Z" fill="black"/>
<path d="M96.2493 89.2197C98.36 88.6513 100.205 87.8168 101.807 86.8674L101.674 86.7586C101.62 86.7949 101.571 86.8312 101.511 86.8674L82.1701 71.2539C75.4449 73.7997 71.8163 78.9155 70.5039 81.153H70.516V81.1651C70.6551 81.3162 70.8063 81.4432 70.9454 81.5944C75.7655 86.6558 82.2487 89.637 88.8045 89.9938C91.3083 90.1268 93.8181 89.8849 96.2493 89.2258V89.2197Z" fill="#EAEAEA"/>
<path d="M101.512 86.8681C101.572 86.8318 101.621 86.7955 101.675 86.7592C103.659 85.5498 105.256 84.1589 106.52 82.8224C108.068 81.1775 109.12 79.6233 109.701 78.6315H109.689V78.6194C103.03 71.3021 92.9241 68.1393 83.9553 70.5582C83.2961 70.7336 82.6792 70.9453 82.0684 71.169L82.1651 71.2476L101.506 86.862L101.512 86.8681Z" fill="black"/>
<path d="M20.0543 226.633C19.5462 226.948 18.9173 226.917 18.6814 228.169C18.4093 229.602 18.1673 229.04 17.9617 228.635C17.2965 227.298 17.3146 227.268 15.9176 228.387C15.4821 228.737 15.0225 229.179 14.6052 229.348C14.3875 229.439 14.1335 229.124 14.1093 228.804C14.079 228.471 14.3028 227.909 14.4177 227.443C14.5689 227.582 14.7141 227.734 14.8713 227.855C15.4519 228.302 15.7543 228.072 15.9841 226.784C16.1292 225.986 16.2502 225.49 16.7885 225.073C17.1816 224.771 17.6049 224.311 17.4174 223.718C17.3448 223.495 16.8913 223.501 16.6977 223.737C15.7543 224.843 15.2463 224.625 14.9741 223.664C14.708 222.733 14.0488 222.969 13.3533 223.38C12.549 223.851 12.1135 223.561 11.9139 222.654C11.799 222.134 11.7144 221.554 11.5027 221.173C11.3092 220.822 11.0249 220.411 10.6862 220.544C10.1359 220.767 9.75489 221.517 9.68836 222.545C9.61579 223.652 9.05334 223.501 8.93844 223.325C8.78119 223.083 8.69048 222.733 8.59976 222.376L6.65238 226.905C6.70076 227.135 6.74914 227.371 6.80962 227.589C7.08177 228.586 7.37811 229.536 8.44857 229.004C8.63 228.913 8.9082 228.889 8.92029 229.052C9.05939 231.537 10.9402 230.588 11.8051 231.58C12.9663 232.94 14.5024 233.194 16.2804 232.916C16.6494 232.856 16.7824 232.922 16.988 233.237C17.6835 234.301 18.1613 236.139 20.1147 234.023C21.0642 232.995 21.6085 232.462 21.2759 234.379C21.2396 234.573 21.7053 234.512 21.9714 234.446C22.1528 234.404 23.0237 232.577 22.3826 234.543C22.0258 235.619 21.9593 236.248 22.7153 235.607C23.8281 234.664 24.33 235.299 24.0095 236.683C23.6466 238.237 24.2091 238.05 24.5175 238.34C24.832 238.637 25.4186 238.419 25.6726 238.8C26.852 240.596 28.4728 241.358 30.6741 240.807C31.2245 240.674 31.7023 240.789 32.2829 240.499C33.4622 239.906 33.9279 240.838 34.2605 241.841C34.4601 242.44 34.5024 242.912 35.21 242.38C35.5789 242.102 35.8873 242.313 36.226 242.307L36.2502 242.283C38.0403 241.285 38.6693 242.857 39.5704 243.813C39.9696 244.248 39.8365 245.953 41.1489 244.079C41.167 244.055 41.4392 244.363 41.4029 244.653C41.3061 245.542 41.4876 245.693 42.0984 245.349C42.5943 245.071 43.0479 245.173 43.441 245.288C43.9369 245.433 44.4328 244.974 44.953 244.103C45.6243 242.972 45.0437 242.93 44.965 242.44C44.9046 242.035 44.457 241.854 45.1102 240.959C45.5033 240.42 46.0536 239.882 45.8541 239.314C45.715 238.921 45.3219 238.685 44.9469 238.872C44.1486 239.265 42.9632 240.699 43.6587 237.977C43.7192 237.736 43.1991 237.627 42.8967 237.59C42.0561 237.482 41.1368 237.717 40.8042 236.351C40.4655 234.942 39.0685 235.849 37.7259 237.729C37.2118 238.449 36.7764 240.003 36.093 239.798C36.5768 238.8 37.0364 237.79 37.5444 236.816C37.7682 236.387 38.1492 236.054 38.3246 235.643C38.5121 235.19 38.7177 234.301 38.627 234.258C37.3993 233.714 36.5405 232.148 34.5387 233.654C33.6799 234.301 33.0146 234.44 32.7546 233.684C32.5671 233.128 32.93 231.725 32.7002 231.259C32.5308 230.914 31.412 231.912 31.3938 231.549C31.3092 230.128 30.4443 230.969 29.7549 231.38C29.4162 231.58 28.9324 232.251 28.5998 232.837C28.4909 233.025 28.6119 233.696 28.7268 233.998C29.1441 235.093 29.6521 236.054 30.021 237.222C30.1178 237.524 29.8758 238.395 29.6702 239.018C29.5855 239.259 29.1199 239.719 28.9142 239.785C27.9829 240.076 26.8761 238.37 27.2027 236.701C27.5535 234.905 27.0818 234.398 26.3379 234.7C24.9106 235.286 25.1404 232.765 24.076 232.71C23.9853 232.71 24.4026 231.344 24.584 230.612C24.9046 230.527 25.3279 230.243 25.5335 230.394C26.0899 230.806 26.5314 231.441 27.0576 231.906C27.2511 232.075 27.5354 232.088 27.8256 232.027C27.9647 231.997 28.2188 231.67 28.3941 231.404C28.4667 231.295 28.5332 230.872 28.4849 230.8C27.9587 230.007 27.6382 228.544 26.7975 228.665C25.4428 228.864 24.5538 228.32 23.8643 227.189C23.7736 227.044 23.4229 227.171 23.2172 227.413C22.8786 227.8 22.5641 228.411 22.2314 228.877C21.1126 230.425 21.0945 230.382 20.9735 228.979C20.9251 228.429 20.7739 227.528 20.6106 227.667C19.4071 228.701 19.2197 227.564 18.8568 226.863C18.3669 225.92 17.7863 225.345 16.5465 226.131C16.1716 226.367 15.7845 226.101 15.597 225.762C14.5508 223.888 11.9139 225.037 11.4241 222.104C11.3878 221.886 10.9705 222.128 10.777 222.049C10.2266 221.832 9.65207 221.656 9.08963 221.463L6.33789 227.861C7.17853 228.121 7.99498 228.429 8.69652 228.973C10.027 230.019 11.3757 230.878 13.2142 230.673C13.5831 230.63 13.9037 230.927 14.1274 231.253C14.8108 232.293 15.8631 232.475 16.9941 232.396C17.7017 232.342 18.2278 232.529 18.76 232.922C19.7277 233.636 20.7074 234.379 22.0863 234.192C24.0397 233.932 25.594 234.676 26.9608 235.807C28.2248 236.877 29.513 237.953 31.2608 237.965C32.809 237.989 34.2363 238.34 35.7119 238.528C36.8368 238.679 37.6533 239.193 38.4818 239.792C38.754 239.991 39.0806 240.221 39.4071 240.251C39.9152 240.306 40.1389 240.499 40.2901 240.922C40.4776 241.461 40.7437 241.4 41.167 240.995C41.8142 240.384 42.1649 240.42 42.9209 240.898C43.3987 241.2 43.8341 241.606 44.3542 241.781C46.2653 242.422 48.1522 243.003 50.0694 243.704L51.3817 244.218L52.0349 244.478C52.2466 244.557 52.4522 244.617 52.6578 244.684C53.063 244.811 53.4985 244.98 53.8855 245.071L54.2484 243.879C54.5205 243.202 54.702 242.18 54.9076 241.213C55.0225 240.632 55.0588 240.487 55.1072 240.179C55.1495 239.906 55.1616 239.634 55.1435 239.38C55.0225 237.905 55.5426 236.478 55.4277 235.045C55.3793 234.488 55.4277 233.871 55.9176 233.321C56.1776 233.031 56.2623 232.335 56.2321 231.864C56.1595 230.709 56.3107 229.699 57.2299 228.834C57.3448 228.725 57.363 228.278 57.2662 228.211C57.0243 228.06 56.6917 228.036 56.3953 227.963C56.6917 227.752 57.0485 227.582 57.2904 227.31C57.5323 227.038 57.8045 226.669 57.8166 226.343C57.871 225.242 58.0766 224.202 58.8689 223.265C58.9838 223.132 58.8447 222.866 58.8507 222.66C58.8568 221.995 58.7298 221.3 58.8931 220.659C59.1652 219.594 59.6067 218.554 60.0784 217.526C60.3929 216.855 60.1208 216.226 59.9333 215.537C59.7579 214.92 60.5744 214.279 60.8344 213.626C61.1187 212.888 61.2396 212.12 61.4513 211.37C61.5239 211.122 61.79 210.893 61.7597 210.639C61.6267 209.58 61.3727 208.51 61.161 207.446C61.0884 207.083 60.9251 206.654 61.1791 206.381C61.8081 205.71 61.8807 204.966 62.0682 204.205C62.2677 203.388 62.685 202.644 62.1528 201.743C62.05 201.574 62.2375 201.314 62.4915 201.223C63.8885 200.703 63.5015 199.917 62.9935 199.065C62.7516 198.653 62.5641 198.188 62.7334 197.831C63.2717 196.67 64.3119 195.624 63.6829 194.233C63.4833 193.785 64.0337 193.356 64.07 192.89C64.203 191.143 66.2653 189.71 64.8562 187.708C64.7473 187.557 65.1404 187.376 65.207 187.194C65.34 186.819 65.4428 186.432 65.4731 186.033C65.5093 185.616 65.3823 185.174 65.4428 184.763C65.6908 183.046 65.9448 181.341 65.1223 179.508C64.9167 179.049 65.1767 178.377 65.6908 178.117C67.3055 177.307 67.0818 176.188 66.604 174.967C65.9327 173.286 65.6243 171.617 66.102 170.051C66.4105 168.974 66.1565 167.735 67.0394 166.809C67.1725 166.67 67.2148 166.392 67.1362 166.211C66.6826 165.134 66.8096 164.137 67.0818 163.115C67.2148 162.589 67.0152 161.954 67.1725 161.44C67.3539 160.799 67.2209 160.224 67.1362 159.583C66.9729 158.337 66.9366 157.08 67.0576 155.852C67.1846 154.643 67.4507 153.439 67.5898 152.218C67.62 151.964 67.6321 151.692 67.6503 151.438C67.6503 151.359 67.6382 151.22 67.6261 151.232C67.5958 151.275 67.5354 151.353 67.5172 151.45C67.3479 152.363 67.1241 153.27 66.9185 154.183C66.6463 155.374 66.4044 156.578 66.1081 157.769C66.0778 157.896 65.9206 157.987 65.8299 158.108C65.219 158.87 65.1767 158.882 65.7996 159.553C65.9025 159.662 66.096 159.843 66.0718 159.91C65.7875 160.617 65.7089 161.391 65.5638 162.153C65.4126 162.909 65.2009 163.647 64.5054 164.245C64.2877 164.433 64.3119 164.971 64.4631 165.273C64.9106 166.174 65.0376 166.912 63.7676 167.408C63.5801 167.481 63.441 167.886 63.5499 168.037C64.2151 168.902 63.6345 169.543 62.8665 169.966C62.1105 170.389 62.0561 170.849 62.4855 171.327C63.3805 172.318 63.1931 173.05 61.9533 173.649C61.3848 173.921 61.3787 174.187 62.0379 174.544C62.6185 174.858 63.6829 174.949 63.6527 175.584C63.6224 176.104 63.7253 176.799 63.2354 177.077C61.3787 178.124 60.913 179.405 60.9251 181.032C60.9433 182.447 59.6672 183.735 59.014 185.09C58.8568 185.416 58.9415 185.815 59.0745 186.184C59.4737 187.255 59.9998 188.325 60.4534 189.401C60.7921 190.2 59.9756 190.544 58.4758 190.26C58.0464 190.175 57.623 190.06 57.1997 189.964C57.1816 190.266 57.0001 190.58 57.1997 190.865C57.4416 191.215 58.3609 191.584 58.373 191.881C58.4093 192.866 58.2218 193.84 58.0161 194.795C57.9315 195.188 57.363 195.454 56.4619 195.182C54.5992 194.626 54.7806 195.092 54.9862 195.769C55.2463 196.628 55.3733 197.456 56.3409 198.327C57.5868 199.445 57.4718 199.464 55.6998 199.875C53.7222 200.34 53.7646 200.34 54.3028 201.659C54.5447 202.245 54.7685 202.862 54.702 203.418C54.5689 204.477 54.2242 205.505 54.0428 206.557C54.0246 206.666 54.2907 206.847 54.4903 206.968C54.5508 207.004 54.8955 206.992 54.9741 206.932C55.216 206.762 55.3914 206.557 55.597 206.369C55.6454 206.635 55.7603 206.914 55.718 207.162C55.6636 207.464 55.6636 207.93 55.3188 208.002C53.2989 208.444 54.4963 209.459 54.7564 210.324C54.9378 210.905 55.2221 211.534 55.0951 212.06C54.7503 213.475 54.2 214.847 53.9218 216.274C53.6315 217.786 53.4864 219.334 53.3654 220.876C53.3049 221.608 53.2565 222.4 54.4238 222.799C53.438 223.682 54.0004 224.728 54.4238 225.726C54.6052 226.137 54.9197 226.585 54.5205 226.887C53.3473 227.806 53.571 229.185 53.4319 230.461C53.3291 231.598 53.3291 232.801 53.0086 233.841C52.7002 234.906 53.3896 236.151 52.5006 237.052C52.4159 237.137 52.4341 237.596 52.5127 237.79C52.8211 238.558 52.5671 239.235 52.3554 240.015L52.2708 240.306L52.2163 240.42L52.1196 240.614C52.0651 240.729 51.9986 240.807 51.9623 240.898C51.9442 240.947 51.9321 240.995 51.926 241.061C51.9018 241.098 51.8353 241.049 51.793 241.067C51.7446 241.067 51.6962 241.092 51.6418 241.122C51.5813 241.158 51.5027 241.237 51.412 241.297C51.3515 241.346 51.2668 241.327 51.1882 241.297C51.0975 241.261 51.0733 241.249 50.8737 241.146C49.6763 240.517 48.509 239.816 47.3116 239.187C46.2895 238.655 46.2714 238.703 46.0295 239.665C46.0053 239.773 45.8964 239.858 45.8238 239.955C45.7392 239.846 45.588 239.731 45.588 239.634C45.6001 238.975 45.2735 238.51 44.5115 238.231C44.3542 238.177 44.1728 238.002 44.1123 237.856C43.7132 236.895 42.8483 236.502 42.0198 236.544C41.1066 236.593 40.5986 236.187 40.0543 235.528C39.5039 234.869 38.9536 234.198 38.0827 233.944C36.9457 233.624 35.8329 233.2 34.7141 232.783C34.4419 232.686 34.2544 232.335 34.0307 232.088C33.698 231.713 33.3533 231.35 33.057 230.927C32.6397 230.334 32.2224 230.062 31.5632 230.842C31.1882 231.283 30.9523 231.211 31.0854 230.485C31.1943 229.88 31.1519 229.457 30.5713 229.651C29.0231 230.165 27.7652 230.007 27.3963 227.728C27.36 227.504 27.1362 227.371 26.9608 227.298C26.5254 227.123 26.096 226.845 25.6122 226.911C24.4631 227.075 23.2959 226.337 22.05 228.925C21.7295 229.59 20.9372 230.322 20.6288 229.669C20.3566 229.064 18.8991 229.844 19.891 227.685C20.0361 227.371 20.024 226.954 20.0845 226.585L20.0543 226.633ZM23.7434 229.681C23.7918 229.348 23.7978 229.004 23.9067 228.689C24.0095 228.393 24.3119 227.885 24.3784 227.903C24.705 227.994 25.1041 228.084 25.2553 228.441C25.467 228.943 25.4912 229.663 25.588 230.279C25.588 230.286 25.4247 230.419 25.2795 230.546C25.1828 229.354 24.6022 229.179 23.7373 229.669L23.7434 229.681ZM42.8483 237.881C42.939 237.917 42.939 238.201 42.9814 238.37C42.6971 238.346 42.4008 238.37 42.1286 238.292C42.0016 238.256 41.917 238.026 41.6206 237.609C42.2375 237.729 42.558 237.76 42.8544 237.881H42.8483ZM17.236 230.654C17.2783 230.37 17.2965 230.086 17.3811 229.79C17.4114 229.687 17.7017 229.409 17.7017 229.433C17.75 229.614 17.7561 229.844 17.7863 230.177C17.5384 230.388 17.3872 230.521 17.2299 230.654H17.236ZM56.7703 220.973C56.8247 221.088 56.9275 221.209 56.9094 221.318C56.8913 221.433 56.7582 221.529 56.6735 221.632C56.6312 221.493 56.5949 221.354 56.5647 221.251C56.6494 221.136 56.7098 221.058 56.7703 220.979V220.973Z" fill="black"/>
<path d="M60.3877 245.023C60.1699 245.053 59.9099 245.283 59.668 245.428C59.7768 245.627 59.9522 245.779 59.9825 246.045C60.0974 247.006 60.4965 247.986 60.2183 248.93C59.7345 250.562 60.3211 250.587 60.9017 250.81C61.2464 250.943 61.5791 251.167 61.9661 251.107C63.0003 250.956 63.7442 251.33 64.4215 252.026C64.742 252.353 65.5283 252.407 65.9577 252.068C67.1733 251.113 67.9897 251.464 68.8545 251.875C69.423 252.147 70.058 252.298 69.7678 253.483C69.6287 254.052 69.9673 254.227 70.4814 254.076C71.703 253.731 71.6607 253.81 72.1627 254.929C72.3985 255.467 72.6707 256.278 73.3299 255.014C73.3722 254.935 73.6867 254.874 73.7351 254.935C74.4306 255.812 75.495 255.51 76.4082 255.606C77.1642 255.679 77.7811 255.999 77.9988 256.64C78.2346 257.342 78.9059 257.548 79.4079 257.523C79.9462 257.487 80.3876 257.1 80.811 256.876C80.8715 256.846 80.7747 256.489 80.684 256.441C79.9401 256.078 79.2991 255.612 78.8031 254.929C78.7366 254.838 78.5128 254.808 78.3677 254.814C77.2791 254.85 76.1179 255.068 75.3559 253.84C74.3217 253.961 73.8137 253.115 73.1606 252.486C72.707 252.062 72.3562 251.427 71.5881 251.512C71.2978 251.548 71.0317 251.064 70.7898 250.762C70.4391 250.327 70.1669 249.764 69.7798 249.383C69.5319 249.135 69.0239 248.887 68.7941 249.093C67.5664 250.224 66.9011 249.752 66.3568 248.676C66.2419 248.446 65.8851 248.5 65.6553 248.397C65.2803 248.234 64.8872 248.107 64.5485 247.865C63.3813 247.037 62.2443 246.148 60.9138 245.101C60.8957 245.101 60.6538 244.98 60.3756 245.023H60.3877ZM62.6858 248.258L62.5346 248.434C62.1838 248.591 61.827 248.784 61.4823 248.887C61.3976 248.911 61.3674 248.621 61.3069 248.476C61.4158 248.373 61.5549 248.168 61.6274 248.18C61.9419 248.228 62.2322 248.331 62.5346 248.422L62.6858 248.264V248.258Z" fill="black"/>
<path d="M47.6193 245.41C47.9036 244.775 48.1636 244.122 48.4781 243.517C48.6716 243.142 49.1313 242.525 49.1676 242.561C49.9175 243.348 51.381 241.394 52.2338 241.975C52.9535 242.447 54.1509 241.86 54.6347 242.985C54.9976 243.819 55.7234 243.813 56.5761 243.438C57.0115 243.251 57.447 243.063 57.8461 243.015C58.9287 242.894 59.3823 243.813 58.9468 245.537C58.5719 247.019 58.4207 248.277 58.6868 249.341C58.723 249.486 58.596 249.934 58.4932 250.049C58.3541 250.194 58.0699 250.266 58.0094 250.151C57.574 249.365 57.0962 248.609 56.8361 247.605C56.6003 246.71 56.2918 246.305 55.4391 246.493C54.3263 246.734 52.8628 247.799 52.3124 246.341C51.2117 247.031 50.5767 246.716 50.4013 245.392C50.3892 245.301 50.1896 245.331 50.0747 245.428C48.9196 246.402 48.333 245.718 47.6133 245.428V245.398L47.6193 245.41Z" fill="black"/>
<path d="M47.6203 245.44C47.4812 245.754 47.33 246.075 47.203 246.389C46.8885 247.2 46.568 248.022 46.2475 248.838C46.1688 248.149 45.8725 247.538 46.0539 246.728C46.5257 244.653 46.5438 243.039 46.314 241.503C46.1809 240.595 46.7736 239.61 47.4993 239.307C48.8359 238.757 49.0718 239.724 48.1223 241.998C47.5296 243.414 46.7555 244.871 47.6143 245.403V245.434L47.6203 245.44Z" fill="black"/>
<path d="M83.0292 257.811C83.5191 258.059 83.9304 258.416 84.2086 258.713C84.4868 259.015 84.6319 259.263 84.5472 259.402C84.5291 259.432 84.2811 259.414 84.2267 259.384C84.0695 259.299 83.8336 259.148 83.8457 259.081C83.9485 258.525 83.126 258.241 82.4245 257.957C82.1946 257.86 81.9225 257.854 81.6927 257.763C81.5354 257.697 81.4145 257.539 81.2754 257.418C81.4266 257.406 81.5778 257.358 81.729 257.394C82.2612 257.533 82.7873 257.727 83.0292 257.811Z" fill="black"/>
<path d="M57.3935 187.406C57.3089 187.2 57.0911 186.958 57.1819 186.801C57.2665 186.656 57.6596 186.565 57.9802 186.517C58.0588 186.505 58.5184 186.765 58.5305 186.874C58.5426 187.025 58.2946 187.158 58.1555 187.303L57.3935 187.406Z" fill="black"/>
<path d="M52.9903 250.519C52.6939 250.543 52.4339 250.664 52.4218 250.555C52.3976 250.301 52.4944 249.932 52.5427 249.611C52.706 249.557 52.9721 249.375 53.0024 249.472C53.0629 249.69 53.0024 250.047 52.9903 250.519Z" fill="black"/>
<path d="M36.2253 242.295C36.2737 242.313 36.3281 242.319 36.3644 242.355L37.0115 243.051C36.8906 243.238 36.7515 243.523 36.6487 243.595C35.8141 244.182 36.0499 243.184 36.2011 242.319L36.2253 242.295Z" fill="black"/>
<path d="M21.656 226.077L22.285 227.281C22.2305 227.335 22.1701 227.426 22.1277 227.432C21.5532 227.492 21.5411 226.863 21.6318 226.107L21.662 226.077H21.656Z" fill="black"/>
<path d="M86.7847 259.989C86.6759 259.989 86.5973 259.989 86.5186 259.989C86.4219 259.923 86.3009 259.844 86.2525 259.784C86.2404 259.765 86.4219 259.784 86.5126 259.814C86.5912 259.844 86.6759 259.923 86.7847 259.989Z" fill="black"/>
<path d="M21.6276 226.107L20.9805 224.927C21.0289 224.867 21.1196 224.752 21.1196 224.752C21.301 225.193 21.4764 225.635 21.6578 226.076L21.6276 226.107Z" fill="black"/>
<path d="M47.899 248.571C47.8627 248.88 47.8748 249.194 47.8022 249.297C47.6631 249.485 47.4333 249.654 47.3184 249.636C47.2398 249.624 47.2942 249.285 47.2882 249.085C47.4635 248.94 47.6329 248.795 47.905 248.571H47.899Z" fill="black"/>
<path d="M20.0547 226.633L20.2119 226.445L20.0547 226.633Z" fill="black"/>
<path d="M83.1262 148.359C83.0113 147.737 83.2895 147.077 82.1404 146.503C80.822 145.85 81.4812 145.729 81.959 145.62C83.5495 145.251 83.5737 145.275 83.0173 143.504C82.8419 142.947 82.5879 142.349 82.5819 141.865C82.5819 141.611 82.9931 141.417 83.3197 141.472C83.6644 141.526 84.1362 141.907 84.5535 142.143C84.3539 142.27 84.1483 142.385 83.9668 142.518C83.2955 143.026 83.4044 143.407 84.5897 143.975C85.3276 144.332 85.7691 144.586 85.9686 145.269C86.1138 145.765 86.4041 146.334 87.0633 146.279C87.3113 146.261 87.4866 145.771 87.3354 145.505C86.6097 144.217 87.027 143.733 88.0854 143.685C89.1195 143.637 89.1437 142.875 89.0107 142.022C88.8595 141.048 89.3191 140.655 90.2989 140.674C90.8613 140.686 91.4661 140.734 91.9317 140.613C92.3551 140.498 92.8752 140.299 92.8752 139.906C92.8752 139.259 92.2765 138.666 91.2846 138.333C90.2142 137.977 90.5831 137.408 90.8069 137.336C91.3028 137.166 92.0104 137.239 92.6272 137.203C93.7279 137.136 94.7923 137.027 94.6532 135.757C94.6291 135.546 94.7077 135.237 94.877 135.267C97.4231 135.679 97.1631 133.441 98.4815 132.74C100.278 131.802 101.1 130.206 101.475 128.235C101.554 127.823 101.669 127.697 102.056 127.551C103.38 127.043 105.4 126.947 103.997 124.371C103.314 123.119 102.981 122.417 104.783 123.21C104.965 123.288 105.074 122.78 105.11 122.478C105.134 122.278 103.628 120.924 105.358 122.061C106.307 122.683 106.912 122.901 106.543 121.946C106.005 120.537 106.833 120.144 108.104 120.803C109.531 121.547 109.543 120.9 109.954 120.634C110.365 120.367 110.365 119.684 110.843 119.497C113.081 118.632 114.442 117.066 114.708 114.58C114.774 113.964 115.071 113.468 114.992 112.784C114.835 111.382 115.935 111.091 117.066 110.964C117.744 110.886 118.234 110.946 117.955 110.063C117.81 109.604 118.143 109.319 118.258 108.951L118.24 108.92C117.901 106.774 119.709 106.447 121.003 105.697C121.584 105.371 123.247 105.897 121.85 104.059C121.832 104.034 122.243 103.817 122.521 103.913C123.38 104.222 123.598 104.052 123.477 103.321C123.38 102.722 123.652 102.263 123.912 101.863C124.239 101.362 123.967 100.727 123.283 99.9767C122.394 98.9971 122.14 99.6139 121.62 99.5897C121.191 99.5655 120.846 100.001 120.187 99.0999C119.794 98.5557 119.455 97.8421 118.814 97.9268C118.367 97.9873 117.986 98.3561 118.04 98.8036C118.143 99.753 119.141 101.343 116.667 99.9828C116.449 99.8618 116.147 100.4 115.996 100.714C115.579 101.591 115.47 102.631 113.982 102.686C112.446 102.734 112.839 104.439 114.224 106.302C114.756 107.016 116.153 107.832 115.693 108.521C114.871 107.777 114.024 107.052 113.232 106.29C112.881 105.951 112.694 105.467 112.343 105.189C111.956 104.881 111.146 104.464 111.067 104.554C110.069 105.752 108.176 106.32 108.95 108.805C109.283 109.876 109.174 110.62 108.321 110.728C107.692 110.807 106.422 110.1 105.866 110.239C105.461 110.341 106.047 111.769 105.672 111.708C104.215 111.478 104.735 112.597 104.892 113.431C104.971 113.843 105.461 114.514 105.926 114.998C106.078 115.155 106.797 115.179 107.142 115.125C108.394 114.919 109.543 114.593 110.855 114.466C111.194 114.429 111.98 114.883 112.53 115.246C112.748 115.391 113.032 115.995 113.02 116.231C112.966 117.296 110.849 118.1 109.295 117.374C107.626 116.594 106.936 116.981 106.967 117.852C107.027 119.515 104.584 118.698 104.136 119.829C104.1 119.92 102.884 119.17 102.219 118.813C102.255 118.451 102.122 117.93 102.352 117.749C102.969 117.247 103.767 116.915 104.433 116.449C104.674 116.28 104.789 115.977 104.838 115.651C104.862 115.494 104.626 115.149 104.42 114.901C104.336 114.798 103.937 114.629 103.846 114.665C102.854 115.052 101.27 115.07 101.082 115.995C100.78 117.495 99.9088 118.324 98.5178 118.813C98.3363 118.874 98.3424 119.279 98.4996 119.557C98.7657 120.011 99.2617 120.482 99.6064 120.948C100.743 122.496 100.695 122.508 99.2496 122.321C98.6811 122.248 97.7195 122.212 97.7981 122.417C98.3908 123.941 97.1812 123.887 96.3466 124.123C95.2217 124.431 94.4295 124.933 94.7561 126.439C94.8528 126.892 94.4476 127.249 94.0364 127.376C91.7685 128.077 91.9499 131.168 88.8292 131.028C88.5994 131.022 88.6901 131.518 88.5389 131.706C87.4927 133.048 86.6641 134.608 85.2852 135.624C83.7189 136.779 82.3339 138.007 81.8078 140.014C81.6989 140.42 81.2816 140.692 80.8704 140.837C79.564 141.302 78.9714 142.379 78.6025 143.606C78.3787 144.374 77.9856 144.888 77.3808 145.36C76.2861 146.207 75.1613 147.071 74.8044 148.589C74.2904 150.736 72.9357 152.205 71.2725 153.378C69.7062 154.461 68.1277 155.555 67.4322 157.418C66.7911 159.063 65.884 160.502 65.1099 162.026C64.8135 162.606 64.4507 163.084 64.0575 163.507C63.858 163.719 63.6523 163.918 63.4346 164.106L63.2713 164.245C63.235 164.263 63.2169 164.263 63.1927 164.269C63.1443 164.281 63.096 164.281 63.0536 164.281C62.9327 164.281 62.848 164.221 62.8298 164.396C62.8178 164.523 62.7815 164.59 62.7452 164.553C62.7331 164.553 62.7089 164.487 62.6847 164.396C62.6605 164.312 62.6424 164.215 62.6303 164.1C62.5637 163.525 62.6484 163.785 62.5033 164.318C62.4005 164.723 62.2735 164.856 62.1464 164.862C62.0799 164.862 62.0194 164.826 61.959 164.753C61.9287 164.717 61.8985 164.68 61.8683 164.632C61.8683 164.614 61.8259 164.578 61.7836 164.529C61.7412 164.487 61.705 164.439 61.6566 164.39C61.2272 163.906 60.8704 163.338 60.3624 162.963L58.9714 161.941L58.2698 161.433L57.5985 160.895C56.6974 160.175 55.8084 159.45 54.9254 158.706C54.3992 158.258 53.8791 157.805 53.3651 157.345C52.851 156.886 52.337 156.42 51.8592 155.918C50.9278 154.975 50.1053 153.729 49.1316 153.082C48.424 152.616 47.8132 152.036 47.2145 151.449C46.6158 150.863 46.0654 150.24 45.3881 149.768C44.8679 149.399 44.3478 148.904 44.1604 148.111C44.0636 147.694 43.5011 147.114 43.0657 146.793C42.5335 146.4 42.0678 145.983 41.711 145.499C41.3723 144.997 41.1425 144.429 41.0639 143.739C41.0458 143.564 40.6768 143.207 40.5619 143.231C40.2777 143.298 40.0479 143.546 39.7939 143.715C39.7939 143.322 39.8846 142.911 39.812 142.518C39.7394 142.119 39.5943 141.629 39.3282 141.369C38.4392 140.468 37.6469 139.543 37.4292 138.182C37.3989 137.989 37.0905 137.88 36.9272 137.717C36.395 137.178 35.7419 136.719 35.3306 136.084C34.6472 135.026 34.1029 133.865 33.5888 132.697C33.2744 131.917 32.6152 131.585 31.9378 131.155C31.333 130.768 31.4116 129.65 31.0851 128.918C30.7161 128.102 30.2081 127.376 29.7727 126.608C29.6275 126.348 29.6396 125.973 29.4401 125.78C28.5692 124.963 27.5894 124.219 26.646 123.433C26.3255 123.167 25.884 122.907 25.8719 122.496C25.8416 121.486 25.3457 120.791 24.9224 120.005C24.499 119.14 24.2995 118.203 23.2592 117.743C23.0657 117.658 23.0234 117.302 23.1504 117.054C23.8519 115.675 23.0052 115.233 22.0194 114.792C21.5477 114.58 21.0699 114.278 20.949 113.849C20.5801 112.44 20.7252 110.825 19.2979 109.924C18.8444 109.634 18.9956 108.896 18.7174 108.449C17.6227 106.756 18.4513 104.167 16.0563 103.097C15.8749 103.012 16.0866 102.613 16.02 102.402C15.893 101.966 15.7358 101.537 15.5181 101.144C15.2883 100.727 14.9073 100.376 14.7016 99.9465C13.8973 98.1384 13.1353 96.3425 11.3693 94.9758C10.9278 94.6311 10.7524 93.8269 11.0427 93.3008C11.968 91.6378 11.1939 90.6461 10.1235 89.6665C9.38564 88.9953 8.72038 88.2757 8.18213 87.4895C7.91603 87.0965 7.68016 86.6913 7.48664 86.268C7.3052 85.8447 7.17215 85.3973 7.08143 84.9316C6.82138 83.6738 5.98074 82.5068 6.30732 81.1341C6.3557 80.9285 6.25894 80.6261 6.09565 80.4689C5.62392 80.0154 5.29129 79.5135 5.04938 78.9813C4.81957 78.4431 4.68651 77.8626 4.57765 77.2639C4.46275 76.6532 3.99707 76.0666 3.9003 75.4559C3.7733 74.6939 3.39229 74.1497 3.02942 73.5027C2.67865 72.8738 2.33998 72.2328 2.05573 71.5737C1.78963 70.9085 1.55981 70.2252 1.36628 69.5358C0.991322 68.1752 0.755459 66.7662 0.386544 65.3935C0.313971 65.1033 0.211159 64.807 0.12649 64.5228C0.0962508 64.4381 0.0236775 64.293 0.0236775 64.3111C0.0115819 64.3716 -0.0065614 64.4804 0.0115819 64.5893C0.223254 65.6415 0.386544 66.7118 0.56193 67.7821C0.797793 69.179 1.0518 70.5819 1.26952 71.9969C1.29976 72.1481 1.19695 72.3114 1.16671 72.4747C0.961083 73.551 0.924796 73.5813 1.79568 74.0348C1.94082 74.1074 2.19483 74.2162 2.20088 74.3009C2.2674 75.1777 2.5456 76.0424 2.75727 76.9072C2.9629 77.7779 3.102 78.6548 2.75727 79.6163C2.66051 79.9126 2.94475 80.4689 3.23505 80.7168C4.08778 81.4546 4.56556 82.1621 3.68863 83.2868C3.56163 83.4501 3.64025 83.946 3.81563 84.0488C4.83771 84.6414 4.64418 85.5847 4.18455 86.4071C3.72492 87.2295 3.92449 87.7375 4.56556 88.0156C5.88397 88.5962 6.11984 89.4307 5.38201 90.6884C5.04333 91.2629 5.18243 91.5411 5.9505 91.5713C6.6218 91.5955 7.58945 91.1359 7.90393 91.8011C8.15794 92.3453 8.62966 92.9984 8.35751 93.5427C7.35963 95.5866 7.76483 97.1407 8.73248 98.7734C9.59126 100.188 9.25863 102.208 9.6215 103.919C9.70012 104.331 10.0267 104.681 10.3714 104.966C11.3814 105.788 12.4942 106.532 13.5405 107.306C14.3206 107.88 13.8731 108.709 12.4942 109.338C12.095 109.519 11.6777 109.664 11.2725 109.821C11.46 110.124 11.5326 110.541 11.8834 110.698C12.3188 110.892 13.2985 110.686 13.5102 110.958C14.2118 111.883 14.7198 112.924 15.2096 113.97C15.4153 114.399 15.1492 115.01 14.2541 115.324C12.4156 115.965 12.8752 116.31 13.5042 116.836C14.2783 117.513 15.0222 118.197 16.3829 118.39C18.1428 118.626 18.0642 118.705 17.0179 120.253C15.8507 121.988 15.887 121.97 17.2538 122.853C17.8707 123.246 18.4634 123.675 18.8444 124.225C19.558 125.278 20.0902 126.445 20.7615 127.527C20.8341 127.642 21.1667 127.618 21.4026 127.594C21.4751 127.588 21.7171 127.334 21.7292 127.231C21.7715 126.91 21.7533 126.608 21.7594 126.294C21.9953 126.499 22.2916 126.669 22.4549 126.922C22.6484 127.231 22.9992 127.648 22.7996 127.957C22.2251 128.858 22.3642 129.329 22.7391 129.65C23.1141 129.97 23.731 130.14 24.1785 130.424C24.7712 130.805 25.4788 131.137 25.8054 131.688C26.6883 133.157 27.402 134.741 28.3454 136.175C29.4038 137.656 30.6012 139.047 31.8108 140.42C32.3793 141.073 33.0143 141.768 34.109 141.206L34.0848 141.042L34.115 141.206C34.1392 141.955 34.5202 142.397 34.9859 142.742C35.4637 143.08 36.0563 143.298 36.6248 143.522C37.0966 143.703 37.6832 143.812 37.6892 144.356C37.7013 145.179 38.0582 145.807 38.5238 146.376C38.9956 146.944 39.558 147.464 40.1083 147.984C41.0639 148.922 42.1404 149.817 42.8843 150.851C43.2592 151.377 43.8459 151.722 44.3539 152.121C44.8619 152.52 45.3034 152.967 45.4788 153.638C45.509 153.765 45.9444 154.074 46.1682 154.146C47.0633 154.437 47.5411 155.126 48.1458 155.852C48.7748 156.608 49.3735 157.412 50.0448 158.15C50.7101 158.887 51.5024 159.504 52.4277 159.97C52.7361 160.121 53.0385 160.52 53.3227 160.822C54.4053 161.971 55.4153 163.205 56.5341 164.324C57.5018 165.261 57.532 165.225 58.04 164.366C58.0944 164.269 58.2335 164.227 58.3303 164.16C58.3908 164.299 58.5299 164.481 58.4996 164.572C58.3182 165.219 58.5541 165.811 59.304 166.398C59.4552 166.519 59.6124 166.761 59.6427 166.936C59.6366 167.166 59.9148 167.589 60.1809 167.94C60.4591 168.303 60.7796 168.653 61.1183 168.974C61.451 169.312 61.8138 169.524 62.1525 169.718C62.4912 169.905 62.8117 170.044 63.0899 170.135C63.1685 170.159 63.2411 170.183 63.3137 170.213L63.4225 170.256C63.4588 170.268 63.4951 170.31 63.5253 170.232C63.6463 170.044 63.7612 169.875 63.8701 169.724C64.0938 169.415 64.3116 169.161 64.5353 168.938C64.9768 168.502 65.4909 168.103 66.1259 167.668C66.8698 167.093 67.1903 167.015 67.6197 166.724C68.0249 166.458 68.3999 166.138 68.6901 165.708C69.4582 164.578 70.323 163.495 71.1697 162.407C71.3754 162.147 71.7987 162.026 72.1313 161.856C72.6333 161.596 73.1353 161.324 73.6735 161.107C74.4295 160.81 74.8589 160.435 74.3509 159.534C74.0606 159.02 74.2239 158.791 74.8952 159.117C75.4516 159.389 75.893 159.45 75.9293 158.778C76.0321 156.995 76.6853 155.694 79.0923 155.876C79.3342 155.894 79.552 155.688 79.6911 155.519C80.0358 155.102 80.4833 154.709 80.6103 154.183C80.9006 152.919 82.0981 151.861 80.0176 149.871C79.4854 149.363 79.0681 148.329 79.8422 148.166C80.5498 148.027 80.3503 146.273 82.1041 147.876C82.3581 148.111 82.7815 148.202 83.1262 148.359ZM78.6448 151.522C78.9532 151.661 79.2979 151.752 79.564 151.951C79.812 152.139 80.1991 152.586 80.1567 152.659C79.939 152.985 79.685 153.391 79.2738 153.457C78.6932 153.554 77.9674 153.397 77.3143 153.348C77.3082 153.348 77.2357 153.137 77.1691 152.949C78.3908 153.143 78.7899 152.574 78.6448 151.528V151.522ZM61.3481 167.783C61.2211 167.674 61.1728 167.293 61.1123 167.063C61.4691 167.244 61.7957 167.359 62.1102 167.547C62.2614 167.643 62.3944 167.976 62.9387 168.72C62.2009 168.309 61.7533 168.139 61.3481 167.783ZM99.5459 126.669C99.2738 126.56 99.0016 126.475 98.7355 126.318C98.6387 126.263 98.4694 125.888 98.4936 125.888C98.6932 125.876 98.929 125.919 99.2738 125.961C99.3947 126.269 99.4733 126.469 99.552 126.662L99.5459 126.669ZM34.1513 137.874C34.2783 137.928 34.4537 137.946 34.5262 138.049C34.6049 138.158 34.5988 138.333 34.6291 138.478C34.49 138.394 34.3448 138.315 34.242 138.249C34.2057 138.085 34.1815 137.983 34.1513 137.874Z" fill="black"/>
<path d="M129.04 84.7025C129.101 84.7992 129.379 84.9504 129.536 85.1137C129.76 85.0714 129.923 84.9746 130.238 84.9504C131.375 84.8899 132.754 84.3094 134.199 84.1219C136.63 83.8376 137.023 83.0635 137.628 82.3015C137.997 81.8358 138.566 81.2855 138.572 80.9528C138.572 80.5174 138.765 80.0941 139.189 79.58C139.4 79.3199 139.666 79.0417 139.999 78.7333C139.775 78.697 139.6 78.6365 139.443 78.5579C139.134 78.4067 137.483 78.6365 136.304 79.1022C132.977 80.4025 132.149 80.5053 131.042 80.5234C130.691 80.5234 130.286 80.596 130.099 80.4811C129.905 80.3723 129.881 80.1001 130.183 79.4832C130.498 78.8905 129.808 78.9087 128.974 79.2957C128 79.7554 127.661 79.9489 127.323 79.9489C127.16 79.9489 127.002 79.8945 126.791 79.7917C126.682 79.7372 126.561 79.6768 126.422 79.6102C126.313 79.5377 126.192 79.453 126.053 79.3623C125.527 78.9994 124.825 78.4007 124.801 79.828C124.801 79.9187 124.505 80.1182 124.42 80.082C123.241 79.6223 122.297 80.3904 121.299 80.723C120.483 81.0073 119.666 81.0133 119.11 80.5416C118.499 80.0275 117.695 80.1606 117.187 80.4146C116.648 80.6928 116.394 81.2431 116.068 81.6423C116.02 81.6967 116.31 81.9689 116.425 81.9689C117.386 81.9447 118.287 82.0596 119.158 82.4406C119.273 82.489 119.521 82.4104 119.666 82.3378C120.773 81.7995 121.868 81.0677 123.295 81.8056C124.305 81.2189 125.273 81.733 126.277 81.9931C126.96 82.1563 127.141 82.3922 127.819 81.9326C128.085 81.7632 128.315 81.9749 128.46 82.0414C128.575 82.0959 128.641 82.1745 128.696 82.241C128.756 82.2954 128.726 82.4345 128.768 82.489C128.811 82.5736 129.028 82.5736 129.433 82.3559C130.51 81.7632 131.296 81.485 131.713 81.4246C132.137 81.3641 132.179 81.5213 131.883 81.7995C131.75 81.9205 132.306 81.7572 132.512 81.7451L132.766 81.727C132.766 81.727 132.705 81.8237 132.669 81.8721C132.578 81.981 132.469 82.0959 132.306 82.2289C131.744 82.6886 131.181 83.1179 130.625 83.5171C130.347 83.7167 130.068 83.9102 129.796 84.0916C129.542 84.2368 129.288 84.3759 129.04 84.4968C129.04 84.5029 128.95 84.5876 129.028 84.7146L129.04 84.7025ZM133.346 82.6644L133.643 82.6402C133.915 82.743 134.211 82.87 134.362 83.0696C134.399 83.1179 133.897 83.3115 133.661 83.4264C133.51 83.3961 133.201 83.4022 133.219 83.3538C133.304 83.124 133.479 82.8821 133.619 82.6583L133.346 82.6765V82.6644Z" fill="black"/>
<path d="M125.576 97.3774C125.043 96.9298 124.481 96.5065 123.991 96.0287C123.689 95.7384 123.235 95.1034 123.29 95.0732C124.354 94.4442 122.939 92.4303 123.834 91.6441C124.572 90.9728 124.427 89.5637 125.739 89.2976C126.713 89.0919 126.973 88.3118 126.912 87.3139C126.882 86.8059 126.858 86.2918 126.961 85.8564C127.082 85.2818 127.517 84.798 127.771 85.0097C128.122 85.1004 128.739 85.3 129.628 85.5963C131.14 86.1164 132.597 86.2434 134.266 85.5963C134.49 85.5116 135.101 85.5056 135.21 85.5963C135.349 85.7173 135.276 86.0862 135.071 86.2132C133.649 87.0659 132.404 87.7856 131.2 87.961C130.196 88.0275 129.688 88.2573 129.561 89.2189C129.392 90.4708 129.918 92.2791 128.249 92.5452C128.533 93.8818 127.983 94.4926 126.592 94.3837C126.495 94.3777 126.453 94.6015 126.507 94.7466C127.057 96.2041 126.156 96.6819 125.6 97.3834H125.57L125.576 97.3774Z" fill="black"/>
<path d="M125.606 97.3822C125.872 97.6 126.132 97.8358 126.41 98.0415C127.105 98.5616 127.813 99.0938 128.515 99.6199C127.795 99.5534 127.069 99.7288 126.325 99.3538C124.42 98.3801 122.805 97.9991 121.179 97.8963C120.217 97.8358 119.449 96.977 119.413 96.1243C119.352 94.564 120.41 94.5277 122.346 96.0638C123.543 97.0133 124.723 98.1806 125.575 97.3762H125.606V97.3822Z" fill="black"/>
<path d="M113.287 81.8299C112.652 81.8359 112.041 81.715 111.593 81.5759C111.146 81.4368 110.867 81.2856 110.886 81.1223C110.886 81.0921 111.152 80.9893 111.23 80.9893C111.442 80.9893 111.763 81.0134 111.787 81.08C111.968 81.6182 112.972 81.4912 113.843 81.4186C114.133 81.4005 114.411 81.2735 114.702 81.2493C114.901 81.2312 115.107 81.3158 115.313 81.3642C115.161 81.4489 115.028 81.5577 114.853 81.594C114.224 81.715 113.583 81.7936 113.287 81.8299Z" fill="black"/>
<path d="M9.79054 107.125C9.59097 106.967 9.25834 106.865 9.2281 106.647C9.20391 106.453 9.47001 106.127 9.69378 105.897C9.75426 105.836 10.2925 105.824 10.3711 105.927C10.48 106.072 10.359 106.35 10.3409 106.568L9.78449 107.125H9.79054Z" fill="black"/>
<path d="M132.688 92.7556C132.603 93.0821 132.627 93.3845 132.513 93.3724C132.253 93.3422 131.92 93.1547 131.611 93.0277C131.611 92.8402 131.533 92.5136 131.642 92.5015C131.884 92.4834 132.222 92.6285 132.688 92.7556Z" fill="black"/>
<path d="M118.24 108.902C118.277 108.854 118.301 108.793 118.355 108.763L119.293 108.225C119.438 108.4 119.668 108.606 119.704 108.739C119.982 109.767 119.069 109.289 118.258 108.932L118.24 108.902Z" fill="black"/>
<path d="M83.0413 150.21L81.5959 150.573C81.5656 150.501 81.4991 150.41 81.5112 150.368C81.6806 149.739 82.3095 149.884 83.0232 150.174L83.0413 150.216V150.21Z" fill="black"/>
<path d="M108.26 81.6356C108.375 81.5872 108.453 81.5509 108.538 81.5146C108.671 81.5328 108.841 81.5449 108.919 81.5751C108.943 81.5872 108.75 81.6598 108.629 81.6658C108.526 81.6719 108.399 81.6416 108.254 81.6356H108.26Z" fill="black"/>
<path d="M83.0295 150.173L84.4507 149.78C84.493 149.847 84.5717 149.974 84.5717 149.974C84.0576 150.052 83.5496 150.131 83.0416 150.21L83.0234 150.167L83.0295 150.173Z" fill="black"/>
<path d="M128.854 97.7881C129.144 97.8969 129.47 97.9514 129.543 98.0602C129.682 98.2477 129.767 98.538 129.706 98.659C129.664 98.7436 129.343 98.6045 129.144 98.5682C129.059 98.3505 128.981 98.1328 128.854 97.7941V97.7881Z" fill="black"/>
<path d="M83.127 148.359L83.254 148.577L83.127 148.359Z" fill="black"/>
</svg>
