<svg fill="none" height="260" viewBox="0 0 140 260" width="140" xmlns="http://www.w3.org/2000/svg"><path d="m12.264 95.3574c.26.514.5261 1.022.7922 1.5299 1.6995 3.2477 3.4715 6.3797 5.2193 9.2397 3.6649 5.975 7.2271 10.716 11.1097 15.336 1.6208 1.935 3.3021 3.846 5.0681 5.817 1.3244 1.481 2.7033 2.993 4.1427 4.578 7.9286 8.725 11.8899 24.424 16.3532 27.042 1.6268.955 3.1811 1.518 4.7535 1.669 2.141.206 11.5211 1.113 13.9462.073.9193-.393 1.899-.907 2.9755-1.567 2.7034-1.663 7.1001-14.307 11.4364-18.189.6168-.557 1.2579-1.131 1.9232-1.736 3.3202-3.041 7.215-6.766 11.866-11.326.49-.484.949-.937 1.427-1.403.98-.961 1.929-1.905 2.855-2.818.592-.592 1.191-1.185 1.765-1.753 2.166-2.165 4.167-4.191 6.024-6.096.992-1.016 1.935-1.995 2.843-2.945 1.064-1.112 2.074-2.177 3.029-3.193 2.087-2.219 3.925-4.226 5.534-6.041 2.74-3.084 4.838-5.6173 6.429-7.6915.187-.2479.369-.4838.538-.7196 1.53-2.0499 2.534-3.6282 3.169-4.8558.121-.2419.236-.4656.333-.6773.429-.9494.617-1.6569.653-2.195.048-.6713-.121-1.1006-.314-1.4272-1.301-2.2132-12.029-3.1142-20.073-3.0416 0 0-2.607.0242-9.549-.1331-1.264 1.3364-2.855 2.7333-4.845 3.9367l.133.1088c-1.602.9555-3.4469 1.7839-5.5576 2.3523-2.4312.6531-4.941.901-7.4448.768-6.5558-.3507-13.039-3.3319-17.8591-8.3994-4.052-.1693-7.8923-.3507-11.6057-.6349-1.1853 1.1731-2.6308 2.3644-4.3786 3.3984h-.0121c-1.5845.9373-3.4049 1.7537-5.4913 2.3161-2.4071.647-4.8927.8949-7.3783.7559-6.6828-.3568-13.3112-3.459-18.1252-8.7441l-.0121-.0121c.6955-1.1792 2.0623-3.1747 4.173-5.1582-15.6759-7.0387-21.68738-15.5651-25.07413-13.0798-.44149.3266-.76807.8043-1.00394 1.3909-2.0864786 5.2004 3.36257 20.0823 10.23287 33.5249z" fill="#e77300"/><path d="m23.9492 78.6737h.0121v.0121c4.814 5.2851 11.4424 8.3873 18.1252 8.7441 2.4796.133 4.9713-.1089 7.3783-.7559 2.0865-.5624 3.9069-1.3848 5.4914-2.3221l-19.2501-15.5349s.0121 0 .0181-.0061l-.0181-.0121c-3.2053 1.1792-5.691 2.951-7.5779 4.7288-2.1167 1.9835-3.4835 3.979-4.1729 5.1582z" fill="#eaeaea"/><path d="m54.9669 84.3468c1.7417-1.028 3.1871-2.2194 4.3786-3.3926 1.8687-1.8505 3.0904-3.6526 3.7375-4.7532h-.0121v-.0121c-6.5981-7.2448-16.6072-10.3774-25.4914-7.9826-.6411.1754-1.2519.381-1.8446.5987 0 0-.0121 0-.0181.006z" fill="#000"/><path d="m96.2493 89.2197c2.1107-.5684 3.9557-1.4029 5.5577-2.3523l-.133-.1088c-.054.0363-.103.0726-.163.1088l-19.3409-15.6135c-6.7252 2.5458-10.3538 7.6616-11.6662 9.8991h.0121v.0121c.1391.1511.2903.2781.4294.4293 4.8201 5.0614 11.3033 8.0426 17.8591 8.3994 2.5038.133 5.0136-.1089 7.4448-.768z" fill="#eaeaea"/><g fill="#000"><path d="m101.512 86.8681c.06-.0363.109-.0726.163-.1089 1.984-1.2094 3.581-2.6003 4.845-3.9368 1.548-1.6449 2.6-3.1991 3.181-4.1909h-.012v-.0121c-6.659-7.3173-16.7649-10.4801-25.7337-8.0612-.6592.1754-1.2761.3871-1.8869.6108l.0967.0786 19.3409 15.6144z"/><path d="m20.0543 226.633c-.5081.315-1.137.284-1.3729 1.536-.2721 1.433-.5141.871-.7197.466-.6652-1.337-.6471-1.367-2.0441-.248-.4355.35-.8951.792-1.3124.961-.2177.091-.4717-.224-.4959-.544-.0303-.333.1935-.895.3084-1.361.1512.139.2964.291.4536.412.5806.447.883.217 1.1128-1.071.1451-.798.2661-1.294.8044-1.711.3931-.302.8164-.762.6289-1.355-.0726-.223-.5261-.217-.7197.019-.9434 1.106-1.4514.888-1.7236-.073-.2661-.931-.9253-.695-1.6208-.284-.8043.471-1.2398.181-1.4394-.726-.1149-.52-.1995-1.1-.4112-1.481-.1935-.351-.4778-.762-.8165-.629-.5503.223-.93131.973-.99784 2.001-.07257 1.107-.63502.956-.74992.78-.15725-.242-.24796-.592-.33868-.949l-1.94738 4.529c.04838.23.09676.466.15724.684.27215.997.56849 1.947 1.63895 1.415.18143-.091.45963-.115.47172.048.1391 2.485 2.01991 1.536 2.88481 2.528 1.1612 1.36 2.6973 1.614 4.4753 1.336.369-.06.502.006.7076.321.6955 1.064 1.1733 2.902 3.1267.786.9495-1.028 1.4938-1.561 1.1612.356-.0363.194.4294.133.6955.067.1814-.042 1.0523-1.869.4112.097-.3568 1.076-.4233 1.705.3327 1.064 1.1128-.943 1.6147-.308 1.2942 1.076-.3629 1.554.1996 1.367.508 1.657.3145.297.9011.079 1.1551.46 1.1794 1.796 2.8002 2.558 5.0015 2.007.5504-.133 1.0282-.018 1.6088-.308 1.1793-.593 1.645.339 1.9776 1.342.1996.599.2419 1.071.9495.539.3689-.278.6773-.067 1.016-.073l.0242-.024c1.7901-.998 2.4191.574 3.3202 1.53.3992.435.2661 2.14 1.5785.266.0181-.024.2903.284.254.574-.0968.889.0847 1.04.6955.696.4959-.278.9495-.176 1.3426-.061.4959.145.9918-.314 1.512-1.185.6713-1.131.0907-1.173.012-1.663-.0604-.405-.508-.586.1452-1.481.3931-.539.9434-1.077.7439-1.645-.1391-.393-.5322-.629-.9072-.442-.7983.393-1.9837 1.827-1.2882-.895.0605-.241-.4596-.35-.762-.387-.8406-.108-1.7599.127-2.0925-1.239-.3387-1.409-1.7357-.502-3.0783 1.378-.5141.72-.9495 2.274-1.6329 2.069.4838-.998.9434-2.008 1.4514-2.982.2238-.429.6048-.762.7802-1.173.1875-.453.3931-1.342.3024-1.385-1.2277-.544-2.0865-2.11-4.0883-.604-.8588.647-1.5241.786-1.7841.03-.1875-.556.1754-1.959-.0544-2.425-.1694-.345-1.2882.653-1.3064.29-.0846-1.421-.9495-.58-1.6389-.169-.3387.2-.8225.871-1.1551 1.457-.1089.188.0121.859.127 1.161.4173 1.095.9253 2.056 1.2942 3.224.0968.302-.1452 1.173-.3508 1.796-.0847.241-.5503.701-.756.767-.9313.291-2.0381-1.415-1.7115-3.084.3508-1.796-.1209-2.303-.8648-2.001-1.4273.586-1.1975-1.935-2.2619-1.99-.0907 0 .3266-1.366.508-2.098.3206-.085.7439-.369.9495-.218.5564.412.9979 1.047 1.5241 1.512.1935.169.4778.182.768.121.1391-.03.3932-.357.5685-.623.0726-.109.1391-.532.0908-.604-.5262-.793-.8467-2.256-1.6874-2.135-1.3547.199-2.2437-.345-2.9332-1.476-.0907-.145-.4414-.018-.6471.224-.3386.387-.6531.998-.9858 1.464-1.1188 1.548-1.1369 1.505-1.2579.102-.0484-.55-.1996-1.451-.3629-1.312-1.2035 1.034-1.3909-.103-1.7538-.804-.4899-.943-1.0705-1.518-2.3103-.732-.3749.236-.762-.03-.9495-.369-1.0462-1.874-3.6831-.725-4.1729-3.658-.0363-.218-.4536.024-.6471-.055-.5504-.217-1.12493-.393-1.68737-.586l-2.75174 6.398c.84064.26 1.65709.568 2.35863 1.112 1.33048 1.046 2.67918 1.905 4.51768 1.7.3689-.043.6895.254.9132.58.6834 1.04 1.7357 1.222 2.8667 1.143.7076-.054 1.2337.133 1.7659.526.9677.714 1.9474 1.457 3.3263 1.27 1.9534-.26 3.5077.484 4.8745 1.615 1.264 1.07 2.5522 2.146 4.3 2.158 1.5482.024 2.9755.375 4.4511.563 1.1249.151 1.9414.665 2.7699 1.264.2722.199.5988.429.9253.459.5081.055.7318.248.883.671.1875.539.4536.478.8769.073.6472-.611.9979-.575 1.7539-.097.4778.302.9132.708 1.4333.883 1.9111.641 3.798 1.222 5.7152 1.923l1.3123.514.6532.26c.2117.079.4173.139.6229.206.4052.127.8407.296 1.2277.387l.3629-1.192c.2721-.677.4536-1.699.6592-2.666.1149-.581.1512-.726.1996-1.034.0423-.273.0544-.545.0363-.799-.121-1.475.3991-2.902.2842-4.335-.0484-.557 0-1.174.4899-1.724.26-.29.3447-.986.3145-1.457-.0726-1.155.0786-2.165.9978-3.03.1149-.109.1331-.556.0363-.623-.2419-.151-.5745-.175-.8709-.248.2964-.211.6532-.381.8951-.653s.5141-.641.5262-.967c.0544-1.101.26-2.141 1.0523-3.078.1149-.133-.0242-.399-.0182-.605.0061-.665-.1209-1.36.0424-2.001.2721-1.065.7136-2.105 1.1853-3.133.3145-.671.0424-1.3-.1451-1.989-.1754-.617.6411-1.258.9011-1.911.2843-.738.4052-1.506.6169-2.256.0726-.248.3387-.477.3084-.731-.133-1.059-.387-2.129-.5987-3.193-.0726-.363-.2359-.792.0181-1.065.629-.671.7016-1.415.8891-2.176.1995-.817.6168-1.561.0846-2.462-.1028-.169.0847-.429.3387-.52 1.397-.52 1.01-1.306.502-2.158-.2419-.412-.4294-.877-.2601-1.234.5383-1.161 1.5785-2.207.9495-3.598-.1996-.448.3508-.877.3871-1.343.133-1.747 2.1953-3.18.7862-5.182-.1089-.151.2842-.332.3508-.514.133-.375.2358-.762.2661-1.161.0362-.417-.0908-.859-.0303-1.27.248-1.717.502-3.422-.3205-5.255-.2056-.459.0544-1.131.5685-1.391 1.6147-.81 1.391-1.929.9132-3.15-.6713-1.681-.9797-3.35-.502-4.916.3085-1.077.0545-2.316.9374-3.242.1331-.139.1754-.417.0968-.598-.4536-1.077-.3266-2.074-.0544-3.096.133-.526-.0666-1.161.0907-1.675.1814-.641.0484-1.216-.0363-1.857-.1633-1.246-.1996-2.503-.0786-3.731.127-1.209.3931-2.413.5322-3.634.0302-.254.0423-.526.0605-.78 0-.079-.0121-.218-.0242-.206-.0303.043-.0907.121-.1089.218-.1693.913-.3931 1.82-.5987 2.733-.2722 1.191-.5141 2.395-.8104 3.586-.0303.127-.1875.218-.2782.339-.6109.762-.6532.774-.0303 1.445.1029.109.2964.29.2722.357-.2843.707-.3629 1.481-.508 2.243-.1512.756-.3629 1.494-1.0584 2.092-.2177.188-.1935.726-.0423 1.028.4475.901.5745 1.639-.6955 2.135-.1875.073-.3266.478-.2177.629.6652.865.0846 1.506-.6834 1.929-.756.423-.8104.883-.381 1.361.895.991.7076 1.723-.5322 2.322-.5685.272-.5746.538.0846.895.5806.314 1.645.405 1.6148 1.04-.0303.52.0726 1.215-.4173 1.493-1.8567 1.047-2.3224 2.328-2.3103 3.955.0182 1.415-1.2579 2.703-1.9111 4.058-.1572.326-.0725.725.0605 1.094.3992 1.071.9253 2.141 1.3789 3.217.3387.799-.4778 1.143-1.9776.859-.4294-.085-.8528-.2-1.2761-.296-.0181.302-.1996.616 0 .901.2419.35 1.1612.719 1.1733 1.016.0363.985-.1512 1.959-.3569 2.914-.0846.393-.6531.659-1.5542.387-1.8627-.556-1.6813-.09-1.4757.587.2601.859.3871 1.687 1.3547 2.558 1.2459 1.118 1.1309 1.137-.6411 1.548-1.9776.465-1.9352.465-1.397 1.784.2419.586.4657 1.203.3992 1.759-.1331 1.059-.4778 2.087-.6592 3.139-.0182.109.2479.29.4475.411.0605.036.4052.024.4838-.036.2419-.17.4173-.375.6229-.563.0484.266.1633.545.121.793-.0544.302-.0544.768-.3992.84-2.0199.442-.8225 1.457-.5624 2.322.1814.581.4657 1.21.3387 1.736-.3448 1.415-.8951 2.787-1.1733 4.214-.2903 1.512-.4354 3.06-.5564 4.602-.0605.732-.1089 1.524 1.0584 1.923-.9858.883-.4234 1.929 0 2.927.1814.411.4959.859.0967 1.161-1.1732.919-.9495 2.298-1.0886 3.574-.1028 1.137-.1028 2.34-.4233 3.38-.3084 1.065.381 2.31-.508 3.211-.0847.085-.0665.544.0121.738.3084.768.0544 1.445-.1573 2.225l-.0846.291-.0545.114-.0967.194c-.0545.115-.121.193-.1573.284-.0181.049-.0302.097-.0363.163-.0242.037-.0907-.012-.133.006-.0484 0-.0968.025-.1512.055-.0605.036-.1391.115-.2298.175-.0605.049-.1452.03-.2238 0-.0907-.036-.1149-.048-.3145-.151-1.1974-.629-2.3647-1.33-3.5621-1.959-1.0221-.532-1.0402-.484-1.2821.478-.0242.108-.1331.193-.2057.29-.0846-.109-.2358-.224-.2358-.321.0121-.659-.3145-1.124-1.0765-1.403-.1573-.054-.3387-.229-.3992-.375-.3991-.961-1.264-1.354-2.0925-1.312-.9132.049-1.4212-.357-1.9655-1.016-.5504-.659-1.1007-1.33-1.9716-1.584-1.137-.32-2.2498-.744-3.3686-1.161-.2722-.097-.4597-.448-.6834-.695-.3327-.375-.6774-.738-.9737-1.161-.4173-.593-.8346-.865-1.4938-.085-.375.441-.6109.369-.4778-.357.1089-.605.0665-1.028-.5141-.834-1.5482.514-2.8061.356-3.175-1.923-.0363-.224-.2601-.357-.4355-.43-.4354-.175-.8648-.453-1.3486-.387-1.1491.164-2.3163-.574-3.5622 2.014-.3205.665-1.1128 1.397-1.4212.744-.2722-.605-1.7297.175-.7378-1.984.1451-.314.133-.731.1935-1.1zm3.6891 3.048c.0484-.333.0544-.677.1633-.992.1028-.296.4052-.804.4717-.786.3266.091.7257.181.8769.538.2117.502.2359 1.222.3327 1.838 0 .007-.1633.14-.3085.267-.0967-1.192-.6773-1.367-1.5422-.877zm19.1049 8.2c.0907.036.0907.32.1331.489-.2843-.024-.5806 0-.8528-.078-.127-.036-.2116-.266-.508-.683.6169.12.9374.151 1.2338.272zm-25.6123-7.227c.0423-.284.0605-.568.1451-.864.0303-.103.3206-.381.3206-.357.0483.181.0544.411.0846.744-.2479.211-.3991.344-.5564.477zm39.5343-9.681c.0544.115.1572.236.1391.345-.0181.115-.1512.211-.2359.314-.0423-.139-.0786-.278-.1088-.381.0847-.115.1451-.193.2056-.272z"/><path d="m60.3877 245.023c-.2178.03-.4778.26-.7197.405.1088.199.2842.351.3145.617.1149.961.514 1.941.2358 2.885-.4838 1.632.1028 1.657.6834 1.88.3447.133.6774.357 1.0644.297 1.0342-.151 1.7781.223 2.4554.919.3205.327 1.1068.381 1.5362.042 1.2156-.955 2.032-.604 2.8968-.193.5685.272 1.2035.423.9133 1.608-.1391.569.1995.744.7136.593 1.2216-.345 1.1793-.266 1.6813.853.2358.538.508 1.349 1.1672.085.0423-.079.3568-.14.4052-.079.6955.877 1.7599.575 2.6731.671.756.073 1.3729.393 1.5906 1.034.2358.702.9071.908 1.4091.883.5383-.036.9797-.423 1.4031-.647.0605-.03-.0363-.387-.127-.435-.7439-.363-1.3849-.829-1.8809-1.512-.0665-.091-.2903-.121-.4354-.115-1.0886.036-2.2498.254-3.0118-.974-1.0342.121-1.5422-.725-2.1953-1.354-.4536-.424-.8044-1.059-1.5725-.974-.2903.036-.5564-.448-.7983-.75-.3507-.435-.6229-.998-1.01-1.379-.2479-.248-.7559-.496-.9857-.29-1.2277 1.131-1.893.659-2.4373-.417-.1149-.23-.4717-.176-.7015-.279-.375-.163-.7681-.29-1.1068-.532-1.1672-.828-2.3042-1.717-3.6347-2.764-.0181 0-.26-.121-.5382-.078zm2.2981 3.235-.1512.176c-.3508.157-.7076.35-1.0523.453-.0847.024-.1149-.266-.1754-.411.1089-.103.248-.308.3205-.296.3145.048.6048.151.9072.242l.1512-.158z"/><path d="m47.6193 245.41c.2843-.635.5443-1.288.8588-1.893.1935-.375.6532-.992.6895-.956.7499.787 2.2134-1.167 3.0662-.586.7197.472 1.9171-.115 2.4009 1.01.3629.834 1.0887.828 1.9414.453.4354-.187.8709-.375 1.27-.423 1.0826-.121 1.5362.798 1.1007 2.522-.3749 1.482-.5261 2.74-.26 3.804.0362.145-.0908.593-.1936.708-.1391.145-.4233.217-.4838.102-.4354-.786-.9132-1.542-1.1733-2.546-.2358-.895-.5443-1.3-1.397-1.112-1.1128.241-2.5763 1.306-3.1267-.152-1.1007.69-1.7357.375-1.9111-.949-.0121-.091-.2117-.061-.3266.036-1.1551.974-1.7417.29-2.4614 0v-.03z"/><path d="m47.6203 245.44c-.1391.314-.2903.635-.4173.949-.3145.811-.635 1.633-.9555 2.449-.0787-.689-.375-1.3-.1936-2.11.4718-2.075.4899-3.689.2601-5.225-.1331-.908.4596-1.893 1.1853-2.196 1.3366-.55 1.5725.417.623 2.691-.5927 1.416-1.3668 2.873-.508 3.405v.031z"/><path d="m83.0292 257.811c.4899.248.9012.605 1.1794.902.2782.302.4233.55.3386.689-.0181.03-.2661.012-.3205-.018-.1572-.085-.3931-.236-.381-.303.1028-.556-.7197-.84-1.4212-1.124-.2299-.097-.502-.103-.7318-.194-.1573-.066-.2782-.224-.4173-.345.1512-.012.3024-.06.4536-.024.5322.139 1.0583.333 1.3002.417z"/><path d="m57.3935 187.406c-.0846-.206-.3024-.448-.2116-.605.0846-.145.4777-.236.7983-.284.0786-.012.5382.248.5503.357.0121.151-.2359.284-.375.429z"/><path d="m52.9903 250.519c-.2964.024-.5564.145-.5685.036-.0242-.254.0726-.623.1209-.944.1633-.054.4294-.236.4597-.139.0605.218 0 .575-.0121 1.047z"/><path d="m36.2253 242.295c.0484.018.1028.024.1391.06l.6471.696c-.1209.187-.26.472-.3628.544-.8346.587-.5988-.411-.4476-1.276z"/><path d="m21.656 226.077.629 1.204c-.0545.054-.1149.145-.1573.151-.5745.06-.5866-.569-.4959-1.325l.0302-.03z"/><path d="m86.7847 259.989c-.1088 0-.1874 0-.2661 0-.0967-.066-.2177-.145-.2661-.205-.0121-.019.1694 0 .2601.03.0786.03.1633.109.2721.175z"/><path d="m21.6276 226.107-.6471-1.18c.0484-.06.1391-.175.1391-.175.1814.441.3568.883.5382 1.324z"/><path d="m47.899 248.571c-.0363.309-.0242.623-.0968.726-.1391.188-.3689.357-.4838.339-.0786-.012-.0242-.351-.0302-.551.1753-.145.3447-.29.6168-.514z"/><path d="m20.0547 226.633.1572-.188z"/><path d="m83.1262 148.359c-.1149-.622.1633-1.282-.9858-1.856-1.3184-.653-.6592-.774-.1814-.883 1.5905-.369 1.6147-.345 1.0583-2.116-.1754-.557-.4294-1.155-.4354-1.639 0-.254.4112-.448.7378-.393.3447.054.8165.435 1.2338.671-.1996.127-.4052.242-.5867.375-.6713.508-.5624.889.6229 1.457.7379.357 1.1794.611 1.3789 1.294.1452.496.4355 1.065 1.0947 1.01.248-.018.4233-.508.2721-.774-.7257-1.288-.3084-1.772.75-1.82 1.0341-.048 1.0583-.81.9253-1.663-.1512-.974.3084-1.367 1.2882-1.348.5624.012 1.1672.06 1.6328-.061.4234-.115.9435-.314.9435-.707 0-.647-.5987-1.24-1.5906-1.573-1.0704-.356-.7015-.925-.4777-.997.4959-.17 1.2035-.097 1.8203-.133 1.1007-.067 2.1651-.176 2.026-1.446-.0241-.211.0545-.52.2238-.49 2.5461.412 2.2861-1.826 3.6045-2.527 1.7965-.938 2.6185-2.534 2.9935-4.505.079-.412.194-.538.581-.684 1.324-.508 3.344-.604 1.941-3.18-.683-1.252-1.016-1.954.786-1.161.182.078.291-.43.327-.732.024-.2-1.482-1.554.248-.417.949.622 1.554.84 1.185-.115-.538-1.409.29-1.802 1.561-1.143 1.427.744 1.439.097 1.85-.169.411-.267.411-.95.889-1.137 2.238-.865 3.599-2.431 3.865-4.917.066-.616.363-1.112.284-1.796-.157-1.402.943-1.693 2.074-1.82.678-.078 1.168-.018.889-.901-.145-.459.188-.744.303-1.112l-.018-.031c-.339-2.146 1.469-2.473 2.763-3.223.581-.326 2.244.2.847-1.638-.018-.025.393-.242.671-.146.859.309 1.077.139.956-.592-.097-.599.175-1.058.435-1.458.327-.501.055-1.136-.629-1.8863-.889-.9796-1.143-.3628-1.663-.387-.429-.0242-.774.4113-1.433-.4898-.393-.5442-.732-1.2578-1.373-1.1731-.447.0605-.828.4293-.774.8768.103.9494 1.101 2.5394-1.373 1.1792-.218-.121-.52.4172-.671.7312-.417.877-.526 1.917-2.014 1.972-1.536.048-1.143 1.753.242 3.616.532.714 1.929 1.53 1.469 2.219-.822-.744-1.669-1.469-2.461-2.231-.351-.339-.538-.823-.889-1.101-.387-.308-1.197-.725-1.276-.635-.998 1.198-2.891 1.766-2.117 4.251.333 1.071.224 1.815-.629 1.923-.629.079-1.899-.628-2.455-.489-.405.102.181 1.53-.194 1.469-1.457-.23-.937.889-.78 1.723.079.412.569 1.083 1.034 1.567.152.157.871.181 1.216.127 1.252-.206 2.401-.532 3.713-.659.339-.037 1.125.417 1.675.78.218.145.502.749.49.985-.054 1.065-2.171 1.869-3.725 1.143-1.669-.78-2.359-.393-2.328.478.06 1.663-2.383.846-2.831 1.977-.036.091-1.252-.659-1.917-1.016.036-.362-.097-.883.133-1.064.617-.502 1.415-.834 2.081-1.3.241-.169.356-.472.405-.798.024-.157-.212-.502-.418-.75-.084-.103-.483-.272-.574-.236-.992.387-2.576.405-2.764 1.33-.302 1.5-1.1732 2.329-2.5642 2.818-.1815.061-.1754.466-.0182.744.2661.454.7621.925 1.1068 1.391 1.1366 1.548 1.0886 1.56-.3568 1.373-.5685-.073-1.5301-.109-1.4515.096.5927 1.524-.6169 1.47-1.4515 1.706-1.1249.308-1.9171.81-1.5905 2.316.0967.453-.3085.81-.7197.937-2.2679.701-2.0865 3.792-5.2072 3.652-.2298-.006-.1391.49-.2903.678-1.0462 1.342-1.8748 2.902-3.2537 3.918-1.5663 1.155-2.9513 2.383-3.4774 4.39-.1089.406-.5262.678-.9374.823-1.3064.465-1.899 1.542-2.2679 2.769-.2238.768-.6169 1.282-1.2217 1.754-1.0947.847-2.2195 1.711-2.5764 3.229-.514 2.147-1.8687 3.616-3.5319 4.789-1.5663 1.083-3.1448 2.177-3.8403 4.04-.6411 1.645-1.5482 3.084-2.3223 4.608-.2964.58-.6592 1.058-1.0524 1.481-.1995.212-.4052.411-.6229.599l-.1633.139c-.0363.018-.0544.018-.0786.024-.0484.012-.0967.012-.1391.012-.1209 0-.2056-.06-.2238.115-.012.127-.0483.194-.0846.157-.0121 0-.0363-.066-.0605-.157-.0242-.084-.0423-.181-.0544-.296-.0666-.575.0181-.315-.127.218-.1028.405-.2298.538-.3569.544-.0665 0-.127-.036-.1874-.109-.0303-.036-.0605-.073-.0907-.121 0-.018-.0424-.054-.0847-.103-.0424-.042-.0786-.09-.127-.139-.4294-.484-.7862-1.052-1.2942-1.427l-1.391-1.022-.7016-.508-.6713-.538c-.9011-.72-1.7901-1.445-2.6731-2.189-.5262-.448-1.0463-.901-1.5603-1.361-.5141-.459-1.0281-.925-1.5059-1.427-.9314-.943-1.7539-2.189-2.7276-2.836-.7076-.466-1.3184-1.046-1.9171-1.633-.5987-.586-1.1491-1.209-1.8264-1.681-.5202-.369-1.0403-.864-1.2277-1.657-.0968-.417-.6593-.997-1.0947-1.318-.5322-.393-.9979-.81-1.3547-1.294-.3387-.502-.5685-1.07-.6471-1.76-.0181-.175-.3871-.532-.502-.508-.2842.067-.514.315-.768.484 0-.393.0907-.804.0181-1.197-.0726-.399-.2177-.889-.4838-1.149-.889-.901-1.6813-1.826-1.899-3.187-.0303-.193-.3387-.302-.502-.465-.5322-.539-1.1853-.998-1.5966-1.633-.6834-1.058-1.2277-2.219-1.7418-3.387-.3144-.78-.9736-1.112-1.651-1.542-.6048-.387-.5262-1.505-.8527-2.237-.369-.816-.877-1.542-1.3124-2.31-.1452-.26-.1331-.635-.3326-.828-.8709-.817-1.8507-1.561-2.7941-2.347-.3205-.266-.762-.526-.7741-.937-.0303-1.01-.5262-1.705-.9495-2.491-.4234-.865-.6229-1.802-1.6632-2.262-.1935-.085-.2358-.441-.1088-.689.7015-1.379-.1452-1.821-1.131-2.262-.4717-.212-.9495-.514-1.0704-.943-.3689-1.409-.2238-3.024-1.6511-3.925-.4535-.29-.3023-1.028-.5805-1.475-1.0947-1.693-.2661-4.282-2.6611-5.352-.1814-.085.0303-.484-.0363-.695-.127-.436-.2842-.865-.5019-1.258-.2298-.417-.6108-.768-.8165-1.1975-.8043-1.8081-1.5663-3.604-3.3323-4.9707-.4415-.3447-.6169-1.1489-.3266-1.675.9253-1.663.1512-2.6547-.9192-3.6343-.73786-.6712-1.40312-1.3908-1.94137-2.177-.2661-.393-.50197-.7982-.69549-1.2215-.18144-.4233-.31449-.8707-.40521-1.3364-.26005-1.2578-1.10069-2.4248-.77411-3.7975.04838-.2056-.04838-.508-.21167-.6652-.47173-.4535-.80436-.9554-1.04627-1.4876-.22981-.5382-.36287-1.1187-.47173-1.7174-.1149-.6107-.58058-1.1973-.67735-1.808-.127-.762-.50801-1.3062-.87088-1.9532-.35077-.6289-.68944-1.2699-.97369-1.929-.2661-.6652-.49592-1.3485-.68945-2.0379-.374958-1.3606-.610821-2.7696-.979736-4.1423-.072573-.2902-.175385-.5865-.260054-.8707-.0302392-.0847-.1028125-.2298-.1028125-.2117-.0120956.0605-.0302389.1693-.0120956.2782.2116721 1.0522.3749621 2.1225.5503481 3.1928.235863 1.3969.48987 2.7998.70759 4.2148.03024.1512-.07257.3145-.10281.4778-.205627 1.0763-.241914 1.1066.62897 1.5601.14514.0726.39915.1814.4052.2661.06652.8768.34472 1.7415.55639 2.6063.20563.8707.34473 1.7476 0 2.7091-.09676.2963.18748.8526.47778 1.1005.85273.7378 1.33051 1.4453.45358 2.57-.127.1633-.04838.6592.127.762 1.02208.5926.82855 1.5359.36892 2.3583s-.26006 1.3304.38101 1.6085c1.31841.5806 1.55428 1.4151.81645 2.6728-.33868.5745-.19958.8527.56849.8829.6713.0242 1.63895-.4354 1.95343.2298.25401.5442.72573 1.1973.45358 1.7416-.99788 2.0439-.59268 3.598.37497 5.2307.85878 1.4146.52615 3.4346.88902 5.1456.07862.412.4052.762.7499 1.047 1.01.822 2.1228 1.566 3.1691 2.34.7801.574.3326 1.403-1.0463 2.032-.3992.181-.8165.326-1.2217.483.1875.303.2601.72.6109.877.4354.194 1.4151-.012 1.6268.26.7016.925 1.2096 1.966 1.6994 3.012.2057.429-.0604 1.04-.9555 1.354-1.8385.641-1.3789.986-.7499 1.512.7741.677 1.518 1.361 2.8787 1.554 1.7599.236 1.6813.315.635 1.863-1.1672 1.735-1.1309 1.717.2359 2.6.6169.393 1.2096.822 1.5906 1.372.7136 1.053 1.2458 2.22 1.9171 3.302.0726.115.4052.091.6411.067.0725-.006.3145-.26.3266-.363.0423-.321.0241-.623.0302-.937.2359.205.5322.375.6955.628.1935.309.5443.726.3447 1.035-.5745.901-.4354 1.372-.0605 1.693.375.32.9919.49 1.4394.774.5927.381 1.3003.713 1.6269 1.264.8829 1.469 1.5966 3.053 2.54 4.487 1.0584 1.481 2.2558 2.872 3.4654 4.245.5685.653 1.2035 1.348 2.2982.786l-.0242-.164.0302.164c.0242.749.4052 1.191.8709 1.536.4778.338 1.0704.556 1.6389.78.4718.181 1.0584.29 1.0644.834.0121.823.369 1.451.8346 2.02.4718.568 1.0342 1.088 1.5845 1.608.9556.938 2.0321 1.833 2.776 2.867.3749.526.9616.871 1.4696 1.27s.9495.846 1.1249 1.517c.0302.127.4656.436.6894.508.8951.291 1.3729.98 1.9776 1.706.629.756 1.2277 1.56 1.899 2.298.6653.737 1.4576 1.354 2.3829 1.82.3084.151.6108.55.895.852 1.0826 1.149 2.0926 2.383 3.2114 3.502.9677.937.9979.901 1.5059.042.0544-.097.1935-.139.2903-.206.0605.139.1996.321.1693.412-.1814.647.0545 1.239.8044 1.826.1512.121.3084.363.3387.538-.0061.23.2721.653.5382 1.004.2782.363.5987.713.9374 1.034.3327.338.6955.55 1.0342.744.3387.187.6592.326.9374.417.0786.024.1512.048.2238.078l.1088.043c.0363.012.0726.054.1028-.024.121-.188.2359-.357.3448-.508.2237-.309.4415-.563.6652-.786.4415-.436.9556-.835 1.5906-1.27.7439-.575 1.0644-.653 1.4938-.944.4052-.266.7802-.586 1.0704-1.016.7681-1.13 1.6329-2.213 2.4796-3.301.2057-.26.629-.381.9616-.551.502-.26 1.004-.532 1.5422-.749.756-.297 1.1854-.672.6774-1.573-.2903-.514-.127-.743.5443-.417.5564.272.9978.333 1.0341-.339.1028-1.783.756-3.084 3.163-2.902.2419.018.4597-.188.5988-.357.3447-.417.7922-.81.9192-1.336.2903-1.264 1.4878-2.322-.5927-4.312-.5322-.508-.9495-1.542-.1754-1.705.7076-.139.5081-1.893 2.2619-.29.254.235.6774.326 1.0221.483zm-4.4814 3.163c.3084.139.6531.23.9192.429.248.188.6351.635.5927.708-.2177.326-.4717.732-.8829.798-.5806.097-1.3064-.06-1.9595-.109-.0061 0-.0786-.211-.1452-.399 1.2217.194 1.6208-.375 1.4757-1.421zm-17.2967 16.261c-.127-.109-.1753-.49-.2358-.72.3568.181.6834.296.9979.484.1512.096.2842.429.8285 1.173-.7378-.411-1.1854-.581-1.5906-.937zm38.1978-41.114c-.2721-.109-.5443-.194-.8104-.351-.0968-.055-.2661-.43-.2419-.43.1996-.012.4354.031.7802.073.1209.308.1995.508.2782.701zm-65.3946 11.205c.127.054.3024.072.3749.175.0787.109.0726.284.1029.429-.1391-.084-.2843-.163-.3871-.229-.0363-.164-.0605-.266-.0907-.375z"/><path d="m129.04 84.7025c.061.0967.339.2479.496.4112.224-.0423.387-.1391.702-.1633 1.137-.0605 2.516-.641 3.961-.8285 2.431-.2843 2.824-1.0584 3.429-1.8204.369-.4657.938-1.016.944-1.3487 0-.4354.193-.8587.617-1.3728.211-.2601.477-.5383.81-.8467-.224-.0363-.399-.0968-.556-.1754-.309-.1512-1.96.0786-3.139.5443-3.327 1.3003-4.155 1.4031-5.262 1.4212-.351 0-.756.0726-.943-.0423-.194-.1088-.218-.381.084-.9979.315-.5927-.375-.5745-1.209-.1875-.974.4597-1.313.6532-1.651.6532-.163 0-.321-.0544-.532-.1572-.109-.0545-.23-.1149-.369-.1815-.109-.0725-.23-.1572-.369-.2479-.526-.3629-1.228-.9616-1.252.4657 0 .0907-.296.2902-.381.254-1.179-.4597-2.123.3084-3.121.641-.816.2843-1.633.2903-2.189-.1814-.611-.5141-1.415-.381-1.923-.127-.539.2782-.793.8285-1.119 1.2277-.048.0544.242.3266.357.3266.961-.0242 1.862.0907 2.733.4717.115.0484.363-.0302.508-.1028 1.107-.5383 2.202-1.2701 3.629-.5322 1.01-.5867 1.978-.0726 2.982.1875.683.1632.864.3991 1.542-.0605.266-.1694.496.0423.641.1088.115.0545.181.1331.236.1996.06.0544.03.1935.072.248.043.0846.26.0846.665-.1331 1.077-.5927 1.863-.8709 2.28-.9313.424-.0605.466.0967.17.3749-.133.121.423-.0423.629-.0544l.254-.0181s-.061.0967-.097.1451c-.091.1089-.2.2238-.363.3568-.562.4597-1.125.889-1.681 1.2882-.278.1996-.557.3931-.829.5745-.254.1452-.508.2843-.756.4052 0 .0061-.09.0908-.012.2178zm4.306-2.0381.297-.0242c.272.1028.568.2298.719.4294.037.0483-.465.2419-.701.3568-.151-.0303-.46-.0242-.442-.0726.085-.2298.26-.4717.4-.6955l-.273.0182z"/><path d="m125.576 97.3774c-.533-.4476-1.095-.8709-1.585-1.3487-.302-.2903-.756-.9253-.701-.9555 1.064-.629-.351-2.6429.544-3.4291.738-.6713.593-2.0804 1.905-2.3465.974-.2057 1.234-.9858 1.173-1.9837-.03-.508-.054-1.0221.049-1.4575.121-.5746.556-1.0584.81-.8467.351.0907.968.2903 1.857.5866 1.512.5201 2.969.6471 4.638 0 .224-.0847.835-.0907.944 0 .139.121.066.4899-.139.6169-1.422.8527-2.667 1.5724-3.871 1.7478-1.004.0665-1.512.2963-1.639 1.2579-.169 1.2519.357 3.0602-1.312 3.3263.284 1.3366-.266 1.9474-1.657 1.8385-.097-.006-.139.2178-.085.3629.55 1.4575-.351 1.9353-.907 2.6368h-.03z"/><path d="m125.606 97.3822c.266.2178.526.4536.804.6593.695.5201 1.403 1.0523 2.105 1.5784-.72-.0665-1.446.1089-2.19-.2661-1.905-.9737-3.52-1.3547-5.146-1.4575-.962-.0605-1.73-.9193-1.766-1.772-.061-1.5603.997-1.5966 2.933-.0605 1.197.9495 2.377 2.1168 3.229 1.3124h.031z"/><path d="m113.287 81.8299c-.635.006-1.246-.1149-1.694-.254-.447-.1391-.726-.2903-.707-.4536 0-.0302.266-.133.344-.133.212 0 .533.0241.557.0907.181.5382 1.185.4112 2.056.3386.29-.0181.568-.1451.859-.1693.199-.0181.405.0665.611.1149-.152.0847-.285.1935-.46.2298-.629.121-1.27.1996-1.566.2359z"/><path d="m9.79054 107.125c-.19957-.158-.5322-.26-.56244-.478-.02419-.194.24191-.52.46568-.75.06048-.061.59872-.073.67732.03.1089.145-.0121.423-.0302.641l-.55641.557z"/><path d="m132.688 92.7556c-.085.3265-.061.6289-.175.6168-.26-.0302-.593-.2177-.902-.3447 0-.1875-.078-.5141.031-.5262.242-.0181.58.127 1.046.2541z"/><path d="m118.24 108.902c.037-.048.061-.109.115-.139l.938-.538c.145.175.375.381.411.514.278 1.028-.635.55-1.446.193z"/><path d="m83.0413 150.21-1.4454.363c-.0303-.072-.0968-.163-.0847-.205.1694-.629.7983-.484 1.512-.194l.0181.042z"/><path d="m108.26 81.6356c.115-.0484.193-.0847.278-.121.133.0182.303.0303.381.0605.024.0121-.169.0847-.29.0907-.103.0061-.23-.0242-.375-.0302z"/><path d="m83.0295 150.173 1.4212-.393c.0423.067.121.194.121.194-.5141.078-1.0221.157-1.5301.236l-.0182-.043z"/><path d="m128.854 97.7881c.29.1088.616.1633.689.2721.139.1875.224.4778.163.5988-.042.0846-.363-.0545-.562-.0908-.085-.2177-.163-.4354-.29-.7741z"/><path d="m83.127 148.359.127.218z"/></g></svg>