<svg width="530" height="577" viewBox="0 0 530 577" fill="none" xmlns="http://www.w3.org/2000/svg">
<path d="M478.815 111.695C464.986 92.2854 436.188 57.4359 387.751 31.7066C338.515 5.55279 294.422 2.33415 272.076 0.940918C255.262 -0.106958 231.8 -1.56826 203.163 4.63422C136.657 19.039 95.3662 63.2777 83.7972 76.0072C42.6716 121.261 32.5395 168.035 14.8848 249.52C2.44508 306.935 -5.81701 347.171 5.04045 399.652C10.2117 424.646 19.7003 467.74 55.4948 505.481C84.8124 536.394 116.954 548.081 145.326 558.398C210.739 582.183 267.268 577.569 301.611 574.395C334.429 571.362 356.509 569.323 384.06 557.167C439.211 532.836 467.968 489.294 481.276 468.564C512.436 420.02 518.83 374.73 524.346 335.661C528.864 303.649 534.398 261.572 521.885 208.91C509.119 155.183 484.522 119.708 478.815 111.695Z" fill="#212322"/>
<path d="M39.9121 189.615L39.9746 189.647L39.9621 189.659C61.9203 211.313 91.1809 223.121 120.051 223.121C130.767 223.121 141.429 221.494 151.642 218.141C160.522 215.225 168.194 211.257 174.822 206.811L88.2437 144.303C59.5772 156.638 45.0473 179.675 39.9121 189.615Z" fill="white"/>
<path d="M207.823 169.748C177.713 140.058 133.878 128.877 96.1436 141.267C93.3822 142.174 90.7771 143.212 88.2422 144.303L174.821 206.811C193.545 194.249 203.745 177.785 207.873 169.792L207.811 169.76L207.823 169.748Z" fill="black"/>
<path d="M241.207 189.615L241.27 189.647L241.258 189.659C263.215 211.313 292.476 223.121 321.346 223.121C332.062 223.121 342.724 221.494 352.937 218.141C361.817 215.225 369.488 211.257 376.117 206.811L289.539 144.303C260.872 156.638 246.342 179.675 241.207 189.615Z" fill="white"/>
<path d="M409.12 169.748C379.01 140.058 335.174 128.877 297.441 141.267C294.679 142.174 292.074 143.212 289.539 144.303L376.117 206.811C394.842 194.249 405.042 177.785 409.171 169.792L409.108 169.76L409.12 169.748Z" fill="black"/>
</svg>
