<svg width="243" height="237" viewBox="0 0 243 237" fill="none" xmlns="http://www.w3.org/2000/svg">
<path d="M144.454 87.0679C142.527 87.1885 140.584 87.1762 138.639 87.0551C136.595 86.9281 134.553 86.6625 132.525 86.2833C121.977 84.3103 111.895 79.0454 104.892 71.5084C107.857 68.6235 115.339 62.7833 127.921 61.9976C130.253 61.8514 132.61 61.9063 134.964 62.1123C137.011 62.2918 139.054 62.5913 141.078 63.0209C151.177 65.1621 160.753 70.3123 167.485 77.5566C164.519 80.4415 157.037 86.2816 144.454 87.0679ZM61.0404 79.6552C59.1138 79.7757 57.1702 79.7634 55.2254 79.6423C53.1814 79.5154 51.1392 79.2498 49.1121 78.8706C38.5635 76.8975 28.4809 71.6327 21.478 64.0956C24.4434 61.2107 31.9251 55.3706 44.5075 54.5849C46.8396 54.4387 49.1968 54.4935 51.5504 54.6996C53.5973 54.8791 55.6402 55.1786 57.664 55.6079C67.7629 57.7494 77.339 62.8995 84.0711 70.1438C81.1051 73.0287 73.6234 78.8689 61.0404 79.6552ZM241.258 125.108C238.364 103.706 227.763 88.8317 207.341 58.97C191.341 35.5745 183.003 23.6757 166.412 13.822C158.692 9.23661 138.728 -1.14857 112.398 0.102984C93.5871 0.996996 79.9831 7.42903 69.4496 12.4093C60.2188 16.7737 45.9318 23.5288 32.9326 37.2957C14.3061 57.0229 9.40023 79.417 4.59947 101.332C2.15502 112.489 -1.91925 131.876 1.03073 156.935C2.99942 173.653 4.68353 187.962 13.8977 201.304C29.4541 223.83 56.4063 229.018 80.3246 233.623C122.558 241.752 156.17 231.826 171.824 227.002C195.453 219.72 210.056 215.221 222.849 201.004C247.774 173.307 242.542 134.608 241.258 125.108Z" fill="#212322"/>
<path d="M57.6652 55.6105L68.4896 68.5467L55.2266 79.6447C57.1716 79.7661 59.1152 79.7784 61.0419 79.6575C73.6249 78.8712 81.1065 73.0314 84.0725 70.1465C77.3404 62.9022 67.764 57.752 57.6652 55.6105Z" fill="white"/>
<path d="M51.5509 54.7001C49.1976 54.494 46.8404 54.4391 44.508 54.5854C31.9256 55.3711 24.444 61.2112 21.4785 64.0961C28.4818 71.6332 38.564 76.8977 49.1126 78.8711L38.2204 65.8547L51.5509 54.7001Z" fill="white"/>
<path d="M57.6648 55.6085C55.6412 55.1791 53.5981 54.8793 51.5512 54.7001L38.2207 65.8547L49.1129 78.8709C51.1399 79.25 53.1825 79.5156 55.2262 79.6426L68.4893 68.5446L57.6648 55.6085Z" fill="black"/>
<path d="M141.079 63.0207L151.904 75.9569L138.641 87.0548C140.585 87.1763 142.529 87.1885 144.456 87.0677C157.039 86.2814 164.521 80.4415 167.487 77.5566C160.755 70.3123 151.178 65.1619 141.079 63.0207Z" fill="white"/>
<path d="M134.965 62.1122C132.612 61.9061 130.254 61.8513 127.922 61.9975C115.34 62.7832 107.858 68.6233 104.893 71.5082C111.896 79.0453 121.978 84.3101 132.527 86.2832L121.635 73.2668L134.965 62.1122Z" fill="white"/>
<path d="M141.077 63.0225C139.053 62.5932 137.01 62.2934 134.963 62.1139L121.633 73.2685L132.525 86.2849C134.552 86.6641 136.595 86.9297 138.638 87.0566L151.901 75.9587L141.077 63.0225Z" fill="black"/>
</svg>
