<svg fill="none" viewBox="0 0 530 577" xmlns="http://www.w3.org/2000/svg"><path d="m478.815 111.695c-13.829-19.4096-42.627-54.2591-91.064-79.9884-49.236-26.15381-93.329-29.37245-115.675-30.765682-16.814-1.047876-40.276-2.509178-68.913 3.693302-66.506 14.40478-107.7968 58.64348-119.3658 71.37298-41.1256 45.2538-51.2577 92.0278-68.9124 173.5128-12.43972 57.415-20.70181 97.651-9.84435 150.132 5.17125 24.994 14.65985 68.088 50.45435 105.829 29.3176 30.913 61.4592 42.6 89.8312 52.917 65.413 23.785 121.942 19.171 156.285 15.997 32.818-3.033 54.898-5.072 82.449-17.228 55.151-24.331 83.908-67.873 97.216-88.603 31.16-48.544 37.554-93.834 43.07-132.903 4.518-32.012 10.052-74.089-2.461-126.751-12.766-53.727-37.363-89.202-43.07-97.215z" fill="#65468B"/><path d="m39.9121 189.615.0625.032-.0125.012c21.9582 21.654 51.2188 33.462 80.0889 33.462 10.716 0 21.378-1.627 31.591-4.98 8.88-2.916 16.552-6.884 23.18-11.33l-86.5783-62.508c-28.6665 12.335-43.1964 35.372-48.3316 45.312z" fill="#fff"/><path d="m207.823 169.748c-30.11-29.69-73.945-40.871-111.6794-28.481-2.7614.907-5.3665 1.945-7.9014 3.036l86.5788 62.508c18.724-12.562 28.924-29.026 33.052-37.019l-.062-.032z" fill="#000"/><path d="m241.207 189.615.063.032-.012.012c21.957 21.654 51.218 33.462 80.088 33.462 10.716 0 21.378-1.627 31.591-4.98 8.88-2.916 16.551-6.884 23.18-11.33l-86.578-62.508c-28.667 12.335-43.197 35.372-48.332 45.312z" fill="#fff"/><path d="m409.12 169.748c-30.11-29.69-73.946-40.871-111.679-28.481-2.762.907-5.367 1.945-7.902 3.036l86.578 62.508c18.725-12.562 28.925-29.026 33.054-37.019l-.063-.032z" fill="#000"/></svg>