<svg fill="none" height="237" viewBox="0 0 243 237" width="243" xmlns="http://www.w3.org/2000/svg"><path d="m144.454 87.0679c-1.927.1206-3.87.1083-5.815-.0128-2.044-.127-4.086-.3926-6.114-.7718-10.548-1.973-20.63-7.2379-27.633-14.7749 2.965-2.8849 10.447-8.7251 23.029-9.5108 2.332-.1462 4.689-.0913 7.043.1147 2.047.1795 4.09.479 6.114.9086 10.099 2.1412 19.675 7.2914 26.407 14.5357-2.966 2.8849-10.448 8.725-23.031 9.5113zm-83.4136-7.4127c-1.9266.1205-3.8702.1082-5.815-.0129-2.044-.1269-4.0862-.3925-6.1133-.7717-10.5486-1.9731-20.6312-7.2379-27.6341-14.775 2.9654-2.8849 10.4471-8.725 23.0295-9.5107 2.3321-.1462 4.6893-.0914 7.0429.1147 2.0469.1795 4.0898.479 6.1136.9083 10.0989 2.1415 19.675 7.2916 26.4071 14.5359-2.966 2.8849-10.4477 8.7251-23.0307 9.5114zm180.2176 45.4528c-2.894-21.402-13.495-36.2763-33.917-66.138-16-23.3955-24.338-35.2943-40.929-45.148-7.72-4.58539-27.684-14.97057-54.014-13.719016-18.8109.894012-32.4149 7.326046-42.9484 12.306316-9.2308 4.3644-23.5178 11.1195-36.517 24.8864-18.6265 19.7272-23.53237 42.1213-28.33313 64.0363-2.44445 11.157-6.51872 30.544-3.56874 55.603 1.96869 16.718 3.6528 31.027 12.86697 44.369 15.5564 22.526 42.5086 27.714 66.4269 32.319 42.2334 8.129 75.8454-1.797 91.4994-6.621 23.629-7.282 38.232-11.781 51.025-25.998 24.925-27.697 19.693-66.396 18.409-75.896z" fill="#212322"/><path d="m57.6652 55.6105 10.8244 12.9362-13.263 11.098c1.945.1214 3.8886.1337 5.8153.0128 12.583-.7863 20.0646-6.6261 23.0306-9.511-6.7321-7.2443-16.3085-12.3945-26.4073-14.536z" fill="#fff"/><path d="m51.5509 54.7001c-2.3533-.2061-4.7105-.261-7.0429-.1147-12.5824.7857-20.064 6.6258-23.0295 9.5107 7.0033 7.5371 17.0855 12.8016 27.6341 14.775l-10.8922-13.0164z" fill="#fff"/><path d="m57.6648 55.6085c-2.0236-.4294-4.0667-.7292-6.1136-.9084l-13.3305 11.1546 10.8922 13.0162c2.027.3791 4.0696.6447 6.1133.7717l13.2631-11.098z" fill="#000"/><path d="m141.079 63.0207 10.825 12.9362-13.263 11.0979c1.944.1215 3.888.1337 5.815.0129 12.583-.7863 20.065-6.6262 23.031-9.5111-6.732-7.2443-16.309-12.3947-26.408-14.5359z" fill="#fff"/><path d="m134.965 62.1122c-2.353-.2061-4.711-.2609-7.043-.1147-12.582.7857-20.064 6.6258-23.029 9.5107 7.003 7.5371 17.085 12.8019 27.634 14.775l-10.892-13.0164z" fill="#fff"/><path d="m141.077 63.0225c-2.024-.4293-4.067-.7291-6.114-.9086l-13.33 11.1546 10.892 13.0164c2.027.3792 4.07.6448 6.113.7717l13.263-11.0979z" fill="#000"/></svg>