<svg fill="none" height="260" viewBox="0 0 140 260" width="140" xmlns="http://www.w3.org/2000/svg"><g fill="#000"><path d="m97.4472 257.097c.0919-.35.2406-.503.1794-1.408-.0744-1.033.0394-.727.1269-.512.2887.708.2843.735.5118-.398.07-.355.1356-.775.2187-1.007.0438-.118.1356.018.1706.228.0394.214.0394.652.0569.993-.0481-.053-.0963-.114-.1488-.149-.1793-.135-.2318.096-.1618 1.019.0437.574.0612.937-.0263 1.365-.0656.311-.1224.735-.0175 1.081.0394.131.1444 0 .1707-.21.1181-1.002.258-.998.4155-.429.1531.551.2887.21.4112-.258.1444-.538.2756-.464.4112.088.0788.315.1531.678.2403.874.079.184.188.377.254.193.109-.302.127-.91.044-1.614-.092-.761.061-.818.105-.731.1.197.184.621.28.949.166.578.332 1.12.529.455.035-.113.096-.21.114-.105.289 1.606.634.425.936.827.411.56.801.276 1.19-.428.083-.149.118-.145.197.004.271.499.573 1.575.813-.398.118-.958.193-1.47.311-.101.013.136.114-.035.171-.157.039-.083.056-1.544.105-.057.026.814.074 1.251.188.604.166-.95.35-.679.415.332.075 1.133.188.844.289.945.105.105.219-.214.319-.035.464.844.919.866 1.383-.14.113-.249.24-.315.345-.674.219-.735.42-.262.604.306.109.337.166.639.28.075.057-.293.153-.245.232-.35v-.022c.319-1.181.63-.332.94.035.136.171.28 1.339.398-.289 0-.022.097.105.118.306.07.617.127.661.237.259.087-.329.205-.394.31-.434.131-.048.201-.498.232-1.224.044-.95-.101-.801-.166-1.103-.057-.249-.179-.24-.118-1.019.035-.472.109-.989.004-1.308-.074-.219-.188-.258-.258-.026-.149.494-.28 1.789-.394-.215-.008-.175-.144-.096-.218-.035-.21.175-.403.6-.622-.201-.223-.831-.459.18-.581 1.816-.049.625.008 1.78-.171 1.846.013-.801.022-1.601.035-2.398.009-.35.066-.678.061-1.006 0-.354-.044-1.001-.07-1.001-.345 0-.708-.784-1.023.8-.136.682-.28.967-.416.542-.101-.31-.162-1.347-.262-1.587-.075-.18-.237.809-.276.577-.166-.914-.284-.105-.402.367-.062.232-.105.818-.123 1.3-.004.153.092.564.149.73.21.6.428 1.085.634 1.75.053.175.088.818.101 1.29.004.184-.057.626-.101.731-.188.464-.626-.337-.717-1.535-.101-1.291-.263-1.492-.407-1.068-.276.805-.481-.927-.735-.652-.022.022-.066-1.001-.096-1.535.065-.149.135-.464.201-.42.17.105.341.398.512.551.061.057.131-.022.192-.144.031-.061.057-.355.07-.582.005-.096-.022-.394-.039-.429-.206-.372-.433-1.242-.617-.914-.297.529-.564.429-.84-.114-.035-.07-.105.118-.131.337-.04.359-.053.853-.083 1.26-.105 1.352-.114 1.33-.285.437-.065-.35-.196-.901-.218-.761-.18 1.037-.337.341-.495-.013-.21-.477-.406-.687-.616.193-.066.266-.184.205-.263.035-.437-.932-.94.599-1.356-1.195-.031-.131-.105.149-.158.154-.376.039-.756.306-1.1238.013-.4156-.333-.8224-.534-1.238.109-.0831.131-.1881.022-.2712-.14-.2625-.507-.5293-.341-.7918.031-.1618.231-.3062.249-.4724.135-.2975-.214-.6037-.428-.9143.07-.4374.713-.8793.643-1.3123.263-.4025-.368-.8137-.731-1.2293-.254-.3718.411-.7437.573-1.1111.853-.2844.21-.525.092-.7831-.083-.0831-.057-.1837-.118-.2624-.053-.1269.105-.1969.04-.2756-.201-.0963-.31-.1531-.192-.2144.193-.0962.586-.1837.656-.4068.546-.1444-.07-.2843-.218-.4243-.192-.5118.096-1.028.232-1.5399.293-.3062.039-.6168.044-.923.031-.2931-.009-.6212-.228-.8749-.062-.3674.25-.7524.04-1.1111.28-.14.097-.2975.132-.455-.157-.0831-.153-.2624-.136-.3805-.061-.2888.179-.5512.188-.805-.377-.0306-.07-.1487-.035-.1574.044-.0307.188-.0219.433-.0307.652-.0656-.188-.1224-.424-.2012-.569-.0787-.144-.1837-.297-.2668-.271-.28.083-.5512.057-.8224-.411-.0394-.07-.1007.061-.1532.079-.1706.065-.3412.24-.5074.197-.28-.075-.5599-.272-.8399-.495-.1837-.144-.3325.11-.4987.324-.1487.192-.3412-.319-.5206-.429-.1968-.122-.398-.127-.5949-.192-.0656-.022-.1356-.188-.1969-.14-.2624.21-.5249.516-.7874.783-.0875.092-.1924.258-.2712.105-.1925-.376-.3849-.346-.5862-.394-.2143-.052-.4199-.267-.6299.21-.0394.092-.1137-.013-.1444-.184-.1837-.94-.3718-.573-.5643-.118-.0962.219-.2056.403-.3018.324-.315-.258-.6212-.884-.9493-.28-.105.192-.2362-.153-.3543-.127-.4462.096-.8924-1.212-1.343.013-.035.092-.0962-.166-.1444-.192-.1006-.048-.2012-.083-.3062-.062-.1093.022-.2143.162-.3237.167-.4462.013-.888.022-1.3211.813-.1094.197-.2887.088-.3718-.253-.2669-1.068-.5425-.779-.8356-.302-.4024.669-.8136 1.072-1.2292.905-.2843-.1-.5906.223-.8574-.31-.0394-.079-.1137-.079-.1575-.005-.2581.447-.5162.468-.783.385-.14-.039-.2931.18-.4287.127-.1706-.057-.3106.101-.4681.232-.3106.254-.6256.42-.9449.472-.3106.044-.6255-.013-.9405.022-.0656.005-.1356.027-.2012.044-.0219.004-.0525.035-.0525.039.0131.018.035.049.0612.053.2362.022.4768.074.7174.122.3106.057.6256.101.9406.18.0349.009.0612.109.0962.162.2187.35.2231.38.3674-.14.0219-.083.0613-.245.0788-.232.1925.122.3893.092.5862.114.1968.021.3937.091.573.525.0569.135.1925.061.2625-.084.21-.42.3937-.595.5687.259.0262.122.1356.183.1662.083.1969-.573.3806-.228.5162.275.1356.495.2537.481.3587.123.2188-.748.4112-.696.6081.122.0919.372.1575.35.2231-.162.0569-.446.0394-1.22.2012-1.268.1313-.035.3062-.188.3937.135.3369 1.212.6781 1.4 1.0893 1.212.3587-.171.7349.599 1.1024.914.0874.075.1881-.026.2755-.166.2581-.407.5075-.901.7656-1.343.1925-.328.3062.214.2931 1.317l-.0263.945c.0788-.022.1663.074.2275-.101.0788-.214.14-.91.2144-.954.2493-.135.503-.109.7524-.069.105.013.1925.393.1575 1.071-.07 1.396.0393 1.212.2056.989.2099-.284.4155-.464.5993-1.256.2362-1.014.2449-.936.4156.285.1924 1.36.1924 1.33.5074.8.14-.236.2887-.468.4331-.481.2756-.026.5468.109.8224.123.0306 0 .0656-.21.0875-.363.0087-.049-.0088-.294-.0263-.342-.0525-.153-.1093-.258-.1662-.385.0656-.061.1312-.179.1968-.175.0788 0 .1969-.048.2275.193.1881 1.391.4025.424.6124.144.14-.192.2888-.472.4288-.437.3718.092.7393.328 1.1155.363.3937.039.7917-.022 1.1898-.105.1881-.04.3894-.096.4462-.971.2625.603.5075.087.7437-.324.0962-.175.2012-.451.2931-.201.2756.743.6168.42.9493.38.2931-.052.5949-.188.8749-.074.2799.101.573-.529.8355.004.0262.048.14-.013.1881-.092.1837-.306.3631-.201.5731-.135.4287.131.8661.415 1.3036-.005.07-.069.1793-.008.2712.018.3456.092.6912.236 1.0367.324.2931.074.2931.035.2581-.674 0-.079.0132-.166.0219-.249.0306.048.0788.083.0875.148.0612.442.1837.665.3893.643.0438-.004.105.062.1313.14.1881.534.433.556.6255.298.2144-.289.3719-.153.5643.14.1925.289.3894.582.6212.512.3019-.101.6081-.123.9099-.153.0744-.009.1531.17.2275.275.1137.158.2318.306.3456.508.1575.28.28.345.3631-.355.0481-.398.1093-.415.1487.105.0306.433.0831.709.2056.416.3193-.77.6343-1.011.9405.407.0307.14.0963.166.1444.166.1181 0 .2493.066.3587-.114.2581-.428.6037-.258.6518-2.331.0131-.534.1312-1.243.2668-.888.1225.328.3938-.6.3675 1.124 0 .249.0394.525.0612.792zm-1.1723-1.019c.0219.236.0525.468.0568.709 0 .223-.0175.647-.0393.656-.0875.035-.1925.078-.2625-.118-.1006-.276-.175-.753-.2581-1.138 0-.004.0263-.14.0481-.262.14.77.2931.726.4506.157zm-5.3326-.206c-.0262 0-.0524-.188-.0787-.288.07-.066.14-.158.21-.184.035-.009.0743.118.1881.315-.1575.087-.2362.157-.3194.157zm12.5107.263c-.017-.202-.043-.394-.052-.613 0-.078.035-.345.039-.332.031.105.057.254.097.468-.035.21-.057.345-.084.481zm-21.3166-1.343c.0263-.053.0525-.14.0832-.14.0306 0 .0612.087.0874.131-.035.044-.0656.087-.0918.122-.035-.048-.0569-.083-.0788-.113z"/><path d="m115.072 252.968c-.048.083-.083.311-.127.481.048.101.101.149.136.315.127.604.319 1.133.35 1.838.052 1.22.197 1.063.354 1.041.096-.013.197.039.28-.114.228-.402.442-.376.674-.114.109.123.297-.07.367-.424.188-.989.416-.997.661-.975.162.013.324-.075.38.791.027.416.123.433.228.184.249-.586.249-.521.481.07.109.284.258.744.284-.289 0-.065.07-.197.088-.17.254.376.472-.136.696-.341.183-.175.363-.145.481.214.127.389.306.332.42.166.122-.179.188-.564.262-.84.013-.039-.048-.245-.074-.249-.215-.022-.411-.136-.595-.442-.026-.039-.083.004-.114.053-.254.336-.503.822-.809.236-.232.38-.438-.027-.656-.254-.149-.144-.298-.464-.468-.179-.066.109-.175-.132-.263-.263-.127-.184-.249-.477-.381-.612-.083-.088-.227-.105-.262.096-.171 1.107-.376.989-.617.442-.052-.118-.127.022-.192.022-.105 0-.21.035-.315-.027-.359-.21-.718-.455-1.138-.761 0 0-.074 0-.135.105zm.875 1.466-.017.157c-.066.206-.132.442-.202.613-.017.039-.057-.14-.083-.223.013-.101.026-.276.044-.289.079-.061.157-.079.236-.11l.018-.148z"/><path d="m112.112 256.969c0-.503-.005-1.01.009-1.504.008-.302.052-.849.065-.832.258.298.403-1.421.661-1.29.218.101.437-.639.669-.035.171.446.341.227.503-.271.083-.254.166-.503.254-.652.24-.398.442.079.516 1.347.066 1.089.157 1.964.328 2.59.022.083.039.42.026.525-.017.135-.078.267-.105.21-.183-.389-.371-.753-.538-1.339-.148-.525-.262-.7-.442-.323-.236.485-.472 1.618-.752.818-.188.778-.367.756-.547-.066-.013-.057-.057.022-.074.122-.171.985-.381.7-.578.722v-.022z"/><path d="m112.116 256.992v.752l.026 1.899c-.092-.433-.223-.748-.262-1.339-.101-1.509-.263-2.581-.477-3.53-.122-.56-.087-1.387.053-1.798.258-.757.411-.188.424 1.597.004 1.107-.026 2.301.227 2.401v.022z"/><path d="m121.709 254.771c.14.017.275.131.372.249.096.118.157.24.148.354 0 .022-.061.088-.078.083-.048-.008-.118-.039-.123-.087-.03-.398-.254-.346-.45-.328-.066 0-.127.078-.193.087-.044.005-.087-.065-.131-.105.035-.052.066-.131.105-.148.14-.062.284-.092.35-.105z"/><path d="m73.5968 258.081c-.0481.084-.1006.267-.1443.219-.0394-.044-.0788-.319-.1007-.538-.0043-.057.0438-.415.07-.433.0394-.026.0832.136.1225.219l.0569.533z"/><path d="m113.9 258.768c-.066.105-.118.259-.131.189-.031-.158-.048-.433-.066-.661.031-.083.079-.284.092-.227.035.126.061.38.105.695z"/><path d="m109.116 258.257s.026-.018.039 0l.223.271c-.009.158-.013.385-.03.468-.136.634-.184-.096-.237-.713v-.022z"/><path d="m97.1184 257.911-.2668-.63c.0087-.048.0131-.131.0218-.144.1313-.197.1925.218.245.748z"/><path d="m122.815 255.111c-.027.031-.044.053-.062.074-.03-.017-.065-.03-.083-.061-.004-.009.04-.052.066-.057.022 0 .048.027.083.04z"/><path d="m97.1235 257.885.2669.608c-.0044.052-.0175.157-.0175.157l-.2538-.739v-.026z"/><path d="m112.504 258.978c.022.214.057.415.052.507-.013.166-.048.341-.078.367-.018.018-.044-.227-.066-.354.026-.149.053-.293.092-.52z"/><path d="m97.4472 257.097-.0175.17z"/></g><path d="m51.0814 177.419c.9142 5.717 2.091 19.44 1.6798 24.134 0 .564.245 2.262.5993 4.467.07.424.14.866.2187 1.321.0525.323.1094.656.1662.997.0175.096.0307.192.0482.289.9799 5.735 2.336 12.97 2.5634 14.252.8268 4.624 4.2477 8.298 7.3711 12.139 2.6685 3.285 5.8619 6.146 9.7289 8.412 2.8347 1.663 5.8531 3.041 9.1121 3.955 5.2713 1.483 10.6695 2.012 16.2164 1.474 3.6435-.354 7.1435-1.128 10.4815-2.362 5.525-2.039 10.192-5.088 14.046-9.095 1.147-1.19 2.17-2.423 3.08-3.687.289-.403.569-.81.836-1.217.599-.918 1.137-1.854 1.623-2.812.157-.315.31-.635.454-.954 1.593-3.473 2.459-7.174 2.625-11.107.079-1.859-.157-3.727.013-5.582.587-6.338 2.384-7.008 2.38-33.329 0-.543.726-16.383.691-17-1.78-.013-3.639-.035-5.547-.061-24.064-.372-57.2533-2.174-79.7427-6.185-.3544-.062-.7-.127-1.0455-.193-.3106-.057-.6212-.114-.9274-.17-.1838-.035-.3719-.066-.5512-.101 0 .717 3.7927 21.872 3.8802 22.419z" fill="#47763b"/><path d="m67.6565 167.279c8.7534.6 16.1901-3.919 16.6144-10.092.0044-.083.0044-.162.0088-.24l-8.3072-.569-7.1392 7.244-8.4385-8.316-7.791-.534c-.0088.079-.0175.162-.0262.241-.4244 6.173 6.3255 11.667 15.0789 12.266z" fill="#fff"/><path d="m75.9741 156.372-15.5776-1.067 8.4384 8.316z" fill="#000"/><path d="m113.043 170.393c8.754.6 16.19-3.919 16.615-10.092.004-.083.004-.161.008-.24l-8.307-.569-7.139 7.244-8.438-8.316-7.7915-.533c-.0087.078-.0175.162-.0262.24-.4244 6.173 6.3257 11.667 15.0787 12.266z" fill="#fff"/><g fill="#000"><path d="m121.359 159.488-15.578-1.067 8.439 8.316z"/><path d="m135.921 151.88c-.201-.376-.337-.866-.577-1.198-.241-.337-.525-.46-.936-.136-.473.363-.665.298-.718.088-.026-.11-.022-.258 0-.429.018-.166.026-.35.044-.529.009-.149.017-.285.031-.416-.009-.131-.018-.254-.022-.367-.027-.232-.027-.451-.083-.626-.114-.354-.206-.647-.398-.84-.193-.192-.407-.35-.709-.455-.158-.044-.333-.083-.529-.114-.197-.03-.403-.065-.661-.048-.315.009-.608.035-.901.07-.306.048-.599.083-.884.066-.297-.018-.831-.346-1.006-.648-.192-.297-.079-.708-.109-1.076.341.145.651.346.98.508.148.074.288.14.415.197.118.065.228.118.328.157.197.079.355.109.481.083.245-.052.364-.315.32-.857-.053-.669-.083-1.089.827-1.111.328-.022.682.022.861-.097.18-.1.188-.341-.201-.778-.275-.285-1.321-.683-1.588-.525-.678.28-1.286.289-1.85.192-.285-.057-.565-.166-.849-.315-.271-.144-.52-.306-.779-.52-1.001-.818-2.069-.735-3.101-.508-.591.132-1.124.118-1.619-.026-.498-.127-.958-.385-1.404-.765-.512-.433-1.01-.91-1.614-1.243-.556-.306-1.326-.669-1.855-.599-.875.136-1.111.717-.612 1.522.533.88-.582.718-.888.582-.7-.328-1.273-.866-1.912-1.312-1.146-.796-2.323-1.579-3.898-1.125-.262.075-.748.101-.879-.026-.975-.949-2.157-1.255-3.368-1.369-1.216-.101-2.463-.048-3.592-.389-1.531-.486-3.0489-.661-4.5493-.709-.7524-.022-1.5005 0-2.2442.048-.7436.057-1.4917.175-2.2353.302-.6212.109-.9012.087-1.5049-.096-2.0341-.648-4.3395-1.759-6.1855.153-.8924.936-1.4349 1.417-2.3404.061-.0919-.136-.8618.035-1.2861.158-.2844.083-.3981 1.544-.8005.056-.2232-.813-.5994-1.251-1.4305-.603-1.2161.936-2.6072.726-3.154-.276-.6125-1.115-1.4611-.805-2.2485-.879-.7962-.083-1.6624.262-2.4235.135-1.7892-.31-3.5696-.454-5.3194-.297-1.7542.166-3.4822.551-5.1707 1.225-.8399.345-1.7804.52-2.5329.971-.7699.459-1.5529.617-2.3272.608-.7699.009-1.5355-.144-2.2616-.324-.8706-.218-1.3649-.446-2.1086.228-.3893.359-1.1111.394-1.6798.608l-.0175.026c-2.161 1.588-4.6282 1.103-7.0167 1.242-1.0586.04-2.4016-.874-2.9047.889 0 .013-.1924.021-.4112.008l-14.3353-.827 14.4097 6.816c.1881.087.3893.206.4549.319.4025.7.8312.823 1.7017.573.7087-.205 1.5836-.109 2.3666-.008.9799.131 1.5661-.223 1.9161-.906.4549-.884-.6125-.91-1.0674-1.308-.3762-.319-1.2861-.477-.7087-1.168.3456-.415.9712-.827.2537-1.282-.4986-.315-1.3429-.507-1.8854-.367-.8442.214-1.7017.853-2.301.363l.0219 1.562c.28.087.5862.332.9362.813.1137.158 1.0673-.118 1.5967-.288 1.4698-.473 2.7822-1.199 4.5363-.67 1.7936.538 3.3028-.77 3.9327-2.511.2406-.665-.3849-1.745.958-2.003.0525.8.1488 1.601.1444 2.401 0 .355-.3587.74-.2887 1.059.0743.35.4987.941.6868.914 1.2555-.179 2.5722-.175 3.8321-.354 1.2642-.149 2.4716-.486 3.5302-1.409.4549-.393.9361-.695 1.4392-.857.5031-.153 1.028-.162 1.5573.004.7874.245 1.3255 1.238 2.0954 1.413.5687.132 1.6492-.958 1.9817-.748 1.2992.84 2.091-.013 2.944-.538.42-.258.7131-.862.8093-1.351.0306-.158-.7218-.525-1.1636-.665-.8093-.254-1.6317-.477-2.4541-.709s-1.6404-.433-2.4497-.704c-.42-.136-.735-.757-.8968-1.221-.0656-.179.3674-.66.678-.792 1.3911-.616 4.7814 0 5.5775 1.16.8662 1.246 2.0867 1.356 3.141.918 1.0148-.433 1.9291-.227 2.8259.044s1.7673.599 2.7166.472c.1575-.021.503 1.002.7568 1.536-.4944.149-1.0018.464-1.4786.42-1.2818-.088-2.546-.328-3.8321-.451-.4681-.043-.9755.048-1.4217.184-.2144.066-.3937.363-.4812.595-.035.096.1837.389.3237.416 1.5442.328 3.2415 1.15 4.5801.783 2.1698-.556 4.1339-.447 6.1768.105.2669.078.7699-.097.9493-.307.2931-.35.3762-.84.6081-1.242.783-1.33.8574-1.304 2.1172-.376.4943.367 1.4349.94 1.6142.809 1.3386-.958 2.5066-.192 3.6527.228 1.5399.551 2.9572.905 4.5714.161.49-.223 1.3605-.087 1.9291.136 1.575.63 3.307.7 5.018.853 1.706.158 3.377.525 4.768 1.623.205.166.774-.035 1.163.017 2.721.455 5.552.661 8.133 1.553.735.241 1.461.477 2.191.687.727.219 1.448.451 2.179.635.73.188 1.465.345 2.213.463.372.061.762.11 1.129.149.332.044.678.074 1.028.096.538.053 1.133.385 1.444.744.065.066.131.131.201.192.048.066.1.132.149.193.052.061.1.118.157.17l.079.079c.022.026.035.053.052.079.066.105.158.184.223.267.048.087.11.162.184.227.044.088.101.162.175.232.053.096.114.201.193.298.07.113.126.262.201.393.083.127.127.324.201.486.337.892.332 1.925.175 3.11-.149 1.081-.315 2.231-.363 3.403-.048 1.138-.009 2.266.201 3.413.595 3.263.35 6.544-.254 9.733-.577 2.975-1.203 5.958-1.041 9.06.123 2.764-.035 5.533-.113 8.276-.07 2.104-.442 3.885-.902 5.731-.157.612-.328 1.325-.354 1.933-.039.941-.201 1.461-.529 1.978-.425.66-.376 1.093-.079 1.605.455.783.42 1.43.009 3.067-.267 1.032-.604 2.047-.783 3.084-.635 3.762-1.313 7.515-2.135 11.242-.49 2.235-1.05 4.462-1.64 6.676-.569 2.117-1.444 4.365-1.89 6.198-.613 2.669-1.868 5.193-2.866 7.625-.192.477-.415.976-.721 1.448-.298.477-.639.949-1.09 1.343-.236.206-.507.599-.818.997-.31.399-.608.845-.84 1.208-1.154 1.736-2.594 3.093-4.361 3.718-.219.079-.84.595-.879.691-.07.272.109.442.188.656-.499.114-.976.114-1.522.259-.272.083-.595.153-.91.253-.311.105-.622.21-.884.333-1.75.879-3.653 1.356-5.569 1.19-.275-.022-.678.148-1.032.214-1.1594.188-2.358.402-3.5523.328-1.9816-.136-3.9414-.595-5.8094-1.247-1.2204-.428-2.2878-.45-3.4864-.625-1.0805-.149-2.2135-1.111-3.2984-1.719-1.2293-.674-2.4891-1.308-3.6746-2.056-.3981-.245-.7262-.643-1.1243-.827-.8443-.394-1.6842-.788-2.5153-1.229-.8356-.455-1.6711-.915-2.511-1.374-.5643-.324-1.2249-.696-1.5661-1.181-.2056-.302-.4287-.582-.6649-.844-.2362-.263-.4768-.517-.7087-.783-.4724-.521-.9799-1.015-1.4829-1.532-.5556-.542-.9974-1.163-1.5136-1.71-.5031-.56-1.0805-1.032-1.7367-1.461-.2493-.158-.5074-.63-.5337-.928-.07-.826-.3893-1.417-.8268-1.924-.4287-.521-.9974-.941-1.601-1.374-.2931-.205-.595-.446-.8706-.713-.2624-.276-.4943-.573-.6561-.888-.525-1.032-.9931-2.069-1.4655-3.115-.4856-1.036-1.0936-2.003-1.9029-2.922-.5293-.586-.6999-1.575-1.1024-2.336-.3806-.722-.6781-1.483-.9493-2.248-.2843-.761-.468-1.571-.7261-2.341-.525-1.539-1.0499-3.062-2.2267-4.379-.175-.205-.07-.713-.1618-1.063-.1881-.713-.3981-1.421-.6606-2.112-.2625-.735-.608-1.444-.8399-2.188l-.3587-1.159-.3237-1.168c-.2187-.779-.455-1.549-.6999-2.318-.4419-1.549-1.0281-3.054-1.6886-4.554-.3412-.748-.4943-2.083-.245-2.761.3762-1.067.3937-2.078.2537-3.084-.1312-1.01-.4549-2.012-.8267-3.04-.9799-2.839-1.6842-5.862-1.6711-8.95-.0219-2.117-.4331-4.362.0569-6.383.07-.306.0612-.835-.0219-1.155-.4725-1.885-.5162-3.81-.4112-5.818.0394-1.028-.1619-2.174-.0875-3.193.0787-1.269-.0612-2.314-.1531-3.5-.1969-2.309-.2756-4.685-.2275-7.051.0481-2.332.2187-4.681.2887-7.026.0175-.494.0219-1.006.0263-1.5 0-.149-.0175-.407-.0219-.381-.0219.092-.0612.258-.0744.442-.1049 1.772-.2449 3.548-.3718 5.337-.1531 2.331-.3062 4.676-.4593 7.017-.0175.249-.1269.468-.1881.717-.4025 1.619-.4287 1.649.0568 2.756.0788.179.2319.464.2188.599-.1575 1.422-.1531 2.918-.1925 4.392-.0262 1.474-.1225 2.931-.5337 4.287-.1312.42-.0481 1.435.1006 1.969.4462 1.57.6518 2.918-.1618 4.269-.1181.197-.14 1.02-.0307 1.265.6212 1.426.3544 2.817-.0743 3.889-.4375 1.063-.3631 1.959.07 2.712.4374.778.678 1.526.7174 2.283.0569.753-.0788 1.509-.4068 2.306-.2975.73-.2319 1.238.3499 1.658.4987.367 1.2511.126 1.4524 1.325.0831.49.2012 1.046.2756 1.57.0874.521.1224 1.011.0175 1.37-.1969.673-.3325 1.343-.4156 2.012-.07.669-.07 1.343-.0307 2.03.0482.682.1182 1.378.2669 2.086.1487.709.3368 1.431.5512 2.183.1793.656.3368 1.326.4637 2.008.1268.683.2143 1.383.2931 2.091.1881 1.404.3324 2.848.6124 4.243.1487.665.49 1.348.8399 1.934.4943.862 1.0586 1.68 1.623 2.494.5599.813 1.1111 1.622 1.7148 2.41.8705 1.177.7305 2.222-.3106 2.59-.3019.105-.6256.144-.9362.214.245.542.4769 1.185.8443 1.562.4637.463 1.2818.546 1.5661 1.041.2318.415.4768.831.7218 1.242.2406.416.4768.836.7087 1.256l.6868 1.268.7261 1.251c.3937.687.4287 1.475-.2756 1.615-.7305.14-.9405.371-.8661.695.0743.324.4374.739.9011 1.212.5731.604 1.1243 1.212 1.7061 1.763.5774.551 1.2555 1.002 1.986 1.338.9493.425 1.4086.652 1.6186 1.011.2275.345.1968.818.1619 1.728-.0569 2.038-.07 2.086 2.021 3.539.4637.328.9317.66 1.3823 1.015.4593.345.9231.691 1.3299 1.08.7874.739 1.5311 1.523 2.3491 2.236l1.2074 1.089.608.542c.2056.175.4243.337.6387.503.1837.14.5337.14.7699.123.0744-.005.1094-.285.035-.403-.2362-.376-.5424-.721-.8049-1.098.4375.272.923.477 1.3211.788.4856.372 1.2467.875 1.308 1.225.0875.516.3018.896.5774 1.207.2712.311.6168.534.9887.713.3718.184.7786.315 1.1898.433.4112.127.8224.236 1.2205.376 1.063.39 2.2091.661 3.1759 1.164 2.5985 1.33 5.2757 2.542 8.1541 3.276 3.0491.766 6.2687 1.072 9.4752.849 1.5138-.096 3.1668-.389 3.4388-1.338l-.25-.018.254.013c1.076.136 2.078-.105 2.988-.472.905-.394 1.728-.919 2.484-1.492.307-.236.617-.481.928-.717.31-.228.647-.39 1.015-.469 1.142-.183 2.213-.822 3.224-1.592.516-.376.967-.848 1.448-1.286.463-.455.883-.958 1.334-1.422 1.518-1.723 2.752-3.735 3.906-5.529.311-.451.534-.949.757-1.448.228-.494.416-1.006.604-1.509.402-.998.774-1.973 1.4-2.809.113-.157.372-1.001.424-1.351.184-1.409.731-2.664 1.242-4.139 1.077-3.066 2.157-6.19 2.525-9.457.065-.534.31-1.317.489-1.973.687-2.498 1.387-4.987 2.004-7.516.521-2.148.477-2.156-.271-2.016-.083.017-.145-.127-.215-.193.092-.21.197-.56.272-.612.52-.372.927-1.23 1.185-2.769.053-.315.201-.748.319-.945.779-1.295 1.125-3.102 1.103-4.563-.018-1.618.293-2.778.809-4.169.499-1.404 1.011-2.83 1.173-4.558.205-2.253.463-4.541.686-6.824.053-.551.293-1.129.46-1.689.249-.848.485-1.715.765-2.541.394-1.155.543-2.091-.105-2.756-.367-.377-.341-.845.201-1.103.451-.214.762-.582.538-1.505-.586-2.441-.673-4.798.867-7.064.153-.224.205-.727.223-1.094.039-.906.148-1.881.004-2.704-.35-1.942-.118-4.588-2.174-4.921-.534-.092-1.212-.984-.814-1.99.18-.455.07-1.194.105-1.794.048-.595.228-1.067 1.094-.988.249.026.525-.329.787-.517zm-1.273 8.85c.241-.144.481-.385.722-.411.228-.026.643.153.647.289.009.651.027 1.434-.192 1.959-.306.74-.809 1.286-1.225 1.899-.004.009-.131-.193-.245-.363.818-1.015.823-2.179.298-3.373zm-4.374 39.703c-.031.184-.258.359-.39.538.031-.525.022-1.045.092-1.583.035-.254.21-.547.547-1.339-.105 1.181-.14 1.78-.249 2.38zm-36.685-62.105c.1357.21.3106.411.3806.634.0263.079-.2799.329-.3062.315-.2143-.118-.4025-.28-.6999-.507.28-.197.4549-.319.6299-.442zm4.0902 112.955c.2012-.049.3981-.149.5993-.154.2188-.008.4419.07.6693.105-.2493.053-.4987.105-.6868.149-.2493-.039-.4155-.065-.5774-.1z"/><path d="m75.0282 146.071c-.3543.048-.6518.254-.9755.39.3369.135.7437.218.9931.411.8967.687 2.3009 1.317 2.4978 2.043.3325 1.251 1.3955 1.181 2.5766 1.247.7043.043 1.4611.14 2.1129.026 1.7235-.302 3.3159-.162 5.0394.184.8137.157 2.2441.026 2.7516-.302.713-.464 1.4917-.678 2.3229-.766.8311-.096 1.7148-.074 2.6334-.035 1.2074.048 2.4323-.009 2.8347.871.1925.424.923.446 1.7148.21 1.8811-.569 1.8681-.503 3.6181.105.835.301 1.942.739 2.108-.289.009-.066.516-.201.648-.175.953.188 1.837.14 2.69.026.853-.109 1.675-.297 2.515-.429 1.369-.205 2.712-.205 3.6.132.972.38 2.315.245 3.163.052.906-.219 1.361-.621 1.921-.923.083-.044-.377-.232-.569-.227-1.588.035-3.067 0-4.471-.28-.188-.035-.603.017-.844.07-.932.197-1.859.42-2.843.533-.985.119-2.026.114-3.172-.183-1.71.385-3.263.013-4.886-.237-1.116-.157-2.218-.485-3.5-.214-.4811.101-1.3167-.14-1.9641-.293-.9493-.21-1.8461-.525-2.8128-.691-.6212-.105-1.6973-.153-1.9379.044-1.2949 1.063-2.826.87-4.5889.24-.3762-.135-.958-.022-1.4436-.044-.7787-.043-1.5661-.061-2.336-.17-1.3298-.193-2.6553-.368-4.0377-.604-1.3779-.24-2.8128-.49-4.3614-.761-.0306 0-.5424-.039-1.0061.022zm6.3868 1.969-.1356.149c-.503.175-.993.367-1.5267.498-.1268.031-.4024-.175-.608-.271.1181-.092.2187-.258.3499-.262.5862-.018 1.1812.017 1.7717.026z"/><path d="m52.6641 147.392c.0787-.494.1006-1.006.2537-1.483.0962-.293.4943-.783.5862-.757 1.8635.573 3.1409-.971 5.035-.564 1.5967.306 3.3028-.215 4.9301.603 1.2161.604 2.5022.517 3.7402.162.63-.183 1.2774-.363 1.9467-.437 1.8154-.206 3.2546.394 3.7183 1.719.3981 1.133 1.0237 2.074 2.2617 2.817.1706.101.2712.442.1662.538-.14.127-.5949.215-.7874.14-1.3386-.52-2.7297-1.015-3.9065-1.715-1.0542-.621-1.8854-.896-3.259-.673-1.8023.28-3.6702 1.229-5.665.149-1.4829.59-2.8347.402-4.0552-.6-.0874-.07-.4199-.039-.5599.04-1.3955.787-2.9047.28-4.3833.083z"/><path d="m52.6865 147.414c-.035.249-.0875.494-.1006.744-.0263.638-.035 1.277-.0525 1.911-.6168-.52-1.5574-1.002-1.7717-1.632-.5512-1.622-1.5923-2.878-3.0097-4.072-.8355-.704-.4287-1.474.665-1.715 2.0035-.437 3.0446.315 2.874 2.091-.105 1.102-.5249 2.253 1.3692 2.651l.0219.022z"/><path d="m124.385 148.582c1.046-.044 2.052.021 2.778.083.73.065 1.185.153 1.15.271-.008.022-.446.118-.568.127-.346.013-.88.026-.91-.022-.276-.381-1.934-.236-3.382-.136-.481.031-.945.136-1.426.171-.328.022-.669-.022-1.002-.048.254-.061.477-.158.766-.188 1.041-.123 2.104-.215 2.594-.258z"/><path d="m49.177 213.39c-.2144-.319-.5293-.634-.6081-.971-.07-.306.0744-.678.2275-.936.035-.065.49.162.5906.35.1312.267.0962.634.1356.958l-.3412.599z"/><path d="m65.8118 150.962c-.5118.048-.8968.162-.993.079-.2231-.184-.3062-.468-.4418-.713.2493-.057.6036-.219.7217-.145.2625.158.4069.429.7131.783z"/><path d="m50.8272 138.297c-.0962.018-.1969.053-.2931.053-.5774.008-1.1505.017-1.7236.026.0394-.171.0175-.398.1313-.499.9055-.796 1.3955-.144 1.9073.394l-.0175.026z"/><path d="m136.696 154.483-.717 1.968c-.048-.057-.127-.105-.136-.175-.157-.966.28-1.443.827-1.824l.026.035z"/><path d="m132.654 148.346c-.188.044-.324.079-.464.11-.219 0-.494.004-.625-.014-.044-.004.284-.074.476-.091.167-.014.377 0 .613-.009z"/><path d="m136.67 154.448c.118-.328.223-.691.337-1.041.113-.346.214-.726.315-1.111.052.044.153.131.157.131l-.184.551-.196.512c-.132.337-.263.678-.403.993z"/><path d="m55.3208 149.816c.1443.237.3849.477.3193.56-.1137.149-.4156.285-.6387.276-.1487-.004-.2887-.271-.433-.42.2099-.118.4243-.236.748-.416z"/><path d="m135.922 151.881.17.149z"/><path d="m16.1204 213.626c.42-.153.8793-.048 1.1943-.914.3674-.989.4768-.556.573-.245.3325 1.036.3281 1.08 1.448.402.3456-.21.713-.49 1.0192-.582.1619-.048.3106.197.3063.433-.0044.245-.2056.635-.3194.963-.0962-.114-.1881-.236-.2931-.337-.3806-.372-.6212-.232-.8924.669-.1662.565-.2931.91-.7261 1.16-.315.179-.6781.463-.5687.914.0393.17.3893.219.5555.07.7831-.7 1.1418-.503 1.3168.21.1662.7.6868.582 1.2248.328.6256-.306.9406-.083 1.0893.59.0831.385.1531.814.315 1.107.1531.258.3849.564.643.473.4243-.153.6912-.7.7262-1.448.0393-.805.4637-.692.5512-.565.1968.293.2756.792.4243 1.19.2581.713.5643 1.396 1.3386.971.1312-.07.3368-.1.3587.013.1575.889.5906 1.147 1.0674 1.252.4768.113 1.0061.043 1.3955.367.2624.219.5424.389.8267.512.2888.114.5819.179.8837.205.6037.057 1.2336-.043 1.8767-.28.2668-.096.3762-.069.5861.127.35.333.7087.801 1.1156.95.4024.153.853.004 1.3517-.915.4855-.892.7568-1.378.923.027.0175.14.3412.008.5206-.092.1225-.066.3456-1.509.3193-.013-.0175.818.0875 1.277.4856.669.5862-.892 1.0805-.564 1.1811.459.1094 1.151.4637.893.748 1.024.2844.131.6431-.153.9012.052 1.2249.963 2.3579 1.112 3.6483.302.3194-.197.6431-.21.9668-.507.6824-.621 1.0936-.022 1.3474.634.1574.394.1793.722.5905.258.2187-.236.4068-.114.6125-.153l.0131-.022c.5337-.429.9099-.363 1.1811-.105s.4331.687.6081 1.024c.0874.144.0218.507.0699.678.0482.17.2188.136.8006-.438.0131-.013.1006.215.0131.399-.2668.568-.2275.664.1969.503.3587-.136.5643-.005.748.113.2144.153.6343-.03 1.2467-.446.7918-.534.4506-.704.5512-1.045.0831-.276-.1706-.512.5031-.945.4068-.258.9536-.446.9405-.91-.0087-.324-.2625-.63-.5905-.595-.3456.031-.7875.223-1.0281.214-.2406-.017-.2668-.262.175-1.19.0788-.161-.3324-.35-.5643-.433-.3325-.113-.6824-.148-.9711-.288-.3019-.127-.5293-.377-.6825-.884-.1531-.538-.5424-.661-.9798-.451-.4419.193-.9231.74-1.3518 1.448-.3237.552-.5512 1.689-1.0149 1.606.2669-.757.5206-1.523.8093-2.262.1269-.328.3937-.59.49-.901.105-.341.1706-.997.0875-1.024-.5337-.17-1.0412-.516-1.5836-.643-.5425-.131-1.1199-.043-1.7279.652-.525.595-.9668.814-1.3124.337-.2537-.35-.2931-1.4-.5731-1.68-.2056-.205-.7918.718-.888.477-.3937-.962-.818-.193-1.2074.245-.1924.214-.3718.787-.468 1.26-.0307.153.2099.586.3587.77.538.656 1.1024 1.207 1.5836 1.938.1268.188.1312.844.1137 1.316-.0088.188-.2275.6-.35.687-.5337.398-1.6229-.52-1.7848-1.741-.1662-1.312-.6124-1.557-1.0542-1.177-.8574.726-1.2818-1.054-2.0298-.861-.0613.017-.0744-1.015-.105-1.558.2012-.127.4287-.415.5993-.358.4681.157.9143.494 1.3867.695.1706.074.3719.018.56-.092.0875-.052.1881-.337.2493-.56.0263-.092-.0262-.398-.0743-.437-.5556-.425-1.1024-1.352-1.6361-1.081-.8662.446-1.5705.241-2.2398-.393-.0875-.084-.2974.083-.3937.284-.1575.337-.2581.822-.4068 1.207-.4856 1.286-.5206 1.26-.8487.302-.1268-.376-.3849-.98-.4724-.849-.6649.928-.9799.149-1.3299-.284-.4768-.577-.9317-.918-1.6973-.192-.2318.214-.538.083-.7086-.14-.4594-.626-1.1199-.63-1.7411-.779-.6124-.157-1.2074-.411-1.4436-1.444-.035-.153-.3106.049-.4462 0-.9668-.293-2.021-.441-2.8172-1.098-.4418-.385-.888-.726-1.3736-.975-.4812-.258-1.0192-.398-1.6623-.372-.2581.004-.455-.227-.5687-.477-.3718-.774-1.0411-.997-1.8329-1.05-.4987-.022-.8224-.231-1.1243-.573-.5555-.612-1.0498-1.277-2.0166-1.369-.6824-.074-1.2336-.341-1.7105-.7-.4637-.372-.8224-.862-1.1242-1.391-.2668-.507-.5031-1.028-.8312-1.461-.3193-.442-.6868-.831-1.2336-1.085-.4855-.227-.888-.542-1.30358-.849-.41995-.306-.79616-.647-1.19862-.975-.62993-.494-.88365-1.137-1.11113-1.811-.07436-.223-.16623-.481-.32808-.639-.2581-.245-.29747-.45-.18811-.748.13999-.376-.03499-.45-.45495-.411-.64305.057-.80491-.131-.98864-.735-.10936-.385-.16186-.792-.32809-1.137-.31934-.626-.67367-1.238-.94927-1.89l-.43745-.967-.36308-.993-.20998-.604c-.06562-.201-.10936-.411-.16623-.616-.10499-.412-.20561-.823-.2931-1.238-.12686-.805-.10061-1.711-.32371-2.389-.38933-.98-.2231-2.047-.49432-3.031-.09187-.385-.12249-.832.17061-1.256.13998-.227.17935-.713.12686-1.041-.0525-.403-.08749-.792.01312-1.146.10061-.359.28872-.691.61681-.984.08311-.075.09186-.385.02187-.434-.17498-.113-.41558-.135-.62993-.196.2231-.145.49432-.25.67805-.425.1881-.179.39808-.42.41995-.638.03062-.381.12686-.74.28872-1.077.15748-.336.38058-.647.69992-.914.09624-.074.03937-.267.06562-.402.09624-.442.09624-.928.30184-1.334.19248-.324.41121-.639.64743-.941.11811-.149.23623-.297.36309-.442.13123-.14.27122-.275.40683-.411.36746-.346.30621-.818.35433-1.308.04812-.437.76117-.599 1.10238-.923.38496-.359.71305-.761 1.06738-1.137.11812-.127.34997-.167.41996-.315.13998-.324.26247-.661.38058-1.011.06124-.175.11374-.354.18373-.529l.21435-.508c.10062-.231.17498-.542.43304-.581.6125-.114.9931-.425 1.4086-.744.4462-.346 1.0105-.464 1.1593-1.181.0306-.136.2406-.166.4112-.079.9318.49 1.1067-.026 1.2948-.696.0482-.157.105-.319.1925-.441.0875-.118.1969-.206.3281-.228.4287-.079.8837-.07 1.2861-.153.4156-.052.7831-.201 1.0587-.647.0874-.14.2449-.167.4112-.171.1706.009.3455.035.4855-.026.5293-.219 1.1549-.136 1.7323-.07.5775.044 1.0805-.083 1.5661-.735.0744-.105.2625.135.385.144.2581.026.5074 0 .7611-.022.2669-.03.5294-.175.8006-.192.2799-.009.5599-.044.8443-.039.2799 0 .5643-.009.8486-.049.5687-.096 1.1461-.205 1.7717-.516.315-.157.783.018.9318.416.2406.603.5249.866.8661.94.3456.066.7262.027 1.1636-.1.2975-.079.595-.145.8968-.188.2931-.027.5818-.022.8705.004.2844.026.5644.083.8356.166.2668.083.5074.232.7436.394.315.232.7087.337 1.0456.538.3324.206.6343.464.8005.87.0481.123.21.224.35.219.398.018.7436.136 1.0542.306.3106.171.5993.39.8312.674.2493.28.7043.398.9449.687.2931.359.6474.542 1.0411.774.1881.114.3806.232.5643.363.1706.14.3368.285.4987.438.3193.31.6562.617.9055.988.2494.363.4681.748.6912 1.129.2275.381.3762.801.5906 1.19.0831.166.1837.332.2799.494.0307.048.0963.127.0963.114 0-.039.0044-.109-.0219-.175-.1312-.311-.2581-.626-.3806-.945s-.2318-.643-.4024-.945l-.6212-1.198c-.2319-.385-.49-.757-.7262-1.147-.0525-.083-.0219-.214-.0394-.323-.1137-.726-.1399-.744-.8049-.718-.1093.005-.3018.035-.3281-.013-.1399-.24-.3105-.468-.4987-.678-.2056-.192-.4155-.389-.6211-.582-.2013-.197-.3937-.407-.5556-.647-.1619-.236-.3106-.49-.3893-.823-.0482-.205-.4156-.389-.6693-.393-.3631-.022-.6868-.048-.9099-.197-.2231-.153-.35-.429-.35-.936 0-.149-.2493-.368-.3806-.337-.783.223-1.0892-.306-1.2423-.949-.1488-.643-.5031-.775-.9362-.556-.9011.455-1.3517.166-1.6798-.77-.1444-.437-.3587-.481-.6955-.048-.2931.376-.4594 1.137-.9143 1.041-.3762-.074-.8837-.013-1.0674-.389-.1706-.35-.3675-.639-.5818-.875-.2144-.241-.455-.389-.7087-.521-.2537-.122-.5249-.205-.8136-.253-.1444-.027-.2888-.04-.4375-.053-.1487 0-.3062.009-.4637.026-.5468.057-1.0893-.131-1.6579-.35-.5687-.192-1.1593-.446-1.7542-.577-.2844-.061-.5906.092-.8487.262-.3762.254-.7349.525-1.0805.801-.3412.297-.6649.621-.9843.914-.4636.442-.9448-.008-1.2029-1.076-.0744-.31-.1182-.621-.1706-.932-.2363.088-.5337.088-.6868.315-.1882.285-.14 1.002-.3456 1.111-.7043.342-1.413.661-2.1479.919-.3019.105-.7131-.1-.9143-.757-.3981-1.36-.6605-1.023-1.0499-.568-.4856.568-1.0105 1.045-1.0805 2.043-.0962 1.255-.1225 1.181-1.2861.476-1.28173-.743-1.29485-.7-1.79792.342-.23623.455-.4287.958-.77429 1.264-.31934.306-.6868.56-1.01926.848-.33247.289-.6693.578-.98864.889-.06562.065.00875.293.06999.45.02187.048.23622.175.31059.171.22747-.013.43308-.07.64743-.11-.10062.188-.15749.416-.30184.556-.18373.166-.36746.481-.61681.398-.71742-.241-1.00614-.057-1.14175.258s-.11374.757-.1881 1.111c-.10937.473-.15749.993-.43746 1.317-.71742.888-1.54858 1.719-2.11726 2.73-.15311.266-.31059.529-.4462.805-.12686.28-.24935.559-.36746.844l-.34559.857c-.104988.289-.188104.586-.279969.879-.166231.556-.354335 1.164.441829 1.602l.08311-.07-.07874.074c-.406828.28-.533689.647-.538063 1.032 0 .193.026247.39.065617.587.04812.196.118112.398.179356.594.10499.324.31059.67.004374.88-.227475.162-.398081.35-.507444.56-.104988.21-.166232.441-.205602.678-.039371.236-.056869.485-.069992.73-.017499.245-.021873.495-.021873.744v1.317c-.0131236.437.013123.866-.0568688 1.277-.1312355.844.5686868 1.658.0699918 2.467-.0481192.079.039371.411.135611.538.367459.503.319339 1.037.332463 1.649.04812.63.052494 1.278.139984 1.917.122487.629.293096 1.255.664926 1.815.12686.179.15748.503.21435.765.18811 1.002.41996 1.991.7043 2.98.27559.826.31059.809.91865.428.06999-.043.16623-.03.24935-.048-.00875.101.01312.241-.035.289-.33246.341-.40683.774-.10499 1.308.06124.109.08312.297.04812.411-.11374.367-.09624.722.01312 1.028.11812.306.33247.556.58619.744.55994.407.6693.879.73929 1.513.03062.324.07.648.15311.963.07874.319.21435.617.45058.879.30184.341.59493.691.87927 1.054l.90116 1.046c.14435.166.1531.472.2231.713.11373.363.23622.73.31934 1.124.11373.547.32371.892 1.01051.577.38496-.175.52932-.056.2406.394-.2406.376-.31934.683.14436.739.61243.079 1.13295.219 1.46985.552.3412.332.4768.879.3893 1.723-.0175.166.1225.32.2406.416.2887.236.5556.542.9274.617.888.148 1.6536.927 2.9572-.687.3368-.407 1.0192-.801 1.1374-.293.1093.472 1.2554.131.2624 1.535-.1443.206-.1881.508-.2756.766zm-2.2441-2.839c-.0963.223-.1575.464-.2975.665-.1268.188-.4374.481-.4856.455-.2318-.127-.5074-.289-.5468-.582-.0568-.407.0657-.919.1269-1.374 0-.004.1444-.061.2756-.113-.1706.848.2056 1.133.9274.949zm-9.84705-11.947c-.03062-.066.10061-.227.15311-.341.14436.153.31934.284.4462.45.05687.079.00437.25-.00875.626-.30184-.354-.48557-.525-.59056-.735zm28.75805 20.49c-.0131-.21-.0437-.411-.0306-.63.0044-.078.1706-.319.175-.301.0612.118.105.28.1793.511-.1443.188-.2362.307-.3237.425zm-29.63733-45.066c.0175.092.07437.193.04812.267-.03062.079-.13998.127-.21435.188-.00875-.105-.01312-.21-.02187-.289.07874-.07.13123-.118.18373-.162z"/><path d="m56.0434 235.35c.0306-.184-.0832-.42-.14-.626-.175.066-.3194.188-.5206.18-.3587-.009-.7349.008-1.098-.035-.3587-.04-.6912-.127-.9799-.333-.9886-.704-1.1155-.398-1.3736-.1-.1662.157-.3893.271-.4593.529-.1006.332-.2844.564-.5075.739-.2362.153-.5205.245-.8355.271-.3062.009-.6299.412-.6562.788-.0525 1.102-.7043 1.36-1.3823 1.505-.4462.109-.9012.271-1.1943-.56-.1399-.394-.3849-.368-.6343-.096-.5993.664-.643.581-1.2904.039-.315-.28-.6869-.731-.7568.297 0 .066-.1925.193-.2406.162-.6868-.393-1.3036.083-1.9642.206-.5381.122-1.0411 0-1.308-.398-.2887-.451-.783-.473-1.133-.381-.3718.11-.6255.451-.9011.669-.0394.031.0831.272.1575.289.5949.149 1.1286.372 1.6229.766.0656.057.2362.035.3368 0 .7918-.228 1.5311-.626 2.3798.017.6911-.341 1.2686.07 1.9379.271.4506.119.9361.416 1.4261.062.1793-.127.5512.065.8399.14.4199.122.8661.315 1.3298.341.3019.031.7656-.127.8006-.346.0918-.608.2668-.94.5424-1.102.14-.079.3019-.114.49-.118.1837-.013.3937.004.6255.044.2012.026.3587-.197.5337-.311.28-.179.5599-.359.8618-.507 1.063-.469 2.1348-1.033 3.294-1.973.0087-.009.1575-.202.1969-.438zm-2.9878 1.024-.0613-.154c.0175-.284.0088-.568.0306-.835.0044-.061.21 0 .3237 0 .0394.101.1357.254.1094.297-.1181.21-.2887.372-.4506.543l.0525.149z"/><path d="m53.5014 227.073c.4506-.223.8968-.463 1.3518-.656.2843-.122.8268-.245.8268-.201.0131.411.4637.534.9099.731.468.179.9273.433.9623.896.0132.385.2319.74.3456 1.138.0919.393.1663.827-.1881 1.207-.2581.284-.3237.564-.3324.858 0 .293.1093.608.2756.962.1487.346.2843.726.3062 1.098.0175.499-.2012.879-.5468 1.076-.3675.184-.8706.175-1.4786-.048-1.0324-.381-1.9204-.647-2.6685-.687-.1006-.004-.3893-.179-.4549-.267-.0831-.113-.1094-.302-.0307-.315.28-.048.5687-.118.8487-.197.2887-.078.6212-.144.9668-.214.3149-.057.5555-.153.6955-.306.1225-.158.1444-.376.0481-.661-.1312-.376-.4768-.765-.6518-1.08-.1049-.162-.1749-.311-.1618-.455.0087-.074.035-.144.0875-.219.0437-.074.1093-.153.2099-.232-.7786-.437-.7786-.7-.0699-1.299.0481-.044-.0525-.127-.1575-.144-.5075-.079-.7612-.201-.8706-.381-.1224-.175-.1487-.398-.2493-.586l.0131-.013z"/><path d="m53.4887 227.091c-.2231.113-.4462.223-.6736.336-.56.298-1.1199.587-1.6842.871.3324-.284.5205-.617.9886-.98.5949-.464 1.063-.927 1.4348-1.422.3631-.49.6125-.988.7918-1.54.1881-.629.8706-1.124 1.5005-1.001.5687.118.8355.402.7437.774-.0875.367-.5119.792-1.2687 1.264-.9405.582-1.9816 1.151-1.8154 1.684l-.0131.014z"/><path d="m36.9474 237.83c-.385-.118-.7218-.328-.958-.512-.2363-.188-.3675-.35-.3194-.459.0088-.022.1881-.035.2319-.022.1225.044.3106.127.3062.175-.0131.411.6124.525 1.1505.643.1793.04.3718.009.5512.044.1225.026.2318.127.3456.193-.1094.03-.21.083-.3237.074-.4025-.031-.8093-.101-.9931-.136z"/><path d="m20.1484 155.957c.1444-.105.2888-.306.4419-.28.1399.026.3062.28.4112.49.0262.053-.0788.429-.1619.459-.1181.044-.28-.1-.4243-.166z"/><path d="m52.1796 230.271c-.0832-.113-.2188-.205-.1444-.21.1662-.008.4418.018.6737.022.0743.061.2493.171.1881.188-.1356.035-.3937.018-.7131 0z"/><path d="m47.7528 223.885c.0306.009.0656.004.0831.03l.3369.429c-.0832.14-.175.346-.2406.407-.49.485-.2844-.223-.1969-.844l.0131-.022z"/><path d="m14.8511 213.753-.3062-.976c.0481-.026.1094-.083.14-.079.4331.057.3587.508.1925 1.037l-.0263.013z"/><path d="m33.9985 236.663c.0788-.009.1356-.018.1925-.022.0744.039.1706.083.21.122.0131.013-.1225.022-.1925 0-.0613-.013-.1312-.061-.2144-.1z"/><path d="m14.8778 213.736.3456.971c-.0437.035-.1269.105-.1269.105-.0875-.354-.1662-.708-.2449-1.058l.0262-.013z"/><path d="m51.9078 228.479c-.1925.096-.3718.196-.4637.214-.1618.035-.3456.052-.3762.03-.0219-.013.2012-.113.315-.183.1443-.022.2931-.044.5249-.061z"/><path d="m16.119 213.627-.1444.114z"/><path d="m77.3588 101.852c-.2231-.288-.2494-.516-1.0193-.988-.8837-.543-.5599-.46-.3325-.411.7568.166.7831.17-.0043-.6785-.245-.2625-.5512-.5643-.6912-.7612-.0744-.105.0962-.1006.2887-.0175.2012.0875.5643.3325.8574.5118-.07.0131-.1531.0219-.2143.0438-.2231.0787-.0613.2581.7392.7266.4987.288.8093.476 1.1024.804.2144.237.525.539.8706.635.1312.035.0962-.14-.0613-.285-.7437-.678-.6562-.804-.0831-.643.5556.158.3631-.166.0481-.542-.3587-.4332-.2231-.5206.3325-.3588.3149.0919.6737.2058.8968.2228.2056.013.4418.005.328-.1615-.1881-.2756-.7043-.5994-1.3561-.875-.7043-.3018-.6649-.4768-.5686-.4768.2274 0 .643.1313.9798.1969.6037.1181 1.1812.1925.7087-.3369-.0787-.0875-.1312-.2012-.0262-.1706.7874.2188.9842.0919 1.0324-.1093.0481-.2013-.0482-.4681.2231-.5556.7305-.2362.6736-.8312.1881-1.5354-.1007-.1488-.0832-.1882.0918-.2319.5862-.1269 1.7411-.1969-.0481-1.0849-.8705-.4287-1.3386-.643.0175-.3937.1356.0263 0-.1487-.0962-.245-.0657-.0699-1.4699-.4768-.0219-.1399.7962.1837 1.2336.2318.643-.07-.8661-.4375-.5468-.5731.4506-.4331 1.1243.1575.8749-.0613 1.0018-.175.1312-.1181-.1487-.3368.0525-.4331.4681-.2362.7349-.538.7655-.8661.035-.3281-.1881-.6999-.6605-1.0587-.2319-.1749-.2887-.3543-.6475-.5161-.7305-.3194-.2449-.56.3238-.8268.3324-.1575.6255-.2581.0612-.3981-.2975-.07-.2537-.2056-.3631-.3062h-.0262c-1.1943-.35-.4156-.8093-.1006-1.3168.1312-.2099 1.2336-.6561-.3938-.4987-.0218 0 .0744-.1531.2669-.2274.5818-.2275.608-.3325.1793-.3894-.3543-.0481-.4593-.1881-.5424-.3193-.1006-.1662-.5556-.1312-1.2642.0437-.9187.2319-.7349.3544-1.0018.5119-.2187.1312-.175.2624-.9449.4024-.4637.0831-.9799.1619-1.2598.3412-.1925.1225-.2057.2231.0393.2275.5075 0 1.8023-.1094-.14.3893-.1706.0438-.07.14.0044.1969.21.14.6431.2843-.1269.5643-.7961.2712.21.3587 1.8505.4156.6255.0219 1.7804-.105 1.8548.1181-.8006.0175-1.6011.0306-2.3973.0481-.3499 0-.6824-.035-1.0061-.0175-.1794.0088-.4287.0306-.6343.0481-.2056.0219-.3675.0394-.3675.0482.0088.1399-.1793.2843-.1881.4199 0 .14.1969.2756.9843.4637.6693.1619.9405.3325.5074.4287-.3193.07-1.3517.0131-1.5967.0656-.1793.035.7743.3019.5381.3062-.9274.0132-.14.2231.3106.4156.2231.0919.7918.2362 1.2642.3412.1531.035.5687.0044.7437-.0306.6256-.1268 1.1461-.3018 1.8373-.4681.1793-.0437.8224-.0175 1.2948.0132.1838.0131.6125.1443.7131.2143.4331.3194-.4593.8137-1.6579.7131-1.2862-.0919-1.5268.0306-1.1462.2799.7218.49-1.0149.3369-.8224.6606.0175.0306-.9842-.1837-1.5092-.2931-.1269-.105-.4112-.2494-.3587-.2975.1487-.1356.4637-.2318.6518-.3674.0656-.0482.0088-.1356-.1006-.2188-.0525-.0393-.3325-.1224-.5556-.1793-.0918-.0219-.3893-.0569-.4287-.0438-.4068.1182-1.2861.1094-1.0105.3369.4418.3762.2931.6037-.3062.6737-.0787.0087.0831.1224.2843.2099.3281.14.8006.3019 1.1768.455 1.2555.5074 1.2292.5249.3281.4068-.35-.0481-.9099-.1137-.7874-.0437.9142.5118.2012.433-.1794.4418-.5118.0219-.783.0919-.0481.6299.2187.1619.1181.2494-.07.2494-.5206 0-.4725.2668-.5337.4899-.0569.2231-.2406.3893-1.1111.1444-.1313-.0394.0875.1575.07.2012-.14.3237-.0788.7743-.525.9274-.4943.1706-.8749.3718-.5687 1.0761.0569.14-.0875.1663-.2712.1444-.5643-.0744-.573.2318-.4374.6605.0918.2713.0218.3981-.1706.4637-.3588.1182-.7087.2319-.5119.7879.2844.796-.0612 1.119-.643 1.242-.5556.105-1.1068.21-1.0193.857.07.565-.0568.985-.0918 1.466-.0307.372-.2844.503-.595.612-.105.035-.2187.083-.2187.197 0 .175-.105.193-.3456.109-.3106-.105-.2581.014.0044.302.3981.442.3981.56.1618.691-.1531.079-.3674.114-.4374.254-.2625.512-.4856 1.046-.7568 1.549-.1619.302-.35.582-.5424.866-.1881.267-.5644.464-.5644.8 0 .477-.3805.753-.3587 1.217.0132.183-.0306.354-.3674.38-.175.018-.2581.201-.245.354.0306.377-.0875.63-.7174.683-.0788.004-.0963.144-.0306.184.1618.105.3893.188.5905.275-.2012 0-.4462-.03-.6124 0-.1662.031-.3543.088-.3675.188-.0306.342-.1618.617-.7043.779-.0787.026.0219.131.0263.197.0044.214.1137.455.0175.634-.1488.306-.4243.582-.7131.871-.1837.192.035.424.21.66.1531.206-.3806.363-.5162.573-.1487.232-.1925.481-.2668.735-.0263.083-.1969.162-.1531.245.0962.175.2143.35.3455.521l.42.494c.0919.109.2581.228.1094.333-.3631.258-.3063.507-.3369.761-.035.275-.1924.577.3194.761.0962.035.0087.14-.1488.214-.8924.411-.4593.608.0438.74.2406.065.4549.153.4068.293-.07.227-.2012.498-.2362.748-.0306.24.0306.472.4112.551.2362.048 0 .354.0962.49.1706.258.0569.66.0875 1.019.0131.175.0613.337.1881.446.1313.101.3544.14.6868.083.1006-.017-.0568.202-.035.272.0438.14.105.271.2056.367.1138.096.315.114.4156.219.3981.437.8749.853 1.7979.59.2319-.07.3369.149.2231.486-.3587 1.08.1794 1.063.7393.849.3894-.14.7524-.276 1.0499-.311s.5381.017.7524.175c.3019.227.7306.031.9362.617.0306.087.1225.113.1925.052.4112-.345.7174-.363 1.0411-.227.1706.07.3718-.162.5381-.105.2099.057.3849-.092.5599-.236.3456-.311.6737-.486.993-.648.1575-.074.3281-.105.4943-.157.1619-.066.3194-.136.4725-.223.0656-.035.1225-.084.1793-.132.0175-.013.0394-.057.0307-.057-.0219-.013-.0569-.03-.0832-.021-.2449.083-.4987.144-.7436.192l-.4944.053c-.0831.008-.1618.017-.2449.021l-.2494-.021c-.035 0-.0787-.101-.1181-.149-.2581-.32-.2406-.35-.3499.188-.0175.087-.0482.245-.07.232-.2056-.123-.4112-.096-.6168-.114-.2013-.035-.4069-.14-.5119-.586-.0306-.145-.1706-.075-.2668.044-.28.363-.5424.476-.4681-.381.0088-.127-.07-.201-.1268-.122-.35.481-.4287.083-.35-.42.07-.495-.0131-.525-.2494-.241-.4855.591-.678.451-.4287-.346.1138-.367.0613-.376-.2493.035-.2756.355-.6606 1.028-.8355.976-.14-.044-.3894-.013-.2756-.341.4199-1.203.3324-1.488-.07-1.615-.3806-.091-.035-.901.0131-1.299.0175-.105-.105-.1-.2625-.074-.4462.083-.9974.197-1.4917.21-.3806.013.0263-.368.993-.897l.8312-.455c-.0481-.035 0-.127-.1662-.083-.21.053-.8487.337-.9099.297-.2013-.122-.2931-.319-.3063-.52-.0131-.088.3194-.271.9668-.473 1.3255-.428 1.1418-.415.9012-.419-.1575 0-.2844-.027-.4725-.053-.1881-.022-.4418-.026-.8399 0-1.028.053-.9755-.009.2056-.372 1.3167-.394 1.2949-.354.7306-.485-.2581-.057-.4856-.145-.5119-.25-.0481-.201.07-.407.0919-.612 0-.022-.2143-.048-.3675-.066-.0481-.004-.293.009-.3412.022-.1531.044-.2581.092-.3805.144-.0613-.052-.1794-.109-.1794-.166 0-.065-.0525-.17.1881-.192 1.3955-.123.4418-.306.1706-.512-.1925-.131-.4506-.289-.4024-.411.1268-.324.4112-.608.5118-.928.0437-.166.0962-.341.1137-.52l.0438-.547c.0131-.175.0087-.372-.8093-.696.6561-.056.2449-.433-.0613-.809-.1312-.153-.3456-.35-.0787-.35.4024.005.5512-.096.6168-.245s.0656-.332.1093-.494c.07-.293.0919-.63.3194-.831.21-.206-.1881-.77.4068-.748.0569 0 .0569-.132.0131-.21-.1706-.315.0219-.425.1838-.573.3499-.311.818-.525.7305-1.138-.0175-.1.1006-.162.175-.223.28-.245.6081-.45.8924-.691.245-.201.2144-.223-.3762-.617-.0656-.044-.1225-.109-.1881-.166.0569 0 .1181-.018.175.013.3937.214.643.245.7611.057.0219-.039.1138-.048.1969-.026.5468.17.713-.018.6387-.337-.0875-.355.1225-.403.4768-.381.3543.018.713.04.8093-.192.1225-.311.3106-.578.4855-.853.0438-.066.2363-.022.3675-.018.2012 0 .3981 0 .6299.031.3238.044.4594-.018-.0306-.529-.28-.289-.2493-.35.1837-.057.3588.245.6081.372.4637.087-.3849-.752-.363-1.172.9624-.555.1313.061.1969.017.2319-.027.0787-.109.2231-.183.1575-.385-.1619-.49.2143-.7-1.4086-1.994-.4156-.333-.9055-.862-.5337-.766.3456.092-.2275-.695 1.1417.35.2013.153.4506.276.6781.416zm-1.588.425c.1969.127.4025.24.5993.385.1794.135.4987.411.4943.433-.035.096-.07.214-.2712.153-.2843-.083-.713-.311-1.0717-.477 0 0-.0919-.109-.175-.201.6955.354.7699.192.4243-.289zm-3.7315 4.344s-.1837-.07-.2799-.11c-.0044-.096-.035-.214-.0088-.288.0132-.035.1444.008.3719.039-.035.188-.0307.297-.0832.363zm7.8873-11.1729c-.1969-.0525-.385-.0963-.5906-.1663-.0743-.0262-.3106-.1618-.2931-.1618.1094.0087.2581.035.4725.07.1837.1137.2975.1837.4156.2581zm-13.2898 18.7889c-.0394-.044-.1181-.097-.1093-.123.0087-.03.1006-.039.1531-.057.0306.048.0656.097.0875.132-.0569.021-.0963.034-.1357.048z"/><path d="m75.9992 84.5952c.0919-.0219.2931-.14.4462-.2144.0525-.0962.0525-.1662.1575-.2974.3849-.4769.6518-.9799 1.1592-1.4742.8749-.8575.6387-.8837.4944-1.0018-.0875-.07-.1357-.1969-.315-.1662-.4725.0874-.6299-.0875-.6431-.4681-.0043-.1837-.3062-.1794-.5949.0306-.8137.5993-.993.4506-1.1855.2669-.1268-.1225-.315-.1619.1794-.8793.2362-.3412.1574-.4244-.0875-.2975-.5818.2931-.5337.2494-.3894-.3806.07-.3018.2056-.7699-.4243.0481-.0394.0525-.175.1138-.175.0788-.0043-.4725-.503-.1881-.8136-.1575-.2625.0306-.4025-.1006-.3106-.4681.1006-.4024-.0963-.4637-.2887-.3937-.21.0788-.4769.3631-.6956.5512-.0306.0263-.0875.2319-.07.2537.1794.14.2931.3544.2844.7175 0 .0481.0743.0437.1268.0218.4069-.1356.9056-.3806.8312.2844.4156-.1706.3587.2931.4068.6037.0394.2099-.0394.5555.2756.4374.1181-.0437.0613.2144.0525.3675-.0131.2231-.105.5249-.0962.713.0043.1181.105.2187.2581.0875.8442-.7305.9361-.4899.7436.07-.0437.1181.105.07.1531.1137.0744.07.1706.1181.2013.2319.0962.3937.1618.8093.1662 1.2948.0044 0 .0394.0525.1575.0219zm.5337-1.6011.1269-.0962c.1968-.0919.4155-.2013.5905-.2625.0438-.0131-.0612.14-.1006.2144-.0875.0568-.2231.1662-.245.1618-.1006-.0175-.1706-.0656-.2493-.105z"/><path d="m81.0288 85.2472c-.4637.1881-.9361.3893-1.3955.5643-.2843.105-.8049.2712-.7961.2537.0962-.1837-.2844-.1356-.665-.0656-.3849.07-.7742.1618-.7655.0306 0-.2275-.7437-.0219-.3193-.5031.3062-.3631.0175-.3893-.4681-.2275-.2494.0832-.49.1663-.6562.1925-.4462.0788-.1487-.3281.8005-1.1723.8225-.7262 1.4393-1.3518 1.7848-1.903.0482-.0743.2888-.3062.3806-.363.1181-.07.2669-.0963.245-.0394-.1531.4199-.3018.8355-.6562 1.3298-.3193.4462-.3893.6343.0263.595.538-.0656 1.6754-.4112 1.1505.3018.783-.1881.9011.0438.2537.6081-.0438.0393.0525.0481.1487.0262.9712-.2362.8531.1356.9537.3675l-.0175.0131z"/><path d="m81.0473 85.234c.2318-.0963.4637-.1925.6955-.2844l1.7411-.7611c-.3456.3018-.5687.6037-1.098.8661-1.3649.6781-2.2879 1.2161-3.1365 1.7192-.4987.2931-1.3036.4812-1.728.4987-.783.035-.2887-.2406 1.3736-.8968 1.0324-.398 2.1654-.7743 2.1392-1.1286l.0175-.0131z"/><path d="m71.938 79.0436c-.1182-.0962-.1794-.2668-.2056-.4199-.0263-.1575-.0175-.2931.0525-.3893.0131-.0175.1006-.0394.1137-.0263.0394.035.0875.1006.0656.1444-.1793.3543.0481.4374.2362.5337.0613.035.1575.0043.2188.035.0437.0218.0437.1049.0656.1662-.0613.0262-.1269.07-.175.0656-.1575-.0306-.3062-.0831-.3718-.1094z"/><path d="m70.3465 121.262c.0875-.022.2581-.1.2362-.052-.0175.043-.2231.227-.3893.376-.0437.039-.35.223-.3806.219-.0393-.009.0744-.132.1225-.202l.4112-.336z"/><path d="m81.4583 82.2285c.14.0219.3106 0 .2625.0569-.1094.1268-.3281.2887-.5031.4374-.0963.0088-.2975.0613-.2625.0132.0788-.1094.2756-.2756.5031-.5031z"/><path d="m83.1504 88.9045s-.0175-.035 0-.0525c.0787-.1094.1706-.2188.2449-.3325.1619 0 .3894-.0175.4681 0 .6474.1487-.0787.28-.6868.3893h-.0262z"/><path d="m77.7958 102.64-.6868-.14c-.035-.035-.0962-.092-.1006-.109-.07-.236.3062-.044.7656.227l.0175.022z"/><path d="m71.1133 78.1341c.0394-.0131.07-.0218.0962-.0306.0175.0306.0438.0656.0438.0963 0 .0131-.0657.0218-.0875.0087-.0219-.0087-.0306-.0481-.0525-.0787z"/><path d="m77.7793 102.618.6693.114c.0394.039.1137.109.1137.109l-.7655-.201z"/><path d="m82.6523 83.9398c.1794-.1225.3413-.2581.4287-.2887.1575-.0525.3456-.0744.385-.0394.0263.0219-.175.1575-.28.2406-.1487.0263-.3018.0525-.5337.0875z"/><path d="m77.3594 101.853.1268.122-.1224-.118z"/><path d="m110.819 101.328c.332-.153.564-.118 1.199-.765.726-.7438.577-.438.481-.223-.32.717-.341.73.691.197.324-.167.696-.381.932-.455.122-.04.087.135-.044.302-.136.174-.468.459-.717.695 0-.079.013-.162 0-.227-.031-.254-.25-.145-.902.516-.406.411-.669.66-1.058.862-.285.144-.648.371-.836.682-.07.118.105.127.285.009.848-.547.949-.416.63.087-.311.486.048.385.498.197.521-.219.56-.052.228.416-.188.266-.416.564-.512.761-.088.184-.162.398.026.341.311-.092.801-.455 1.291-.971.529-.556.678-.459.643-.363-.083.214-.355.555-.543.835-.337.508-.656.985.005.753.109-.04.231-.044.161.039-1.084 1.229.097.809-.039 1.321-.197.696.293.858 1.094.805.17-.013.188.026.109.179-.254.525-1.002 1.343.814.512.879-.398 1.36-.586.253.232-.109.083.092.088.228.079.092-.009 1.36-.735.105.07-.687.442-1.037.7-.42.477.914-.328.783-.009-.066.542-.949.617-.647.578-.686.718-.044.14.288.096.179.266-.263.403-.354.7-.236.893.105.197.42.297.975.297.276 0 .39.092.766.048.774-.091.415.307-.044.692-.271.231-.529.393.035.293.293-.053.284.057.411.096h.022c1.238-.118.543.503.289.914-.114.193-1.186.674.407.302.022-.004-.07.127-.254.206-.569.249-.591.31-.175.301.337-.008.429.092.494.184.083.114.534.066 1.247-.087.927-.197.748-.315 1.019-.468.223-.127.18-.263.95-.407.463-.088.988-.136 1.259-.346.188-.149.188-.302-.061-.319-.529-.039-1.815.205.053-.534.166-.065.035-.201-.053-.271-.249-.197-.722-.276-.052-.809.682-.551-.381-.49-1.956-.031-.603.175-1.658.656-1.789.494.748-.284 1.501-.564 2.244-.848.328-.118.661-.175.963-.298.332-.131.909-.42.901-.45-.158-.407.38-1.173-1.243-.893-.691.123-1.019.088-.708-.245.232-.245 1.133-.756 1.295-.984.118-.171-.858.079-.674-.066.717-.595-.074-.371-.564-.284-.241.039-.788.263-1.225.468-.14.066-.451.359-.565.494-.424.495-.73.928-1.238 1.427-.131.131-.7.441-1.119.66-.167.088-.591.214-.7.223-.49.026.013-.708 1.028-1.365 1.093-.691 1.181-.958.735-.901-.845.114.551-.927.157-1.05-.031-.008.827-.564 1.269-.87.17-.005.485-.088.49 0 .013.236-.127.555-.171.813-.013.092.092.132.236.14.07 0 .341-.105.551-.196.088-.04.337-.21.355-.245.21-.403.835-1.09.424-1.133-.656-.07-.735-.403-.455-.998.035-.078-.171-.057-.372.035-.328.145-.757.394-1.124.578-1.216.608-1.199.599-.56-.057.249-.258.621-.691.49-.639-.984.385-.512-.157-.328-.525.254-.494.276-.813-.595-.512-.262.092-.297-.061-.214-.236.441-.993-1.151-.555-.04-2.047.083-.114-.197-.009-.24-.061-.311-.35-.818-.534-.871-1.072-.061-.6082-.227-1.1113-1.041-1.085-.166.0044-.162-.1619-.105-.3412.179-.5731-.157-.7043-.643-.6999-.302 0-.429-.1138-.472-.3369-.075-.4068-.149-.8268-.77-.7699-.88.0787-1.173-.35-1.23-.9843-.043-.6037-.087-1.1986-.765-1.2467-.595-.0525-1.002-.2712-1.496-.4068-.376-.1094-.477-.3981-.534-.7393-.022-.1138-.048-.2406-.162-.2669-.175-.0437-.179-.1487-.052-.3718.162-.2844.03-.2581-.307-.0656-.52.2974-.638.2668-.721-.0044-.053-.1706-.044-.3937-.167-.5031-.459-.3893-.927-.7699-1.347-1.1942-.254-.2537-.464-.5381-.674-.8268-.201-.2756-.245-.7043-.551-.8487-.446-.2012-.538-.6736-.962-.888-.166-.0787-.298-.2143-.158-.5249.075-.1619-.052-.3237-.188-.3981-.328-.1837-.485-.4462-.157-.9799.044-.0656-.057-.1575-.131-.1312-.18.0656-.385.1968-.578.3018.123-.1618.293-.3368.372-.4812.079-.1487.149-.3237.087-.3937-.214-.2318-.336-.5162-.056-.9799.039-.0656-.105-.07-.149-.1093-.153-.1269-.372-.2319-.411-.4156-.057-.3106 0-.6693.083-1.028.065-.2363-.228-.2888-.495-.3806-.24-.0831.167-.4593.206-.6737.039-.2362-.026-.4374-.022-.6562 0-.0743.136-.1925.07-.2406-.28-.2012-.656-.3806-.997-.5862-.11-.0699-.298-.1399-.166-.2624.319-.2975.24-.4856.24-.7087 0-.2362.153-.4856-.345-.6168-.097-.0263-.009-.1225.153-.1881.896-.3587.503-.4725.017-.6124-.232-.0657-.437-.1619-.376-.2756.223-.3762.818-.7393.184-1.0324-.202-.0963.127-.2581.096-.3806-.057-.2319.249-.4768.402-.6999.167-.2275.149-.4462-.433-.6956-.092-.0393.175-.0918.201-.14.057-.1006.097-.2012.079-.3062-.017-.1093-.144-.2275-.144-.3368-.005-.2319.022-.4506-.044-.6868-.07-.2362-.24-.4856-.595-.7831-.184-.1531-.03-.3237.324-.3368 1.107-.0481.884-.3412.494-.7612-.538-.5686-.748-1.133-.45-1.5004.201-.2406.07-.6693.66-.6999.088 0 .118-.07.07-.1444-.297-.4549-.14-.6999.075-.9055.109-.105.017-.3631.14-.4637.14-.1269.1-.3369.113-.5512.013-.4156.114-.8137.311-1.1286.227-.28.529-.4944.765-.7743.053-.0569.092-.1313.136-.1969.013-.0219.022-.07.018-.07-.022 0-.062-.0087-.084.0088-.214.1793-.45.3324-.691.4987-.153.1093-.31.2143-.459.3368-.136.1269-.276.2537-.424.3762-.031.0263-.132-.0087-.202-.0087-.437-.0088-.476-.0175-.17.433.048.0744.148.2013.127.2144-.25.0962-.333.3325-.477.5206-.145.1881-.324.3456-.818.3237-.158-.0088-.18.175-.083.3237.258.4331.332.6868-.5384.5249-.1269-.0218-.2363.0788-.1663.1575.4157.4506.0132.5075-.5074.5031-.5206-.0131-.5643.1487-.2669.3937.6169.5118.4944.6955-.3718.713-.3893.0088-.3893.1094.0875.3238.4156.1881 1.168.3674 1.168.5643 0 .1618.1006.3893-.2406.4243-1.2949.1269-1.5398.5687-1.4261 1.1111.0525.2362-.1356.4462-.3674.665-.2231.2143-.5119.4374-.6825.6736-.0831.1138.0131.2494.1444.3719.3762.3543.8793.678 1.3298.9886.3325.2275-.2056.3806-1.3079.3937-.3194 0-.63-.0044-.9449-.0131.0262.105-.07.2275.1049.3062.2144.1006.9143.1444.9581.2406.1487.315.1618.6343.1531.9624 0 .1312-.3675.2887-1.0455.315-1.3955.0481-1.1986.1881-.9581.3937.3019.2581.5337.5118 1.3518.6386 1.0499.1532.9755.1575-.1881.595-1.2993.4899-1.2686.503-.6693.8268.2756.1399.5468.2843.5993.468.105.3544.0612.7437.1356 1.1068.0087.0394.2275.0262.3849.0175.0525 0 .28-.0919.3194-.1269.1268-.105.2056-.2056.315-.3106.0787.0657.2143.1181.2362.1969.0262.0962.1181.2275-.1006.3368-1.2643.6256-.2494.6343.0918.8006.2406.1181.5468.2099.5818.3849.0831.4768.0219 1.0062.1575 1.4742.1706.4856.4462.9318.7306 1.3605.1356.2056.3193.4112 1.1241.0744l.035-.0613-.031.0613c-.384.5687.219.608.714.6605.205.0219.507-.0131.349.21-.468.6606.027.8618.267 1.1811.232.2756.552.5031.639.8487.105.3456.814.2756.56.8355-.022.0525.109.1312.206.1312.376 0 .415.2406.507.4812.197.49.297 1.0805.941 1.2424.109.0263.14.1619.188.2625.188.3762.328.7918.52 1.168.166.3193.197.2931.713-.1925.057-.0569.136-.0919.206-.14-.013.0569-.005.1269-.048.175-.298.3368-.372.5905-.197.7699.035.035.035.1312-.009.21-.267.5162-.092.7524.254.7611.385.0044.407.2319.337.5994-.07.363-.136.7392.096.8967.311.2013.569.4594.831.7131.066.0612-.009.2493-.026.3849-.026.2056-.048.4112-.11.6431-.087.3237-.039.4812.552.0875.332-.2231.393-.1794.035.2012-.298.3193-.464.5424-.153.455.822-.2363 1.251-.1182.424 1.0936-.083.122-.048.197-.013.236.096.105.144.258.358.236.517-.061.652.355 2.249-.975.411-.3413 1.037-.7044.875-.3544-.153.3234.752-.0438-.564 1.0634-.193.161-.368.38-.552.573zm-.131-1.6925c-.162.1706-.311.3543-.49.5165-.166.153-.503.411-.521.402-.092-.052-.205-.114-.109-.306.131-.2713.429-.6519.656-.98.004 0 .123-.07.236-.1312-.468.6299-.319.7349.228.4987zm-3.99-4.8557c-.017-.0219.105-.1707.162-.2581.101.0218.228.0218.302.0699.035.0219-.031.1444-.096.3719-.188-.0831-.302-.1094-.368-.1837zm9.13 11.3562c.157-.131.297-.262.472-.398.061-.048.306-.162.302-.149-.066.088-.175.197-.324.355-.196.083-.323.14-.446.192zm-14.13-20.5296c.057.0087.153 0 .162.0262.013.0307-.048.1007-.074.1531-.057-.0175-.114-.035-.153-.0481.03-.0568.048-.0962.065-.1312z"/><path d="m123.373 118.087c-.088-.057-.319-.096-.486-.14-.1.066-.14.14-.306.188-.595.188-1.111.433-1.815.486-1.221.092-1.046.232-1.033.402.014.101-.043.206.105.302.394.254.359.495.088.726-.118.11.039.324.385.429.958.302.932.586.875.866-.035.184.026.398-.849.302-.416-.044-.455.053-.236.21.512.385.446.389-.184.499-.302.052-.779.079.21.376.061.017.171.127.14.14-.455.166-.035.538.07.853.096.258 0 .455-.376.446-.424-.013-.451.184-.354.368.109.197.428.424.638.625.031.031.245.053.263.022.127-.227.337-.398.721-.499.053-.013.027-.1 0-.153-.214-.428-.586-.853.092-1.028-.267-.372.175-.503.455-.717.184-.145.534-.267.306-.538-.087-.101.18-.193.329-.28.214-.127.516-.241.678-.39.105-.096.144-.288-.053-.354-1.072-.363-.923-.577-.341-.84.118-.057-.013-.166-.013-.249 0-.136-.026-.271.039-.398.223-.451.503-.914.761-1.479 0-.004 0-.096-.113-.17zm-1.439 1.129-.158-.022c-.201-.083-.433-.157-.603-.241-.04-.017.144-.065.223-.1.1.017.28.03.288.052.057.092.07.188.097.285l.148.026z"/><path d="m118.955 115.169c.49-.109.985-.227 1.47-.324.298-.056.84-.126.827-.109-.236.359 1.487.188 1.417.543-.043.284.74.446.175.831-.411.28-.17.455.346.608.262.079.525.162.687.262.446.28-.035.608-1.291.783-1.085.153-1.951.315-2.568.53-.083.03-.415.061-.52.052-.136-.013-.271-.07-.214-.096.38-.21.734-.438 1.308-.669.507-.21.66-.368.266-.534-.516-.228-1.671-.311-.914-.731-.796-.083-.822-.262-.048-.608.052-.026-.035-.057-.136-.057-1.001 0-.765-.262-.826-.468l.017-.008z"/><path d="m118.934 115.178c-.244.057-.489.109-.73.166l-1.85.442c.411-.175.691-.372 1.246-.547 1.444-.451 2.437-.879 3.29-1.36.503-.285 1.312-.464 1.758-.394.818.131.315.472-1.417.892-1.08.263-2.235.508-2.279.796l-.018.009z"/><path d="m119.96 125.848c-.105.135-.284.214-.446.254-.162.039-.302.035-.398-.035-.017-.014-.039-.105-.026-.119.035-.039.101-.096.144-.074.363.166.46-.083.556-.289.03-.07-.009-.175.017-.245.018-.048.101-.065.158-.096.03.061.083.127.079.179-.014.18-.057.35-.092.42z"/><path d="m96.2255 75.9127c-.0875-.0656-.2625-.1443-.21-.2056.0481-.0568.3237-.1006.5468-.1268.0569-.0044.4112.07.4287.1093.0263.0525-.1443.105-.2275.1575l-.5337.0656z"/><path d="m117.486 117.264c-.114-.052-.271-.074-.201-.101.153-.048.424-.1.647-.148.088.022.289.039.237.061-.119.052-.372.105-.679.184z"/><path d="m116.807 112.536s.026.022.017.04l-.166.306c-.153.048-.367.122-.451.135-.643.097.022-.201.578-.472h.022z"/><path d="m109.961 101.578.271-.648c.044-.026.11-.074.127-.074.249-.017-.013.315-.376.709z"/><path d="m118.995 126.793c-.009-.044-.018-.075-.026-.105.03-.022.065-.048.1-.048.013 0 .022.07.009.096-.013.022-.052.035-.083.061z"/><path d="m109.983 101.564-.258.63c-.044.031-.131.088-.131.088l.363-.704.022-.014z"/><path d="m117.066 115.979c-.206.065-.398.135-.49.148-.166.022-.346.022-.372 0-.017-.013.214-.083.337-.127.149-.004.297-.013.529-.021z"/><path d="m110.818 101.328-.144.096z"/></g></svg>