<svg fill="none" viewBox="0 0 150 200" xmlns="http://www.w3.org/2000/svg"><g fill="#fff"><path clip-rule="evenodd" d="m92.6432 167.162h-42.0338c-9.7257 0-17.6094-7.885-17.6094-17.609v-56.5642h77.253v11.6282c1.65-.381 3.367-.582 5.13-.582 12.57 0 22.761 10.19 22.761 22.76 0 12.571-10.191 22.761-22.761 22.761-1.762 0-3.48-.202-5.13-.582v.579c0 9.724-7.884 17.609-17.6098 17.609zm22.7398-52.878c-1.832 0-3.567.392-5.13 1.097v22.83c1.562.704 3.296 1.095 5.13 1.095 6.91 0 12.511-5.601 12.511-12.511 0-6.909-5.601-12.511-12.511-12.511z" fill-rule="evenodd"/><path d="m65.3406 46.7762c4.7982 8.7398 10.127 18.4463 4.1167 31.9014 26.6086-16.1434 20.3377-25.2876 12.8885-36.1497-5.789-8.4413-12.2895-17.9201-4.6228-32.5279-24.3265 15.02-18.8342 25.0241-12.3824 36.7762z"/></g></svg>