<svg fill="none" height="194" viewBox="0 0 140 194" width="140" xmlns="http://www.w3.org/2000/svg"><path d="m97.4472 191.097c.0919-.35.2406-.503.1794-1.408-.0744-1.033.0394-.727.1269-.512.2887.708.2843.735.5118-.398.07-.355.1356-.775.2187-1.007.0438-.118.1356.018.1706.228.0394.214.0394.652.0569.993-.0481-.053-.0963-.114-.1488-.149-.1793-.135-.2318.096-.1618 1.019.0437.574.0612.937-.0263 1.365-.0656.311-.1224.735-.0175 1.081.0394.131.1444 0 .1707-.21.1181-1.002.258-.998.4155-.429.1531.551.2887.21.4112-.258.1444-.538.2756-.464.4112.088.0788.315.1532.678.2403.874.079.184.188.377.254.193.109-.302.127-.91.044-1.614-.092-.761.061-.818.105-.731.1.197.184.621.28.949.166.578.332 1.12.529.455.035-.113.096-.21.114-.105.289 1.606.634.425.936.827.411.56.801.276 1.19-.428.083-.149.118-.145.197.004.271.499.573 1.575.813-.398.118-.958.193-1.47.311-.101.013.136.114-.035.171-.157.039-.083.056-1.544.105-.057.026.814.074 1.251.188.604.166-.95.35-.679.415.332.075 1.133.188.844.289.945.105.105.219-.214.319-.035.464.844.919.866 1.383-.14.113-.249.24-.315.345-.674.219-.735.42-.262.604.306.109.337.166.639.28.075.057-.293.153-.245.232-.35v-.022c.319-1.181.63-.332.94.035.136.171.28 1.339.398-.289 0-.022.097.105.118.306.07.617.127.661.237.259.087-.329.205-.394.31-.434.131-.048.201-.498.232-1.224.044-.95-.101-.801-.166-1.103-.057-.249-.179-.24-.118-1.019.035-.472.109-.989.004-1.308-.074-.219-.188-.258-.258-.026-.149.494-.28 1.789-.394-.215-.008-.175-.144-.096-.218-.035-.21.175-.403.6-.622-.201-.223-.831-.459.18-.581 1.816-.049.625.008 1.78-.171 1.846.013-.801.022-1.601.035-2.398.009-.35.066-.678.061-1.006 0-.354-.044-1.001-.07-1.001-.345 0-.708-.784-1.023.8-.136.682-.28.967-.416.542-.101-.31-.162-1.347-.262-1.587-.075-.18-.237.809-.276.577-.166-.914-.284-.105-.402.367-.062.232-.105.818-.123 1.3-.004.153.092.564.149.73.21.6.428 1.085.634 1.75.053.175.088.818.101 1.29.004.184-.057.626-.101.731-.188.464-.626-.337-.717-1.535-.101-1.291-.263-1.492-.407-1.068-.276.805-.481-.927-.735-.652-.022.022-.066-1.001-.096-1.535.065-.149.135-.464.201-.42.17.105.341.398.512.551.061.057.131-.022.192-.144.031-.061.057-.355.07-.582.005-.096-.022-.394-.039-.429-.206-.372-.433-1.242-.617-.914-.297.529-.564.429-.84-.114-.035-.07-.105.118-.131.337-.04.359-.053.853-.083 1.26-.105 1.352-.114 1.33-.285.437-.065-.35-.196-.901-.218-.761-.18 1.037-.337.341-.495-.013-.21-.477-.406-.687-.616.193-.066.266-.184.205-.263.035-.437-.932-.94.599-1.356-1.195-.031-.131-.105.149-.158.154-.376.039-.756.306-1.1238.013-.4156-.333-.8224-.534-1.238.109-.0831.131-.1881.022-.2712-.14-.2625-.507-.5293-.341-.7918.031-.1618.231-.3062.249-.4724.135-.2975-.214-.6037-.428-.9143.07-.4374.713-.8793.643-1.3123.263-.4025-.368-.8137-.731-1.2293-.254-.3718.411-.7437.573-1.1111.853-.2844.21-.525.092-.7831-.083-.0831-.057-.1837-.118-.2624-.053-.1269.105-.1969.04-.2756-.201-.0963-.31-.1531-.192-.2144.193-.0962.586-.1837.656-.4068.546-.1444-.07-.2843-.218-.4243-.192-.5118.096-1.028.232-1.5399.293-.3062.039-.6168.044-.923.031-.2931-.009-.6212-.228-.8749-.062-.3674.25-.7524.04-1.1111.28-.14.097-.2975.132-.455-.157-.0831-.153-.2624-.136-.3805-.061-.2888.179-.5512.188-.805-.377-.0306-.07-.1487-.035-.1574.044-.0307.188-.0219.433-.0307.652-.0656-.188-.1224-.424-.2012-.569-.0787-.144-.1837-.297-.2668-.271-.28.083-.5512.057-.8224-.411-.0394-.07-.1007.061-.1531.079-.1707.065-.3413.24-.5075.197-.28-.075-.5599-.272-.8399-.495-.1837-.144-.3325.11-.4987.324-.1487.192-.3412-.319-.5206-.429-.1968-.122-.398-.127-.5949-.192-.0656-.022-.1356-.188-.1969-.14-.2624.21-.5249.516-.7874.783-.0875.092-.1924.258-.2712.105-.1925-.376-.3849-.346-.5862-.394-.2143-.052-.4199-.267-.6299.21-.0394.092-.1137-.013-.1444-.184-.1837-.94-.3718-.573-.5643-.118-.0962.219-.2056.403-.3018.324-.315-.258-.6212-.884-.9493-.28-.105.192-.2362-.153-.3543-.127-.4462.096-.8924-1.212-1.343.013-.035.092-.0962-.166-.1444-.192-.1006-.048-.2012-.083-.3062-.062-.1093.022-.2143.162-.3237.167-.4462.013-.888.022-1.3211.813-.1094.197-.2887.088-.3718-.253-.2669-1.068-.5425-.779-.8356-.302-.4024.669-.8136 1.072-1.2292.905-.2843-.1-.5906.223-.8574-.31-.0394-.079-.1137-.079-.1575-.005-.2581.447-.5162.468-.783.385-.14-.039-.2931.18-.4287.127-.1706-.057-.3106.101-.4681.232-.3106.254-.6256.42-.9449.472-.3106.044-.6255-.013-.9405.022-.0656.005-.1356.027-.2012.044-.0219.004-.0525.035-.0525.039.0131.018.035.049.0612.053.2362.022.4768.074.7174.122.3106.057.6256.101.9406.18.0349.009.0612.109.0962.162.2187.35.2231.38.3674-.14.0219-.083.0613-.245.0788-.232.1925.122.3893.092.5862.114.1968.021.3937.091.573.525.0569.135.1925.061.2625-.084.21-.42.3937-.595.5687.259.0262.122.1356.183.1662.083.1969-.573.3806-.228.5162.275.1356.495.2537.481.3587.123.2188-.748.4112-.696.6081.122.0919.372.1575.35.2231-.162.0569-.446.0394-1.22.2012-1.268.1313-.035.3062-.188.3937.135.3369 1.212.6781 1.4 1.0893 1.212.3587-.171.7349.599 1.1024.914.0874.075.1881-.026.2755-.166.2581-.407.5075-.901.7656-1.343.1925-.328.3062.214.2931 1.317l-.0263.945c.0788-.022.1663.074.2275-.101.0788-.214.14-.91.2144-.953.2493-.136.503-.11.7524-.07.105.013.1925.393.1575 1.071-.07 1.396.0393 1.212.2056.989.2099-.284.4155-.464.5993-1.256.2362-1.014.2449-.936.4156.285.1924 1.36.1924 1.33.5074.8.14-.236.2887-.468.4331-.481.2756-.026.5468.109.8224.123.0306 0 .0656-.21.0875-.363.0087-.049-.0088-.294-.0263-.342-.0525-.153-.1093-.258-.1662-.385.0656-.061.1312-.179.1968-.175.0788 0 .1969-.048.2275.193.1881 1.391.4025.424.6124.144.14-.192.2888-.472.4288-.437.3718.092.7393.328 1.1155.363.3937.039.7917-.022 1.1898-.105.1881-.04.3894-.096.4462-.971.2625.603.5075.087.7437-.324.0962-.175.2012-.451.2931-.201.2756.743.6168.42.9493.38.2931-.052.5949-.188.8749-.074.2799.101.573-.529.8355.004.0262.048.14-.013.1881-.092.1837-.306.3631-.201.5731-.135.4287.131.8661.415 1.3036-.005.07-.069.1793-.008.2712.018.3456.092.6912.236 1.0367.324.2931.074.2931.035.2581-.674 0-.079.0132-.166.0219-.249.0306.048.0788.083.0875.148.0612.442.1837.665.3893.643.0438-.004.105.062.1313.14.1881.534.433.556.6255.298.2144-.289.3719-.153.5643.14.1925.289.3894.582.6212.512.3019-.101.6081-.123.9099-.153.0744-.009.1531.17.2275.275.1137.158.2318.306.3456.508.1575.28.28.345.3631-.355.0481-.398.1093-.415.1487.105.0306.433.0831.709.2056.416.3193-.77.6343-1.011.9405.407.0307.14.0963.166.1444.166.1181 0 .2493.066.3587-.114.2581-.428.6037-.258.6518-2.331.0131-.534.1312-1.243.2668-.888.1225.328.3938-.6.3675 1.124 0 .249.0394.525.0612.792zm-1.1723-1.019c.0219.236.0525.468.0568.709 0 .223-.0175.647-.0393.656-.0875.035-.1925.078-.2625-.118-.1006-.276-.175-.753-.2581-1.138 0-.004.0263-.14.0481-.262.14.77.2931.726.4506.157zm-5.3326-.206c-.0262 0-.0524-.188-.0787-.288.07-.066.14-.158.21-.184.035-.009.0743.118.1881.315-.1575.087-.2362.157-.3194.157zm12.5107.263c-.017-.202-.043-.394-.052-.613 0-.078.035-.345.039-.332.031.105.057.254.097.468-.035.21-.057.345-.084.481zm-21.3166-1.343c.0263-.053.0525-.14.0832-.14.0306 0 .0612.087.0874.131-.035.044-.0656.087-.0918.122-.035-.048-.0569-.083-.0788-.113z" fill="#000"/><path d="m115.072 186.968c-.048.083-.083.311-.127.481.048.101.101.149.136.315.127.604.319 1.133.35 1.838.052 1.22.197 1.063.354 1.041.096-.013.197.039.28-.114.228-.402.442-.376.674-.114.109.123.297-.07.367-.424.188-.989.416-.997.661-.975.162.013.324-.075.38.791.027.416.123.433.228.184.249-.586.249-.521.481.07.109.284.258.744.284-.289 0-.065.07-.197.088-.17.254.376.472-.136.696-.341.183-.175.363-.145.481.214.127.389.306.332.42.166.122-.179.188-.564.262-.84.013-.039-.048-.245-.074-.249-.215-.022-.411-.136-.595-.442-.026-.039-.083.004-.114.053-.254.336-.503.822-.809.236-.232.38-.438-.027-.656-.254-.149-.144-.298-.464-.468-.179-.066.109-.175-.132-.263-.263-.127-.184-.249-.477-.381-.612-.083-.088-.227-.105-.262.096-.171 1.107-.376.989-.617.442-.052-.118-.127.022-.192.022-.105 0-.21.035-.315-.027-.359-.21-.718-.455-1.138-.761 0 0-.074 0-.135.105zm.875 1.466-.017.157c-.066.206-.132.442-.202.613-.017.039-.057-.14-.083-.223.013-.101.026-.276.044-.289.079-.061.157-.079.236-.11l.018-.148z" fill="#000"/><path d="m112.112 190.969c0-.503-.005-1.01.009-1.504.008-.302.052-.849.065-.832.258.298.403-1.421.661-1.29.218.101.437-.639.669-.035.171.446.341.227.503-.271.083-.254.166-.503.254-.652.24-.398.442.079.516 1.347.066 1.089.157 1.964.328 2.59.022.083.039.42.026.525-.017.135-.078.267-.105.21-.183-.389-.371-.753-.538-1.339-.148-.525-.262-.7-.442-.323-.236.485-.472 1.618-.752.818-.188.778-.367.756-.547-.066-.013-.057-.057.022-.074.122-.171.985-.381.7-.578.722v-.022z" fill="#000"/><path d="m112.116 190.992v.752l.026 1.899c-.092-.433-.223-.748-.262-1.339-.101-1.509-.263-2.581-.477-3.53-.122-.56-.087-1.387.053-1.798.258-.757.411-.188.424 1.597.004 1.107-.026 2.301.227 2.401v.022z" fill="#000"/><path d="m121.709 188.771c.14.017.275.131.372.249.096.118.157.24.148.354 0 .022-.061.088-.078.083-.048-.008-.118-.039-.123-.087-.03-.398-.254-.346-.45-.328-.066 0-.127.078-.193.087-.044.005-.087-.065-.131-.105.035-.052.066-.131.105-.148.14-.062.284-.092.35-.105z" fill="#000"/><path d="m73.5968 192.081c-.0481.084-.1006.267-.1443.219-.0394-.044-.0788-.319-.1007-.538-.0043-.057.0438-.415.07-.433.0394-.026.0832.136.1225.219l.0569.533z" fill="#000"/><path d="m113.9 192.768c-.066.105-.118.259-.131.189-.031-.158-.048-.433-.066-.661.031-.083.079-.284.092-.227.035.126.061.38.105.695z" fill="#000"/><path d="m109.116 192.257s.026-.018.039 0l.223.271c-.009.158-.013.385-.03.468-.136.634-.184-.096-.237-.713v-.022z" fill="#000"/><path d="m97.1184 191.911-.2668-.63c.0087-.048.0131-.131.0218-.144.1313-.197.1925.218.245.748z" fill="#000"/><path d="m122.815 189.111c-.027.031-.044.053-.062.074-.03-.017-.065-.03-.083-.061-.004-.009.04-.052.066-.057.022 0 .048.027.083.04z" fill="#000"/><path d="m97.1235 191.885.2669.608c-.0044.052-.0175.157-.0175.157l-.2538-.739v-.026z" fill="#000"/><path d="m112.504 192.978c.022.214.057.415.052.507-.013.166-.048.341-.078.367-.018.018-.044-.227-.066-.354.026-.149.053-.293.092-.52z" fill="#000"/><path d="m97.4472 191.097-.0175.17z" fill="#000"/><path d="m51.0814 111.419c.9142 5.717 2.091 19.44 1.6798 24.134 0 .564.245 2.262.5993 4.467.07.424.14.866.2187 1.321.0525.323.1094.656.1662.997.0175.096.0307.192.0482.289.9799 5.735 2.336 12.97 2.5634 14.252.8268 4.624 4.2477 8.298 7.3711 12.139 2.6685 3.285 5.8619 6.146 9.7289 8.412 2.8347 1.663 5.8531 3.041 9.1121 3.955 5.2713 1.483 10.6695 2.012 16.2164 1.474 3.6435-.354 7.1435-1.128 10.4815-2.362 5.525-2.039 10.192-5.088 14.046-9.095 1.147-1.19 2.17-2.423 3.08-3.687.289-.403.569-.81.836-1.217.599-.918 1.137-1.854 1.623-2.812.157-.315.31-.635.454-.954 1.593-3.473 2.459-7.174 2.625-11.107.079-1.859-.157-3.727.013-5.582.587-6.338 2.384-7.008 2.38-33.329 0-.543.726-16.3828.691-16.9996-1.78-.0131-3.639-.035-5.547-.0612-24.064-.3719-57.2533-2.1742-79.7427-6.1856-.3544-.0612-.7-.1269-1.0455-.1925-.3106-.0568-.6212-.1137-.9274-.1706-.1838-.035-.3719-.0656-.5512-.1006 0 .7174 3.7927 21.8721 3.8802 22.4191z" fill="#47763b"/><path d="m67.6565 101.279c8.7534.6 16.1901-3.9194 16.6144-10.0918.0044-.0831.0044-.1619.0088-.2406l-8.3072-.5687-7.1392 7.2442-8.4385-8.3159-7.791-.5337c-.0088.0787-.0175.1618-.0262.2406-.4244 6.1724 6.3255 11.6669 15.0789 12.2659z" fill="#fff"/><path d="m75.9741 90.3721-15.5776-1.0674 8.4384 8.3159z" fill="#000"/><path d="m113.043 104.393c8.754.6 16.19-3.919 16.615-10.0915.004-.0832.004-.1619.008-.2406l-8.307-.5687-7.139 7.2438-8.438-8.3156-7.7915-.5337c-.0087.0788-.0175.1619-.0262.2406-.4244 6.1725 6.3257 11.6667 15.0787 12.2657z" fill="#fff"/><g fill="#000"><path d="m121.359 93.4883-15.578-1.0674 8.439 8.3161z"/><path d="m135.921 85.8804c-.201-.3762-.337-.8662-.577-1.1986-.241-.3369-.525-.4594-.936-.1357-.473.3631-.665.2975-.718.0875-.026-.1093-.022-.2581 0-.4287.018-.1662.026-.3499.044-.5293.009-.1487.017-.2843.031-.4156-.009-.1312-.018-.2537-.022-.3674-.027-.2319-.027-.4506-.083-.6256-.114-.3543-.206-.6474-.398-.8399-.193-.1925-.407-.3499-.709-.4549-.158-.0438-.333-.0832-.529-.1138-.197-.0306-.403-.0656-.661-.0481-.315.0088-.608.035-.901.07-.306.0481-.599.0831-.884.0656-.297-.0175-.831-.3456-1.006-.6474-.192-.2975-.079-.7087-.109-1.0761.341.1443.651.3455.98.5074.148.0744.288.14.415.1969.118.0656.228.1181.328.1574.197.0788.355.1094.481.0832.245-.0525.364-.315.32-.8575-.053-.6693-.083-1.0892.827-1.1111.328-.0219.682.0219.861-.0962.18-.1006.188-.3412-.201-.7787-.275-.2843-1.321-.6824-1.588-.5249-.678.2799-1.286.2887-1.85.1925-.285-.0569-.565-.1663-.849-.315-.271-.1444-.52-.3062-.779-.5206-1.001-.818-2.069-.7349-3.101-.5074-.591.1312-1.124.1181-1.619-.0263-.498-.1268-.958-.3849-1.404-.7655-.512-.4331-1.01-.9099-1.614-1.2424-.556-.3062-1.326-.6693-1.855-.5993-.875.1356-1.111.7174-.612 1.5223.533.8793-.582.7175-.888.5819-.7-.3281-1.273-.8662-1.912-1.3124-1.146-.7962-2.323-1.5792-3.898-1.1242-.262.0743-.748.1006-.879-.0263-.975-.9493-2.157-1.2555-3.368-1.3692-1.216-.1006-2.463-.0481-3.592-.3893-1.531-.4856-3.0489-.6606-4.5493-.7087-.7525-.0219-1.5005 0-2.2442.0481-.7436.0569-1.4917.175-2.2353.3018-.6212.1094-.9012.0875-1.5049-.0962-2.0341-.6474-4.3395-1.7586-6.1855.1531-.8924.9362-1.4349 1.4174-2.3404.0613-.0919-.1357-.8618.035-1.2861.1574-.2844.0832-.3981 1.5442-.8005.0569-.2231-.8137-.5994-1.2511-1.4305-.6037-1.2161.9362-2.6072.7262-3.154-.2756-.6125-1.1155-1.4611-.8049-2.2485-.8792-.7962-.0832-1.6624.2624-2.4235.1356-1.7892-.3106-3.5696-.455-5.3194-.2975-1.7542.1662-3.4822.5512-5.1707 1.2249-.8399.3455-1.7804.5205-2.5329.9711-.7699.4593-1.5529.6168-2.3272.6081-.7699.0087-1.5355-.1444-2.2616-.3238-.8706-.2187-1.3649-.4462-2.1086.2275-.3893.3587-1.1111.3937-1.6798.6081l-.0175.0262c-2.161 1.588-4.6282 1.1024-7.0167 1.2424-1.0586.0394-2.4016-.8749-2.9047.888 0 .0131-.1924.0219-.4112.0088l-14.3353-.8268 14.4097 6.8155c.1881.0875.3893.2056.4549.3193.4025.6999.8312.8224 1.7017.5731.7087-.2056 1.5836-.1094 2.3666-.0088.9799.1313 1.5661-.2231 1.9161-.9055.4549-.8837-.6125-.9099-1.0674-1.308-.3762-.3193-1.2861-.4768-.7087-1.168.3456-.4156.9712-.8268.2537-1.2817-.4986-.315-1.3429-.5075-1.8854-.3675-.8442.2144-1.7017.8531-2.301.3631l.0219 1.5617c.28.0875.5862.3325.9362.8137.1137.1575 1.0673-.1181 1.5967-.2887 1.4698-.4725 2.7821-1.1987 4.5363-.6693 1.7936.538 3.3028-.77 3.9327-2.511.2406-.6649-.3849-1.7454.958-2.0035.0525.8005.1488 1.601.1444 2.4016 0 .3543-.3587.7393-.2887 1.0586.0743.35.4987.9405.6868.9143 1.2555-.1794 2.5722-.175 3.8321-.3544 1.2642-.1487 2.4716-.4855 3.5302-1.4086.4549-.3937.9361-.6955 1.4392-.8574.5031-.1531 1.028-.1618 1.5573.0044.7874.245 1.3255 1.238 2.0954 1.413.5687.1312 1.6492-.958 1.9817-.7481 1.2992.8399 2.091-.0131 2.944-.538.42-.2581.7131-.8618.8093-1.3517.0306-.1575-.7218-.525-1.1636-.665-.8093-.2537-1.6317-.4768-2.4541-.7086-.8224-.2319-1.6405-.4331-2.4497-.7043-.42-.1357-.7349-.7568-.8968-1.2205-.0656-.1794.3674-.6606.678-.7918 1.3911-.6168 4.7814 0 5.5775 1.1592.8662 1.2468 2.0867 1.3561 3.141.9187 1.0148-.4331 1.9291-.2275 2.8259.0437s1.7673.5993 2.7166.4725c.1574-.0219.503 1.0017.7568 1.5354-.4944.1488-1.0018.4637-1.4786.42-1.2818-.0875-2.546-.3281-3.8321-.4506-.4681-.0437-.9755.0481-1.4217.1837-.2144.0656-.3937.3631-.4812.595-.035.0962.1837.3893.3237.4155 1.5442.3281 3.2415 1.1505 4.5801.7831 2.1698-.5556 4.1339-.4462 6.1768.105.2669.0787.7699-.0963.9493-.3062.2931-.35.3762-.84.6081-1.2424.783-1.3299.8574-1.3036 2.1172-.3762.4943.3674 1.4349.9405 1.6142.8093 1.3386-.9581 2.5066-.1925 3.6527.2274 1.5399.5512 2.9572.9056 4.5714.1619.49-.2231 1.3605-.0875 1.9291.1356 1.575.6299 3.307.6999 5.018.853 1.706.1575 3.377.525 4.768 1.623.205.1662.774-.035 1.163.0175 2.721.4549 5.552.6605 8.133 1.5529.735.2406 1.461.4769 2.191.6868.727.2188 1.448.4506 2.179.6343.73.1881 1.465.3456 2.213.4637.372.0613.762.1094 1.129.1488.332.0437.678.0743 1.028.0962.538.0525 1.133.385 1.444.7437.065.0656.131.1312.201.1925.048.0656.1.1312.149.1924.052.0613.1.1181.157.1706l.079.0788c.022.0262.035.0525.052.0787.066.105.158.1838.223.2669.048.0875.11.1618.184.2274.044.0875.101.1619.175.2319.053.0962.114.2012.193.2975.07.1137.126.2624.201.3937.083.1268.127.3237.201.4855.337.8924.332 1.9248.175 3.1103-.149 1.0805-.315 2.231-.363 3.4034-.048 1.1374-.009 2.266.201 3.4121.595 3.2634.35 6.5444-.254 9.7334-.577 2.975-1.203 5.958-1.041 9.06.123 2.764-.035 5.533-.113 8.276-.07 2.104-.442 3.885-.902 5.731-.157.612-.328 1.325-.354 1.933-.039.941-.201 1.461-.529 1.978-.425.66-.376 1.093-.079 1.605.455.783.42 1.43.009 3.067-.267 1.032-.604 2.047-.783 3.084-.635 3.762-1.313 7.515-2.135 11.242-.49 2.235-1.05 4.462-1.64 6.676-.569 2.117-1.444 4.365-1.89 6.198-.613 2.669-1.868 5.193-2.866 7.625-.192.477-.415.976-.721 1.448-.298.477-.639.949-1.09 1.343-.236.206-.507.599-.818.997-.31.399-.608.845-.84 1.208-1.154 1.736-2.594 3.093-4.361 3.718-.219.079-.84.595-.879.691-.07.272.109.442.188.656-.499.114-.976.114-1.522.259-.272.083-.595.153-.91.253-.311.105-.622.21-.884.333-1.75.879-3.653 1.356-5.569 1.19-.275-.022-.678.148-1.032.214-1.1594.188-2.358.402-3.5523.328-1.9816-.136-3.9414-.595-5.8094-1.247-1.2204-.428-2.2878-.45-3.4864-.625-1.0805-.149-2.2135-1.111-3.2984-1.719-1.2293-.674-2.4891-1.308-3.6746-2.056-.3981-.245-.7262-.643-1.1243-.827-.8443-.394-1.6842-.788-2.5153-1.229-.8356-.455-1.6711-.915-2.511-1.374-.5643-.324-1.2249-.696-1.5661-1.181-.2056-.302-.4287-.582-.6649-.844-.2362-.263-.4768-.517-.7087-.783-.4724-.521-.9799-1.015-1.4829-1.532-.5556-.542-.9974-1.163-1.5136-1.71-.5031-.56-1.0805-1.032-1.7367-1.461-.2493-.158-.5074-.63-.5337-.928-.07-.826-.3893-1.417-.8268-1.924-.4287-.521-.9974-.941-1.601-1.374-.2931-.205-.595-.446-.8706-.713-.2624-.276-.4943-.573-.6561-.888-.525-1.032-.9931-2.069-1.4655-3.115-.4856-1.036-1.0936-2.003-1.9029-2.922-.5293-.586-.6999-1.575-1.1024-2.336-.3806-.722-.6781-1.483-.9493-2.248-.2843-.761-.468-1.571-.7261-2.341-.525-1.539-1.0499-3.062-2.2267-4.379-.175-.205-.07-.713-.1618-1.063-.1881-.713-.3981-1.421-.6606-2.112-.2625-.735-.608-1.444-.8399-2.188l-.3587-1.159-.3237-1.168c-.2187-.779-.455-1.549-.6999-2.318-.4419-1.549-1.0281-3.054-1.6886-4.554-.3412-.748-.4943-2.083-.245-2.761.3762-1.067.3937-2.078.2537-3.084-.1312-1.01-.4549-2.012-.8267-3.04-.9799-2.839-1.6842-5.862-1.6711-8.95-.0219-2.117-.4331-4.362.0569-6.383.07-.306.0612-.835-.0219-1.155-.4725-1.885-.5162-3.81-.4112-5.8176.0394-1.028-.1619-2.1742-.0875-3.1934.0787-1.2686-.0612-2.3141-.1531-3.4996-.1969-2.3098-.2756-4.6851-.2275-7.0518.0481-2.3316.2187-4.6807.2887-7.0254.0175-.4943.0219-1.0062.0263-1.5005 0-.1487-.0175-.4068-.0219-.3806-.0219.0919-.0612.2581-.0744.4419-.1049 1.7716-.2449 3.5477-.3718 5.3369-.1531 2.3316-.3062 4.6763-.4593 7.0167-.0175.2493-.1269.4681-.1881.7174-.4025 1.6186-.4287 1.6492.0568 2.756.0788.1793.2319.4637.2188.5993-.1575 1.4217-.1531 2.9178-.1925 4.392-.0262 1.4742-.1225 2.9309-.5337 4.2867-.1312.42-.0481 1.435.1006 1.969.4462 1.57.6518 2.918-.1618 4.269-.1181.197-.14 1.02-.0307 1.265.6212 1.426.3544 2.817-.0743 3.889-.4375 1.063-.3631 1.959.07 2.712.4374.778.678 1.526.7174 2.283.0569.753-.0788 1.509-.4068 2.306-.2975.73-.2319 1.238.3499 1.658.4987.367 1.2511.126 1.4524 1.325.0831.49.2012 1.046.2756 1.57.0874.521.1224 1.011.0175 1.37-.1969.673-.3325 1.343-.4156 2.012-.07.669-.07 1.343-.0307 2.03.0482.682.1182 1.378.2669 2.086.1487.709.3368 1.431.5512 2.183.1793.656.3368 1.326.4637 2.008.1268.683.2143 1.383.2931 2.091.1881 1.404.3324 2.848.6124 4.243.1487.665.49 1.348.8399 1.934.4943.862 1.0586 1.68 1.623 2.494.5599.813 1.1111 1.622 1.7148 2.41.8705 1.177.7305 2.222-.3106 2.59-.3019.105-.6256.144-.9362.214.245.542.4769 1.185.8443 1.562.4637.463 1.2818.546 1.5661 1.041.2318.415.4768.831.7218 1.242.2406.416.4768.836.7087 1.256l.6868 1.268.7261 1.251c.3937.687.4287 1.475-.2756 1.615-.7305.14-.9405.371-.8661.695.0743.324.4374.739.9011 1.212.5731.604 1.1243 1.212 1.7061 1.763.5774.551 1.2555 1.002 1.986 1.338.9493.425 1.4086.652 1.6186 1.011.2275.345.1968.818.1619 1.728-.0569 2.038-.07 2.086 2.021 3.539.4637.328.9317.66 1.3823 1.015.4593.345.9231.691 1.3299 1.08.7874.739 1.5311 1.523 2.3491 2.236l1.2074 1.089.608.542c.2056.175.4243.337.6387.503.1837.14.5337.14.7699.123.0744-.005.1094-.285.035-.403-.2362-.376-.5424-.721-.8049-1.098.4375.272.923.477 1.3211.788.4856.372 1.2467.875 1.308 1.225.0875.516.3018.896.5774 1.207.2712.311.6168.534.9887.713.3718.184.7786.315 1.1898.433.4112.127.8224.236 1.2205.376 1.063.39 2.2092.661 3.1759 1.164 2.5985 1.33 5.2757 2.542 8.1541 3.276 3.0491.766 6.2687 1.072 9.4752.849 1.5138-.096 3.1668-.389 3.4388-1.338l-.25-.018.254.013c1.076.136 2.078-.105 2.988-.472.905-.394 1.728-.919 2.484-1.492.307-.236.617-.481.928-.717.31-.228.647-.39 1.015-.469 1.142-.183 2.213-.822 3.224-1.592.516-.376.967-.848 1.448-1.286.463-.455.883-.958 1.334-1.422 1.518-1.723 2.752-3.735 3.906-5.529.311-.451.534-.949.757-1.448.228-.494.416-1.006.604-1.509.402-.998.774-1.973 1.4-2.809.113-.157.372-1.001.424-1.351.184-1.409.731-2.664 1.242-4.139 1.077-3.066 2.157-6.19 2.525-9.457.065-.534.31-1.317.489-1.973.687-2.498 1.387-4.987 2.004-7.516.521-2.148.477-2.156-.271-2.016-.083.017-.145-.127-.215-.193.092-.21.197-.56.272-.612.52-.372.927-1.23 1.185-2.769.053-.315.201-.748.319-.945.779-1.295 1.125-3.102 1.103-4.563-.018-1.618.293-2.778.809-4.169.499-1.404 1.011-2.83 1.173-4.558.205-2.253.463-4.541.686-6.824.053-.551.293-1.129.46-1.689.249-.848.485-1.715.765-2.541.394-1.155.543-2.091-.105-2.756-.367-.377-.341-.845.201-1.103.451-.214.762-.582.538-1.505-.586-2.441-.673-4.798.867-7.0644.153-.2231.205-.7262.223-1.0937.039-.9055.148-1.881.004-2.7034-.35-1.9423-.118-4.5889-2.174-4.9213-.534-.0919-1.212-.9843-.814-1.9904.18-.455.07-1.1943.105-1.7936.048-.5949.228-1.0674 1.094-.9886.249.0262.525-.3281.787-.5162zm-1.273 8.8496c.241-.1443.481-.3849.722-.4112.228-.0262.643.1531.647.2887.009.6518.027 1.4349-.192 1.9598-.306.7393-.809 1.2861-1.225 1.8986-.004.0087-.131-.1925-.245-.3631.818-1.0149.823-2.1785.298-3.3728zm-4.374 39.703c-.031.184-.258.359-.39.538.031-.525.022-1.045.092-1.583.035-.254.21-.547.547-1.339-.105 1.181-.14 1.78-.249 2.38zm-36.685-62.1049c.1357.21.3106.4112.3806.6343.0263.0788-.2799.3281-.3062.315-.2143-.1181-.4024-.28-.6999-.5075.28-.1968.4549-.3193.6299-.4418zm4.0902 112.9549c.2012-.049.3981-.149.5993-.154.2188-.008.4419.07.6693.105-.2493.053-.4987.105-.6868.149-.2493-.039-.4156-.065-.5774-.1z"/><path d="m75.0282 80.0714c-.3543.0481-.6518.2537-.9755.3893.3369.1356.7437.2187.9931.4112.8967.6868 2.3009 1.3167 2.4978 2.0429.3325 1.2511 1.3955 1.1811 2.5766 1.2467.7043.0438 1.4611.14 2.1129.0263 1.7235-.3019 3.3159-.1619 5.0394.1837.8137.1575 2.2441.0263 2.7516-.3018.713-.4637 1.4917-.6781 2.3229-.7656.8311-.0962 1.7148-.0743 2.6334-.035 1.2074.0482 2.4323-.0087 2.8347.8706.1925.4243.923.4462 1.7148.2099 1.8811-.5686 1.8681-.503 3.6181.105.835.3019 1.942.7393 2.108-.2887.009-.0656.516-.2012.648-.175.953.1881 1.837.14 2.69.0263.853-.1094 1.675-.2975 2.515-.4287 1.369-.2056 2.712-.2056 3.6.1312.972.3806 2.315.245 3.163.0525.906-.2187 1.361-.6212 1.921-.923.083-.0438-.377-.2319-.569-.2275-1.588.035-3.067 0-4.471-.28-.188-.035-.603.0175-.844.07-.932.1969-1.859.42-2.843.5337-.985.1181-2.026.1138-3.172-.1837-1.71.3849-3.263.0131-4.886-.2362-1.116-.1575-2.218-.4856-3.5-.2144-.4811.1006-1.3167-.14-1.9641-.2931-.9493-.21-1.8461-.5249-2.8128-.6912-.6212-.1049-1.6973-.1531-1.9379.0438-1.2949 1.063-2.826.8705-4.5889.2406-.3762-.1356-.958-.0219-1.4436-.0438-.7787-.0437-1.5661-.0612-2.336-.1706-1.3298-.1924-2.6553-.3674-4.0377-.6036-1.3779-.2406-2.8128-.49-4.3614-.7612-.0306 0-.5424-.0394-1.0061.0219zm6.3868 1.9685-.1356.1487c-.503.175-.993.3675-1.5267.4987-.1268.0306-.4024-.175-.608-.2712.1181-.0919.2187-.2581.3499-.2625.5862-.0175 1.1812.0175 1.7717.0263z"/><path d="m52.6641 81.3918c.0787-.4943.1006-1.0061.2537-1.4829.0962-.2931.4943-.7831.5862-.7568 1.8635.573 3.1409-.9712 5.035-.5643 1.5967.3062 3.3028-.2144 4.9301.6036 1.2161.6037 2.5022.5162 3.7402.1619.63-.1837 1.2774-.3631 1.9467-.4374 1.8154-.2057 3.2546.3937 3.7183 1.7191.3981 1.133 1.0237 2.0736 2.2617 2.8172.1706.1006.2712.4419.1662.5381-.14.1269-.5949.2143-.7874.14-1.3386-.5206-2.7297-1.0149-3.9065-1.7148-1.0542-.6212-1.8854-.8968-3.259-.6737-1.8023.28-3.6702 1.2292-5.665.1487-1.4829.5906-2.8347.4025-4.0552-.5993-.0874-.07-.4199-.0394-.5599.0394-1.3955.7874-2.9047.28-4.3833.0831z"/><path d="m52.6865 81.4138c-.035.2494-.0875.4944-.1006.7437-.0263.6387-.035 1.2774-.0525 1.9117-.6168-.5206-1.5574-1.0018-1.7717-1.6317-.5512-1.623-1.5923-2.8785-3.0097-4.0727-.8355-.7043-.4287-1.4742.665-1.7148 2.0035-.4375 3.0446.315 2.874 2.091-.105 1.1024-.5249 2.2529 1.3692 2.651l.0219.0218z"/><path d="m124.385 82.5816c1.046-.0437 2.052.0219 2.778.0831.73.0656 1.185.1531 1.15.2712-.008.0219-.446.1181-.568.1269-.346.0131-.88.0262-.91-.0219-.276-.3806-1.934-.2362-3.382-.1356-.481.0306-.945.1356-1.426.1706-.328.0219-.669-.0219-1.002-.0481.254-.0612.477-.1575.766-.1881 1.041-.1225 2.104-.2144 2.594-.2581z"/><path d="m49.177 147.39c-.2144-.319-.5293-.634-.6081-.971-.07-.306.0744-.678.2275-.936.035-.065.49.162.5906.35.1312.267.0962.634.1356.958l-.3412.599z"/><path d="m65.8118 84.9619c-.5118.0481-.8968.1619-.993.0788-.2231-.1838-.3062-.4681-.4418-.7131.2493-.0569.6036-.2187.7217-.1443.2625.1574.4069.4286.7131.783z"/><path d="m50.8272 72.2972c-.0962.0175-.1969.0525-.2931.0525-.5774.0087-1.1505.0175-1.7236.0262.0394-.1706.0175-.3981.1313-.4987.9055-.7961 1.3955-.1443 1.9073.3937l-.0175.0263z"/><path d="m136.696 88.4828-.717 1.9685c-.048-.0569-.127-.105-.136-.175-.157-.9667.28-1.4436.827-1.8242l.026.035z"/><path d="m132.654 82.3462c-.188.0437-.324.0787-.464.1093-.219 0-.494.0044-.625-.0131-.044-.0044.284-.0744.476-.0919.167-.0131.377 0 .613-.0087z"/><path d="m136.67 88.4482c.118-.3281.223-.6912.337-1.0412.113-.3456.214-.7261.315-1.1111.052.0437.153.1312.157.1312l-.184.5512-.196.5118c-.132.3369-.263.6781-.403.9931z"/><path d="m55.3208 83.8164c.1443.2362.3849.4768.3193.5599-.1137.1488-.4156.2844-.6387.2756-.1487-.0043-.2887-.2712-.433-.4199.2099-.1181.4243-.2362.748-.4156z"/><path d="m135.922 85.8809.17.1487z"/><path d="m16.1204 147.626c.42-.153.8793-.048 1.1943-.914.3674-.989.4768-.556.573-.245.3325 1.036.3281 1.08 1.448.402.3456-.21.713-.49 1.0192-.582.1619-.048.3106.197.3063.433-.0044.245-.2056.635-.3194.963-.0962-.114-.1881-.236-.2931-.337-.3806-.372-.6212-.232-.8924.669-.1662.565-.2931.91-.7261 1.16-.315.179-.6781.463-.5687.914.0393.17.3893.219.5555.07.7831-.7 1.1418-.503 1.3168.21.1662.7.6868.582 1.2248.328.6256-.306.9406-.083 1.0893.59.0831.385.1531.814.3149 1.107.1532.258.385.564.6431.473.4243-.153.6912-.7.7262-1.448.0393-.805.4637-.692.5512-.565.1968.293.2756.792.4243 1.19.2581.713.5643 1.396 1.3386.971.1312-.07.3368-.1.3587.013.1575.889.5906 1.147 1.0674 1.252.4768.113 1.0061.043 1.3955.367.2624.219.5424.389.8267.512.2888.114.5819.179.8837.205.6037.057 1.2336-.043 1.8767-.28.2668-.096.3762-.069.5861.127.35.333.7087.801 1.1156.95.4024.153.853.004 1.3517-.915.4855-.892.7568-1.378.923.027.0175.14.3412.008.5206-.092.1225-.066.3456-1.509.3193-.013-.0175.818.0875 1.277.4856.669.5862-.892 1.0805-.564 1.1811.459.1094 1.151.4637.893.748 1.024.2844.131.6431-.153.9012.052 1.2249.963 2.3579 1.112 3.6483.302.3194-.197.6431-.21.9668-.507.6824-.621 1.0936-.022 1.3474.634.1574.394.1793.722.5905.258.2187-.236.4068-.114.6125-.153l.0131-.022c.5337-.429.9099-.363 1.1811-.105s.4331.687.6081 1.024c.0874.144.0218.507.0699.678.0482.17.2188.136.8006-.438.0131-.013.1006.215.0131.399-.2668.568-.2275.664.1969.503.3587-.136.5643-.005.748.113.2144.153.6343-.03 1.2467-.446.7918-.534.4506-.704.5512-1.045.0831-.276-.1706-.512.5031-.945.4068-.258.9536-.446.9405-.91-.0087-.324-.2625-.63-.5905-.595-.3456.031-.7875.223-1.0281.214-.2406-.017-.2668-.262.175-1.19.0788-.161-.3324-.35-.5643-.433-.3325-.113-.6824-.148-.9711-.288-.3019-.127-.5293-.377-.6825-.884-.1531-.538-.5424-.661-.9798-.451-.4419.193-.9231.74-1.3518 1.448-.3237.552-.5512 1.689-1.0149 1.606.2669-.757.5206-1.523.8093-2.262.1269-.328.3937-.59.49-.901.105-.341.1706-.997.0875-1.024-.5337-.17-1.0412-.516-1.5836-.643-.5425-.131-1.1199-.043-1.7279.652-.525.595-.9668.814-1.3124.337-.2537-.35-.2931-1.4-.5731-1.68-.2056-.205-.7918.718-.888.477-.3937-.962-.818-.193-1.2074.245-.1924.214-.3718.787-.468 1.26-.0307.153.2099.586.3587.77.538.656 1.1024 1.207 1.5836 1.938.1268.188.1312.844.1137 1.316-.0088.188-.2275.6-.35.687-.5337.398-1.6229-.52-1.7848-1.741-.1662-1.312-.6124-1.557-1.0542-1.177-.8574.726-1.2818-1.054-2.0298-.861-.0612.017-.0744-1.015-.105-1.558.2012-.127.4287-.415.5993-.358.4681.157.9143.494 1.3867.695.1706.074.3719.018.56-.092.0875-.052.1881-.337.2493-.56.0263-.092-.0262-.398-.0743-.437-.5556-.425-1.1024-1.352-1.6361-1.081-.8662.446-1.5705.241-2.2398-.393-.0875-.084-.2974.083-.3937.284-.1575.337-.2581.822-.4068 1.207-.4856 1.286-.5206 1.26-.8487.302-.1268-.376-.3849-.98-.4724-.849-.6649.928-.9799.149-1.3299-.284-.4768-.577-.9317-.918-1.6973-.192-.2318.214-.538.083-.7086-.14-.4594-.626-1.1199-.63-1.7411-.779-.6124-.157-1.2074-.411-1.4436-1.444-.035-.153-.3106.049-.4462 0-.9668-.293-2.021-.441-2.8172-1.098-.4418-.385-.888-.726-1.3736-.975-.4812-.258-1.0192-.398-1.6623-.372-.2581.004-.455-.227-.5687-.477-.3718-.774-1.0411-.997-1.8329-1.05-.4987-.022-.8224-.231-1.1243-.573-.5555-.612-1.0498-1.277-2.0166-1.369-.6824-.074-1.2336-.341-1.7105-.7-.4637-.372-.8224-.862-1.1242-1.391-.2668-.507-.5031-1.028-.8312-1.461-.3193-.442-.6868-.831-1.2336-1.085-.4855-.227-.888-.542-1.30358-.849-.41995-.306-.79616-.647-1.19862-.975-.62993-.494-.88365-1.137-1.11113-1.811-.07436-.223-.16623-.481-.32808-.639-.2581-.245-.29747-.45-.18811-.748.13999-.376-.03499-.45-.45495-.411-.64305.057-.80491-.131-.98864-.735-.10936-.385-.16186-.792-.32809-1.137-.31934-.626-.67367-1.238-.94927-1.89l-.43745-.967-.36308-.993-.20998-.604c-.06562-.201-.10936-.411-.16623-.616-.10499-.412-.20561-.823-.2931-1.238-.12686-.805-.10061-1.711-.32371-2.389-.38933-.98-.2231-2.047-.49432-3.031-.09187-.385-.12249-.832.17061-1.256.13998-.227.17935-.713.12686-1.041-.0525-.403-.08749-.792.01312-1.146.10061-.359.28872-.691.61681-.984.08311-.075.09186-.385.02187-.434-.17498-.113-.41558-.135-.62993-.196.2231-.145.49432-.25.67805-.425.1881-.179.39808-.42.41995-.638.03062-.381.12686-.74.28872-1.077.15748-.336.38058-.647.69992-.914.09624-.074.03937-.267.06562-.402.09624-.442.09624-.928.30184-1.334.19248-.324.41121-.639.64743-.941.11811-.149.23623-.297.36309-.442.13123-.14.27122-.275.40683-.411.36746-.346.30621-.818.35433-1.308.04812-.437.76117-.599 1.10238-.923.38496-.359.71305-.761 1.06738-1.137.11812-.127.34996-.167.41996-.315.13998-.324.26247-.661.38058-1.011.06124-.175.11374-.354.18373-.529l.21435-.508c.10062-.231.17498-.542.43304-.581.6125-.114.9931-.4248 1.4086-.7441.4462-.3456 1.0105-.4637 1.1593-1.1811.0306-.1356.2406-.1663.4112-.0788.9318.49 1.1067-.0262 1.2948-.6955.0482-.1575.105-.3194.1925-.4418.0875-.1182.1969-.2057.3281-.2275.4287-.0788.8837-.07 1.2861-.1531.4156-.0525.7831-.2013 1.0587-.6475.0874-.1399.2449-.1662.4112-.1706.1706.0088.3455.035.4855-.0262.5293-.2187 1.1549-.1356 1.7323-.07.5775.0437 1.0805-.0831 1.5661-.7349.0744-.105.2625.1356.385.1443.2581.0263.5074 0 .7611-.0218.2669-.0307.5294-.175.8006-.1925.2799-.0088.5599-.0438.8443-.0394.2799 0 .5643-.0087.8486-.0481.5687-.0962 1.1461-.2056 1.7717-.5162.315-.1575.783.0175.9318.4156.2406.6037.5249.8661.8661.9405.3456.0656.7262.0263 1.1636-.1006.2975-.0788.595-.1444.8968-.1881.2931-.0263.5818-.0219.8705.0044.2844.0262.5644.0831.8356.1662.2668.0831.5074.2318.7436.3937.315.2318.7087.3368 1.0456.5381.3324.2056.6343.4637.8005.8705.0481.1225.21.2231.35.2187.398.0175.7436.1356 1.0542.3062s.5993.3894.8312.6737c.2493.28.7043.3981.9449.6868.2931.3587.6474.5425 1.0411.7741.1881.114.3806.232.5643.363.1706.14.3369.285.4987.438.3193.31.6562.617.9055.988.2494.363.4681.748.6912 1.129.2275.381.3762.801.5906 1.19.0831.166.1837.332.2799.494.0307.048.0963.127.0963.114 0-.039.0044-.109-.0219-.175-.1312-.311-.2581-.626-.3806-.945s-.2318-.643-.4024-.945l-.6212-1.198c-.2319-.385-.49-.757-.7262-1.147-.0525-.083-.0219-.214-.0394-.323-.1137-.7265-.1399-.744-.8049-.7177-.1093.0044-.3018.035-.3281-.0131-.1399-.2406-.3105-.4681-.4987-.6781-.2056-.1925-.4155-.3893-.6211-.5818-.2013-.1969-.3937-.4068-.5556-.6474-.1619-.2363-.3106-.49-.3893-.8224-.0482-.2056-.4156-.3894-.6693-.3937-.3631-.0219-.6868-.0482-.9099-.1969-.2231-.1531-.35-.4287-.35-.9361 0-.1488-.2493-.3675-.3806-.3369-.783.2231-1.0892-.3062-1.2423-.9493-.1488-.643-.5031-.7742-.9362-.5555-.9011.4549-1.3517.1662-1.6798-.7699-.1444-.4375-.3587-.4812-.6955-.0482-.2931.3763-.4594 1.1374-.9143 1.0412-.3762-.0744-.8837-.0131-1.0674-.3893-.1706-.35-.3675-.6387-.5818-.875-.2144-.2406-.455-.3893-.7087-.5205-.2537-.1225-.5249-.2056-.8136-.2537-.1444-.0263-.2888-.0394-.4375-.0525-.1487 0-.3062.0087-.4637.0262-.5468.0569-1.0893-.1312-1.6579-.35-.5687-.1924-1.1593-.4462-1.7542-.5774-.2844-.0612-.5906.0919-.8487.2625-.3762.2537-.7349.5249-1.0805.8005-.3412.2975-.6649.6212-.9843.9143-.4636.4418-.9448-.0088-1.2029-1.0761-.0744-.3106-.1182-.6212-.1706-.9318-.2363.0875-.5337.0875-.6868.315-.1882.2843-.14 1.0017-.3456 1.1111-.7043.3412-1.413.6605-2.1479.9186-.3019.105-.7131-.1006-.9143-.7568-.3981-1.3604-.6605-1.0236-1.0499-.5686-.4856.5686-1.0105 1.0455-1.0805 2.0429-.0962 1.2554-.1225 1.1811-1.2861.4768-1.28173-.7437-1.29485-.7-1.79792.3412-.23622.4549-.4287.958-.77429 1.2642-.31934.3062-.6868.56-1.01926.8487-.33247.2887-.6693.5774-.98864.888-.06562.0656.00875.2931.06999.4506.02187.0481.23622.175.31059.1706.22747-.0131.43308-.07.64743-.1094-.10062.1881-.15748.4156-.30184.5556-.18373.1662-.36746.4812-.61681.3981-.71742-.2406-1.00614-.0569-1.14175.2581-.13561.3149-.11374.7568-.1881 1.1109-.10937.473-.15749.993-.43746 1.317-.71742.888-1.54858 1.719-2.11726 2.73-.15311.266-.31059.529-.4462.805-.12686.28-.24935.559-.36746.844l-.34559.857c-.104988.289-.188104.586-.279969.879-.166231.556-.354335 1.164.441829 1.602l.08311-.07-.07874.074c-.406828.28-.533689.647-.538063 1.032 0 .193.026247.39.065617.587.04812.196.118112.398.179356.594.10499.324.31059.67.004374.88-.227475.162-.398081.35-.507444.56-.104988.21-.166232.441-.205602.678-.039371.236-.056869.485-.069992.73-.017499.245-.021873.495-.021873.744v1.317c-.0131236.437.013123.866-.0568688 1.277-.1312355.844.5686868 1.658.0699918 2.467-.0481192.079.039371.411.135611.538.367459.503.319339 1.037.332463 1.649.04812.63.052494 1.278.139984 1.917.122487.629.293096 1.255.664926 1.815.12686.179.15748.503.21435.765.18811 1.002.41996 1.991.7043 2.98.27559.826.31059.809.91865.428.06999-.043.16623-.03.24935-.048-.00875.101.01312.241-.035.289-.33246.341-.40683.774-.10499 1.308.06124.109.08312.297.04812.411-.11374.367-.09624.722.01312 1.028.11812.306.33247.556.58619.744.55994.407.6693.879.73929 1.513.03062.324.07.648.15311.963.07874.319.21435.616.45058.879.30184.341.59493.691.87927 1.054l.90116 1.046c.14435.166.1531.472.2231.713.11373.363.23622.73.31934 1.124.11373.547.32371.892 1.01051.577.38496-.175.52932-.056.2406.394-.2406.376-.31934.683.14436.739.61243.079 1.13295.219 1.46985.552.3412.332.4768.879.3893 1.723-.0175.166.1225.32.2406.416.2887.236.5556.542.9274.617.888.148 1.6536.927 2.9572-.687.3368-.407 1.0192-.801 1.1374-.293.1093.472 1.2554.131.2624 1.535-.1443.206-.1881.508-.2756.766zm-2.2441-2.839c-.0963.223-.1575.464-.2975.665-.1268.188-.4374.481-.4856.455-.2318-.127-.5074-.289-.5468-.582-.0568-.407.0657-.919.1269-1.374 0-.004.1444-.061.2756-.113-.1706.848.2056 1.133.9274.949zm-9.84705-11.947c-.03062-.066.10061-.227.15311-.341.14436.153.31934.284.4462.45.05687.079.00437.25-.00875.626-.30184-.354-.48557-.525-.59056-.735zm28.75805 20.49c-.0131-.21-.0437-.411-.0306-.63.0044-.078.1706-.319.175-.301.0612.118.105.28.1793.511-.1443.188-.2362.307-.3237.425zm-29.63733-45.066c.0175.092.07437.193.04812.267-.03062.079-.13998.127-.21435.188-.00875-.105-.01312-.21-.02187-.289.07874-.07.13123-.118.18373-.162z"/><path d="m56.0434 169.35c.0306-.184-.0832-.42-.14-.626-.175.066-.3194.188-.5206.18-.3587-.009-.7349.008-1.098-.035-.3587-.04-.6912-.127-.9799-.333-.9886-.704-1.1155-.398-1.3736-.1-.1662.157-.3893.271-.4593.529-.1006.332-.2844.564-.5075.739-.2362.153-.5205.245-.8355.271-.3062.009-.6299.412-.6562.788-.0525 1.102-.7043 1.36-1.3823 1.505-.4462.109-.9012.271-1.1943-.56-.1399-.394-.3849-.368-.6343-.096-.5993.664-.643.581-1.2904.039-.315-.28-.6869-.731-.7568.297 0 .066-.1925.193-.2406.162-.6868-.393-1.3036.083-1.9642.206-.5381.122-1.0411 0-1.308-.398-.2887-.451-.783-.473-1.133-.381-.3718.11-.6255.451-.9011.669-.0394.031.0831.272.1575.289.5949.149 1.1286.372 1.6229.766.0656.057.2362.035.3368 0 .7918-.228 1.5311-.626 2.3798.017.6911-.341 1.2686.07 1.9379.271.4506.119.9361.416 1.4261.062.1793-.127.5512.065.8399.14.4199.122.8661.315 1.3298.341.3019.031.7656-.127.8006-.346.0918-.608.2668-.94.5424-1.102.14-.079.3019-.114.49-.118.1837-.013.3937.004.6255.044.2012.026.3587-.197.5337-.311.28-.179.5599-.359.8618-.507 1.063-.469 2.1348-1.033 3.294-1.973.0087-.009.1575-.202.1969-.438zm-2.9878 1.024-.0613-.154c.0175-.284.0088-.568.0306-.835.0044-.061.21 0 .3237 0 .0394.101.1357.254.1094.297-.1181.21-.2887.372-.4506.543l.0525.149z"/><path d="m53.5014 161.073c.4506-.223.8968-.463 1.3518-.656.2843-.122.8268-.245.8268-.201.0131.411.4637.534.9099.731.468.179.9273.433.9623.896.0132.385.2319.74.3456 1.138.0919.393.1663.827-.1881 1.207-.2581.284-.3237.564-.3324.858 0 .293.1093.608.2756.962.1487.346.2843.726.3062 1.098.0175.499-.2012.879-.5468 1.076-.3675.184-.8706.175-1.4786-.048-1.0324-.381-1.9204-.647-2.6685-.687-.1006-.004-.3893-.179-.4549-.267-.0831-.113-.1094-.302-.0307-.315.28-.048.5687-.118.8487-.197.2887-.078.6212-.144.9668-.214.3149-.057.5555-.153.6955-.306.1225-.158.1444-.376.0481-.661-.1312-.376-.4768-.765-.6518-1.08-.1049-.162-.1749-.311-.1618-.455.0087-.074.035-.144.0875-.219.0437-.074.1093-.153.2099-.232-.7786-.437-.7786-.7-.0699-1.299.0481-.044-.0525-.127-.1575-.144-.5075-.079-.7612-.201-.8706-.381-.1224-.175-.1487-.398-.2493-.586l.0131-.013z"/><path d="m53.4887 161.091c-.2231.113-.4462.223-.6736.336-.56.298-1.1199.587-1.6842.871.3324-.284.5205-.617.9886-.98.5949-.464 1.063-.927 1.4348-1.422.3631-.49.6125-.988.7918-1.54.1881-.629.8706-1.124 1.5005-1.001.5687.118.8355.402.7437.774-.0875.367-.5119.792-1.2687 1.264-.9405.582-1.9816 1.151-1.8154 1.684l-.0131.014z"/><path d="m36.9474 171.83c-.385-.118-.7218-.328-.958-.512-.2363-.188-.3675-.35-.3194-.459.0088-.022.1881-.035.2319-.022.1225.044.3106.127.3062.175-.0131.411.6124.525 1.1505.643.1793.04.3718.009.5512.044.1225.026.2318.127.3456.193-.1094.03-.21.083-.3237.074-.4025-.031-.8093-.101-.9931-.136z"/><path d="m20.1484 89.9571c.1444-.105.2888-.3062.4419-.28.1399.0263.3062.28.4112.49.0262.0525-.0788.4287-.1619.4593-.1181.0438-.28-.1006-.4243-.1662z"/><path d="m52.1796 164.271c-.0832-.113-.2188-.205-.1444-.21.1662-.008.4418.018.6737.022.0743.061.2493.171.1881.188-.1356.035-.3937.018-.7131 0z"/><path d="m47.7528 157.885c.0306.009.0656.004.0831.03l.3369.429c-.0832.14-.175.346-.2406.407-.49.485-.2844-.223-.1969-.844l.0131-.022z"/><path d="m14.8511 147.753-.3062-.976c.0481-.026.1094-.083.14-.079.4331.057.3587.508.1925 1.037l-.0263.013z"/><path d="m33.9985 170.663c.0788-.009.1356-.018.1925-.022.0744.039.1706.083.21.122.0131.013-.1225.022-.1925 0-.0613-.013-.1312-.061-.2144-.1z"/><path d="m14.8778 147.736.3456.971c-.0437.035-.1269.105-.1269.105-.0875-.354-.1662-.708-.2449-1.058l.0262-.013z"/><path d="m51.9078 162.479c-.1925.096-.3718.196-.4637.214-.1618.035-.3456.052-.3762.03-.0219-.013.2012-.113.315-.183.1443-.022.2931-.044.5249-.061z"/><path d="m16.119 147.627-.1444.114z"/><path d="m77.3588 35.8524c-.2231-.2888-.2494-.5162-1.0193-.9887-.8837-.5424-.5599-.4593-.3325-.4112.7568.1663.7831.1706-.0043-.678-.245-.2625-.5512-.5643-.6912-.7612-.0744-.105.0962-.1006.2887-.0175.2012.0875.5643.3325.8574.5118-.07.0131-.1531.0219-.2143.0438-.2231.0787-.0613.2581.7392.7261.4987.2888.8093.4769 1.1024.8049.2144.2363.525.5381.8706.6344.1312.035.0962-.14-.0613-.2844-.7437-.678-.6562-.8049-.0831-.643.5556.1574.3631-.1663.0481-.5425-.3587-.4331-.2231-.5205.3325-.3587.3149.0919.6737.2056.8968.2231.2056.0131.4418.0044.328-.1618-.1881-.2756-.7043-.5994-1.3561-.875-.7043-.3018-.6649-.4768-.5686-.4768.2274 0 .643.1313.9798.1969.6037.1181 1.1812.1925.7087-.3369-.0787-.0875-.1312-.2012-.0262-.1706.7874.2188.9842.0919 1.0324-.1093.0481-.2013-.0482-.4681.2231-.5556.7305-.2362.6736-.8311.1881-1.5354-.1007-.1488-.0832-.1882.0918-.2319.5862-.1269 1.7411-.1969-.0481-1.0849-.8705-.4287-1.3386-.643.0175-.3937.1356.0263 0-.1487-.0962-.245-.0657-.0699-1.4699-.4768-.0219-.1399.7962.1837 1.2336.2318.643-.07-.8661-.4375-.5468-.5731.4506-.4331 1.1243.1575.8749-.0613 1.0018-.175.1312-.1181-.1487-.3368.0525-.4331.4681-.2362.7349-.538.7655-.8661.035-.3281-.1881-.6999-.6605-1.0587-.2319-.1749-.2887-.3543-.6475-.5161-.7305-.3194-.2449-.56.3238-.8268.3324-.1575.6255-.2581.0612-.3981-.2975-.07-.2537-.2056-.3631-.3062h-.0262c-1.1943-.35-.4156-.8093-.1006-1.3168.1312-.2099 1.2336-.6561-.3938-.4987-.0218 0 .0744-.1531.2669-.2274.5818-.2275.608-.3325.1793-.3894-.3543-.0481-.4593-.1881-.5424-.3193-.1006-.1662-.5556-.1312-1.2642.0437-.9187.2319-.7349.3544-1.0018.5119-.2187.1312-.175.2624-.9449.4024-.4637.0831-.9799.1619-1.2598.3412-.1925.1225-.2057.2231.0393.2275.5075 0 1.8023-.1094-.14.3893-.1706.0438-.07.14.0044.1969.21.14.6431.2843-.1269.5643-.7961.2712.21.3587 1.8505.4156.6255.0219 1.7804-.105 1.8548.1181-.8006.0175-1.6011.0306-2.3973.0481-.3499 0-.6824-.035-1.0061-.0175-.1794.0088-.4287.0306-.6343.0481-.2056.0219-.3675.0394-.3675.0482.0088.1399-.1793.2843-.1881.4199 0 .14.1969.2756.9843.4637.6693.1619.9405.3325.5074.4287-.3193.07-1.3517.0131-1.5967.0656-.1793.035.7743.3019.5381.3062-.9274.0132-.14.2231.3106.4156.2231.0919.7918.2362 1.2642.3412.1531.035.5687.0044.7437-.0306.6256-.1268 1.1461-.3018 1.8373-.4681.1793-.0437.8224-.0175 1.2948.0132.1838.0131.6125.1443.7131.2143.4331.3194-.4593.8137-1.6579.7131-1.2862-.0919-1.5268.0306-1.1462.2799.7218.49-1.0149.3369-.8224.6606.0175.0306-.9842-.1837-1.5092-.2931-.1269-.105-.4112-.2494-.3587-.2975.1487-.1356.4637-.2318.6518-.3674.0656-.0482.0088-.1356-.1006-.2188-.0525-.0393-.3325-.1224-.5556-.1793-.0918-.0219-.3893-.0569-.4287-.0438-.4068.1182-1.2861.1094-1.0105.3369.4418.3762.2931.6037-.3062.6737-.0787.0087.0831.1224.2843.2099.3281.14.8006.3019 1.1768.455 1.2555.5074 1.2292.5249.3281.4068-.35-.0481-.9099-.1137-.7874-.0437.9142.5118.2012.433-.1794.4418-.5118.0219-.783.0919-.0481.6299.2187.1619.1181.2494-.07.2494-.5206 0-.4725.2668-.5337.4899-.0569.2231-.2406.3893-1.1111.1444-.1313-.0394.0875.1575.07.2012-.14.3237-.0788.7743-.525.9274-.4943.1706-.8749.3718-.5687 1.0761.0569.14-.0875.1663-.2712.1444-.5643-.0744-.573.2318-.4374.6605.0918.2713.0218.3981-.1706.4637-.3588.1182-.7087.2319-.5119.7875.2844.7961-.0612 1.1198-.643 1.2423-.5556.105-1.1068.21-1.0193.8574.07.5643-.0568.9843-.0918 1.4655-.0307.3718-.2844.5031-.595.6124-.105.035-.2187.0831-.2187.1969 0 .175-.105.1924-.3456.1093-.3106-.105-.2581.0132.0044.3019.3981.4418.3981.5599.1618.6911-.1531.0788-.3674.1138-.4374.2538-.2625.5118-.4856 1.0455-.7568 1.5485-.1619.3019-.35.5819-.5424.8662-.1881.2668-.5644.4637-.5644.8005 0 .4769-.3805.7525-.3587 1.2162.0132.1837-.0306.3543-.3674.3805-.175.0175-.2581.2013-.245.3544.0306.3762-.0875.6299-.7174.6824-.0788.0044-.0963.1444-.0306.1837.1618.105.3893.1881.5905.2756-.2012 0-.4462-.0306-.6124 0s-.3543.0875-.3675.1881c-.0306.3412-.1618.6168-.7043.7787-.0787.0262.0219.1312.0263.1968.0044.2144.1137.455.0175.6343-.1488.3063-.4243.5819-.7131.8706-.1837.1925.035.4243.21.6605.1531.2056-.3806.3631-.5162.5731-.1487.2318-.1925.4812-.2668.7349-.0263.0831-.1969.1619-.1531.245.0962.175.2143.3499.3455.5205l.42.4944c.0919.1093.2581.2274.1094.3324-.3631.2581-.3063.5075-.3369.7612-.035.2756-.1924.5774.3194.7612.0962.035.0087.1399-.1488.2143-.8924.4112-.4593.6081.0438.7393.2406.0656.4549.1531.4068.2931-.07.2275-.2012.4987-.2362.748-.0306.2406.0306.4725.4112.5512.2362.0481 0 .3544.0962.49.1706.2581.0569.6605.0875 1.0192.0131.175.0613.3369.1881.4462.1313.1007.3544.14.6868.0832.1006-.0175-.0568.2012-.035.2712.0438.14.105.2712.2056.3674.1138.0963.315.1138.4156.2188.3981.4374.8749.853 1.7979.5905.2319-.07.3369.1488.2231.4856-.3587 1.0805.1794 1.063.7393.8486.3894-.1399.7524-.2755 1.0499-.3105s.5381.0175.7524.1749c.3019.2275.7306.0307.9362.6168.0306.0875.1225.1138.1925.0525.4112-.3455.7174-.363 1.0411-.2274.1706.07.3718-.1619.5381-.105.2099.0568.3849-.0919.5599-.2362.3456-.3106.6737-.4856.993-.6475.1575-.0743.3281-.105.4943-.1575.1619-.0656.3194-.1356.4725-.2231.0656-.035.1225-.0831.1793-.1312.0175-.0131.0394-.0569.0307-.0569-.0219-.0131-.0569-.0306-.0832-.0218-.2449.0831-.4987.1443-.7436.1924l-.4944.0525c-.0831.0088-.1618.0175-.2449.0219l-.2494-.0219c-.035 0-.0787-.1006-.1181-.1487-.2581-.3193-.2406-.35-.3499.1881-.0175.0875-.0482.245-.07.2319-.2056-.1225-.4112-.0963-.6168-.1138-.2013-.035-.4069-.14-.5119-.5862-.0306-.1443-.1706-.0743-.2668.0438-.28.3631-.5424.4768-.4681-.3806.0088-.1269-.07-.2012-.1268-.1225-.35.4812-.4287.0831-.35-.4199.07-.4944-.0131-.525-.2494-.2406-.4855.5905-.678.4505-.4287-.3456.1138-.3675.0613-.3762-.2493.035-.2756.3543-.6606 1.028-.8355.9755-.14-.0438-.3894-.0131-.2756-.3412.4199-1.203.3324-1.4874-.07-1.6142-.3806-.0919-.035-.9012.0131-1.2993.0175-.1049-.105-.1006-.2625-.0743-.4462.0831-.9974.1968-1.4917.21-.3806.0131.0263-.3675.993-.8968l.8312-.455c-.0481-.035 0-.1268-.1662-.0831-.21.0525-.8487.3369-.9099.2975-.2013-.1225-.2931-.3194-.3063-.5206-.0131-.0875.3194-.2712.9668-.4724 1.3255-.4287 1.1418-.4156.9012-.42-.1575 0-.2844-.0262-.4725-.0525-.1881-.0219-.4418-.0262-.8399 0-1.028.0525-.9755-.0087.2056-.3718 1.3167-.3937 1.2949-.3544.7306-.4856-.2581-.0569-.4856-.1443-.5119-.2493-.0481-.2013.07-.4069.0919-.6125 0-.0218-.2143-.0481-.3675-.0656-.0481-.0044-.293.0088-.3412.0219-.1531.0437-.2581.0919-.3805.1443-.0613-.0524-.1794-.1093-.1794-.1662 0-.0656-.0525-.1706.1881-.1925 1.3955-.1224.4418-.3062.1706-.5118-.1925-.1312-.4506-.2887-.4024-.4112.1268-.3237.4112-.608.5118-.9274.0437-.1662.0962-.3412.1137-.5206l.0438-.5468c.0131-.1749.0087-.3718-.8093-.6955.6561-.0569.2449-.4331-.0613-.8093-.1312-.1531-.3456-.35-.0787-.35.4024.0044.5512-.0962.6168-.2449.0656-.1488.0656-.3325.1093-.4944.07-.293.0919-.6299.3194-.8311.21-.2056-.1881-.7699.4068-.7481.0569 0 .0569-.1312.0131-.2099-.1706-.315.0219-.4244.1838-.5731.3499-.3106.818-.5249.7305-1.1374-.0175-.1006.1006-.1618.175-.2231.28-.2449.6081-.4505.8924-.6911.245-.2013.2144-.2231-.3762-.6168-.0656-.0438-.1225-.1094-.1881-.1663.0569 0 .1181-.0175.175.0131.3937.2144.643.245.7611.0569.0219-.0394.1138-.0481.1969-.0262.5468.1706.713-.0175.6387-.3369-.0875-.3543.1225-.4024.4768-.3806.3543.0175.713.0394.8093-.1924.1225-.3106.3106-.5775.4855-.8531.0438-.0656.2363-.0218.3675-.0175.2012 0 .3981 0 .6299.0307.3238.0437.4594-.0175-.0306-.5294-.28-.2887-.2493-.3499.1837-.0568.3588.2449.6081.3718.4637.0875-.3849-.7525-.363-1.1724.9624-.5556.1313.0612.1969.0175.2319-.0262.0787-.1094.2231-.1838.1575-.385-.1619-.4899.2143-.6999-1.4086-1.9948-.4156-.3324-.9055-.8618-.5337-.7655.3456.0918-.2275-.6956 1.1417.3499.2013.1531.4506.2756.6781.4156zm-1.588.4243c.1969.1269.4025.2406.5993.385.1794.1356.4987.4112.4943.433-.035.0963-.07.2144-.2712.1531-.2843-.0831-.713-.3106-1.0717-.4768 0 0-.0919-.1093-.175-.2012.6955.3543.7699.1925.4243-.2887zm-3.7315 4.3439s-.1837-.07-.2799-.1094c-.0044-.0962-.035-.2143-.0088-.2887.0132-.035.1444.0088.3719.0394-.035.1881-.0307.2974-.0832.3631zm7.8873-11.1725c-.1969-.0525-.385-.0963-.5906-.1663-.0743-.0262-.3106-.1618-.2931-.1618.1094.0087.2581.035.4725.07.1837.1137.2975.1837.4156.2581zm-13.2898 18.7885c-.0394-.0437-.1181-.0962-.1093-.1225.0087-.0306.1006-.0393.1531-.0568.0306.0481.0656.0962.0875.1312-.0569.0219-.0963.035-.1357.0481z"/><path d="m75.9992 18.5952c.0919-.0219.2931-.14.4462-.2144.0525-.0962.0525-.1662.1575-.2974.3849-.4769.6518-.9799 1.1592-1.4742.8749-.8575.6387-.8837.4944-1.0018-.0875-.07-.1357-.1969-.315-.1662-.4725.0874-.6299-.0875-.6431-.4681-.0043-.1837-.3062-.1794-.5949.0306-.8137.5993-.993.4506-1.1855.2668-.1268-.1224-.315-.1618.1794-.8792.2362-.3412.1574-.4244-.0875-.2975-.5818.2931-.5337.2494-.3894-.3806.07-.3018.2056-.7699-.4243.0481-.0394.0525-.175.1138-.175.0788-.0043-.4725-.503-.1881-.8136-.1575-.2625.0306-.4025-.1006-.3106-.4681.1006-.4024-.0963-.4637-.2887-.3937-.21.0788-.4769.3631-.6956.5512-.0306.0263-.0875.2319-.07.2537.1794.14.2931.3544.2844.7175 0 .0481.0743.0437.1268.0218.4069-.1356.9056-.3806.8312.2844.4156-.1706.3587.2931.4068.6037.0394.2099-.0394.5555.2756.4374.1181-.0437.0613.2144.0525.3675-.0131.2231-.105.5249-.0962.713.0043.1181.105.2187.2581.0875.8442-.7305.9361-.4899.7436.07-.0437.1181.105.07.1531.1137.0744.07.1706.1181.2013.2319.0962.3937.1618.8093.1662 1.2948.0044 0 .0394.0525.1575.0219zm.5337-1.6011.1269-.0962c.1968-.0919.4155-.2013.5905-.2625.0438-.0131-.0612.14-.1006.2144-.0875.0568-.2231.1662-.245.1618-.1006-.0175-.1706-.0656-.2493-.105z"/><path d="m81.0288 19.2472c-.4637.1881-.9361.3893-1.3955.5643-.2843.105-.8049.2712-.7961.2537.0962-.1837-.2844-.1356-.665-.0656-.3849.07-.7742.1618-.7655.0306 0-.2275-.7437-.0219-.3193-.5031.3062-.3631.0175-.3893-.4681-.2275-.2494.0832-.49.1663-.6562.1925-.4462.0788-.1487-.3281.8005-1.1723.8225-.7262 1.4393-1.3518 1.7848-1.903.0482-.0743.2888-.3062.3806-.363.1181-.07.2669-.0963.245-.0394-.1531.4199-.3018.8355-.6562 1.3298-.3193.4462-.3893.6343.0263.595.538-.0656 1.6754-.4112 1.1505.3018.783-.1881.9011.0438.2537.6081-.0438.0393.0525.0481.1487.0262.9712-.2362.8531.1356.9537.3675l-.0175.0131z"/><path d="m81.0473 19.234c.2318-.0963.4637-.1925.6955-.2844l1.7411-.7611c-.3456.3018-.5687.6037-1.098.8661-1.3649.6781-2.2879 1.2161-3.1365 1.7192-.4987.2931-1.3036.4812-1.728.4987-.783.035-.2887-.2406 1.3736-.8968 1.0324-.398 2.1654-.7743 2.1392-1.1286l.0175-.0131z"/><path d="m71.938 13.0436c-.1182-.0962-.1794-.2668-.2056-.4199-.0263-.1575-.0175-.2931.0525-.3893.0131-.0175.1006-.0394.1137-.0263.0394.035.0875.1006.0656.1444-.1793.3543.0481.4374.2362.5337.0613.035.1575.0043.2188.035.0437.0218.0437.1049.0656.1662-.0613.0262-.1269.07-.175.0656-.1575-.0306-.3062-.0831-.3718-.1094z"/><path d="m70.3465 55.2621c.0875-.0218.2581-.1006.2362-.0525-.0175.0438-.2231.2275-.3893.3763-.0437.0393-.35.2231-.3806.2187-.0393-.0088.0744-.1313.1225-.2012l.4112-.3369z"/><path d="m81.4583 16.2285c.14.0219.3106 0 .2625.0569-.1094.1268-.3281.2887-.5031.4374-.0963.0088-.2975.0613-.2625.0132.0788-.1094.2756-.2756.5031-.5031z"/><path d="m83.1504 22.9045s-.0175-.035 0-.0525c.0787-.1094.1706-.2188.2449-.3325.1619 0 .3894-.0175.4681 0 .6474.1487-.0787.28-.6868.3893h-.0262z"/><path d="m77.7958 36.6401-.6868-.14c-.035-.035-.0962-.0919-.1006-.1094-.07-.2362.3062-.0437.7656.2275l.0175.0219z"/><path d="m71.1133 12.1341c.0394-.0131.07-.0218.0962-.0306.0175.0306.0438.0656.0438.0963 0 .0131-.0657.0218-.0875.0087-.0219-.0087-.0306-.0481-.0525-.0787z"/><path d="m77.7793 36.6182.6693.1137c.0394.0394.1137.1094.1137.1094l-.7655-.2013z"/><path d="m82.6523 17.9398c.1794-.1225.3413-.2581.4287-.2887.1575-.0525.3456-.0744.385-.0394.0263.0219-.175.1575-.28.2406-.1487.0263-.3018.0525-.5337.0875z"/><path d="m77.3594 35.8525.1268.1225-.1224-.1181z"/><path d="m110.819 35.3284c.332-.1531.564-.1181 1.199-.7655.726-.7437.577-.4375.481-.2231-.32.7174-.341.7305.691.1968.324-.1662.696-.3806.932-.4549.122-.0394.087.1356-.044.3018-.136.175-.468.4593-.717.6956 0-.0788.013-.1619 0-.2275-.031-.2537-.25-.1444-.902.5162-.406.4112-.669.6605-1.058.8618-.285.1443-.648.3718-.836.6824-.07.1181.105.1268.285.0087.848-.5468.949-.4156.63.0875-.311.4856.048.385.498.1969.521-.2188.56-.0525.228.4156-.188.2668-.416.5643-.512.7611-.088.1837-.162.3981.026.3412.311-.0918.801-.4549 1.291-.9711.529-.5556.678-.4593.643-.3631-.083.2144-.355.5556-.543.8355-.337.5075-.656.9843.005.7525.109-.0394.231-.0438.161.0393-1.084 1.2293.097.8093-.039 1.3211-.197.6956.293.8574 1.094.8049.17-.0131.188.0263.109.1794-.254.5249-1.002 1.343.814.5118.879-.3981 1.36-.5862.253.2319-.109.0831.092.0874.228.0787.092-.0087 1.36-.7349.105.07-.687.4418-1.037.6999-.42.4768.914-.3281.783-.0087-.066.5425-.949.6168-.647.5774-.686.7174-.044.14.288.0962.179.2668-.263.4025-.354.6999-.236.8924.105.1969.42.2975.975.2975.276 0 .39.0919.766.0481.774-.0919.415.3062-.044.6912-.271.2318-.529.3937.035.2931.293-.0525.284.0568.411.0962h.022c1.238-.1181.543.5031.289.9143-.114.1925-1.186.6737.407.3018.022-.0043-.07.1269-.254.2056-.569.2494-.591.3106-.175.3019.337-.0088.429.0918.494.1837.083.1137.534.0656 1.247-.0875.927-.1968.748-.3149 1.019-.4681.223-.1268.18-.2624.95-.4068.463-.0875.988-.1356 1.259-.3456.188-.1487.188-.3018-.061-.3193-.529-.0394-1.815.2056.053-.5337.166-.0656.035-.2012-.053-.2712-.249-.1969-.722-.2756-.052-.8093.682-.5512-.381-.49-1.956-.0306-.603.1749-1.658.6561-1.789.4943.748-.2844 1.501-.5643 2.244-.8487.328-.1181.661-.175.963-.2974.332-.1313.909-.42.901-.4506-.158-.4068.38-1.1724-1.243-.8924-.691.1225-1.019.0875-.708-.245.232-.245 1.133-.7568 1.295-.9843.118-.1706-.858.0788-.674-.0656.717-.5949-.074-.3718-.564-.2843-.241.0394-.788.2625-1.225.4681-.14.0656-.451.3587-.565.4943-.424.4943-.73.9274-1.238 1.4261-.131.1312-.7.4418-1.119.6605-.167.0875-.591.2144-.7.2231-.49.0263.013-.7086 1.028-1.3648 1.093-.6912 1.181-.958.735-.9012-.845.1138.551-.9274.157-1.0499-.031-.0087.827-.5643 1.269-.8705.17-.0044.485-.0875.49 0 .013.2362-.127.5556-.171.8137-.013.0918.092.1312.236.14.07 0 .341-.105.551-.1969.088-.0394.337-.21.355-.245.21-.4024.835-1.0892.424-1.133-.656-.07-.735-.4024-.455-.9974.035-.0787-.171-.0568-.372.035-.328.1444-.757.3937-1.124.5775-1.216.608-1.199.5993-.56-.0569.249-.2581.621-.6912.49-.6387-.984.385-.512-.1575-.328-.5249.254-.4943.276-.8137-.595-.5118-.262.0918-.297-.0613-.214-.2363.441-.993-1.151-.5555-.04-2.0472.083-.1138-.197-.0088-.24-.0613-.311-.3499-.818-.5337-.871-1.0717-.061-.6081-.227-1.1112-1.041-1.0849-.166.0044-.162-.1619-.105-.3412.179-.5731-.157-.7043-.643-.6999-.302 0-.429-.1138-.472-.3369-.075-.4068-.149-.8268-.77-.7699-.88.0787-1.173-.35-1.23-.9843-.043-.6037-.087-1.1986-.765-1.2467-.595-.0525-1.002-.2712-1.496-.4068-.376-.1094-.477-.3981-.534-.7393-.022-.1138-.048-.2406-.162-.2669-.175-.0437-.179-.1487-.052-.3718.162-.2844.03-.2581-.307-.0656-.52.2974-.638.2668-.721-.0044-.053-.1706-.044-.3937-.167-.5031-.459-.3893-.927-.7699-1.347-1.1942-.254-.2537-.464-.5381-.674-.8268-.201-.2756-.245-.7043-.551-.8487-.446-.2012-.538-.6736-.962-.888-.166-.0787-.298-.2143-.158-.5249.075-.1619-.052-.3237-.188-.3981-.328-.1837-.485-.4462-.157-.9799.044-.0656-.057-.1575-.131-.1312-.18.0656-.385.1968-.578.3018.123-.1618.293-.3368.372-.4812.079-.1487.149-.3237.087-.3937-.214-.2318-.336-.5162-.056-.9799.039-.0656-.105-.07-.149-.1093-.153-.1269-.372-.2319-.411-.4156-.057-.3106 0-.6693.083-1.028.065-.2363-.228-.2888-.495-.3806-.24-.0831.167-.4593.206-.6737.039-.2362-.026-.4374-.022-.6562 0-.0743.136-.1925.07-.2406-.28-.2012-.656-.3806-.997-.5862-.11-.0699-.298-.1399-.166-.2624.319-.2975.24-.4856.24-.7087 0-.2362.153-.4856-.345-.6168-.097-.0263-.009-.1225.153-.1881.896-.3587.503-.4725.017-.6124-.232-.0657-.437-.1619-.376-.2756.223-.3762.818-.7393.184-1.0324-.202-.0963.127-.2581.096-.3806-.057-.2319.249-.4768.402-.6999.167-.2275.149-.4462-.433-.69558-.092-.03937.175-.09186.201-.13998.057-.10061.097-.20123.079-.30622-.017-.10936-.144-.22747-.144-.33683-.005-.23185.022-.45058-.044-.6868-.07-.23623-.24-.48558-.595-.78304-.184-.15311-.03-.32372.324-.33684 1.107-.04812.884-.34121.494-.76117-.538-.56868-.748-1.133-.45-1.50046.201-.24059.07-.6693.66-.69992.088 0 .118-.06999.07-.14436-.297-.45495-.14-.69992.075-.90552.109-.10499.017-.36309.14-.4637.14-.12686.1-.33684.113-.55119.013-.41558.114-.81366.311-1.12863.227-.279965.529-.494316.765-.774285.053-.056869.092-.131236.136-.1968533.013-.0218726.022-.0699923.018-.0699923-.022 0-.062-.00874899-.084.0087491-.214.1793555-.45.3324635-.691.4986945-.153.109363-.31.214352-.459.336838-.136.126861-.276.253719-.424.376209-.031.02625-.132-.00875-.202-.00875-.437-.00875-.476-.0175-.17.43308.048.07436.148.20123.127.21435-.25.09624-.333.33246-.477.52057-.145.1881-.324.34558-.818.32371-.158-.00875-.18.17498-.083.32372.258.43307.332.68679-.5384.52494-.1269-.02188-.2363.07874-.1663.15748.4157.45058.0132.50744-.5074.50307-.5206-.01312-.5643.14873-.2669.39371.6169.51181.4944.69554-.3718.71304-.3893.00875-.3893.10937.0875.32372.4156.1881 1.168.36746 1.168.56431 0 .16186.1006.38933-.2406.42433-1.2949.12686-1.5398.56868-1.4261 1.11112.0525.23623-.1356.44621-.3674.66493-.2231.21435-.5119.43745-.6825.67368-.0831.11373.0131.24934.1444.37183.3762.35434.8793.67804 1.3298.98864.3325.2275-.2056.3806-1.3079.3937-.3194 0-.63-.0044-.9449-.0131.0262.105-.07.2275.1049.3062.2144.1006.9143.1444.9581.2406.1487.315.1618.6343.1531.9624 0 .1312-.3675.2887-1.0455.315-1.3955.0481-1.1986.1881-.958.3937.3018.2581.5336.5118 1.3517.6386 1.0499.1532.9755.1575-.1881.595-1.2993.4899-1.2686.503-.6693.8268.2756.1399.5468.2843.5993.468.105.3544.0612.7437.1356 1.1068.0087.0394.2275.0262.3849.0175.0525 0 .28-.0919.3194-.1269.1268-.105.2056-.2056.315-.3106.0787.0657.2143.1181.2362.1969.0262.0962.1181.2275-.1006.3368-1.2643.6256-.2494.6343.0918.8006.2406.1181.5468.2099.5818.3849.0831.4768.0219 1.0062.1575 1.4742.1706.4856.4462.9318.7306 1.3605.1356.2056.3193.4112 1.1241.0744l.035-.0613-.031.0613c-.384.5687.219.608.714.6605.205.0219.507-.0131.349.21-.468.6606.027.8618.267 1.1811.232.2756.552.5031.639.8487.105.3456.814.2756.56.8355-.022.0525.109.1312.206.1312.376 0 .415.2406.507.4812.197.49.297 1.0805.941 1.2424.109.0263.14.1619.188.2625.188.3762.328.7918.52 1.168.166.3193.197.2931.713-.1925.057-.0569.136-.0919.206-.14-.013.0569-.005.1269-.048.175-.298.3368-.372.5905-.197.7699.035.035.035.1312-.009.21-.267.5162-.092.7524.254.7611.385.0044.407.2319.337.5994-.07.363-.136.7392.096.8967.311.2013.569.4594.831.7131.066.0612-.009.2493-.026.3849-.026.2056-.048.4112-.11.6431-.087.3237-.039.4812.552.0875.332-.2231.393-.1794.035.2012-.298.3193-.464.5424-.153.455.822-.2363 1.251-.1182.424 1.0936-.083.1225-.048.1968-.013.2362.096.105.144.2581.358.2362.517-.0612.652.3544 2.249-.9755.411-.3412 1.037-.7043.875-.3543-.153.3237.752-.0438-.564 1.063-.193.1618-.368.3806-.552.5731zm-.131-1.6929c-.162.1706-.311.3543-.49.5162-.166.1531-.503.4112-.521.4024-.092-.0525-.205-.1137-.109-.3062.131-.2712.429-.6518.656-.9799.004 0 .123-.07.236-.1312-.468.6299-.319.7349.228.4987zm-3.99-4.8557c-.017-.0219.105-.1707.162-.2581.101.0218.228.0218.302.0699.035.0219-.031.1444-.096.3719-.188-.0831-.302-.1094-.368-.1837zm9.13 11.3562c.157-.1312.297-.2625.472-.3981.061-.0481.306-.1618.302-.1487-.066.0875-.175.1968-.324.3543-.196.0831-.323.14-.446.1925zm-14.13-20.5296c.057.0087.153 0 .162.0262.013.0307-.048.1007-.074.1531-.057-.0175-.114-.035-.153-.0481.03-.0568.048-.0962.065-.1312z"/><path d="m123.373 52.0873c-.088-.0569-.319-.0963-.486-.14-.1.0656-.14.14-.306.1881-.595.1881-1.111.433-1.815.4855-1.221.0919-1.046.2319-1.033.4025.014.1006-.043.2056.105.3018.394.2538.359.4944.088.7262-.118.1094.039.3237.385.4287.958.3019.932.5862.875.8662-.035.1837.026.398-.849.3018-.416-.0437-.455.0525-.236.21.512.3849.446.3893-.184.4987-.302.0525-.779.0787.21.3762.061.0175.171.1268.14.14-.455.1662-.035.538.07.853.096.2581 0 .4549-.376.4462-.424-.0131-.451.1837-.354.3675.109.1968.428.4243.638.6255.031.0306.245.0525.263.0219.127-.2275.337-.3981.721-.4987.053-.0131.027-.1006 0-.1531-.214-.4287-.586-.853.092-1.028-.267-.3719.175-.5031.455-.7174.184-.1444.534-.2669.306-.5381-.087-.1006.18-.1925.329-.28.214-.1268.516-.2406.678-.3893.105-.0963.144-.2887-.053-.3543-1.072-.3631-.923-.5775-.341-.84.118-.0568-.013-.1662-.013-.2493 0-.1356-.026-.2712.039-.3981.223-.4506.503-.9143.761-1.4786 0-.0043 0-.0962-.113-.1706zm-1.439 1.1286-.158-.0219c-.201-.0831-.433-.1575-.603-.2406-.04-.0175.144-.0656.223-.1006.1.0175.28.0306.288.0525.057.0919.07.1881.097.2843l.148.0263z"/><path d="m118.955 49.1692c.49-.1094.985-.2275 1.47-.3237.298-.0569.84-.1269.827-.1094-.236.3587 1.487.1881 1.417.5425-.043.2843.74.4462.175.8311-.411.28-.17.455.346.6081.262.0787.525.1618.687.2625.446.2799-.035.608-1.291.783-1.085.1531-1.951.315-2.568.5293-.083.0306-.415.0613-.52.0525-.136-.0131-.271-.07-.214-.0962.38-.21.734-.4375 1.308-.6693.507-.21.66-.3675.266-.5337-.516-.2275-1.671-.3106-.914-.7306-.796-.0831-.822-.2624-.048-.608.052-.0263-.035-.0569-.136-.0569-1.001 0-.765-.2625-.826-.4681l.017-.0087z"/><path d="m118.934 49.1778c-.244.0569-.489.1094-.73.1663l-1.85.4418c.411-.175.691-.3719 1.246-.5468 1.444-.4506 2.437-.8793 3.29-1.3605.503-.2844 1.312-.4637 1.758-.3937.818.1312.315.4724-1.417.8924-1.08.2625-2.235.5074-2.279.7962l-.018.0087z"/><path d="m119.96 59.8478c-.105.1356-.284.2144-.446.2537-.162.0394-.302.035-.398-.0349-.017-.0132-.039-.105-.026-.1182.035-.0393.101-.0962.144-.0743.363.1662.46-.0831.556-.2887.03-.07-.009-.175.017-.245.018-.0481.101-.0656.158-.0963.03.0613.083.1269.079.1794-.014.1794-.057.35-.092.42z"/><path d="m96.2255 9.91273c-.0875-.06562-.2625-.14436-.21-.20561.0481-.05686.3237-.10061.5468-.12686.0569-.00437.4112.07.4287.10937.0263.05249-.1443.10498-.2275.15748l-.5337.06562z"/><path d="m117.486 51.264c-.114-.0525-.271-.0744-.201-.1006.153-.0481.424-.1006.647-.1488.088.0219.289.0394.237.0613-.119.0525-.372.105-.679.1837z"/><path d="m116.807 46.5361s.026.0219.017.0394l-.166.3062c-.153.0481-.367.1225-.451.1356-.643.0963.022-.2012.578-.4724h.022z"/><path d="m109.961 35.5779.271-.6474c.044-.0263.11-.0744.127-.0744.249-.0175-.013.315-.376.7087z"/><path d="m118.995 60.7928c-.009-.0438-.018-.0744-.026-.105.03-.0219.065-.0482.1-.0482.013 0 .022.07.009.0963-.013.0219-.052.035-.083.0612z"/><path d="m109.983 35.5645-.258.6299c-.044.0306-.131.0875-.131.0875l.363-.7043.022-.0131z"/><path d="m117.066 49.9785c-.206.0656-.398.1356-.49.1487-.166.0219-.346.0219-.372 0-.017-.0131.214-.0831.337-.1268.149-.0044.297-.0131.529-.0219z"/><path d="m110.818 35.3281-.144.0963z"/></g></svg>