<svg width="140" height="260" viewBox="0 0 140 260" fill="none" xmlns="http://www.w3.org/2000/svg">
<path d="M97.4472 257.097C97.5391 256.747 97.6878 256.594 97.6266 255.689C97.5522 254.656 97.666 254.962 97.7535 255.177C98.0422 255.885 98.0378 255.912 98.2653 254.779C98.3353 254.424 98.4009 254.004 98.484 253.772C98.5278 253.654 98.6196 253.79 98.6546 254C98.694 254.214 98.694 254.652 98.7115 254.993C98.6634 254.94 98.6152 254.879 98.5627 254.844C98.3834 254.709 98.3309 254.94 98.4009 255.863C98.4446 256.437 98.4621 256.8 98.3746 257.228C98.309 257.539 98.2522 257.963 98.3571 258.309C98.3965 258.44 98.5015 258.309 98.5278 258.099C98.6459 257.097 98.7858 257.101 98.9433 257.67C99.0964 258.221 99.232 257.88 99.3545 257.412C99.4989 256.874 99.6301 256.948 99.7657 257.5C99.8445 257.815 99.9188 258.178 100.006 258.374C100.085 258.558 100.194 258.751 100.26 258.567C100.369 258.265 100.387 257.657 100.304 256.953C100.212 256.192 100.365 256.135 100.409 256.222C100.509 256.419 100.593 256.843 100.689 257.171C100.855 257.749 101.021 258.291 101.218 257.626C101.253 257.513 101.314 257.416 101.332 257.521C101.621 259.127 101.966 257.946 102.268 258.348C102.679 258.908 103.069 258.624 103.458 257.92C103.541 257.771 103.576 257.775 103.655 257.924C103.926 258.423 104.228 259.499 104.468 257.526C104.586 256.568 104.661 256.056 104.779 257.425C104.792 257.561 104.893 257.39 104.95 257.268C104.989 257.185 105.006 255.724 105.055 257.211C105.081 258.025 105.129 258.462 105.243 257.815C105.409 256.865 105.593 257.136 105.658 258.147C105.733 259.28 105.846 258.991 105.947 259.092C106.052 259.197 106.166 258.878 106.266 259.057C106.73 259.901 107.185 259.923 107.649 258.917C107.762 258.668 107.889 258.602 107.994 258.243C108.213 257.508 108.414 257.981 108.598 258.549C108.707 258.886 108.764 259.188 108.878 258.624C108.935 258.331 109.031 258.379 109.11 258.274V258.252C109.429 257.071 109.74 257.92 110.05 258.287C110.186 258.458 110.33 259.626 110.448 257.998C110.448 257.976 110.545 258.103 110.566 258.304C110.636 258.921 110.693 258.965 110.803 258.563C110.89 258.234 111.008 258.169 111.113 258.129C111.244 258.081 111.314 257.631 111.345 256.905C111.389 255.955 111.244 256.104 111.179 255.802C111.122 255.553 111 255.562 111.061 254.783C111.096 254.311 111.17 253.794 111.065 253.475C110.991 253.256 110.877 253.217 110.807 253.449C110.658 253.943 110.527 255.238 110.413 253.234C110.405 253.059 110.269 253.138 110.195 253.199C109.985 253.374 109.792 253.799 109.573 252.998C109.35 252.167 109.114 253.178 108.992 254.814C108.943 255.439 109 256.594 108.821 256.66C108.834 255.859 108.843 255.059 108.856 254.262C108.865 253.912 108.922 253.584 108.917 253.256C108.917 252.902 108.873 252.255 108.847 252.255C108.502 252.255 108.139 251.471 107.824 253.055C107.688 253.737 107.544 254.022 107.408 253.597C107.307 253.287 107.246 252.25 107.146 252.01C107.071 251.83 106.909 252.819 106.87 252.587C106.704 251.673 106.586 252.482 106.468 252.954C106.406 253.186 106.363 253.772 106.345 254.254C106.341 254.407 106.437 254.818 106.494 254.984C106.704 255.584 106.922 256.069 107.128 256.734C107.181 256.909 107.216 257.552 107.229 258.024C107.233 258.208 107.172 258.65 107.128 258.755C106.94 259.219 106.502 258.418 106.411 257.22C106.31 255.929 106.148 255.728 106.004 256.152C105.728 256.957 105.523 255.225 105.269 255.5C105.247 255.522 105.203 254.499 105.173 253.965C105.238 253.816 105.308 253.501 105.374 253.545C105.544 253.65 105.715 253.943 105.886 254.096C105.947 254.153 106.017 254.074 106.078 253.952C106.109 253.891 106.135 253.597 106.148 253.37C106.153 253.274 106.126 252.976 106.109 252.941C105.903 252.569 105.676 251.699 105.492 252.027C105.195 252.556 104.928 252.456 104.652 251.913C104.617 251.843 104.547 252.031 104.521 252.25C104.481 252.609 104.468 253.103 104.438 253.51C104.333 254.862 104.324 254.84 104.153 253.947C104.088 253.597 103.957 253.046 103.935 253.186C103.755 254.223 103.598 253.527 103.44 253.173C103.23 252.696 103.034 252.486 102.824 253.366C102.758 253.632 102.64 253.571 102.561 253.401C102.124 252.469 101.621 254 101.205 252.206C101.174 252.075 101.1 252.355 101.047 252.36C100.671 252.399 100.291 252.666 99.9232 252.373C99.5076 252.04 99.1008 251.839 98.6852 252.482C98.6021 252.613 98.4971 252.504 98.414 252.342C98.1515 251.835 97.8847 252.001 97.6222 252.373C97.4604 252.604 97.316 252.622 97.1498 252.508C96.8523 252.294 96.5461 252.08 96.2355 252.578C95.7981 253.291 95.3562 253.221 94.9232 252.841C94.5207 252.473 94.1095 252.11 93.6939 252.587C93.3221 252.998 92.9502 253.16 92.5828 253.44C92.2984 253.65 92.0578 253.532 91.7997 253.357C91.7166 253.3 91.616 253.239 91.5373 253.304C91.4104 253.409 91.3404 253.344 91.2617 253.103C91.1654 252.793 91.1086 252.911 91.0473 253.296C90.9511 253.882 90.8636 253.952 90.6405 253.842C90.4961 253.772 90.3562 253.624 90.2162 253.65C89.7044 253.746 89.1882 253.882 88.6763 253.943C88.3701 253.982 88.0595 253.987 87.7533 253.974C87.4602 253.965 87.1321 253.746 86.8784 253.912C86.511 254.162 86.126 253.952 85.7673 254.192C85.6273 254.289 85.4698 254.324 85.3123 254.035C85.2292 253.882 85.0499 253.899 84.9318 253.974C84.643 254.153 84.3806 254.162 84.1268 253.597C84.0962 253.527 83.9781 253.562 83.9694 253.641C83.9387 253.829 83.9475 254.074 83.9387 254.293C83.8731 254.105 83.8163 253.869 83.7375 253.724C83.6588 253.58 83.5538 253.427 83.4707 253.453C83.1907 253.536 82.9195 253.51 82.6483 253.042C82.6089 252.972 82.5476 253.103 82.4951 253.121C82.3245 253.186 82.1539 253.361 81.9877 253.318C81.7077 253.243 81.4278 253.046 81.1478 252.823C80.9641 252.679 80.8153 252.933 80.6491 253.147C80.5004 253.339 80.3079 252.828 80.1285 252.718C79.9317 252.596 79.7305 252.591 79.5336 252.526C79.468 252.504 79.398 252.338 79.3367 252.386C79.0743 252.596 78.8118 252.902 78.5493 253.169C78.4618 253.261 78.3569 253.427 78.2781 253.274C78.0856 252.898 77.8932 252.928 77.6919 252.88C77.4776 252.828 77.272 252.613 77.062 253.09C77.0226 253.182 76.9483 253.077 76.9176 252.906C76.7339 251.966 76.5458 252.333 76.3533 252.788C76.2571 253.007 76.1477 253.191 76.0515 253.112C75.7365 252.854 75.4303 252.228 75.1022 252.832C74.9972 253.024 74.866 252.679 74.7479 252.705C74.3017 252.801 73.8555 251.493 73.4049 252.718C73.3699 252.81 73.3087 252.552 73.2605 252.526C73.1599 252.478 73.0593 252.443 72.9543 252.464C72.845 252.486 72.74 252.626 72.6306 252.631C72.1844 252.644 71.7426 252.653 71.3095 253.444C71.2001 253.641 71.0208 253.532 70.9377 253.191C70.6708 252.123 70.3952 252.412 70.1021 252.889C69.6997 253.558 69.2885 253.961 68.8729 253.794C68.5886 253.694 68.2823 254.017 68.0155 253.484C67.9761 253.405 67.9018 253.405 67.858 253.479C67.5999 253.926 67.3418 253.947 67.075 253.864C66.935 253.825 66.7819 254.044 66.6463 253.991C66.4757 253.934 66.3357 254.092 66.1782 254.223C65.8676 254.477 65.5526 254.643 65.2333 254.695C64.9227 254.739 64.6078 254.682 64.2928 254.717C64.2272 254.722 64.1572 254.744 64.0916 254.761C64.0697 254.765 64.0391 254.796 64.0391 254.8C64.0522 254.818 64.0741 254.849 64.1003 254.853C64.3365 254.875 64.5771 254.927 64.8177 254.975C65.1283 255.032 65.4433 255.076 65.7583 255.155C65.7932 255.164 65.8195 255.264 65.8545 255.317C66.0732 255.667 66.0776 255.697 66.2219 255.177C66.2438 255.094 66.2832 254.932 66.3007 254.945C66.4932 255.067 66.69 255.037 66.8869 255.059C67.0837 255.08 67.2806 255.15 67.4599 255.584C67.5168 255.719 67.6524 255.645 67.7224 255.5C67.9324 255.08 68.1161 254.905 68.2911 255.759C68.3173 255.881 68.4267 255.942 68.4573 255.842C68.6542 255.269 68.8379 255.614 68.9735 256.117C69.1091 256.612 69.2272 256.598 69.3322 256.24C69.551 255.492 69.7434 255.544 69.9403 256.362C70.0322 256.734 70.0978 256.712 70.1634 256.2C70.2203 255.754 70.2028 254.98 70.3646 254.932C70.4959 254.897 70.6708 254.744 70.7583 255.067C71.0952 256.279 71.4364 256.467 71.8476 256.279C72.2063 256.108 72.5825 256.878 72.95 257.193C73.0374 257.268 73.1381 257.167 73.2255 257.027C73.4836 256.62 73.733 256.126 73.9911 255.684C74.1836 255.356 74.2973 255.898 74.2842 257.001L74.2579 257.946C74.3367 257.924 74.4242 258.02 74.4854 257.845C74.5642 257.631 74.6254 256.935 74.6998 256.891C74.9491 256.756 75.2028 256.782 75.4522 256.822C75.5572 256.835 75.6447 257.215 75.6097 257.893C75.5397 259.289 75.649 259.105 75.8153 258.882C76.0252 258.598 76.2308 258.418 76.4146 257.626C76.6508 256.612 76.6595 256.69 76.8302 257.911C77.0226 259.271 77.0226 259.241 77.3376 258.711C77.4776 258.475 77.6263 258.243 77.7707 258.23C78.0463 258.204 78.3175 258.339 78.5931 258.353C78.6237 258.353 78.6587 258.143 78.6806 257.99C78.6893 257.941 78.6718 257.696 78.6543 257.648C78.6018 257.495 78.545 257.39 78.4881 257.263C78.5537 257.202 78.6193 257.084 78.6849 257.088C78.7637 257.088 78.8818 257.04 78.9124 257.281C79.1005 258.672 79.3149 257.705 79.5248 257.425C79.6648 257.233 79.8136 256.953 79.9536 256.988C80.3254 257.08 80.6929 257.316 81.0691 257.351C81.4628 257.39 81.8608 257.329 82.2589 257.246C82.447 257.206 82.6483 257.15 82.7051 256.275C82.9676 256.878 83.2126 256.362 83.4488 255.951C83.545 255.776 83.65 255.5 83.7419 255.75C84.0175 256.493 84.3587 256.17 84.6912 256.13C84.9843 256.078 85.2861 255.942 85.5661 256.056C85.846 256.157 86.1391 255.527 86.4016 256.06C86.4278 256.108 86.5416 256.047 86.5897 255.968C86.7734 255.662 86.9528 255.767 87.1628 255.833C87.5915 255.964 88.0289 256.248 88.4664 255.828C88.5364 255.759 88.6457 255.82 88.7376 255.846C89.0832 255.938 89.4288 256.082 89.7743 256.17C90.0674 256.244 90.0674 256.205 90.0324 255.496C90.0324 255.417 90.0456 255.33 90.0543 255.247C90.0849 255.295 90.1331 255.33 90.1418 255.395C90.203 255.837 90.3255 256.06 90.5311 256.038C90.5749 256.034 90.6361 256.1 90.6624 256.178C90.8505 256.712 91.0954 256.734 91.2879 256.476C91.5023 256.187 91.6598 256.323 91.8522 256.616C92.0447 256.905 92.2416 257.198 92.4734 257.128C92.7753 257.027 93.0815 257.005 93.3833 256.975C93.4577 256.966 93.5364 257.145 93.6108 257.25C93.7245 257.408 93.8426 257.556 93.9564 257.758C94.1139 258.038 94.2364 258.103 94.3195 257.403C94.3676 257.005 94.4288 256.988 94.4682 257.508C94.4988 257.941 94.5513 258.217 94.6738 257.924C94.9931 257.154 95.3081 256.913 95.6143 258.331C95.645 258.471 95.7106 258.497 95.7587 258.497C95.8768 258.497 96.008 258.563 96.1174 258.383C96.3755 257.955 96.7211 258.125 96.7692 256.052C96.7823 255.518 96.9004 254.809 97.036 255.164C97.1585 255.492 97.4298 254.564 97.4035 256.288C97.4035 256.537 97.4429 256.813 97.4647 257.08L97.4472 257.097ZM96.2749 256.078C96.2968 256.314 96.3274 256.546 96.3317 256.787C96.3317 257.01 96.3142 257.434 96.2924 257.443C96.2049 257.478 96.0999 257.521 96.0299 257.325C95.9293 257.049 95.8549 256.572 95.7718 256.187C95.7718 256.183 95.7981 256.047 95.8199 255.925C95.9599 256.695 96.113 256.651 96.2705 256.082L96.2749 256.078ZM90.9423 255.872C90.9161 255.872 90.8899 255.684 90.8636 255.584C90.9336 255.518 91.0036 255.426 91.0736 255.4C91.1086 255.391 91.1479 255.518 91.2617 255.715C91.1042 255.802 91.0255 255.872 90.9423 255.872ZM103.453 256.135C103.436 255.933 103.41 255.741 103.401 255.522C103.401 255.444 103.436 255.177 103.44 255.19C103.471 255.295 103.497 255.444 103.537 255.658C103.502 255.868 103.48 256.003 103.453 256.139V256.135ZM82.1364 254.792C82.1627 254.739 82.1889 254.652 82.2196 254.652C82.2502 254.652 82.2808 254.739 82.307 254.783C82.272 254.827 82.2414 254.87 82.2152 254.905C82.1802 254.857 82.1583 254.822 82.1364 254.792Z" fill="black"/>
<path d="M115.072 252.968C115.024 253.051 114.989 253.279 114.945 253.449C114.993 253.55 115.046 253.598 115.081 253.764C115.208 254.368 115.4 254.897 115.431 255.602C115.483 256.822 115.628 256.665 115.785 256.643C115.881 256.63 115.982 256.682 116.065 256.529C116.293 256.127 116.507 256.153 116.739 256.415C116.848 256.538 117.036 256.345 117.106 255.991C117.294 255.002 117.522 254.994 117.767 255.016C117.929 255.029 118.091 254.941 118.147 255.807C118.174 256.223 118.27 256.24 118.375 255.991C118.624 255.405 118.624 255.47 118.856 256.061C118.965 256.345 119.114 256.805 119.14 255.772C119.14 255.707 119.21 255.575 119.228 255.602C119.482 255.978 119.7 255.466 119.924 255.261C120.107 255.086 120.287 255.116 120.405 255.475C120.532 255.864 120.711 255.807 120.825 255.641C120.947 255.462 121.013 255.077 121.087 254.801C121.1 254.762 121.039 254.556 121.013 254.552C120.798 254.53 120.602 254.416 120.418 254.11C120.392 254.071 120.335 254.114 120.304 254.163C120.05 254.499 119.801 254.985 119.495 254.399C119.263 254.779 119.057 254.372 118.839 254.145C118.69 254.001 118.541 253.681 118.371 253.966C118.305 254.075 118.196 253.834 118.108 253.703C117.981 253.519 117.859 253.226 117.727 253.091C117.644 253.003 117.5 252.986 117.465 253.187C117.294 254.294 117.089 254.176 116.848 253.629C116.796 253.511 116.721 253.651 116.656 253.651C116.551 253.651 116.446 253.686 116.341 253.624C115.982 253.414 115.623 253.169 115.203 252.863C115.203 252.863 115.129 252.863 115.068 252.968H115.072ZM115.947 254.434L115.93 254.591C115.864 254.797 115.798 255.033 115.728 255.204C115.711 255.243 115.671 255.064 115.645 254.981C115.658 254.88 115.671 254.705 115.689 254.692C115.768 254.631 115.846 254.613 115.925 254.582L115.943 254.434H115.947Z" fill="black"/>
<path d="M112.112 256.969C112.112 256.466 112.107 255.959 112.121 255.465C112.129 255.163 112.173 254.616 112.186 254.633C112.444 254.931 112.589 253.212 112.847 253.343C113.065 253.444 113.284 252.704 113.516 253.308C113.687 253.754 113.857 253.535 114.019 253.037C114.102 252.783 114.185 252.534 114.273 252.385C114.513 251.987 114.715 252.464 114.789 253.732C114.855 254.821 114.946 255.696 115.117 256.322C115.139 256.405 115.156 256.742 115.143 256.847C115.126 256.982 115.065 257.114 115.038 257.057C114.855 256.668 114.667 256.304 114.5 255.718C114.352 255.193 114.238 255.018 114.058 255.395C113.822 255.88 113.586 257.013 113.306 256.213C113.118 256.991 112.939 256.969 112.759 256.147C112.746 256.09 112.702 256.169 112.685 256.269C112.514 257.254 112.304 256.969 112.107 256.991V256.969H112.112Z" fill="black"/>
<path d="M112.116 256.992C112.116 257.241 112.116 257.495 112.116 257.744L112.142 259.643C112.05 259.21 111.919 258.895 111.88 258.304C111.779 256.795 111.617 255.723 111.403 254.774C111.281 254.214 111.316 253.387 111.456 252.976C111.714 252.219 111.867 252.788 111.88 254.573C111.884 255.68 111.854 256.874 112.107 256.974V256.996L112.116 256.992Z" fill="black"/>
<path d="M121.709 254.771C121.849 254.788 121.984 254.902 122.081 255.02C122.177 255.138 122.238 255.26 122.229 255.374C122.229 255.396 122.168 255.462 122.151 255.457C122.103 255.449 122.033 255.418 122.028 255.37C121.998 254.972 121.774 255.024 121.578 255.042C121.512 255.042 121.451 255.12 121.385 255.129C121.341 255.134 121.298 255.064 121.254 255.024C121.289 254.972 121.32 254.893 121.359 254.876C121.499 254.814 121.643 254.784 121.709 254.771Z" fill="black"/>
<path d="M73.5968 258.081C73.5487 258.165 73.4962 258.348 73.4525 258.3C73.4131 258.256 73.3737 257.981 73.3518 257.762C73.3475 257.705 73.3956 257.347 73.4218 257.329C73.4612 257.303 73.505 257.465 73.5443 257.548L73.6012 258.081H73.5968Z" fill="black"/>
<path d="M113.9 258.768C113.834 258.873 113.782 259.027 113.769 258.957C113.738 258.799 113.721 258.524 113.703 258.296C113.734 258.213 113.782 258.012 113.795 258.069C113.83 258.195 113.856 258.449 113.9 258.764V258.768Z" fill="black"/>
<path d="M109.116 258.257C109.116 258.257 109.142 258.239 109.155 258.257L109.378 258.528C109.369 258.686 109.365 258.913 109.348 258.996C109.212 259.63 109.164 258.9 109.111 258.283V258.261L109.116 258.257Z" fill="black"/>
<path d="M97.1184 257.911L96.8516 257.281C96.8603 257.233 96.8647 257.15 96.8734 257.137C97.0047 256.94 97.0659 257.355 97.1184 257.885V257.911Z" fill="black"/>
<path d="M122.815 255.111C122.788 255.142 122.771 255.164 122.753 255.185C122.723 255.168 122.688 255.155 122.67 255.124C122.666 255.115 122.71 255.072 122.736 255.067C122.758 255.067 122.784 255.094 122.819 255.107L122.815 255.111Z" fill="black"/>
<path d="M97.1235 257.885L97.3904 258.493C97.386 258.545 97.3729 258.65 97.3729 258.65L97.1191 257.911V257.885H97.1235Z" fill="black"/>
<path d="M112.504 258.978C112.526 259.192 112.561 259.393 112.556 259.485C112.543 259.651 112.508 259.826 112.478 259.852C112.46 259.87 112.434 259.625 112.412 259.498C112.438 259.349 112.465 259.205 112.504 258.978Z" fill="black"/>
<path d="M97.4472 257.097L97.4297 257.267L97.4472 257.097Z" fill="black"/>
<path d="M51.0814 177.419C51.9956 183.136 53.1724 196.859 52.7612 201.553C52.7612 202.117 53.0062 203.815 53.3605 206.02C53.4305 206.444 53.5005 206.886 53.5792 207.341C53.6317 207.664 53.6886 207.997 53.7454 208.338C53.7629 208.434 53.7761 208.53 53.7936 208.627C54.7735 214.362 56.1296 221.597 56.357 222.879C57.1838 227.503 60.6047 231.177 63.7281 235.018C66.3966 238.303 69.59 241.164 73.457 243.43C76.2917 245.093 79.3101 246.471 82.5691 247.385C87.8404 248.868 93.2386 249.397 98.7855 248.859C102.429 248.505 105.929 247.731 109.267 246.497C114.792 244.458 119.459 241.409 123.313 237.402C124.46 236.212 125.483 234.979 126.393 233.715C126.682 233.312 126.962 232.905 127.229 232.498C127.828 231.58 128.366 230.644 128.852 229.686C129.009 229.371 129.162 229.051 129.306 228.732C130.899 225.259 131.765 221.558 131.931 217.625C132.01 215.766 131.774 213.898 131.944 212.043C132.531 205.705 134.328 205.035 134.324 178.714C134.324 178.171 135.05 162.331 135.015 161.714C133.235 161.701 131.376 161.679 129.468 161.653C105.404 161.281 72.2147 159.479 49.7253 155.468C49.3709 155.406 49.0253 155.341 48.6798 155.275C48.3692 155.218 48.0586 155.161 47.7524 155.105C47.5686 155.07 47.3805 155.039 47.2012 155.004C47.2012 155.721 50.9939 176.876 51.0814 177.423V177.419Z" fill="#47763B"/>
<path d="M67.6565 167.279C76.4099 167.879 83.8466 163.36 84.2709 157.187C84.2753 157.104 84.2753 157.025 84.2797 156.947L75.9725 156.378L68.8333 163.622L60.3948 155.306L52.6038 154.772C52.595 154.851 52.5863 154.934 52.5776 155.013C52.1532 161.186 58.9031 166.68 67.6565 167.279Z" fill="white"/>
<path d="M75.9741 156.372L60.3965 155.305L68.8349 163.621L75.9741 156.372Z" fill="black"/>
<path d="M113.043 170.393C121.797 170.993 129.233 166.474 129.658 160.301C129.662 160.218 129.662 160.14 129.666 160.061L121.359 159.492L114.22 166.736L105.782 158.42L97.9905 157.887C97.9818 157.965 97.973 158.049 97.9643 158.127C97.5399 164.3 104.29 169.794 113.043 170.393Z" fill="white"/>
<path d="M121.359 159.488L105.781 158.421L114.22 166.737L121.359 159.488Z" fill="black"/>
<path d="M135.921 151.88C135.72 151.504 135.584 151.014 135.344 150.682C135.103 150.345 134.819 150.222 134.408 150.546C133.935 150.909 133.743 150.844 133.69 150.634C133.664 150.524 133.668 150.376 133.69 150.205C133.708 150.039 133.716 149.855 133.734 149.676C133.743 149.527 133.751 149.391 133.765 149.26C133.756 149.129 133.747 149.006 133.743 148.893C133.716 148.661 133.716 148.442 133.66 148.267C133.546 147.913 133.454 147.62 133.262 147.427C133.069 147.235 132.855 147.077 132.553 146.972C132.395 146.928 132.22 146.889 132.024 146.858C131.827 146.828 131.621 146.793 131.363 146.81C131.048 146.819 130.755 146.845 130.462 146.88C130.156 146.928 129.863 146.963 129.578 146.946C129.281 146.928 128.747 146.6 128.572 146.298C128.38 146.001 128.493 145.59 128.463 145.222C128.804 145.367 129.114 145.568 129.443 145.73C129.591 145.804 129.731 145.87 129.858 145.927C129.976 145.992 130.086 146.045 130.186 146.084C130.383 146.163 130.541 146.193 130.667 146.167C130.912 146.115 131.031 145.852 130.987 145.31C130.934 144.641 130.904 144.221 131.814 144.199C132.142 144.177 132.496 144.221 132.675 144.102C132.855 144.002 132.863 143.761 132.474 143.324C132.199 143.039 131.153 142.641 130.886 142.799C130.208 143.079 129.6 143.088 129.036 142.991C128.751 142.934 128.471 142.825 128.187 142.676C127.916 142.532 127.667 142.37 127.408 142.156C126.407 141.338 125.339 141.421 124.307 141.648C123.716 141.78 123.183 141.766 122.688 141.622C122.19 141.495 121.73 141.237 121.284 140.857C120.772 140.424 120.274 139.947 119.67 139.614C119.114 139.308 118.344 138.945 117.815 139.015C116.94 139.151 116.704 139.732 117.203 140.537C117.736 141.417 116.621 141.255 116.315 141.119C115.615 140.791 115.042 140.253 114.403 139.807C113.257 139.011 112.08 138.228 110.505 138.682C110.243 138.757 109.757 138.783 109.626 138.656C108.651 137.707 107.469 137.401 106.258 137.287C105.042 137.186 103.795 137.239 102.666 136.898C101.135 136.412 99.6171 136.237 98.1167 136.189C97.3643 136.167 96.6162 136.189 95.8725 136.237C95.1289 136.294 94.3808 136.412 93.6372 136.539C93.016 136.648 92.736 136.626 92.1323 136.443C90.0982 135.795 87.7928 134.684 85.9468 136.596C85.0544 137.532 84.5119 138.013 83.6064 136.657C83.5145 136.521 82.7446 136.692 82.3203 136.815C82.0359 136.898 81.9222 138.359 81.5198 136.871C81.2966 136.058 80.9204 135.62 80.0893 136.268C78.8732 137.204 77.4821 136.994 76.9353 135.992C76.3228 134.877 75.4742 135.187 74.6868 135.113C73.8906 135.03 73.0244 135.375 72.2633 135.248C70.4741 134.938 68.6937 134.794 66.9439 134.951C65.1897 135.117 63.4617 135.502 61.7732 136.176C60.9333 136.521 59.9928 136.696 59.2403 137.147C58.4704 137.606 57.6874 137.764 56.9131 137.755C56.1432 137.764 55.3776 137.611 54.6515 137.431C53.7809 137.213 53.2866 136.985 52.5429 137.659C52.1536 138.018 51.4318 138.053 50.8631 138.267L50.8456 138.293C48.6846 139.881 46.2174 139.396 43.8289 139.535C42.7703 139.575 41.4273 138.661 40.9242 140.424C40.9242 140.437 40.7318 140.445 40.513 140.432L26.1777 139.605L40.5874 146.421C40.7755 146.508 40.9767 146.627 41.0423 146.74C41.4448 147.44 41.8735 147.563 42.744 147.313C43.4527 147.108 44.3276 147.204 45.1106 147.305C46.0905 147.436 46.6767 147.082 47.0267 146.399C47.4816 145.515 46.4142 145.489 45.9593 145.091C45.5831 144.772 44.6732 144.614 45.2506 143.923C45.5962 143.508 46.2218 143.096 45.5043 142.641C45.0057 142.326 44.1614 142.134 43.6189 142.274C42.7747 142.488 41.9172 143.127 41.3179 142.637L41.3398 144.199C41.6198 144.286 41.926 144.531 42.276 145.012C42.3897 145.17 43.3433 144.894 43.8727 144.724C45.3425 144.251 46.6549 143.525 48.409 144.054C50.2026 144.592 51.7118 143.284 52.3417 141.543C52.5823 140.878 51.9568 139.798 53.2997 139.54C53.3522 140.34 53.4485 141.141 53.4441 141.941C53.4441 142.296 53.0854 142.681 53.1554 143C53.2297 143.35 53.6541 143.941 53.8422 143.914C55.0977 143.735 56.4144 143.739 57.6743 143.56C58.9385 143.411 60.1459 143.074 61.2045 142.151C61.6594 141.758 62.1406 141.456 62.6437 141.294C63.1468 141.141 63.6717 141.132 64.201 141.298C64.9884 141.543 65.5265 142.536 66.2964 142.711C66.8651 142.843 67.9456 141.753 68.2781 141.963C69.5773 142.803 70.3691 141.95 71.2221 141.425C71.6421 141.167 71.9352 140.563 72.0314 140.074C72.062 139.916 71.3096 139.549 70.8678 139.409C70.0585 139.155 69.2361 138.932 68.4137 138.7C67.5913 138.468 66.7733 138.267 65.964 137.996C65.544 137.86 65.229 137.239 65.0672 136.775C65.0016 136.596 65.4346 136.115 65.7452 135.983C67.1363 135.367 70.5266 135.983 71.3227 137.143C72.1889 138.389 73.4094 138.499 74.4637 138.061C75.4785 137.628 76.3928 137.834 77.2896 138.105C78.1864 138.376 79.0569 138.704 80.0062 138.577C80.1637 138.556 80.5092 139.579 80.763 140.113C80.2686 140.262 79.7612 140.577 79.2844 140.533C78.0026 140.445 76.7384 140.205 75.4523 140.082C74.9842 140.039 74.4768 140.13 74.0306 140.266C73.8162 140.332 73.6369 140.629 73.5494 140.861C73.5144 140.957 73.7331 141.25 73.8731 141.277C75.4173 141.605 77.1146 142.427 78.4532 142.06C80.623 141.504 82.5871 141.613 84.63 142.165C84.8969 142.243 85.3999 142.068 85.5793 141.858C85.8724 141.508 85.9555 141.018 86.1874 140.616C86.9704 139.286 87.0448 139.312 88.3046 140.24C88.7989 140.607 89.7395 141.18 89.9188 141.049C91.2574 140.091 92.4254 140.857 93.5715 141.277C95.1114 141.828 96.5287 142.182 98.1429 141.438C98.6329 141.215 99.5034 141.351 100.072 141.574C101.647 142.204 103.379 142.274 105.09 142.427C106.796 142.585 108.467 142.952 109.858 144.05C110.063 144.216 110.632 144.015 111.021 144.067C113.742 144.522 116.573 144.728 119.154 145.62C119.889 145.861 120.615 146.097 121.345 146.307C122.072 146.526 122.793 146.758 123.524 146.942C124.254 147.13 124.989 147.287 125.737 147.405C126.109 147.466 126.499 147.515 126.866 147.554C127.198 147.598 127.544 147.628 127.894 147.65C128.432 147.703 129.027 148.035 129.338 148.394C129.403 148.46 129.469 148.525 129.539 148.586C129.587 148.652 129.639 148.718 129.688 148.779C129.74 148.84 129.788 148.897 129.845 148.949L129.924 149.028C129.946 149.054 129.959 149.081 129.976 149.107C130.042 149.212 130.134 149.291 130.199 149.374C130.247 149.461 130.309 149.536 130.383 149.601C130.427 149.689 130.484 149.763 130.558 149.833C130.611 149.929 130.672 150.034 130.751 150.131C130.821 150.244 130.877 150.393 130.952 150.524C131.035 150.651 131.079 150.848 131.153 151.01C131.49 151.902 131.485 152.935 131.328 154.12C131.179 155.201 131.013 156.351 130.965 157.523C130.917 158.661 130.956 159.789 131.166 160.936C131.761 164.199 131.516 167.48 130.912 170.669C130.335 173.644 129.709 176.627 129.871 179.729C129.994 182.493 129.836 185.262 129.758 188.005C129.688 190.109 129.316 191.89 128.856 193.736C128.699 194.348 128.528 195.061 128.502 195.669C128.463 196.61 128.301 197.13 127.973 197.647C127.548 198.307 127.597 198.74 127.894 199.252C128.349 200.035 128.314 200.682 127.903 202.319C127.636 203.351 127.299 204.366 127.12 205.403C126.485 209.165 125.807 212.918 124.985 216.645C124.495 218.88 123.935 221.107 123.345 223.321C122.776 225.438 121.901 227.686 121.455 229.519C120.842 232.188 119.587 234.712 118.589 237.144C118.397 237.621 118.174 238.12 117.868 238.592C117.57 239.069 117.229 239.541 116.778 239.935C116.542 240.141 116.271 240.534 115.96 240.932C115.65 241.331 115.352 241.777 115.12 242.14C113.966 243.876 112.526 245.233 110.759 245.858C110.54 245.937 109.919 246.453 109.88 246.549C109.81 246.821 109.989 246.991 110.068 247.205C109.569 247.319 109.092 247.319 108.546 247.464C108.274 247.547 107.951 247.617 107.636 247.717C107.325 247.822 107.014 247.927 106.752 248.05C105.002 248.929 103.099 249.406 101.183 249.24C100.908 249.218 100.505 249.388 100.151 249.454C98.9916 249.642 97.793 249.856 96.5987 249.782C94.6171 249.646 92.6573 249.187 90.7893 248.535C89.5689 248.107 88.5015 248.085 87.3029 247.91C86.2224 247.761 85.0894 246.799 84.0045 246.191C82.7752 245.517 81.5154 244.883 80.3299 244.135C79.9318 243.89 79.6037 243.492 79.2056 243.308C78.3613 242.914 77.5214 242.52 76.6903 242.079C75.8547 241.624 75.0192 241.164 74.1793 240.705C73.615 240.381 72.9544 240.009 72.6132 239.524C72.4076 239.222 72.1845 238.942 71.9483 238.68C71.7121 238.417 71.4715 238.163 71.2396 237.897C70.7672 237.376 70.2597 236.882 69.7567 236.365C69.2011 235.823 68.7593 235.202 68.2431 234.655C67.74 234.095 67.1626 233.623 66.5064 233.194C66.2571 233.036 65.999 232.564 65.9727 232.266C65.9027 231.44 65.5834 230.849 65.1459 230.342C64.7172 229.821 64.1485 229.401 63.5449 228.968C63.2518 228.763 62.9499 228.522 62.6743 228.255C62.4119 227.979 62.18 227.682 62.0182 227.367C61.4932 226.335 61.0251 225.298 60.5527 224.252C60.0671 223.216 59.4591 222.249 58.6498 221.33C58.1205 220.744 57.9499 219.755 57.5474 218.994C57.1668 218.272 56.8693 217.511 56.5981 216.746C56.3138 215.985 56.1301 215.175 55.872 214.405C55.347 212.866 54.8221 211.343 53.6453 210.026C53.4703 209.821 53.5753 209.313 53.4835 208.963C53.2954 208.25 53.0854 207.542 52.8229 206.851C52.5604 206.116 52.2149 205.407 51.983 204.663L51.6243 203.504L51.3006 202.336C51.0819 201.557 50.8456 200.787 50.6007 200.018C50.1588 198.469 49.5726 196.964 48.9121 195.464C48.5709 194.716 48.4178 193.381 48.6671 192.703C49.0433 191.636 49.0608 190.625 48.9208 189.619C48.7896 188.609 48.4659 187.607 48.0941 186.579C47.1142 183.74 46.4099 180.717 46.423 177.629C46.4011 175.512 45.9899 173.267 46.4799 171.246C46.5499 170.94 46.5411 170.411 46.458 170.091C45.9855 168.206 45.9418 166.281 46.0468 164.273C46.0862 163.245 45.8849 162.099 45.9593 161.08C46.038 159.811 45.8981 158.766 45.8062 157.58C45.6093 155.271 45.5306 152.895 45.5787 150.529C45.6268 148.197 45.7974 145.848 45.8674 143.503C45.8849 143.009 45.8893 142.497 45.8937 142.003C45.8937 141.854 45.8762 141.596 45.8718 141.622C45.8499 141.714 45.8106 141.88 45.7974 142.064C45.6925 143.836 45.5525 145.612 45.4256 147.401C45.2725 149.732 45.1194 152.077 44.9663 154.418C44.9488 154.667 44.8394 154.886 44.7782 155.135C44.3757 156.754 44.3495 156.784 44.835 157.891C44.9138 158.07 45.0669 158.355 45.0538 158.49C44.8963 159.912 44.9007 161.408 44.8613 162.882C44.8351 164.356 44.7388 165.813 44.3276 167.169C44.1964 167.589 44.2795 168.604 44.4282 169.138C44.8744 170.708 45.08 172.056 44.2664 173.407C44.1483 173.604 44.1264 174.427 44.2357 174.672C44.8569 176.098 44.5901 177.489 44.1614 178.561C43.7239 179.624 43.7983 180.52 44.2314 181.273C44.6688 182.051 44.9094 182.799 44.9488 183.556C45.0057 184.309 44.87 185.065 44.542 185.862C44.2445 186.592 44.3101 187.1 44.8919 187.52C45.3906 187.887 46.143 187.646 46.3443 188.845C46.4274 189.335 46.5455 189.891 46.6199 190.415C46.7073 190.936 46.7423 191.426 46.6374 191.785C46.4405 192.458 46.3049 193.128 46.2218 193.797C46.1518 194.466 46.1518 195.14 46.1911 195.827C46.2393 196.509 46.3093 197.205 46.458 197.913C46.6067 198.622 46.7948 199.344 47.0092 200.096C47.1885 200.752 47.346 201.422 47.4729 202.104C47.5997 202.787 47.6872 203.487 47.766 204.195C47.9541 205.599 48.0984 207.043 48.3784 208.438C48.5271 209.103 48.8684 209.786 49.2183 210.372C49.7126 211.234 50.2769 212.052 50.8413 212.866C51.4012 213.679 51.9524 214.488 52.5561 215.276C53.4266 216.453 53.2866 217.498 52.2455 217.866C51.9436 217.971 51.6199 218.01 51.3093 218.08C51.5543 218.622 51.7862 219.265 52.1536 219.642C52.6173 220.105 53.4354 220.188 53.7197 220.683C53.9515 221.098 54.1965 221.514 54.4415 221.925C54.6821 222.341 54.9183 222.761 55.1502 223.181L55.837 224.449L56.5631 225.7C56.9568 226.387 56.9918 227.175 56.2875 227.315C55.557 227.455 55.347 227.686 55.4214 228.01C55.4957 228.334 55.8588 228.749 56.3225 229.222C56.8956 229.826 57.4468 230.434 58.0286 230.985C58.606 231.536 59.2841 231.987 60.0146 232.323C60.9639 232.748 61.4232 232.975 61.6332 233.334C61.8607 233.679 61.83 234.152 61.7951 235.062C61.7382 237.1 61.7251 237.148 63.8161 238.601C64.2798 238.929 64.7478 239.261 65.1984 239.616C65.6577 239.961 66.1215 240.307 66.5283 240.696C67.3157 241.435 68.0594 242.219 68.8774 242.932L70.0848 244.021L70.6928 244.563C70.8984 244.738 71.1171 244.9 71.3315 245.066C71.5152 245.206 71.8652 245.206 72.1014 245.189C72.1758 245.184 72.2108 244.904 72.1364 244.786C71.9002 244.41 71.594 244.065 71.3315 243.688C71.769 243.96 72.2545 244.165 72.6526 244.476C73.1382 244.848 73.8993 245.351 73.9606 245.701C74.0481 246.217 74.2624 246.597 74.538 246.908C74.8092 247.219 75.1548 247.442 75.5267 247.621C75.8985 247.805 76.3053 247.936 76.7165 248.054C77.1277 248.181 77.5389 248.29 77.937 248.43C79 248.82 80.1461 249.091 81.1129 249.594C83.7114 250.924 86.3886 252.136 89.267 252.87C92.3161 253.636 95.5357 253.942 98.7422 253.719C100.256 253.623 101.909 253.33 102.181 252.381L101.931 252.363L102.185 252.376C103.261 252.512 104.263 252.271 105.173 251.904C106.078 251.51 106.901 250.985 107.657 250.412C107.964 250.176 108.274 249.931 108.585 249.695C108.895 249.467 109.232 249.305 109.6 249.226C110.742 249.043 111.813 248.404 112.824 247.634C113.34 247.258 113.791 246.786 114.272 246.348C114.735 245.893 115.155 245.39 115.606 244.926C117.124 243.203 118.358 241.191 119.512 239.397C119.823 238.946 120.046 238.448 120.269 237.949C120.497 237.455 120.685 236.943 120.873 236.44C121.275 235.442 121.647 234.467 122.273 233.631C122.386 233.474 122.645 232.63 122.697 232.28C122.881 230.871 123.428 229.616 123.939 228.141C125.016 225.075 126.096 221.951 126.464 218.684C126.529 218.15 126.774 217.367 126.953 216.711C127.64 214.213 128.34 211.724 128.957 209.195C129.478 207.047 129.434 207.039 128.686 207.179C128.603 207.196 128.541 207.052 128.471 206.986C128.563 206.776 128.668 206.426 128.743 206.374C129.263 206.002 129.67 205.144 129.928 203.605C129.981 203.29 130.129 202.857 130.247 202.66C131.026 201.365 131.372 199.558 131.35 198.097C131.332 196.479 131.643 195.319 132.159 193.928C132.658 192.524 133.17 191.098 133.332 189.37C133.537 187.117 133.795 184.829 134.018 182.546C134.071 181.995 134.311 181.417 134.478 180.857C134.727 180.009 134.963 179.142 135.243 178.316C135.637 177.161 135.786 176.225 135.138 175.56C134.771 175.183 134.797 174.715 135.339 174.457C135.79 174.243 136.101 173.875 135.877 172.952C135.291 170.511 135.204 168.154 136.744 165.888C136.897 165.664 136.949 165.161 136.967 164.794C137.006 163.888 137.115 162.913 136.971 162.09C136.621 160.148 136.853 157.502 134.797 157.169C134.263 157.077 133.585 156.185 133.983 155.179C134.163 154.724 134.053 153.985 134.088 153.385C134.136 152.79 134.316 152.318 135.182 152.397C135.431 152.423 135.707 152.068 135.969 151.88H135.921ZM134.648 160.73C134.889 160.586 135.129 160.345 135.37 160.319C135.598 160.293 136.013 160.472 136.017 160.608C136.026 161.259 136.044 162.042 135.825 162.567C135.519 163.307 135.016 163.853 134.6 164.466C134.596 164.475 134.469 164.273 134.355 164.103C135.173 163.088 135.178 161.924 134.653 160.73H134.648ZM130.274 200.433C130.243 200.617 130.016 200.792 129.884 200.971C129.915 200.446 129.906 199.926 129.976 199.388C130.011 199.134 130.186 198.841 130.523 198.049C130.418 199.23 130.383 199.829 130.274 200.429V200.433ZM93.589 138.328C93.7247 138.538 93.8996 138.739 93.9696 138.962C93.9959 139.041 93.6897 139.291 93.6634 139.277C93.4491 139.159 93.2609 138.997 92.9635 138.77C93.2435 138.573 93.4184 138.451 93.5934 138.328H93.589ZM97.6792 251.283C97.8804 251.234 98.0773 251.134 98.2785 251.129C98.4973 251.121 98.7204 251.199 98.9478 251.234C98.6985 251.287 98.4491 251.339 98.261 251.383C98.0117 251.344 97.8455 251.318 97.6836 251.283H97.6792Z" fill="black"/>
<path d="M75.0282 146.071C74.6739 146.119 74.3764 146.325 74.0527 146.461C74.3896 146.596 74.7964 146.679 75.0458 146.872C75.9425 147.559 77.3467 148.189 77.5436 148.915C77.8761 150.166 78.9391 150.096 80.1202 150.162C80.8245 150.205 81.5813 150.302 82.2331 150.188C83.9566 149.886 85.549 150.026 87.2725 150.372C88.0862 150.529 89.5166 150.398 90.0241 150.07C90.7371 149.606 91.5158 149.392 92.347 149.304C93.1781 149.208 94.0618 149.23 94.9804 149.269C96.1878 149.317 97.4127 149.26 97.8151 150.14C98.0076 150.564 98.7381 150.586 99.5299 150.35C101.411 149.781 101.398 149.847 103.148 150.455C103.983 150.756 105.09 151.194 105.256 150.166C105.265 150.1 105.772 149.965 105.904 149.991C106.857 150.179 107.741 150.131 108.594 150.017C109.447 149.908 110.269 149.72 111.109 149.588C112.478 149.383 113.821 149.383 114.709 149.72C115.681 150.1 117.024 149.965 117.872 149.772C118.778 149.553 119.233 149.151 119.793 148.849C119.876 148.805 119.416 148.617 119.224 148.622C117.636 148.657 116.157 148.622 114.753 148.342C114.565 148.307 114.15 148.359 113.909 148.412C112.977 148.609 112.05 148.832 111.066 148.945C110.081 149.064 109.04 149.059 107.894 148.762C106.184 149.147 104.631 148.775 103.008 148.525C101.892 148.368 100.79 148.04 99.508 148.311C99.0269 148.412 98.1913 148.171 97.5439 148.018C96.5946 147.808 95.6978 147.493 94.7311 147.327C94.1099 147.222 93.0338 147.174 92.7932 147.371C91.4983 148.434 89.9672 148.241 88.2043 147.611C87.8281 147.476 87.2463 147.589 86.7607 147.567C85.982 147.524 85.1946 147.506 84.4247 147.397C83.0949 147.204 81.7694 147.029 80.387 146.793C79.0091 146.553 77.5742 146.303 76.0256 146.032C75.995 146.032 75.4832 145.993 75.0195 146.054L75.0282 146.071ZM81.415 148.04L81.2794 148.189C80.7764 148.364 80.2864 148.556 79.7527 148.687C79.6259 148.718 79.3503 148.512 79.1447 148.416C79.2628 148.324 79.3634 148.158 79.4946 148.154C80.0808 148.136 80.6758 148.171 81.2663 148.18L81.415 148.04Z" fill="black"/>
<path d="M52.6641 147.392C52.7428 146.898 52.7647 146.386 52.9178 145.909C53.014 145.616 53.4121 145.126 53.504 145.152C55.3675 145.725 56.6449 144.181 58.539 144.588C60.1357 144.894 61.8418 144.373 63.4691 145.191C64.6852 145.795 65.9713 145.708 67.2093 145.353C67.8393 145.17 68.4867 144.99 69.156 144.916C70.9714 144.71 72.4106 145.31 72.8743 146.635C73.2724 147.768 73.898 148.709 75.136 149.452C75.3066 149.553 75.4072 149.894 75.3022 149.99C75.1622 150.117 74.7073 150.205 74.5148 150.13C73.1762 149.61 71.7851 149.115 70.6083 148.415C69.5541 147.794 68.7229 147.519 67.3493 147.742C65.547 148.022 63.6791 148.971 61.6843 147.891C60.2014 148.481 58.8496 148.293 57.6291 147.291C57.5417 147.221 57.2092 147.252 57.0692 147.331C55.6737 148.118 54.1645 147.611 52.6859 147.414L52.6641 147.392Z" fill="black"/>
<path d="M52.6865 147.414C52.6515 147.663 52.599 147.908 52.5859 148.158C52.5596 148.796 52.5509 149.435 52.5334 150.069C51.9166 149.549 50.976 149.067 50.7617 148.437C50.2105 146.815 49.1694 145.559 47.752 144.365C46.9165 143.661 47.3233 142.891 48.417 142.65C50.4205 142.213 51.4616 142.965 51.291 144.741C51.186 145.843 50.7661 146.994 52.6602 147.392L52.6821 147.414H52.6865Z" fill="black"/>
<path d="M124.385 148.582C125.431 148.538 126.437 148.603 127.163 148.665C127.893 148.73 128.348 148.818 128.313 148.936C128.305 148.958 127.867 149.054 127.745 149.063C127.399 149.076 126.865 149.089 126.835 149.041C126.559 148.66 124.901 148.805 123.453 148.905C122.972 148.936 122.508 149.041 122.027 149.076C121.699 149.098 121.358 149.054 121.025 149.028C121.279 148.967 121.502 148.87 121.791 148.84C122.832 148.717 123.895 148.625 124.385 148.582Z" fill="black"/>
<path d="M49.177 213.39C48.9626 213.071 48.6477 212.756 48.5689 212.419C48.4989 212.113 48.6433 211.741 48.7964 211.483C48.8314 211.418 49.2864 211.645 49.387 211.833C49.5182 212.1 49.4832 212.467 49.5226 212.791L49.1814 213.39H49.177Z" fill="black"/>
<path d="M65.8118 150.962C65.3 151.01 64.915 151.124 64.8188 151.041C64.5957 150.857 64.5126 150.573 64.377 150.328C64.6263 150.271 64.9806 150.109 65.0987 150.183C65.3612 150.341 65.5056 150.612 65.8118 150.966V150.962Z" fill="black"/>
<path d="M50.8272 138.297C50.731 138.315 50.6303 138.35 50.5341 138.35C49.9567 138.358 49.3836 138.367 48.8105 138.376C48.8499 138.205 48.828 137.978 48.9418 137.877C49.8473 137.081 50.3373 137.733 50.8491 138.271L50.8316 138.297H50.8272Z" fill="black"/>
<path d="M136.696 154.483L135.979 156.451C135.931 156.394 135.852 156.346 135.843 156.276C135.686 155.31 136.123 154.833 136.67 154.452L136.696 154.487V154.483Z" fill="black"/>
<path d="M132.654 148.346C132.466 148.39 132.33 148.425 132.19 148.456C131.971 148.456 131.696 148.46 131.565 148.442C131.521 148.438 131.849 148.368 132.041 148.351C132.208 148.337 132.418 148.351 132.654 148.342V148.346Z" fill="black"/>
<path d="M136.67 154.448C136.788 154.12 136.893 153.757 137.007 153.407C137.12 153.061 137.221 152.681 137.322 152.296C137.374 152.34 137.475 152.427 137.479 152.427L137.295 152.978L137.099 153.49C136.967 153.827 136.836 154.168 136.696 154.483L136.67 154.448Z" fill="black"/>
<path d="M55.3208 149.816C55.4651 150.053 55.7057 150.293 55.6401 150.376C55.5264 150.525 55.2245 150.661 55.0014 150.652C54.8527 150.648 54.7127 150.381 54.5684 150.232C54.7783 150.114 54.9927 149.996 55.3164 149.816H55.3208Z" fill="black"/>
<path d="M135.922 151.881L136.092 152.03L135.922 151.881Z" fill="black"/>
<path d="M16.1204 213.626C16.5404 213.473 16.9997 213.578 17.3147 212.712C17.6821 211.723 17.7915 212.156 17.8877 212.467C18.2202 213.503 18.2158 213.547 19.3357 212.869C19.6813 212.659 20.0487 212.379 20.3549 212.287C20.5168 212.239 20.6655 212.484 20.6612 212.72C20.6568 212.965 20.4556 213.355 20.3418 213.683C20.2456 213.569 20.1537 213.447 20.0487 213.346C19.6681 212.974 19.4275 213.114 19.1563 214.015C18.9901 214.58 18.8632 214.925 18.4302 215.175C18.1152 215.354 17.7521 215.638 17.8615 216.089C17.9008 216.259 18.2508 216.308 18.417 216.159C19.2001 215.459 19.5588 215.656 19.7338 216.369C19.9 217.069 20.4206 216.951 20.9586 216.697C21.5842 216.391 21.8992 216.614 22.0479 217.287C22.131 217.672 22.201 218.101 22.3629 218.394C22.516 218.652 22.7478 218.958 23.0059 218.867C23.4302 218.714 23.6971 218.167 23.7321 217.419C23.7714 216.614 24.1958 216.727 24.2833 216.854C24.4801 217.147 24.5589 217.646 24.7076 218.044C24.9657 218.757 25.2719 219.44 26.0462 219.015C26.1774 218.945 26.383 218.915 26.4049 219.028C26.5624 219.917 26.9955 220.175 27.4723 220.28C27.9491 220.393 28.4784 220.323 28.8678 220.647C29.1302 220.866 29.4102 221.036 29.6945 221.159C29.9833 221.273 30.2764 221.338 30.5782 221.364C31.1819 221.421 31.8118 221.321 32.4549 221.084C32.7217 220.988 32.8311 221.015 33.041 221.211C33.391 221.544 33.7497 222.012 34.1566 222.161C34.559 222.314 35.0096 222.165 35.5083 221.246C35.9938 220.354 36.2651 219.868 36.4313 221.273C36.4488 221.413 36.7725 221.281 36.9519 221.181C37.0744 221.115 37.2975 219.672 37.2712 221.168C37.2537 221.986 37.3587 222.445 37.7568 221.837C38.343 220.945 38.8373 221.273 38.9379 222.296C39.0473 223.447 39.4016 223.189 39.6859 223.32C39.9703 223.451 40.329 223.167 40.5871 223.372C41.812 224.335 42.945 224.484 44.2354 223.674C44.5548 223.477 44.8785 223.464 45.2022 223.167C45.8846 222.546 46.2958 223.145 46.5496 223.801C46.707 224.195 46.7289 224.523 47.1401 224.059C47.3588 223.823 47.5469 223.945 47.7526 223.906L47.7657 223.884C48.2994 223.455 48.6756 223.521 48.9468 223.779C49.218 224.037 49.3799 224.466 49.5549 224.803C49.6423 224.947 49.5767 225.31 49.6248 225.481C49.673 225.651 49.8436 225.617 50.4254 225.043C50.4385 225.03 50.526 225.258 50.4385 225.442C50.1717 226.01 50.211 226.106 50.6354 225.945C50.9941 225.809 51.1997 225.94 51.3834 226.058C51.5978 226.211 52.0177 226.028 52.6301 225.612C53.4219 225.078 53.0807 224.908 53.1813 224.567C53.2644 224.291 53.0107 224.055 53.6844 223.622C54.0912 223.364 54.638 223.176 54.6249 222.712C54.6162 222.388 54.3624 222.082 54.0344 222.117C53.6888 222.148 53.2469 222.34 53.0063 222.331C52.7657 222.314 52.7395 222.069 53.1813 221.141C53.2601 220.98 52.8489 220.791 52.617 220.708C52.2845 220.595 51.9346 220.56 51.6459 220.42C51.344 220.293 51.1166 220.043 50.9634 219.536C50.8103 218.998 50.421 218.875 49.9836 219.085C49.5417 219.278 49.0605 219.825 48.6318 220.533C48.3081 221.085 48.0806 222.222 47.6169 222.139C47.8838 221.382 48.1375 220.616 48.4262 219.877C48.5531 219.549 48.8199 219.287 48.9162 218.976C49.0212 218.635 49.0868 217.979 49.0037 217.952C48.47 217.782 47.9625 217.436 47.4201 217.309C46.8776 217.178 46.3002 217.266 45.6922 217.961C45.1672 218.556 44.7254 218.775 44.3798 218.298C44.1261 217.948 44.0867 216.898 43.8067 216.618C43.6011 216.413 43.0149 217.336 42.9187 217.095C42.525 216.133 42.1007 216.902 41.7113 217.34C41.5189 217.554 41.3395 218.127 41.2433 218.6C41.2126 218.753 41.4532 219.186 41.602 219.37C42.14 220.026 42.7044 220.577 43.1856 221.308C43.3124 221.496 43.3168 222.152 43.2993 222.624C43.2905 222.812 43.0718 223.224 42.9493 223.311C42.4156 223.709 41.3264 222.791 41.1645 221.57C40.9983 220.258 40.5521 220.013 40.1103 220.393C39.2529 221.119 38.8285 219.339 38.0805 219.532C38.0192 219.549 38.0061 218.517 37.9755 217.974C38.1767 217.847 38.4042 217.559 38.5748 217.616C39.0429 217.773 39.4891 218.11 39.9615 218.311C40.1321 218.385 40.3334 218.329 40.5215 218.219C40.609 218.167 40.7096 217.882 40.7708 217.659C40.7971 217.567 40.7446 217.261 40.6965 217.222C40.1409 216.797 39.5941 215.87 39.0604 216.141C38.1942 216.587 37.4899 216.382 36.8206 215.748C36.7331 215.664 36.5232 215.831 36.4269 216.032C36.2694 216.369 36.1688 216.854 36.0201 217.239C35.5345 218.525 35.4995 218.499 35.1714 217.541C35.0446 217.165 34.7865 216.561 34.699 216.692C34.0341 217.62 33.7191 216.841 33.3691 216.408C32.8923 215.831 32.4374 215.49 31.6718 216.216C31.44 216.43 31.1338 216.299 30.9632 216.076C30.5038 215.45 29.8433 215.446 29.2221 215.297C28.6097 215.14 28.0147 214.886 27.7785 213.853C27.7435 213.7 27.4679 213.902 27.3323 213.853C26.3655 213.56 25.3113 213.412 24.5151 212.755C24.0733 212.37 23.6271 212.029 23.1415 211.78C22.6603 211.522 22.1223 211.382 21.4792 211.408C21.2211 211.412 21.0242 211.181 20.9105 210.931C20.5387 210.157 19.8694 209.934 19.0776 209.881C18.5789 209.859 18.2552 209.65 17.9533 209.308C17.3978 208.696 16.9035 208.031 15.9367 207.939C15.2543 207.865 14.7031 207.598 14.2262 207.239C13.7625 206.867 13.4038 206.377 13.102 205.848C12.8352 205.341 12.5989 204.82 12.2708 204.387C11.9515 203.945 11.584 203.556 11.0372 203.302C10.5517 203.075 10.1492 202.76 9.73362 202.453C9.31367 202.147 8.93746 201.806 8.535 201.478C7.90507 200.984 7.65135 200.341 7.42387 199.667C7.34951 199.444 7.25764 199.186 7.09579 199.028C6.83769 198.783 6.79832 198.578 6.90768 198.28C7.04767 197.904 6.87269 197.83 6.45273 197.869C5.80968 197.926 5.64782 197.738 5.46409 197.134C5.35473 196.749 5.30223 196.342 5.136 195.997C4.81666 195.371 4.46233 194.759 4.18673 194.107L3.74928 193.14L3.3862 192.147L3.17622 191.543C3.1106 191.342 3.06686 191.132 3.00999 190.927C2.905 190.515 2.80438 190.104 2.71689 189.689C2.59003 188.884 2.61628 187.978 2.39318 187.3C2.00385 186.32 2.17008 185.253 1.89886 184.269C1.80699 183.884 1.77637 183.437 2.06947 183.013C2.20945 182.786 2.24882 182.3 2.19633 181.972C2.14383 181.569 2.10884 181.18 2.20945 180.826C2.31006 180.467 2.49817 180.135 2.82626 179.842C2.90937 179.767 2.91812 179.457 2.84813 179.408C2.67315 179.295 2.43255 179.273 2.2182 179.212C2.4413 179.067 2.71252 178.962 2.89625 178.787C3.08435 178.608 3.29433 178.367 3.3162 178.149C3.34682 177.768 3.44306 177.409 3.60492 177.072C3.7624 176.736 3.9855 176.425 4.30484 176.158C4.40108 176.084 4.34421 175.891 4.37046 175.756C4.4667 175.314 4.4667 174.828 4.6723 174.422C4.86478 174.098 5.08351 173.783 5.31973 173.481C5.43784 173.332 5.55596 173.184 5.68282 173.039C5.81405 172.899 5.95404 172.764 6.08965 172.628C6.45711 172.282 6.39586 171.81 6.44398 171.32C6.4921 170.883 7.20515 170.721 7.54636 170.397C7.93132 170.038 8.25941 169.636 8.61374 169.26C8.73186 169.133 8.96371 169.093 9.0337 168.945C9.17368 168.621 9.29617 168.284 9.41428 167.934C9.47552 167.759 9.52802 167.58 9.59801 167.405L9.81236 166.897C9.91298 166.666 9.98734 166.355 10.2454 166.316C10.8579 166.202 11.2385 165.891 11.654 165.572C12.1002 165.226 12.6645 165.108 12.8133 164.391C12.8439 164.255 13.0539 164.225 13.2245 164.312C14.1563 164.802 14.3312 164.286 14.5193 163.616C14.5675 163.459 14.6243 163.297 14.7118 163.175C14.7993 163.057 14.9087 162.969 15.0399 162.947C15.4686 162.868 15.9236 162.877 16.326 162.794C16.7416 162.742 17.1091 162.593 17.3847 162.147C17.4721 162.007 17.6296 161.98 17.7959 161.976C17.9665 161.985 18.1414 162.011 18.2814 161.95C18.8107 161.731 19.4363 161.814 20.0137 161.88C20.5912 161.924 21.0942 161.797 21.5798 161.145C21.6542 161.04 21.8423 161.28 21.9648 161.289C22.2229 161.315 22.4722 161.289 22.7259 161.267C22.9928 161.237 23.2553 161.092 23.5265 161.075C23.8064 161.066 24.0864 161.031 24.3708 161.036C24.6507 161.036 24.9351 161.027 25.2194 160.987C25.7881 160.891 26.3655 160.782 26.9911 160.471C27.3061 160.314 27.7741 160.489 27.9229 160.887C28.1635 161.49 28.4478 161.753 28.789 161.827C29.1346 161.893 29.5152 161.854 29.9526 161.727C30.2501 161.648 30.5476 161.582 30.8494 161.539C31.1425 161.512 31.4312 161.517 31.7199 161.543C32.0043 161.569 32.2843 161.626 32.5555 161.709C32.8223 161.792 33.0629 161.941 33.2991 162.103C33.6141 162.335 34.0078 162.44 34.3447 162.641C34.6771 162.847 34.979 163.105 35.1452 163.511C35.1933 163.634 35.3552 163.735 35.4952 163.73C35.8932 163.748 36.2388 163.866 36.5494 164.036C36.86 164.207 37.1487 164.426 37.3806 164.71C37.6299 164.99 38.0849 165.108 38.3255 165.397C38.6186 165.756 38.9729 165.939 39.3666 166.171C39.5547 166.285 39.7472 166.403 39.9309 166.534C40.1015 166.674 40.2677 166.819 40.4296 166.972C40.7489 167.282 41.0858 167.589 41.3351 167.96C41.5845 168.323 41.8032 168.708 42.0263 169.089C42.2538 169.47 42.4025 169.89 42.6169 170.279C42.7 170.445 42.8006 170.611 42.8968 170.773C42.9275 170.821 42.9931 170.9 42.9931 170.887C42.9931 170.848 42.9975 170.778 42.9712 170.712C42.84 170.401 42.7131 170.086 42.5906 169.767C42.4681 169.448 42.3588 169.124 42.1882 168.822L41.567 167.624C41.3351 167.239 41.077 166.867 40.8408 166.477C40.7883 166.394 40.8189 166.263 40.8014 166.154C40.6877 165.428 40.6615 165.41 39.9965 165.436C39.8872 165.441 39.6947 165.471 39.6684 165.423C39.5285 165.183 39.3579 164.955 39.1697 164.745C38.9641 164.553 38.7542 164.356 38.5486 164.163C38.3473 163.966 38.1549 163.756 37.993 163.516C37.8311 163.28 37.6824 163.026 37.6037 162.693C37.5555 162.488 37.1881 162.304 36.9344 162.3C36.5713 162.278 36.2476 162.252 36.0245 162.103C35.8014 161.95 35.6745 161.674 35.6745 161.167C35.6745 161.018 35.4252 160.799 35.2939 160.83C34.5109 161.053 34.2047 160.524 34.0516 159.881C33.9028 159.238 33.5485 159.106 33.1154 159.325C32.2143 159.78 31.7637 159.491 31.4356 158.555C31.2912 158.118 31.0769 158.074 30.7401 158.507C30.447 158.883 30.2807 159.644 29.8258 159.548C29.4496 159.474 28.9421 159.535 28.7584 159.159C28.5878 158.809 28.3909 158.52 28.1766 158.284C27.9622 158.043 27.7216 157.895 27.4679 157.763C27.2142 157.641 26.943 157.558 26.6543 157.51C26.5099 157.483 26.3655 157.47 26.2168 157.457C26.0681 157.457 25.9106 157.466 25.7531 157.483C25.2063 157.54 24.6638 157.352 24.0952 157.133C23.5265 156.941 22.9359 156.687 22.341 156.556C22.0566 156.495 21.7504 156.648 21.4923 156.818C21.1161 157.072 20.7574 157.343 20.4118 157.619C20.0706 157.916 19.7469 158.24 19.4275 158.533C18.9639 158.975 18.4827 158.525 18.2246 157.457C18.1502 157.147 18.1064 156.836 18.054 156.525C17.8177 156.613 17.5203 156.613 17.3672 156.84C17.179 157.125 17.2272 157.842 17.0216 157.951C16.3173 158.293 15.6086 158.612 14.8737 158.87C14.5718 158.975 14.1606 158.77 13.9594 158.113C13.5613 156.753 13.2989 157.09 12.9095 157.545C12.4239 158.113 11.899 158.59 11.829 159.588C11.7328 160.843 11.7065 160.769 10.5429 160.064C9.26117 159.321 9.24805 159.364 8.74498 160.406C8.50875 160.861 8.31628 161.364 7.97069 161.67C7.65135 161.976 7.28389 162.23 6.95143 162.518C6.61896 162.807 6.28213 163.096 5.96279 163.407C5.89717 163.472 5.97154 163.7 6.03278 163.857C6.05465 163.905 6.269 164.032 6.34337 164.028C6.57084 164.015 6.77645 163.958 6.9908 163.918C6.89018 164.106 6.83331 164.334 6.68896 164.474C6.50523 164.64 6.3215 164.955 6.07215 164.872C5.35473 164.631 5.06601 164.815 4.9304 165.13C4.79479 165.445 4.81666 165.887 4.7423 166.241C4.63293 166.714 4.58481 167.234 4.30484 167.558C3.58742 168.446 2.75626 169.277 2.18758 170.288C2.03447 170.554 1.87699 170.817 1.74138 171.093C1.61452 171.373 1.49203 171.652 1.37392 171.937L1.02833 172.794C0.923342 173.083 0.840226 173.38 0.748361 173.673C0.58213 174.229 0.394026 174.837 1.19019 175.275L1.2733 175.205L1.19456 175.279C0.787732 175.559 0.660871 175.926 0.656497 176.311C0.656497 176.504 0.682744 176.701 0.722114 176.898C0.770234 177.094 0.840226 177.296 0.90147 177.492C1.00646 177.816 1.21206 178.162 0.905844 178.372C0.678369 178.534 0.507763 178.722 0.3984 178.932C0.293412 179.142 0.232168 179.373 0.192798 179.61C0.153427 179.846 0.135929 180.095 0.122806 180.34C0.105307 180.585 0.100933 180.835 0.100933 181.084C0.100933 181.517 0.100933 181.963 0.100933 182.401C0.0878094 182.838 0.114056 183.267 0.0440642 183.678C-0.0871713 184.522 0.612751 185.336 0.114056 186.145C0.0659368 186.224 0.153427 186.556 0.249667 186.683C0.617126 187.186 0.569006 187.72 0.58213 188.332C0.63025 188.962 0.634624 189.61 0.722114 190.249C0.844601 190.878 1.01521 191.504 1.38704 192.064C1.5139 192.243 1.54452 192.567 1.60139 192.829C1.7895 193.831 2.02135 194.82 2.30569 195.809C2.58128 196.635 2.61628 196.618 3.22434 196.237C3.29433 196.194 3.39057 196.207 3.47369 196.189C3.46494 196.29 3.48681 196.43 3.43869 196.478C3.10623 196.819 3.03186 197.252 3.3337 197.786C3.39494 197.895 3.41682 198.083 3.38182 198.197C3.26808 198.564 3.28558 198.919 3.39494 199.225C3.51306 199.531 3.72741 199.781 3.98113 199.969C4.54107 200.376 4.65043 200.848 4.72042 201.482C4.75104 201.806 4.79042 202.13 4.87353 202.445C4.95227 202.764 5.08788 203.062 5.32411 203.324C5.62595 203.665 5.91904 204.015 6.20338 204.378L7.10454 205.424C7.24889 205.59 7.25764 205.896 7.32764 206.137C7.44137 206.5 7.56386 206.867 7.64698 207.261C7.76071 207.808 7.97069 208.153 8.65749 207.838C9.04245 207.663 9.18681 207.782 8.89809 208.232C8.65749 208.608 8.57875 208.915 9.04245 208.971C9.65488 209.05 10.1754 209.19 10.5123 209.523C10.8535 209.855 10.9891 210.402 10.9016 211.246C10.8841 211.412 11.0241 211.566 11.1422 211.662C11.4309 211.898 11.6978 212.204 12.0696 212.279C12.9576 212.427 13.7232 213.206 15.0268 211.592C15.3636 211.185 16.046 210.791 16.1642 211.299C16.2735 211.771 17.4196 211.43 16.4266 212.834C16.2823 213.04 16.2385 213.342 16.151 213.6L16.1204 213.626ZM13.8763 210.787C13.78 211.01 13.7188 211.251 13.5788 211.452C13.452 211.64 13.1414 211.933 13.0932 211.907C12.8614 211.78 12.5858 211.618 12.5464 211.325C12.4896 210.918 12.6121 210.406 12.6733 209.951C12.6733 209.947 12.8177 209.89 12.9489 209.838C12.7783 210.686 13.1545 210.971 13.8763 210.787ZM4.02925 198.84C3.99863 198.774 4.12986 198.613 4.18236 198.499C4.32672 198.652 4.5017 198.783 4.62856 198.949C4.68543 199.028 4.63293 199.199 4.61981 199.575C4.31797 199.221 4.13424 199.05 4.02925 198.84ZM32.7873 219.33C32.7742 219.12 32.7436 218.919 32.7567 218.7C32.7611 218.622 32.9273 218.381 32.9317 218.399C32.9929 218.517 33.0367 218.679 33.111 218.91C32.9667 219.098 32.8748 219.217 32.7873 219.335V219.33ZM3.14997 174.264C3.16747 174.356 3.22434 174.457 3.19809 174.531C3.16747 174.61 3.05811 174.658 2.98374 174.719C2.97499 174.614 2.97062 174.509 2.96187 174.43C3.04061 174.36 3.0931 174.312 3.1456 174.268L3.14997 174.264Z" fill="black"/>
<path d="M56.0434 235.35C56.074 235.166 55.9602 234.93 55.9034 234.724C55.7284 234.79 55.584 234.912 55.3828 234.904C55.0241 234.895 54.6479 234.912 54.2848 234.869C53.9261 234.829 53.5936 234.742 53.3049 234.536C52.3163 233.832 52.1894 234.138 51.9313 234.436C51.7651 234.593 51.542 234.707 51.472 234.965C51.3714 235.297 51.1876 235.529 50.9645 235.704C50.7283 235.857 50.444 235.949 50.129 235.975C49.8228 235.984 49.4991 236.387 49.4728 236.763C49.4203 237.865 48.7685 238.123 48.0905 238.268C47.6443 238.377 47.1893 238.539 46.8962 237.708C46.7563 237.314 46.5113 237.34 46.2619 237.612C45.6626 238.276 45.6189 238.193 44.9715 237.651C44.6565 237.371 44.2846 236.92 44.2147 237.948C44.2147 238.014 44.0222 238.141 43.9741 238.11C43.2873 237.717 42.6705 238.193 42.0099 238.316C41.4718 238.438 40.9688 238.316 40.7019 237.918C40.4132 237.467 39.9189 237.445 39.5689 237.537C39.1971 237.647 38.9434 237.988 38.6678 238.206C38.6284 238.237 38.7509 238.478 38.8253 238.495C39.4202 238.644 39.9539 238.867 40.4482 239.261C40.5138 239.318 40.6844 239.296 40.785 239.261C41.5768 239.033 42.3161 238.635 43.1648 239.278C43.8559 238.937 44.4334 239.348 45.1027 239.549C45.5533 239.668 46.0388 239.965 46.5288 239.611C46.7081 239.484 47.08 239.676 47.3687 239.751C47.7886 239.873 48.2348 240.066 48.6985 240.092C49.0004 240.123 49.4641 239.965 49.4991 239.746C49.5909 239.138 49.7659 238.806 50.0415 238.644C50.1815 238.565 50.3434 238.53 50.5315 238.526C50.7152 238.513 50.9252 238.53 51.157 238.57C51.3582 238.596 51.5157 238.373 51.6907 238.259C51.9707 238.08 52.2506 237.9 52.5525 237.752C53.6155 237.283 54.6873 236.719 55.8465 235.779C55.8552 235.77 56.004 235.577 56.0434 235.341V235.35ZM53.0556 236.374L52.9943 236.22C53.0118 235.936 53.0031 235.652 53.0249 235.385C53.0293 235.324 53.2349 235.385 53.3486 235.385C53.388 235.486 53.4843 235.639 53.458 235.682C53.3399 235.892 53.1693 236.054 53.0074 236.225L53.0599 236.374H53.0556Z" fill="black"/>
<path d="M53.5014 227.073C53.952 226.85 54.3982 226.61 54.8532 226.417C55.1375 226.295 55.68 226.172 55.68 226.216C55.6931 226.627 56.1437 226.75 56.5899 226.947C57.0579 227.126 57.5172 227.38 57.5522 227.843C57.5654 228.228 57.7841 228.583 57.8978 228.981C57.9897 229.374 58.0641 229.808 57.7097 230.188C57.4516 230.472 57.386 230.752 57.3773 231.046C57.3773 231.339 57.4866 231.654 57.6529 232.008C57.8016 232.354 57.9372 232.734 57.9591 233.106C57.9766 233.605 57.7579 233.985 57.4123 234.182C57.0448 234.366 56.5417 234.357 55.9337 234.134C54.9013 233.753 54.0133 233.487 53.2652 233.447C53.1646 233.443 52.8759 233.268 52.8103 233.18C52.7272 233.067 52.7009 232.878 52.7796 232.865C53.0596 232.817 53.3483 232.747 53.6283 232.668C53.917 232.59 54.2495 232.524 54.5951 232.454C54.91 232.397 55.1506 232.301 55.2906 232.148C55.4131 231.99 55.435 231.772 55.3387 231.487C55.2075 231.111 54.8619 230.722 54.6869 230.407C54.582 230.245 54.512 230.096 54.5251 229.952C54.5338 229.878 54.5601 229.808 54.6126 229.733C54.6563 229.659 54.7219 229.58 54.8225 229.501C54.0439 229.064 54.0439 228.801 54.7526 228.202C54.8007 228.158 54.7001 228.075 54.5951 228.058C54.0876 227.979 53.8339 227.857 53.7245 227.677C53.6021 227.502 53.5758 227.279 53.4752 227.091L53.4883 227.078L53.5014 227.073Z" fill="black"/>
<path d="M53.4887 227.091C53.2656 227.204 53.0425 227.314 52.8151 227.427C52.2551 227.725 51.6952 228.014 51.1309 228.298C51.4633 228.014 51.6514 227.681 52.1195 227.318C52.7144 226.854 53.1825 226.391 53.5543 225.896C53.9174 225.406 54.1668 224.908 54.3461 224.356C54.5342 223.727 55.2167 223.232 55.8466 223.355C56.4153 223.473 56.6821 223.757 56.5903 224.129C56.5028 224.496 56.0784 224.921 55.3216 225.393C54.3811 225.975 53.34 226.544 53.5062 227.077L53.4931 227.091H53.4887Z" fill="black"/>
<path d="M36.9474 237.83C36.5624 237.712 36.2256 237.502 35.9894 237.318C35.7531 237.13 35.6219 236.968 35.67 236.859C35.6788 236.837 35.8581 236.824 35.9019 236.837C36.0244 236.881 36.2125 236.964 36.2081 237.012C36.195 237.423 36.8205 237.537 37.3586 237.655C37.5379 237.695 37.7304 237.664 37.9098 237.699C38.0323 237.725 38.1416 237.826 38.2554 237.892C38.146 237.922 38.0454 237.975 37.9317 237.966C37.5292 237.935 37.1224 237.865 36.9386 237.83H36.9474Z" fill="black"/>
<path d="M20.1484 155.957C20.2928 155.852 20.4372 155.651 20.5903 155.677C20.7302 155.703 20.8965 155.957 21.0015 156.167C21.0277 156.22 20.9227 156.596 20.8396 156.626C20.7215 156.67 20.5596 156.526 20.4153 156.46L20.1484 155.957Z" fill="black"/>
<path d="M52.1796 230.271C52.0964 230.158 51.9608 230.066 52.0352 230.061C52.2014 230.053 52.477 230.079 52.7089 230.083C52.7832 230.144 52.9582 230.254 52.897 230.271C52.7614 230.306 52.5033 230.289 52.1839 230.271H52.1796Z" fill="black"/>
<path d="M47.7528 223.885C47.7834 223.894 47.8184 223.889 47.8359 223.915L48.1728 224.344C48.0896 224.484 47.9978 224.69 47.9322 224.751C47.4422 225.236 47.6478 224.528 47.7353 223.907L47.7484 223.885H47.7528Z" fill="black"/>
<path d="M14.8511 213.753L14.5449 212.777C14.593 212.751 14.6543 212.694 14.6849 212.698C15.118 212.755 15.0436 213.206 14.8774 213.735L14.8511 213.748V213.753Z" fill="black"/>
<path d="M33.9985 236.663C34.0773 236.654 34.1341 236.645 34.191 236.641C34.2654 236.68 34.3616 236.724 34.401 236.763C34.4141 236.776 34.2785 236.785 34.2085 236.763C34.1472 236.75 34.0773 236.702 33.9941 236.663H33.9985Z" fill="black"/>
<path d="M14.8778 213.736L15.2234 214.707C15.1797 214.742 15.0965 214.812 15.0965 214.812C15.009 214.458 14.9303 214.104 14.8516 213.754L14.8778 213.741V213.736Z" fill="black"/>
<path d="M51.9078 228.479C51.7153 228.575 51.536 228.675 51.4441 228.693C51.2823 228.728 51.0985 228.745 51.0679 228.723C51.046 228.71 51.2691 228.61 51.3829 228.54C51.5272 228.518 51.676 228.496 51.9078 228.479Z" fill="black"/>
<path d="M16.119 213.627L15.9746 213.741L16.119 213.627Z" fill="black"/>
<path d="M77.3588 101.852C77.1357 101.564 77.1094 101.336 76.3395 100.864C75.4558 100.321 75.7796 100.404 76.007 100.453C76.7638 100.619 76.7901 100.623 76.0027 99.7745C75.7577 99.512 75.4515 99.2102 75.3115 99.0133C75.2371 98.9083 75.4077 98.9127 75.6002 98.9958C75.8014 99.0833 76.1645 99.3283 76.4576 99.5076C76.3876 99.5207 76.3045 99.5295 76.2433 99.5514C76.0202 99.6301 76.182 99.8095 76.9825 100.278C77.4812 100.566 77.7918 100.754 78.0849 101.082C78.2993 101.319 78.6099 101.621 78.9555 101.717C79.0867 101.752 79.0517 101.577 78.8942 101.432C78.1505 100.754 78.238 100.628 78.8111 100.789C79.3667 100.947 79.1742 100.623 78.8592 100.247C78.5005 99.8138 78.6361 99.7264 79.1917 99.8882C79.5066 99.9801 79.8654 100.094 80.0885 100.111C80.2941 100.124 80.5303 100.116 80.4165 99.9495C80.2284 99.6739 79.7122 99.3501 79.0604 99.0745C78.3561 98.7727 78.3955 98.5977 78.4918 98.5977C78.7192 98.5977 79.1348 98.729 79.4716 98.7946C80.0753 98.9127 80.6528 98.9871 80.1803 98.4577C80.1016 98.3702 80.0491 98.2565 80.1541 98.2871C80.9415 98.5059 81.1383 98.379 81.1865 98.1778C81.2346 97.9765 81.1383 97.7097 81.4096 97.6222C82.1401 97.386 82.0832 96.791 81.5977 96.0868C81.497 95.938 81.5145 95.8986 81.6895 95.8549C82.2757 95.728 83.4306 95.658 81.6414 94.77C80.7709 94.3413 80.3028 94.127 81.6589 94.3763C81.7945 94.4026 81.6589 94.2276 81.5627 94.1313C81.497 94.0614 80.0928 93.6545 81.5408 93.9914C82.337 94.1751 82.7744 94.2232 82.1838 93.9214C81.3177 93.4839 81.637 93.3483 82.6344 93.4883C83.7587 93.6458 83.5093 93.427 83.6362 93.3133C83.7674 93.1952 83.4875 92.9765 83.6887 92.8802C84.1568 92.644 84.4236 92.3422 84.4542 92.0141C84.4892 91.686 84.2661 91.3142 83.7937 90.9554C83.5618 90.7805 83.505 90.6011 83.1462 90.4393C82.4157 90.1199 82.9013 89.8793 83.47 89.6125C83.8024 89.455 84.0955 89.3544 83.5312 89.2144C83.2337 89.1444 83.2775 89.0088 83.1681 88.9082H83.1419C81.9476 88.5582 82.7263 88.0989 83.0413 87.5914C83.1725 87.3815 84.2749 86.9353 82.6475 87.0927C82.6257 87.0927 82.7219 86.9396 82.9144 86.8653C83.4962 86.6378 83.5224 86.5328 83.0937 86.4759C82.7394 86.4278 82.6344 86.2878 82.5513 86.1566C82.4507 85.9904 81.9957 86.0254 81.2871 86.2003C80.3684 86.4322 80.5522 86.5547 80.2853 86.7122C80.0666 86.8434 80.1103 86.9746 79.3404 87.1146C78.8767 87.1977 78.3605 87.2765 78.0806 87.4558C77.8881 87.5783 77.8749 87.6789 78.1199 87.6833C78.6274 87.6833 79.9222 87.5739 77.9799 88.0726C77.8093 88.1164 77.9099 88.2126 77.9843 88.2695C78.1943 88.4095 78.6274 88.5538 77.8574 88.8338C77.0613 89.105 78.0674 89.1925 79.7079 89.2494C80.3334 89.2713 81.4883 89.1444 81.5627 89.3675C80.7621 89.385 79.9616 89.3981 79.1654 89.4156C78.8155 89.4156 78.483 89.3806 78.1593 89.3981C77.9799 89.4069 77.7306 89.4287 77.525 89.4462C77.3194 89.4681 77.1575 89.4856 77.1575 89.4944C77.1663 89.6343 76.9782 89.7787 76.9694 89.9143C76.9694 90.0543 77.1663 90.1899 77.9537 90.378C78.623 90.5399 78.8942 90.7105 78.4611 90.8067C78.1418 90.8767 77.1094 90.8198 76.8644 90.8723C76.6851 90.9073 77.6387 91.1742 77.4025 91.1785C76.4751 91.1917 77.2625 91.4016 77.7131 91.5941C77.9362 91.686 78.5049 91.8303 78.9773 91.9353C79.1304 91.9703 79.546 91.9397 79.721 91.9047C80.3466 91.7779 80.8671 91.6029 81.5583 91.4366C81.7376 91.3929 82.3807 91.4191 82.8531 91.4498C83.0369 91.4629 83.4656 91.5941 83.5662 91.6641C83.9993 91.9835 83.1069 92.4778 81.9083 92.3772C80.6221 92.2853 80.3815 92.4078 80.7621 92.6571C81.4839 93.1471 79.7472 92.994 79.9397 93.3177C79.9572 93.3483 78.9555 93.134 78.4305 93.0246C78.3036 92.9196 78.0193 92.7752 78.0718 92.7271C78.2205 92.5915 78.5355 92.4953 78.7236 92.3597C78.7892 92.3115 78.7324 92.2241 78.623 92.1409C78.5705 92.1016 78.2905 92.0185 78.0674 91.9616C77.9756 91.9397 77.6781 91.9047 77.6387 91.9178C77.2319 92.036 76.3526 92.0272 76.6282 92.2547C77.07 92.6309 76.9213 92.8584 76.322 92.9284C76.2433 92.9371 76.4051 93.0508 76.6063 93.1383C76.9344 93.2783 77.4069 93.4402 77.7831 93.5933C79.0386 94.1007 79.0123 94.1182 78.1112 94.0001C77.7612 93.952 77.2013 93.8864 77.3238 93.9564C78.238 94.4682 77.525 94.3894 77.1444 94.3982C76.6326 94.4201 76.3614 94.4901 77.0963 95.0281C77.315 95.19 77.2144 95.2775 77.0263 95.2775C76.5057 95.2775 76.5538 95.5443 76.4926 95.7674C76.4357 95.9905 76.252 96.1567 75.3815 95.9118C75.2502 95.8724 75.469 96.0693 75.4515 96.113C75.3115 96.4367 75.3727 96.8873 74.9265 97.0404C74.4322 97.211 74.0516 97.4122 74.3578 98.1165C74.4147 98.2565 74.2703 98.2828 74.0866 98.2609C73.5223 98.1865 73.5136 98.4927 73.6492 98.9214C73.741 99.1927 73.671 99.3195 73.4786 99.3851C73.1198 99.5033 72.7699 99.617 72.9667 100.173C73.2511 100.969 72.9055 101.292 72.3237 101.415C71.7681 101.52 71.2169 101.625 71.3044 102.272C71.3744 102.837 71.2476 103.257 71.2126 103.738C71.1819 104.11 70.9282 104.241 70.6176 104.35C70.5126 104.385 70.3989 104.433 70.3989 104.547C70.3989 104.722 70.2939 104.74 70.0533 104.656C69.7427 104.551 69.7952 104.67 70.0577 104.958C70.4558 105.4 70.4558 105.518 70.2195 105.649C70.0664 105.728 69.8521 105.763 69.7821 105.903C69.5196 106.415 69.2965 106.949 69.0253 107.452C68.8634 107.754 68.6753 108.034 68.4829 108.318C68.2948 108.585 67.9185 108.782 67.9185 109.118C67.9185 109.595 67.538 109.871 67.5598 110.335C67.573 110.518 67.5292 110.689 67.1924 110.715C67.0174 110.733 66.9343 110.916 66.9474 111.069C66.978 111.446 66.8599 111.699 66.23 111.752C66.1512 111.756 66.1337 111.896 66.1994 111.936C66.3612 112.041 66.5887 112.124 66.7899 112.211C66.5887 112.211 66.3437 112.181 66.1775 112.211C66.0113 112.242 65.8232 112.299 65.81 112.399C65.7794 112.741 65.6482 113.016 65.1057 113.178C65.027 113.204 65.1276 113.309 65.132 113.375C65.1364 113.589 65.2457 113.83 65.1495 114.009C65.0007 114.315 64.7252 114.591 64.4364 114.88C64.2527 115.072 64.4714 115.304 64.6464 115.54C64.7995 115.746 64.2658 115.903 64.1302 116.113C63.9815 116.345 63.9377 116.594 63.8634 116.848C63.8371 116.931 63.6665 117.01 63.7103 117.093C63.8065 117.268 63.9246 117.443 64.0558 117.614L64.4758 118.108C64.5677 118.217 64.7339 118.336 64.5852 118.441C64.2221 118.699 64.2789 118.948 64.2483 119.202C64.2133 119.477 64.0559 119.779 64.5677 119.963C64.6639 119.998 64.5764 120.103 64.4189 120.177C63.5265 120.588 63.9596 120.785 64.4627 120.917C64.7033 120.982 64.9176 121.07 64.8695 121.21C64.7995 121.437 64.6683 121.708 64.6333 121.958C64.6027 122.198 64.6639 122.43 65.0445 122.509C65.2807 122.557 65.0445 122.863 65.1407 122.999C65.3113 123.257 65.1976 123.659 65.2282 124.018C65.2413 124.193 65.2895 124.355 65.4163 124.464C65.5476 124.565 65.7707 124.604 66.1031 124.547C66.2037 124.53 66.0463 124.749 66.0681 124.819C66.1119 124.959 66.1731 125.09 66.2737 125.186C66.3875 125.282 66.5887 125.3 66.6893 125.405C67.0874 125.842 67.5642 126.258 68.4872 125.995C68.7191 125.925 68.8241 126.144 68.7103 126.481C68.3516 127.561 68.8897 127.544 69.4496 127.33C69.839 127.19 70.202 127.054 70.4995 127.019C70.797 126.984 71.0376 127.036 71.2519 127.194C71.5538 127.421 71.9825 127.225 72.1881 127.811C72.2187 127.898 72.3106 127.924 72.3806 127.863C72.7918 127.518 73.098 127.5 73.4217 127.636C73.5923 127.706 73.7935 127.474 73.9598 127.531C74.1697 127.588 74.3447 127.439 74.5197 127.295C74.8653 126.984 75.1934 126.809 75.5127 126.647C75.6702 126.573 75.8408 126.542 76.007 126.49C76.1689 126.424 76.3264 126.354 76.4795 126.267C76.5451 126.232 76.602 126.183 76.6588 126.135C76.6763 126.122 76.6982 126.078 76.6895 126.078C76.6676 126.065 76.6326 126.048 76.6063 126.057C76.3614 126.14 76.1076 126.201 75.8627 126.249L75.3683 126.302C75.2852 126.31 75.2065 126.319 75.1234 126.323L74.874 126.302C74.839 126.302 74.7953 126.201 74.7559 126.153C74.4978 125.833 74.5153 125.803 74.406 126.341C74.3885 126.428 74.3578 126.586 74.336 126.573C74.1304 126.45 73.9248 126.477 73.7192 126.459C73.5179 126.424 73.3123 126.319 73.2073 125.873C73.1767 125.728 73.0367 125.798 72.9405 125.917C72.6605 126.28 72.3981 126.393 72.4724 125.536C72.4812 125.409 72.4024 125.335 72.3456 125.414C71.9956 125.895 71.9169 125.497 71.9956 124.994C72.0656 124.499 71.9825 124.469 71.7462 124.753C71.2607 125.344 71.0682 125.204 71.3175 124.407C71.4313 124.04 71.3788 124.031 71.0682 124.442C70.7926 124.797 70.4076 125.47 70.2327 125.418C70.0927 125.374 69.8433 125.405 69.9571 125.077C70.377 123.874 70.2895 123.589 69.8871 123.462C69.5065 123.371 69.8521 122.561 69.9002 122.163C69.9177 122.058 69.7952 122.063 69.6377 122.089C69.1915 122.172 68.6403 122.286 68.146 122.299C67.7654 122.312 68.1723 121.931 69.139 121.402L69.9702 120.947C69.9221 120.912 69.9702 120.82 69.804 120.864C69.594 120.917 68.9553 121.201 68.8941 121.161C68.6928 121.039 68.601 120.842 68.5878 120.641C68.5747 120.553 68.9072 120.37 69.5546 120.168C70.8801 119.74 70.6964 119.753 70.4558 119.749C70.2983 119.749 70.1714 119.722 69.9833 119.696C69.7952 119.674 69.5415 119.67 69.1434 119.696C68.1154 119.749 68.1679 119.687 69.349 119.324C70.6657 118.93 70.6439 118.97 70.0796 118.839C69.8215 118.782 69.594 118.694 69.5677 118.589C69.5196 118.388 69.6377 118.182 69.6596 117.977C69.6596 117.955 69.4453 117.929 69.2921 117.911C69.244 117.907 68.9991 117.92 68.9509 117.933C68.7978 117.977 68.6928 118.025 68.5704 118.077C68.5091 118.025 68.391 117.968 68.391 117.911C68.391 117.846 68.3385 117.741 68.5791 117.719C69.9746 117.596 69.0209 117.413 68.7497 117.207C68.5572 117.076 68.2991 116.918 68.3473 116.796C68.4741 116.472 68.7585 116.188 68.8591 115.868C68.9028 115.702 68.9553 115.527 68.9728 115.348L69.0166 114.801C69.0297 114.626 69.0253 114.429 68.2073 114.105C68.8634 114.049 68.4522 113.672 68.146 113.296C68.0148 113.143 67.8004 112.946 68.0673 112.946C68.4697 112.951 68.6185 112.85 68.6841 112.701C68.7497 112.552 68.7497 112.369 68.7934 112.207C68.8634 111.914 68.8853 111.577 69.1128 111.376C69.3228 111.17 68.9247 110.606 69.5196 110.628C69.5765 110.628 69.5765 110.496 69.5327 110.418C69.3621 110.103 69.5546 109.993 69.7165 109.845C70.0664 109.534 70.5345 109.32 70.447 108.707C70.4295 108.607 70.5476 108.545 70.622 108.484C70.902 108.239 71.2301 108.034 71.5144 107.793C71.7594 107.592 71.7288 107.57 71.1382 107.176C71.0726 107.132 71.0157 107.067 70.9501 107.01C71.007 107.01 71.0682 106.992 71.1251 107.023C71.5188 107.237 71.7681 107.268 71.8862 107.08C71.9081 107.041 72 107.032 72.0831 107.054C72.6299 107.224 72.7961 107.036 72.7218 106.717C72.6343 106.362 72.8443 106.314 73.1986 106.336C73.5529 106.354 73.9116 106.376 74.0079 106.144C74.1304 105.833 74.3185 105.566 74.4934 105.291C74.5372 105.225 74.7297 105.269 74.8609 105.273C75.0621 105.273 75.259 105.273 75.4908 105.304C75.8146 105.348 75.9502 105.286 75.4602 104.775C75.1802 104.486 75.2109 104.425 75.6439 104.718C76.0027 104.963 76.252 105.09 76.1076 104.805C75.7227 104.053 75.7446 103.633 77.07 104.25C77.2013 104.311 77.2669 104.267 77.3019 104.223C77.3806 104.114 77.525 104.04 77.4594 103.838C77.2975 103.348 77.6737 103.138 76.0508 101.844C75.6352 101.511 75.1453 100.982 75.5171 101.078C75.8627 101.17 75.2896 100.383 76.6588 101.428C76.8601 101.581 77.1094 101.704 77.3369 101.844L77.3588 101.852ZM75.7708 102.277C75.9677 102.404 76.1733 102.517 76.3701 102.662C76.5495 102.797 76.8688 103.073 76.8644 103.095C76.8294 103.191 76.7944 103.309 76.5932 103.248C76.3089 103.165 75.8802 102.937 75.5215 102.771C75.5215 102.771 75.4296 102.662 75.3465 102.57C76.042 102.924 76.1164 102.762 75.7708 102.281V102.277ZM72.0393 106.621C72.0393 106.621 71.8556 106.551 71.7594 106.511C71.755 106.415 71.7244 106.297 71.7506 106.223C71.7638 106.188 71.895 106.231 72.1225 106.262C72.0875 106.45 72.0918 106.559 72.0393 106.625V106.621ZM79.9266 95.4481C79.7297 95.3956 79.5416 95.3518 79.336 95.2818C79.2617 95.2556 79.0254 95.12 79.0429 95.12C79.1523 95.1287 79.301 95.155 79.5154 95.19C79.6991 95.3037 79.8129 95.3737 79.931 95.4481H79.9266ZM66.6368 114.237C66.5974 114.193 66.5187 114.14 66.5275 114.114C66.5362 114.084 66.6281 114.075 66.6806 114.057C66.7112 114.105 66.7462 114.154 66.7681 114.189C66.7112 114.21 66.6718 114.223 66.6324 114.237H66.6368Z" fill="black"/>
<path d="M75.9992 84.5952C76.0911 84.5733 76.2923 84.4552 76.4454 84.3808C76.4979 84.2846 76.4979 84.2146 76.6029 84.0834C76.9878 83.6065 77.2547 83.1035 77.7621 82.6092C78.637 81.7517 78.4008 81.7255 78.2565 81.6074C78.169 81.5374 78.1208 81.4105 77.9415 81.4412C77.469 81.5286 77.3116 81.3537 77.2984 80.9731C77.2941 80.7894 76.9922 80.7937 76.7035 81.0037C75.8898 81.603 75.7105 81.4543 75.518 81.2706C75.3912 81.1481 75.203 81.1087 75.6974 80.3913C75.9336 80.0501 75.8548 79.9669 75.6099 80.0938C75.0281 80.3869 75.0762 80.3432 75.2205 79.7132C75.2905 79.4114 75.4261 78.9433 74.7962 79.7613C74.7568 79.8138 74.6212 79.8751 74.6212 79.8401C74.6169 79.3676 74.1182 79.652 73.8076 79.6826C73.5451 79.7132 73.4051 79.582 73.497 79.2145C73.5976 78.8121 73.4007 78.7508 73.2083 78.8208C72.9983 78.8996 72.7314 79.1839 72.5127 79.372C72.4821 79.3983 72.4252 79.6039 72.4427 79.6257C72.6221 79.7657 72.7358 79.9801 72.7271 80.3432C72.7271 80.3913 72.8014 80.3869 72.8539 80.365C73.2608 80.2294 73.7595 79.9844 73.6851 80.6494C74.1007 80.4788 74.0438 80.9425 74.0919 81.2531C74.1313 81.463 74.0525 81.8086 74.3675 81.6905C74.4856 81.6468 74.4288 81.9049 74.42 82.058C74.4069 82.2811 74.315 82.5829 74.3238 82.771C74.3281 82.8891 74.4288 82.9897 74.5819 82.8585C75.4261 82.128 75.518 82.3686 75.3255 82.9285C75.2818 83.0466 75.4305 82.9985 75.4786 83.0422C75.553 83.1122 75.6492 83.1603 75.6799 83.2741C75.7761 83.6678 75.8417 84.0834 75.8461 84.5689C75.8505 84.5689 75.8855 84.6214 76.0036 84.5908L75.9992 84.5952ZM76.5329 82.9941L76.6598 82.8979C76.8566 82.806 77.0753 82.6966 77.2503 82.6354C77.2941 82.6223 77.1891 82.7754 77.1497 82.8498C77.0622 82.9066 76.9266 83.016 76.9047 83.0116C76.8041 82.9941 76.7341 82.946 76.6554 82.9066L76.5329 82.9941Z" fill="black"/>
<path d="M81.0288 85.2472C80.5651 85.4353 80.0927 85.6365 79.6333 85.8115C79.349 85.9165 78.8284 86.0827 78.8372 86.0652C78.9334 85.8815 78.5528 85.9296 78.1722 85.9996C77.7873 86.0696 77.398 86.1614 77.4067 86.0302C77.4067 85.8027 76.663 86.0083 77.0874 85.5271C77.3936 85.164 77.1049 85.1378 76.6193 85.2996C76.3699 85.3828 76.1293 85.4659 75.9631 85.4921C75.5169 85.5709 75.8144 85.164 76.7636 84.3198C77.5861 83.5936 78.2029 82.968 78.5484 82.4168C78.5966 82.3425 78.8372 82.1106 78.929 82.0538C79.0471 81.9838 79.1959 81.9575 79.174 82.0144C79.0209 82.4343 78.8722 82.8499 78.5178 83.3442C78.1985 83.7904 78.1285 83.9785 78.5441 83.9392C79.0821 83.8736 80.2195 83.528 79.6946 84.241C80.4776 84.0529 80.5957 84.2848 79.9483 84.8491C79.9045 84.8884 80.0008 84.8972 80.097 84.8753C81.0682 84.6391 80.9501 85.0109 81.0507 85.2428L81.0332 85.2559L81.0288 85.2472Z" fill="black"/>
<path d="M81.0473 85.234C81.2791 85.1377 81.511 85.0415 81.7428 84.9496L83.4839 84.1885C83.1383 84.4903 82.9152 84.7922 82.3859 85.0546C81.021 85.7327 80.098 86.2707 79.2494 86.7738C78.7507 87.0669 77.9458 87.255 77.5214 87.2725C76.7384 87.3075 77.2327 87.0319 78.895 86.3757C79.9274 85.9777 81.0604 85.6014 81.0342 85.2471L81.0517 85.234H81.0473Z" fill="black"/>
<path d="M71.938 79.0436C71.8198 78.9474 71.7586 78.7768 71.7324 78.6237C71.7061 78.4662 71.7149 78.3306 71.7849 78.2344C71.798 78.2169 71.8855 78.195 71.8986 78.2081C71.938 78.2431 71.9861 78.3087 71.9642 78.3525C71.7849 78.7068 72.0123 78.7899 72.2004 78.8862C72.2617 78.9212 72.3579 78.8905 72.4192 78.9212C72.4629 78.943 72.4629 79.0261 72.4848 79.0874C72.4235 79.1136 72.3579 79.1574 72.3098 79.153C72.1523 79.1224 72.0036 79.0699 71.938 79.0436Z" fill="black"/>
<path d="M70.3465 121.262C70.434 121.24 70.6046 121.162 70.5827 121.21C70.5652 121.253 70.3596 121.437 70.1934 121.586C70.1497 121.625 69.8434 121.809 69.8128 121.805C69.7735 121.796 69.8872 121.673 69.9353 121.603L70.3465 121.267V121.262Z" fill="black"/>
<path d="M81.4583 82.2285C81.5983 82.2504 81.7689 82.2285 81.7208 82.2854C81.6114 82.4122 81.3927 82.5741 81.2177 82.7228C81.1214 82.7316 80.9202 82.7841 80.9552 82.736C81.034 82.6266 81.2308 82.4604 81.4583 82.2329V82.2285Z" fill="black"/>
<path d="M83.1504 88.9045C83.1504 88.9045 83.1329 88.8695 83.1504 88.852C83.2291 88.7426 83.321 88.6332 83.3953 88.5195C83.5572 88.5195 83.7847 88.502 83.8634 88.5195C84.5108 88.6682 83.7847 88.7995 83.1766 88.9088H83.1504V88.9045Z" fill="black"/>
<path d="M77.7958 102.64L77.109 102.5C77.074 102.465 77.0128 102.408 77.0084 102.391C76.9384 102.155 77.3146 102.347 77.774 102.618L77.7915 102.64H77.7958Z" fill="black"/>
<path d="M71.1133 78.1341C71.1527 78.121 71.1833 78.1123 71.2095 78.1035C71.227 78.1341 71.2533 78.1691 71.2533 78.1998C71.2533 78.2129 71.1876 78.2216 71.1658 78.2085C71.1439 78.1998 71.1352 78.1604 71.1133 78.1298V78.1341Z" fill="black"/>
<path d="M77.7793 102.618L78.4486 102.732C78.488 102.771 78.5623 102.841 78.5623 102.841L77.7968 102.64L77.7793 102.618Z" fill="black"/>
<path d="M82.6523 83.9398C82.8317 83.8173 82.9936 83.6817 83.081 83.6511C83.2385 83.5986 83.4266 83.5767 83.466 83.6117C83.4923 83.6336 83.291 83.7692 83.186 83.8523C83.0373 83.8786 82.8842 83.9048 82.6523 83.9398Z" fill="black"/>
<path d="M77.3594 101.853L77.4862 101.975L77.3638 101.857L77.3594 101.853Z" fill="black"/>
<path d="M110.819 101.328C111.151 101.175 111.383 101.21 112.018 100.563C112.744 99.8192 112.595 100.125 112.499 100.34C112.179 101.057 112.158 101.07 113.19 100.537C113.514 100.37 113.886 100.156 114.122 100.082C114.244 100.042 114.209 100.217 114.078 100.384C113.942 100.558 113.61 100.843 113.361 101.079C113.361 101 113.374 100.917 113.361 100.852C113.33 100.598 113.111 100.707 112.459 101.368C112.053 101.779 111.79 102.028 111.401 102.23C111.116 102.374 110.753 102.601 110.565 102.912C110.495 103.03 110.67 103.039 110.85 102.921C111.698 102.374 111.799 102.505 111.48 103.008C111.169 103.494 111.528 103.393 111.978 103.205C112.499 102.986 112.538 103.153 112.206 103.621C112.018 103.887 111.79 104.185 111.694 104.382C111.606 104.566 111.532 104.78 111.72 104.723C112.031 104.631 112.521 104.268 113.011 103.752C113.54 103.196 113.689 103.293 113.654 103.389C113.571 103.603 113.299 103.944 113.111 104.224C112.774 104.732 112.455 105.209 113.116 104.977C113.225 104.937 113.347 104.933 113.277 105.016C112.193 106.245 113.374 105.825 113.238 106.337C113.041 107.033 113.531 107.195 114.332 107.142C114.502 107.129 114.52 107.168 114.441 107.321C114.187 107.846 113.439 108.664 115.255 107.833C116.134 107.435 116.615 107.247 115.508 108.065C115.399 108.148 115.6 108.153 115.736 108.144C115.828 108.135 117.096 107.409 115.841 108.214C115.154 108.656 114.804 108.914 115.421 108.691C116.335 108.363 116.204 108.682 115.355 109.233C114.406 109.85 114.708 109.811 114.669 109.951C114.625 110.091 114.957 110.047 114.848 110.217C114.585 110.62 114.494 110.917 114.612 111.11C114.717 111.307 115.032 111.407 115.587 111.407C115.863 111.407 115.977 111.499 116.353 111.455C117.127 111.364 116.768 111.762 116.309 112.147C116.038 112.378 115.78 112.54 116.344 112.44C116.637 112.387 116.628 112.497 116.755 112.536H116.777C118.015 112.418 117.32 113.039 117.066 113.45C116.952 113.643 115.88 114.124 117.473 113.752C117.495 113.748 117.403 113.879 117.219 113.958C116.65 114.207 116.628 114.268 117.044 114.259C117.381 114.251 117.473 114.351 117.538 114.443C117.621 114.557 118.072 114.509 118.785 114.356C119.712 114.159 119.533 114.041 119.804 113.888C120.027 113.761 119.984 113.625 120.754 113.481C121.217 113.393 121.742 113.345 122.013 113.135C122.201 112.986 122.201 112.833 121.952 112.816C121.423 112.777 120.137 113.021 122.005 112.282C122.171 112.217 122.04 112.081 121.952 112.011C121.703 111.814 121.23 111.735 121.9 111.202C122.582 110.651 121.519 110.712 119.944 111.171C119.341 111.346 118.286 111.827 118.155 111.665C118.903 111.381 119.656 111.101 120.399 110.817C120.727 110.699 121.06 110.642 121.362 110.519C121.694 110.388 122.271 110.099 122.263 110.069C122.105 109.662 122.643 108.896 121.02 109.176C120.329 109.299 120.001 109.264 120.312 108.931C120.544 108.686 121.445 108.175 121.607 107.947C121.725 107.776 120.749 108.026 120.933 107.881C121.65 107.286 120.859 107.51 120.369 107.597C120.128 107.636 119.581 107.86 119.144 108.065C119.004 108.131 118.693 108.424 118.579 108.559C118.155 109.054 117.849 109.487 117.341 109.986C117.21 110.117 116.641 110.427 116.222 110.646C116.055 110.734 115.631 110.86 115.522 110.869C115.032 110.895 115.535 110.161 116.55 109.504C117.643 108.813 117.731 108.546 117.285 108.603C116.44 108.717 117.836 107.676 117.442 107.553C117.411 107.545 118.269 106.989 118.711 106.683C118.881 106.678 119.196 106.595 119.201 106.683C119.214 106.919 119.074 107.238 119.03 107.496C119.017 107.588 119.122 107.628 119.266 107.636C119.336 107.636 119.607 107.531 119.817 107.44C119.905 107.4 120.154 107.23 120.172 107.195C120.382 106.792 121.007 106.105 120.596 106.062C119.94 105.992 119.861 105.659 120.141 105.064C120.176 104.986 119.97 105.007 119.769 105.099C119.441 105.244 119.012 105.493 118.645 105.677C117.429 106.285 117.446 106.276 118.085 105.62C118.334 105.362 118.706 104.929 118.575 104.981C117.591 105.366 118.063 104.824 118.247 104.456C118.501 103.962 118.523 103.643 117.652 103.944C117.39 104.036 117.355 103.883 117.438 103.708C117.879 102.715 116.287 103.153 117.398 101.661C117.481 101.547 117.201 101.652 117.158 101.6C116.847 101.25 116.34 101.066 116.287 100.528C116.226 99.9198 116.06 99.4167 115.246 99.443C115.08 99.4474 115.084 99.2811 115.141 99.1018C115.32 98.5287 114.984 98.3975 114.498 98.4019C114.196 98.4019 114.069 98.2881 114.026 98.065C113.951 97.6582 113.877 97.2382 113.256 97.2951C112.376 97.3738 112.083 96.9451 112.026 96.3108C111.983 95.7071 111.939 95.1122 111.261 95.0641C110.666 95.0116 110.259 94.7929 109.765 94.6573C109.389 94.5479 109.288 94.2592 109.231 93.918C109.209 93.8042 109.183 93.6774 109.069 93.6511C108.894 93.6074 108.89 93.5024 109.017 93.2793C109.179 92.9949 109.047 93.0212 108.71 93.2137C108.19 93.5111 108.072 93.4805 107.989 93.2093C107.936 93.0387 107.945 92.8156 107.822 92.7062C107.363 92.3169 106.895 91.9363 106.475 91.512C106.221 91.2583 106.011 90.9739 105.801 90.6852C105.6 90.4096 105.556 89.9809 105.25 89.8365C104.804 89.6353 104.712 89.1629 104.288 88.9485C104.122 88.8698 103.99 88.7342 104.13 88.4236C104.205 88.2617 104.078 88.0999 103.942 88.0255C103.614 87.8418 103.457 87.5793 103.785 87.0456C103.829 86.98 103.728 86.8881 103.654 86.9144C103.474 86.98 103.269 87.1112 103.076 87.2162C103.199 87.0544 103.369 86.8794 103.448 86.735C103.527 86.5863 103.597 86.4113 103.535 86.3413C103.321 86.1095 103.199 85.8251 103.479 85.3614C103.518 85.2958 103.374 85.2914 103.33 85.2521C103.177 85.1252 102.958 85.0202 102.919 84.8365C102.862 84.5259 102.919 84.1672 103.002 83.8085C103.067 83.5722 102.774 83.5197 102.507 83.4279C102.267 83.3448 102.674 82.9686 102.713 82.7542C102.752 82.518 102.687 82.3168 102.691 82.098C102.691 82.0237 102.827 81.9055 102.761 81.8574C102.481 81.6562 102.105 81.4768 101.764 81.2712C101.654 81.2013 101.466 81.1313 101.598 81.0088C101.917 80.7113 101.838 80.5232 101.838 80.3001C101.838 80.0639 101.991 79.8145 101.493 79.6833C101.396 79.657 101.484 79.5608 101.646 79.4952C102.542 79.1365 102.149 79.0227 101.663 78.8828C101.431 78.8171 101.226 78.7209 101.287 78.6072C101.51 78.231 102.105 77.8679 101.471 77.5748C101.269 77.4785 101.598 77.3167 101.567 77.1942C101.51 76.9623 101.816 76.7174 101.969 76.4943C102.136 76.2668 102.118 76.0481 101.536 75.7987C101.444 75.7594 101.711 75.7069 101.737 75.6587C101.794 75.5581 101.834 75.4575 101.816 75.3525C101.799 75.2432 101.672 75.125 101.672 75.0157C101.667 74.7838 101.694 74.5651 101.628 74.3289C101.558 74.0927 101.388 73.8433 101.033 73.5458C100.849 73.3927 101.003 73.2221 101.357 73.209C102.464 73.1609 102.241 72.8678 101.851 72.4478C101.313 71.8792 101.103 71.3148 101.401 70.9474C101.602 70.7068 101.471 70.2781 102.061 70.2475C102.149 70.2475 102.179 70.1775 102.131 70.1031C101.834 69.6482 101.991 69.4032 102.206 69.1976C102.315 69.0926 102.223 68.8345 102.346 68.7339C102.486 68.607 102.446 68.397 102.459 68.1827C102.472 67.7671 102.573 67.369 102.77 67.0541C102.997 66.7741 103.299 66.5597 103.535 66.2798C103.588 66.2229 103.627 66.1485 103.671 66.0829C103.684 66.061 103.693 66.0129 103.689 66.0129C103.667 66.0129 103.627 66.0042 103.605 66.0217C103.391 66.201 103.155 66.3541 102.914 66.5204C102.761 66.6297 102.604 66.7347 102.455 66.8572C102.319 66.9841 102.179 67.1109 102.031 67.2334C102 67.2597 101.899 67.2247 101.829 67.2247C101.392 67.2159 101.353 67.2072 101.659 67.6577C101.707 67.7321 101.807 67.859 101.786 67.8721C101.536 67.9683 101.453 68.2046 101.309 68.3927C101.164 68.5808 100.985 68.7383 100.491 68.7164C100.333 68.7076 100.311 68.8914 100.408 69.0401C100.666 69.4732 100.74 69.7269 99.8696 69.565C99.7427 69.5432 99.6333 69.6438 99.7033 69.7225C100.119 70.1731 99.7165 70.23 99.1959 70.2256C98.6753 70.2125 98.6316 70.3743 98.929 70.6193C99.5459 71.1311 99.4234 71.3148 98.5572 71.3323C98.1679 71.3411 98.1679 71.4417 98.6447 71.6561C99.0603 71.8442 99.8127 72.0235 99.8127 72.2204C99.8127 72.3822 99.9133 72.6097 99.5721 72.6447C98.2772 72.7716 98.0323 73.2134 98.146 73.7558C98.1985 73.992 98.0104 74.202 97.7786 74.4208C97.5555 74.6351 97.2667 74.8582 97.0961 75.0944C97.013 75.2082 97.1092 75.3438 97.2405 75.4663C97.6167 75.8206 98.1198 76.1443 98.5703 76.4549C98.9028 76.6824 98.3647 76.8355 97.2624 76.8486C96.943 76.8486 96.6324 76.8442 96.3175 76.8355C96.3437 76.9405 96.2475 77.063 96.4224 77.1417C96.6368 77.2423 97.3367 77.2861 97.3805 77.3823C97.5292 77.6973 97.5423 78.0166 97.5336 78.3447C97.5336 78.4759 97.1661 78.6334 96.4881 78.6597C95.0926 78.7078 95.2895 78.8478 95.53 79.0534C95.8319 79.3115 96.0637 79.5652 96.8818 79.692C97.9317 79.8452 97.8573 79.8495 96.6937 80.287C95.3944 80.7769 95.4251 80.79 96.0244 81.1138C96.3 81.2537 96.5712 81.3981 96.6237 81.5818C96.7287 81.9362 96.6849 82.3255 96.7593 82.6886C96.768 82.728 96.9868 82.7148 97.1442 82.7061C97.1967 82.7061 97.4242 82.6142 97.4636 82.5792C97.5904 82.4742 97.6692 82.3736 97.7786 82.2686C97.8573 82.3343 97.9929 82.3867 98.0148 82.4655C98.041 82.5617 98.1329 82.693 97.9142 82.8023C96.6499 83.4279 97.6648 83.4366 98.006 83.6029C98.2466 83.721 98.5528 83.8128 98.5878 83.9878C98.6709 84.4646 98.6097 84.994 98.7453 85.462C98.9159 85.9476 99.1915 86.3938 99.4759 86.8225C99.6115 87.0281 99.7952 87.2337 100.6 86.8969L100.635 86.8356L100.604 86.8969C100.22 87.4656 100.823 87.5049 101.318 87.5574C101.523 87.5793 101.825 87.5443 101.667 87.7674C101.199 88.428 101.694 88.6292 101.934 88.9485C102.166 89.2241 102.486 89.4516 102.573 89.7972C102.678 90.1428 103.387 90.0728 103.133 90.6327C103.111 90.6852 103.242 90.7639 103.339 90.7639C103.715 90.7639 103.754 91.0045 103.846 91.2451C104.043 91.7351 104.143 92.3256 104.787 92.4875C104.896 92.5138 104.927 92.6494 104.975 92.75C105.163 93.1262 105.303 93.5418 105.495 93.918C105.661 94.2373 105.692 94.2111 106.208 93.7255C106.265 93.6686 106.344 93.6336 106.414 93.5855C106.401 93.6424 106.409 93.7124 106.366 93.7605C106.068 94.0973 105.994 94.351 106.169 94.5304C106.204 94.5654 106.204 94.6616 106.16 94.7404C105.893 95.2566 106.068 95.4928 106.414 95.5015C106.799 95.5059 106.821 95.7334 106.751 96.1009C106.681 96.4639 106.615 96.8401 106.847 96.9976C107.158 97.1989 107.416 97.457 107.678 97.7107C107.744 97.7719 107.669 97.96 107.652 98.0956C107.626 98.3012 107.604 98.5068 107.542 98.7387C107.455 99.0624 107.503 99.2199 108.094 98.8262C108.426 98.6031 108.487 98.6468 108.129 99.0274C107.831 99.3467 107.665 99.5698 107.976 99.4824C108.798 99.2461 109.227 99.3642 108.4 100.576C108.317 100.698 108.352 100.773 108.387 100.812C108.483 100.917 108.531 101.07 108.745 101.048C109.262 100.987 109.397 101.403 110.994 100.073C111.405 99.7317 112.031 99.3686 111.869 99.7186C111.716 100.042 112.621 99.6748 111.305 100.782C111.112 100.943 110.937 101.162 110.753 101.355L110.819 101.328ZM110.688 99.6355C110.526 99.8061 110.377 99.9898 110.198 100.152C110.032 100.305 109.695 100.563 109.677 100.554C109.585 100.502 109.472 100.44 109.568 100.248C109.699 99.9767 109.997 99.5961 110.224 99.268C110.228 99.268 110.347 99.198 110.46 99.1368C109.992 99.7667 110.141 99.8717 110.688 99.6355ZM106.698 94.7798C106.681 94.7579 106.803 94.6091 106.86 94.5217C106.961 94.5435 107.088 94.5435 107.162 94.5916C107.197 94.6135 107.131 94.736 107.066 94.9635C106.878 94.8804 106.764 94.8541 106.698 94.7798ZM115.828 106.136C115.985 106.005 116.125 105.874 116.3 105.738C116.361 105.69 116.606 105.576 116.602 105.589C116.536 105.677 116.427 105.786 116.278 105.944C116.082 106.027 115.955 106.084 115.832 106.136H115.828ZM101.698 85.6064C101.755 85.6151 101.851 85.6064 101.86 85.6326C101.873 85.6633 101.812 85.7333 101.786 85.7857C101.729 85.7682 101.672 85.7507 101.633 85.7376C101.663 85.6808 101.681 85.6414 101.698 85.6064Z" fill="black"/>
<path d="M123.373 118.087C123.285 118.03 123.054 117.991 122.887 117.947C122.787 118.013 122.747 118.087 122.581 118.135C121.986 118.323 121.47 118.568 120.766 118.621C119.545 118.713 119.72 118.853 119.733 119.023C119.747 119.124 119.69 119.229 119.838 119.325C120.232 119.579 120.197 119.82 119.926 120.051C119.808 120.161 119.965 120.375 120.311 120.48C121.269 120.782 121.243 121.066 121.186 121.346C121.151 121.53 121.212 121.744 120.337 121.648C119.921 121.604 119.882 121.701 120.101 121.858C120.613 122.243 120.547 122.247 119.917 122.357C119.615 122.409 119.138 122.436 120.127 122.733C120.188 122.75 120.298 122.86 120.267 122.873C119.812 123.039 120.232 123.411 120.337 123.726C120.433 123.984 120.337 124.181 119.961 124.172C119.537 124.159 119.51 124.356 119.607 124.54C119.716 124.737 120.035 124.964 120.245 125.165C120.276 125.196 120.49 125.218 120.508 125.187C120.635 124.96 120.845 124.789 121.229 124.688C121.282 124.675 121.256 124.588 121.229 124.535C121.015 124.107 120.643 123.682 121.321 123.507C121.054 123.135 121.496 123.004 121.776 122.79C121.96 122.645 122.31 122.523 122.082 122.252C121.995 122.151 122.262 122.059 122.411 121.972C122.625 121.845 122.927 121.731 123.089 121.582C123.194 121.486 123.233 121.294 123.036 121.228C121.964 120.865 122.113 120.651 122.695 120.388C122.813 120.331 122.682 120.222 122.682 120.139C122.682 120.003 122.656 119.868 122.721 119.741C122.944 119.29 123.224 118.827 123.482 118.262C123.482 118.258 123.482 118.166 123.369 118.092L123.373 118.087ZM121.934 119.216L121.776 119.194C121.575 119.111 121.343 119.037 121.173 118.953C121.133 118.936 121.317 118.888 121.396 118.853C121.496 118.87 121.676 118.883 121.684 118.905C121.741 118.997 121.754 119.093 121.781 119.19L121.929 119.216H121.934Z" fill="black"/>
<path d="M118.955 115.169C119.445 115.06 119.94 114.942 120.425 114.845C120.723 114.789 121.265 114.719 121.252 114.736C121.016 115.095 122.739 114.924 122.669 115.279C122.626 115.563 123.409 115.725 122.844 116.11C122.433 116.39 122.674 116.565 123.19 116.718C123.452 116.797 123.715 116.88 123.877 116.98C124.323 117.26 123.842 117.588 122.586 117.763C121.501 117.916 120.635 118.078 120.018 118.293C119.935 118.323 119.603 118.354 119.498 118.345C119.362 118.332 119.227 118.275 119.284 118.249C119.664 118.039 120.018 117.811 120.592 117.58C121.099 117.37 121.252 117.212 120.858 117.046C120.342 116.818 119.187 116.735 119.944 116.315C119.148 116.232 119.122 116.053 119.896 115.707C119.948 115.681 119.861 115.65 119.76 115.65C118.759 115.65 118.995 115.388 118.934 115.182L118.951 115.174L118.955 115.169Z" fill="black"/>
<path d="M118.934 115.178C118.69 115.235 118.445 115.287 118.204 115.344L116.354 115.786C116.765 115.611 117.045 115.414 117.6 115.239C119.044 114.788 120.037 114.36 120.89 113.879C121.393 113.594 122.202 113.415 122.648 113.485C123.466 113.616 122.963 113.957 121.231 114.377C120.151 114.64 118.996 114.885 118.952 115.173L118.934 115.182V115.178Z" fill="black"/>
<path d="M119.96 125.848C119.855 125.983 119.676 126.062 119.514 126.102C119.352 126.141 119.212 126.137 119.116 126.067C119.099 126.053 119.077 125.962 119.09 125.948C119.125 125.909 119.191 125.852 119.234 125.874C119.597 126.04 119.694 125.791 119.79 125.585C119.82 125.515 119.781 125.41 119.807 125.34C119.825 125.292 119.908 125.275 119.965 125.244C119.995 125.305 120.048 125.371 120.044 125.423C120.03 125.603 119.987 125.773 119.952 125.843L119.96 125.848Z" fill="black"/>
<path d="M96.2255 75.9127C96.138 75.8471 95.963 75.7684 96.0155 75.7071C96.0636 75.6503 96.3392 75.6065 96.5623 75.5803C96.6192 75.5759 96.9735 75.6503 96.991 75.6896C97.0173 75.7421 96.8467 75.7946 96.7635 75.8471L96.2298 75.9127H96.2255Z" fill="black"/>
<path d="M117.486 117.264C117.372 117.212 117.215 117.19 117.285 117.163C117.438 117.115 117.709 117.063 117.932 117.015C118.02 117.037 118.221 117.054 118.169 117.076C118.05 117.128 117.797 117.181 117.49 117.26L117.486 117.264Z" fill="black"/>
<path d="M116.807 112.536C116.807 112.536 116.833 112.558 116.824 112.576L116.658 112.882C116.505 112.93 116.291 113.004 116.207 113.017C115.564 113.114 116.229 112.816 116.785 112.545H116.807V112.536Z" fill="black"/>
<path d="M109.961 101.578L110.232 100.93C110.276 100.904 110.342 100.856 110.359 100.856C110.608 100.839 110.346 101.171 109.983 101.565L109.961 101.578Z" fill="black"/>
<path d="M118.995 126.793C118.986 126.749 118.977 126.718 118.969 126.688C118.999 126.666 119.034 126.64 119.069 126.64C119.082 126.64 119.091 126.71 119.078 126.736C119.065 126.758 119.026 126.771 118.995 126.797V126.793Z" fill="black"/>
<path d="M109.983 101.564L109.725 102.194C109.681 102.225 109.594 102.282 109.594 102.282L109.957 101.578L109.979 101.564H109.983Z" fill="black"/>
<path d="M117.066 115.979C116.86 116.044 116.668 116.114 116.576 116.127C116.41 116.149 116.23 116.149 116.204 116.127C116.187 116.114 116.418 116.044 116.541 116C116.69 115.996 116.838 115.987 117.07 115.979H117.066Z" fill="black"/>
<path d="M110.818 101.328L110.674 101.424L110.818 101.328Z" fill="black"/>
</svg>
