<svg fill="none" viewBox="0 0 175 205" xmlns="http://www.w3.org/2000/svg"><path d="m11.2211 115.816c-1.1335-2.43-1.96311-4.407-2.50567-5.765-.40681-1.018-.65187-1.688-.74216-1.94-.63117-1.76-2.46727-2.674-4.24484-2.182-.19223.054-.38461.124-.56354.206-1.64644.759-2.402168 2.606-1.78056 4.339.11642.325.39066 1.073.83053 2.174.58634 1.468 1.4677 3.566 2.66225 6.127 2.38712 5.119 6.03579 12.112 11.09559 19.638 10.0874 15.003 25.9762 32.405 48.9256 41.011 22.7938 8.548 46.7237 7.686 64.7787 4.781 9.055-1.457 16.707-3.44 22.103-5.061 2.546-.765 4.595-1.451 6.056-1.965-1.403 1.294-2.937 2.672-4.505 4.055-3.044 2.685-6.173 5.348-8.649 7.392-1.239 1.024-2.301 1.88-3.099 2.502-.401.312-.717.551-.947.717-.126.091-.197.139-.224.157l-.007.005c-1.641.899-2.29 2.944-1.446 4.633.865 1.729 2.967 2.429 4.696 1.565.407-.203.828-.504 1.08-.685.326-.236.716-.532 1.15-.87.87-.678 1.988-1.58 3.254-2.626 2.536-2.093 5.723-4.806 8.823-7.54 3.09-2.725 6.137-5.51 8.372-7.736 1.104-1.1 2.085-2.137 2.781-2.999.333-.413.709-.915.991-1.444.136-.255.339-.677.455-1.204.104-.473.255-1.572-.405-2.709l-.579-.998-1.581-.685c-7.414-3.212-16.375-7.095-24.442-10.909-8.376-3.961-15.401-7.671-18.819-10.369-1.517-1.198-3.718-.939-4.916.578-1.197 1.517-.938 3.718.579 4.916 4.144 3.271 11.9 7.296 20.164 11.203 4.714 2.229 9.72 4.477 14.53 6.594-1.335.464-3.132 1.058-5.326 1.718-5.164 1.551-12.51 3.455-21.201 4.854-17.438 2.805-40.0026 3.528-61.2088-4.424-21.0506-7.894-35.9118-23.992-45.5744-38.363-4.8152-7.162-8.2915-13.825-10.5607-18.691z" fill="#0b0c18"/></svg>