<svg width="329" height="216" viewBox="0 0 329 216" fill="none" xmlns="http://www.w3.org/2000/svg">
<path fill-rule="evenodd" clip-rule="evenodd" d="M197.357 50.8362C197.403 50.8348 197.455 50.8325 197.512 50.8293C198.068 50.7977 198.871 50.6883 199.977 50.4685C202.199 50.0266 205.069 49.2591 208.634 48.2799C209.066 48.1613 209.507 48.04 209.955 47.9165C216.774 46.0393 225.467 43.6459 234.875 42.073C254.749 38.7499 279.415 38.8103 297.738 56.5776C315.629 73.926 319.153 95.6852 314.61 112.092C312.355 120.236 308.024 127.349 302.136 131.811C299.201 134.035 295.887 135.579 292.358 136.231C297.837 143.906 302.666 152.592 305.217 161.417C308.256 171.931 308.192 183.217 301.36 192.931C290.188 208.817 276.151 215.291 261.274 215.788C246.769 216.273 231.894 211.07 218.553 204.651C208.562 199.844 198.982 194.119 190.813 189.237C188.082 187.605 185.51 186.067 183.132 184.689C178.252 181.862 174.324 179.781 171.326 178.669C169.829 178.113 168.84 177.907 168.255 177.87C168.215 177.868 168.18 177.866 168.148 177.866C167.781 178.184 167.202 178.742 166.281 179.675C166.062 179.897 165.829 180.134 165.583 180.383C164.603 181.381 163.42 182.585 162.09 183.863C158.733 187.091 154.26 190.978 148.516 194.426C136.889 201.404 120.424 206.347 98.0253 201.281C81.8962 197.633 71.7082 191.781 66.1616 184.511C63.1703 180.59 61.6893 176.472 61.2714 172.476C56.7325 173.065 51.9085 173.253 47.0972 173.019C37.7542 172.565 27.9506 170.491 20.014 166.188C12.0015 161.843 5.49207 154.958 4.0708 144.993C2.83562 136.334 4.00853 129.659 7.47919 124.699C10.9163 119.786 15.9742 117.478 20.4629 116.162C22.7236 115.499 24.9974 115.043 27.023 114.664C27.4955 114.576 27.9486 114.492 28.3848 114.412C29.9037 114.133 31.2188 113.891 32.4439 113.601C34.0269 113.226 34.9899 112.87 35.5547 112.545C35.7063 112.458 35.7955 112.394 35.8441 112.353C35.8968 112.126 35.8923 111.5 34.7629 109.836C34.1069 108.87 33.2538 107.821 32.172 106.53C32.0295 106.359 31.8831 106.185 31.7334 106.007C30.7994 104.895 29.7387 103.633 28.7285 102.307C26.3765 99.2192 23.8926 95.2853 22.9857 90.3802C22.0521 85.3305 22.89 79.8331 26.138 73.8238C29.5032 67.5974 34.1921 63.8937 39.5155 62.1017C44.6626 60.3689 50.0008 60.5561 54.6243 61.2818C58.7155 61.924 62.6392 63.0621 65.6837 63.9451C66.0708 64.0574 66.4437 64.1656 66.8009 64.268C68.4155 64.7313 69.6175 65.0535 70.5284 65.2244C70.6853 65.0336 70.8662 64.8062 71.073 64.5372C71.9176 63.4388 72.9222 62.0105 74.1838 60.2169C74.4537 59.8332 74.7354 59.4328 75.0297 59.0153C78.2905 54.3906 82.743 48.2048 88.4907 41.9742C99.9708 29.5295 117.005 16.4918 140.868 15.1359C152.566 14.4712 161.797 16.2864 169.181 19.6637C176.57 23.0434 181.816 27.853 185.733 32.7407C189.136 36.9862 191.6 41.3925 193.497 44.7849C193.748 45.2336 193.989 45.6645 194.221 46.075C195.265 47.9232 196.051 49.2287 196.755 50.1427C197.027 50.4966 197.228 50.7116 197.357 50.8362ZM69.841 65.9777C69.8412 65.9764 69.8574 65.9612 69.8894 65.936C69.8568 65.9664 69.8408 65.979 69.841 65.9777ZM35.8211 112.428C35.8187 112.434 35.8164 112.44 35.814 112.447C35.8154 112.443 35.817 112.439 35.8189 112.434C35.8196 112.432 35.8203 112.43 35.8211 112.428ZM35.8762 112.325C35.8862 112.312 35.893 112.305 35.8939 112.305C35.8948 112.305 35.8898 112.312 35.8762 112.325ZM71.4241 170.32C71.9946 170.143 72.5538 169.957 73.101 169.763C76.7169 168.484 80.0957 166.748 82.6594 164.424C85.2712 162.057 87.2997 158.806 87.2997 154.768C87.2997 151.72 86.2367 147.677 82.1275 146.15C78.7375 144.891 75.4142 146.306 73.4071 147.518C69.0324 150.16 64.6426 155.533 62.506 161.894C57.9957 162.68 52.8619 163.008 47.5968 162.752C39.2521 162.346 31.0869 160.498 24.914 157.151C18.8171 153.845 15.0765 149.352 14.2478 143.542C13.233 136.427 14.4352 132.689 15.9021 130.592C17.4025 128.448 19.8448 127.056 23.3561 126.026C25.0956 125.516 26.9468 125.137 28.9135 124.769C29.2963 124.697 29.69 124.625 30.0902 124.551C31.6492 124.265 33.3076 123.961 34.813 123.604C36.6988 123.158 38.8139 122.53 40.6788 121.457C42.6376 120.331 44.5502 118.576 45.5055 115.875C47.216 111.04 45.1911 106.895 43.2685 104.063C42.2854 102.614 41.1199 101.203 40.0526 99.9285C39.8948 99.7401 39.7385 99.554 39.5837 99.3696C38.6422 98.2483 37.7556 97.1924 36.906 96.0772C34.9355 93.4905 33.5707 91.0873 33.0944 88.5113C32.6449 86.08 32.8895 82.9524 35.1815 78.7117C37.3563 74.6881 40.0303 72.7752 42.7952 71.8444C45.7364 70.8543 49.212 70.8381 53.0302 71.4375C56.4338 71.9717 59.7116 72.9198 62.809 73.8157C63.1975 73.928 63.5831 74.0396 63.9658 74.1494C65.5943 74.6166 67.2978 75.0887 68.8043 75.3596C70.0465 75.583 72.3093 75.9187 74.4259 75.0794C75.8009 74.5342 76.8044 73.5723 77.3404 73.0236C77.9843 72.3646 78.621 71.5857 79.2227 70.8031C80.2136 69.5143 81.3783 67.8578 82.6406 66.0626C82.9003 65.6933 83.1641 65.3182 83.4313 64.9391C86.6442 60.3825 90.7783 54.6557 96.0467 48.9445C106.599 37.5058 121.315 26.5435 141.451 25.3994C151.753 24.814 159.273 26.4364 164.905 29.0122C170.531 31.5856 174.566 35.2447 177.711 39.1695C180.545 42.705 182.587 46.3476 184.509 49.7764C184.764 50.2324 185.018 50.6845 185.271 51.1321C186.297 52.9479 187.405 54.8495 188.609 56.414C189.774 57.9265 191.485 59.7449 193.949 60.6146C195.431 61.1377 196.953 61.1577 198.096 61.0927C199.326 61.0227 200.651 60.8157 201.981 60.5512C204.632 60.0242 207.868 59.1511 211.357 58.1928C211.769 58.0796 212.187 57.9647 212.61 57.8484C219.478 55.9584 227.704 53.6946 236.57 52.2122C255.571 49.0353 275.904 49.725 290.582 63.9576C305.691 78.6092 308.273 96.4544 304.703 109.349C302.901 115.856 299.62 120.819 295.927 123.618C292.379 126.306 288.457 127.057 284.345 125.47C283.766 125.247 282.54 124.795 281.166 124.854C280.421 124.886 278.885 125.1 277.563 126.383C276.116 127.788 275.886 129.517 275.947 130.569C276.002 131.532 276.298 132.281 276.465 132.658C276.657 133.091 276.873 133.459 277.048 133.733C277.397 134.279 277.802 134.793 278.149 135.209C278.855 136.055 279.69 136.928 280.304 137.559C280.463 137.722 280.675 137.938 280.846 138.113C280.953 138.222 281.045 138.316 281.097 138.369C281.171 138.445 281.222 138.498 281.254 138.532C287.486 146.555 292.831 155.588 295.341 164.272C297.85 172.95 297.396 180.698 292.952 187.017C283.626 200.277 272.569 205.125 260.931 205.514C248.92 205.915 235.856 201.568 223.009 195.387C213.478 190.802 204.505 185.44 196.417 180.606C193.594 178.92 190.879 177.297 188.285 175.794C183.406 172.967 178.806 170.479 174.902 169.031C172.949 168.306 170.894 167.735 168.892 167.61C166.868 167.485 164.468 167.796 162.365 169.336C161.249 170.153 160.031 171.373 158.968 172.45C158.719 172.702 158.466 172.959 158.207 173.223C157.234 174.212 156.179 175.286 154.965 176.453C151.925 179.376 148.073 182.703 143.226 185.612C133.671 191.347 119.895 195.688 100.293 191.254C85.3053 187.864 77.8098 182.83 74.3345 178.275C72.3338 175.653 71.4856 172.951 71.4241 170.32ZM79.4936 155.938C79.532 155.926 79.5504 155.924 79.55 155.925C79.5496 155.927 79.5304 155.933 79.4936 155.938ZM167.938 177.872C167.938 177.872 167.941 177.871 167.948 177.87C167.942 177.871 167.938 177.872 167.938 177.872ZM280.467 135.001C280.466 134.999 280.494 135.006 280.555 135.028C280.498 135.013 280.468 135.002 280.467 135.001Z" fill="white"/>
</svg>
