<svg fill="none" height="205" viewBox="0 0 148 205" width="148" xmlns="http://www.w3.org/2000/svg"><path clip-rule="evenodd" d="m34.9798 18.2979c1.6193 1.0556 2.0762 3.2241 1.0206 4.8434-.3598.5519-1.0125 1.5284-1.8778 2.8229-2.4229 3.6249-6.512 9.7426-10.5003 16.009-2.6932 4.2314-5.2851 8.4459-7.212 11.8836-.131.2337-.2584.4628-.382.6873.6694-.3171 1.4616-.6813 2.3712-1.0814 3.1785-1.3984 7.7956-3.2386 13.6179-5.043 11.6381-3.6066 28.1384-7.0842 47.6141-6.5718 19.773.5202 34.8805 7.1332 45.0445 13.629 5.078 3.2457 8.929 6.4655 11.525 8.8917 1.299 1.2137 2.287 2.2312 2.959 2.9573.238.2561 1.171 1.3224 1.074 1.2136 1.224 1.4963 1.003 3.7013-.493 4.9251-1.626 1.3293-3.806.7921-5.092-.6885-.132-.152-.34-.3868-.624-.693-.567-.6126-1.436-1.5098-2.603-2.6-2.335-2.1817-5.851-5.1264-10.516-8.1079-9.323-5.9583-23.2081-12.0496-41.4586-12.5297-18.5477-.488-34.2747 2.8258-45.3579 6.2605-5.5385 1.7164-9.9056 3.4594-12.8712 4.764-1.7109.7527-4.2183 1.631-5.5314 2.5081.5968.5789 1.3001 1.2058 2.1068 1.8751 3.2426 2.6902 7.6938 5.6892 12.2751 8.529 4.5573 2.8251 9.1405 5.4297 12.5923 7.3318 1.7236.9498 3.1602 1.7217 4.1639 2.2551.5017.2667.895.4736 1.1616.6132 1.7766.9303 2.898 3.0012 1.9035 4.9255-1.0207 1.9749-3.3473 2.2202-5.1508 1.2757-.2784-.1458-.6844-.3594-1.1995-.6332-1.0302-.5475-2.4981-1.3363-4.2571-2.3056-3.5136-1.9361-8.2084-4.6034-12.902-7.5128-4.6697-2.8947-9.4423-6.0928-13.0566-9.0914-1.7976-1.4914-3.42574-3.0287-4.61921-4.5379-1.07455-1.3587-2.33901-3.3568-2.20482-5.6458.07905-1.3482.71158-2.9005 1.27633-4.1415.64295-1.4129 1.51892-3.0815 2.5277-4.8812 2.0225-3.6083 4.6965-7.9517 7.4128-12.2195 4.043-6.3522 8.3035-12.7264 10.7045-16.3187.8097-1.2112 1.4079-2.1062 1.715-2.5774 1.0556-1.6193 3.2241-2.0762 4.8434-1.0206z" fill="#0b0c18" fill-rule="evenodd"/></svg>