<svg fill="none" height="205" viewBox="0 0 661 205" width="661" xmlns="http://www.w3.org/2000/svg"><path clip-rule="evenodd" d="m370.324 39.2171c.046-.0015.098-.0037.155-.007.556-.0316 1.359-.1409 2.465-.3608 2.222-.4418 5.092-1.2093 8.657-2.1885.432-.1187.873-.2399 1.321-.3634 6.819-1.8773 15.512-4.2706 24.919-5.8435 19.875-3.3231 44.541-3.2628 62.864 14.5046 17.89 17.3484 21.415 39.1075 16.872 55.5145-2.255 8.144-6.586 15.256-12.474 19.719-2.936 2.224-6.249 3.768-9.779 4.42 5.48 7.675 10.309 16.361 12.86 25.186 3.039 10.514 2.975 21.8-3.857 31.513-11.172 15.887-25.209 22.361-40.086 22.858-14.505.485-29.38-4.719-42.722-11.137-9.991-4.807-19.57-10.532-27.739-15.415-2.731-1.632-5.304-3.169-7.682-4.547-4.879-2.827-8.807-4.908-11.805-6.02-1.497-.556-2.486-.762-3.071-.799-.04-.002-.075-.004-.107-.005-.367.319-.946.877-1.867 1.81-.22.222-.452.458-.698.708-.98.998-2.163 2.202-3.493 3.48-3.357 3.228-7.83 7.115-13.574 10.563-11.627 6.978-28.092 11.921-50.491 6.855-16.129-3.648-26.317-9.5-31.864-16.77-2.991-3.921-4.472-8.039-4.89-12.035-4.539.589-9.363.777-14.174.543-9.343-.454-19.147-2.528-27.083-6.831-8.013-4.345-14.522-11.23-15.943-21.195-1.236-8.659-.063-15.334 3.408-20.295 3.437-4.912 8.495-7.22 12.984-8.536 2.26-.664 4.534-1.119 6.56-1.498.472-.088.925-.172 1.362-.252 1.519-.279 2.834-.521 4.059-.811 1.583-.375 2.546-.731 3.111-1.056.151-.087.24-.152.289-.192.053-.227.048-.8531-1.081-2.517-.656-.9665-1.509-2.015-2.591-3.3066-.143-.17-.289-.3443-.439-.5225-.934-1.1117-1.995-2.3743-3.005-3.7004-2.352-3.0874-4.836-7.0213-5.742-11.9264-.934-5.0497-.096-10.5472 3.152-16.5565 3.365-6.2263 8.054-9.93 13.377-11.7221 5.147-1.7327 10.486-1.5456 15.109-.8198 4.091.6422 8.015 1.7802 11.059 2.6633.388.1123.76.2204 1.118.3229 1.614.4633 2.816.7855 3.727.9563.157-.1907.338-.4181.545-.6872.844-1.0984 1.849-2.5266 3.111-4.3202.269-.3837.551-.7841.846-1.2017 3.26-4.6246 7.713-10.8104 13.46-17.041 11.481-12.4447 28.514-25.48246 52.378-26.83833 11.698-.66467 20.928 1.15048 28.312 4.52776 7.39 3.37977 12.636 8.18937 16.553 13.07707 3.402 4.2455 5.867 8.6518 7.764 12.0442.251.4487.492.8796.724 1.2901 1.044 1.8482 1.83 3.1536 2.534 4.0677.272.3539.473.5689.602.6935zm-127.516 15.1415c0-.0013.016-.0165.048-.0417-.032.0304-.048.043-.048.0417zm-34.02 46.4504c-.003.006-.005.012-.007.019.001-.004.003-.008.005-.013 0-.002.001-.004.002-.006zm.055-.103c.01-.013.017-.02.018-.02s-.004.007-.018.02zm35.548 57.995c.57-.178 1.13-.363 1.677-.557 3.616-1.279 6.995-3.016 9.558-5.339 2.612-2.367 4.641-5.618 4.641-9.656 0-3.049-1.064-7.091-5.173-8.618-3.39-1.259-6.713.156-8.72 1.368-4.375 2.642-8.765 8.015-10.901 14.376-4.511.786-9.644 1.114-14.909.857-8.345-.406-16.51-2.254-22.683-5.601-6.097-3.305-9.838-7.798-10.666-13.608-1.015-7.115.187-10.854 1.654-12.95 1.5-2.144 3.943-3.536 7.454-4.566 1.739-.51 3.591-.889 5.557-1.257.383-.072.777-.144 1.177-.218 1.559-.286 3.217-.59 4.723-.947 1.886-.446 4.001-1.075 5.866-2.147 1.958-1.126 3.871-2.881 4.826-5.582 1.711-4.8347-.314-8.9802-2.237-11.8125-.983-1.4483-2.148-2.8599-3.216-4.1341-.157-.1884-.314-.3746-.468-.5589-.942-1.1213-1.829-2.1773-2.678-3.2925-1.971-2.5867-3.336-4.9899-3.812-7.5658-.449-2.4313-.205-5.5589 2.087-9.7996 2.175-4.0236 4.849-5.9365 7.614-6.8673 2.941-.9901 6.417-1.0063 10.235-.407 3.404.5343 6.681 1.4824 9.779 2.3782.388.1124.774.2239 1.157.3337 1.628.4673 3.332.9393 4.838 1.2103 1.242.2234 3.505.559 5.622-.2802 1.375-.5453 2.378-1.5071 2.914-2.0558.644-.6591 1.281-1.438 1.882-2.2206.991-1.2887 2.156-2.9452 3.418-4.7404.26-.3693.524-.7445.791-1.1235 3.213-4.5567 7.347-10.2835 12.615-15.9946 10.553-11.4388 25.269-22.4011 45.405-23.5452 10.302-.5853 17.822 1.037 23.453 3.6129 5.627 2.5734 9.662 6.2325 12.807 10.1573 2.834 3.5354 4.875 7.178 6.798 10.6069.255.4559.509.9081.761 1.3557 1.026 1.8158 2.135 3.7174 3.339 5.2818 1.165 1.5125 2.876 3.331 5.34 4.2006 1.482.5232 3.004.5432 4.147.4781 1.229-.0699 2.555-.277 3.885-.5415 2.651-.5269 5.887-1.4 9.376-2.3583.412-.1132.83-.2281 1.252-.3445 6.868-1.8899 15.095-4.1537 23.961-5.6361 19-3.1769 39.334-2.4873 54.011 11.7454 15.11 14.6516 17.692 32.4968 14.121 45.3915-1.801 6.507-5.082 11.47-8.775 14.269-3.548 2.688-7.47 3.439-11.582 1.852-.58-.223-1.805-.675-3.179-.616-.746.031-2.282.245-3.603 1.529-1.447 1.405-1.677 3.134-1.616 4.185.055.964.351 1.713.518 2.09.192.433.408.801.583 1.075.349.546.754 1.06 1.101 1.476.706.846 1.541 1.719 2.155 2.35.159.163.371.379.542.554.107.109.199.203.251.256.074.076.125.129.157.163 6.232 8.022 11.577 17.056 14.087 25.74 2.509 8.678 2.054 16.426-2.39 22.745-9.325 13.26-20.382 18.108-32.02 18.497-12.011.401-25.075-3.946-37.922-10.127-9.531-4.585-18.504-9.947-26.592-14.781-2.823-1.687-5.538-3.309-8.132-4.812-4.879-2.827-9.48-5.315-13.383-6.763-1.953-.725-4.008-1.297-6.01-1.421-2.024-.126-4.424.186-6.527 1.726-1.116.817-2.334 2.037-3.397 3.114-.249.252-.502.509-.761.772-.973.99-2.028 2.064-3.242 3.231-3.04 2.923-6.893 6.25-11.739 9.159-9.555 5.734-23.331 10.076-42.933 5.642-14.988-3.39-22.483-8.424-25.959-12.979-2-2.622-2.849-5.324-2.91-7.955zm8.069-14.382c.039-.012.057-.014.057-.013-.001.002-.02.007-.057.013zm200.973-20.938c-.001-.001.028.006.089.028-.057-.015-.088-.026-.089-.028z" fill="#465fc0" fill-rule="evenodd"/><g fill="#0b0c18"><path d="m11.2211 115.816c-1.1335-2.43-1.96311-4.407-2.50567-5.765-.40681-1.018-.65187-1.688-.74216-1.94-.63117-1.76-2.46727-2.674-4.24484-2.182-.19223.054-.38461.124-.56354.206-1.64644.759-2.402168 2.606-1.78056 4.339.11642.325.39066 1.073.83053 2.174.58634 1.468 1.4677 3.566 2.66225 6.127 2.38712 5.119 6.03579 12.112 11.09559 19.638 10.0874 15.003 25.9762 32.405 48.9256 41.011 22.7938 8.548 46.7237 7.686 64.7787 4.781 9.055-1.457 16.707-3.44 22.103-5.061 2.546-.765 4.595-1.451 6.056-1.965-1.403 1.294-2.937 2.672-4.505 4.055-3.044 2.685-6.173 5.348-8.649 7.392-1.239 1.024-2.301 1.88-3.099 2.502-.401.312-.717.551-.947.717-.126.091-.197.139-.224.157l-.007.005c-1.641.899-2.29 2.944-1.446 4.633.865 1.729 2.967 2.429 4.696 1.565.407-.203.828-.504 1.08-.685.326-.236.716-.532 1.15-.87.87-.678 1.988-1.58 3.254-2.626 2.536-2.093 5.723-4.806 8.823-7.54 3.09-2.725 6.137-5.51 8.372-7.736 1.104-1.1 2.085-2.137 2.781-2.999.333-.413.709-.915.991-1.444.136-.255.339-.677.455-1.204.104-.473.255-1.572-.405-2.709l-.579-.998-1.581-.685c-7.414-3.212-16.375-7.095-24.442-10.909-8.376-3.961-15.401-7.671-18.819-10.369-1.517-1.198-3.718-.939-4.916.578-1.197 1.517-.938 3.718.579 4.916 4.144 3.271 11.9 7.296 20.164 11.203 4.714 2.229 9.72 4.477 14.53 6.594-1.335.464-3.132 1.058-5.326 1.718-5.164 1.551-12.51 3.455-21.201 4.854-17.438 2.805-40.0026 3.528-61.2088-4.424-21.0506-7.894-35.9118-23.992-45.5744-38.363-4.8152-7.162-8.2915-13.825-10.5607-18.691z"/><path clip-rule="evenodd" d="m530.98 18.2979c1.619 1.0556 2.076 3.2241 1.02 4.8434-.359.5519-1.012 1.5284-1.877 2.8229-2.423 3.6249-6.512 9.7426-10.501 16.009-2.693 4.2314-5.285 8.4459-7.212 11.8836-.131.2337-.258.4628-.382.6873.67-.3171 1.462-.6813 2.371-1.0814 3.179-1.3984 7.796-3.2386 13.618-5.043 11.638-3.6066 28.139-7.0842 47.614-6.5718 19.773.5202 34.881 7.1332 45.045 13.629 5.078 3.2457 8.929 6.4655 11.525 8.8917 1.299 1.2137 2.287 2.2312 2.959 2.9573.238.2561 1.171 1.3224 1.074 1.2136 1.224 1.4963 1.003 3.7013-.493 4.9251-1.626 1.3293-3.806.7921-5.092-.6885-.132-.152-.34-.3868-.624-.693-.567-.6126-1.436-1.5098-2.603-2.6-2.335-2.1817-5.851-5.1264-10.516-8.1079-9.323-5.9583-23.208-12.0496-41.459-12.5297-18.547-.488-34.274 2.8258-45.358 6.2605-5.538 1.7164-9.905 3.4594-12.871 4.764-1.711.7527-4.218 1.631-5.531 2.5081.597.5789 1.3 1.2058 2.107 1.8751 3.242 2.6902 7.693 5.6892 12.275 8.529 4.557 2.8251 9.14 5.4297 12.592 7.3318 1.724.9498 3.16 1.7217 4.164 2.2551.502.2667.895.4736 1.162.6132 1.776.9303 2.898 3.0012 1.903 4.9255-1.021 1.9749-3.347 2.2202-5.151 1.2757-.278-.1458-.684-.3594-1.199-.6332-1.03-.5475-2.498-1.3363-4.257-2.3056-3.514-1.9361-8.209-4.6034-12.902-7.5128-4.67-2.8947-9.443-6.0928-13.057-9.0914-1.798-1.4914-3.426-3.0287-4.619-4.5379-1.075-1.3587-2.339-3.3568-2.205-5.6458.079-1.3482.712-2.9005 1.276-4.1415.643-1.4129 1.519-3.0815 2.528-4.8812 2.023-3.6083 4.697-7.9517 7.413-12.2195 4.043-6.3522 8.303-12.7264 10.704-16.3187.81-1.2112 1.408-2.1062 1.715-2.5774 1.056-1.6193 3.224-2.0762 4.844-1.0206z" fill-rule="evenodd"/></g></svg>