<svg fill="none" height="27" viewBox="0 0 26 27" width="26" xmlns="http://www.w3.org/2000/svg"><path d="m21.2339 3.86719h-16.90005l-3.466662 5.2 12.133312 16.46671 12.1334-16.46671z" fill="#b4e4ff" stroke="#00a4ff" stroke-width=".866667"/><path d="m4.55332 3.00713c-.01659.00337-.06633.01349-.11276.0236-.11607.02697-.38469.25283-.49082.41802-.14591.22249-.21224.32025-.36811.52252-.08291.11124-.18571.25283-.22882.32025-.04312.07079-.13597.19215-.2023.27643s-.1625.21238-.20893.28655c-.04974.07416-.13265.19552-.18571.26968-.05638.07417-.1426.19553-.19235.26969-.04974.07417-.15918.21912-.24209.32363-.08291.1045-.20893.27643-.28189.3843-.07296.10788-.14923.21238-.16913.23261-.0199.02022-.07628.09776-.12602.17192-.04643.07417-.12934.18879-.17908.25621-.04975.06742-.22883.31688-.39465.55623-.16913.23935-.391323.54949-.490813.6877-.189031.26295-.38801.53938-.570408.8057-.0696431.10113-.109439.19552-.109439.26968 0 .11462.116071.33711.295153.56635.049745.05731.139286.17867.202296.26294.06301.08765.132653.17526.149235.19886.043112.0506.28852.3877.35153.4821.026526.0371.116076.1618.205616.2764.46428.6068.59362.7788.73622.981.04311.0641.15255.2124.23878.327.19566.2562.66658.8934.75612 1.0215.03648.0505.1426.1955.23214.3168.09286.1248.21888.3001.28189.3945.11607.1719.17576.2494.48087.6405.09285.1146.18903.2427.21556.2865.02653.0405.1625.2225.29847.4046.13597.1854.27857.3741.31505.4247.35485.4922.5903.8091.73291.981.09285.1146.20893.2697.25867.3439.15255.2326.31837.455.67653.9.05638.0742.10612.1484.10612.1652 0 .0135.0398.0742.09286.1281.04975.0573.18571.2394.3051.4079.11939.1686.32832.4551.4676.6372.13929.182.28189.3742.31506.4281.03316.0539.07959.1112.1028.1315.02322.0168.07628.0809.11607.1415.32832.4686.50408.708.7097.9709.12933.1652.25204.3371.27194.3776.02321.0404.06632.0977.09617.1315.03316.0303.08291.091.10944.1348.02653.0405.11607.1652.19898.2731.08291.1078.17576.2326.20893.2798.06301.091.15255.209.38801.5259.0829.1078.17248.2292.19898.2696.0265.0405.1625.2225.2985.4012.1359.182.2719.3607.2951.4012.0265.037.1128.1449.1857.2393.0763.091.1559.1989.1758.2394.0332.064.1691.2461.3383.4517.0364.0472.0928.1247.126.1753.0597.0944.4411.6068.4709.6338.01.0101.0895.1146.1791.2359.3117.4315.3449.472.5472.6338.1757.1382.3681.1281.5936-.0405.0929-.0707.1724-.1415.1724-.155s.0929-.145.209-.2933c.1127-.145.2421-.3169.2885-.3809.0431-.0641.1227-.172.1724-.236.0498-.0641.1426-.1854.2057-.2697.0663-.0843.1625-.2124.2188-.2866.0564-.0741.136-.1854.1758-.2427.0398-.0607.1658-.236.2819-.3877.2454-.3303.4643-.6236.6268-.8427.063-.091.1293-.1618.1426-.1618.0166 0 .0365-.027.0464-.0607.0199-.054.0696-.1281.5107-.7113.1028-.1382.2653-.3574.3582-.4888.0962-.1315.1956-.2663.2222-.2967.0298-.0303.0796-.0977.1127-.1517.0332-.0506.1261-.182.209-.2899s.1757-.236.2056-.2832c.0298-.0472.0696-.0977.0862-.1078.0332-.0203.4145-.5293.5107-.6844.0332-.0505.0896-.1281.1293-.1685.0365-.0439.2521-.3304.4743-.6405.2255-.3068.4477-.6102.4941-.6743.2421-.3135.3151-.4045.5339-.7045.1294-.1753.2753-.3742.3217-.4383.2222-.2966.5804-.7854.6268-.8529.0398-.0573.5373-.7315 1.0347-1.399.0498-.0674.1194-.1584.1492-.2056.136-.1989.4643-.6371.6102-.8091.083-.1011.1791-.2326.2057-.2865.0298-.0573.1227-.1854.2023-.2865.0829-.1012.2122-.2765.2885-.3877.0763-.1113.252-.3472.3913-.5225s.2786-.3641.3151-.4214c.0331-.054.126-.1821.2089-.2765.0796-.0977.2023-.2595.2686-.3539.063-.0978.2122-.3001.3283-.4484s.2454-.3236.2952-.3877c.0464-.064.1757-.2427.2885-.3944.1127-.1517.2421-.33035.2885-.39777s.1227-.17192.1725-.2326c.1293-.15845.2918-.48544.2918-.58657 0-.0472-.0365-.14159-.0763-.20564-.0431-.06742-.0995-.15507-.126-.19215-.0265-.04046-.1194-.1753-.2122-.29666-.398-.53938-.5373-.7349-.6467-.89671-.063-.09102-.199-.2798-.2985-.41465-.1028-.13147-.2122-.28654-.2487-.34048-.1061-.15507-.189-.26969-.3549-.48544-.0829-.11124-.1724-.23597-.1923-.2798-.0232-.04382-.0829-.1281-.1293-.18541-.1161-.14159-.4046-.536-.4743-.65062-.0298-.0472-.0729-.10788-.0962-.13485-.0232-.02696-.1392-.18541-.2553-.35396-.1161-.16856-.2421-.34385-.2753-.39105-.0364-.04719-.1028-.14496-.1525-.21912-.0464-.07416-.0995-.14496-.1194-.15507-.0166-.01348-.063-.07416-.1028-.14159-.1592-.26294-.3283-.46184-.5041-.5832l-.1824-.1281-8.4898-.00337c-4.66606 0-8.49642.00337-8.50968.00674zm4.71913 1.22371c.02985.02697.03979.07079.02653.11462-.01658.06742-.21225.50566-.28189.63714-.02985.05731-.06301.14158-.27525.70793-.04643.12473-.10613.25957-.13266.3034-.02321.04045-.06964.15507-.1028.24946-.02985.09776-.06633.18541-.08291.19552s-.05306.09776-.08623.19553c-.02984.09439-.07627.19889-.1028.22923-.02653.03371-.06633.13484-.09286.22923-.02321.0944-.07296.21913-.10944.27981s-.08291.17192-.10612.24609c-.02321.07416-.07959.20226-.1227.28317-.0398.0809-.07628.16518-.07628.18541 0 .13484-.07627.2798-.17245.34048-.10612.06405-.18903.06742-2.82882.07754-1.49567.00337-2.75256 0-2.79235-.01012-.13929-.03371-.12602-.13484.04643-.35059.16913-.21238.41454-.54612.74617-1.0147.325-.45847.5074-.71131.78265-1.07875.10613-.13822.21225-.28655.23878-.327.23877-.3506.75281-1.04841 1.05127-1.41923l.06965-.09102.84234-.02023c1.42934-.03034 3.50205-.01011 3.56174.03708zm6.05225-.00674c.0597.03034.1194.08091.1327.10787.073.14496.2222.49893.2421.57309.0133.0472.0564.15844.0995.25283.2421.51915.2819.61692.3018.71468.0099.05731.0431.12473.0696.14833.0232.02022.0697.11461.0962.21237.0265.0944.0862.24609.1293.34049.0763.15169.1824.40453.451 1.06189.0498.12136.1227.28317.1592.35734.1028.20226.1227.36071.0564.42813-.0497.05394-.3781.05731-4.0592.05731-3.91325 0-4.00611 0-4.06248-.06405-.06633-.07417-.05638-.13148.06301-.39105.1227-.26632.3051-.70119.33163-.78884.01326-.04719.05969-.1517.10281-.2326.04311-.08428.07959-.1753.07959-.20564s.04311-.13822.09949-.23935c.05306-.10113.09617-.20901.09949-.23935 0-.03034.04643-.13821.09949-.24272.05637-.1045.09949-.20901.09949-.2326 0-.0236.04642-.13485.09948-.24609.0531-.11125.0995-.2225.0995-.24609 0-.0236.0464-.12811.0995-.23261.0564-.1045.0995-.21238.0995-.24272s.0365-.1281.0829-.22249c.0431-.09102.1028-.22586.1293-.29329.0365-.09439.0763-.13147.1592-.15844.063-.01685 1.0181-.03034 2.3181-.03034 2.0064-.00337 2.222.00337 2.3214.05394zm5.8069-.01686c.0332.01686.1592.16856.2819.33711.1891.26295.5771.79895.9286 1.28102.0497.06742.1559.20564.2288.3034.0763.09439.1824.23935.2322.31351.2089.30677 1.0943 1.53385 1.3033 1.80691.0796.10451.0663.17193-.0498.22587-.1127.05056-5.3127.05393-5.4951 0-.1559-.04383-.2554-.13822-.2554-.2461 0-.04382-.0431-.16518-.0962-.26631-.053-.10113-.1061-.23598-.1193-.30003-.0133-.06068-.0664-.19552-.1161-.29666-.0531-.10113-.1028-.23934-.1161-.3034-.0132-.06405-.053-.15507-.0862-.19889-.0365-.04382-.0796-.14159-.0995-.21912-.0199-.07417-.063-.1753-.0962-.22249-.0331-.0472-.0762-.1517-.0995-.23261-.0199-.08091-.0597-.18204-.0862-.22249-.0232-.03708-.0729-.15507-.1094-.25958-.0365-.1045-.0862-.22586-.1128-.26968-.0265-.04046-.0729-.15845-.1061-.25284-.0298-.09776-.0663-.18541-.0829-.19552s-.0464-.07417-.0663-.14496c-.0199-.06742-.0829-.21912-.1426-.33374-.0995-.19552-.1028-.20901-.0498-.26968.0564-.06068.1426-.06406 2.2054-.06068 1.1839 0 2.1755.01348 2.2053.02696zm-13.63007 5.50838c.03316.03034.05969.07753.05969.10787s.02985.11125.06633.17871c.03648.0674.07959.2157.09617.3236.01659.1112.0597.2596.09618.3337.03648.0708.08291.2158.1028.3203.01659.1079.06301.2596.09949.3371.03317.0809.0796.2292.09618.3304.0199.1011.07296.2696.11939.3708.04642.1011.08622.2292.08622.2865 0 .054.03648.1821.08291.2798.04311.0978.09949.2798.11939.4046.02321.1247.06632.2595.09617.3034.03316.0404.06964.155.08291.2528.01326.0944.05637.2596.09949.3607.04311.1011.09285.2764.11607.3877.02321.1112.06632.2562.09949.3236.03316.064.07959.2157.09949.3337s.06632.2697.09949.3371c.03316.0675.07627.2158.09949.3304.0199.1146.07296.2899.11607.3843.04643.0978.08291.2225.08291.2798 0 .054.03648.1821.08291.2765.04311.0977.09285.2595.11275.3607.0199.1045.06633.2494.10281.327.03979.0741.08622.2292.1028.3404.01658.1113.0597.2596.09617.327.0332.0708.0796.2192.0995.3371.0199.1147.0663.2664.1028.3372.0332.0674.0796.2157.0995.3269.0199.1079.073.2765.1161.3709s.0796.2225.0796.2865c0 .0641.0298.1652.0663.2259.0398.064.0928.2292.1227.3708.0265.145.0763.3135.1094.3809.0332.0641.0796.2158.0995.3338s.0663.2697.0995.3337c.0332.0674.0763.209.0995.3169.0199.1079.0763.2697.1194.354.0431.0876.0895.2427.0995.3472.0166.1584.0132.1921-.0365.2124-.0796.0303-.0929.0134-.2719-.2596-.0863-.1349-.2189-.3203-.2952-.4113-.0763-.0944-.1625-.2157-.189-.273-.0299-.0574-.0763-.1147-.1028-.1248-.0266-.0101-.0763-.0708-.1062-.1315-.0298-.0606-.0961-.1584-.1426-.2191-.0464-.0573-.1392-.1786-.20226-.2697-.06301-.0876-.22882-.3067-.36811-.482-.13929-.1787-.27194-.3607-.29515-.4046-.02322-.0472-.07296-.1146-.10612-.1517-.0597-.0606-.23546-.2932-.39796-.5259-.08954-.1314-.36812-.5056-.48087-.6506-.0597-.0775-.13597-.1753-.16582-.2225-.02984-.0472-.1028-.1382-.15918-.2056-.05306-.0674-.17908-.236-.27526-.3708-.09617-.1382-.29847-.4147-.4477-.6169-.14924-.1989-.30179-.4079-.33827-.4585s-.13265-.1787-.21556-.2865c-.19234-.2529-.31505-.4181-.38801-.5226-.1028-.1517-.4875-.654-.54719-.7214-.03316-.0371-.0597-.0809-.0597-.0977 0-.0169-.04974-.0877-.10612-.1585-.13928-.1584-.38801-.4854-.49081-.6405-.04312-.064-.08954-.1247-.09949-.1348-.00995-.0102-.04643-.0641-.0796-.118-.03648-.0573-.12602-.1787-.20229-.2697-.07628-.0944-.17908-.2292-.22551-.3034-.04975-.0742-.16582-.2326-.25868-.354-.34489-.445-.84566-1.1226-.91198-1.2338-.03648-.0641-.08955-.1348-.11608-.1584-.02984-.0203-.08954-.1012-.13928-.1753-.04975-.0742-.18903-.2664-.31174-.4282-.12602-.1618-.2852-.3775-.35816-.4854-.07296-.1045-.20561-.2832-.29847-.3978-.16913-.20901-.31505-.41464-.31505-.44498 0-.06405.44107-.07754 2.88189-.07754 2.50051-.00337 2.73928 0 2.79566.05394zm9.71357-.00674c.0431.04382.0497.0809.0298.17192-.0166.06743-.0497.145-.0796.1753-.0265.0337-.063.1517-.0829.2663-.0166.1146-.0564.2562-.0895.3203-.0332.0607-.0763.209-.1028.3303-.0233.118-.0664.263-.0962.3203-.0266.0539-.0796.2259-.1161.3809-.0332.1517-.0829.3135-.1094.354-.0266.0404-.0664.1719-.0863.2899-.0199.1214-.0663.2731-.0994.3405-.0332.0674-.0796.2191-.0995.3405-.0199.118-.0664.2595-.0962.3169-.0332.0539-.0796.1988-.0995.3168-.0232.118-.0696.2697-.1028.3338-.0365.0674-.073.1888-.0862.273-.0133.0843-.0564.2394-.0962.3405-.0431.1011-.0929.2764-.1161.3877-.0232.1112-.0663.2562-.0995.3202-.0331.0675-.0796.2192-.1028.3372-.0199.1213-.0663.273-.0995.3404-.0331.0675-.0762.2192-.0928.3338-.0199.118-.0597.2393-.0896.273-.0298.0337-.0729.1652-.0961.2967-.0266.1281-.0763.2933-.1128.3674-.0365.0742-.0829.236-.1028.3607-.0199.1248-.0663.2866-.1028.3608-.0365.0707-.0829.2191-.0995.3236-.0199.1045-.063.236-.0962.2933-.0331.0539-.0762.1955-.0995.3101-.0199.118-.0729.2933-.116.3877-.0465.0977-.0829.2225-.0829.273 0 .0506-.0365.1787-.0796.2866-.0431.1045-.0962.2832-.1194.3944-.0232.1113-.0663.2562-.0995.3203-.0298.064-.0829.2326-.1128.3708-.0298.1382-.0762.2966-.1061.3539-.0265.054-.0663.1855-.0862.2866-.0166.1011-.0564.2292-.0829.2865-.0299.054-.0796.2158-.1095.354-.0331.1382-.0895.327-.126.4214-.0365.091-.0829.2427-.0995.3371-.0398.1854-.1691.5663-.2321.6742-.0332.0573-.0431.0607-.073.0169-.0165-.027-.0497-.1113-.0663-.1854-.0199-.0742-.0696-.2192-.1127-.3203-.0432-.1011-.0863-.2562-.0995-.3438-.01-.0843-.0465-.2124-.0829-.2866-.0365-.0708-.083-.2225-.1028-.3371-.0199-.118-.073-.2933-.1161-.3877-.0464-.0977-.0829-.2124-.0829-.2562s-.0299-.1483-.0664-.236c-.0331-.0876-.0928-.2798-.1293-.4281s-.0895-.3202-.1194-.3775c-.0298-.0574-.0729-.2225-.0995-.3641-.0265-.1416-.0796-.2967-.116-.3439-.0398-.0505-.0664-.1382-.0664-.209 0-.0674-.0364-.2023-.0829-.3-.0431-.0944-.0961-.2697-.116-.3843-.0233-.1146-.0664-.263-.0995-.3304-.0332-.0674-.0796-.2191-.0995-.3405-.0199-.118-.0664-.2629-.0995-.3169-.0332-.0573-.0796-.1988-.0995-.3168s-.0663-.2664-.0995-.3304c-.0332-.0641-.0796-.2259-.1028-.3573-.0232-.1349-.073-.2832-.1061-.3338-.0365-.0505-.0796-.1719-.0929-.273-.0099-.0978-.053-.2461-.0895-.3304-.0365-.0809-.0829-.2394-.1061-.3506-.0233-.1112-.0664-.2562-.0995-.3203-.0332-.0674-.0697-.1955-.0829-.2865-.0133-.0944-.0664-.2663-.1161-.3877-.0498-.1213-.0995-.2865-.1128-.3674-.0132-.0809-.0497-.209-.0829-.2866-.03646-.0741-.07957-.2359-.10278-.3573-.0199-.1214-.06633-.2663-.09949-.3203-.03317-.0573-.0796-.1989-.09949-.3202-.0199-.1214-.06633-.2663-.09949-.3203-.03317-.0573-.07628-.1955-.09618-.3101-.01658-.1113-.05969-.263-.09617-.3371-.03648-.0708-.08622-.2293-.10944-.3472-.0199-.1214-.06633-.2731-.09617-.3372-.03317-.064-.07628-.209-.09949-.3202-.02322-.1113-.07628-.2899-.11939-.3944-.04311-.1079-.07959-.2427-.07959-.3068 0-.0674-.03316-.1584-.08291-.2259-.09949-.1348-.10944-.31684-.02321-.36741.03648-.02359 1.4459-.03371 4.1985-.03708 3.6977 0 4.1487.00674 4.2018.05057zm6.9079-.00674c.0563.04045.0563.05056-.0166.17529-.0398.07417-.1095.17197-.1559.21917-.0729.0809-.3648.4652-.587.7787-.053.0775-.199.273-.3217.4315-.1227.1584-.262.3438-.3084.4079-.0497.064-.1625.2157-.252.3371-.0896.1214-.199.273-.2421.3371s-.1758.2427-.2952.3944-.2454.3203-.2785.3708c-.0299.0506-.0962.1416-.1426.2023-.146.1888-.2256.2899-.3881.5158-.0862.1213-.1757.2427-.1989.2697-.1857.2393-.2753.3607-.3748.509-.063.0944-.1558.2158-.2056.2697-.053.0573-.0928.1112-.0928.1247s-.0465.0776-.0995.1416c-.0564.0641-.1559.1989-.2255.2967-.0664.1011-.1891.2697-.272.3775-.0829.1079-.2023.2663-.2653.354-.063.0843-.1724.2225-.2388.3068-.0696.0842-.126.1652-.126.1786 0 .0169-.0796.1281-.1724.2461-.0962.1214-.2653.3472-.3748.4989-.1094.1551-.2454.3439-.3051.4181-.0597.0775-.1525.1989-.2122.273-.0564.0742-.3416.4585-.6301.8563-.2919.3978-.5605.7619-.597.809-.2122.2731-.4046.5394-.4643.6372-.0397.0573-.0829.1079-.0961.1079-.0166 0-.063.0573-.1028.1247-.0431.0708-.146.2157-.2355.3236-.0862.1079-.1592.2124-.1592.2326s-.0497.0944-.1061.1618c-.1857.2158-.6434.8496-.7296 1.0114-.0531.091-.0663.1011-.1293.064-.063-.0337-.0697-.0539-.0498-.2292.0133-.1045.0664-.2798.1194-.3944.0564-.1113.0995-.2495.0995-.3034 0-.054.0365-.1787.0829-.2765.0431-.0944.0962-.2697.1161-.3843.0232-.1146.0663-.2663.1028-.3371s.0862-.2393.1094-.3742c.0266-.1382.0796-.3.1161-.3641.0398-.064.0696-.1584.0696-.209 0-.0505.0365-.1786.0796-.2865.0431-.1045.0962-.2798.1161-.3843.0166-.1045.063-.2495.0962-.3203.0365-.0708.0796-.2225.1028-.3404.0232-.1147.0763-.29.1194-.3877.0464-.0944.0829-.2191.0829-.2731 0-.0539.0365-.1753.0796-.2697s.0961-.2663.1194-.3843c.0199-.118.0729-.2831.1194-.3674.0431-.0843.0795-.2023.0795-.2596s.0332-.1719.0697-.2562.0895-.2528.1161-.3809c.0232-.1248.0729-.2832.1094-.354.0332-.0674.0796-.2292.0995-.3573.0232-.1281.0696-.29.1061-.3641.0365-.0708.0829-.2158.0995-.3236.0199-.1045.063-.2428.0962-.3102.0331-.064.0796-.2191.0995-.3371.0232-.1214.0696-.2663.0995-.3202.0331-.0574.0696-.1787.0829-.2697.0132-.0944.0663-.2697.1193-.3945.0531-.1213.0962-.2663.0962-.3202 0-.0506.0365-.1753.0829-.2731.0431-.0944.0962-.2697.1161-.3876.0199-.1147.063-.263.0995-.3304.0332-.0641.0763-.209.0962-.3203.0232-.1078.0762-.2831.116-.3843.0431-.1011.0896-.2629.1028-.3539.0133-.0944.0498-.2158.0863-.2731.0331-.0573.063-.13821.063-.17529 0-.04046.0331-.09439.0729-.12136.0664-.0472.388-.05394 2.8123-.05394 2.1954 0 2.7525.01011 2.799.04383z" fill="#00a4ff"/></svg>