<svg width="26" height="27" viewBox="0 0 26 27" fill="none" xmlns="http://www.w3.org/2000/svg">
<path d="M21.2339 3.86719H4.33385L0.867188 9.06719L13.0005 25.5339L25.1339 9.06719L21.2339 3.86719Z" fill="#B4E4FF" stroke="#00A4FF" stroke-width="0.866667"/>
<path d="M4.55332 3.00713C4.53673 3.0105 4.48699 3.02062 4.44056 3.03073C4.32449 3.0577 4.05587 3.28356 3.94974 3.44875C3.80383 3.67124 3.7375 3.769 3.58163 3.97127C3.49872 4.08251 3.39592 4.2241 3.35281 4.29152C3.30969 4.36231 3.21684 4.48367 3.15051 4.56795C3.08418 4.65223 2.98801 4.78033 2.94158 4.8545C2.89184 4.92866 2.80893 5.05002 2.75587 5.12418C2.69949 5.19835 2.61327 5.31971 2.56352 5.39387C2.51378 5.46804 2.40434 5.61299 2.32143 5.7175C2.23852 5.822 2.1125 5.99393 2.03954 6.1018C1.96658 6.20968 1.89031 6.31418 1.87041 6.33441C1.85051 6.35463 1.79413 6.43217 1.74439 6.50633C1.69796 6.5805 1.61505 6.69512 1.56531 6.76254C1.51556 6.82996 1.33648 7.07942 1.17066 7.31877C1.00153 7.55812 0.779337 7.86826 0.679847 8.00647C0.490816 8.26942 0.291837 8.54585 0.109439 8.81217C0.0397959 8.9133 0 9.00769 0 9.08185C0 9.19647 0.116071 9.41896 0.295153 9.6482C0.344898 9.70551 0.434439 9.82687 0.497449 9.91114C0.560459 9.99879 0.630102 10.0864 0.646684 10.11C0.689796 10.1606 0.935204 10.4977 0.998214 10.5921C1.02474 10.6292 1.11429 10.7539 1.20383 10.8685C1.66811 11.4753 1.79745 11.6473 1.94005 11.8495C1.98316 11.9136 2.0926 12.0619 2.17883 12.1765C2.37449 12.4327 2.84541 13.0699 2.93495 13.198C2.97143 13.2485 3.07755 13.3935 3.16709 13.5148C3.25995 13.6396 3.38597 13.8149 3.44898 13.9093C3.56505 14.0812 3.62474 14.1587 3.92985 14.5498C4.0227 14.6644 4.11888 14.7925 4.14541 14.8363C4.17194 14.8768 4.30791 15.0588 4.44388 15.2409C4.57985 15.4263 4.72245 15.615 4.75893 15.6656C5.11378 16.1578 5.34923 16.4747 5.49184 16.6466C5.58469 16.7612 5.70077 16.9163 5.75051 16.9905C5.90306 17.2231 6.06888 17.4455 6.42704 17.8905C6.48342 17.9647 6.53316 18.0389 6.53316 18.0557C6.53316 18.0692 6.57296 18.1299 6.62602 18.1838C6.67577 18.2411 6.81173 18.4232 6.93112 18.5917C7.05051 18.7603 7.25944 19.0468 7.39872 19.2289C7.53801 19.4109 7.68061 19.6031 7.71378 19.657C7.74694 19.7109 7.79337 19.7682 7.81658 19.7885C7.8398 19.8053 7.89286 19.8694 7.93265 19.93C8.26097 20.3986 8.43673 20.638 8.64235 20.9009C8.77168 21.0661 8.89439 21.238 8.91429 21.2785C8.9375 21.3189 8.98061 21.3762 9.01046 21.41C9.04362 21.4403 9.09337 21.501 9.1199 21.5448C9.14643 21.5853 9.23597 21.71 9.31888 21.8179C9.40179 21.9257 9.49464 22.0505 9.52781 22.0977C9.59082 22.1887 9.68036 22.3067 9.91582 22.6236C9.99872 22.7314 10.0883 22.8528 10.1148 22.8932C10.1413 22.9337 10.2773 23.1157 10.4133 23.2944C10.5492 23.4764 10.6852 23.6551 10.7084 23.6956C10.7349 23.7326 10.8212 23.8405 10.8941 23.9349C10.9704 24.0259 11.05 24.1338 11.0699 24.1743C11.1031 24.2383 11.239 24.4204 11.4082 24.626C11.4446 24.6732 11.501 24.7507 11.5342 24.8013C11.5939 24.8957 11.9753 25.4081 12.0051 25.4351C12.0151 25.4452 12.0946 25.5497 12.1842 25.671C12.4959 26.1025 12.5291 26.143 12.7314 26.3048C12.9071 26.443 13.0995 26.4329 13.325 26.2643C13.4179 26.1936 13.4974 26.1228 13.4974 26.1093C13.4974 26.0958 13.5903 25.9643 13.7064 25.816C13.8191 25.671 13.9485 25.4991 13.9949 25.4351C14.038 25.371 14.1176 25.2631 14.1673 25.1991C14.2171 25.135 14.3099 25.0137 14.373 24.9294C14.4393 24.8451 14.5355 24.717 14.5918 24.6428C14.6482 24.5687 14.7278 24.4574 14.7676 24.4001C14.8074 24.3394 14.9334 24.1641 15.0495 24.0124C15.2949 23.6821 15.5138 23.3888 15.6763 23.1697C15.7393 23.0787 15.8056 23.0079 15.8189 23.0079C15.8355 23.0079 15.8554 22.9809 15.8653 22.9472C15.8852 22.8932 15.9349 22.8191 16.376 22.2359C16.4788 22.0977 16.6413 21.8785 16.7342 21.7471C16.8304 21.6156 16.9298 21.4808 16.9564 21.4504C16.9862 21.4201 17.036 21.3527 17.0691 21.2987C17.1023 21.2481 17.1952 21.1167 17.2781 21.0088C17.361 20.9009 17.4538 20.7728 17.4837 20.7256C17.5135 20.6784 17.5533 20.6279 17.5699 20.6178C17.6031 20.5975 17.9844 20.0885 18.0806 19.9334C18.1138 19.8829 18.1702 19.8053 18.2099 19.7649C18.2464 19.721 18.462 19.4345 18.6842 19.1244C18.9097 18.8176 19.1319 18.5142 19.1783 18.4501C19.4204 18.1366 19.4934 18.0456 19.7122 17.7456C19.8416 17.5703 19.9875 17.3714 20.0339 17.3073C20.2561 17.0107 20.6143 16.5219 20.6607 16.4544C20.7005 16.3971 21.198 15.7229 21.6954 15.0554C21.7452 14.988 21.8148 14.897 21.8446 14.8498C21.9806 14.6509 22.3089 14.2127 22.4548 14.0407C22.5378 13.9396 22.6339 13.8081 22.6605 13.7542C22.6903 13.6969 22.7832 13.5688 22.8628 13.4677C22.9457 13.3665 23.075 13.1912 23.1513 13.08C23.2276 12.9687 23.4033 12.7328 23.5426 12.5575C23.6819 12.3822 23.8212 12.1934 23.8577 12.1361C23.8908 12.0821 23.9837 11.954 24.0666 11.8596C24.1462 11.7619 24.2689 11.6001 24.3352 11.5057C24.3982 11.4079 24.5474 11.2056 24.6635 11.0573C24.7796 10.909 24.9089 10.7337 24.9587 10.6696C25.0051 10.6056 25.1344 10.4269 25.2472 10.2752C25.3599 10.1235 25.4893 9.94485 25.5357 9.87743C25.5821 9.81001 25.6584 9.70551 25.7082 9.64483C25.8375 9.48638 26 9.15939 26 9.05826C26 9.01106 25.9635 8.91667 25.9237 8.85262C25.8806 8.7852 25.8242 8.69755 25.7977 8.66047C25.7712 8.62001 25.6783 8.48517 25.5855 8.36381C25.1875 7.82443 25.0482 7.62891 24.9388 7.4671C24.8758 7.37608 24.7398 7.1873 24.6403 7.05245C24.5375 6.92098 24.4281 6.76591 24.3916 6.71197C24.2855 6.5569 24.2026 6.44228 24.0367 6.22653C23.9538 6.11529 23.8643 5.99056 23.8444 5.94673C23.8212 5.90291 23.7615 5.81863 23.7151 5.76132C23.599 5.61973 23.3105 5.22532 23.2408 5.1107C23.211 5.0635 23.1679 5.00282 23.1446 4.97585C23.1214 4.94889 23.0054 4.79044 22.8893 4.62189C22.7732 4.45333 22.6472 4.27804 22.614 4.23084C22.5776 4.18365 22.5112 4.08588 22.4615 4.01172C22.4151 3.93756 22.362 3.86676 22.3421 3.85665C22.3255 3.84317 22.2791 3.78249 22.2393 3.71506C22.0801 3.45212 21.911 3.25322 21.7352 3.13186L21.5528 3.00376L13.063 3.00039C8.39694 3.00039 4.56658 3.00376 4.55332 3.00713ZM9.27245 4.23084C9.3023 4.25781 9.31224 4.30163 9.29898 4.34546C9.2824 4.41288 9.08673 4.85112 9.01709 4.9826C8.98724 5.03991 8.95408 5.12418 8.74184 5.69053C8.69541 5.81526 8.63571 5.9501 8.60918 5.99393C8.58597 6.03438 8.53954 6.149 8.50638 6.24339C8.47653 6.34115 8.44005 6.4288 8.42347 6.43891C8.40689 6.44902 8.37041 6.53667 8.33724 6.63444C8.3074 6.72883 8.26097 6.83333 8.23444 6.86367C8.20791 6.89738 8.16811 6.99851 8.14158 7.0929C8.11837 7.1873 8.06862 7.31203 8.03214 7.37271C7.99566 7.43339 7.94923 7.54463 7.92602 7.6188C7.90281 7.69296 7.84643 7.82106 7.80332 7.90197C7.76352 7.98287 7.72704 8.06715 7.72704 8.08738C7.72704 8.22222 7.65077 8.36718 7.55459 8.42786C7.44847 8.49191 7.36556 8.49528 4.72577 8.5054C3.2301 8.50877 1.97321 8.5054 1.93342 8.49528C1.79413 8.46157 1.8074 8.36044 1.97985 8.14469C2.14898 7.93231 2.39439 7.59857 2.72602 7.12999C3.05102 6.67152 3.23342 6.41868 3.50867 6.05124C3.6148 5.91302 3.72092 5.76469 3.74745 5.72424C3.98622 5.37364 4.50026 4.67583 4.79872 4.30501L4.86837 4.21399L5.71071 4.19376C7.14005 4.16342 9.21276 4.18365 9.27245 4.23084ZM15.3247 4.2241C15.3844 4.25444 15.4441 4.30501 15.4574 4.33197C15.5304 4.47693 15.6796 4.8309 15.6995 4.90506C15.7128 4.95226 15.7559 5.0635 15.799 5.15789C16.0411 5.67704 16.0809 5.77481 16.1008 5.87257C16.1107 5.92988 16.1439 5.9973 16.1704 6.0209C16.1936 6.04112 16.2401 6.13551 16.2666 6.23327C16.2931 6.32767 16.3528 6.47936 16.3959 6.57376C16.4722 6.72545 16.5783 6.97829 16.8469 7.63565C16.8967 7.75701 16.9696 7.91882 17.0061 7.99299C17.1089 8.19525 17.1288 8.3537 17.0625 8.42112C17.0128 8.47506 16.6844 8.47843 13.0033 8.47843C9.09005 8.47843 8.99719 8.47843 8.94082 8.41438C8.87449 8.34021 8.88444 8.2829 9.00383 8.02333C9.12653 7.75701 9.30893 7.32214 9.33546 7.23449C9.34872 7.1873 9.39515 7.08279 9.43827 7.00189C9.48138 6.91761 9.51786 6.82659 9.51786 6.79625C9.51786 6.76591 9.56097 6.65803 9.61735 6.5569C9.67041 6.45577 9.71352 6.34789 9.71684 6.31755C9.71684 6.28721 9.76327 6.17934 9.81633 6.07483C9.8727 5.97033 9.91582 5.86582 9.91582 5.84223C9.91582 5.81863 9.96224 5.70738 10.0153 5.59614C10.0684 5.48489 10.1148 5.37364 10.1148 5.35005C10.1148 5.32645 10.1612 5.22194 10.2143 5.11744C10.2707 5.01294 10.3138 4.90506 10.3138 4.87472C10.3138 4.84438 10.3503 4.74662 10.3967 4.65223C10.4398 4.56121 10.4995 4.42637 10.526 4.35894C10.5625 4.26455 10.6023 4.22747 10.6852 4.2005C10.7482 4.18365 11.7033 4.17016 13.0033 4.17016C15.0097 4.16679 15.2253 4.17353 15.3247 4.2241ZM21.1316 4.20724C21.1648 4.2241 21.2908 4.3758 21.4135 4.54435C21.6026 4.8073 21.9906 5.3433 22.3421 5.82537C22.3918 5.89279 22.498 6.03101 22.5709 6.12877C22.6472 6.22316 22.7533 6.36812 22.8031 6.44228C23.012 6.74905 23.8974 7.97613 24.1064 8.24919C24.186 8.3537 24.1727 8.42112 24.0566 8.47506C23.9439 8.52562 18.7439 8.52899 18.5615 8.47506C18.4056 8.43123 18.3061 8.33684 18.3061 8.22896C18.3061 8.18514 18.263 8.06378 18.2099 7.96265C18.1569 7.86152 18.1038 7.72667 18.0906 7.66262C18.0773 7.60194 18.0242 7.4671 17.9745 7.36596C17.9214 7.26483 17.8717 7.12662 17.8584 7.06256C17.8452 6.99851 17.8054 6.90749 17.7722 6.86367C17.7357 6.81985 17.6926 6.72208 17.6727 6.64455C17.6528 6.57038 17.6097 6.46925 17.5765 6.42206C17.5434 6.37486 17.5003 6.27036 17.477 6.18945C17.4571 6.10854 17.4173 6.00741 17.3908 5.96696C17.3676 5.92988 17.3179 5.81189 17.2814 5.70738C17.2449 5.60288 17.1952 5.48152 17.1686 5.4377C17.1421 5.39724 17.0957 5.27925 17.0625 5.18486C17.0327 5.0871 16.9962 4.99945 16.9796 4.98934C16.963 4.97923 16.9332 4.91517 16.9133 4.84438C16.8934 4.77696 16.8304 4.62526 16.7707 4.51064C16.6712 4.31512 16.6679 4.30163 16.7209 4.24096C16.7773 4.18028 16.8635 4.1769 18.9263 4.18028C20.1102 4.18028 21.1018 4.19376 21.1316 4.20724ZM7.50153 9.71562C7.53469 9.74596 7.56122 9.79315 7.56122 9.82349C7.56122 9.85383 7.59107 9.93474 7.62755 10.0022C7.66403 10.0696 7.70714 10.2179 7.72372 10.3258C7.74031 10.437 7.78342 10.5854 7.8199 10.6595C7.85638 10.7303 7.90281 10.8753 7.9227 10.9798C7.93929 11.0877 7.98571 11.2394 8.02219 11.3169C8.05536 11.3978 8.10179 11.5461 8.11837 11.6473C8.13827 11.7484 8.19133 11.9169 8.23776 12.0181C8.28418 12.1192 8.32398 12.2473 8.32398 12.3046C8.32398 12.3586 8.36046 12.4867 8.40689 12.5844C8.45 12.6822 8.50638 12.8642 8.52628 12.989C8.54949 13.1137 8.5926 13.2485 8.62245 13.2924C8.65561 13.3328 8.69209 13.4474 8.70536 13.5452C8.71862 13.6396 8.76173 13.8048 8.80485 13.9059C8.84796 14.007 8.8977 14.1823 8.92092 14.2936C8.94413 14.4048 8.98724 14.5498 9.02041 14.6172C9.05357 14.6812 9.1 14.8329 9.1199 14.9509C9.1398 15.0689 9.18622 15.2206 9.21939 15.288C9.25255 15.3555 9.29566 15.5038 9.31888 15.6184C9.33878 15.733 9.39184 15.9083 9.43495 16.0027C9.48138 16.1005 9.51786 16.2252 9.51786 16.2825C9.51786 16.3365 9.55434 16.4646 9.60077 16.559C9.64388 16.6567 9.69362 16.8185 9.71352 16.9197C9.73342 17.0242 9.77985 17.1691 9.81633 17.2467C9.85612 17.3208 9.90255 17.4759 9.91913 17.5871C9.93571 17.6984 9.97883 17.8467 10.0153 17.9141C10.0485 17.9849 10.0949 18.1333 10.1148 18.2512C10.1347 18.3659 10.1811 18.5176 10.2176 18.5884C10.2508 18.6558 10.2972 18.8041 10.3171 18.9153C10.337 19.0232 10.3901 19.1918 10.4332 19.2862C10.4763 19.3806 10.5128 19.5087 10.5128 19.5727C10.5128 19.6368 10.5426 19.7379 10.5791 19.7986C10.6189 19.8626 10.6719 20.0278 10.7018 20.1694C10.7283 20.3144 10.7781 20.4829 10.8112 20.5503C10.8444 20.6144 10.8908 20.7661 10.9107 20.8841C10.9306 21.0021 10.977 21.1538 11.0102 21.2178C11.0434 21.2852 11.0865 21.4268 11.1097 21.5347C11.1296 21.6426 11.186 21.8044 11.2291 21.8887C11.2722 21.9763 11.3186 22.1314 11.3286 22.2359C11.3452 22.3943 11.3418 22.428 11.2921 22.4483C11.2125 22.4786 11.1992 22.4617 11.0202 22.1887C10.9339 22.0538 10.8013 21.8684 10.725 21.7774C10.6487 21.683 10.5625 21.5617 10.536 21.5044C10.5061 21.447 10.4597 21.3897 10.4332 21.3796C10.4066 21.3695 10.3569 21.3088 10.327 21.2481C10.2972 21.1875 10.2309 21.0897 10.1844 21.029C10.138 20.9717 10.0452 20.8504 9.98214 20.7593C9.91913 20.6717 9.75332 20.4526 9.61403 20.2773C9.47474 20.0986 9.34209 19.9166 9.31888 19.8727C9.29566 19.8255 9.24592 19.7581 9.21276 19.721C9.15306 19.6604 8.9773 19.4278 8.8148 19.1951C8.72526 19.0637 8.44668 18.6895 8.33393 18.5445C8.27423 18.467 8.19796 18.3692 8.16811 18.322C8.13827 18.2748 8.06531 18.1838 8.00893 18.1164C7.95587 18.049 7.82985 17.8804 7.73367 17.7456C7.6375 17.6074 7.4352 17.3309 7.28597 17.1287C7.13673 16.9298 6.98418 16.7208 6.9477 16.6702C6.91122 16.6196 6.81505 16.4915 6.73214 16.3837C6.5398 16.1308 6.41709 15.9656 6.34413 15.8611C6.24133 15.7094 5.85663 15.2071 5.79694 15.1397C5.76378 15.1026 5.73724 15.0588 5.73724 15.042C5.73724 15.0251 5.6875 14.9543 5.63112 14.8835C5.49184 14.7251 5.24311 14.3981 5.14031 14.243C5.09719 14.179 5.05077 14.1183 5.04082 14.1082C5.03087 14.098 4.99439 14.0441 4.96122 13.9902C4.92474 13.9329 4.8352 13.8115 4.75893 13.7205C4.68265 13.6261 4.57985 13.4913 4.53342 13.4171C4.48367 13.3429 4.3676 13.1845 4.27474 13.0631C3.92985 12.6181 3.42908 11.9405 3.36276 11.8293C3.32628 11.7652 3.27321 11.6945 3.24668 11.6709C3.21684 11.6506 3.15714 11.5697 3.1074 11.4956C3.05765 11.4214 2.91837 11.2292 2.79566 11.0674C2.66964 10.9056 2.51046 10.6899 2.4375 10.582C2.36454 10.4775 2.23189 10.2988 2.13903 10.1842C1.9699 9.97519 1.82398 9.76956 1.82398 9.73922C1.82398 9.67517 2.26505 9.66168 4.70587 9.66168C7.20638 9.65831 7.44515 9.66168 7.50153 9.71562ZM17.2151 9.70888C17.2582 9.7527 17.2648 9.78978 17.2449 9.8808C17.2283 9.94823 17.1952 10.0258 17.1653 10.0561C17.1388 10.0898 17.1023 10.2078 17.0824 10.3224C17.0658 10.437 17.026 10.5786 16.9929 10.6427C16.9597 10.7034 16.9166 10.8517 16.8901 10.973C16.8668 11.091 16.8237 11.236 16.7939 11.2933C16.7673 11.3472 16.7143 11.5192 16.6778 11.6742C16.6446 11.8259 16.5949 11.9877 16.5684 12.0282C16.5418 12.0686 16.502 12.2001 16.4821 12.3181C16.4622 12.4395 16.4158 12.5912 16.3827 12.6586C16.3495 12.726 16.3031 12.8777 16.2832 12.9991C16.2633 13.1171 16.2168 13.2586 16.187 13.316C16.1538 13.3699 16.1074 13.5148 16.0875 13.6328C16.0643 13.7508 16.0179 13.9025 15.9847 13.9666C15.9482 14.034 15.9117 14.1554 15.8985 14.2396C15.8852 14.3239 15.8421 14.479 15.8023 14.5801C15.7592 14.6812 15.7094 14.8565 15.6862 14.9678C15.663 15.079 15.6199 15.224 15.5867 15.288C15.5536 15.3555 15.5071 15.5072 15.4839 15.6252C15.464 15.7465 15.4176 15.8982 15.3844 15.9656C15.3513 16.0331 15.3082 16.1848 15.2916 16.2994C15.2717 16.4174 15.2319 16.5387 15.202 16.5724C15.1722 16.6061 15.1291 16.7376 15.1059 16.8691C15.0793 16.9972 15.0296 17.1624 14.9931 17.2365C14.9566 17.3107 14.9102 17.4725 14.8903 17.5972C14.8704 17.722 14.824 17.8838 14.7875 17.958C14.751 18.0287 14.7046 18.1771 14.688 18.2816C14.6681 18.3861 14.625 18.5176 14.5918 18.5749C14.5587 18.6288 14.5156 18.7704 14.4923 18.885C14.4724 19.003 14.4194 19.1783 14.3763 19.2727C14.3298 19.3704 14.2934 19.4952 14.2934 19.5457C14.2934 19.5963 14.2569 19.7244 14.2138 19.8323C14.1707 19.9368 14.1176 20.1155 14.0944 20.2267C14.0712 20.338 14.0281 20.4829 13.9949 20.547C13.9651 20.611 13.912 20.7796 13.8821 20.9178C13.8523 21.056 13.8059 21.2144 13.776 21.2717C13.7495 21.3257 13.7097 21.4572 13.6898 21.5583C13.6732 21.6594 13.6334 21.7875 13.6069 21.8448C13.577 21.8988 13.5273 22.0606 13.4974 22.1988C13.4643 22.337 13.4079 22.5258 13.3714 22.6202C13.3349 22.7112 13.2885 22.8629 13.2719 22.9573C13.2321 23.1427 13.1028 23.5236 13.0398 23.6315C13.0066 23.6888 12.9967 23.6922 12.9668 23.6484C12.9503 23.6214 12.9171 23.5371 12.9005 23.463C12.8806 23.3888 12.8309 23.2438 12.7878 23.1427C12.7446 23.0416 12.7015 22.8865 12.6883 22.7989C12.6783 22.7146 12.6418 22.5865 12.6054 22.5123C12.5689 22.4415 12.5224 22.2898 12.5026 22.1752C12.4827 22.0572 12.4296 21.8819 12.3865 21.7875C12.3401 21.6898 12.3036 21.5751 12.3036 21.5313C12.3036 21.4875 12.2737 21.383 12.2372 21.2953C12.2041 21.2077 12.1444 21.0155 12.1079 20.8672C12.0714 20.7189 12.0184 20.547 11.9885 20.4897C11.9587 20.4323 11.9156 20.2672 11.889 20.1256C11.8625 19.984 11.8094 19.8289 11.773 19.7817C11.7332 19.7312 11.7066 19.6435 11.7066 19.5727C11.7066 19.5053 11.6702 19.3704 11.6237 19.2727C11.5806 19.1783 11.5276 19.003 11.5077 18.8884C11.4844 18.7738 11.4413 18.6254 11.4082 18.558C11.375 18.4906 11.3286 18.3389 11.3087 18.2175C11.2888 18.0995 11.2423 17.9546 11.2092 17.9006C11.176 17.8433 11.1296 17.7018 11.1097 17.5838C11.0898 17.4658 11.0434 17.3174 11.0102 17.2534C10.977 17.1893 10.9306 17.0275 10.9074 16.8961C10.8842 16.7612 10.8344 16.6129 10.8013 16.5623C10.7648 16.5118 10.7217 16.3904 10.7084 16.2893C10.6985 16.1915 10.6554 16.0432 10.6189 15.9589C10.5824 15.878 10.536 15.7195 10.5128 15.6083C10.4895 15.4971 10.4464 15.3521 10.4133 15.288C10.3801 15.2206 10.3436 15.0925 10.3304 15.0015C10.3171 14.9071 10.264 14.7352 10.2143 14.6138C10.1645 14.4925 10.1148 14.3273 10.1015 14.2464C10.0883 14.1655 10.0518 14.0374 10.0186 13.9598C9.98214 13.8857 9.93903 13.7239 9.91582 13.6025C9.89592 13.4811 9.84949 13.3362 9.81633 13.2822C9.78316 13.2249 9.73673 13.0833 9.71684 12.962C9.69694 12.8406 9.65051 12.6957 9.61735 12.6417C9.58418 12.5844 9.54107 12.4462 9.52117 12.3316C9.50459 12.2203 9.46148 12.0686 9.425 11.9945C9.38852 11.9237 9.33878 11.7652 9.31556 11.6473C9.29566 11.5259 9.24923 11.3742 9.21939 11.3101C9.18622 11.2461 9.14311 11.1011 9.1199 10.9899C9.09668 10.8786 9.04362 10.7 9.00051 10.5955C8.9574 10.4876 8.92092 10.3528 8.92092 10.2887C8.92092 10.2213 8.88776 10.1303 8.83801 10.0628C8.73852 9.928 8.72857 9.74596 8.8148 9.69539C8.85128 9.6718 10.2607 9.66168 13.0133 9.65831C16.711 9.65831 17.162 9.66505 17.2151 9.70888ZM24.123 9.70214C24.1793 9.74259 24.1793 9.7527 24.1064 9.87743C24.0666 9.9516 23.9969 10.0494 23.9505 10.0966C23.8776 10.1775 23.5857 10.5618 23.3635 10.8753C23.3105 10.9528 23.1645 11.1483 23.0418 11.3068C22.9191 11.4652 22.7798 11.6506 22.7334 11.7147C22.6837 11.7787 22.5709 11.9304 22.4814 12.0518C22.3918 12.1732 22.2824 12.3248 22.2393 12.3889C22.1962 12.453 22.0635 12.6316 21.9441 12.7833C21.8247 12.935 21.6987 13.1036 21.6656 13.1541C21.6357 13.2047 21.5694 13.2957 21.523 13.3564C21.377 13.5452 21.2974 13.6463 21.1349 13.8722C21.0487 13.9935 20.9592 14.1149 20.936 14.1419C20.7503 14.3812 20.6607 14.5026 20.5612 14.6509C20.4982 14.7453 20.4054 14.8667 20.3556 14.9206C20.3026 14.9779 20.2628 15.0318 20.2628 15.0453C20.2628 15.0588 20.2163 15.1229 20.1633 15.1869C20.1069 15.251 20.0074 15.3858 19.9378 15.4836C19.8714 15.5847 19.7487 15.7533 19.6658 15.8611C19.5829 15.969 19.4635 16.1274 19.4005 16.2151C19.3375 16.2994 19.2281 16.4376 19.1617 16.5219C19.0921 16.6061 19.0357 16.6871 19.0357 16.7005C19.0357 16.7174 18.9561 16.8286 18.8633 16.9466C18.7671 17.068 18.598 17.2938 18.4885 17.4455C18.3791 17.6006 18.2431 17.7894 18.1834 17.8636C18.1237 17.9411 18.0309 18.0625 17.9712 18.1366C17.9148 18.2108 17.6296 18.5951 17.3411 18.9929C17.0492 19.3907 16.7806 19.7548 16.7441 19.8019C16.5319 20.075 16.3395 20.3413 16.2798 20.4391C16.2401 20.4964 16.1969 20.547 16.1837 20.547C16.1671 20.547 16.1207 20.6043 16.0809 20.6717C16.0378 20.7425 15.9349 20.8874 15.8454 20.9953C15.7592 21.1032 15.6862 21.2077 15.6862 21.2279C15.6862 21.2481 15.6365 21.3223 15.5801 21.3897C15.3944 21.6055 14.9367 22.2393 14.8505 22.4011C14.7974 22.4921 14.7842 22.5022 14.7212 22.4651C14.6582 22.4314 14.6515 22.4112 14.6714 22.2359C14.6847 22.1314 14.7378 21.9561 14.7908 21.8415C14.8472 21.7302 14.8903 21.592 14.8903 21.5381C14.8903 21.4841 14.9268 21.3594 14.9732 21.2616C15.0163 21.1672 15.0694 20.9919 15.0893 20.8773C15.1125 20.7627 15.1556 20.611 15.1921 20.5402C15.2286 20.4694 15.2783 20.3009 15.3015 20.166C15.3281 20.0278 15.3811 19.866 15.4176 19.8019C15.4574 19.7379 15.4872 19.6435 15.4872 19.5929C15.4872 19.5424 15.5237 19.4143 15.5668 19.3064C15.6099 19.2019 15.663 19.0266 15.6829 18.9221C15.6995 18.8176 15.7459 18.6726 15.7791 18.6018C15.8156 18.531 15.8587 18.3793 15.8819 18.2614C15.9051 18.1467 15.9582 17.9714 16.0013 17.8737C16.0477 17.7793 16.0842 17.6546 16.0842 17.6006C16.0842 17.5467 16.1207 17.4253 16.1638 17.3309C16.2069 17.2365 16.2599 17.0646 16.2832 16.9466C16.3031 16.8286 16.3561 16.6635 16.4026 16.5792C16.4457 16.4949 16.4821 16.3769 16.4821 16.3196C16.4821 16.2623 16.5153 16.1477 16.5518 16.0634C16.5883 15.9791 16.6413 15.8106 16.6679 15.6825C16.6911 15.5577 16.7408 15.3993 16.7773 15.3285C16.8105 15.2611 16.8569 15.0993 16.8768 14.9712C16.9 14.8431 16.9464 14.6812 16.9829 14.6071C17.0194 14.5363 17.0658 14.3913 17.0824 14.2835C17.1023 14.179 17.1454 14.0407 17.1786 13.9733C17.2117 13.9093 17.2582 13.7542 17.2781 13.6362C17.3013 13.5148 17.3477 13.3699 17.3776 13.316C17.4107 13.2586 17.4472 13.1373 17.4605 13.0463C17.4737 12.9519 17.5268 12.7766 17.5798 12.6518C17.6329 12.5305 17.676 12.3855 17.676 12.3316C17.676 12.281 17.7125 12.1563 17.7589 12.0585C17.802 11.9641 17.8551 11.7888 17.875 11.6709C17.8949 11.5562 17.938 11.4079 17.9745 11.3405C18.0077 11.2764 18.0508 11.1315 18.0707 11.0202C18.0939 10.9124 18.1469 10.7371 18.1867 10.6359C18.2298 10.5348 18.2763 10.373 18.2895 10.282C18.3028 10.1876 18.3393 10.0662 18.3758 10.0089C18.4089 9.9516 18.4388 9.87069 18.4388 9.83361C18.4388 9.79315 18.4719 9.73922 18.5117 9.71225C18.5781 9.66505 18.8997 9.65831 21.324 9.65831C23.5194 9.65831 24.0765 9.66842 24.123 9.70214Z" fill="#00A4FF"/>
</svg>
