<svg width="26" height="25" viewBox="0 0 26 25" fill="none" xmlns="http://www.w3.org/2000/svg">
<path d="M21.2339 1.66602H4.33385L0.867188 6.86602L13.0005 23.3327L25.1339 6.86602L21.2339 1.66602Z" fill="#B4E4FF" stroke="#00A4FF" stroke-width="0.866667"/>
<path d="M4.55332 0.805961C4.53673 0.809332 4.48699 0.819445 4.44056 0.829559C4.32449 0.856528 4.05587 1.08239 3.94974 1.24758C3.80383 1.47007 3.7375 1.56783 3.58163 1.7701C3.49872 1.88134 3.39592 2.02293 3.35281 2.09035C3.30969 2.16114 3.21684 2.2825 3.15051 2.36678C3.08418 2.45106 2.98801 2.57916 2.94158 2.65332C2.89184 2.72749 2.80893 2.84885 2.75587 2.92301C2.69949 2.99718 2.61327 3.11853 2.56352 3.1927C2.51378 3.26686 2.40434 3.41182 2.32143 3.51632C2.23852 3.62083 2.1125 3.79275 2.03954 3.90063C1.96658 4.0085 1.89031 4.11301 1.87041 4.13324C1.85051 4.15346 1.79413 4.231 1.74439 4.30516C1.69796 4.37933 1.61505 4.49394 1.56531 4.56137C1.51556 4.62879 1.33648 4.87825 1.17066 5.1176C1.00153 5.35694 0.779337 5.66709 0.679847 5.8053C0.490816 6.06825 0.291837 6.34468 0.109439 6.61099C0.0397959 6.71213 0 6.80652 0 6.88068C0 6.9953 0.116071 7.21779 0.295153 7.44703C0.344898 7.50433 0.434439 7.62569 0.497449 7.70997C0.560459 7.79762 0.630102 7.88527 0.646684 7.90887C0.689796 7.95943 0.935204 8.29654 0.998214 8.39093C1.02474 8.42802 1.11429 8.55275 1.20383 8.66736C1.66811 9.27416 1.79745 9.44609 1.94005 9.64835C1.98316 9.7124 2.0926 9.86073 2.17883 9.97535C2.37449 10.2316 2.84541 10.8687 2.93495 10.9968C2.97143 11.0474 3.07755 11.1923 3.16709 11.3137C3.25995 11.4384 3.38597 11.6137 3.44898 11.7081C3.56505 11.88 3.62474 11.9576 3.92985 12.3486C4.0227 12.4632 4.11888 12.5913 4.14541 12.6351C4.17194 12.6756 4.30791 12.8576 4.44388 13.0397C4.57985 13.2251 4.72245 13.4139 4.75893 13.4644C5.11378 13.9566 5.34923 14.2735 5.49184 14.4454C5.58469 14.56 5.70077 14.7151 5.75051 14.7893C5.90306 15.0219 6.06888 15.2444 6.42704 15.6894C6.48342 15.7635 6.53316 15.8377 6.53316 15.8545C6.53316 15.868 6.57296 15.9287 6.62602 15.9826C6.67577 16.04 6.81173 16.222 6.93112 16.3906C7.05051 16.5591 7.25944 16.8456 7.39872 17.0277C7.53801 17.2097 7.68061 17.4019 7.71378 17.4558C7.74694 17.5098 7.79337 17.5671 7.81658 17.5873C7.8398 17.6041 7.89286 17.6682 7.93265 17.7289C8.26097 18.1975 8.43673 18.4368 8.64235 18.6998C8.77168 18.8649 8.89439 19.0369 8.91429 19.0773C8.9375 19.1178 8.98061 19.1751 9.01046 19.2088C9.04362 19.2391 9.09337 19.2998 9.1199 19.3436C9.14643 19.3841 9.23597 19.5088 9.31888 19.6167C9.40179 19.7246 9.49464 19.8493 9.52781 19.8965C9.59082 19.9875 9.68036 20.1055 9.91582 20.4224C9.99872 20.5303 10.0883 20.6516 10.1148 20.6921C10.1413 20.7325 10.2773 20.9146 10.4133 21.0932C10.5492 21.2753 10.6852 21.4539 10.7084 21.4944C10.7349 21.5315 10.8212 21.6394 10.8941 21.7337C10.9704 21.8248 11.05 21.9326 11.0699 21.9731C11.1031 22.0371 11.239 22.2192 11.4082 22.4248C11.4446 22.472 11.501 22.5495 11.5342 22.6001C11.5939 22.6945 11.9753 23.2069 12.0051 23.2339C12.0151 23.244 12.0946 23.3485 12.1842 23.4699C12.4959 23.9014 12.5291 23.9418 12.7314 24.1036C12.9071 24.2418 13.0995 24.2317 13.325 24.0632C13.4179 23.9924 13.4974 23.9216 13.4974 23.9081C13.4974 23.8946 13.5903 23.7631 13.7064 23.6148C13.8191 23.4699 13.9485 23.2979 13.9949 23.2339C14.038 23.1698 14.1176 23.062 14.1673 22.9979C14.2171 22.9339 14.3099 22.8125 14.373 22.7282C14.4393 22.6439 14.5355 22.5158 14.5918 22.4417C14.6482 22.3675 14.7278 22.2563 14.7676 22.199C14.8074 22.1383 14.9334 21.963 15.0495 21.8113C15.2949 21.4809 15.5138 21.1876 15.6763 20.9685C15.7393 20.8775 15.8056 20.8067 15.8189 20.8067C15.8355 20.8067 15.8554 20.7797 15.8653 20.746C15.8852 20.6921 15.9349 20.6179 16.376 20.0347C16.4788 19.8965 16.6413 19.6774 16.7342 19.5459C16.8304 19.4144 16.9298 19.2796 16.9564 19.2492C16.9862 19.2189 17.036 19.1515 17.0691 19.0975C17.1023 19.047 17.1952 18.9155 17.2781 18.8076C17.361 18.6998 17.4538 18.5717 17.4837 18.5245C17.5135 18.4773 17.5533 18.4267 17.5699 18.4166C17.6031 18.3964 17.9844 17.8873 18.0806 17.7322C18.1138 17.6817 18.1702 17.6041 18.2099 17.5637C18.2464 17.5199 18.462 17.2333 18.6842 16.9232C18.9097 16.6164 19.1319 16.313 19.1783 16.249C19.4204 15.9355 19.4934 15.8444 19.7122 15.5444C19.8416 15.3691 19.9875 15.1702 20.0339 15.1062C20.2561 14.8095 20.6143 14.3207 20.6607 14.2533C20.7005 14.196 21.198 13.5217 21.6954 12.8543C21.7452 12.7868 21.8148 12.6958 21.8446 12.6486C21.9806 12.4497 22.3089 12.0115 22.4548 11.8396C22.5378 11.7384 22.6339 11.607 22.6605 11.553C22.6903 11.4957 22.7832 11.3676 22.8628 11.2665C22.9457 11.1653 23.075 10.9901 23.1513 10.8788C23.2276 10.7676 23.4033 10.5316 23.5426 10.3563C23.6819 10.181 23.8212 9.99221 23.8577 9.9349C23.8908 9.88096 23.9837 9.75286 24.0666 9.65847C24.1462 9.5607 24.2689 9.39889 24.3352 9.3045C24.3982 9.20674 24.5474 9.00447 24.6635 8.85614C24.7796 8.70782 24.9089 8.53252 24.9587 8.46847C25.0051 8.40442 25.1344 8.22575 25.2472 8.07405C25.3599 7.92235 25.4893 7.74368 25.5357 7.67626C25.5821 7.60884 25.6584 7.50433 25.7082 7.44365C25.8375 7.28521 26 6.95822 26 6.85708C26 6.80989 25.9635 6.7155 25.9237 6.65145C25.8806 6.58402 25.8242 6.49638 25.7977 6.45929C25.7712 6.41884 25.6783 6.284 25.5855 6.16264C25.1875 5.62326 25.0482 5.42774 24.9388 5.26592C24.8758 5.17491 24.7398 4.98612 24.6403 4.85128C24.5375 4.71981 24.4281 4.56474 24.3916 4.5108C24.2855 4.35573 24.2026 4.24111 24.0367 4.02536C23.9538 3.91411 23.8643 3.78938 23.8444 3.74556C23.8212 3.70173 23.7615 3.61746 23.7151 3.56015C23.599 3.41856 23.3105 3.02414 23.2408 2.90953C23.211 2.86233 23.1679 2.80165 23.1446 2.77468C23.1214 2.74771 23.0054 2.58927 22.8893 2.42072C22.7732 2.25216 22.6472 2.07687 22.614 2.02967C22.5776 1.98247 22.5112 1.88471 22.4615 1.81055C22.4151 1.73638 22.362 1.66559 22.3421 1.65548C22.3255 1.64199 22.2791 1.58131 22.2393 1.51389C22.0801 1.25095 21.911 1.05205 21.7352 0.930692L21.5528 0.80259L13.063 0.799219C8.39694 0.799219 4.56658 0.80259 4.55332 0.805961ZM9.27245 2.02967C9.3023 2.05664 9.31224 2.10046 9.29898 2.14429C9.2824 2.21171 9.08673 2.64995 9.01709 2.78142C8.98724 2.83873 8.95408 2.92301 8.74184 3.48936C8.69541 3.61409 8.63571 3.74893 8.60918 3.79275C8.58597 3.83321 8.53954 3.94783 8.50638 4.04222C8.47653 4.13998 8.44005 4.22763 8.42347 4.23774C8.40689 4.24785 8.37041 4.3355 8.33724 4.43326C8.3074 4.52765 8.26097 4.63216 8.23444 4.6625C8.20791 4.69621 8.16811 4.79734 8.14158 4.89173C8.11837 4.98612 8.06862 5.11085 8.03214 5.17153C7.99566 5.23221 7.94923 5.34346 7.92602 5.41762C7.90281 5.49179 7.84643 5.61989 7.80332 5.7008C7.76352 5.7817 7.72704 5.86598 7.72704 5.88621C7.72704 6.02105 7.65077 6.16601 7.55459 6.22669C7.44847 6.29074 7.36556 6.29411 4.72577 6.30422C3.2301 6.30759 1.97321 6.30422 1.93342 6.29411C1.79413 6.2604 1.8074 6.15927 1.97985 5.94352C2.14898 5.73114 2.39439 5.3974 2.72602 4.92881C3.05102 4.47035 3.23342 4.21751 3.50867 3.85006C3.6148 3.71185 3.72092 3.56352 3.74745 3.52307C3.98622 3.17247 4.50026 2.47465 4.79872 2.10383L4.86837 2.01281L5.71071 1.99259C7.14005 1.96225 9.21276 1.98247 9.27245 2.02967ZM15.3247 2.02293C15.3844 2.05327 15.4441 2.10383 15.4574 2.1308C15.5304 2.27576 15.6796 2.62973 15.6995 2.70389C15.7128 2.75109 15.7559 2.86233 15.799 2.95672C16.0411 3.47587 16.0809 3.57363 16.1008 3.6714C16.1107 3.7287 16.1439 3.79613 16.1704 3.81972C16.1936 3.83995 16.2401 3.93434 16.2666 4.0321C16.2931 4.12649 16.3528 4.27819 16.3959 4.37258C16.4722 4.52428 16.5783 4.77712 16.8469 5.43448C16.8967 5.55584 16.9696 5.71765 17.0061 5.79182C17.1089 5.99408 17.1288 6.15252 17.0625 6.21995C17.0128 6.27388 16.6844 6.27725 13.0033 6.27725C9.09005 6.27725 8.99719 6.27725 8.94082 6.2132C8.87449 6.13904 8.88444 6.08173 9.00383 5.82216C9.12653 5.55584 9.30893 5.12097 9.33546 5.03332C9.34872 4.98612 9.39515 4.88162 9.43827 4.80071C9.48138 4.71644 9.51786 4.62542 9.51786 4.59508C9.51786 4.56474 9.56097 4.45686 9.61735 4.35573C9.67041 4.2546 9.71352 4.14672 9.71684 4.11638C9.71684 4.08604 9.76327 3.97817 9.81633 3.87366C9.8727 3.76916 9.91582 3.66465 9.91582 3.64106C9.91582 3.61746 9.96224 3.50621 10.0153 3.39496C10.0684 3.28372 10.1148 3.17247 10.1148 3.14887C10.1148 3.12528 10.1612 3.02077 10.2143 2.91627C10.2707 2.81176 10.3138 2.70389 10.3138 2.67355C10.3138 2.64321 10.3503 2.54545 10.3967 2.45106C10.4398 2.36004 10.4995 2.22519 10.526 2.15777C10.5625 2.06338 10.6023 2.0263 10.6852 1.99933C10.7482 1.98247 11.7033 1.96899 13.0033 1.96899C15.0097 1.96562 15.2253 1.97236 15.3247 2.02293ZM21.1316 2.00607C21.1648 2.02293 21.2908 2.17463 21.4135 2.34318C21.6026 2.60613 21.9906 3.14213 22.3421 3.6242C22.3918 3.69162 22.498 3.82984 22.5709 3.9276C22.6472 4.02199 22.7533 4.16695 22.8031 4.24111C23.012 4.54788 23.8974 5.77496 24.1064 6.04802C24.186 6.15252 24.1727 6.21995 24.0566 6.27388C23.9439 6.32445 18.7439 6.32782 18.5615 6.27388C18.4056 6.23006 18.3061 6.13567 18.3061 6.02779C18.3061 5.98397 18.263 5.86261 18.2099 5.76148C18.1569 5.66034 18.1038 5.5255 18.0906 5.46145C18.0773 5.40077 18.0242 5.26592 17.9745 5.16479C17.9214 5.06366 17.8717 4.92544 17.8584 4.86139C17.8452 4.79734 17.8054 4.70632 17.7722 4.6625C17.7357 4.61867 17.6926 4.52091 17.6727 4.44338C17.6528 4.36921 17.6097 4.26808 17.5765 4.22088C17.5434 4.17369 17.5003 4.06918 17.477 3.98828C17.4571 3.90737 17.4173 3.80624 17.3908 3.76579C17.3676 3.7287 17.3179 3.61072 17.2814 3.50621C17.2449 3.40171 17.1952 3.28035 17.1686 3.23652C17.1421 3.19607 17.0957 3.07808 17.0625 2.98369C17.0327 2.88593 16.9962 2.79828 16.9796 2.78817C16.963 2.77805 16.9332 2.714 16.9133 2.64321C16.8934 2.57579 16.8304 2.42409 16.7707 2.30947C16.6712 2.11395 16.6679 2.10046 16.7209 2.03978C16.7773 1.9791 16.8635 1.97573 18.9263 1.9791C20.1102 1.9791 21.1018 1.99259 21.1316 2.00607ZM7.50153 7.51445C7.53469 7.54479 7.56122 7.59198 7.56122 7.62232C7.56122 7.65266 7.59107 7.73357 7.62755 7.80099C7.66403 7.86841 7.70714 8.01674 7.72372 8.12462C7.74031 8.23586 7.78342 8.38419 7.8199 8.45836C7.85638 8.52915 7.90281 8.67411 7.9227 8.77861C7.93929 8.88648 7.98571 9.03818 8.02219 9.11572C8.05536 9.19663 8.10179 9.34495 8.11837 9.44609C8.13827 9.54722 8.19133 9.71578 8.23776 9.81691C8.28418 9.91804 8.32398 10.0461 8.32398 10.1035C8.32398 10.1574 8.36046 10.2855 8.40689 10.3833C8.45 10.481 8.50638 10.6631 8.52628 10.7878C8.54949 10.9125 8.5926 11.0474 8.62245 11.0912C8.65561 11.1316 8.69209 11.2463 8.70536 11.344C8.71862 11.4384 8.76173 11.6036 8.80485 11.7047C8.84796 11.8059 8.8977 11.9812 8.92092 12.0924C8.94413 12.2036 8.98724 12.3486 9.02041 12.416C9.05357 12.4801 9.1 12.6318 9.1199 12.7498C9.1398 12.8678 9.18622 13.0195 9.21939 13.0869C9.25255 13.1543 9.29566 13.3026 9.31888 13.4172C9.33878 13.5319 9.39184 13.7072 9.43495 13.8015C9.48138 13.8993 9.51786 14.024 9.51786 14.0813C9.51786 14.1353 9.55434 14.2634 9.60077 14.3578C9.64388 14.4555 9.69362 14.6174 9.71352 14.7185C9.73342 14.823 9.77985 14.9679 9.81633 15.0455C9.85612 15.1196 9.90255 15.2747 9.91913 15.386C9.93571 15.4972 9.97883 15.6455 10.0153 15.713C10.0485 15.7838 10.0949 15.9321 10.1148 16.0501C10.1347 16.1647 10.1811 16.3164 10.2176 16.3872C10.2508 16.4546 10.2972 16.6029 10.3171 16.7142C10.337 16.8221 10.3901 16.9906 10.4332 17.085C10.4763 17.1794 10.5128 17.3075 10.5128 17.3715C10.5128 17.4356 10.5426 17.5367 10.5791 17.5974C10.6189 17.6615 10.6719 17.8266 10.7018 17.9682C10.7283 18.1132 10.7781 18.2817 10.8112 18.3492C10.8444 18.4132 10.8908 18.5649 10.9107 18.6829C10.9306 18.8009 10.977 18.9526 11.0102 19.0166C11.0434 19.0841 11.0865 19.2256 11.1097 19.3335C11.1296 19.4414 11.186 19.6032 11.2291 19.6875C11.2722 19.7751 11.3186 19.9302 11.3286 20.0347C11.3452 20.1931 11.3418 20.2269 11.2921 20.2471C11.2125 20.2774 11.1992 20.2606 11.0202 19.9875C10.9339 19.8527 10.8013 19.6673 10.725 19.5762C10.6487 19.4818 10.5625 19.3605 10.536 19.3032C10.5061 19.2459 10.4597 19.1886 10.4332 19.1784C10.4066 19.1683 10.3569 19.1077 10.327 19.047C10.2972 18.9863 10.2309 18.8885 10.1844 18.8279C10.138 18.7705 10.0452 18.6492 9.98214 18.5582C9.91913 18.4705 9.75332 18.2514 9.61403 18.0761C9.47474 17.8974 9.34209 17.7154 9.31888 17.6716C9.29566 17.6244 9.24592 17.557 9.21276 17.5199C9.15306 17.4592 8.9773 17.2266 8.8148 16.994C8.72526 16.8625 8.44668 16.4883 8.33393 16.3434C8.27423 16.2658 8.19796 16.1681 8.16811 16.1209C8.13827 16.0737 8.06531 15.9826 8.00893 15.9152C7.95587 15.8478 7.82985 15.6792 7.73367 15.5444C7.6375 15.4062 7.4352 15.1298 7.28597 14.9275C7.13673 14.7286 6.98418 14.5196 6.9477 14.469C6.91122 14.4185 6.81505 14.2904 6.73214 14.1825C6.5398 13.9296 6.41709 13.7645 6.34413 13.66C6.24133 13.5083 5.85663 13.006 5.79694 12.9385C5.76378 12.9015 5.73724 12.8576 5.73724 12.8408C5.73724 12.8239 5.6875 12.7531 5.63112 12.6823C5.49184 12.5239 5.24311 12.1969 5.14031 12.0418C5.09719 11.9778 5.05077 11.9171 5.04082 11.907C5.03087 11.8969 4.99439 11.8429 4.96122 11.789C4.92474 11.7317 4.8352 11.6103 4.75893 11.5193C4.68265 11.4249 4.57985 11.2901 4.53342 11.2159C4.48367 11.1417 4.3676 10.9833 4.27474 10.8619C3.92985 10.417 3.42908 9.73937 3.36276 9.62813C3.32628 9.56408 3.27321 9.49328 3.24668 9.46968C3.21684 9.44946 3.15714 9.36855 3.1074 9.29439C3.05765 9.22022 2.91837 9.02807 2.79566 8.86626C2.66964 8.70445 2.51046 8.4887 2.4375 8.38082C2.36454 8.27632 2.23189 8.09765 2.13903 7.98303C1.9699 7.77402 1.82398 7.56839 1.82398 7.53805C1.82398 7.47399 2.26505 7.46051 4.70587 7.46051C7.20638 7.45714 7.44515 7.46051 7.50153 7.51445ZM17.2151 7.50771C17.2582 7.55153 17.2648 7.58861 17.2449 7.67963C17.2283 7.74705 17.1952 7.82459 17.1653 7.85493C17.1388 7.88864 17.1023 8.00663 17.0824 8.12125C17.0658 8.23586 17.026 8.37745 16.9929 8.4415C16.9597 8.50218 16.9166 8.65051 16.8901 8.77187C16.8668 8.88986 16.8237 9.03481 16.7939 9.09212C16.7673 9.14606 16.7143 9.31799 16.6778 9.47306C16.6446 9.62476 16.5949 9.78657 16.5684 9.82702C16.5418 9.86747 16.502 9.99895 16.4821 10.1169C16.4622 10.2383 16.4158 10.39 16.3827 10.4574C16.3495 10.5248 16.3031 10.6765 16.2832 10.7979C16.2633 10.9159 16.2168 11.0575 16.187 11.1148C16.1538 11.1687 16.1074 11.3137 16.0875 11.4317C16.0643 11.5497 16.0179 11.7014 15.9847 11.7654C15.9482 11.8328 15.9117 11.9542 15.8985 12.0385C15.8852 12.1227 15.8421 12.2778 15.8023 12.3789C15.7592 12.4801 15.7094 12.6554 15.6862 12.7666C15.663 12.8779 15.6199 13.0228 15.5867 13.0869C15.5536 13.1543 15.5071 13.306 15.4839 13.424C15.464 13.5453 15.4176 13.697 15.3844 13.7645C15.3513 13.8319 15.3082 13.9836 15.2916 14.0982C15.2717 14.2162 15.2319 14.3376 15.202 14.3713C15.1722 14.405 15.1291 14.5364 15.1059 14.6679C15.0793 14.796 15.0296 14.9612 14.9931 15.0354C14.9566 15.1095 14.9102 15.2713 14.8903 15.3961C14.8704 15.5208 14.824 15.6826 14.7875 15.7568C14.751 15.8276 14.7046 15.9759 14.688 16.0804C14.6681 16.1849 14.625 16.3164 14.5918 16.3737C14.5587 16.4276 14.5156 16.5692 14.4923 16.6838C14.4724 16.8018 14.4194 16.9771 14.3763 17.0715C14.3298 17.1693 14.2934 17.294 14.2934 17.3446C14.2934 17.3951 14.2569 17.5232 14.2138 17.6311C14.1707 17.7356 14.1176 17.9143 14.0944 18.0255C14.0712 18.1368 14.0281 18.2817 13.9949 18.3458C13.9651 18.4098 13.912 18.5784 13.8821 18.7166C13.8523 18.8548 13.8059 19.0133 13.776 19.0706C13.7495 19.1245 13.7097 19.256 13.6898 19.3571C13.6732 19.4583 13.6334 19.5864 13.6069 19.6437C13.577 19.6976 13.5273 19.8594 13.4974 19.9976C13.4643 20.1358 13.4079 20.3246 13.3714 20.419C13.3349 20.51 13.2885 20.6617 13.2719 20.7561C13.2321 20.9415 13.1028 21.3225 13.0398 21.4303C13.0066 21.4877 12.9967 21.491 12.9668 21.4472C12.9503 21.4202 12.9171 21.336 12.9005 21.2618C12.8806 21.1876 12.8309 21.0427 12.7878 20.9415C12.7446 20.8404 12.7015 20.6853 12.6883 20.5977C12.6783 20.5134 12.6418 20.3853 12.6054 20.3111C12.5689 20.2403 12.5224 20.0886 12.5026 19.974C12.4827 19.856 12.4296 19.6807 12.3865 19.5864C12.3401 19.4886 12.3036 19.374 12.3036 19.3301C12.3036 19.2863 12.2737 19.1818 12.2372 19.0942C12.2041 19.0065 12.1444 18.8144 12.1079 18.666C12.0714 18.5177 12.0184 18.3458 11.9885 18.2885C11.9587 18.2312 11.9156 18.066 11.889 17.9244C11.8625 17.7828 11.8094 17.6277 11.773 17.5805C11.7332 17.53 11.7066 17.4423 11.7066 17.3715C11.7066 17.3041 11.6702 17.1693 11.6237 17.0715C11.5806 16.9771 11.5276 16.8018 11.5077 16.6872C11.4844 16.5726 11.4413 16.4243 11.4082 16.3568C11.375 16.2894 11.3286 16.1377 11.3087 16.0164C11.2888 15.8984 11.2423 15.7534 11.2092 15.6995C11.176 15.6422 11.1296 15.5006 11.1097 15.3826C11.0898 15.2646 11.0434 15.1163 11.0102 15.0522C10.977 14.9882 10.9306 14.8264 10.9074 14.6949C10.8842 14.56 10.8344 14.4117 10.8013 14.3611C10.7648 14.3106 10.7217 14.1892 10.7084 14.0881C10.6985 13.9903 10.6554 13.842 10.6189 13.7577C10.5824 13.6768 10.536 13.5184 10.5128 13.4071C10.4895 13.2959 10.4464 13.1509 10.4133 13.0869C10.3801 13.0195 10.3436 12.8914 10.3304 12.8003C10.3171 12.7059 10.264 12.534 10.2143 12.4127C10.1645 12.2913 10.1148 12.1261 10.1015 12.0452C10.0883 11.9643 10.0518 11.8362 10.0186 11.7587C9.98214 11.6845 9.93903 11.5227 9.91582 11.4013C9.89592 11.28 9.84949 11.135 9.81633 11.0811C9.78316 11.0238 9.73673 10.8822 9.71684 10.7608C9.69694 10.6395 9.65051 10.4945 9.61735 10.4406C9.58418 10.3833 9.54107 10.245 9.52117 10.1304C9.50459 10.0192 9.46148 9.86747 9.425 9.79331C9.38852 9.72252 9.33878 9.56408 9.31556 9.44609C9.29566 9.32473 9.24923 9.17303 9.21939 9.10898C9.18622 9.04493 9.14311 8.89997 9.1199 8.78872C9.09668 8.67748 9.04362 8.49881 9.00051 8.3943C8.9574 8.28643 8.92092 8.15159 8.92092 8.08753C8.92092 8.02011 8.88776 7.92909 8.83801 7.86167C8.73852 7.72683 8.72857 7.54479 8.8148 7.49422C8.85128 7.47062 10.2607 7.46051 13.0133 7.45714C16.711 7.45714 17.162 7.46388 17.2151 7.50771ZM24.123 7.50096C24.1793 7.54142 24.1793 7.55153 24.1064 7.67626C24.0666 7.75042 23.9969 7.84819 23.9505 7.89538C23.8776 7.97629 23.5857 8.36059 23.3635 8.67411C23.3105 8.75164 23.1645 8.94716 23.0418 9.10561C22.9191 9.26405 22.7798 9.44946 22.7334 9.51351C22.6837 9.57756 22.5709 9.72926 22.4814 9.85062C22.3918 9.97198 22.2824 10.1237 22.2393 10.1877C22.1962 10.2518 22.0635 10.4304 21.9441 10.5821C21.8247 10.7338 21.6987 10.9024 21.6656 10.953C21.6357 11.0035 21.5694 11.0946 21.523 11.1552C21.377 11.344 21.2974 11.4451 21.1349 11.671C21.0487 11.7924 20.9592 11.9137 20.936 11.9407C20.7503 12.18 20.6607 12.3014 20.5612 12.4497C20.4982 12.5441 20.4054 12.6655 20.3556 12.7194C20.3026 12.7767 20.2628 12.8307 20.2628 12.8442C20.2628 12.8576 20.2163 12.9217 20.1633 12.9857C20.1069 13.0498 20.0074 13.1846 19.9378 13.2824C19.8714 13.3835 19.7487 13.5521 19.6658 13.66C19.5829 13.7678 19.4635 13.9263 19.4005 14.0139C19.3375 14.0982 19.2281 14.2364 19.1617 14.3207C19.0921 14.405 19.0357 14.4859 19.0357 14.4994C19.0357 14.5162 18.9561 14.6275 18.8633 14.7455C18.7671 14.8668 18.598 15.0927 18.4885 15.2444C18.3791 15.3994 18.2431 15.5882 18.1834 15.6624C18.1237 15.7399 18.0309 15.8613 17.9712 15.9355C17.9148 16.0096 17.6296 16.3939 17.3411 16.7917C17.0492 17.1895 16.7806 17.5536 16.7441 17.6008C16.5319 17.8738 16.3395 18.1402 16.2798 18.2379C16.2401 18.2952 16.1969 18.3458 16.1837 18.3458C16.1671 18.3458 16.1207 18.4031 16.0809 18.4705C16.0378 18.5413 15.9349 18.6863 15.8454 18.7941C15.7592 18.902 15.6862 19.0065 15.6862 19.0267C15.6862 19.047 15.6365 19.1211 15.5801 19.1886C15.3944 19.4043 14.9367 20.0381 14.8505 20.1999C14.7974 20.2909 14.7842 20.301 14.7212 20.2639C14.6582 20.2302 14.6515 20.21 14.6714 20.0347C14.6847 19.9302 14.7378 19.7549 14.7908 19.6403C14.8472 19.529 14.8903 19.3908 14.8903 19.3369C14.8903 19.283 14.9268 19.1582 14.9732 19.0605C15.0163 18.9661 15.0694 18.7908 15.0893 18.6762C15.1125 18.5615 15.1556 18.4098 15.1921 18.339C15.2286 18.2683 15.2783 18.0997 15.3015 17.9649C15.3281 17.8266 15.3811 17.6648 15.4176 17.6008C15.4574 17.5367 15.4872 17.4423 15.4872 17.3918C15.4872 17.3412 15.5237 17.2131 15.5668 17.1052C15.6099 17.0007 15.663 16.8254 15.6829 16.7209C15.6995 16.6164 15.7459 16.4715 15.7791 16.4007C15.8156 16.3299 15.8587 16.1782 15.8819 16.0602C15.9051 15.9456 15.9582 15.7703 16.0013 15.6725C16.0477 15.5781 16.0842 15.4534 16.0842 15.3994C16.0842 15.3455 16.1207 15.2242 16.1638 15.1298C16.2069 15.0354 16.2599 14.8634 16.2832 14.7455C16.3031 14.6275 16.3561 14.4623 16.4026 14.378C16.4457 14.2937 16.4821 14.1757 16.4821 14.1184C16.4821 14.0611 16.5153 13.9465 16.5518 13.8622C16.5883 13.7779 16.6413 13.6094 16.6679 13.4813C16.6911 13.3566 16.7408 13.1981 16.7773 13.1273C16.8105 13.0599 16.8569 12.8981 16.8768 12.77C16.9 12.6419 16.9464 12.4801 16.9829 12.4059C17.0194 12.3351 17.0658 12.1902 17.0824 12.0823C17.1023 11.9778 17.1454 11.8396 17.1786 11.7721C17.2117 11.7081 17.2582 11.553 17.2781 11.435C17.3013 11.3137 17.3477 11.1687 17.3776 11.1148C17.4107 11.0575 17.4472 10.9361 17.4605 10.8451C17.4737 10.7507 17.5268 10.5754 17.5798 10.4507C17.6329 10.3293 17.676 10.1844 17.676 10.1304C17.676 10.0799 17.7125 9.95512 17.7589 9.85736C17.802 9.76297 17.8551 9.58767 17.875 9.46968C17.8949 9.35507 17.938 9.20674 17.9745 9.13932C18.0077 9.07527 18.0508 8.93031 18.0707 8.81906C18.0939 8.71119 18.1469 8.53589 18.1867 8.43476C18.2298 8.33362 18.2763 8.17181 18.2895 8.08079C18.3028 7.9864 18.3393 7.86504 18.3758 7.80773C18.4089 7.75042 18.4388 7.66952 18.4388 7.63244C18.4388 7.59198 18.4719 7.53805 18.5117 7.51108C18.5781 7.46388 18.8997 7.45714 21.324 7.45714C23.5194 7.45714 24.0765 7.46725 24.123 7.50096Z" fill="#00A4FF"/>
</svg>
