<svg fill="none" viewBox="0 0 284 153" xmlns="http://www.w3.org/2000/svg"><path d="m48.9598 92.5564-1.5989.4312-3.8495-14.2741-3.0819.8312-.375-1.3903 4.6808-1.2624zm4.0303-18.1143c3.1282-.8437 6.0516.7791 6.8265 3.6524.5187 1.9233.079 3.3345-.7919 5.3591l-3.0979 7.2238-1.8537.5 3.0916-7.247c-.5569.4236-1.1807.6912-1.76.8475-2.9197.7874-5.6648-.6349-6.4897-3.6936-.7874-2.9197.9236-5.7923 4.0751-6.6422zm.3392 1.3502c-2.2013.5937-3.3458 2.6175-2.7584 4.7957.6312 2.3404 2.6256 3.468 4.827 2.8743 2.155-.5812 3.4377-2.3689 2.7628-4.8715-.5999-2.2245-2.6764-3.3797-4.8314-2.7985zm14.2927 5.1687c-1.0124-3.7539.3794-6.8884 3.6699-7.7758 1.8305-.4937 3.6643.1303 4.944 1.6495l-1.881-6.9748 1.622-.4375 4.487 16.6376-1.5062.4062-.6936-2.5721c-.3762 2.0155-1.6769 3.46-3.5539 3.9662-3.2904.8874-6.0758-1.1454-7.0882-4.8993zm1.6452-.4437c.8374 3.105 2.9068 4.5107 5.2935 3.867 2.3636-.6374 3.4669-2.9982 2.642-6.0569-.8311-3.0819-2.9807-4.4162-5.2979-3.7912-2.3867.6436-3.475 2.876-2.6376 5.9811zm19.5711 1.5328c-3.4295.9249-6.394-1.0348-7.4376-4.9045-.9624-3.5685.6825-6.8708 3.9266-7.7457 3.4758-.9374 6.5028 1.254 7.2809 5.2451l-9.4542 2.5497c.9202 2.859 2.9307 4.2308 5.3174 3.5872 2.0392-.55 3.1465-2.0666 3.0154-4.1193l1.5989-.4312c.1751 2.8611-1.4436 5.0625-4.2474 5.8187zm-3.1967-11.3926c-2.2014.5937-3.2977 2.7039-2.7876 5.425l7.7626-2.0935c-.8764-2.6969-2.7274-3.9377-4.975-3.3315zm20.9854 6.5952c-3.36.9061-6.512-1.1025-7.5054-4.7869-.9874-3.6612.7332-6.9589 4.0934-7.8651 3.383-.9124 6.528 1.073 7.516 4.7342.993 3.6844-.721 7.0054-4.104 7.9178zm-.381-1.4135c2.386-.6437 3.658-3.025 2.84-6.0606-.807-2.9892-3.103-4.4081-5.49-3.7644-2.364.6374-3.6354 3.0187-2.829 6.0079.818 3.0356 3.115 4.4545 5.479 3.8171zm13.391-2.0704c-3.221.8686-6.175-1.1436-7.187-4.8975-1-3.7076.565-6.9384 3.763-7.8008 2.85-.7687 5.401.5815 6.713 3.5089l-1.645.4437c-.971-2.1245-2.718-3.0703-4.687-2.5391-2.271.6124-3.286 3.0239-2.499 5.9436.8 2.966 2.89 4.5401 5.161 3.9277 1.993-.5375 3.01-2.2038 2.768-4.5747l1.646-.4437c.397 3.2238-1.159 5.657-4.033 6.4319zm13.787-5.657.387 1.4367c-.557.4236-1.065.66-1.667.8225-2.016.5437-3.85-.0803-4.562-2.7219l-1.994-7.392-2.873.775-.369-1.3672 2.873-.7749-.975-3.6149 1.622-.4374.975 3.6148 3.824-1.0311.368 1.3672-3.823 1.0311 1.9 7.0443c.512 1.9001 1.614 2.299 2.958 1.9365.51-.1375.902-.3426 1.356-.6887zm9.465-6.1818-1.963-7.276 1.599-.4312 3.293 12.2117-1.506.4062-.593-2.2014c-.245 1.5823-1.453 3.0018-3.237 3.483-2.48.6687-4.506-.3011-5.337-3.383l-2.144-7.948 1.622-.4375 2.05 7.6005c.669 2.4794 2.153 3.0982 3.868 2.6358 1.946-.525 2.935-2.4819 2.348-4.6601zm15.985-5.5789c1.012 3.7539-.396 6.9179-3.664 7.799-1.876.5062-3.727-.0884-5.066-1.6414l.694 2.5721-1.506.4062-4.487-16.6376 1.622-.4374 1.887 6.9979c.307-1.9967 1.584-3.435 3.438-3.9349 3.267-.8812 6.07 1.1223 7.082 4.8761zm-1.645.4437c-.838-3.105-2.924-4.4812-5.311-3.8376-2.294.6187-3.481 2.8529-2.65 5.9348.825 3.0587 2.966 4.5446 5.306 3.9134 2.387-.6437 3.492-2.9055 2.655-6.0106zm5.766-2.0025 1.763 6.5345-1.623.4375-3.293-12.2117 1.506-.4062.75 2.7806c.347-2.0324 1.842-3.6784 3.858-4.2221l.456 1.6915c-2.597.601-4.135 2.7311-3.417 5.3959zm13.123 3.7192c-3.429.9249-6.394-1.0348-7.437-4.9045-.963-3.5686.682-6.8708 3.926-7.7457 3.476-.9374 6.503 1.254 7.281 5.2451l-9.454 2.5497c.92 2.859 2.931 4.2308 5.318 3.5872 2.039-.55 3.146-2.0666 3.015-4.1193l1.599-.4312c.175 2.8611-1.444 5.0625-4.248 5.8187zm-3.196-11.3926c-2.202.5937-3.298 2.7039-2.788 5.425l7.763-2.0936c-.877-2.6968-2.728-3.9376-4.975-3.3314zm-112.5004 71.3471-.5999-2.225c-.3059 1.723-1.5389 3.05-3.439 3.562-2.5258.682-4.5522-.288-5.1459-2.49-.6437-2.386.919-4.15 4.6265-5.15.7415-.2 1.3102-.303 2.5401-.536l-.275-1.019c-.5499-2.039-1.964-2.951-3.8177-2.451-1.9928.538-2.9129 2.103-2.3986 4.102l-1.4831.4c-.6616-2.73.7279-5.043 3.5085-5.793 2.8502-.769 4.9685.45 5.731 3.277l2.1435 7.948zm-7.6448-1.618c.4 1.483 1.8041 2.174 3.5189 1.711 2.2708-.612 3.3076-2.483 2.6889-4.777l-.2937-1.089c-1.0678.189-1.7924.359-2.4644.54-2.7806.75-3.9059 1.924-3.4497 3.615zm14.0693-.115-1.622.437-4.487-16.637 1.622-.438zm5.672-9.907c-1.3998-5.19-.1882-8.6242 3.3803-9.5866 3.5454-.9561 6.3425 1.3967 7.7423 6.5876 1.3999 5.19.1989 8.572-3.3928 9.54-3.6148.975-6.3299-1.35-7.7298-6.541zm1.6684-.45c1.1624 4.31 3.1019 6.248 5.674 5.555 2.5258-.682 3.2805-3.321 2.1119-7.654-1.1749-4.3567-3.1607-6.2821-5.6865-5.6009s-3.2805 3.3209-2.0994 7.6999zm19.3799 3.375c-3.1051.837-5.7306-.419-6.5313-3.111l1.5757-.425c.6239 1.945 2.4212 2.802 4.5994 2.215 2.2477-.606 3.2836-2.203 2.7524-4.173-.5062-1.877-2.3605-2.669-4.7704-2.019l-1.5525.418-.3625-1.344 1.5062-.406c1.9233-.519 2.9361-2.1092 2.4611-3.8703-.4562-1.6916-2.02-2.5127-3.8042-2.0315-1.8538.4999-2.7694 1.9898-2.3747 3.8222l-1.5525.4187c-.5929-2.475.9525-4.8555 3.6173-5.5742 2.7807-.7499 5.1138.4354 5.7638 2.8453.4374 1.6221-.1859 3.1822-1.7069 4.3628 2.2988-.048 3.925 1.005 4.4375 2.905.7249 2.688-.907 5.117-4.0584 5.967zm10.6736-9.665c-1.012-3.7541.379-6.8886 3.67-7.776 1.83-.4937 3.664.1304 4.944 1.6495l-1.881-6.9748 1.622-.4374 4.487 16.6377-1.506.406-.694-2.572c-.376 2.015-1.677 3.46-3.554 3.966-3.29.888-6.076-1.145-7.088-4.899zm1.645-.4439c.838 3.1049 2.907 4.5109 5.294 3.8669 2.363-.637 3.467-2.998 2.642-6.0567-.831-3.0819-2.981-4.4162-5.298-3.7913-2.387.6437-3.475 2.8761-2.638 5.9811zm19.571 1.5329c-3.429.925-6.394-1.035-7.437-4.9046-.963-3.5685.682-6.8707 3.926-7.7456 3.476-.9374 6.503 1.254 7.281 5.2451l-9.454 2.5497c.92 2.859 2.931 4.2304 5.317 3.5871 2.04-.5499 3.147-2.0666 3.016-4.1193l1.599-.4312c.175 2.8612-1.444 5.0628-4.248 5.8188zm-3.196-11.3927c-2.202.5937-3.298 2.704-2.788 5.425l7.763-2.0935c-.877-2.6968-2.728-3.9376-4.975-3.3315zm15.737.1308 1.918 7.1139-1.622.4374-3.293-12.2117 1.506-.4062.619 2.294c.381-1.7186 1.589-3.1382 3.35-3.6131 2.549-.6874 4.632.4909 5.413 3.3874l2.137 7.9249-1.622.4374-1.987-7.3687c-.631-2.3404-2.053-3.3737-4.046-2.8363-1.9.5125-2.986 2.5702-2.373 4.841zm18.395 2.9187c-3.36.9061-6.511-1.1025-7.505-4.7869-.987-3.6611.733-6.9589 4.093-7.8651 3.383-.9124 6.529 1.0731 7.516 4.7342.994 3.6844-.72 7.0054-4.104 7.9178zm-.381-1.4135c2.387-.6437 3.659-3.025 2.84-6.0606-.806-2.9892-3.103-4.4081-5.49-3.7644-2.363.6374-3.635 3.0187-2.829 6.0079.819 3.0356 3.116 4.4545 5.479 3.8171zm14.51-15.7455-1.41 13.4803-1.692.4562-7.951-10.9556 1.738-.4687 6.605 9.2805 1.042-11.3427zm3.231-3.9038c.193.7184-.202 1.3719-.99 1.5844-.765.2062-1.435-.1598-1.629-.8782-.187-.6951.208-1.3487.973-1.5549.788-.2125 1.458.1536 1.646.8487zm3.569 15.17-1.622.4374-3.294-12.2117 1.623-.4374zm8.374-2.0098c-3.43.9249-6.394-1.0348-7.438-4.9045-.962-3.5685.683-6.8707 3.927-7.7456 3.476-.9374 6.503 1.254 7.281 5.245l-9.455 2.5497c.921 2.8591 2.931 4.2309 5.318 3.5872 2.039-.55 3.146-2.0666 3.015-4.1193l1.599-.4312c.175 2.8611-1.443 5.0625-4.247 5.8187zm-3.197-11.3926c-2.201.5937-3.298 2.7039-2.788 5.425l7.763-2.0935c-.876-2.6968-2.727-3.9377-4.975-3.3315zm12.813 8.5506-1.622.4375-3.293-12.2117 1.506-.4062.618 2.294c.386-1.7944 1.567-3.1319 3.305-3.6006 1.9-.5125 3.595.1491 4.586 1.7958.302-1.9209 1.531-3.4456 3.455-3.9643 2.525-.6812 4.551.5622 5.32 3.4124l2.137 7.9249-1.599.4312-1.994-7.3919c-.624-2.3172-2.047-3.3506-4.016-2.8194-1.854.4999-2.923 2.5282-2.317 4.7759l1.932 7.1602-1.623.4374-1.993-7.3919c-.625-2.3172-2.047-3.3505-4.017-2.8193-1.877.5061-2.922 2.5282-2.316 4.7758zm28.965-14.374c1.013 3.7539-.396 6.9178-3.663 7.799-1.877.5062-3.728-.0884-5.067-1.6415l.694 2.5721-1.506.4062-4.487-16.6375 1.622-.4375 1.887 6.998c.307-1.9967 1.584-3.435 3.438-3.9349 3.267-.8812 6.07 1.1222 7.082 4.8761zm-1.645.4437c-.837-3.1051-2.924-4.4813-5.31-3.8376-2.294.6187-3.482 2.8529-2.651 5.9348.825 3.0587 2.966 4.5445 5.306 3.9133 2.387-.6436 3.492-2.9054 2.655-6.0105zm5.766-2.0026 1.763 6.5346-1.622.4374-3.294-12.2117 1.506-.4062.75 2.7807c.347-2.0324 1.842-3.6785 3.858-4.2222l.456 1.6916c-2.597.601-4.135 2.731-3.417 5.3958zm13.124 3.7192c-3.43.9249-6.394-1.0348-7.438-4.9045-.963-3.5685.682-6.8707 3.926-7.7456 3.476-.9374 6.503 1.254 7.281 5.2451l-9.454 2.5497c.92 2.859 2.931 4.2308 5.318 3.5871 2.039-.5499 3.146-2.0666 3.015-4.1193l1.599-.4312c.175 2.8611-1.444 5.0626-4.247 5.8187zm-3.197-11.3926c-2.202.5937-3.298 2.704-2.788 5.425l7.763-2.0935c-.877-2.6968-2.728-3.9377-4.975-3.3315z" fill="#3c5430"/><path d="m24.2815 42.2928c90.6375 15.3458 163.7435-68.209 230.3865-23.998 102.213 67.807-147.868 150.4302-221.6525 124.1512-42.29025-15.061-24.36187-67.5673-23.11421-101.9904.0727-2.0058 2.10501-.2411 14.38021 1.8372z" stroke="#527442" stroke-linecap="round" stroke-width="9.55865"/></svg>