<svg fill="none" viewBox="0 0 290 80" xmlns="http://www.w3.org/2000/svg"><g fill="currentColor"><path d="m14.5137 30.6211-.0489.1439c.0187-.0185.0349-.0672.0489-.1439z"/><path d="m1.48739 32.3517c-.0046-.0178-.00864-.0348-.01213-.0509-.00237.017.00175.034.01213.0509z"/><path d="m1.18772 30.3655c.01696-.0668.0424-.1003.07632-.1002.02884.0001.04564.0383.04929.1144-.00476.058-.03828.0867-.10065.0864-.03391-.0001-.04255-.0332-.02496-.1006zm.32261 1.7097-.00031.1004c-.034-.0002-.05048-.0167-.05032-.0504.00007-.0329.01672-.0501.05063-.05zm1.61513 1.0108c.03328 0 .05048.0339.05024.1007-.00024.0674-.01775.1003-.05096.1001-.03391 0-.0504-.0331-.05016-.1005.00024-.0668.01696-.1005.05088-.1003zm.35835-1.1545c.06696.0677.126.126.17648.1766.0504.0504.09209.1094.12577.1763.04826.0972.07893.1677.09232.212-.01759-.0002-.06506-.0452-.1432-.137-.10072-.1171-.21872-.2598-.35249-.4282-.06768-.1008-.03368-.1007.10112.0003zm.51312-1.9579c.03305.0002.0504.0174.05032.0505-.00016.0338-.01759.0501-.05072.05-.03407-.0002-.05055-.0166-.05048-.0504.00016-.033.0168-.0501.05088-.0501zm.39893 1.5592c-.00008.0337-.01752.0501-.0508.0499l-.10112-.0003c.00048-.1334.0512-.1505.15192-.0496zm3.3339-26.36861c.16871-.09989.26975-.08226.30335.05132.03273.1006.03242.18459-.00095.25126l.05072-.05014c-.06839.10028-.13559.14247-.20271.12499-.068-.01684-.13496-.07596-.20176-.17663-.0336-.10075-.0168-.16735.05135-.2008zm.83676-.57485c.01656-.01645.05841.00882.12616.07572.06689.06777.06681.10083-.00039.1006-.068-.00031-.10104-.01677-.10096-.05061-.03384-.06691-.04232-.10855-.02481-.12571zm.93154 1.18418c.00016-.03306.01681-.05031.05072-.05015.03321.00008.05056.01748.05048.05046l-.00024.05038-.10111-.00039zm2.57434 1.56697c-.0001.03377.0164.05022.0503.05038l-.1011-.0004c.0332.00016.0507-.01621.0508-.04998zm.3907 3.82031c.0332.0001.0506.0174.0505.0505-.0002.0675-.0177.1004-.051.1002-.0339-.0001-.0506-.0166-.0505-.0504.0002-.0667.0171-.1005.051-.1003zm.1456 15.5777c.0704-.9456.0464-.6028.7611-.6003 1.297.1344 1.2042 2.6622 1.2013 3.5217-.0011.2685-.0106.5112-.028.7286-.0377.4525-.1611 1.2276-.5872 1.4803-.7771.7653-1.3061-.9145-1.3356-1.3868-.0816-1.2435-.1062-2.4998-.0116-3.7435zm1.9938-19.58992-.1013.04998c.4266.00134-.3691-.05161.1013-.04998zm.2505 28.44162-.0004.1005c-.1357.1339-.2029.1337-.2024-.0006.0001-.0329.0334-.0832.1016-.1505.1346-.0323.1684-.0158.1012.0506zm.5138-29.94632c.0332-.03274.0839-.04999.1519-.04975.1172.00041-.0809.14012-.1017.15034-.1359.13413-.1871.0345-.0502-.10059zm.4427 3.46879c-.2402-.14384.3282.16617 0 0zm3.6814 17.04753c.0332.0001.0504.0339.0502.1007-.0002.0674-.0177.1004-.051.1004-.0339-.0002-.0505-.0333-.0503-.1008.0003-.0667.0171-.1004.0511-.1003zm.5393 4.6751c-.0001.0337-.0176.0501-.0506.05l-.1013-.0003c.0005-.1336.0512-.1506.1519-.0497zm1.2446-8.3368.0003-.1005.1011.0003.0254.0127c-.017.0252-.0424.0544-.0763.0878-.068.0334-.0846.0333-.0505-.0003zm.3483 1.6092.1007.1008c.1205.0612.1464.0939.0771.0997-.0579-.0055-.1086-.0303-.153-.0748-.0504-.0505-.0591-.0921-.0248-.1257zm.2949 2.3376c.0333-.0502.0675-.0751.1015-.075l-.0004.1004c-.0003.0677-.0258.1256-.0764.1757-.0509.05-.0935.0421-.1266-.0255l.1015-.05c-.034-.033-.0338-.0755.0004-.1256zm.236 4.6489c.0335-.0666.0763-.0829.1267-.0499.0504.034.0582.0842.0247.1508l.0506.0003c-.0002.0675-.0344.1004-.1016.1001-.1351-.0005-.1689-.0673-.1004-.2013zm.1233-6.0797c.1346-.0662.2107-.0998.2281-.0997.0166 0 .0252.034.025.1006-.0003.0675-.0684.1003-.2028.0998l-.0002.0503c-.2364-.0008-.2527-.0512-.0501-.151zm.0161-4.4218.0002-.0503c.1344.0005.1682.0681.1005.2013-.1359.2006-.2031.2003-.2024-.0007.0004-.1004.0339-.1507.1017-.1503zm.1714-5.3761.0504.0505c.0335-.0666.059-.1002.0763-.1002.0166 0 .0077.0338-.0256.1004-.0002.0338-.0343.0502-.1015.05-.0679-.0003-.0677-.0333.0004-.1007zm.1957 15.7286c.0333-.0666.0588-.1002.0761-.1001.0168.0001.0079.0336-.0256.1003l.0504.0505c-.0001.0338-.0341.0501-.1013.0499-.068-.0003-.0678-.0332.0004-.1006zm.1074-15.6269c.0334-.0329.0508-.0328.0507.0002l-.0004.1005c-.0682.0673-.1102.0836-.1267.0498-.0171-.0331.0083-.0833.0764-.1505zm.0958 15.3765-.0004.1005c-.0339-.0002-.0504-.0167-.0503-.0506.0001-.0329.0168-.0501.0507-.0499zm.3342-1.4811c.0168-.0165.0419-.0077.0759.0253.0669.0678.0668.1008-.0004.1005l.0503.0504c-.0678-.0002-.101-.0168-.101-.0505-.0336-.067-.0422-.1086-.0248-.1257zm.9754-10.8251c.0332 0 .0506.0174.0504.0503l-.1012-.0004c.0001-.0328.0169-.0501.0508-.0499zm.1462 1.5138-.0001.0444c-.0225-.0221-.0222-.0368.0001-.0444zm.1518-.0054c-.0002.0661-.0489.0669-.1453.0036.0109-.0026.0254-.004.0441-.0039zm-23.639081 3.9348c-.000238.0676.007211.1932.023932.3771.015849.1845.024012.3604.023378.5276-.001585.4358.030589.6871.098424.7541.032807.0677.056977.3945.072197.98.01458.5867.02037 1.3656.0168 2.3368-.00143.4019.01442.6204.04826.6534.03289.0675.03273.1179-.00055.1507-.03408.0338-.05159.2684-.05318.7033.06475.6707.13068 1.0055.19875 1.0057.0672.0002.06704.0339-.00039.1005-.10176.1676-.06927.3351.09929.5029.06696.0677.10072.1511.10033.2515-.00008.0333.00586.0756.01672.1255.00119-.0083.0038-.0165.00816-.0248.0168-.033.04208-.0329.07592.0003l-.0004.1004c-.00008.0337-.01751.0336-.05064-.0002-.00863-.0085-.01561-.017-.02092-.0255.02457.0938.06451.2107.12101.3525.10025.2516.20065.4451.30146.579.06656.1345.10032.2187.10016.2515-.00023.0675.03281.1007.10081.1009.0672.0004.10111.0342.10088.1008l-.00032.1006c-.00016.0337.03281.0676.10072.1009.03297.0339.0756.0677.12608.101.05048.0338.10873.0843.17656.1513.26841.2694.43641.4035.50433.4038.0332 0 .11768.0342.25264.1014.13416.0679.21856.1013.25256.1015.0332 0 .0836.0339.15136.1009.03312.034.13408.0846.30296.1518.16808.0682.34496.1441.53047.2281.18457.0848.37.1521.55568.203.18472.0509.3112.0765.37903.0768.06721.0002.20232.0344.40448.1019.168.068.37024.1191.60647.1529.23544.0346.38712.0516.45511.0519.06721.0003.10104.0176.10096.0505-.00015.0339.06697.0506.20224.0512.10112.0003.18473.0344.25248.1012.03305.034.21872.0849.55592.1527.13424.0345.27799.06.42967.0771.15176.0178.26072.0433.32856.0764.23544.0347.37063.0352.40471.0016-.03424.0673.01624.1179.1512.1512.13424.0343.30328.0686.50551.1024.1684.0006.32.0348.4549.102.1342.0682.2858.1015.455.1021.0672.0003.1597.0094.2781.0262.1177.0178.2102.0259.2781.0262.1343.0341.3286.0514.5815.0523.2531.0009.5226-.006.8096-.0222.2862-.0154.5314-.0311.7337-.0476.2024-.0157.3204-.0405.3544-.0741.0675-.0665.2359-.0997.5063-.0987.2695.0009.5392-.031.8097-.0976.2698-.0658.5229-.0985.7592-.0977.2355.0009.4554-.0314.6581-.0982.2025-.0661.405-.099.6074-.0983.1683.0006.3202-.0317.4556-.0988.0673-.0328.152-.0498.2532-.0494.0671.0003.1936-.0245.3795-.0739.1852-.0497.38-.1157.5827-.199.2025-.0825.3965-.1745.5827-.2743.1852-.0997.3121-.1826.3803-.2497.1016-.1003.2196-.183.3551-.2501.1346-.0663.2868-.1826.4565-.35.169-.1668.3211-.2831.4566-.3502.0673-.0327.1521-.0999.2536-.2001l.3554-.3504c.2362-.1665.4061-.3668.508-.6012.0676-.1002.1274-.217.1784-.3511.0511-.1333.0934-.2337.1276-.301.0677-.1332.1611-.4014.2812-.8031.1192-.4015.2642-.9035.4355-1.5059.0334-.0666.0589-.1331.0765-.2005.017-.0667.0424-.1335.0768-.2009.0678-.1669.1356-.3512.2043-.5519l.1027-.4015c.0001-.0331.0336-.1507.1023-.3515.068-.2008.1023-.3176.1025-.3514.0001-.033.0338-.1506.1026-.3513.0333-.0666.0677-.1671.1022-.3012.0337-.1333.0681-.2509.1024-.3514.0681-.2675.1029-.4518.1032-.5523l.0006-.1507c.0672.0002.1353-.2509.205-.7531.0335-.0665.0592-.1756.0772-.3262.0171-.1508.0428-.2762.0772-.3767.0684-.3342.1034-.6028.1042-.8035.0354-.636.1215-1.0376.2573-1.2051.0676-.1332.1021-.2838.1027-.4518l.0013-.3519c.0676-.1002.119-.3263.1542-.6778.0346-.3516.0354-.5776.0025-.6784-.0334-.1335-.0331-.2176.001-.2511.0674-.0666.1017-.1332.1019-.2007.0352-.569.0548-1.1719.0571-1.8087.0024-.6359-.0135-1.0553-.0459-1.2563l.0016-.4524c.0008-.201.0095-.4521.028-.7537.0177-.3014.0355-.6106.054-.9293.0177-.3179.0276-.6194.0286-.9043.0011-.2843.0019-.5104.0025-.6785.0017-.4688.0192-.7199.0534-.7534.0333-.0667.0514-.2425.0524-.5275.0027-.7715.1971-1.7039-.0416-2.43708l.0482.60308c-.0668-.2681-.0987-.63636-.097-1.10585.0035-.97126-.045-1.558-.1454-1.75919-.0675-.13374-.1001-.28455-.0995-.45261.0012-.30148-.0987-.70394-.2991-1.20701-.2006-.50329-.4016-.87223-.6031-1.10775-.1684-.16773-.2857-.31894-.3524-.45347-.0676-.13373-.1933-.31013-.3774-.52896-.1851-.21811-.2774-.29392-.2776-.22717-.0001.03385-.0341.05014-.1013.04991-.0339-.00008-.0505-.03322-.0503-.10061.0004-.10059-.0838-.20134-.2518-.30242-.1347-.13396-.2017-.1845-.2018-.15144-.0003.06745-.0178.10044-.0509.10028-.0341-.00015-.0505-.03321-.0502-.10067.0002-.06667-.0337-.06683-.1012-.00039-.0682.06722-.1015.06714-.1012-.0004.0001-.03291-.0338-.0503-.101-.05062-.068-.00023-.0846.01701-.0508.05015l.0503.10059c-.0341.03362-.1012-.00031-.202-.10114-.1008-.10091-.1685-.18435-.2014-.25204-.0677-.10076-.0501-.1509.051-.15058l.1519-.04959-.1007-.101c-.0338-.03298-.0756-.06698-.1261-.10091-.0504-.03321-.1096-.08351-.1764-.15137-.1008-.10083-.3281-.21866-.6816-.35429-.3537-.13468-.6491-.21977-.8844-.25433-.2703-.034-.4978-.05982-.6827-.07785-.1857-.01715-.3793-.02637-.5817-.02716-.2024-.0007-.4474-.00165-.7335-.00259-.287-.00102-.6664.0148-1.1385.04605-.2704.0329-.506.04848-.7084.0477-.2024-.00071-.3375-.00118-.4047-.00142l-5.2106-.01881c-.4046-.00134-.7674-.01055-1.08738-.02897-.32087-.01755-.51463-.02707-.58175-.02723-.06791-.00024-.16919-.00063-.30359-.00111-.13504-.00047-.28687.01622-.45535.04866-.54007.06556-.87789.11452-1.01238.14711-.13519.03321-.23663.08312-.30406.14964-.06816.06729-.10136.06722-.10112-.00032.00008-.03306-.05056-.03321-.15176-.00055-.06815.03345-.14407.06698-.22815.09957-.08464.03353-.16055.06699-.22791.09981-.16935.06683-.39766.22466-.68477.47473-.28775.25039-.46558.4593-.53333.62625-.06839.10036-.15247.18403-.25383.25047-.13543.06691-.29646.1919-.48198.37507-.18638.18381-.31357.34273-.38125.47591-.10118.20003-.45664.36333-.45749.60138-.00085.23957-.39987.54102-.53381.72677-.27709.38281-.47456.85951-.68746 1.27879-.17054.33469-.25493.51881-.25509.55187-.00008.03369-.0344.1176-.10207.25086-.06847.13405-.10199.23433-.10223.30108-.00024.06755-.03455.13421-.10199.20072-.06823.06715-.1016.13374-.10183.20057-.00016.03377-.03448.15058-.10239.35138-.06879.20072-.10262.35138-.10294.4519-.0004.10036-.03471.21812-.10239.35138-.06855.1339-.14541.41872-.23084.85332-.08622.4356-.146611.7532-.180449.954l-.002933.8041c-.000475.1343-.009985.3439-.027577.628-.018465.2849-.044775.5612-.079009.8287-.034789.2347-.060861.4443-.078058.6279-.018068.1844-.026864.4193-.027895.7033-.00103.285-.002298.6282-.003804 1.0302-.001426.402-.003407.9382-.005864 1.6079-.006577 1.8089-.003645 3.183.010302 4.1205.013155.9383.05262 1.5916.119346 1.96z"/><path d="m20.6408 1.74317c.0002-.06674-.0171-.10051-.0503-.10059l-.0007.20096.0506.00015z"/><path d="m49.8669 19.3348-.0505-.0504c.0331.0676.0583.1008.0756.1009.0166 0 .0081-.0331-.0249-.1007l.0002-.0502z"/><path d="m38.3359 22.7108c.0284.0001.0568.0002.0866.0003l.0001-.0509c-.0331.033-.0619.0496-.0867.0506z"/><path d="m29.668 37.1506c-.0002.033.0164.0503.0505.0503.0331.0002.0505-.017.0506-.0499.0002-.033-.0172-.0504-.0503-.0504-.0341-.0002-.0507.017-.0508.05z"/><path d="m74.6051 19.4237-.0504-.0504c.033.0676.0582.1007.0755.1008.0166.0001.0081-.033-.025-.1006l.0003-.0503z"/><path d="m63.0742 22.7996c.0285.0002.0568.0002.0866.0003l.0002-.0509c-.0332.0331-.062.0498-.0868.0506z"/><path d="m9.6543 63.5302c.02845.0001.05682.0002.08662.0003l.00016-.051c-.03313.0331-.06197.0498-.08678.0507z"/><path d="m21.1872 60.1542-.0505-.0504c.0331.0675.0583.1006.0756.1007.0166.0001.0081-.033-.0249-.1005l.0002-.0503z"/><path d="m.988282 77.97c-.000079.0329.016408.0503.050478.0504.03313.0001.05056-.0171.05064-.05.00016-.0331-.01719-.0505-.05032-.0505-.03408-.0002-.050639.017-.050798.0501z"/></g><g fill="currentColor"><path d="m107.827 57.6848c-4.568 0-7.71 2.3665-7.71 6.165 0 3.5646 2.444 5.0253 5.237 5.6681l4.073.8767c1.396.2922 1.803.8471 1.803 1.7237 0 1.1981-1.076 2.016-2.88 2.016-1.949 0-3.345-.8767-3.84-2.8926l-4.9455.9642c.5235 3.8277 4.1315 5.9311 8.5235 5.9311 4.335 0 8.029-2.1618 8.029-6.3401 0-3.0968-1.978-4.9377-5.352-5.6973l-4.044-.9058c-1.222-.2631-1.571-.8475-1.571-1.6362 0-1.1101 1.019-1.9868 2.618-1.9868 1.542 0 3.055.9059 3.404 2.7463l4.713-.9642c-.727-3.5646-3.811-5.6681-8.058-5.6681zm26.502 5.3467h-4.655v1.1689c-1.134-1.0226-2.647-1.607-4.538-1.607-3.869 0-7.127 3.1557-7.127 7.772 0 4.6456 3.258 7.7716 7.127 7.7716 1.891 0 3.404-.5844 4.538-1.607v1.1689h4.655zm-8.233 11.132c-2.036 0-3.52-1.519-3.52-3.7981 0-2.2498 1.484-3.7985 3.52-3.7985 1.891 0 3.578 1.5487 3.578 3.7985 0 2.2791-1.687 3.7981-3.578 3.7981zm20.742-11.5701c-1.832 0-3.374.672-4.48 1.8409v-1.4028h-4.654v14.6674h4.654v-6.8078c0-2.8338 1.193-4.0903 3.026-4.0903 1.483 0 2.501 1.1685 2.501 2.8927v8.0054h4.626v-8.9988c0-3.6818-2.269-6.1067-5.673-6.1067zm18.59 10.7814c-.611.3506-1.484.5844-2.124.5844-1.222 0-1.949-.6136-1.949-2.1331v-5.0836h4.305v-3.711h-4.305v-4.3242h-4.655v4.3242h-2.647v3.711h2.647v5.5509c0 3.8569 2.182 5.8436 5.818 5.8436 1.659 0 2.851-.4672 3.986-1.0809zm17.92-10.3433h-4.655v1.1689c-1.134-1.0226-2.647-1.607-4.538-1.607-3.869 0-7.127 3.1557-7.127 7.772 0 4.6456 3.258 7.7716 7.127 7.7716 1.891 0 3.404-.5844 4.538-1.607v1.1689h4.655zm-8.233 11.132c-2.036 0-3.52-1.519-3.52-3.7981 0-2.2498 1.484-3.7985 3.52-3.7985 1.891 0 3.578 1.5487 3.578 3.7985 0 2.2791-1.687 3.7981-3.578 3.7981zm32.757-.672h-9.6v-15.3686h-4.8v19.576h14.4zm17.28-10.46h-4.654v6.8078c0 2.8343-1.193 4.0903-3.026 4.0903-1.483 0-2.502-1.1684-2.502-2.8922v-8.0059h-4.625v8.9993c0 3.6814 2.269 6.1062 5.672 6.1062 1.833 0 3.375-.6719 4.481-1.8404v1.4023h4.654zm10.386 11.0153c-2.095 0-3.491-1.5195-3.491-3.6814 0-2.1331 1.396-3.6818 3.491-3.6818 1.484 0 2.676.8184 3.083 2.6005l4.364-1.0518c-.814-3.4474-3.898-5.6389-7.447-5.6389-4.364 0-7.971 3.1557-7.971 7.772 0 4.6456 3.607 7.7716 7.971 7.7716 3.636 0 6.72-2.2498 7.447-5.7264l-4.276-.9351c-.495 1.7821-1.687 2.5713-3.171 2.5713zm14.603-12.9146 3.462-4.4408h-5.527l-2.066 4.4408zm.204 1.8993h-4.625v14.6674h4.625zm19.055 0h-4.655v1.1689c-1.134-1.0226-2.647-1.607-4.538-1.607-3.869 0-7.127 3.1557-7.127 7.772 0 4.6456 3.258 7.7716 7.127 7.7716 1.891 0 3.404-.5844 4.538-1.607v1.1689h4.655zm-8.233 11.132c-2.036 0-3.52-1.519-3.52-3.7981 0-2.2498 1.484-3.7985 3.52-3.7985 1.891 0 3.578 1.5487 3.578 3.7985 0 2.2791-1.687 3.7981-3.578 3.7981z"/><path d="m104.977 30.5024h-4.801v19.5761h4.801zm12.509 4.4701c-1.833 0-3.375.6719-4.48 1.8409v-1.4028h-4.655v14.6674h4.655v-6.8078c0-2.8339 1.192-4.0903 3.025-4.0903 1.484 0 2.502 1.1685 2.502 2.8926v8.0055h4.625v-8.9989c0-3.6813-2.268-6.1066-5.672-6.1066zm18.589 10.7814c-.611.3505-1.484.5844-2.124.5844-1.221 0-1.949-.6136-1.949-2.1331v-5.0837h4.306v-3.7109h-4.306v-4.3242h-4.654v4.3242h-2.648v3.7109h2.648v5.5515c0 3.8564 2.182 5.8431 5.818 5.8431 1.658 0 2.851-.4673 3.986-1.0809zm16.873-3.0094c-.087-4.7919-3.403-7.772-7.535-7.772-4.247 0-7.738 3.1557-7.738 7.772 0 4.6456 3.491 7.7716 7.71 7.7716 3.345 0 5.992-1.4898 7.243-4.5872l-4.131-.847c-.785 1.4315-2.036 1.6945-3.112 1.6945-1.571 0-2.764-1.0809-3.142-2.8343h10.705zm-7.535-3.9735c1.339 0 2.502.7303 2.939 2.3081h-6.022c.436-1.4903 1.774-2.3081 3.083-2.3081zm19.637-3.5647c-2.385 0-3.985 1.2565-5.033 3.0094v-2.8051h-4.654v14.6674h4.654v-4.5872c0-3.798 1.775-5.493 5.033-5.493h.844l.204-4.6748c-.35-.0875-.64-.1167-1.048-.1167zm12.161-.2338c-1.833 0-3.375.6719-4.481 1.8409v-1.4028h-4.654v14.6674h4.654v-6.8078c0-2.8339 1.193-4.0903 3.026-4.0903 1.484 0 2.502 1.1685 2.502 2.8926v8.0055h4.625v-8.9989c0-3.6813-2.269-6.1066-5.672-6.1066zm24.204.4381h-4.655v1.1689c-1.135-1.0226-2.647-1.607-4.538-1.607-3.869 0-7.128 3.1557-7.128 7.772 0 4.6456 3.259 7.7716 7.128 7.7716 1.891 0 3.403-.584 4.538-1.6065v1.1684h4.655zm-8.233 11.132c-2.037 0-3.521-1.5191-3.521-3.7981 0-2.2498 1.484-3.7985 3.521-3.7985 1.89 0 3.578 1.5487 3.578 3.7985 0 2.279-1.688 3.7981-3.578 3.7981zm18.618-.1167c-2.094 0-3.491-1.5195-3.491-3.6814 0-2.1331 1.397-3.6813 3.491-3.6813 1.484 0 2.677.8179 3.084 2.5999l4.363-1.0517c-.814-3.4475-3.898-5.6389-7.447-5.6389-4.364 0-7.971 3.1557-7.971 7.772 0 4.6456 3.607 7.7716 7.971 7.7716 3.637 0 6.72-2.2493 7.447-5.7264l-4.276-.9351c-.494 1.7826-1.687 2.5713-3.171 2.5713zm12.422-17.9982c-1.571 0-2.676 1.2272-2.676 2.6587 0 1.4903 1.105 2.6004 2.676 2.6004s2.705-1.1101 2.705-2.6004c0-1.4315-1.134-2.6587-2.705-2.6587zm2.327 6.9829h-4.655v14.6674h4.655zm10.735-.3798c-4.422 0-8.088 3.0974-8.088 7.7137 0 4.6456 3.666 7.7425 8.088 7.7425 4.335 0 8-3.0969 8-7.7425 0-4.6163-3.665-7.7137-8-7.7137zm0 11.5118c-1.891 0-3.608-1.4899-3.608-3.7981 0-2.279 1.717-3.7985 3.608-3.7985 1.803 0 3.52 1.5195 3.52 3.7985 0 2.3082-1.717 3.7981-3.52 3.7981zm19.549-11.5701c-1.833 0-3.374.6719-4.48 1.8409v-1.4028h-4.655v14.6674h4.655v-6.8078c0-2.8339 1.193-4.0903 3.026-4.0903 1.483 0 2.501 1.1685 2.501 2.8926v8.0055h4.626v-8.9989c0-3.6813-2.269-6.1066-5.673-6.1066zm24.204.4381h-4.654v1.1689c-1.135-1.0226-2.648-1.607-4.539-1.607-3.869 0-7.127 3.1557-7.127 7.772 0 4.6456 3.258 7.7716 7.127 7.7716 1.891 0 3.404-.584 4.539-1.6065v1.1684h4.654zm-8.233 11.132c-2.036 0-3.52-1.5191-3.52-3.7981 0-2.2498 1.484-3.7985 3.52-3.7985 1.891 0 3.579 1.5487 3.579 3.7985 0 2.279-1.688 3.7981-3.579 3.7981zm16.263-16.0507h-4.655v19.5861h4.655z"/><path d="m104.977 7.11658h10.269v-4.23661h-15.07v19.57603h4.801v-7.0125h9.134v-4.207h-9.134zm26.473 8.00552c-.088-4.7915-3.404-7.77164-7.535-7.77164-4.247 0-7.738 3.15524-7.738 7.77164 0 4.6455 3.491 7.772 7.709 7.772 3.345 0 5.993-1.4903 7.244-4.5872l-4.132-.8475c-.785 1.432-2.036 1.695-3.112 1.695-1.571 0-2.764-1.0813-3.142-2.8342h10.706zm-7.535-3.9736c1.338 0 2.502.7308 2.938 2.3082h-6.022c.436-1.4899 1.775-2.3082 3.084-2.3082zm8.96 7.4798c.495 3.0094 3.433 4.2658 6.866 4.2658 3.84 0 6.632-1.6945 6.632-4.9377 0-2.1623-1.28-3.8277-4.043-4.4117l-3.433-.7016c-.931-.2043-1.105-.6132-1.105-1.0226 0-.5256.407-1.1393 1.658-1.1393 1.425 0 2.298.8179 2.443 1.7237l4.248-.847c-.582-2.5421-2.997-4.20744-6.633-4.20744-3.695 0-6.284 1.95764-6.284 4.96694 0 2.3082 1.542 3.7689 4.248 4.2658l2.967.5845c1.076.2042 1.454.584 1.454 1.0809 0 .6428-.669 1.1684-1.891 1.1684-1.251 0-2.385-.4673-2.589-1.7237zm25.717-.4964c-.611.3506-1.484.584-2.124.584-1.221 0-1.949-.6137-1.949-2.1327v-5.0841h4.306v-3.71053h-4.306v-4.32414h-4.654v4.32414h-2.648v3.71053h2.648v5.5514c0 3.8568 2.182 5.8436 5.818 5.8436 1.658 0 2.851-.4673 3.985-1.0809zm5.411-17.326236c-1.571 0-2.676 1.227266-2.676 2.658766 0 1.48986 1.105 2.60042 2.676 2.60042s2.706-1.11056 2.706-2.60042c0-1.4315-1.135-2.658766-2.706-2.658766zm2.327 6.982906h-4.654v14.66743h4.654zm18.968-.02918h-4.917l-3.491 9.05771-3.52-9.05771h-4.916l6.051 14.69661h4.742zm16.727.02918h-4.654v1.16892c-1.135-1.02302-2.648-1.60703-4.538-1.60703-3.87 0-7.128 3.15524-7.128 7.77164 0 4.6455 3.258 7.772 7.128 7.772 1.89 0 3.403-.5844 4.538-1.607v1.1689h4.654zm-8.233 11.13203c-2.036 0-3.52-1.5195-3.52-3.7985 0-2.2494 1.484-3.7981 3.52-3.7981 1.891 0 3.579 1.5487 3.579 3.7981 0 2.279-1.688 3.7985-3.579 3.7985zm16.262-16.05066h-4.654v19.58606h4.654z"/></g><g clip-rule="evenodd" fill="currentColor" fill-rule="evenodd"><path d="m28.4999 35.3794c.0323.2721.2005.5437.503.8159.0671.0344.1515.1022.2523.2045l.1512.1532c.067.0344.2945.0606.6825.0786.3874.019.6489.0113.7842-.0225.1344.0004.219.0183.2527.0518.0332.0342.1264.0594.2781.0774.1517.0172.3286.0433.5309.0782 1.4161.1069 2.4612.0765 3.1367-.0903.0674-.0331.1687-.0582.3039-.0752.1344-.0162.2697-.0412.4051-.0749.2695-.0324.4467-.0659.5314-.0999.0839-.033.2106-.1009.3801-.202.1346-.0671.2537-.1938.3555-.3803.1018-.1856.1531-.3635.1537-.5336.0005-.1352-.0074-.3474-.023-.6361-.0164-.2878-.0318-.5852-.0473-.8905-.0163-.3053-.032-.5764-.0477-.8143-.0166-.2368-.0239-.3895-.0237-.4579l.0013-.3561c.0001-.0335.084-.0505.2531-.05l1.1129.0041c.3708.0014.7335.0115 1.0876.0294.354.0188.5982.0277.7334.0281.3368.0353.5816.053.7334.0535.1517.0006.3115-.0156.4808-.049.3368-.0323.6911-.0819 1.0629-.1488.371-.0662.5902-.133.6583-.2011l.2031-.2029c.0675-.0673.135-.1688.2035-.3045.1354-.2705.2371-.4395.3054-.5075-.068-.0003-.1012-.0172-.1012-.0514.0003-.0675-.0169-.1017-.05-.1018-.068-.0337-.0503-.1021.0511-.2034l.0504.1019c.0347-.0347.0633-.0551.0861-.062.0281-.3994.064-1.1764.1079-2.3305-.0164.0076-.0443-.0084-.0841-.0491l.0003-.1019c.0002-.0321.0157-.0494.0473-.0505l.0034-.0001.0406.0002.0112-.3052.0069-1.9079c.0018-.4912-.0055-.8904-.021-1.1957-.0163-.3053-.0573-.5424-.1238-.7127-.0675-.1696-.1507-.3226-.2514-.4588-.1008-.1023-.1851-.1788-.2521-.23-.0678-.051-.2193-.128-.4545-.2305-.303-.1362-.5053-.137-.6071-.0022.0336-.0675-.0249-.1019-.1767-.1025-.1517-.0005-.5486.0489-1.1893.1483-.1352.0337-.3542.0585-.6578.074-.3036.0164-.6071.0233-.9107.0221-.4728.0324-.9535.0728-1.4423.122-.4895.0492-.8019.1076-.9366.1747-.068.0339-.0844-.0171-.0499-.1529l.0013-.3561c.0002-.0676-.017-.1018-.0503-.1019-.0338-.0336-.0503-.0932-.05-.1783.0003-.0842.0172-.1438.0513-.178.0333.0002.0509-.0674.0514-.2032l.0005-.1526 1.0725.0039c-.0243-.0011-.0446-.0179-.0606-.0511-.0337-.0677-.0335-.1187.0006-.1527.0333-.0332.0838-.0163.1516.0515.0329.0684.0328.1193-.0006.1526.3368.0013.6743-.0055 1.0118-.0217.3368-.0156.6404-.0232.9107-.0222l1.4165.0052c.2024.0007.4047-.0065.6072-.0232.2024-.016.3367-.0243.4047-.0241.2026-.0668.4556-.1.7592-.0989.2024.0007.4554-.015.759-.0482.3037-.0321.6911-.0817 1.164-.1483.1685.0006.3543-.0321.557-.0997.0331.0001.0672-.0078.1012-.0251.0333-.0166.0673-.0252.1012-.0251l.2024.0008c.2024.0007.3544-.083.4562-.2528.0674-.0673.1014-.0671.1011.0004l-.0003.1017c.0332.0001.1266-.0416.2786-.1261.1521-.0837.3295-.177.5323-.2779.2027-.101.388-.2021.5575-.3032.1688-.1011.2703-.1683.3043-.2025.0674-.0674.1269-.1178.1776-.1519.0507-.0332.0927-.0673.1268-.1013.0675-.0673.1351-.1688.2035-.3045.0677-.1349.1353-.2364.2034-.3045.0674-.0674.1352-.2198.204-.4572.0681-.2366.1361-.4574.2048-.6607.0681-.2708.1045-.9321.1083-1.9838l.0033-.9157c.0353-.5762.0543-1.0429.0557-1.3989l.0035-.9667c.0009-.2877.0016-.4659.0019-.5341l.0008-.2545c.0003-.0676.0085-.1351.0261-.2033.0168-.0676.0256-.1185.0258-.1525.0338-.1694.0605-.5596.0801-1.1701.0188-.6104.0292-1.05067.0301-1.32257l.305-.4059.0069-1.93321c.0003-.06759-.0335-.13533-.1005-.20395-.0677-.03371-.0676-.05117.0002-.05093.0672.00024.1014-.0251.1016-.07587l.0057-1.60266c.0011-.30524-.0322-.52561-.0989-.66173-.0674-.13533-.0995-.45827-.0976-.96706-.0325-.40702-.0569-.66947-.073-.78885-.0169-.11851-.0586-.22914-.1254-.33107-.0676-.06783-.1006-.13557-.1004-.20387.0004-.10169-.1177-.22068-.3529-.35745-.1688-.10241-.3281-.17055-.4797-.20522-.1516-.03395-.4472-.08599-.8847-.15589-.068-.00024-.1351-.03395-.202-.10257-.135-.06798-.3878-.10313-.7585-.10441-.5737-.03562-1.2646-.05562-2.0739-.05857-.8094-.00287-1.4847.02893-2.024.09452-.5059.06647-.9867.1068-1.4421.12194-.4553.01578-.8348.02239-1.1384.02136-.3714-.00144-.7928.00573-1.2647.02064-.4727.01594-.936.02207-1.3913.0204-.4553-.00159-.8773-.011-1.2647-.03005-.388-.01809-.6496-.02765-.7839-.02821-.3033-.03451-.4804-.0526-.531-.05284-.0507-.00016-.0759.03387-.0762.10146-.0004.13596-.0685.13572-.2024-.0008-.0678-.06774-.1601-.10225-.2778-.10273l-1.8465-.0067c-.3035-.00103-.5234.01563-.6579.04854-.3377.06711-.6075.09954-.8097.09875-.2024-.00072-.3037.03307-.3039.10066-.0002.06838-.0178.10177-.051.10161-.034-.00008-.0505-.01697-.0504-.05109.0001-.03339-.0844-.05124-.2528-.05188-.5398-.00191-.9455.28516-1.2172.86058-.0341.06815-.0684.12696-.1017.17757-.0342.05085-.0685.1103-.1019.17781-.0684.13564-.1023.28819-.1028.45747-.0709.7804-.132 1.54327-.1854 2.28877-.0532.74638-.0801 1.20416-.0807 1.37344-.0019.54291-.0206.88226-.0543 1.01727-.0007.17016.0157.28867.0494.35641.0327.10178.0325.15279-.0006.15263-.0339-.00016-.051.10145-.0518.30508-.0006.1701-.0103.4579-.0284.8647-.0189.40697-.0448.62787-.0782.66117l-.0038 1.0684c.0308.6789.0454 1.4421.0424 2.2896-.0031.8482-.0229 1.5263-.058 2.0348l-.0047 1.3227c-.0697.4752-.0732 1.4419-.0105 2.9l-.0068 1.8825c-.0005.136.0159.2036.0499.2038.0332.0001.0504.0176.0504.0509-.0002.0343-.0342.0509-.1014.0506-.0339-.0001-.0508.0507-.0512.1524l-.0021.6105c-.0007.1702.0157.2545.0497.2546.0672.0002.0671.0176-.0002.0509-.0683.0682-.0684.1014-.0004.1018.0333 0 .0332.0175-.0002.0508-.034.034-.0601.2542-.0783.661-.0189.4071-.0286.9245-.0308 1.5517l-.0073 2.0351c-.0027.7297-.0052 1.4419-.0076 2.1368-.0026.6956.003 1.3228.0183 1.8825.0315 1.2012.0634 2.3843.063 3.587zm.2493-27.06552.0004-.1017c.0004-.13525.0336-.13509.1011.0004-.0003.06838-.0178.10161-.0509.10145zm.1879 18.06202-.0004.1016-.0505-.0002c-.0341 0-.0593-.0256-.0757-.0765-.0172-.0509-.0083-.0931.0258-.127.0674-.0674.1012-.0331.1008.1021zm18.6873-5.6302c.0002-.0334.0335-.0507.1015-.0505l.1011.0003c-.0001.0341-.0255.0761-.0763.1269s-.0761.0593-.076.0253l-.0508.0507zm1.7831-17.49514c.0332.00008.0504.03435.0501.10201-.0002.06823-.0177.10162-.0509.10146-.034-.00008-.0504-.03355-.0502-.10185.0002-.06759.017-.10178.051-.10162zm-6.5245 27.74944c.0167.0213.0334.0571.05.1075l.0002-.0509c.0328.136.0157.221-.0515.2543-.068.0338-.1011-.0004-.1008-.1023.0003-.1053.0106-.1748.0314-.2086z"/><path d="m.499881 76.3794c.032299.2721.2005.5437.502999.8159.0671.0344.1515.1022.2523.2045l.1512.1532c.067.0344.2945.0606.6825.0786.3874.019.6489.0113.7842-.0225.1344.0004.219.0183.2527.0518.0332.0342.1264.0594.2781.0774.1517.0172.3286.0433.5309.0782 1.4161.1069 2.4612.0765 3.1367-.0903.0674-.0331.1687-.0582.3039-.0752.1344-.0162.2697-.0412.4051-.0749.2695-.0324.4467-.0659.5314-.0999.0839-.033.2106-.1009.3801-.202.1346-.0671.2537-.1938.3555-.3803.1018-.1856.1531-.3635.1537-.5336.0005-.1352-.0074-.3474-.023-.6361-.0164-.2878-.0318-.5852-.0473-.8905-.0163-.3053-.032-.5764-.0477-.8143-.0166-.2368-.0239-.3895-.0237-.4579l.0013-.3561c.0001-.0335.084-.0505.2531-.05l1.11292.0041c.3708.0014.7335.0115 1.0876.0294.354.0188.5982.0277.7334.0281.3368.0353.5816.053.7334.0535.1517.0006.3115-.0156.4808-.049.3368-.0323.6911-.0819 1.0629-.1488.371-.0662.5902-.133.6583-.2011l.2031-.2029c.0675-.0673.135-.1688.2035-.3045.1354-.2705.2371-.4395.3054-.5075-.068-.0003-.1012-.0172-.1012-.0514.0003-.0675-.0169-.1017-.05-.1018-.068-.0337-.0503-.1021.0511-.2034l.0504.1019c.0347-.0347.0633-.0551.0861-.062.0281-.3994.064-1.1764.1079-2.3305-.0164.0076-.0443-.0084-.0841-.0491l.0003-.1019c.0002-.0321.0157-.0494.0473-.0505l.0034-.0001.0406.0002.0112-.3052.0069-1.9079c.0018-.4912-.0055-.8904-.021-1.1957-.0163-.3053-.0573-.5424-.1238-.7127-.0675-.1696-.1507-.3226-.2514-.4588-.1008-.1023-.1851-.1788-.2521-.23-.0678-.051-.2193-.128-.4545-.2305-.303-.1362-.5053-.137-.6071-.0022.0336-.0675-.0249-.1019-.1767-.1025-.1517-.0005-.5486.0489-1.1893.1483-.1352.0337-.3542.0585-.6578.074-.3036.0164-.6071.0233-.9107.0221-.4728.0324-.9535.0728-1.44232.122-.4895.0492-.8019.1076-.9366.1747-.068.0339-.0844-.0171-.0499-.1529l.0013-.3561c.0002-.0676-.017-.1018-.0503-.1019-.0338-.0336-.0503-.0932-.05-.1783.0003-.0842.0172-.1438.0513-.178.0333.0002.0509-.0674.0514-.2032l.0005-.1526 1.07252.0039c-.0243-.0011-.0446-.0179-.0606-.0511-.03372-.0677-.03352-.1187.0006-.1527.0333-.0332.0838-.0163.1516.0515.0329.0684.0328.1193-.0006.1526.3368.0013.6743-.0055 1.0118-.0217.3368-.0156.6404-.0232.9107-.0222l1.4165.0052c.2024.0007.4047-.0065.6072-.0232.2024-.016.3367-.0243.4047-.0241.2026-.0668.4556-.1.7592-.0989.2024.0007.4554-.015.759-.0482.3037-.0321.6911-.0817 1.164-.1483.1685.0006.3543-.0321.557-.0997.0331.0001.0672-.0078.1012-.0251.0333-.0166.0673-.0252.1012-.0251l.2024.0008c.2024.0007.3544-.083.4562-.2528.0674-.0673.1014-.0671.1011.0004l-.0003.1017c.0332.0001.1266-.0416.2786-.1261.1521-.0837.3295-.177.5323-.2779.2027-.101.388-.2021.5575-.3032.1688-.1011.2703-.1683.3043-.2025.0674-.0674.1269-.1178.1776-.1519.0507-.0332.0927-.0673.1268-.1013.0675-.0673.1351-.1688.2035-.3045.0677-.1349.1353-.2364.2034-.3045.0674-.0674.1352-.2198.204-.4572.0681-.2366.1361-.4574.2048-.6607.0681-.2708.1045-.9321.1083-1.9838l.0033-.9157c.0353-.5762.0543-1.0429.0557-1.3989l.0035-.9667c.0009-.2877.0016-.4659.0019-.5341l.0008-.2545c.0003-.0676.0085-.1351.0261-.2033.0168-.0676.0256-.1185.0258-.1525.0338-.1694.0605-.5596.0801-1.1701.0188-.6104.0292-1.0507.0301-1.3226l.305-.4059.0069-1.9332c.0003-.0676-.0335-.1353-.1005-.2039-.0677-.0337-.0676-.0512.0002-.051.0672.0003.1014-.0251.1016-.0758l.0057-1.6027c.0011-.3052-.0322-.5256-.0989-.6617-.0674-.1353-.0995-.4583-.0976-.9671-.0325-.407-.0569-.6694-.073-.7888-.0169-.1185-.0586-.2292-.1254-.3311-.0676-.0678-.1006-.1356-.1004-.2039.0004-.1017-.1177-.2206-.3529-.3574-.1688-.1024-.3281-.1706-.4797-.2052-.1516-.034-.4472-.086-.8847-.1559-.068-.0003-.1351-.034-.202-.1026-.135-.068-.3878-.1031-.7585-.1044-.5737-.0356-1.2646-.0556-2.0739-.0586-.8094-.0028-1.4847.029-2.024.0945-.5059.0665-.9867.1068-1.4421.122-.4553.0158-.8348.0224-1.1384.0213-.3714-.0014-.7928.0058-1.2647.0207-.4727.0159-.936.0221-1.39132.0204-.4553-.0016-.8773-.011-1.2647-.0301-.388-.0181-.6496-.0276-.7839-.0282-.3033-.0345-.4804-.0526-.531-.0528-.0507-.0002-.0759.0339-.0762.1014-.0004.136-.0685.1358-.2024-.0008-.0678-.0677-.1601-.1022-.2778-.1027l-1.8465-.0067c-.3035-.001-.5234.0156-.6579.0486-.3377.0671-.6075.0995-.8097.0987-.2024-.0007-.3037.0331-.3039.1007-.0002.0683-.0178.1017-.051.1016-.034-.0001-.0505-.017-.0504-.0511.0001-.0334-.0844-.0513-.2528-.0519-.5398-.0019-.9455.2852-1.2172.8606-.0341.0681-.0684.1269-.1017.1776-.0342.0508-.0685.1103-.1019.1778-.0684.1356-.1023.2882-.1028.4574-.070899.7804-.131999 1.5433-.185398 2.2888-.053199.7464-.080101 1.2042-.080699 1.3734-.001904.543-.0206.8823-.054299 1.0173-.000702.1702.015694.2887.049397.3564.032699.1018.032501.1528-.000599.1527-.033901-.0002-.051003.1014-.0518.305-.000603.1701-.010304.4579-.0284.8647-.018902.407-.0448.6279-.078198.6612l-.003803 1.0684c.0308.6789.045399 1.4421.0424 2.2896-.003101.8482-.022899 1.5263-.057998 2.0348l-.0047 1.3227c-.069702.4752-.073204 1.4419-.010502 2.9l-.006798 1.8825c-.000503.136.0159.2036.0499.2038.0332.0001.0504.0176.0504.0509-.000202.0343-.034203.0509-.101402.0506-.033901-.0001-.050801.0507-.051197.1524l-.002102.6105c-.000702.1702.015701.2545.049701.2546.0672.0002.067097.0176-.000202.0509-.068302.0682-.068401.1014-.0004.1018.033298 0 .033199.0175-.000199.0508-.034.034-.0601.2542-.0783.661-.018902.4071-.028603.9245-.0308 1.5517l-.007301 2.0351c-.002701.7297-.0052 1.4419-.007599 2.1368-.002602.6956.002998 1.3228.018299 1.8825.031543 1.2012.063378 2.3843.063 3.587zm.249302-27.0655.0004-.1017c.000397-.1353.0336-.1351.101101.0004-.000301.0684-.017803.1016-.050903.1014zm.1879 18.062-.0004.1016-.050499-.0002c-.034104 0-.059304-.0256-.075703-.0765-.017201-.0509-.008301-.0931.025803-.127.067398-.0674.101196-.0331.100799.1021zm18.687317-5.6302c.0002-.0334.0335-.0507.1015-.0505l.1011.0003c-.0001.0341-.0255.0761-.0763.1269s-.0761.0593-.076.0253l-.0508.0507zm1.7831-17.4951c.0332 0 .0504.0343.0501.102-.0002.0682-.0177.1016-.0509.1014-.034 0-.0504-.0335-.0502-.1018.0002-.0676.017-.1018.051-.1016zm-6.5245 27.7494c.0167.0213.0334.0571.05.1075l.0002-.0509c.0328.136.0157.221-.0515.2543-.068.0338-.1011-.0004-.1008-.1023.0003-.1053.0106-.1748.0314-.2086z"/><path d="m53.4999 35.3794c.0323.2721.2005.5437.503.8159.0671.0344.1515.1022.2523.2045l.1512.1532c.067.0344.2945.0606.6825.0786.3874.019.6489.0113.7842-.0225.1344.0004.219.0183.2527.0518.0332.0342.1264.0594.2781.0774.1517.0172.3286.0433.5309.0782 1.4161.1069 2.4612.0765 3.1367-.0903.0674-.0331.1687-.0582.3039-.0752.1344-.0162.2697-.0412.4051-.0749.2695-.0324.4467-.0659.5314-.0999.0839-.033.2106-.1009.3801-.202.1346-.0671.2537-.1938.3555-.3803.1018-.1856.1531-.3635.1537-.5336.0005-.1352-.0074-.3474-.023-.6361-.0164-.2878-.0318-.5852-.0473-.8905-.0163-.3053-.032-.5764-.0477-.8143-.0166-.2368-.0239-.3895-.0237-.4579l.0013-.3561c.0001-.0335.084-.0505.2531-.05l1.1129.0041c.3708.0014.7335.0115 1.0876.0294.354.0188.5982.0277.7334.0281.3368.0353.5816.053.7334.0535.1517.0006.3115-.0156.4808-.049.3368-.0323.6911-.0819 1.0629-.1488.371-.0662.5902-.133.6583-.2011l.2031-.2029c.0675-.0673.135-.1688.2035-.3045.1354-.2705.2371-.4395.3054-.5075-.068-.0003-.1012-.0172-.1012-.0514.0003-.0675-.0169-.1017-.05-.1018-.068-.0337-.0503-.1021.0511-.2034l.0504.1019c.0347-.0347.0633-.0551.0861-.062.0281-.3994.064-1.1764.1079-2.3305-.0164.0076-.0443-.0084-.0841-.0491l.0003-.1019c.0002-.0321.0157-.0494.0473-.0505l.0034-.0001.0406.0002.0112-.3052.0069-1.9079c.0018-.4912-.0055-.8904-.021-1.1957-.0163-.3053-.0573-.5424-.1238-.7127-.0675-.1696-.1507-.3226-.2514-.4588-.1008-.1023-.1851-.1788-.2521-.23-.0678-.051-.2193-.128-.4545-.2305-.303-.1362-.5053-.137-.6071-.0022.0336-.0675-.0249-.1019-.1767-.1025-.1517-.0005-.5486.0489-1.1893.1483-.1352.0337-.3542.0585-.6578.074-.3036.0164-.6071.0233-.9107.0221-.4728.0324-.9535.0728-1.4423.122-.4895.0492-.8019.1076-.9366.1747-.068.0339-.0844-.0171-.0499-.1529l.0013-.3561c.0002-.0676-.017-.1018-.0503-.1019-.0338-.0336-.0503-.0932-.05-.1783.0003-.0842.0172-.1438.0513-.178.0333.0002.0509-.0674.0514-.2032l.0005-.1526 1.0725.0039c-.0243-.0011-.0446-.0179-.0606-.0511-.0337-.0677-.0335-.1187.0006-.1527.0333-.0332.0838-.0163.1516.0515.0329.0684.0328.1193-.0006.1526.3368.0013.6743-.0055 1.0118-.0217.3368-.0156.6404-.0232.9107-.0222l1.4165.0052c.2024.0007.4047-.0065.6072-.0232.2024-.016.3367-.0243.4047-.0241.2026-.0668.4556-.1.7592-.0989.2024.0007.4554-.015.759-.0482.3037-.0321.6911-.0817 1.164-.1483.1685.0006.3543-.0321.557-.0997.0331.0001.0672-.0078.1012-.0251.0333-.0166.0673-.0252.1012-.0251l.2024.0008c.2024.0007.3544-.083.4562-.2528.0674-.0673.1014-.0671.1011.0004l-.0003.1017c.0332.0001.1266-.0416.2786-.1261.1521-.0837.3295-.177.5323-.2779.2027-.101.388-.2021.5575-.3032.1688-.1011.2703-.1683.3043-.2025.0674-.0674.1269-.1178.1776-.1519.0507-.0332.0927-.0673.1268-.1013.0675-.0673.1351-.1688.2035-.3045.0677-.1349.1353-.2364.2034-.3045.0674-.0674.1352-.2198.204-.4572.0681-.2366.1361-.4574.2048-.6607.0681-.2708.1045-.9321.1083-1.9838l.0033-.9157c.0353-.5762.0543-1.0429.0557-1.3989l.0035-.9667c.0009-.2877.0016-.4659.0019-.5341l.0008-.2545c.0003-.0676.0085-.1351.0261-.2033.0168-.0676.0256-.1185.0258-.1525.0338-.1694.0605-.5596.0801-1.1701.0188-.6104.0292-1.05067.0301-1.32257l.305-.4059.0069-1.93321c.0003-.06759-.0335-.13533-.1005-.20395-.0677-.03371-.0676-.05117.0002-.05093.0672.00024.1014-.0251.1016-.07587l.0057-1.60266c.0011-.30524-.0322-.52561-.0989-.66173-.0674-.13533-.0995-.45827-.0976-.96706-.0325-.40702-.0569-.66947-.073-.78885-.0169-.11851-.0586-.22914-.1254-.33107-.0676-.06783-.1006-.13557-.1004-.20387.0004-.10169-.1177-.22068-.3529-.35745-.1688-.10241-.3281-.17055-.4797-.20522-.1516-.03395-.4472-.08599-.8847-.15589-.068-.00024-.1351-.03395-.202-.10257-.135-.06798-.3878-.10313-.7585-.10441-.5737-.03562-1.2646-.05562-2.0739-.05857-.8094-.00287-1.4847.02893-2.024.09452-.5059.06647-.9867.1068-1.4421.12194-.4553.01578-.8348.02239-1.1384.02136-.3714-.00144-.7928.00573-1.2647.02064-.4727.01594-.936.02207-1.3913.0204-.4553-.00159-.8773-.011-1.2647-.03005-.388-.01809-.6496-.02765-.7839-.02821-.3033-.03451-.4804-.0526-.531-.05284-.0507-.00016-.0759.03387-.0762.10146-.0004.13596-.0685.13572-.2024-.0008-.0678-.06774-.1601-.10225-.2778-.10273l-1.8465-.0067c-.3035-.00103-.5234.01563-.6579.04854-.3377.06711-.6075.09954-.8097.09875-.2024-.00072-.3037.03307-.3039.10066-.0002.06838-.0178.10177-.051.10161-.034-.00008-.0505-.01697-.0504-.05109.0001-.03339-.0844-.05124-.2528-.05188-.5398-.00191-.9455.28516-1.2172.86058-.0341.06815-.0684.12696-.1017.17757-.0342.05085-.0685.1103-.1019.17781-.0684.13564-.1023.28819-.1028.45747-.0709.7804-.132 1.54327-.1854 2.28877-.0532.74638-.0801 1.20416-.0807 1.37344-.0019.54291-.0206.88226-.0543 1.01727-.0007.17016.0157.28867.0494.35641.0327.10178.0325.15279-.0006.15263-.0339-.00016-.051.10145-.0518.30508-.0006.1701-.0103.4579-.0284.8647-.0189.40697-.0448.62787-.0782.66117l-.0038 1.0684c.0308.6789.0454 1.4421.0424 2.2896-.0031.8482-.0229 1.5263-.058 2.0348l-.0047 1.3227c-.0697.4752-.0732 1.4419-.0105 2.9l-.0068 1.8825c-.0005.136.0159.2036.0499.2038.0332.0001.0504.0176.0504.0509-.0002.0343-.0342.0509-.1014.0506-.0339-.0001-.0508.0507-.0512.1524l-.0021.6105c-.0007.1702.0157.2545.0497.2546.0672.0002.0671.0176-.0002.0509-.0683.0682-.0684.1014-.0004.1018.0333 0 .0332.0175-.0002.0508-.034.034-.0601.2542-.0783.661-.0189.4071-.0286.9245-.0308 1.5517l-.0073 2.0351c-.0027.7297-.0052 1.4419-.0076 2.1368-.0026.6956.003 1.3228.0183 1.8825.0315 1.2012.0634 2.3843.063 3.587zm.2493-27.06552.0004-.1017c.0004-.13525.0336-.13509.1011.0004-.0003.06838-.0178.10161-.0509.10145zm.1879 18.06202-.0004.1016-.0505-.0002c-.0341 0-.0593-.0256-.0757-.0765-.0172-.0509-.0083-.0931.0258-.127.0674-.0674.1012-.0331.1008.1021zm18.6873-5.6302c.0002-.0334.0335-.0507.1015-.0505l.1011.0003c-.0001.0341-.0255.0761-.0763.1269s-.0761.0593-.076.0253l-.0508.0507zm1.7831-17.49514c.0332.00008.0504.03435.0501.10201-.0002.06823-.0177.10162-.0509.10146-.034-.00008-.0504-.03355-.0502-.10185.0002-.06759.017-.10178.051-.10162zm-6.5245 27.74944c.0167.0213.0334.0571.05.1075l.0002-.0509c.0328.136.0157.221-.0515.2543-.068.0338-.1011-.0004-.1008-.1023.0003-.1053.0106-.1748.0314-.2086z"/><path d="m67.0065 77.7533c-.0684.119-.3217.2111-.7598.277-.0682.034-.1607.0591-.2785.0753-.1186.017-.2112.0422-.2785.0754-.3721.1337-.5569.1163-.5562-.053.0003-.1017-.0171-.1527-.0501-.1527-.1012-.0004-.152.0502-.1523.152-.0004.1016-.0686.1524-.203.1518l-.354-.0012c-.1013-.0003-.2197-.0349-.3538-.1031-.135-.068-.2866-.1029-.455-.1034-.169-.0339-.2867-.0518-.3539-.0522-.0679-.0002-.2364.0167-.506.0491l-.7588-.0028c-.3037.0331-.5907.0576-.8604.0732-.2703.0165-.4893.0403-.6578.0739-.2365.0325-.4223.0319-.5566-.002-.0677-.0344-.1855-.0516-.3538-.0521-.1352-.0005-.2868-.052-.4548-.1543-.1687-.1024-.2862-.1872-.3532-.2558-.0678-.0678-.1003-.2206-.0995-.4582.0004-.1018-.008-.1948-.0243-.2799-.0171-.0843-.0248-.144-.0247-.1782-.0338-.0334-.0672-.2203-.0991-.56-.0329-.3387-.0485-.5932-.0479-.7634l.0016-.4578c-.0329-.2711-.0481-.644-.0464-1.1194.0017-.4747.0198-.8982.0551-1.2717.0353-.5763.0623-1.0341.0809-1.3734.0177-.3385.0273-.5421.0275-.6105l.0007-.2035c.0007-.2034-.007-.4746-.0223-.8141-.0162-.3387-.0408-.5422-.0738-.6108-.0336-.1017-.1006-.161-.2016-.1787-.1012-.0171-.3541-.0268-.7588-.0283-.1691-.0006-.3715-.0094-.607-.0276-.2362-.0175-.4385-.0438-.6067-.0786-.1691-.0339-.3208-.052-.4552-.0525l-3.0353-.0111c-.2024-.0007-.3376.0164-.4048.0495-.1354.0679-.2367.0929-.3038.0752-.0679-.0169-.1856-.077-.3535-.1793-.1689-.0682-.2776-.1616-.3278-.2811-.0502-.1187-.1088-.3135-.175-.5858-.0337-.0677-.0587-.1695-.0748-.3054-.0168-.1353-.0417-.2545-.0746-.3565-.0334-.1695-.0487-.4834-.0471-.9413l.0173-4.8078c.0011-.3053.0348-.4578.1028-.4575.0333.0001.0333-.0167.0001-.0509-.0337-.0336-.05-.1528-.0492-.3564.0007-.2034-.0145-.814-.0439-1.8317.0007-.2369-.0069-.5168-.0224-.8395-.0162-.322-.0231-.6018-.0223-.8396l.0137-3.7902c.0023-.6614.0126-1.3054.0322-1.9333.0189-.6271.0296-1.178.0313-1.6533l.0092-2.5439c.0341-.271.0525-.5594.0536-.8647l.0097-2.6963.2031-.2029c.1016-.1013.2362-.1852.4056-.2529.0672.0003.1265-.0074.1771-.0247.0508-.0166.0927-.0252.1266-.0251.1346-.033.4556-.0659.9616-.0982.5059-.0316 1.0538-.0471 1.6443-.0449l1.7452.0063c.5731.0021 1.0118.0212 1.3152.0558.1683.0005.4718.0104.9105.0286.4377.0192.9104.0288 1.4163.0307.5059.0017.9778-.0044 1.4166-.0203.4379-.0152.7589-.0226.9612-.0219.1343.0005.472-.0063 1.0119-.0218.5391-.0148 1.1209-.0213 1.7453-.0191.6236.0023 1.2054.0131 1.7452.0318.5391.0195.8931.0288 1.0622.0294.1344.0004.4632.0103.9865.0289.5224.0195 1.0876.0294 1.6946.0316 1.5508.0056 2.3775.0261 2.4786.06.1681.069.3535.1626.5554.2818.2019.1199.336.2134.4038.2813.0666.1362.2177.3235.4533.5613.2684.2728.4532.5788.5531.9177.0999.34.182.8323.2476 1.4765l-.003.8138.202.1027c-.0003.1017-.0099.3139-.0275.6358-.0186.3227-.0363.6532-.0542.9919-.0187.3393-.0454.7805-.0806 1.3225l-.0013.3562c-.0006.1701-.0104.4412-.0283.8138-.0187.3736-.0454.763-.08 1.1699-.0355.4069-.071.8138-.1057 1.2208-.0354.4068-.0704.7119-.1044.9153-.0694.3733-.1124.6952-.1299.9661-.0184.2719-.0445.5087-.0785.7121-.0007.2035-.0357.4753-.1041.8136-.0005.136-.0098.2972-.027.4833-.0181.1866-.0267.3647-.0273.534-.0005.136-.01.3816-.0278.7377-.0188.356-.028.7208-.0293 1.0937-.0014.3737.0135.8483.0454 1.4248.033.0684.0494.3141.0479.7378l-.0049 1.3991c-.0019.5087-.0124.9842-.0306 1.4245-.0189.4411-.045.6787-.0783.712l-.0003.1017c.0329.0343.0495.2633.048.6872-.0015.4243-.0198.6532-.053.6865-.068-.0003-.0681.0339-.0004.1017.067.0687.075.2293.0236.4834-.0515.2542-.1282.4663-.23.6351-.136.2031-.2037.3387-.2039.4063-.0685.1699-.1868.3046-.3555.4059-.1015.0678-.2027.1009-.3038.1005-.1013-.0003-.3209-.0178-.6575-.0533l-.5058-.0527-.1001-.3056-.0513.2032c-.0344.1359-.1193.2207-.2538.2536-.1012-.0003-.253.0333-.4556.1001-.3719.1004-.726.0991-1.0624-.0039-.202-.0683-.3711-.103-.5055-.1035-.1012-.0004-.3207-.0346-.6573-.1042-.3372-.0689-.6066-.1206-.8089-.1557-.2021-.0339-.523-.0527-.9609-.0542l-.8094-.0029-.0006.1526c-.0002.0682.0323.2719.0989.6109.0328.1359.0495.3482.0484.636l-.0081 2.264c.0326.1702.0571.3905.0735.6617.0156.2718.0312.5342.0476.7888.0159.2544.0236.4754.023.6613l-.0012.3308c-.1015.1015-.1193.2206-.0519.356.0669.0687.0999.3906.0978.9669.031.5774.0132.9247-.0544 1.0429zm-1.6648-1.3035c0 .0343.0671.0432.2023.0262.1345-.0161.2865-.0577.4558-.1255l.1523-.152-.0994-.5092-.203.2028-.1518-.0006c-.068-.0003-.1187.0171-.1519.0504-.1357.1353-.1359.1696-.0004.1017.0332-.0334.0332-.0166-.0002.0509l-.0006.1527c-.0002.0682-.0343.1015-.1015.1013-.068-.0003-.1013.0337-.1016.1013zm9.9181-28.8619c.0005-.1352-.0166-.1862-.0501-.1529-.0341.0684-.0509.1358-.0511.2034-.0003.0682.0161.1018.0501.1019l-.0002.051c.0333 0 .0509-.0675.0513-.2034z"/><path d="m25.1834 45.9301c.0009-.2368.0348-.4236.1033-.5593.0333-.0674.1096-.1689.2286-.3044.1184-.1347.2539-.279.4063-.431.1523-.1522.2959-.2867.4315-.4054.1348-.1181.2195-.1773.2535-.1772l.1012.0004.2028-.101c.0673-.0332.152-.067.2532-.1008.1013-.0331.2027-.0836.3041-.1515.1014-.0673.2194-.1177.3547-.1513.1346-.033.2358-.0668.3039-.1008.0673-.0331.1599-.067.2786-.1007.118-.033.2104-.0668.2786-.1006.2699-.1009.5397-.1842.8104-.2516.2696-.0667.4381-.0827.5059-.049.1344.0005.2531-.0158.3544-.0496.1685-.0328.2696-.0325.3035.0012.067.0686.1517.0179.2534-.1518.0334-.0334.1435-.067.3293-.1005.1851-.0327.3962-.0661.6327-.0995.1683.0005.3543-.0321.5568-.0997.2698-.0666.5901-.1164.9617-.1491.3709-.0321.5899-.0489.6578-.0486l.5059.0019c.2356-.0326.3543-.0321.3542.0012-.0004.102.0834.1022.2529.001.0333-.0332.0761-.0585.1267-.0758.0507-.0165.1433-.025.2783-.0245.1344.0005.3202-.0068.5566-.0234.2356-.0158.5732-.0401 1.0121-.0726l.607.0022c.0331.0001.2024-.0071.506-.0236.3036-.0155.6324-.0232.9865-.0219.3542.0014.7082.0115 1.0623.0294.3541.0188.5982.0276.7334.0282.1682.0346.3366.0607.5057.078.1682.0181.3034.0265.4045.0269l1.8718.0069c.4719.0017.7839.0203.9356.0543.1517.0346.2274.0859.2272.1535-.0002.0341.0165.0175.0508-.0507.0334-.0675.1015-.1094.2027-.1265.1014-.0163.3368-.0068.7082.028.2694.0352.4375.0867.5053.1545.0331.0343.0835.0512.1515.0513l.4044.1033c.1341.0689.2352.1201.3029.1537.0671.0345.1514.1198.2522.2553.1674.2383.2514.3913.2512.4588.0326.1703.0323.2545-.0009.2544-.1011-.0004-.0849.0681.0499.2038.0328.0684.0499.1703.0494.3054l-.0029.8139c-.0366.7123-.0553 1.306-.0569 1.7806-.0018.4754.0295 1.001.0954 1.5775.0322.3053.0563.5941.0728.8652.0156.2719.0236.458.0232.5597-.0008.2035.0317.4414.0987.7126.0655.4757.1133 1.2215.1437 2.2391.0295 1.0177.0256 2.1036-.0117 3.2561l-.0092 2.5438c-.0016.4412.0044.9588.0198 1.5519.0144.5939.0386.9079.0724.9415l-.0033.9158c-.0028.7806-.0732 1.4242-.2093 1.9325-.0686.2032-.1029.475-.1042.8136-.0363.6787-.1733 1.1871-.4101 1.5249-.0683.068-.127.1609-.1781.2791-.051.1191-.1106.212-.1781.2792-.2037.3728-.5079.5411-.9124.5054-.1011-.0004-.2275-.0087-.3792-.0269-.1518-.0172-.2957-.0263-.4301-.0269l-.7587-.0027c-.1012-.0004-.1515-.0515-.1512-.1532-.0005.1358-.0686.1865-.2029.1519l-1.3406-.0049c-.1517-.0006-.245-.0177-.278-.0519-.034-.0336-.0678-.0512-.1011-.0513-.4048.0328-.7171.0483-.936.0475-.2197-.0008-.43-.0095-.6322-.0278-.2024-.0174-.3209-.0266-.3541-.0268-.068-.0002-.1186.0171-.152.0505-.034.034-.2024.0334-.5059-.0018-.169-.0342-.3284-.0601-.4801-.0782-.1518-.0172-.2616-.0263-.3288-.0266-.068-.0002-.1011-.0338-.1009-.1021.0002-.0676-.017-.1018-.0502-.1019-.034-.0001-.0507.0339-.0509.1015-.0002.0342-.22.0501-.6578.0485l-.5566-.002c-.1011-.0004-.2196-.0343-.3536-.103-.3711-.1365-.5729-.2899-.6054-.4601.0002-.0676-.0336-.1353-.1005-.2039-.0677-.0679-.1006-.1697-.1001-.3057.0002-.0334-.0082-.1351-.0242-.3053-.0168-.1693-.0241-.3388-.0235-.5089.0006-.1693-.0074-.3306-.0235-.4833-.0169-.1527-.0244-.2457-.0242-.2801.0003-.1016.0089-.3052.0273-.6102.0179-.3052.0356-.6359.0542-.992.0179-.3561.0445-.7035.0797-1.0426.0344-.3386.0526-.5595.0529-.6613.0339-.1692.0602-.4403.0789-.8136.0179-.3729.028-.7457.0294-1.1193.0359-.7797.064-1.5595.0842-2.3401.0193-.7798.0643-1.5936.1353-2.4415.1072-1.6611.1111-2.747.0116-3.2562-.0671-.2036-.1173-.339-.1502-.4075-.0337-.0677-.0841-.1354-.1511-.2041-.2015-.2042-.4376-.2726-.7074-.206-.2366.0674-.4237.4395-.5604 1.1172-.0003.0683-.0093.1271-.026.178-.0176.0508-.0257.0937-.0258.127l-.0021.5597c-.0009.2719-.0359.5771-.1043.9154-.0354.3394-.0531.6787-.0544 1.0174-.0012.3394-.0207.9499-.0572 1.8314-.0403 1.7639-.1105 2.6285-.2116 2.5938-.0341-.0001-.0508.0341-.0509.1016-.0004.0685.0328.1019.1007.1022.0333.0001.0501.1362.0492.4071l-.0063 1.7298c-.001.2719-.0188.407-.052.4069-.0341.034-.0343.0682-.0004.1018.0672.0002.1005.2038.099.6108.0311.5772.0633 1.0941.0956 1.5521.0316.458.0645.7378.098.8399.0667.1703.1164.4161.1492.7382.0321.3229.0149.4834-.0523.4832l-.0001.0508c-.0002.0342.0163.0509.0503.0511l.0504.051c.0331.0343.0503.0852.0501.1529-.0002.0682.0322.2377.0993.509.0663.2379.1581.4507.2759.6371.1172.1872.2597.3149.4287.3831.1341.0688.2185.1025.2526.1026l.1011.0004c.1011.0003.286.0694.5557.2056.067.0685.1846.1024.3538.1029.2022.0693.3197.1029.3538.1031.2353.0693.4549.1122.6571.1295.2023.0184.4378.0359.708.0536.2695.0184.6323.0277 1.0876.0294l6.3488.0231c.1011.0003.2022.0349.3031.1028.37.2049.6469.5708.8309 1.0969.183.5269.3066 1.3327.3707 2.418l-.0494-.3564c-.0004.102-.0098.3227-.0276.6614-.0187.3393-.0449.6278-.0791.8646l-.0036 1.0176c-.0362.6445-.0798 1.111-.1315 1.3985-.0517.2885-.1624.5337-.3315.7366-.1016.1356-.2208.2711-.3556.4057-.1356.1355-.2371.2026-.3043.2023-.0001.0343-.0176.051-.0507.0508-.0341-.0002-.0681.0172-.1014.0505-.0682.0682-.1354.1012-.2026.101-.1013-.0004-.22.0501-.3548.1513-.1695.1011-.3547.1688-.5571.2015-.2025.0335-.5907.0663-1.1639.0976-.2363-.0009-.5059.007-.8095.0225-.3036.0164-.5565.0234-.7589.0227l-9.0806-.0331c-.3209-.0012-.5818.0153-.7843.048-.2023-.0008-.3628.0074-.4806.0236-.1187.017-.2198.0247-.3036.0243l-4.4771-.0162c-.2364-.0009-.388-.0347-.4549-.1034-.0678-.0337-.3034-.052-.708-.0535-.3036-.0011-.498-.0098-.5817-.0275-.0845-.017-.2108-.0596-.3789-.1287-.3708-.2048-.6051-.5442-.7046-1.0199-.0336-.1019-.0585-.2205-.0746-.3565-.0169-.1352-.0418-.2371-.0748-.3056-.0673-.2036-.0999-.3564-.0995-.4582.0004-.1017-.0332-.2204-.0999-.3565-.0677-.0677-.1091-.1952-.1252-.382-.0166-.1861-.0074-.3133.0267-.3815l.0021-.5597c.0012-.3386.0353-.5761.1038-.7119.0677-.169.1948-.3125.3809-.431.1854-.1179.346-.1768.4812-.1764.3707.0014.674.0876.9097.2577.4038.2392.7906.359 1.1622.3604.1344.0006.3034.0352.5056.1036.3362.1372.6062.2146.8085.2319.2023.0182.4553-.0063.7591-.0736.2359-.0667.4809-.0999.7338-.099.253.001.43.0357.5309.1037.0671.0344.1682.0348.3036.001.2699-.1006.4053-.2019.4057-.3037.0007-.2035-.2513-.4414-.7562-.7151-.1349-.0679-.2524-.136-.3533-.2048-.1011-.068-.1688-.119-.2019-.1533-.0678-.0679-.1767-.119-.3283-.1539-.1517-.0339-.2615-.0342-.3289-.0011-.0339-.0002-.135-.0084-.3034-.0265l-.0088-.0009c-.1662-.0171-.3314-.0341-.4968-.0519-.1691-.0172-.3374-.0433-.5057-.0782-.169-.034-.27-.0686-.3031-.1028-.0338-.0334-.1009-.0513-.2022-.0517-.1011-.0003-.3207-.0519-.657-.155-.3372-.103-.6064-.1881-.8086-.2572-.27-.0687-.4885-.2054-.6561-.4095-.0679-.0337-.1096-.0679-.1261-.1022-.0173-.0334-.0425-.0677-.0756-.102-.0339-.0334-.0503-.0678-.0502-.102l-.2008-.4076c-.1342-.2716-.2008-.4411-.2006-.5096.0003-.0675-.0333-.1694-.1-.3056-.0675-.1354-.1001-.3224-.0992-.5599-.0672-.2374-.1172-.3733-.1503-.4077-.0676-.0679-.1007-.1355-.1005-.2039l.021-5.7998-.0504-.102c-.0336-.0676-.0496-.2371-.0486-.5089.001-.2712.0196-.8473.0567-1.7296.002-.5422.0122-1.1702.0321-1.8824.0191-.7121.0303-1.3901.0327-2.035.0023-.6438-.0045-1.2123-.0192-1.7043-.0156-.4914-.0224-.8055-.022-.9413l.0034-.9158c.0006-.1693-.0075-.3387-.0236-.5089-.0167-.1694-.0241-.2879-.0238-.3562.0009-.2369.0179-.3728.0519-.4069.0337-.1016.0339-.1691.0008-.2034-.0339-.0336-.0499-.1782-.049-.4328l.003-.8394c.0011-.3052.01-.585.0282-.8394.0177-.2543.0435-.398.0776-.4322l.0016-.4578c.0695-.6436.1554-.9994.2568-1.0675.0672-.0331.1015-.0672.1016-.1013.0001-.0335-.0339-.0511-.1011-.0513-.0339-.0002-.0335-.1185.0013-.3561zm2.2825-1.6706c-.068-.0002-.1186.017-.152.0503-.0682.0681-.0177.1017.1515.1023l.0509-.1015.0506.0002c.0001-.0335-.0338-.0511-.101-.0513zm11.6855 28.2284c-.1011-.0339-.1516-.0341-.1517-.0006-.0346.1357.0322.2211.2013.255-.0337-.0676-.0248-.1097.0258-.127.0507-.0164.0924.009.1262.0768-.0002.0342.0165.0342.0505 0l.1012.0004c.1348-.1346.102-.203-.1004-.2037zm7.0153-2.4675c-.0843-.068-.2271-.1192-.4294-.1543-.1351-.0337-.2022-.0339-.2024-.0006-.0001.0342.067.0686.202.1025.0671.0344.1263.0688.1767.1024.0506.0343.0417.0511-.0254.0508-.0681-.0002-.0682.0338-.0004.1017.0329.1018.134.1022.3035.0011l-.0506-.0001c.1015-.0673.1097-.1349.026-.2035z"/></g></svg>