<svg viewBox="0 0 301 143" fill="none" xmlns="http://www.w3.org/2000/svg">
<path d="M47.1751 65.2668C47.0642 64.4342 47.6447 63.7031 48.5249 63.5858C49.3813 63.4716 50.1568 64.022 50.2678 64.8546C50.3851 65.7349 49.8046 66.466 48.9244 66.5833C48.0442 66.7006 47.2925 66.1471 47.1751 65.2668ZM53.1125 76.3879L54.6826 76.1786C54.9267 78.7368 53.19 80.7842 50.4542 81.1489C47.528 81.5389 45.4109 80.0051 45.0969 77.65C44.913 76.2702 45.4602 75.1077 46.7196 73.6566L47.7426 72.4307C48.7688 71.2286 49.0574 70.4879 48.5881 68.0566L49.7538 67.9013C50.4182 70.1613 50.5197 71.2857 49.2492 72.8352L48.1263 74.2197C47.1683 75.3885 46.7163 76.1751 46.8621 77.2694C47.0714 78.8395 48.4496 79.9149 50.3765 79.658C52.1845 79.4171 53.29 78.0833 53.1125 76.3879ZM64.6654 74.7028C59.7172 75.3623 55.5272 71.9016 54.8645 66.9295C54.2018 61.9575 57.3454 57.5677 62.2937 56.9082C67.2419 56.2486 71.4493 59.6587 72.112 64.6307C72.5781 68.1278 71.1458 71.3694 68.5321 73.1947L72.0701 77.7593L70.1908 78.0098L67.0714 74.0432C66.3386 74.3587 65.5218 74.5886 64.6654 74.7028ZM64.453 73.1089C68.4972 72.5699 70.8018 68.9698 70.2564 64.878C69.711 60.7862 66.5503 57.963 62.5061 58.5021C58.4857 59.0379 56.1509 62.5936 56.6963 66.6854C57.2417 70.7772 60.4325 73.6448 64.453 73.1089ZM83.3241 66.6955L82.3285 59.2255L83.97 59.0067L85.641 71.5439L84.0947 71.75L83.7935 69.49C83.3446 71.0267 81.9615 72.2764 80.1297 72.5206C77.5842 72.8598 75.7018 71.6338 75.28 68.4698L74.1925 60.3099L75.8577 60.088L76.8978 67.891C77.237 70.4365 78.6279 71.2438 80.3883 71.0092C82.3866 70.7428 83.6222 68.9317 83.3241 66.6955ZM89.3549 55.3351C89.4532 56.0726 88.9758 56.6689 88.167 56.7767C87.3819 56.8813 86.765 56.4309 86.6667 55.6934C86.5716 54.9797 87.049 54.3834 87.834 54.2788C88.6429 54.171 89.2598 54.6214 89.3549 55.3351ZM90.9132 70.8412L89.2479 71.0631L87.5769 58.526L89.2422 58.304L90.9132 70.8412ZM99.4778 69.9418C95.9569 70.411 93.2736 68.0811 92.744 64.1083C92.2557 60.4447 94.3176 57.3854 97.6482 56.9415C101.217 56.4659 103.932 59.0337 104.182 63.0922L94.4759 64.3859C95.015 67.3406 96.8292 68.9631 99.2796 68.6365C101.373 68.3575 102.669 66.9984 102.807 64.9461L104.448 64.7273C104.248 67.5868 102.356 69.5581 99.4778 69.9418ZM97.7956 58.2293C95.5356 58.5306 94.1732 60.4796 94.3237 63.244L102.293 62.1818C101.776 59.3936 100.103 57.9218 97.7956 58.2293ZM108.489 61.6708L109.383 68.3795L107.717 68.6014L106.046 56.0643L107.593 55.8582L107.973 58.7129C108.582 56.7432 110.279 55.3064 112.349 55.0305L112.581 56.7672C109.927 57.024 108.124 58.935 108.489 61.6708ZM121.014 67.0713C117.493 67.5406 114.81 65.2107 114.28 61.2378C113.792 57.5742 115.854 54.515 119.184 54.0711C122.753 53.5955 125.468 56.1633 125.718 60.2218L116.012 61.5154C116.551 64.4701 118.365 66.0927 120.816 65.7661C122.909 65.487 124.205 64.1279 124.343 62.0757L125.985 61.8569C125.785 64.7164 123.892 66.6876 121.014 67.0713ZM119.332 55.3589C117.072 55.6601 115.709 57.6092 115.86 60.3735L123.829 59.3113C123.312 56.5232 121.639 55.0513 119.332 55.3589ZM138.161 60.9846C138.468 63.2922 136.803 64.9669 133.71 65.3791C130.594 65.7945 128.481 64.478 127.898 61.9167L129.492 61.7042C129.848 63.4726 131.401 64.4036 133.542 64.1182C135.588 63.8456 136.72 62.8956 136.53 61.4682C136.365 60.2312 135.575 59.7554 133.622 59.6284L131.766 59.5125C129.327 59.3776 127.911 58.38 127.67 56.5719C127.391 54.4785 129.05 52.7562 131.785 52.3915C134.664 52.0079 136.773 53.3005 137.296 55.7731L135.726 55.9824C135.328 54.2679 133.931 53.413 131.957 53.6762C130.196 53.9108 129.094 54.9052 129.268 56.2136C129.433 57.4507 130.274 57.9439 132.177 58.0535L134.104 58.1598C136.665 58.3027 137.923 59.2004 138.161 60.9846ZM151.213 63.0704C147.906 63.5112 145.24 61.1305 144.727 57.2766C144.219 53.4702 146.193 50.4713 149.476 50.0337C152.402 49.6437 154.755 51.3154 155.673 54.3891L153.984 54.6142C153.299 52.3811 151.691 51.2153 149.669 51.4849C147.338 51.7956 146.016 54.054 146.416 57.0514C146.822 60.0965 148.688 61.93 151.02 61.6192C153.066 61.3466 154.292 59.8273 154.362 57.4451L156.051 57.22C156.023 60.4681 154.163 62.6772 151.213 63.0704ZM164.274 61.3054C160.825 61.7651 157.962 59.3622 157.458 55.5797C156.957 51.8209 159.093 48.776 162.543 48.3162C166.016 47.8533 168.876 50.2324 169.377 53.9911C169.881 57.7737 167.747 60.8424 164.274 61.3054ZM164.081 59.8542C166.531 59.5276 168.103 57.3327 167.688 54.2163C167.278 51.1474 165.187 49.4408 162.736 49.7674C160.31 50.0908 158.738 52.2857 159.147 55.3546C159.562 58.471 161.654 60.1776 164.081 59.8542ZM173.598 52.3873L174.572 59.6907L172.907 59.9127L171.236 47.3755L172.782 47.1694L173.096 49.5246C173.699 47.8705 175.082 46.6208 176.89 46.3798C179.506 46.031 181.417 47.4712 181.814 50.4449L182.898 58.5809L181.233 58.8029L180.225 51.2378C179.904 48.835 178.629 47.6249 176.583 47.8976C174.633 48.1576 173.288 50.0559 173.598 52.3873ZM191.456 57.6825C188.006 58.1422 185.144 55.7394 184.639 51.9568C184.138 48.198 186.275 45.1531 189.724 44.6933C193.198 44.2304 196.057 46.6095 196.558 50.3682C197.062 54.1508 194.929 57.2195 191.456 57.6825ZM191.262 56.2313C193.713 55.9047 195.284 53.7098 194.869 50.5934C194.46 47.5245 192.368 45.8179 189.918 46.1445C187.491 46.4679 185.92 48.6628 186.329 51.7317C186.744 54.8481 188.836 56.5547 191.262 56.2313ZM204.809 55.9268C201.503 56.3675 198.837 53.9869 198.323 50.133C197.816 46.3266 199.789 43.3277 203.072 42.8901C205.998 42.5001 208.351 44.1718 209.27 47.2454L207.581 47.4706C206.896 45.2375 205.287 44.0717 203.265 44.3413C200.934 44.652 199.613 46.9104 200.012 49.9078C200.418 52.9529 202.285 54.7864 204.616 54.4756C206.662 54.2029 207.888 52.6837 207.958 50.3015L209.647 50.0764C209.62 53.3245 207.759 55.5336 204.809 55.9268ZM217.775 54.1744C214.254 54.6437 211.571 52.3138 211.042 48.3409C210.553 44.6773 212.615 41.6181 215.946 41.1742C219.514 40.6986 222.229 43.2664 222.48 47.3249L212.773 48.6186C213.313 51.5732 215.127 53.1958 217.577 52.8692C219.671 52.5901 220.966 51.231 221.105 49.1788L222.746 48.96C222.546 51.8195 220.654 53.7908 217.775 54.1744ZM216.093 42.462C213.833 42.7632 212.471 44.7123 212.621 47.4767L220.591 46.4144C220.074 43.6263 218.401 42.1544 216.093 42.462ZM226.786 45.9035L227.68 52.6121L226.015 52.8341L224.344 40.297L225.89 40.0909L226.271 42.9456C226.88 40.9759 228.577 39.5391 230.647 39.2632L230.878 40.9998C228.225 41.2566 226.421 43.1676 226.786 45.9035ZM51.7493 104.309L50.0841 104.531L48.413 91.9936L49.9594 91.7875L50.2733 94.1427C50.8903 92.414 52.2353 91.242 54.0195 91.0042C55.9702 90.7442 57.5641 91.6213 58.3316 93.3834C58.882 91.5183 60.2999 90.1671 62.2745 89.9039C64.8675 89.5583 66.7135 91.0556 67.1035 93.9817L68.188 102.118L66.5465 102.337L65.535 94.7476C65.2179 92.3687 63.9429 91.1585 61.9207 91.428C60.0176 91.6817 58.6932 93.5531 59.0008 95.8607L59.9805 103.212L58.3153 103.434L57.3038 95.8447C56.9867 93.4658 55.7116 92.2556 53.6895 92.5251C51.7626 92.782 50.462 94.6502 50.7696 96.9578L51.7493 104.309ZM76.646 101.233C73.1252 101.702 70.4418 99.3719 69.9123 95.399C69.424 91.7354 71.4859 88.6762 74.8164 88.2323C78.3849 87.7567 81.0999 90.3245 81.3503 94.383L71.6442 95.6766C72.1832 98.6313 73.9975 100.254 76.4478 99.9273C78.5413 99.6482 79.8371 98.2891 79.9752 96.2369L81.6167 96.0181C81.4167 98.8776 79.5246 100.849 76.646 101.233ZM74.9639 89.5201C72.7039 89.8213 71.3414 91.7704 71.492 94.5347L79.4615 93.4725C78.9446 90.6844 77.2715 89.2125 74.9639 89.5201ZM85.0165 84.161C85.1148 84.8985 84.6136 85.4979 83.8285 85.6026C83.0435 85.7072 82.4027 85.2599 82.3044 84.5225C82.2093 83.8088 82.7105 83.2093 83.4956 83.1047C84.2806 83 84.9213 83.4473 85.0165 84.161ZM84.8561 87.1363L86.6857 100.863C87.006 103.266 85.8148 104.683 83.6975 104.966C83.2455 105.026 82.6714 105.078 82.1195 104.934L81.9166 103.411C82.3908 103.518 82.8047 103.535 83.3281 103.465C84.5414 103.304 85.2408 102.557 85.041 101.058L83.2147 87.355L84.8561 87.1363ZM95.1874 98.7612C91.7379 99.221 88.8754 96.8181 88.3712 93.0356C87.8702 89.2768 90.0067 86.2319 93.4562 85.7721C96.9295 85.3091 99.7888 87.6882 100.29 91.447C100.794 95.2295 98.6607 98.2983 95.1874 98.7612ZM94.994 97.3101C97.4443 96.9835 99.0161 94.7886 98.6008 91.6721C98.1917 88.6033 96.0999 86.8967 93.6496 87.2233C91.2231 87.5467 89.6513 89.7416 90.0603 92.8104C90.4757 95.9269 92.5675 97.6335 94.994 97.3101ZM104.591 90.4379L105.485 97.1466L103.82 97.3685L102.149 84.8314L103.695 84.6253L104.076 87.48C104.685 85.5103 106.382 84.0735 108.451 83.7976L108.683 85.5343C106.03 85.7911 104.226 87.7021 104.591 90.4379ZM118.82 95.3692L117.155 95.5911L114.878 78.5102L116.544 78.2882L118.82 95.3692ZM130.137 93.8609L129.832 91.5771C129.304 93.2455 127.908 94.4 125.957 94.66C123.364 95.0056 121.482 93.7796 121.181 91.5196C120.854 89.0693 122.634 87.5246 126.44 87.0173C127.201 86.9158 127.779 86.8873 129.028 86.8176L128.889 85.7708C128.61 83.6773 127.327 82.5893 125.424 82.843C123.378 83.1157 122.261 84.5477 122.51 86.5968L120.987 86.7998C120.688 84.0069 122.367 81.8944 125.222 81.5139C128.148 81.1239 130.089 82.6085 130.476 85.5108L131.564 93.6706L130.137 93.8609ZM122.768 91.2596C122.971 92.7821 124.273 93.6497 126.034 93.415C128.365 93.1043 129.637 91.3852 129.323 89.03L129.174 87.9119C128.091 87.9594 127.35 88.0339 126.66 88.1259C123.806 88.5064 122.537 89.5229 122.768 91.2596ZM144.76 92.1781C141.453 92.6189 138.787 90.2382 138.274 86.3843C137.766 82.578 139.739 79.579 143.022 79.1414C145.949 78.7514 148.302 80.4231 149.22 83.4968L147.531 83.7219C146.846 81.4888 145.238 80.3231 143.216 80.5926C140.884 80.9033 139.563 83.1617 139.963 86.1592C140.369 89.2042 142.235 91.0377 144.567 90.727C146.612 90.4543 147.839 88.935 147.908 86.5529L149.597 86.3277C149.57 89.5758 147.71 91.785 144.76 92.1781ZM153.039 75.0945C153.138 75.832 152.66 76.4283 151.851 76.5361C151.066 76.6408 150.449 76.1903 150.351 75.4528C150.256 74.7392 150.733 74.1428 151.518 74.0382C152.327 73.9304 152.944 74.3808 153.039 75.0945ZM154.598 90.6006L152.932 90.8225L151.261 78.2854L152.927 78.0635L154.598 90.6006ZM165.548 83.9839L164.552 76.5139L166.194 76.2952L167.865 88.8323L166.318 89.0384L166.017 86.7784C165.568 88.3152 164.185 89.5648 162.353 89.809C159.808 90.1483 157.925 88.9222 157.504 85.7582L156.416 77.5984L158.081 77.3764L159.121 85.1794C159.461 87.7249 160.851 88.5322 162.612 88.2976C164.61 88.0312 165.846 86.2201 165.548 83.9839ZM169.707 82.1947C169.193 78.3408 170.982 75.4148 174.36 74.9646C176.24 74.7141 177.976 75.5721 179.047 77.2454L178.092 70.0847L179.757 69.8628L182.034 86.9437L180.488 87.1498L180.136 84.5092C179.5 86.4583 178.022 87.7206 176.095 87.9775C172.717 88.4277 170.22 86.0487 169.707 82.1947ZM171.396 81.9696C171.821 85.1574 173.689 86.8212 176.139 86.4946C178.566 86.1712 179.968 83.9747 179.549 80.8345C179.127 77.6704 177.17 76.0669 174.792 76.384C172.341 76.7106 170.971 78.7818 171.396 81.9696ZM193.351 85.4353L193.047 83.1515C192.518 84.82 191.123 85.9745 189.172 86.2345C186.579 86.5801 184.696 85.3541 184.395 83.094C184.068 80.6437 185.848 79.0991 189.654 78.5917C190.416 78.4903 190.993 78.4617 192.243 78.392L192.103 77.3453C191.824 75.2518 190.541 74.1638 188.638 74.4174C186.592 74.6901 185.475 76.1222 185.724 78.1713L184.202 78.3742C183.902 75.5813 185.582 73.4689 188.437 73.0884C191.363 72.6984 193.304 74.1829 193.691 77.0853L194.778 85.2451L193.351 85.4353ZM185.983 82.834C186.186 84.3566 187.488 85.2241 189.248 84.9895C191.579 84.6788 192.851 82.9596 192.538 80.6045L192.389 79.4863C191.305 79.5339 190.565 79.6084 189.875 79.7003C187.02 80.0808 185.751 81.0974 185.983 82.834ZM196.516 78.6214C196.003 74.7675 197.792 71.8415 201.17 71.3912C203.049 71.1407 204.786 71.9988 205.856 73.672L204.902 66.5114L206.567 66.2894L208.844 83.3704L207.298 83.5765L206.946 80.9358C206.31 82.8849 204.831 84.1473 202.904 84.4041C199.526 84.8544 197.03 82.4753 196.516 78.6214ZM198.205 78.3963C198.63 81.5841 200.499 83.2478 202.949 82.9212C205.375 82.5978 206.778 80.4013 206.359 77.2611C205.937 74.0971 203.98 72.4936 201.601 72.8107C199.151 73.1373 197.781 75.2085 198.205 78.3963ZM210.936 69.8717L209.342 70.0841C209.074 67.5291 210.858 65.4754 213.594 65.1107C216.496 64.7239 218.614 66.2576 218.927 68.6128C219.13 70.1353 218.464 71.3137 217.329 72.603L216.275 73.7845C215.202 74.9929 214.961 75.7272 215.427 78.1348L214.261 78.2901C213.568 75.816 213.575 74.774 214.766 73.3562L215.898 72.0431C216.815 70.9282 217.318 70.159 217.162 68.9933C216.953 67.4232 215.622 66.3415 213.672 66.6015C211.864 66.8425 210.734 68.1794 210.936 69.8717ZM216.84 80.9245C216.954 81.781 216.37 82.4883 215.49 82.6056C214.634 82.7197 213.885 82.19 213.771 81.3336C213.654 80.4533 214.213 79.7492 215.094 79.6319C215.974 79.5146 216.722 80.0443 216.84 80.9245Z" fill="#9A5218"/>
<path d="M295.873 47.0293C289.642 54.3936 283.539 62.3 276.787 69.0519" stroke="#DA7829" stroke-width="9.5" stroke-linecap="round"/>
<path d="M180 125.5C197.5 121 219 113.5 232.5 105" stroke="#DA7829" stroke-width="9.5" stroke-linecap="round"/>
<path d="M92.2871 136.1C102.734 136.1 119.5 136.1 132.5 134" stroke="#DA7829" stroke-width="9.5" stroke-linecap="round"/>
<path d="M75 135.5C68.2726 135.5 59 135 52.5 133" stroke="#DA7829" stroke-width="9.5" stroke-linecap="round"/>
<path d="M31.5 126.5C25.5097 124.361 18.5 118.5 14.4736 111.629" stroke="#DA7829" stroke-width="9.5" stroke-linecap="round"/>
<path d="M7.66487 98.3951C4.50023 88 4.50035 79.5 6.50063 70.5" stroke="#DA7829" stroke-width="9.5" stroke-linecap="round"/>
<path d="M15 54C19.5 47.5 24.5 43.5 29.5 39.5" stroke="#DA7829" stroke-width="9.5" stroke-linecap="round"/>
<path d="M43 30.8303C50 28 55 24.5 63.0651 23" stroke="#DA7829" stroke-width="9.5" stroke-linecap="round"/>
<path d="M82.5 18.5C93 16 103.263 13.3259 114 12.5" stroke="#DA7829" stroke-width="9.5" stroke-linecap="round"/>
<path d="M151.546 9.89844H195.591" stroke="#DA7829" stroke-width="9.5" stroke-linecap="round"/>
<path d="M232.806 13.3457C245.5 15 256.474 19.3247 269 23.5" stroke="#DA7829" stroke-width="9.5" stroke-linecap="round"/>
</svg>
