<svg fill="none" viewBox="0 0 301 143" xmlns="http://www.w3.org/2000/svg"><path d="m47.1751 65.2668c-.1109-.8326.4696-1.5637 1.3498-1.681.8564-.1142 1.6319.4362 1.7429 1.2688.1173.8803-.4632 1.6114-1.3434 1.7287s-1.6319-.4362-1.7493-1.3165zm5.9374 11.1211 1.5701-.2093c.2441 2.5582-1.4926 4.6056-4.2284 4.9703-2.9262.39-5.0433-1.1438-5.3573-3.4989-.1839-1.3798.3633-2.5423 1.6227-3.9934l1.023-1.2259c1.0262-1.2021 1.3148-1.9428.8455-4.3741l1.1657-.1553c.6644 2.26.7659 3.3844-.5046 4.9339l-1.1229 1.3845c-.958 1.1688-1.41 1.9554-1.2642 3.0497.2093 1.5701 1.5875 2.6455 3.5144 2.3886 1.808-.2409 2.9135-1.5747 2.736-3.2701zm11.5529-1.6851c-4.9482.6595-9.1382-2.8012-9.8009-7.7733-.6627-4.972 2.4809-9.3618 7.4292-10.0213 4.9482-.6596 9.1556 2.7505 9.8183 7.7225.4661 3.4971-.9662 6.7387-3.5799 8.564l3.538 4.5646-1.8793.2505-3.1194-3.9666c-.7328.3155-1.5496.5454-2.406.6596zm-.2124-1.5939c4.0442-.539 6.3488-4.1391 5.8034-8.2309s-3.7061-6.915-7.7503-6.3759c-4.0204.5358-6.3552 4.0915-5.8098 8.1833s3.7362 6.9594 7.7567 6.4235zm18.8711-6.4134-.9956-7.47 1.6415-.2188 1.671 12.5372-1.5463.2061-.3012-2.26c-.4489 1.5367-1.832 2.7864-3.6638 3.0306-2.5455.3392-4.4279-.8868-4.8497-4.0508l-1.0875-8.1599 1.6652-.2219 1.0401 7.803c.3392 2.5455 1.7301 3.3528 3.4905 3.1182 1.9983-.2664 3.2339-2.0775 2.9358-4.3137zm6.0308-11.3604c.0983.7375-.3791 1.3338-1.1879 1.4416-.7851.1046-1.402-.3458-1.5003-1.0833-.0951-.7137.3823-1.31 1.1673-1.4146.8089-.1078 1.4258.3426 1.5209 1.0563zm1.5583 15.5061-1.6653.2219-1.671-12.5371 1.6653-.222zm8.5646-.8994c-3.5209.4692-6.2042-1.8607-6.7338-5.8335-.4883-3.6636 1.5736-6.7229 4.9042-7.1668 3.5688-.4756 6.2838 2.0922 6.5338 6.1507l-9.7061 1.2937c.5391 2.9547 2.3533 4.5772 4.8037 4.2506 2.0934-.279 3.3894-1.6381 3.5274-3.6904l1.641-.2188c-.2 2.8595-2.092 4.8308-4.9702 5.2145zm-1.6822-11.7125c-2.26.3013-3.6224 2.2503-3.4719 5.0147l7.9693-1.0622c-.517-2.7882-2.19-4.26-4.4974-3.9525zm10.6934 3.4415.894 6.7087-1.666.2219-1.671-12.5371 1.547-.2061.38 2.8547c.609-1.9697 2.306-3.4065 4.376-3.6824l.232 1.7367c-2.654.2568-4.457 2.1678-4.092 4.9036zm12.525 5.4005c-3.521.4693-6.204-1.8606-6.734-5.8335-.488-3.6636 1.574-6.7228 4.904-7.1667 3.569-.4756 6.284 2.0922 6.534 6.1507l-9.706 1.2936c.539 2.9547 2.353 4.5773 4.804 4.2507 2.093-.2791 3.389-1.6382 3.527-3.6904l1.642-.2188c-.2 2.8595-2.093 4.8307-4.971 5.2144zm-1.682-11.7124c-2.26.3012-3.623 2.2503-3.472 5.0146l7.969-1.0622c-.517-2.7881-2.19-4.26-4.497-3.9524zm18.829 5.6257c.307 2.3076-1.358 3.9823-4.451 4.3945-3.116.4154-5.229-.9011-5.812-3.4624l1.594-.2125c.356 1.7684 1.909 2.6994 4.05 2.414 2.046-.2726 3.178-1.2226 2.988-2.65-.165-1.237-.955-1.7128-2.908-1.8398l-1.856-.1159c-2.439-.1349-3.855-1.1325-4.096-2.9406-.279-2.0934 1.38-3.8157 4.115-4.1804 2.879-.3836 4.988.909 5.511 3.3816l-1.57.2093c-.398-1.7145-1.795-2.5694-3.769-2.3062-1.761.2346-2.863 1.229-2.689 2.5374.165 1.2371 1.006 1.7303 2.909 1.8399l1.927.1063c2.561.1429 3.819 1.0406 4.057 2.8248zm13.052 2.0858c-3.307.4408-5.973-1.9399-6.486-5.7938-.508-3.8064 1.466-6.8053 4.749-7.2429 2.926-.39 5.279 1.2817 6.197 4.3554l-1.689.2251c-.685-2.2331-2.293-3.3989-4.315-3.1293-2.331.3107-3.653 2.5691-3.253 5.5665.406 3.0451 2.272 4.8786 4.604 4.5678 2.046-.2726 3.272-1.7919 3.342-4.1741l1.689-.2251c-.028 3.2481-1.888 5.4572-4.838 5.8504zm13.061-1.765c-3.449.4597-6.312-1.9432-6.816-5.7257-.501-3.7588 1.635-6.8037 5.085-7.2635 3.473-.4629 6.333 1.9162 6.834 5.6749.504 3.7826-1.63 6.8513-5.103 7.3143zm-.193-1.4512c2.45-.3266 4.022-2.5215 3.607-5.6379-.41-3.0689-2.501-4.7755-4.952-4.4489-2.426.3234-3.998 2.5183-3.589 5.5872.415 3.1164 2.507 4.823 4.934 4.4996zm9.517-7.4669.974 7.3034-1.665.222-1.671-12.5372 1.546-.2061.314 2.3552c.603-1.6541 1.986-2.9038 3.794-3.1448 2.616-.3488 4.527 1.0914 4.924 4.0651l1.084 8.136-1.665.222-1.008-7.5651c-.321-2.4028-1.596-3.6129-3.642-3.3402-1.95.26-3.295 2.1583-2.985 4.4897zm17.858 5.2952c-3.45.4597-6.312-1.9431-6.817-5.7257-.501-3.7588 1.636-6.8037 5.085-7.2635 3.474-.4629 6.333 1.9162 6.834 5.6749.504 3.7826-1.629 6.8513-5.102 7.3143zm-.194-1.4512c2.451-.3266 4.022-2.5215 3.607-5.6379-.409-3.0689-2.501-4.7755-4.951-4.4489-2.427.3234-3.998 2.5183-3.589 5.5872.415 3.1164 2.507 4.823 4.933 4.4996zm13.547-.3045c-3.306.4407-5.972-1.9399-6.486-5.7938-.507-3.8064 1.466-6.8053 4.749-7.2429 2.926-.39 5.279 1.2817 6.198 4.3553l-1.689.2252c-.685-2.2331-2.294-3.3989-4.316-3.1293-2.331.3107-3.652 2.5691-3.253 5.5665.406 3.0451 2.273 4.8786 4.604 4.5678 2.046-.2727 3.272-1.7919 3.342-4.1741l1.689-.2251c-.027 3.2481-1.888 5.4572-4.838 5.8504zm12.966-1.7524c-3.521.4693-6.204-1.8606-6.733-5.8335-.489-3.6636 1.573-6.7228 4.904-7.1667 3.568-.4756 6.283 2.0922 6.534 6.1507l-9.707 1.2937c.54 2.9546 2.354 4.5772 4.804 4.2506 2.094-.2791 3.389-1.6382 3.528-3.6904l1.641-.2188c-.2 2.8595-2.092 4.8308-4.971 5.2144zm-1.682-11.7124c-2.26.3012-3.622 2.2503-3.472 5.0147l7.97-1.0623c-.517-2.7881-2.19-4.26-4.498-3.9524zm10.693 3.4415.894 6.7086-1.665.222-1.671-12.5371 1.546-.2061.381 2.8547c.609-1.9697 2.306-3.4065 4.376-3.6824l.231 1.7366c-2.653.2568-4.457 2.1678-4.092 4.9037zm-175.0367 58.4055-1.6652.222-1.6711-12.5374 1.5464-.2061.3139 2.3552c.617-1.7287 1.962-2.9007 3.7462-3.1385 1.9507-.26 3.5446.6171 4.3121 2.3792.5504-1.8651 1.9683-3.2163 3.9429-3.4795 2.593-.3456 4.439 1.1517 4.829 4.0778l1.0845 8.1363-1.6415.219-1.0115-7.5894c-.3171-2.3789-1.5921-3.5891-3.6143-3.3196-1.9031.2537-3.2275 2.1251-2.9199 4.4327l.9797 7.3513-1.6652.222-1.0115-7.5893c-.3171-2.3789-1.5922-3.5891-3.6143-3.3196-1.9269.2569-3.2275 2.1251-2.9199 4.4327zm24.8967-3.076c-3.5208.469-6.2042-1.8611-6.7337-5.834-.4883-3.6636 1.5736-6.7228 4.9041-7.1667 3.5685-.4756 6.2835 2.0922 6.5339 6.1507l-9.7061 1.2936c.539 2.9547 2.3533 4.5774 4.8036 4.2507 2.0935-.2791 3.3893-1.6382 3.5274-3.6904l1.6415-.2188c-.2 2.8595-2.0921 4.8309-4.9707 5.2149zm-1.6821-11.7129c-2.26.3012-3.6225 2.2503-3.4719 5.0146l7.9695-1.0622c-.5169-2.7881-2.19-4.26-4.4976-3.9524zm10.0526-5.3591c.0983.7375-.4029 1.3369-1.188 1.4416-.785.1046-1.4258-.3427-1.5241-1.0801-.0951-.7137.4061-1.3132 1.1912-1.4178.785-.1047 1.4257.3426 1.5209 1.0563zm-.1604 2.9753 1.8296 13.7267c.3203 2.403-.8709 3.82-2.9882 4.103-.452.06-1.0261.112-1.578-.032l-.2029-1.523c.4742.107.8881.124 1.4115.054 1.2133-.161 1.9127-.908 1.7129-2.407l-1.8263-13.703zm10.3313 11.6249c-3.4495.4598-6.312-1.9431-6.8162-5.7256-.501-3.7588 1.6355-6.8037 5.085-7.2635 3.4733-.463 6.3326 1.9161 6.8338 5.6749.504 3.7825-1.6293 6.8513-5.1026 7.3142zm-.1934-1.4511c2.4503-.3266 4.0221-2.5215 3.6068-5.638-.4091-3.0688-2.5009-4.7754-4.9512-4.4488-2.4265.3234-3.9983 2.5183-3.5893 5.5871.4154 3.1165 2.5072 4.8231 4.9337 4.4997zm9.597-6.8722.894 6.7087-1.665.2219-1.671-12.5371 1.546-.2061.381 2.8547c.609-1.9697 2.306-3.4065 4.375-3.6824l.232 1.7367c-2.653.2568-4.457 2.1678-4.092 4.9036zm14.229 4.9313-1.665.2219-2.277-17.0809 1.666-.222zm11.317-1.5083-.305-2.2838c-.528 1.6684-1.924 2.8229-3.875 3.0829-2.593.3456-4.475-.8804-4.776-3.1404-.327-2.4503 1.453-3.995 5.259-4.5023.761-.1015 1.339-.13 2.588-.1997l-.139-1.0468c-.279-2.0935-1.562-3.1815-3.465-2.9278-2.046.2727-3.163 1.7047-2.914 3.7538l-1.523.203c-.299-2.7929 1.38-4.9054 4.235-5.2859 2.926-.39 4.867 1.0946 5.254 3.9969l1.088 8.1598zm-7.369-2.6013c.203 1.5225 1.505 2.3901 3.266 2.1554 2.331-.3107 3.603-2.0298 3.289-4.385l-.149-1.1181c-1.083.0475-1.824.122-2.514.214-2.854.3805-4.123 1.397-3.892 3.1337zm21.992.9185c-3.307.4408-5.973-1.9399-6.486-5.7938-.508-3.8063 1.465-6.8053 4.748-7.2429 2.927-.39 5.28 1.2817 6.198 4.3554l-1.689.2251c-.685-2.2331-2.293-3.3988-4.315-3.1293-2.332.3107-3.653 2.5691-3.253 5.5666.406 3.045 2.272 4.8785 4.604 4.5678 2.045-.2727 3.272-1.792 3.341-4.1741l1.689-.2252c-.027 3.2481-1.887 5.4573-4.837 5.8504zm8.279-17.0836c.099.7375-.379 1.3338-1.188 1.4416-.785.1047-1.402-.3458-1.5-1.0833-.095-.7136.382-1.31 1.167-1.4146.809-.1078 1.426.3426 1.521 1.0563zm1.559 15.5061-1.666.2219-1.671-12.5371 1.666-.2219zm10.95-6.6167-.996-7.47 1.642-.2187 1.671 12.5371-1.547.2061-.301-2.26c-.449 1.5368-1.832 2.7864-3.664 3.0306-2.545.3393-4.428-.8868-4.849-4.0508l-1.088-8.1598 1.665-.222 1.04 7.803c.34 2.5455 1.73 3.3528 3.491 3.1182 1.998-.2664 3.234-2.0775 2.936-4.3137zm4.159-1.7892c-.514-3.8539 1.275-6.7799 4.653-7.2301 1.88-.2505 3.616.6075 4.687 2.2808l-.955-7.1607 1.665-.2219 2.277 17.0809-1.546.2061-.352-2.6406c-.636 1.9491-2.114 3.2114-4.041 3.4683-3.378.4502-5.875-1.9288-6.388-5.7828zm1.689-.2251c.425 3.1878 2.293 4.8516 4.743 4.525 2.427-.3234 3.829-2.5199 3.41-5.6601-.422-3.1641-2.379-4.7676-4.757-4.4505-2.451.3266-3.821 2.3978-3.396 5.5856zm21.955 3.4657-.304-2.2838c-.529 1.6685-1.924 2.823-3.875 3.083-2.593.3456-4.476-.8804-4.777-3.1405-.327-2.4503 1.453-3.9949 5.259-4.5023.762-.1014 1.339-.13 2.589-.1997l-.14-1.0467c-.279-2.0935-1.562-3.1815-3.465-2.9279-2.046.2727-3.163 1.7048-2.914 3.7539l-1.522.2029c-.3-2.7929 1.38-4.9053 4.235-5.2858 2.926-.39 4.867 1.0945 5.254 3.9969l1.087 8.1598zm-7.368-2.6013c.203 1.5226 1.505 2.3901 3.265 2.1555 2.331-.3107 3.603-2.0299 3.29-4.385l-.149-1.1182c-1.084.0476-1.824.1221-2.514.214-2.855.3805-4.124 1.3971-3.892 3.1337zm10.533-4.2126c-.513-3.8539 1.276-6.7799 4.654-7.2302 1.879-.2505 3.616.6076 4.686 2.2808l-.954-7.1606 1.665-.222 2.277 17.081-1.546.2061-.352-2.6407c-.636 1.9491-2.115 3.2115-4.042 3.4683-3.378.4503-5.874-1.9288-6.388-5.7827zm1.689-.2251c.425 3.1878 2.294 4.8515 4.744 4.5249 2.426-.3234 3.829-2.5199 3.41-5.6601-.422-3.164-2.379-4.7675-4.758-4.4504-2.45.3266-3.82 2.3978-3.396 5.5856zm12.731-8.5246-1.594.2124c-.268-2.555 1.516-4.6087 4.252-4.9734 2.902-.3868 5.02 1.1469 5.333 3.5021.203 1.5225-.463 2.7009-1.598 3.9902l-1.054 1.1815c-1.073 1.2084-1.314 1.9427-.848 4.3503l-1.166.1553c-.693-2.4741-.686-3.5161.505-4.9339l1.132-1.3131c.917-1.1149 1.42-1.8841 1.264-3.0498-.209-1.5701-1.54-2.6518-3.49-2.3918-1.808.241-2.938 1.5779-2.736 3.2702zm5.904 11.0528c.114.8565-.47 1.5638-1.35 1.6811-.856.1141-1.605-.4156-1.719-1.272-.117-.8803.442-1.5844 1.323-1.7017.88-.1173 1.628.4124 1.746 1.2926z" fill="#9a5218"/><g stroke="#da7829" stroke-linecap="round" stroke-width="9.5"><path d="m295.873 47.0293c-6.231 7.3643-12.334 15.2707-19.086 22.0226"/><path d="m180 125.5c17.5-4.5 39-12 52.5-20.5"/><path d="m92.2871 136.1c10.4469 0 27.2129 0 40.2129-2.1"/><path d="m75 135.5c-6.7274 0-16-.5-22.5-2.5"/><path d="m31.5 126.5c-5.9903-2.139-13-8-17.0264-14.871"/><path d="m7.66487 98.3951c-3.16464-10.3951-3.16452-18.8951-1.16424-27.8951"/><path d="m15 54c4.5-6.5 9.5-10.5 14.5-14.5"/><path d="m43 30.8303c7-2.8303 12-6.3303 20.0651-7.8303"/><path d="m82.5 18.5c10.5-2.5 20.763-5.1741 31.5-6"/><path d="m151.546 9.89844h44.045"/><path d="m232.806 13.3457c12.694 1.6543 23.668 5.979 36.194 10.1543"/></g></svg>