<svg width="301" height="143" viewBox="0 0 301 143" fill="none" xmlns="http://www.w3.org/2000/svg">
<path d="M48.152 65.8948C48.0034 65.0681 48.5502 64.3114 49.4242 64.1544C50.2746 64.0016 51.0742 64.5163 51.2228 65.343C51.3798 66.217 50.833 66.9737 49.959 67.1307C49.085 67.2878 48.309 66.7688 48.152 65.8948ZM54.5867 76.7357L56.1458 76.4555C56.5054 79 54.8632 81.124 52.1467 81.6121C49.2412 82.1342 47.0568 80.6979 46.6366 78.3593C46.3904 76.9893 46.8844 75.8032 48.0767 74.2966L49.0432 73.0256C50.0139 71.7783 50.2687 71.0253 49.6898 68.6178L50.8473 68.4098C51.6133 70.6374 51.7656 71.7561 50.5666 73.3615L49.5075 74.7954C48.6034 76.0064 48.1875 76.8127 48.3827 77.8993C48.6629 79.4583 50.0883 80.4701 52.0016 80.1263C53.7969 79.8037 54.8408 78.4213 54.5867 76.7357ZM62.9981 74.7122L61.2501 75.0263L58.4868 59.6486L52.794 60.6715L52.5096 59.0889L65.6432 56.7288L65.9276 58.3115L60.2348 59.3345L62.9981 74.7122ZM70.4617 57.5455C70.5933 58.2778 70.1434 58.8951 69.3402 59.0394C68.5607 59.1795 67.924 58.7574 67.7925 58.0252C67.6651 57.3165 68.115 56.6992 68.8945 56.5592C69.6977 56.4148 70.3344 56.8369 70.4617 57.5455ZM72.7204 72.9651L71.0669 73.2623L68.83 60.8136L70.4835 60.5165L72.7204 72.9651ZM81.2355 71.6789C77.7395 72.3071 74.9534 70.1011 74.2445 66.1562C73.5909 62.5185 75.5121 59.3691 78.8192 58.7748C82.3624 58.1381 85.1909 60.5804 85.6248 64.6234L75.9872 66.3552C76.6595 69.2824 78.5454 70.8211 80.9784 70.3839C83.0571 70.0104 84.29 68.594 84.3351 66.5377L85.965 66.2448C85.8947 69.1104 84.0937 71.1653 81.2355 71.6789ZM79.0248 60.0546C76.7807 60.4579 75.5079 62.4666 75.7834 65.2213L83.6967 63.7994C83.0541 61.0375 81.3161 59.6429 79.0248 60.0546ZM91.0595 69.6697L89.406 69.9669L87.1691 57.5183L88.7045 57.2424L89.1247 59.5809C89.6628 57.8261 90.9533 56.5944 92.725 56.2761C94.6619 55.928 96.2939 56.7321 97.1404 58.4575C97.6058 56.5695 98.9611 55.1555 100.922 54.8032C103.496 54.3405 105.408 55.7526 105.93 58.6581L107.382 66.7367L105.752 67.0296L104.398 59.4943C103.974 57.1321 102.645 55.9809 100.637 56.3417C98.7476 56.6813 97.5093 58.6107 97.921 60.902L99.2326 68.2011L97.5791 68.4982L96.225 60.9629C95.8006 58.6008 94.472 57.4496 92.4642 57.8104C90.5508 58.1542 89.3362 60.0794 89.7479 62.3707L91.0595 69.6697ZM121.148 57.8256C121.84 61.676 120.161 64.6842 116.854 65.2785C114.988 65.6138 113.223 64.8824 112.054 63.2636L113.332 70.3738L111.678 70.6709L108.622 53.6633L110.158 53.3874L110.642 56.0802C111.161 54.0849 112.619 52.7012 114.533 52.3574C117.84 51.7632 120.465 54.0225 121.148 57.8256ZM119.471 58.127C118.906 54.9853 116.941 53.4121 114.508 53.8493C112.193 54.2652 110.8 56.4176 111.369 59.5829C111.925 62.6773 113.95 64.3129 116.312 63.8885C118.745 63.4513 120.044 61.3159 119.471 58.127ZM129.957 62.924C126.532 63.5394 123.564 61.2686 122.889 57.5128C122.218 53.7806 124.215 50.642 127.64 50.0265C131.089 49.4068 134.053 51.654 134.723 55.3862C135.398 59.1421 133.406 62.3042 129.957 62.924ZM129.698 61.483C132.131 61.0458 133.602 58.782 133.046 55.6876C132.499 52.6404 130.332 51.0303 127.899 51.4675C125.489 51.9004 124.019 54.1642 124.566 57.2114C125.122 60.3058 127.289 61.916 129.698 61.483ZM145.108 59.9577L143.454 60.2548L140.407 43.2945L142.06 42.9973L145.108 59.9577ZM148.086 43.5971C148.217 44.3294 147.767 44.9467 146.964 45.091C146.185 45.2311 145.548 44.8091 145.416 44.0768C145.289 43.3681 145.739 42.7508 146.518 42.6108C147.322 42.4664 147.958 42.8885 148.086 43.5971ZM150.344 59.0167L148.691 59.3139L146.454 46.8652L148.107 46.5681L150.344 59.0167ZM164.216 50.0866C164.904 53.9134 163.229 56.9452 159.899 57.5437C157.985 57.8876 156.192 57.1368 154.992 55.475L155.463 58.097L153.927 58.3729L150.88 41.4126L152.533 41.1154L153.815 48.2492C154.291 46.286 155.687 44.9623 157.577 44.6227C160.908 44.0242 163.528 46.2599 164.216 50.0866ZM162.539 50.388C161.97 47.2227 160.009 45.6731 157.576 46.1103C155.237 46.5305 153.864 48.655 154.428 51.7967C154.988 54.9147 156.994 56.5782 159.38 56.1495C161.813 55.7123 163.108 53.5533 162.539 50.388ZM168.455 48.886L169.652 55.5473L167.999 55.8444L165.762 43.3958L167.297 43.1199L167.807 45.9545C168.326 43.9592 169.956 42.447 172.011 42.0777L172.321 43.8021C169.682 44.1788 167.967 46.1695 168.455 48.886ZM181.212 53.7139C177.716 54.3421 174.93 52.136 174.221 48.1912C173.568 44.5535 175.489 41.404 178.796 40.8098C182.339 40.1731 185.168 42.6153 185.602 46.6583L175.964 48.3901C176.636 51.3174 178.522 52.8561 180.955 52.4189C183.034 52.0454 184.267 50.629 184.312 48.5726L185.942 48.2797C185.872 51.1454 184.071 53.2003 181.212 53.7139ZM179.002 42.0896C176.758 42.4928 175.485 44.5016 175.76 47.2563L183.674 45.8344C183.031 43.0725 181.293 41.6779 179.002 42.0896ZM50.7938 98.9162C50.1061 95.0894 51.7609 92.0854 55.1152 91.4827C56.9813 91.1474 58.755 91.9259 59.9001 93.549L58.6224 86.4389L60.276 86.1418L63.3236 103.102L61.7882 103.378L61.317 100.756C60.7699 102.732 59.3504 104.06 57.437 104.404C54.0827 105.006 51.4814 102.743 50.7938 98.9162ZM52.4709 98.6148C53.0397 101.78 54.9813 103.358 57.4143 102.92C59.8237 102.487 61.1249 100.23 60.5646 97.1116C60.0001 93.97 57.9725 92.4567 55.6103 92.8812C53.1773 93.3184 51.9021 95.4495 52.4709 98.6148ZM73.9635 95.9963L72.6307 88.5791L74.2606 88.2863L76.4975 100.735L74.9621 101.011L74.5588 98.7667C74.18 100.322 72.8549 101.633 71.0361 101.96C68.5086 102.414 66.5725 101.275 66.008 98.133L64.5521 90.0308L66.2056 89.7337L67.5978 97.4816C68.052 100.009 69.478 100.753 71.226 100.439C73.2102 100.082 74.3625 98.2168 73.9635 95.9963ZM80.5355 93.1329L81.7324 99.7942L80.0789 100.091L77.842 87.6427L79.3774 87.3668L79.8868 90.2014C80.4061 88.2061 82.0363 86.6939 84.0914 86.3247L84.4013 88.049C81.7623 88.4257 80.0473 90.4164 80.5355 93.1329ZM96.0368 97.2238L95.6294 94.9561C95.1772 96.6468 93.8352 97.8633 91.8983 98.2113C89.3235 98.674 87.3874 97.5344 86.9842 95.2904C86.547 92.8574 88.2548 91.2337 92.0342 90.5546C92.7901 90.4188 93.3655 90.3641 94.6108 90.2379L94.4241 89.1985C94.0505 87.1198 92.7196 86.091 90.8299 86.4306C88.7984 86.7956 87.7478 88.2768 88.0892 90.3125L86.5774 90.5841C86.1517 87.8077 87.734 85.6214 90.5686 85.112C93.474 84.5899 95.4804 85.9851 95.9982 88.8669L97.4541 96.9691L96.0368 97.2238ZM88.5584 94.9588C88.83 96.4705 90.17 97.2783 91.918 96.9642C94.2329 96.5482 95.4258 94.7733 95.0056 92.4347L94.8061 91.3245C93.7261 91.421 92.9896 91.529 92.3046 91.6521C89.47 92.1614 88.2485 93.2344 88.5584 94.9588ZM101.283 88.7951L102.586 96.047L100.932 96.3441L98.6955 83.8955L100.231 83.6196L100.651 85.9581C101.178 84.2784 102.503 82.9674 104.299 82.6448C106.897 82.1779 108.871 83.5301 109.402 86.4828L110.854 94.5614L109.2 94.8585L107.85 87.3468C107.422 84.961 106.093 83.8098 104.062 84.1749C102.125 84.5229 100.867 86.4802 101.283 88.7951ZM120.429 91.207L120.692 92.6715C120.101 93.046 119.575 93.2381 118.961 93.3485C116.905 93.7177 115.132 92.9392 114.648 90.2463L113.294 82.711L110.365 83.2373L110.114 81.8436L113.043 81.3173L112.381 77.6323L114.035 77.3352L114.697 81.0202L118.595 80.3198L118.845 81.7135L114.947 82.4138L116.238 89.5948C116.586 91.5318 117.65 92.0234 119.02 91.7772C119.539 91.6839 119.947 91.513 120.429 91.207ZM127.871 91.7472C124.375 92.3754 121.589 90.1694 120.881 86.2246C120.227 82.5869 122.148 79.4374 125.455 78.8432C128.998 78.2065 131.827 80.6487 132.261 84.6917L122.623 86.4235C123.295 89.3508 125.181 90.8895 127.614 90.4523C129.693 90.0788 130.926 88.6624 130.971 86.606L132.601 86.3131C132.531 89.1787 130.73 91.2336 127.871 91.7472ZM125.661 80.123C123.417 80.5262 122.144 82.535 122.419 85.2897L130.333 83.8677C129.69 81.1058 127.952 79.7113 125.661 80.123ZM145.911 88.5057C142.415 89.1339 139.629 86.9279 138.92 82.9831C138.266 79.3454 140.187 76.1959 143.494 75.6017C147.038 74.965 149.866 77.4072 150.3 81.4502L140.662 83.182C141.335 86.1093 143.221 87.648 145.654 87.2108C147.732 86.8373 148.965 85.4209 149.01 83.3645L150.64 83.0716C150.57 85.9372 148.769 87.9921 145.911 88.5057ZM143.7 76.8815C141.456 77.2847 140.183 79.2935 140.459 82.0482L148.372 80.6262C147.729 77.8643 145.991 76.4698 143.7 76.8815ZM155.735 86.4966L154.081 86.7937L151.034 69.8334L152.687 69.5362L155.735 86.4966ZM166.994 84.4733L165.341 84.7705L163.354 73.7155L160.425 74.2419L160.175 72.8482L163.104 72.3218L162.9 71.188C162.488 68.8967 163.511 67.3962 165.684 67.0057C166.251 66.9038 166.764 66.9091 167.219 66.9981L167.465 68.3681C167.034 68.275 166.652 68.3192 166.227 68.3956C164.904 68.6333 164.29 69.4263 164.554 70.8909L164.757 72.0247L168.419 71.3668L168.669 72.7605L165.008 73.4184L166.994 84.4733ZM177.145 82.8932C173.649 83.5214 170.863 81.3154 170.154 77.3706C169.5 73.7328 171.421 70.5834 174.728 69.9891C178.272 69.3525 181.1 71.7947 181.534 75.8377L171.897 77.5695C172.569 80.4967 174.455 82.0355 176.888 81.5983C178.966 81.2247 180.199 79.8084 180.244 77.752L181.874 77.4591C181.804 80.3247 180.003 82.3796 177.145 82.8932ZM174.934 71.269C172.69 71.6722 171.417 73.681 171.693 76.4357L179.606 75.0137C178.963 72.2518 177.225 70.8572 174.934 71.269ZM193.998 76.0364C194.41 78.3277 192.822 80.0761 189.751 80.6279C186.657 81.184 184.487 79.9645 183.788 77.4322L185.371 77.1478C185.807 78.8982 187.4 79.758 189.526 79.376C191.558 79.0109 192.646 78.0107 192.391 76.5934C192.171 75.3651 191.36 74.9255 189.403 74.8871L187.544 74.8554C185.101 74.831 183.641 73.8985 183.318 72.1033C182.945 70.0246 184.524 68.229 187.241 67.7408C190.099 67.2272 192.264 68.4231 192.899 70.8694L191.34 71.1495C190.865 69.4549 189.43 68.6641 187.47 69.0164C185.722 69.3305 184.666 70.3737 184.899 71.6729C185.12 72.9013 185.982 73.356 187.888 73.3792L189.818 73.3982C192.383 73.425 193.68 74.2648 193.998 76.0364ZM203.52 76.2762L203.783 77.7408C203.192 78.1152 202.666 78.3073 202.052 78.4177C199.997 78.7869 198.223 78.0084 197.739 75.3155L196.385 67.7802L193.456 68.3065L193.205 66.9128L196.135 66.3865L195.472 62.7015L197.126 62.4044L197.788 66.0894L201.686 65.389L201.936 66.7827L198.038 67.4831L199.329 74.664C199.677 76.601 200.741 77.0926 202.111 76.8465C202.63 76.7531 203.039 76.5822 203.52 76.2762ZM205.817 61.6717C205.949 62.404 205.499 63.0213 204.696 63.1656C203.916 63.3056 203.28 62.8836 203.148 62.1513C203.021 61.4427 203.471 60.8254 204.25 60.6853C205.053 60.541 205.69 60.963 205.817 61.6717ZM208.076 77.0913L206.423 77.3884L204.186 64.9398L205.839 64.6427L208.076 77.0913ZM219.012 62.2755L216.454 75.5858L214.73 75.8957L207.745 64.3002L209.517 63.9819L215.303 73.7931L217.312 62.5811L219.012 62.2755ZM230.57 73.0494L230.162 70.7817C229.71 72.4723 228.368 73.6888 226.431 74.0369C223.856 74.4995 221.92 73.36 221.517 71.1159C221.08 68.6829 222.788 67.0593 226.567 66.3801C227.323 66.2443 227.898 66.1897 229.144 66.0634L228.957 65.0241C228.583 62.9454 227.252 61.9166 225.363 62.2561C223.331 62.6212 222.281 64.1023 222.622 66.138L221.11 66.4097C220.684 63.6332 222.267 61.4469 225.101 60.9376C228.007 60.4155 230.013 61.8106 230.531 64.6925L231.987 72.7947L230.57 73.0494ZM223.091 70.7843C223.363 72.2961 224.703 73.1038 226.451 72.7897C228.766 72.3738 229.959 70.5988 229.538 68.2603L229.339 67.15C228.259 67.2466 227.522 67.3545 226.837 67.4776C224.003 67.987 222.781 69.0599 223.091 70.7843ZM237.119 71.8725L235.465 72.1697L232.418 55.2093L234.071 54.9122L237.119 71.8725ZM238.597 58.2931L237.014 58.5775C236.631 56.0372 238.32 53.9048 241.037 53.4167C243.919 52.8988 246.103 54.3351 246.523 56.6737C246.795 58.1855 246.183 59.3928 245.107 60.7322L244.108 61.9602C243.09 63.216 242.883 63.9604 243.457 66.3444L242.3 66.5524C241.496 64.1121 241.455 63.0709 242.58 61.6007L243.652 60.2376C244.518 59.0824 244.985 58.2912 244.777 57.1338C244.497 55.5747 243.119 54.5544 241.182 54.9024C239.387 55.225 238.319 56.6117 238.597 58.2931ZM244.995 69.0673C245.148 69.9177 244.597 70.6507 243.723 70.8078C242.872 70.9606 242.101 70.4653 241.948 69.6149C241.791 68.7409 242.318 68.0121 243.192 67.8551C244.066 67.698 244.838 68.1933 244.995 69.0673Z" fill="#9A5218"/>
<path d="M295.873 47.0293C289.642 54.3936 283.539 62.3 276.787 69.0519" stroke="#DA7829" stroke-width="9.5" stroke-linecap="round"/>
<path d="M180 125.5C197.5 121 219 113.5 232.5 105" stroke="#DA7829" stroke-width="9.5" stroke-linecap="round"/>
<path d="M92.2871 136.1C102.734 136.1 119.5 136.1 132.5 134" stroke="#DA7829" stroke-width="9.5" stroke-linecap="round"/>
<path d="M75 135.5C68.2726 135.5 59 135 52.5 133" stroke="#DA7829" stroke-width="9.5" stroke-linecap="round"/>
<path d="M31.5 126.5C25.5097 124.361 18.5 118.5 14.4736 111.629" stroke="#DA7829" stroke-width="9.5" stroke-linecap="round"/>
<path d="M7.66487 98.3951C4.50023 88 4.50035 79.5 6.50063 70.5" stroke="#DA7829" stroke-width="9.5" stroke-linecap="round"/>
<path d="M15 54C19.5 47.5 24.5 43.5 29.5 39.5" stroke="#DA7829" stroke-width="9.5" stroke-linecap="round"/>
<path d="M43 30.8303C50 28 55 24.5 63.0651 23" stroke="#DA7829" stroke-width="9.5" stroke-linecap="round"/>
<path d="M82.5 18.5C93 16 103.263 13.3259 114 12.5" stroke="#DA7829" stroke-width="9.5" stroke-linecap="round"/>
<path d="M151.546 9.89844H195.591" stroke="#DA7829" stroke-width="9.5" stroke-linecap="round"/>
<path d="M232.806 13.3457C245.5 15 256.474 19.3247 269 23.5" stroke="#DA7829" stroke-width="9.5" stroke-linecap="round"/>
</svg>
