<svg width="302" height="142" viewBox="0 0 302 142" fill="none" xmlns="http://www.w3.org/2000/svg">
<path d="M296.471 46.0703C290.24 53.4346 284.137 61.3411 277.385 68.0929" stroke="#D1D5DB" stroke-width="9.5" stroke-linecap="round"/>
<path d="M180.597 124.541C198.097 120.041 219.597 112.541 233.097 104.041" stroke="#D1D5DB" stroke-width="9.5" stroke-linecap="round"/>
<path d="M92.8838 135.141C103.33 135.141 120.097 135.141 133.097 133.041" stroke="#D1D5DB" stroke-width="9.5" stroke-linecap="round"/>
<path d="M75.5967 134.541C68.8692 134.541 59.5967 134.041 53.0967 132.041" stroke="#D1D5DB" stroke-width="9.5" stroke-linecap="round"/>
<path d="M32.0967 125.541C26.1064 123.402 19.0967 117.541 15.0703 110.67" stroke="#D1D5DB" stroke-width="9.5" stroke-linecap="round"/>
<path d="M8.26155 97.4361C5.09691 87.041 5.09703 78.541 7.09731 69.541" stroke="#D1D5DB" stroke-width="9.5" stroke-linecap="round"/>
<path d="M15.5967 53.041C20.0967 46.541 25.0967 42.541 30.0967 38.541" stroke="#D1D5DB" stroke-width="9.5" stroke-linecap="round"/>
<path d="M43.5967 29.8713C50.5967 27.041 55.5967 23.541 63.6617 22.041" stroke="#D1D5DB" stroke-width="9.5" stroke-linecap="round"/>
<path d="M83.0967 17.541C93.5967 15.041 103.86 12.3669 114.597 11.541" stroke="#D1D5DB" stroke-width="9.5" stroke-linecap="round"/>
<path d="M152.143 8.93945H196.188" stroke="#D1D5DB" stroke-width="9.5" stroke-linecap="round"/>
<path d="M233.402 12.3867C246.097 14.041 257.071 18.3657 269.597 22.541" stroke="#D1D5DB" stroke-width="9.5" stroke-linecap="round"/>
</svg>
