<svg fill="none" height="142" viewBox="0 0 302 142" width="302" xmlns="http://www.w3.org/2000/svg"><g stroke="#d1d5db" stroke-linecap="round" stroke-width="9.5"><path d="m296.471 46.0703c-6.231 7.3643-12.334 15.2708-19.086 22.0226"/><path d="m180.597 124.541c17.5-4.5 39-12 52.5-20.5"/><path d="m92.8838 135.141c10.4462 0 27.2132 0 40.2132-2.1"/><path d="m75.5967 134.541c-6.7275 0-16-.5-22.5-2.5"/><path d="m32.0967 125.541c-5.9903-2.139-13-8-17.0264-14.871"/><path d="m8.26155 97.4361c-3.16464-10.3951-3.16452-18.8951-1.16424-27.8951"/><path d="m15.5967 53.041c4.5-6.5 9.5-10.5 14.5-14.5"/><path d="m43.5967 29.8713c7-2.8303 12-6.3303 20.065-7.8303"/><path d="m83.0967 17.541c10.5-2.5 20.7633-5.1741 31.5003-6"/><path d="m152.143 8.93945h44.045"/><path d="m233.402 12.3867c12.695 1.6543 23.669 5.979 36.195 10.1543"/></g></svg>