<svg fill="none" height="181" viewBox="0 0 130 181" width="130" xmlns="http://www.w3.org/2000/svg"><path d="m112.339 35.3203h-94.9171v63.041c0 19.0187 21.2479 34.4367 47.4583 34.4367 26.2105 0 47.4588-15.418 47.4588-34.4367v-63.0367z" fill="#ff7434"/><g fill="#d9592c"><path d="m64.8802 69.7572c26.2106 0 47.4588-15.4178 47.4588-34.4367 0-19.0188-21.2482-34.436711-47.4588-34.436711-26.2105 0-47.4583 15.417911-47.4583 34.436711 0 19.0189 21.2478 34.4367 47.4583 34.4367z"/><path d="m17.426 64.8018h-17.426v95.2242h17.426z"/><path d="m129.766 64.8018h-17.426v95.2242h17.426z"/></g><path d="m64.9994 37.4971c-10.7439 0-19.4525 6.2339-19.4525 13.9251v129.1818h38.9051v-129.1818c0-7.6912-8.7086-13.9251-19.4526-13.9251z" fill="#00c3d5"/></svg>