<svg viewBox="0 0 28 28" fill="none" xmlns="http://www.w3.org/2000/svg">
<path d="M1 13.8867C1 7.19684 6.42341 1.77344 13.1133 1.77344M1 13.8867C1 20.5766 6.42341 26 13.1133 26M1 13.8867H25.2266M13.1133 1.77344C13.1133 1.77344 7.72955 5.81134 7.72955 13.8867C7.72955 21.9621 13.1133 26 13.1133 26M13.1133 1.77344C13.1133 1.77344 18.497 5.81134 18.497 13.8867C18.497 21.9621 13.1133 26 13.1133 26M13.1133 1.77344C19.8032 1.77344 25.2266 7.19684 25.2266 13.8867M13.1133 26C19.8032 26 25.2266 20.5766 25.2266 13.8867" stroke="white" stroke-width="1.2531"/>
</svg>
