<svg fill="none" height="255" viewBox="0 0 460 255" width="460" xmlns="http://www.w3.org/2000/svg"><path d="m150.913 112.142-32.127-23.7578-33.2614 23.7578-33.2996-24.6245 33.8591-25.7445 31.6209 25.675 33.768-25.675 32.74 26.5838zm65.851-56.5411c-19.247-23.3934-29.25-35.2722-47.846-44.193-8.652-4.15114-30.888-13.31858-58.802-9.49517-19.9409 2.7314-33.8154 10.86637-44.5581 17.16487-9.4144 5.5199-23.9858 14.0631-36.5222 29.9494-17.9637 22.764-21.06783 47.069-24.10542 70.854-1.54674 12.109-4.050327 33.134 1.46108 59.533 3.67764 17.613 6.82454 32.687 17.89624 46.019 18.6925 22.51 47.8773 25.484 73.7768 28.122 45.7316 4.66 80.5756-9.088 96.7856-15.704 24.466-9.988 39.587-16.16 51.862-32.505 23.915-31.846 14.684-72.55 12.418-82.542-5.106-22.512-17.799-37.3438-42.366-67.2031z" fill="#2c2522"/><path d="m85.5239 80.5222c-3.5546 0-6.436 2.8815-6.436 6.4361s2.8814 6.436 6.436 6.436 6.4361-2.8814 6.4361-6.436-2.8815-6.4361-6.4361-6.4361z" fill="#000"/><path d="m144.477 86.9566c0 3.5545 2.881 6.436 6.436 6.436 3.554 0 6.436-2.8815 6.436-6.436 0-3.5546-2.882-6.4361-6.436-6.4361-3.555 0-6.436 2.8815-6.436 6.4361z" fill="#000"/><path d="m157.349 86.9579c0 3.5546-2.881 6.4361-6.436 6.4361s-6.436-2.8815-6.436-6.4361 2.881-6.436 6.436-6.436 6.436 2.8814 6.436 6.436zm-71.8248 6.4361c-3.5546 0-6.436-2.8815-6.436-6.4361s2.8814-6.436 6.436-6.436 6.4361 2.8814 6.4361 6.436-2.8815 6.4361-6.4361 6.4361zm32.1798-5.9458-31.6203-25.675-33.8591 25.7442 33.2996 24.6256 33.2618-23.7586 32.127 23.7586 33.3-23.786-32.741-26.5838z" fill="#fafafa"/><path d="m224.826 147.834c-12.182 4.252-16.287-10.989-20.119-8.244-3.832 2.744 6.565 42.669 33.953 68.923 27.388 26.253 54.003 50.273 133.977 45.685 50.022-2.869 105.16-.518 77.814-82.423-27.346-81.9048-47.149-77.4113-127.824-78.7293-110.612-1.8071-85.62 50.5353-97.801 54.7883z" fill="#fff"/><path d="m271.483 141.094c.064-1.218 1.089-2.106 2.377-2.038 1.253.067 2.213 1.061 2.148 2.279-.068 1.288-1.093 2.176-2.381 2.108-1.288-.069-2.213-1.061-2.144-2.349zm5.494 17.469 2.298.122c-.338 3.718-3.366 6.175-7.369 5.962-4.282-.228-6.894-2.985-6.71-6.432.107-2.019 1.2-3.531 3.387-5.265l1.789-1.476c1.787-1.441 2.398-2.421 2.38-6.018l1.706.091c.342 3.404.185 5.037-2.044 6.908l-1.974 1.676c-1.681 1.411-2.537 2.413-2.622 4.014-.123 2.298 1.557 4.203 4.376 4.353 2.646.14 4.582-1.467 4.783-3.935zm16.563.148.178-3.342c-1.202 2.24-3.504 3.514-6.358 3.362-3.795-.202-6.153-2.457-5.978-5.764.191-3.586 3.146-5.314 8.716-5.017 1.114.059 1.946.173 3.748.408l.082-1.531c.163-3.064-1.377-4.961-4.162-5.109-2.994-.159-4.972 1.586-5.166 4.578l-2.228-.119c.321-4.067 3.285-6.633 7.463-6.411 4.282.228 6.655 2.868 6.429 7.115l-.635 11.941zm-9.821-5.69c-.119 2.228 1.507 3.816 4.083 3.953 3.412.182 5.689-1.932 5.872-5.378l.087-1.636c-1.559-.223-2.636-.315-3.646-.369-4.177-.222-6.261.889-6.396 3.43zm23.442-2.802c.3-5.64 3.639-9.338 8.582-9.075 2.75.147 5 1.837 6.079 4.513l.557-10.479 2.437.13-1.329 24.995-2.263-.12.206-3.864c-1.431 2.612-3.88 4.018-6.699 3.868-4.944-.263-7.87-4.329-7.57-9.968zm2.472.131c-.248 4.665 1.973 7.541 5.559 7.732 3.55.189 6.141-2.571 6.385-7.167.247-4.63-2.117-7.443-5.599-7.629-3.585-.19-6.097 2.399-6.345 7.064zm28.996-9.769-2.715-.144 3.764-4.478 2.89.154zm-2.534 20.742c-5.048-.268-8.49-4.466-8.196-10.001.293-5.501 4.159-9.275 9.207-9.007 5.083.271 8.527 4.434 8.234 9.934-.294 5.535-4.162 9.344-9.245 9.074zm.113-2.124c3.586.191 6.418-2.521 6.661-7.081.238-4.491-2.29-7.488-5.876-7.679-3.551-.189-6.383 2.523-6.622 7.014-.243 4.56 2.286 7.558 5.837 7.746zm15.589-8.108-.568 10.688-2.437-.13.976-18.346 2.263.12-.184 3.447c1.304-2.2 3.614-3.613 6.259-3.473 3.83.204 6.172 2.772 5.94 7.124l-.633 11.906-2.437-.13.589-11.07c.187-3.516-1.309-5.586-4.303-5.745-2.854-.152-5.283 2.198-5.465 5.609zm15.878 2.346c.3-5.64 3.639-9.337 8.582-9.074 2.75.146 4.999 1.837 6.079 4.512l.557-10.478 2.437.13-1.329 24.995-2.263-.121.205-3.864c-1.43 2.612-3.879 4.018-6.699 3.868-4.943-.263-7.869-4.328-7.569-9.968zm2.472.132c-.248 4.664 1.973 7.54 5.558 7.731 3.551.189 6.142-2.571 6.386-7.166.246-4.63-2.118-7.444-5.599-7.629-3.585-.191-6.097 2.399-6.345 7.064zm26.322 10.965c-5.152-.274-8.358-4.32-8.049-10.133.285-5.361 4.049-9.176 8.923-8.917 5.222.278 8.409 4.672 7.679 10.533l-14.204-.756c-.022 4.363 2.133 7.166 5.718 7.357 3.064.162 5.278-1.43 6.026-4.323l2.402.128c-1.052 4.028-4.282 6.335-8.495 6.111zm.739-17.172c-3.307-.176-5.775 2.242-6.301 6.228l11.662.621c.01-4.119-1.984-6.669-5.361-6.849zm-132.774 37.636c.299-5.604 3.639-9.337 8.582-9.074 2.855.152 5.135 1.914 6.242 4.731l.215-4.038 2.263.12-1.333 25.065-2.437-.13.557-10.478c-1.392 2.544-3.769 3.919-6.519 3.773-4.944-.263-7.871-4.294-7.57-9.969zm2.472.132c-.25 4.7 1.973 7.541 5.559 7.732 3.551.188 6.139-2.537 6.382-7.097.248-4.665-2.114-7.514-5.595-7.699-3.586-.19-6.1 2.434-6.346 7.064zm31.261 3.443.582-10.931 2.402.128-.976 18.346-2.263-.121.176-3.307c-1.053 2.074-3.362 3.487-6.043 3.345-3.725-.199-6.083-2.454-5.837-7.084l.635-11.94 2.437.129-.608 11.419c-.198 3.725 1.572 5.25 4.148 5.387 2.924.156 5.173-2.099 5.347-5.371zm11.656-14.601c-.058 1.079-.899 1.802-2.083 1.739-1.148-.061-1.908-.869-1.851-1.948.056-1.045.897-1.768 2.046-1.707 1.183.063 1.943.871 1.888 1.916zm-1.933 22.554-2.437-.129.976-18.347 2.437.13zm12.468 1.012c-5.152-.274-8.358-4.319-8.049-10.133.285-5.361 4.049-9.176 8.923-8.916 5.221.277 8.409 4.671 7.678 10.532l-14.203-.755c-.023 4.362 2.132 7.165 5.718 7.356 3.064.163 5.278-1.43 6.025-4.323l2.402.128c-1.052 4.028-4.282 6.335-8.494 6.111zm.739-17.171c-3.307-.176-5.775 2.241-6.301 6.228l11.662.62c.01-4.119-1.984-6.669-5.361-6.848zm14.342 7.779-.522 9.818-2.437-.13.976-18.346 2.263.12-.222 4.178c1.397-2.649 4.205-4.245 7.234-4.084l-.135 2.541c-3.857-.345-6.944 1.9-7.157 5.903zm16.434 11.068c-5.152-.274-8.359-4.319-8.049-10.133.285-5.361 4.049-9.176 8.922-8.916 5.222.277 8.41 4.671 7.679 10.532l-14.203-.755c-.023 4.362 2.132 7.165 5.718 7.356 3.063.163 5.278-1.43 6.025-4.323l2.402.128c-1.052 4.029-4.282 6.336-8.494 6.111zm.739-17.171c-3.308-.176-5.775 2.241-6.301 6.228l11.662.62c.009-4.119-1.985-6.669-5.361-6.848zm25.371 13.079c-.179 3.377-3.006 5.321-7.531 5.081-4.561-.243-7.223-2.689-7.37-6.502l2.333.124c.035 2.62 2.002 4.366 5.135 4.533 2.994.159 4.865-.894 4.976-2.982.096-1.811-.904-2.702-3.659-3.407l-2.618-.663c-3.446-.846-5.2-2.65-5.06-5.296.163-3.064 2.994-5.078 6.997-4.865 4.212.224 6.877 2.635 6.961 6.305l-2.298-.122c-.108-2.554-1.874-4.149-4.763-4.303-2.576-.137-4.416.987-4.518 2.902-.096 1.81.971 2.74 3.659 3.406l2.722.669c3.619.89 5.173 2.509 5.034 5.12zm15.607-16.695c-.057 1.079-.899 1.802-2.082 1.739-1.149-.061-1.909-.869-1.852-1.948.056-1.045.897-1.768 2.046-1.707 1.184.063 1.944.872 1.888 1.916zm-1.933 22.554-2.436-.129.975-18.346 2.437.129zm8.24-9.406-.522 9.817-2.437-.13.975-18.346 2.263.12-.222 4.178c1.398-2.649 4.206-4.245 7.234-4.084l-.135 2.541c-3.857-.344-6.943 1.9-7.156 5.904zm10.604-8.653-2.333-.124c.303-3.719 3.401-6.173 7.404-5.96 4.247.226 6.859 2.983 6.675 6.43-.118 2.228-1.385 3.731-3.352 5.267l-1.82 1.405c-1.857 1.437-2.398 2.421-2.378 5.983l-1.706-.091c-.326-3.718-.037-5.204 2.043-6.908l1.969-1.571c1.607-1.346 2.532-2.31 2.622-4.015.122-2.298-1.487-4.199-4.342-4.351-2.645-.14-4.616 1.465-4.782 3.935zm5.465 17.362c-.067 1.254-1.09 2.107-2.378 2.038-1.253-.066-2.18-1.023-2.113-2.277.069-1.288 1.057-2.143 2.345-2.074 1.288.068 2.214 1.025 2.146 2.313z" fill="#212322"/></svg>