<svg width="460" height="255" viewBox="0 0 460 255" fill="none" xmlns="http://www.w3.org/2000/svg">
<path d="M150.913 112.142L118.786 88.3842L85.5246 112.142L52.225 87.5175L86.0841 61.773L117.705 87.448L151.473 61.773L184.213 88.3568L150.913 112.142ZM216.764 55.6009C197.517 32.2075 187.514 20.3287 168.918 11.4079C160.266 7.25676 138.03 -1.91068 110.116 1.91273C90.1751 4.64414 76.3006 12.7791 65.5579 19.0776C56.1435 24.5975 41.5721 33.1407 29.0357 49.027C11.072 71.791 7.96787 96.096 4.93028 119.881C3.38354 131.99 0.879953 153.015 6.39136 179.414C10.069 197.027 13.2159 212.101 24.2876 225.433C42.9801 247.943 72.1649 250.917 98.0644 253.555C143.796 258.215 178.64 244.467 194.85 237.851C219.316 227.863 234.437 221.691 246.712 205.346C270.627 173.5 261.396 132.796 259.13 122.804C254.024 100.292 241.331 85.4602 216.764 55.6009Z" fill="#2C2522"/>
<path d="M85.5239 80.5222C81.9693 80.5222 79.0879 83.4037 79.0879 86.9583C79.0879 90.5129 81.9693 93.3943 85.5239 93.3943C89.0785 93.3943 91.96 90.5129 91.96 86.9583C91.96 83.4037 89.0785 80.5222 85.5239 80.5222Z" fill="black"/>
<path d="M144.477 86.9566C144.477 90.5111 147.358 93.3926 150.913 93.3926C154.467 93.3926 157.349 90.5111 157.349 86.9566C157.349 83.402 154.467 80.5205 150.913 80.5205C147.358 80.5205 144.477 83.402 144.477 86.9566Z" fill="black"/>
<path d="M157.349 86.9579C157.349 90.5125 154.468 93.394 150.913 93.394C147.358 93.394 144.477 90.5125 144.477 86.9579C144.477 83.4033 147.358 80.5219 150.913 80.5219C154.468 80.5219 157.349 83.4033 157.349 86.9579ZM85.5242 93.394C81.9696 93.394 79.0882 90.5125 79.0882 86.9579C79.0882 83.4033 81.9696 80.5219 85.5242 80.5219C89.0788 80.5219 91.9603 83.4033 91.9603 86.9579C91.9603 90.5125 89.0788 93.394 85.5242 93.394ZM117.704 87.4482L86.0837 61.7732L52.2246 87.5174L85.5242 112.143L118.786 88.3844L150.913 112.143L184.213 88.357L151.472 61.7732L117.704 87.4482Z" fill="#FAFAFA"/>
<path d="M224.826 147.834C212.644 152.086 208.539 136.845 204.707 139.59C200.875 142.334 211.272 182.259 238.66 208.513C266.048 234.766 292.663 258.786 372.637 254.198C422.659 251.329 477.797 253.68 450.451 171.775C423.105 89.8702 403.302 94.3637 322.627 93.0457C212.015 91.2386 237.007 143.581 224.826 147.834Z" fill="white"/>
<path d="M269.531 130.802L268.827 141.481L266.392 141.321L268.037 116.344L270.472 116.505L269.813 126.523C271.105 124.407 273.293 123.014 275.937 123.188C279.763 123.44 282.072 126.038 281.786 130.386L281.003 142.283L278.568 142.123L279.296 131.061C279.527 127.547 278.058 125.459 275.066 125.262C272.214 125.074 269.755 127.393 269.531 130.802ZM297.4 143.363L297.62 140.023C296.391 142.248 294.073 143.493 291.22 143.305C287.428 143.056 285.098 140.771 285.316 137.466C285.552 133.883 288.528 132.193 294.094 132.559C295.207 132.633 296.037 132.757 297.837 133.015L297.938 131.485C298.14 128.424 296.624 126.507 293.841 126.324C290.849 126.127 288.849 127.847 288.617 130.836L286.391 130.689C286.764 126.626 289.76 124.099 293.934 124.373C298.213 124.655 300.553 127.325 300.273 131.569L299.487 143.5L297.4 143.363ZM287.651 137.55C287.505 139.777 289.111 141.385 291.685 141.554C295.094 141.779 297.397 139.694 297.624 136.251L297.732 134.616C296.176 134.373 295.099 134.268 294.091 134.201C289.916 133.926 287.818 135.011 287.651 137.55ZM317.654 144.697L302.975 143.73L303.092 141.956L315.315 128.227L304.392 127.508L304.53 125.421L318.444 126.337L318.321 128.216L306.173 141.845L317.792 142.61L317.654 144.697ZM335.319 146.245C330.484 145.926 327.368 141.773 327.739 136.138C328.106 130.572 331.774 126.866 336.574 127.182C340.853 127.464 343.726 130.518 344.154 135.158L341.685 134.995C341.348 131.619 339.391 129.498 336.435 129.304C333.026 129.079 330.498 131.917 330.209 136.3C329.916 140.753 332.05 143.898 335.459 144.123C338.45 144.32 340.631 142.507 341.412 139.134L343.882 139.297C342.914 143.915 339.632 146.529 335.319 146.245ZM349.78 146.813L347.345 146.652L348.99 121.676L351.425 121.836L349.78 146.813ZM359.709 124.792C359.638 125.871 358.787 126.583 357.605 126.506C356.457 126.43 355.707 125.612 355.778 124.534C355.847 123.49 356.697 122.777 357.845 122.853C359.028 122.931 359.778 123.749 359.709 124.792ZM357.491 147.321L355.056 147.16L356.264 128.828L358.699 128.988L357.491 147.321ZM369.596 148.502C364.76 148.184 361.645 144.031 362.016 138.395C362.383 132.829 366.051 129.123 370.851 129.439C375.13 129.721 378.003 132.775 378.431 137.415L375.961 137.252C375.625 133.876 373.668 131.756 370.711 131.561C367.302 131.337 364.775 134.175 364.486 138.558C364.193 143.011 366.326 146.156 369.735 146.38C372.727 146.577 374.908 144.764 375.689 141.392L378.159 141.555C377.191 146.172 373.909 148.786 369.596 148.502ZM384.057 149.07L381.622 148.91L383.267 123.933L385.702 124.094L384.703 139.261L394.1 131.32L396.987 131.51L387.143 139.875L396.545 149.893L393.379 149.684L384.636 140.269L384.057 149.07ZM278.408 179.542C273.26 179.203 270.105 175.117 270.488 169.308C270.841 163.95 274.652 160.184 279.522 160.504C284.74 160.848 287.872 165.282 287.068 171.133L272.875 170.198C272.797 174.56 274.917 177.39 278.5 177.626C281.561 177.828 283.795 176.263 284.579 173.38L286.979 173.538C285.876 177.553 282.617 179.819 278.408 179.542ZM279.364 162.381C276.059 162.163 273.561 164.549 272.985 168.529L284.638 169.296C284.7 165.178 282.738 162.603 279.364 162.381ZM293.664 169.471L292.961 180.151L290.526 179.99L291.733 161.658L293.994 161.807L293.768 165.251C295.099 163.068 297.426 161.684 300.07 161.858C303.897 162.11 306.206 164.707 305.92 169.056L305.136 180.953L302.701 180.792L303.43 169.73C303.661 166.217 302.192 164.129 299.2 163.932C296.347 163.744 293.889 166.062 293.664 169.471ZM319.968 181.929L317.533 181.769L319.178 156.793L321.613 156.953L319.968 181.929ZM332.561 183.108C327.517 182.776 324.128 178.535 324.492 173.004C324.854 167.508 328.768 163.783 333.812 164.115C338.891 164.449 342.282 168.656 341.92 174.152C341.556 179.683 337.64 183.443 332.561 183.108ZM332.701 180.986C336.284 181.222 339.15 178.546 339.451 173.989C339.746 169.502 337.255 166.473 333.672 166.237C330.124 166.003 327.258 168.679 326.962 173.167C326.662 177.724 329.153 180.753 332.701 180.986ZM359.296 179.384C359.073 182.758 356.223 184.667 351.7 184.369C347.143 184.069 344.512 181.589 344.414 177.775L346.744 177.928C346.746 180.549 348.691 182.319 351.822 182.525C354.814 182.722 356.698 181.693 356.835 179.606C356.955 177.797 355.966 176.894 353.22 176.154L350.61 175.458C347.175 174.568 345.444 172.742 345.618 170.098C345.82 167.037 348.675 165.059 352.675 165.322C356.885 165.6 359.519 168.044 359.556 171.715L357.26 171.564C357.184 169.008 355.439 167.391 352.552 167.201C349.978 167.031 348.123 168.132 347.997 170.045C347.878 171.854 348.934 172.797 351.613 173.498L354.327 174.2C357.933 175.137 359.468 176.775 359.296 179.384ZM308.015 208.999C307.641 214.669 304.222 218.322 299.351 218.001C296.603 217.82 294.371 216.171 293.291 213.479L292.601 223.95L290.166 223.79L291.816 198.744L294.077 198.893L293.816 202.858C295.247 200.227 297.787 198.788 300.605 198.973C305.475 199.294 308.384 203.398 308.015 208.999ZM305.545 208.836C305.85 204.21 303.63 201.304 300.047 201.068C296.638 200.843 293.92 203.389 293.613 208.05C293.313 212.607 295.595 215.623 299.074 215.852C302.657 216.088 305.236 213.532 305.545 208.836ZM318.648 219.272C313.603 218.94 310.214 214.699 310.579 209.168C310.941 203.672 314.854 199.947 319.898 200.279C324.977 200.613 328.369 204.819 328.007 210.316C327.642 215.847 323.726 219.607 318.648 219.272ZM318.787 217.15C322.37 217.386 325.237 214.71 325.537 210.153C325.832 205.666 323.342 202.637 319.759 202.401C316.21 202.167 313.344 204.843 313.049 209.331C312.748 213.888 315.239 216.916 318.787 217.15ZM334.421 210.109L333.774 219.919L331.339 219.759L332.547 201.426L334.808 201.575L334.533 205.749C335.964 203.119 338.792 201.558 341.818 201.757L341.651 204.297C337.799 203.903 334.684 206.109 334.421 210.109ZM354.237 218.926L354.095 221.083C353.13 221.403 352.321 221.49 351.416 221.43C348.39 221.231 346.162 219.512 346.424 215.546L347.154 204.45L342.841 204.165L342.976 202.113L347.29 202.397L347.647 196.971L350.082 197.131L349.725 202.558L355.464 202.936L355.329 204.988L349.589 204.61L348.893 215.185C348.705 218.037 350.032 219.103 352.05 219.236C352.815 219.286 353.451 219.188 354.237 218.926ZM369.209 222.253L369.429 218.913C368.2 221.138 365.882 222.383 363.029 222.195C359.238 221.945 356.908 219.661 357.125 216.356C357.361 212.773 360.337 211.082 365.903 211.449C367.016 211.522 367.847 211.647 369.646 211.905L369.747 210.375C369.949 207.313 368.433 205.397 365.65 205.214C362.658 205.017 360.659 206.736 360.427 209.726L358.2 209.579C358.573 205.516 361.569 202.988 365.744 203.263C370.022 203.545 372.362 206.215 372.082 210.459L371.297 222.39L369.209 222.253ZM359.46 216.44C359.314 218.666 360.92 220.274 363.494 220.444C366.903 220.668 369.206 218.584 369.433 215.14L369.541 213.505C367.985 213.263 366.909 213.157 365.9 213.091C361.725 212.816 359.628 213.901 359.46 216.44ZM378.854 222.888L376.419 222.728L378.064 197.751L380.499 197.911L378.854 222.888ZM391.308 224.058C386.16 223.718 383.005 219.633 383.388 213.823C383.74 208.466 387.552 204.7 392.422 205.02C397.64 205.364 400.772 209.798 399.967 215.649L385.774 214.714C385.697 219.076 387.816 221.906 391.399 222.142C394.46 222.344 396.695 220.779 397.478 217.896L399.879 218.054C398.776 222.069 395.517 224.335 391.308 224.058ZM392.264 206.896C388.959 206.679 386.461 209.065 385.884 213.045L397.538 213.812C397.599 209.693 395.638 207.119 392.264 206.896ZM417.468 220.295C417.246 223.67 414.395 225.578 409.873 225.28C405.316 224.98 402.684 222.501 402.586 218.686L404.917 218.84C404.919 221.46 406.864 223.23 409.994 223.437C412.986 223.634 414.871 222.605 415.008 220.518C415.127 218.709 414.139 217.805 411.392 217.065L408.783 216.369C405.348 215.479 403.616 213.653 403.791 211.01C403.992 207.948 406.848 205.97 410.848 206.234C415.057 206.511 417.691 208.955 417.729 212.626L415.433 212.475C415.357 209.92 413.611 208.302 410.724 208.112C408.15 207.943 406.296 209.043 406.17 210.957C406.051 212.766 407.106 213.709 409.785 214.409L412.499 215.112C416.106 216.048 417.64 217.686 417.468 220.295Z" fill="#212322"/>
</svg>
