<svg width="825" height="895" viewBox="0 0 825 895" fill="none" xmlns="http://www.w3.org/2000/svg">
<path d="M585.695 321.399C575.426 328.287 563.541 334.435 549.783 338.952C533.961 344.148 517.444 346.669 500.841 346.669C456.115 346.669 410.783 328.374 376.764 294.826L376.784 294.808L376.687 294.76C384.642 279.359 407.153 243.67 451.564 224.56C455.491 222.87 459.527 221.262 463.805 219.857C522.263 200.661 590.176 217.983 636.823 263.98L636.805 263.999L636.901 264.049C630.505 276.432 614.703 301.938 585.695 321.399ZM273.84 321.399C263.571 328.287 251.687 334.435 237.929 338.952C222.106 344.148 205.59 346.669 188.988 346.669C144.26 346.669 98.9284 328.374 64.9111 294.826L64.9294 294.808L64.8325 294.76C72.7881 279.359 95.2984 243.67 139.71 224.56C143.637 222.87 147.673 221.262 151.951 219.857C210.41 200.661 278.323 217.983 324.969 263.98L324.951 263.999L325.048 264.049C318.651 276.432 302.849 301.938 273.84 321.399ZM744.8 174.044C723.376 143.973 678.76 89.9825 603.72 50.1217C527.441 9.60315 459.131 4.61663 424.511 2.45818C398.462 0.834771 362.114 -1.42915 317.749 8.17998C214.715 30.4965 150.745 99.0329 132.822 118.754C69.1085 188.863 53.4116 261.327 26.0601 387.567C6.78801 476.517 -6.01195 538.852 10.8089 620.158C18.8204 658.88 33.5205 725.643 88.9748 784.112C134.395 832.003 184.19 850.109 228.145 866.093C329.485 902.942 417.062 895.793 470.268 890.877C521.11 886.178 555.318 883.018 598.002 864.186C683.444 826.491 727.995 759.034 748.612 726.919C796.887 651.713 806.793 581.548 815.338 521.02C822.338 471.425 830.912 406.238 811.525 324.653C791.748 241.416 753.641 186.457 744.8 174.044Z" fill="#CAE47C"/>
<path d="M64.832 294.762L64.9289 294.81L64.9095 294.828C98.928 328.376 144.26 346.67 188.986 346.67C205.589 346.67 222.106 344.149 237.929 338.954C251.686 334.436 263.571 328.289 273.84 321.402L139.709 224.562C95.2979 243.672 72.7876 279.361 64.832 294.762Z" fill="white"/>
<path d="M324.97 263.979C278.323 217.982 210.411 200.66 151.952 219.856C147.674 221.262 143.638 222.869 139.711 224.559L273.842 321.398C302.85 301.937 318.652 276.431 325.048 264.048L324.952 263.998L324.97 263.979Z" fill="black"/>
<path d="M376.688 294.762L376.784 294.81L376.766 294.828C410.783 328.376 456.115 346.67 500.842 346.67C517.444 346.67 533.961 344.149 549.784 338.954C563.541 334.436 575.426 328.289 585.695 321.402L451.565 224.562C407.153 243.672 384.643 279.361 376.688 294.762Z" fill="white"/>
<path d="M636.826 263.979C590.179 217.982 522.267 200.66 463.808 219.856C459.53 221.262 455.494 222.869 451.566 224.559L585.697 321.398C614.705 301.937 630.508 276.431 636.904 264.048L636.808 263.998L636.826 263.979Z" fill="black"/>
</svg>
