<svg fill="none" height="895" viewBox="0 0 825 895" width="825" xmlns="http://www.w3.org/2000/svg"><path d="m585.695 321.399c-10.269 6.888-22.154 13.036-35.912 17.553-15.822 5.196-32.339 7.717-48.942 7.717-44.726 0-90.058-18.295-124.077-51.843l.02-.018-.097-.048c7.955-15.401 30.466-51.09 74.877-70.2 3.927-1.69 7.963-3.298 12.241-4.703 58.458-19.196 126.371-1.874 173.018 44.123l-.018.019.096.05c-6.396 12.383-22.198 37.889-51.206 57.35zm-311.855 0c-10.269 6.888-22.153 13.036-35.911 17.553-15.823 5.196-32.339 7.717-48.941 7.717-44.728 0-90.0596-18.295-124.0769-51.843l.0183-.018-.0969-.048c7.9556-15.401 30.4659-51.09 74.8775-70.2 3.927-1.69 7.963-3.298 12.241-4.703 58.459-19.196 126.372-1.874 173.018 44.123l-.018.019.097.05c-6.397 12.383-22.199 37.889-51.208 57.35zm470.96-147.355c-21.424-30.071-66.04-84.0615-141.08-123.9223-76.279-40.51855-144.589-45.50507-179.209-47.66352-26.049-1.623409-62.397-3.88733-106.762 5.7218-103.034 22.31652-167.004 90.85292-184.927 110.57402-63.7135 70.109-79.4104 142.573-106.7619 268.813-19.27209 88.95-32.07205 151.285-15.2512 232.591 8.0115 38.722 22.7116 105.485 78.1659 163.954 45.4202 47.891 95.2152 65.997 139.1702 81.981 101.34 36.849 188.917 29.7 242.123 24.784 50.842-4.699 85.05-7.859 127.734-26.691 85.442-37.695 129.993-105.152 150.61-137.267 48.275-75.206 58.181-145.371 66.726-205.899 7-49.595 15.574-114.782-3.813-196.367-19.777-83.237-57.884-138.196-66.725-150.609z" fill="#cae47c"/><path d="m64.832 294.762.0969.048-.0194.018c34.0185 33.548 79.3505 51.842 124.0765 51.842 16.603 0 33.12-2.521 48.943-7.716 13.757-4.518 25.642-10.665 35.911-17.552l-134.131-96.84c-44.4111 19.11-66.9214 54.799-74.877 70.2z" fill="#fff"/><path d="m324.97 263.979c-46.647-45.997-114.559-63.319-173.018-44.123-4.278 1.406-8.314 3.013-12.241 4.703l134.131 96.839c29.008-19.461 44.81-44.967 51.206-57.35l-.096-.05z" fill="#000"/><path d="m376.688 294.762.096.048-.018.018c34.017 33.548 79.349 51.842 124.076 51.842 16.602 0 33.119-2.521 48.942-7.716 13.757-4.518 25.642-10.665 35.911-17.552l-134.13-96.84c-44.412 19.11-66.922 54.799-74.877 70.2z" fill="#fff"/><path d="m636.826 263.979c-46.647-45.997-114.559-63.319-173.018-44.123-4.278 1.406-8.314 3.013-12.242 4.703l134.131 96.839c29.008-19.461 44.811-44.967 51.207-57.35l-.096-.05z" fill="#000"/></svg>