<svg fill="none" height="90" viewBox="0 0 91 90" width="91" xmlns="http://www.w3.org/2000/svg"><path d="m66.6202 13.8047h-43.8953l-9.0042 13.5062 31.5146 42.7698 31.5146-42.7698z" fill="#b4e4ff" stroke="#212322" stroke-width="2.25104"/><path d="m23.2953 11.5675c-.043.0088-.1722.035-.2928.0613-.3015.0701-.9992.6567-1.2749 1.0857-.379.5779-.5512.8319-.9561 1.3572-.2153.289-.4823.6567-.5943.8318-.112.1839-.3532.4991-.5255.718-.1722.2189-.422.5516-.5426.7443-.1292.1926-.3446.5078-.4824.7004-.1464.1927-.3704.5079-.4996.7005-.1292.1927-.4134.5692-.6288.8406-.2153.2714-.5426.718-.7321.9982s-.3877.5516-.4393.6041c-.0517.0526-.1981.254-.3274.4466-.1205.1926-.3359.4903-.4651.6654-.1292.1752-.5943.8231-1.025 1.4448-.4393.6216-1.0164 1.4272-1.2748 1.7862-.491.6829-1.0078 1.4009-1.4816 2.0926-.1809.2627-.2842.5079-.2842.7005 0 .2977.3014.8756.7666 1.471.1292.1489.3617.4641.5254.683.1637.2276.3445.4553.3876.5166.112.1313.7494 1.0069.9131 1.2521.0689.0963.3014.4203.534.718 1.2059 1.576 1.5419 2.0226 1.9123 2.548.1119.1663.3962.5516.6201.8493.5082.6654 1.7314 2.3203 1.964 2.653.0947.1314.3703.5079.6029.8231.2412.324.5685.7793.7322 1.0244.3015.4466.4565.648 1.249 1.6637.2411.2977.4909.6304.5598.7442.069.1051.4221.5779.7753 1.0507.3531.4816.7235.9719.8183 1.1033.9216 1.2783 1.5332 2.1014 1.9036 2.548.2412.2977.5427.7004.6719.8931.3962.6041.8269 1.182 1.7572 2.3378.1464.1926.2756.3853.2756.429 0 .0351.1034.1927.2412.3328.1292.1488.4823.6216.7924 1.0594s.8528 1.1821 1.2146 1.6549c.3617.4728.7321.9719.8183 1.112.0861.1401.2067.289.267.3415.0603.0438.1981.2101.3015.3677.8527 1.2171 1.3093 1.8388 1.8433 2.5218.3359.429.6546.8756.7063.9806.0603.1051.1723.2539.2498.3415.0862.0788.2154.2364.2843.3502.0689.1051.3014.4291.5168.7093.2153.2802.4565.6041.5427.7267.1636.2364.3962.5429 1.0078 1.3659.2153.2802.4479.5954.5168.7005s.422.5779.7752 1.042c.3532.4728.7063.9369.7666 1.0419.0689.0963.2929.3765.4824.6217.1981.2364.4048.5166.4565.6217.0861.1663.4393.6392.8786 1.1733.0948.1226.2412.3239.3273.4553.1551.2451 1.1456 1.5761 1.2232 1.6461.0258.0263.2325.2977.4651.6129.8097 1.1208.8958 1.2258 1.4213 1.6461.4565.359.9561.3328 1.5418-.105.2412-.1839.4479-.3678.4479-.4028s.2412-.3765.5427-.7618c.2929-.3765.6288-.823.7494-.9894.112-.1664.3187-.4466.4479-.6129.1292-.1664.3704-.4816.534-.7005.1723-.2189.4221-.5516.5685-.7442.1465-.1927.3532-.4816.4566-.6305.1033-.1576.4306-.6129.7321-1.0069.6374-.8581 1.2059-1.6199 1.628-2.189.1637-.2364.3359-.4203.3704-.4203.0431 0 .0948-.07.1206-.1576.0517-.1401.1809-.3327 1.3265-1.8475.267-.359.6891-.9281.9303-1.2696.2498-.3415.5082-.6917.5771-.7705.0775-.0788.2067-.2539.2929-.394.0861-.1314.3273-.4729.5426-.7531.2154-.2801.4565-.6129.5341-.7355.0775-.1225.1809-.2539.2239-.2801.0862-.0526 1.0767-1.3747 1.3265-1.7775.0862-.1313.2326-.3327.336-.4378.0947-.1138.6546-.8581 1.2317-1.6636.5858-.7968 1.1629-1.5849 1.2835-1.7512.6288-.8143.8183-1.0507 1.3868-1.83.3359-.4553.7149-.9719.8355-1.1383.5771-.7705 1.5074-2.0401 1.628-2.2152.1033-.1489 1.3954-1.9001 2.6874-3.6337.1292-.1752.3101-.4116.3877-.5342.3531-.5166 1.2059-1.6548 1.5849-2.1014.2153-.2627.4651-.6041.534-.7442.0775-.1489.3187-.4816.5255-.7443.2153-.2627.5512-.718.7493-1.0069.1982-.289.6547-.9019 1.0165-1.3572.3617-.4553.7235-.9456.8183-1.0945.0861-.1401.3273-.4728.5426-.718.2068-.2539.5255-.6742.6977-.9194.1637-.2539.5513-.7792.8528-1.1645s.6374-.8406.7666-1.0069c.1206-.1664.4565-.6305.7494-1.0245s.6288-.8581.7494-1.0332.3187-.4465.4479-.6041c.3359-.4116.758-1.2609.758-1.5236 0-.1226-.0948-.3677-.1981-.5341-.112-.1751-.2584-.4028-.3273-.4991-.0689-.105-.3101-.4553-.5513-.7705-1.0337-1.4009-1.3954-1.9088-1.6797-2.3291-.1636-.2364-.5168-.7267-.7752-1.077-.267-.3414-.5513-.7442-.646-.8843-.2757-.4028-.491-.7005-.9217-1.2609-.2153-.2889-.4479-.6129-.4996-.7267-.0603-.1138-.2153-.3327-.3359-.4816-.3015-.3677-1.0509-1.3922-1.2318-1.6899-.0775-.1226-.1895-.2802-.2498-.3502-.0603-.0701-.3618-.4816-.6632-.9194-.3015-.4378-.6288-.8931-.715-1.0157-.0947-.1226-.267-.3765-.3962-.5691-.1206-.1926-.2584-.3765-.3101-.4028-.0431-.035-.1637-.1926-.267-.3677-.4135-.683-.8528-1.1996-1.3093-1.5148l-.4737-.3327-22.0511-.0088c-12.1194 0-22.0682.0088-22.1027.0175zm12.2573 3.1784c.0775.0701.1034.1839.0689.2977-.0431.1751-.5513 1.3134-.7322 1.6549-.0775.1488-.1636.3677-.7149 1.8387-.1206.324-.2756.6743-.3445.7881-.0603.105-.1809.4028-.2671.6479-.0775.2539-.1722.4816-.2153.5079-.0431.0262-.1378.2539-.224.5078-.0775.2452-.1981.5166-.267.5954-.0689.0876-.1723.3502-.2412.5954-.0603.2452-.1895.5692-.2842.7268-.0948.1576-.2154.4465-.2757.6391-.0603.1927-.2067.5254-.3187.7355-.1033.2102-.1981.4291-.1981.4816 0 .3503-.1981.7268-.4479.8844-.2756.1663-.491.1751-7.3475.2014-3.8847.0087-7.1493 0-7.2527-.0263-.3617-.0876-.3273-.3503.1206-.9106.4393-.5517 1.0767-1.4185 1.9381-2.6356.8441-1.1908 1.3179-1.8475 2.0328-2.8019.2757-.359.5513-.7442.6202-.8493.6202-.9106 1.9553-2.7231 2.7305-3.6862l.1809-.2365 2.1879-.0525c3.7125-.0788 9.0961-.0263 9.2511.0963zm15.72-.0175c.155.0788.3101.2102.3445.2802.1895.3765.5771 1.2959.6288 1.4885.0345.1226.1464.4115.2584.6567.6288 1.3484.7322 1.6023.7839 1.8563.0258.1488.1119.3239.1809.3852.0602.0526.1808.2977.2497.5516.069.2452.224.6392.336.8844.1981.394.4737 1.0507 1.1714 2.7581.1292.3152.3187.7355.4135.9282.267.5253.3187.9368.1464 1.112-.1292.1401-.9819.1488-10.5431.1488-10.1642 0-10.4053 0-10.5518-.1664-.1722-.1926-.1464-.3414.1637-1.0156.3187-.6918.7924-1.8213.8614-2.0489.0344-.1226.155-.3941.267-.6042.112-.2189.2067-.4553.2067-.5341s.112-.359.2584-.6217c.1378-.2627.2498-.5428.2584-.6217 0-.0788.1206-.3589.2584-.6304.1465-.2714.2585-.5428.2585-.6041s.1205-.3503.2584-.6392c.1378-.289.2584-.5779.2584-.6392s.1206-.3327.2584-.6042c.1464-.2714.2584-.5516.2584-.6304s.0947-.3327.2153-.5779c.112-.2364.2671-.5866.336-.7618.0947-.2451.1981-.3414.4134-.4115.1637-.0438 2.6444-.0788 6.021-.0788 5.2113-.0087 5.7712.0088 6.0296.1401zm15.0825-.0438c.0862.0438.4135.4378.7322.8756.491.683 1.4988 2.0752 2.4118 3.3273.1292.1751.4049.5341.5944.788.1981.2452.4737.6217.6029.8143.5427.7968 2.8425 3.984 3.3852 4.6932.2067.2714.1723.4466-.1292.5867-.2929.1313-13.7991.14-14.2729 0-.4048-.1139-.6632-.359-.6632-.6392 0-.1139-.112-.4291-.2498-.6918-.1379-.2626-.2757-.6129-.3101-.7792-.0345-.1576-.1723-.5079-.3015-.7706-.1378-.2626-.267-.6216-.3015-.788-.0344-.1664-.1378-.4028-.2239-.5166-.0948-.1138-.2068-.3677-.2585-.5691-.0516-.1927-.1636-.4553-.2497-.5779-.0862-.1226-.1982-.394-.2585-.6042-.0516-.2101-.155-.4728-.2239-.5779-.0603-.0963-.1895-.4027-.2843-.6742-.0947-.2714-.2239-.5866-.2928-.7005-.0689-.105-.1895-.4115-.2757-.6566-.0775-.254-.1722-.4816-.2153-.5079s-.1206-.1926-.1723-.3765c-.0517-.1751-.2153-.5691-.3704-.8668-.2584-.5079-.267-.5429-.1292-.7005.1465-.1576.3704-.1664 5.7281-.1576 3.0751 0 5.6506.035 5.7281.07zm-35.4022 14.3072c.0861.0788.155.2014.155.2802s.0776.289.1723.4641c.0948.1751.2067.5604.2498.8406.0431.2889.1551.6742.2498.8668.0948.1839.2153.5604.267.8318.0431.2802.1637.6742.2584.8756.0862.2102.2068.5954.2498.8581.0517.2627.1895.7005.3101.9631.1206.2627.224.5955.224.7443 0 .1401.0947.4728.2153.7267.112.254.2584.7268.3101 1.0508.0603.3239.1723.6742.2498.788.0862.1051.1809.4028.2154.6567.0344.2452.1464.6742.2584.9369.1119.2627.2412.718.3014 1.0069.0603.289.1723.6655.2585.8406.0861.1663.2067.5604.2584.8668.0517.3065.1722.7005.2584.8756.0861.1751.1981.5604.2584.8581.0517.2977.1895.753.3015.9982.1206.2539.2153.5779.2153.7267 0 .1401.0948.4728.2154.718.1119.2539.2411.6742.2928.9369.0517.2714.1723.6479.267.8493.1034.1926.224.5954.2671.8844.043.2889.155.6742.2498.8493.0861.1839.2067.5691.2584.8756.0517.2977.1722.6917.267.8756.0861.1751.2067.5604.2584.8493.0517.2802.1895.718.3015.9632.112.2451.2067.5779.2067.7442 0 .1664.0775.4291.1723.5867.1034.1663.2412.5954.3187.9631.0689.3765.1981.8143.2842.9894.0862.1664.2068.5604.2585.8669.0516.3064.1722.7005.2584.8668.0861.1751.1981.5429.2584.8231.0517.2802.1981.7004.3101.9193.1119.2277.2325.6305.2584.9019.043.4115.0344.4991-.0948.5516-.2067.0788-.2412.0351-.7063-.6742-.2239-.3502-.5685-.8318-.7666-1.0682-.1981-.2452-.4221-.5604-.491-.7092-.0775-.1489-.1981-.2977-.267-.324s-.1981-.1839-.2757-.3415c-.0775-.1576-.2497-.4115-.3703-.5691-.1206-.1489-.3618-.4641-.5255-.7005-.1636-.2276-.5943-.7968-.9561-1.2521-.3618-.4641-.7063-.9369-.7666-1.0507-.0603-.1226-.1895-.2977-.2756-.394-.1551-.1576-.6116-.7618-1.0337-1.366-.2326-.3414-.9561-1.3133-1.249-1.6898-.155-.2014-.3531-.4554-.4307-.5779-.0775-.1226-.267-.359-.4134-.5342-.1378-.1751-.4652-.6129-.7149-.9631-.2498-.359-.7753-1.077-1.1629-1.6023-.3876-.5166-.7838-1.0595-.8786-1.1909-.0947-.1313-.3445-.464-.5599-.7442-.4996-.6567-.8183-1.0857-1.0078-1.3572-.267-.394-1.2662-1.6986-1.4212-1.8737-.0862-.0964-.1551-.2102-.1551-.254s-.1292-.2276-.2756-.4115c-.3618-.4115-1.0078-1.2609-1.2748-1.6636-.112-.1664-.2326-.324-.2585-.3503-.0258-.0262-.1205-.1663-.2067-.3064-.0947-.1489-.3273-.4641-.5254-.7005-.1981-.2452-.4652-.5954-.5858-.788-.1292-.1927-.4306-.6042-.6718-.9194-.8958-1.1558-2.1965-2.9157-2.3688-3.2047-.0947-.1663-.2325-.3502-.3015-.4115-.0775-.0526-.2325-.2627-.3617-.4553-.1292-.1927-.491-.6917-.8097-1.112-.3273-.4203-.7408-.9807-.9303-1.2609-.1895-.2714-.534-.7355-.7752-1.0332-.4393-.5429-.8183-1.077-.8183-1.1558 0-.1663 1.1456-.2014 7.4853-.2014 6.4947-.0087 7.1149 0 7.2613.1401zm25.2295-.0175c.1119.1139.1292.2102.0775.4466-.0431.1751-.1292.3765-.2067.4553-.069.0875-.1637.394-.2154.6917-.0431.2977-.1464.6655-.2326.8318-.0861.1576-.1981.5429-.267.8581-.0603.3065-.1723.683-.2498.8318-.0689.1401-.2067.5867-.3015.9894-.0861.3941-.2153.8143-.2842.9194s-.1723.4466-.224.753c-.0516.3152-.1722.7093-.2584.8844-.0861.1751-.2067.5691-.2584.8843-.0517.3065-.1723.6742-.2498.8231-.0861.1401-.2067.5166-.2584.823-.0603.3065-.1809.7005-.267.8669-.0948.1751-.1895.4903-.224.7092-.0344.2189-.1464.6217-.2498.8844-.1119.2626-.2411.718-.3014 1.0069s-.1723.6654-.2585.8318c-.0861.1751-.2067.5691-.267.8756-.0517.3152-.1723.7092-.2584.8844-.0861.1751-.1981.5691-.2412.8668-.0517.3065-.155.6217-.2325.7092-.0776.0876-.1895.4291-.2498.7705-.0689.3328-.1982.7618-.2929.9544-.0948.1927-.2153.613-.267.9369-.0517.324-.1723.7443-.2671.9369-.0947.1839-.2153.5692-.2584.8406-.0516.2714-.1636.6129-.2498.7618-.0861.1401-.1981.5078-.2584.8055-.0517.3065-.1895.7618-.3014 1.0069-.1206.254-.2154.5779-.2154.7093 0 .1313-.0947.464-.2067.7442-.112.2715-.2498.7355-.3101 1.0245-.0603.2889-.1723.6654-.2584.8318-.0775.1663-.2154.6041-.2929.9631s-.1981.7706-.2756.9194c-.0689.1401-.1723.4816-.224.7443-.043.2626-.1464.5954-.2153.7442-.0775.1401-.2068.5604-.2843.9194-.0861.359-.2325.8493-.3273 1.0945-.0947.2364-.2153.6304-.2584.8756-.1034.4816-.4393 1.471-.603 1.7512-.0861.1488-.1119.1576-.1895.0437-.043-.07-.1292-.2889-.1722-.4815-.0517-.1927-.1809-.5692-.2929-.8318-.112-.2627-.224-.6655-.2584-.8931-.0259-.2189-.1206-.5517-.2154-.7443-.0947-.1839-.2153-.5779-.267-.8756-.0517-.3065-.1895-.7618-.3015-1.0069-.1205-.254-.2153-.5517-.2153-.6655s-.0775-.3852-.1723-.6129c-.0861-.2277-.2412-.7267-.3359-1.112-.0948-.3853-.2326-.8318-.3101-.9807-.0775-.1488-.1895-.5779-.2584-.9456-.0689-.3678-.2067-.7705-.3015-.8931-.1034-.1314-.1723-.359-.1723-.5429 0-.1751-.0947-.5253-.2153-.7793-.112-.2451-.2498-.7004-.3015-.9981-.0603-.2977-.1723-.683-.2584-.8581s-.2067-.5692-.2584-.8844c-.0517-.3064-.1723-.6829-.2584-.823-.0861-.1489-.2067-.5166-.2584-.8231-.0517-.3064-.1723-.6917-.2584-.8581-.0862-.1663-.2068-.5866-.2671-.9281-.0603-.3502-.1895-.7355-.2756-.8668-.0947-.1314-.2067-.4466-.2412-.7093-.0258-.2539-.1378-.6392-.2325-.8581-.0948-.2101-.2154-.6216-.2757-.9106-.0603-.2889-.1723-.6654-.2584-.8318-.0861-.1751-.1809-.5078-.2153-.7442-.0345-.2452-.1723-.6918-.3015-1.007s-.2584-.7442-.2929-.9544c-.0344-.2101-.1292-.5428-.2153-.7442-.0948-.1927-.2068-.6129-.267-.9282-.0517-.3152-.1723-.6917-.2585-.8318-.0861-.1488-.2067-.5166-.2584-.8318s-.1722-.6917-.2584-.8318c-.0861-.1489-.1981-.5078-.2498-.8055-.043-.289-.155-.683-.2498-.8756-.0947-.1839-.2239-.5954-.2842-.9019-.0517-.3152-.1723-.7092-.2498-.8756-.0862-.1664-.1981-.5429-.2584-.8318-.0603-.289-.1981-.753-.3101-1.0245-.112-.2802-.2068-.6304-.2068-.7968 0-.1751-.0861-.4115-.2153-.5866-.2584-.3502-.2842-.8231-.0603-.9544.0948-.0613 3.7556-.0876 10.9049-.0963 9.6043 0 10.7757.0175 10.9136.1313zm17.9423-.0175c.1464.1051.1464.1314-.0431.4553-.1034.1927-.2843.4466-.4049.5692-.1895.2101-.9475 1.2083-1.5246 2.0226-.1378.2014-.5168.7092-.8355 1.1207-.3187.4116-.6805.8931-.8011 1.0595-.1292.1664-.422.5604-.6546.8756s-.5168.7092-.6288.8756-.4565.6304-.7666 1.0244c-.3101.3941-.6374.8319-.7236.9632-.0775.1313-.2498.3678-.3704.5254-.379.4903-.5857.753-1.0078 1.3396-.2239.3152-.4565.6304-.5168.7005-.4824.6217-.7149.9369-.9733 1.3221-.1637.2452-.4049.5604-.5341.7005-.1378.1489-.2412.289-.2412.324s-.1206.2014-.2584.3677c-.1464.1664-.4048.5166-.5857.7706-.1723.2626-.491.7004-.7063.9806-.2154.2802-.5255.6917-.6891.9194-.1637.2189-.4479.5779-.6202.7968-.1809.2189-.3273.429-.3273.4641 0 .0437-.2068.3327-.4479.6391-.2498.3153-.6891.9019-.9734 1.2959-.2842.4028-.6374.8931-.7924 1.0858-.1551.2013-.3963.5166-.5513.7092-.1465.1926-.8872 1.1908-1.6366 2.224-.758 1.0332-1.4557 1.9788-1.5505 2.1014-.5513.7092-1.0509 1.401-1.2059 1.6549-.1034.1488-.2153.2802-.2498.2802-.0431 0-.1637.1488-.267.324-.112.1838-.379.5603-.6116.8405-.2239.2802-.4134.5516-.4134.6042 0 .0525-.1293.2451-.2757.4203-.4823.5603-1.671 2.2065-1.895 2.6268-.1378.2364-.1723.2626-.3359.1663-.1637-.0875-.1809-.1401-.1292-.5954.0344-.2714.1722-.7267.3101-1.0244.1464-.289.2584-.648.2584-.7881s.0947-.464.2153-.718c.112-.2451.2498-.7004.3015-.9981.0603-.2977.1723-.6918.267-.8756.0948-.1839.224-.6217.2843-.9719.0689-.359.2067-.7793.3014-.9457.1034-.1663.1809-.4115.1809-.5428 0-.1314.0948-.4641.2068-.7443.1119-.2714.2498-.7267.3014-.9982.0431-.2714.1637-.6479.2498-.8318.0948-.1839.2068-.5779.2671-.8843.0603-.2977.1981-.7531.3101-1.007.1205-.2451.2153-.5691.2153-.7092s.0947-.4553.2067-.7005.2498-.6917.3101-.9982c.0517-.3064.1895-.7355.3101-.9544.112-.2189.2067-.5253.2067-.6742 0-.1488.0862-.4465.1809-.6654.0948-.2189.2326-.6567.3015-.9894.0603-.324.1895-.7355.2843-.9194.0861-.1751.2067-.5954.2584-.9281.0603-.3328.1809-.7531.2756-.9457.0948-.1839.2153-.5604.2584-.8406.0517-.2714.1637-.6304.2498-.8055.0861-.1664.2067-.5691.2584-.8756.0603-.3152.1809-.6917.2584-.8318.0862-.1489.1809-.4641.2154-.7005.0344-.2452.1722-.7005.3101-1.0244.1378-.3152.2498-.6918.2498-.8318 0-.1314.0947-.4554.2153-.7093.112-.2451.2498-.7005.3015-1.0069.0517-.2977.1636-.683.2584-.8581.0861-.1664.1981-.5429.2498-.8318.0603-.2802.1981-.7355.3015-.9982.1119-.2627.2325-.683.267-.9194.0344-.2451.1292-.5603.2239-.7092.0862-.1488.1637-.359.1637-.4553 0-.1051.0861-.2452.1895-.3152.1723-.1226 1.0078-.1401 7.3044-.1401 5.7023 0 7.1494.0263 7.27.1138z" fill="#212322"/></svg>