<svg width="91" height="90" viewBox="0 0 91 90" fill="none" xmlns="http://www.w3.org/2000/svg">
<path d="M66.6202 13.8047H22.7249L13.7207 27.3109L45.2353 70.0807L76.7499 27.3109L66.6202 13.8047Z" fill="#B4E4FF" stroke="#212322" stroke-width="2.25104"/>
<path d="M23.2953 11.5675C23.2523 11.5763 23.1231 11.6025 23.0025 11.6288C22.701 11.6989 22.0033 12.2855 21.7276 12.7145C21.3486 13.2924 21.1764 13.5464 20.7715 14.0717C20.5562 14.3607 20.2892 14.7284 20.1772 14.9035C20.0652 15.0874 19.824 15.4026 19.6517 15.6215C19.4795 15.8404 19.2297 16.1731 19.1091 16.3658C18.9799 16.5584 18.7645 16.8736 18.6267 17.0662C18.4803 17.2589 18.2563 17.5741 18.1271 17.7667C17.9979 17.9594 17.7137 18.3359 17.4983 18.6073C17.283 18.8787 16.9557 19.3253 16.7662 19.6055C16.5767 19.8857 16.3785 20.1571 16.3269 20.2096C16.2752 20.2622 16.1288 20.4636 15.9995 20.6562C15.879 20.8488 15.6636 21.1465 15.5344 21.3216C15.4052 21.4968 14.9401 22.1447 14.5094 22.7664C14.0701 23.388 13.493 24.1936 13.2346 24.5526C12.7436 25.2355 12.2268 25.9535 11.753 26.6452C11.5721 26.9079 11.4688 27.1531 11.4688 27.3457C11.4688 27.6434 11.7702 28.2213 12.2354 28.8167C12.3646 28.9656 12.5971 29.2808 12.7608 29.4997C12.9245 29.7273 13.1053 29.955 13.1484 30.0163C13.2604 30.1476 13.8978 31.0232 14.0615 31.2684C14.1304 31.3647 14.3629 31.6887 14.5955 31.9864C15.8014 33.5624 16.1374 34.009 16.5078 34.5344C16.6197 34.7007 16.904 35.086 17.1279 35.3837C17.6361 36.0491 18.8593 37.704 19.0919 38.0367C19.1866 38.1681 19.4622 38.5446 19.6948 38.8598C19.936 39.1838 20.2633 39.6391 20.427 39.8842C20.7285 40.3308 20.8835 40.5322 21.676 41.5479C21.9171 41.8456 22.1669 42.1783 22.2358 42.2921C22.3048 42.3972 22.6579 42.87 23.0111 43.3428C23.3642 43.8244 23.7346 44.3147 23.8294 44.4461C24.751 45.7244 25.3626 46.5475 25.733 46.9941C25.9742 47.2918 26.2757 47.6945 26.4049 47.8872C26.8011 48.4913 27.2318 49.0692 28.1621 50.225C28.3085 50.4176 28.4377 50.6103 28.4377 50.654C28.4377 50.6891 28.5411 50.8467 28.6789 50.9868C28.8081 51.1356 29.1612 51.6084 29.4713 52.0462C29.7814 52.484 30.3241 53.2283 30.6859 53.7011C31.0476 54.1739 31.418 54.673 31.5042 54.8131C31.5903 54.9532 31.7109 55.1021 31.7712 55.1546C31.8315 55.1984 31.9693 55.3647 32.0727 55.5223C32.9254 56.7394 33.382 57.3611 33.916 58.0441C34.2519 58.4731 34.5706 58.9197 34.6223 59.0247C34.6826 59.1298 34.7946 59.2786 34.8721 59.3662C34.9583 59.445 35.0875 59.6026 35.1564 59.7164C35.2253 59.8215 35.4578 60.1455 35.6732 60.4257C35.8885 60.7059 36.1297 61.0298 36.2159 61.1524C36.3795 61.3888 36.6121 61.6953 37.2237 62.5183C37.439 62.7985 37.6716 63.1137 37.7405 63.2188C37.8094 63.3239 38.1625 63.7967 38.5157 64.2608C38.8689 64.7336 39.222 65.1977 39.2823 65.3027C39.3512 65.399 39.5752 65.6792 39.7647 65.9244C39.9628 66.1608 40.1695 66.441 40.2212 66.5461C40.3073 66.7124 40.6605 67.1853 41.0998 67.7194C41.1946 67.842 41.341 68.0433 41.4271 68.1747C41.5822 68.4198 42.5727 69.7508 42.6503 69.8208C42.6761 69.8471 42.8828 70.1185 43.1154 70.4337C43.9251 71.5545 44.0112 71.6595 44.5367 72.0798C44.9932 72.4388 45.4928 72.4126 46.0785 71.9748C46.3197 71.7909 46.5264 71.607 46.5264 71.572C46.5264 71.537 46.7676 71.1955 47.0691 70.8102C47.362 70.4337 47.6979 69.9872 47.8185 69.8208C47.9305 69.6544 48.1372 69.3742 48.2664 69.2079C48.3956 69.0415 48.6368 68.7263 48.8004 68.5074C48.9727 68.2885 49.2225 67.9558 49.3689 67.7632C49.5154 67.5705 49.7221 67.2816 49.8255 67.1327C49.9288 66.9751 50.2561 66.5198 50.5576 66.1258C51.195 65.2677 51.7635 64.5059 52.1856 63.9368C52.3493 63.7004 52.5215 63.5165 52.556 63.5165C52.5991 63.5165 52.6508 63.4465 52.6766 63.3589C52.7283 63.2188 52.8575 63.0262 54.0031 61.5114C54.2701 61.1524 54.6922 60.5833 54.9334 60.2418C55.1832 59.9003 55.4416 59.5501 55.5105 59.4713C55.588 59.3925 55.7172 59.2174 55.8034 59.0773C55.8895 58.9459 56.1307 58.6044 56.346 58.3242C56.5614 58.0441 56.8025 57.7113 56.8801 57.5887C56.9576 57.4662 57.061 57.3348 57.104 57.3086C57.1902 57.256 58.1807 55.9339 58.4305 55.5311C58.5167 55.3998 58.6631 55.1984 58.7665 55.0933C58.8612 54.9795 59.4211 54.2352 59.9982 53.4297C60.584 52.6329 61.1611 51.8448 61.2817 51.6785C61.9105 50.8642 62.1 50.6278 62.6685 49.8485C63.0044 49.3932 63.3834 48.8766 63.504 48.7102C64.0811 47.9397 65.0114 46.6701 65.132 46.495C65.2353 46.3461 66.5274 44.5949 67.8194 42.8613C67.9486 42.6861 68.1295 42.4497 68.2071 42.3271C68.5602 41.8105 69.413 40.6723 69.792 40.2257C70.0073 39.963 70.2571 39.6216 70.326 39.4815C70.4035 39.3326 70.6447 38.9999 70.8515 38.7372C71.0668 38.4745 71.4027 38.0192 71.6008 37.7303C71.799 37.4413 72.2555 36.8284 72.6173 36.3731C72.979 35.9178 73.3408 35.4275 73.4356 35.2786C73.5217 35.1385 73.7629 34.8058 73.9782 34.5606C74.185 34.3067 74.5037 33.8864 74.6759 33.6412C74.8396 33.3873 75.2272 32.862 75.5287 32.4767C75.8302 32.0914 76.1661 31.6361 76.2953 31.4698C76.4159 31.3034 76.7518 30.8393 77.0447 30.4453C77.3376 30.0513 77.6735 29.5872 77.7941 29.4121C77.9147 29.237 78.1128 28.9656 78.242 28.808C78.5779 28.3964 79 27.5471 79 27.2844C79 27.1618 78.9052 26.9167 78.8019 26.7503C78.6899 26.5752 78.5435 26.3475 78.4746 26.2512C78.4057 26.1462 78.1645 25.7959 77.9233 25.4807C76.8896 24.0798 76.5279 23.5719 76.2436 23.1516C76.08 22.9152 75.7268 22.4249 75.4684 22.0746C75.2014 21.7332 74.9171 21.3304 74.8224 21.1903C74.5467 20.7875 74.3314 20.4898 73.9007 19.9294C73.6854 19.6405 73.4528 19.3165 73.4011 19.2027C73.3408 19.0889 73.1858 18.87 73.0652 18.7211C72.7637 18.3534 72.0143 17.3289 71.8334 17.0312C71.7559 16.9086 71.6439 16.751 71.5836 16.681C71.5233 16.6109 71.2218 16.1994 70.9204 15.7616C70.6189 15.3238 70.2916 14.8685 70.2054 14.7459C70.1107 14.6233 69.9384 14.3694 69.8092 14.1768C69.6886 13.9842 69.5508 13.8003 69.4991 13.774C69.456 13.739 69.3354 13.5814 69.2321 13.4063C68.8186 12.7233 68.3793 12.2067 67.9228 11.8915L67.4491 11.5588L45.398 11.55C33.2786 11.55 23.3298 11.5588 23.2953 11.5675ZM35.5526 14.7459C35.6301 14.816 35.656 14.9298 35.6215 15.0436C35.5784 15.2187 35.0702 16.357 34.8893 16.6985C34.8118 16.8473 34.7257 17.0662 34.1744 18.5372C34.0538 18.8612 33.8988 19.2115 33.8299 19.3253C33.7696 19.4303 33.649 19.7281 33.5628 19.9732C33.4853 20.2271 33.3906 20.4548 33.3475 20.4811C33.3044 20.5073 33.2097 20.735 33.1235 20.9889C33.046 21.2341 32.9254 21.5055 32.8565 21.5843C32.7876 21.6719 32.6842 21.9345 32.6153 22.1797C32.555 22.4249 32.4258 22.7489 32.3311 22.9065C32.2363 23.0641 32.1157 23.353 32.0554 23.5456C31.9951 23.7383 31.8487 24.071 31.7367 24.2811C31.6334 24.4913 31.5386 24.7102 31.5386 24.7627C31.5386 25.113 31.3405 25.4895 31.0907 25.6471C30.8151 25.8134 30.5997 25.8222 23.7432 25.8485C19.8585 25.8572 16.5939 25.8485 16.4905 25.8222C16.1288 25.7346 16.1632 25.4719 16.6111 24.9116C17.0504 24.3599 17.6878 23.4931 18.5492 22.276C19.3933 21.0852 19.8671 20.4285 20.582 19.4741C20.8577 19.1151 21.1333 18.7299 21.2022 18.6248C21.8224 17.7142 23.1575 15.9017 23.9327 14.9386L24.1136 14.7021L26.3015 14.6496C30.014 14.5708 35.3976 14.6233 35.5526 14.7459ZM51.2726 14.7284C51.4276 14.8072 51.5827 14.9386 51.6171 15.0086C51.8066 15.3851 52.1942 16.3045 52.2459 16.4971C52.2804 16.6197 52.3923 16.9086 52.5043 17.1538C53.1331 18.5022 53.2365 18.7561 53.2882 19.0101C53.314 19.1589 53.4001 19.334 53.4691 19.3953C53.5293 19.4479 53.6499 19.693 53.7188 19.9469C53.7878 20.1921 53.9428 20.5861 54.0548 20.8313C54.2529 21.2253 54.5285 21.882 55.2262 23.5894C55.3554 23.9046 55.5449 24.3249 55.6397 24.5176C55.9067 25.0429 55.9584 25.4544 55.7861 25.6296C55.6569 25.7697 54.8042 25.7784 45.243 25.7784C35.0788 25.7784 34.8377 25.7784 34.6912 25.612C34.519 25.4194 34.5448 25.2706 34.8549 24.5964C35.1736 23.9046 35.6473 22.7751 35.7163 22.5475C35.7507 22.4249 35.8713 22.1534 35.9833 21.9433C36.0953 21.7244 36.19 21.488 36.19 21.4092C36.19 21.3304 36.302 21.0502 36.4484 20.7875C36.5862 20.5248 36.6982 20.2447 36.7068 20.1658C36.7068 20.087 36.8274 19.8069 36.9652 19.5354C37.1117 19.264 37.2237 18.9926 37.2237 18.9313C37.2237 18.87 37.3442 18.581 37.4821 18.2921C37.6199 18.0031 37.7405 17.7142 37.7405 17.6529C37.7405 17.5916 37.8611 17.3202 37.9989 17.0487C38.1453 16.7773 38.2573 16.4971 38.2573 16.4183C38.2573 16.3395 38.352 16.0856 38.4726 15.8404C38.5846 15.604 38.7397 15.2538 38.8086 15.0786C38.9033 14.8335 39.0067 14.7372 39.222 14.6671C39.3857 14.6233 41.8664 14.5883 45.243 14.5883C50.4543 14.5796 51.0142 14.5971 51.2726 14.7284ZM66.3551 14.6846C66.4413 14.7284 66.7686 15.1224 67.0873 15.5602C67.5783 16.2432 68.5861 17.6354 69.4991 18.8875C69.6283 19.0626 69.904 19.4216 70.0935 19.6755C70.2916 19.9207 70.5672 20.2972 70.6964 20.4898C71.2391 21.2866 73.5389 24.4738 74.0816 25.183C74.2883 25.4544 74.2539 25.6296 73.9524 25.7697C73.6595 25.901 60.1533 25.9097 59.6795 25.7697C59.2747 25.6558 59.0163 25.4107 59.0163 25.1305C59.0163 25.0166 58.9043 24.7014 58.7665 24.4387C58.6286 24.1761 58.4908 23.8258 58.4564 23.6595C58.4219 23.5019 58.2841 23.1516 58.1549 22.8889C58.0171 22.6263 57.8879 22.2673 57.8534 22.1009C57.819 21.9345 57.7156 21.6981 57.6295 21.5843C57.5347 21.4705 57.4227 21.2166 57.371 21.0152C57.3194 20.8225 57.2074 20.5599 57.1213 20.4373C57.0351 20.3147 56.9231 20.0433 56.8628 19.8331C56.8112 19.623 56.7078 19.3603 56.6389 19.2552C56.5786 19.1589 56.4494 18.8525 56.3546 18.581C56.2599 18.3096 56.1307 17.9944 56.0618 17.8805C55.9929 17.7755 55.8723 17.469 55.7861 17.2239C55.7086 16.9699 55.6139 16.7423 55.5708 16.716C55.5277 16.6897 55.4502 16.5234 55.3985 16.3395C55.3468 16.1644 55.1832 15.7704 55.0281 15.4727C54.7697 14.9648 54.7611 14.9298 54.8989 14.7722C55.0454 14.6146 55.2693 14.6058 60.627 14.6146C63.7021 14.6146 66.2776 14.6496 66.3551 14.6846ZM30.9529 28.9918C31.039 29.0706 31.1079 29.1932 31.1079 29.272C31.1079 29.3508 31.1855 29.561 31.2802 29.7361C31.375 29.9112 31.4869 30.2965 31.53 30.5767C31.5731 30.8656 31.6851 31.2509 31.7798 31.4435C31.8746 31.6274 31.9951 32.0039 32.0468 32.2753C32.0899 32.5555 32.2105 32.9495 32.3052 33.1509C32.3914 33.3611 32.512 33.7463 32.555 34.009C32.6067 34.2717 32.7445 34.7095 32.8651 34.9721C32.9857 35.2348 33.0891 35.5676 33.0891 35.7164C33.0891 35.8565 33.1838 36.1892 33.3044 36.4431C33.4164 36.6971 33.5628 37.1699 33.6145 37.4939C33.6748 37.8178 33.7868 38.1681 33.8643 38.2819C33.9505 38.387 34.0452 38.6847 34.0797 38.9386C34.1141 39.1838 34.2261 39.6128 34.3381 39.8755C34.45 40.1382 34.5793 40.5935 34.6395 40.8824C34.6998 41.1714 34.8118 41.5479 34.898 41.723C34.9841 41.8893 35.1047 42.2834 35.1564 42.5898C35.2081 42.8963 35.3286 43.2903 35.4148 43.4654C35.5009 43.6405 35.6129 44.0258 35.6732 44.3235C35.7249 44.6212 35.8627 45.0765 35.9747 45.3217C36.0953 45.5756 36.19 45.8996 36.19 46.0484C36.19 46.1885 36.2848 46.5212 36.4054 46.7664C36.5173 47.0203 36.6465 47.4406 36.6982 47.7033C36.7499 47.9747 36.8705 48.3512 36.9652 48.5526C37.0686 48.7452 37.1892 49.148 37.2323 49.437C37.2753 49.7259 37.3873 50.1112 37.4821 50.2863C37.5682 50.4702 37.6888 50.8554 37.7405 51.1619C37.7922 51.4596 37.9127 51.8536 38.0075 52.0375C38.0936 52.2126 38.2142 52.5979 38.2659 52.8868C38.3176 53.167 38.4554 53.6048 38.5674 53.85C38.6794 54.0951 38.7741 54.4279 38.7741 54.5942C38.7741 54.7606 38.8516 55.0233 38.9464 55.1809C39.0498 55.3472 39.1876 55.7763 39.2651 56.144C39.334 56.5205 39.4632 56.9583 39.5493 57.1334C39.6355 57.2998 39.7561 57.6938 39.8078 58.0003C39.8594 58.3067 39.98 58.7008 40.0662 58.8671C40.1523 59.0422 40.2643 59.41 40.3246 59.6902C40.3763 59.9704 40.5227 60.3906 40.6347 60.6095C40.7466 60.8372 40.8672 61.24 40.8931 61.5114C40.9361 61.9229 40.9275 62.0105 40.7983 62.063C40.5916 62.1418 40.5571 62.0981 40.092 61.3888C39.8681 61.0386 39.5235 60.557 39.3254 60.3206C39.1273 60.0754 38.9033 59.7602 38.8344 59.6114C38.7569 59.4625 38.6363 59.3137 38.5674 59.2874C38.4985 59.2611 38.3693 59.1035 38.2917 58.9459C38.2142 58.7883 38.042 58.5344 37.9214 58.3768C37.8008 58.2279 37.5596 57.9127 37.3959 57.6763C37.2323 57.4487 36.8016 56.8795 36.4398 56.4242C36.078 55.9601 35.7335 55.4873 35.6732 55.3735C35.6129 55.2509 35.4837 55.0758 35.3976 54.9795C35.2425 54.8219 34.786 54.2177 34.3639 53.6135C34.1313 53.2721 33.4078 52.3002 33.1149 51.9237C32.9599 51.7223 32.7618 51.4683 32.6842 51.3458C32.6067 51.2232 32.4172 50.9868 32.2708 50.8116C32.133 50.6365 31.8056 50.1987 31.5559 49.8485C31.3061 49.4895 30.7806 48.7715 30.393 48.2462C30.0054 47.7296 29.6092 47.1867 29.5144 47.0553C29.4197 46.924 29.1699 46.5913 28.9545 46.3111C28.4549 45.6544 28.1362 45.2254 27.9467 44.9539C27.6797 44.5599 26.6805 43.2553 26.5255 43.0802C26.4393 42.9838 26.3704 42.87 26.3704 42.8262C26.3704 42.7824 26.2412 42.5986 26.0948 42.4147C25.733 42.0032 25.087 41.1538 24.82 40.7511C24.708 40.5847 24.5874 40.4271 24.5615 40.4008C24.5357 40.3746 24.441 40.2345 24.3548 40.0944C24.2601 39.9455 24.0275 39.6303 23.8294 39.3939C23.6313 39.1487 23.3642 38.7985 23.2436 38.6059C23.1144 38.4132 22.813 38.0017 22.5718 37.6865C21.676 36.5307 20.3753 34.7708 20.203 34.4818C20.1083 34.3155 19.9705 34.1316 19.9015 34.0703C19.824 34.0177 19.669 33.8076 19.5398 33.615C19.4106 33.4223 19.0488 32.9233 18.7301 32.503C18.4028 32.0827 17.9893 31.5223 17.7998 31.2421C17.6103 30.9707 17.2658 30.5066 17.0246 30.2089C16.5853 29.666 16.2063 29.1319 16.2063 29.0531C16.2063 28.8868 17.3519 28.8517 23.6916 28.8517C30.1863 28.843 30.8065 28.8517 30.9529 28.9918ZM56.1824 28.9743C56.2943 29.0882 56.3116 29.1845 56.2599 29.4209C56.2168 29.596 56.1307 29.7974 56.0532 29.8762C55.9842 29.9637 55.8895 30.2702 55.8378 30.5679C55.7947 30.8656 55.6914 31.2334 55.6052 31.3997C55.5191 31.5573 55.4071 31.9426 55.3382 32.2578C55.2779 32.5643 55.1659 32.9408 55.0884 33.0896C55.0195 33.2297 54.8817 33.6763 54.7869 34.079C54.7008 34.4731 54.5716 34.8933 54.5027 34.9984C54.4338 35.1035 54.3304 35.445 54.2787 35.7514C54.2271 36.0666 54.1065 36.4607 54.0203 36.6358C53.9342 36.8109 53.8136 37.2049 53.7619 37.5201C53.7102 37.8266 53.5896 38.1943 53.5121 38.3432C53.426 38.4833 53.3054 38.8598 53.2537 39.1662C53.1934 39.4727 53.0728 39.8667 52.9867 40.0331C52.8919 40.2082 52.7972 40.5234 52.7627 40.7423C52.7283 40.9612 52.6163 41.364 52.5129 41.6267C52.401 41.8893 52.2718 42.3447 52.2115 42.6336C52.1512 42.9225 52.0392 43.299 51.953 43.4654C51.8669 43.6405 51.7463 44.0345 51.686 44.341C51.6343 44.6562 51.5137 45.0502 51.4276 45.2254C51.3415 45.4005 51.2295 45.7945 51.1864 46.0922C51.1347 46.3987 51.0314 46.7139 50.9539 46.8014C50.8763 46.889 50.7644 47.2305 50.7041 47.5719C50.6352 47.9047 50.5059 48.3337 50.4112 48.5263C50.3164 48.719 50.1959 49.1393 50.1442 49.4632C50.0925 49.7872 49.9719 50.2075 49.8771 50.4001C49.7824 50.584 49.6618 50.9693 49.6187 51.2407C49.5671 51.5121 49.4551 51.8536 49.3689 52.0025C49.2828 52.1426 49.1708 52.5103 49.1105 52.808C49.0588 53.1145 48.921 53.5698 48.8091 53.8149C48.6885 54.0689 48.5937 54.3928 48.5937 54.5242C48.5937 54.6555 48.499 54.9882 48.387 55.2684C48.275 55.5399 48.1372 56.0039 48.0769 56.2929C48.0166 56.5818 47.9046 56.9583 47.8185 57.1247C47.741 57.291 47.6031 57.7288 47.5256 58.0878C47.4481 58.4468 47.3275 58.8584 47.25 59.0072C47.1811 59.1473 47.0777 59.4888 47.026 59.7515C46.983 60.0141 46.8796 60.3469 46.8107 60.4957C46.7332 60.6358 46.6039 61.0561 46.5264 61.4151C46.4403 61.7741 46.2939 62.2644 46.1991 62.5096C46.1044 62.746 45.9838 63.14 45.9407 63.3852C45.8373 63.8668 45.5014 64.8562 45.3377 65.1364C45.2516 65.2852 45.2258 65.294 45.1482 65.1801C45.1052 65.1101 45.019 64.8912 44.976 64.6986C44.9243 64.5059 44.7951 64.1294 44.6831 63.8668C44.5711 63.6041 44.4591 63.2013 44.4247 62.9737C44.3988 62.7548 44.3041 62.422 44.2093 62.2294C44.1146 62.0455 43.994 61.6515 43.9423 61.3538C43.8906 61.0473 43.7528 60.592 43.6408 60.3469C43.5203 60.0929 43.4255 59.7952 43.4255 59.6814C43.4255 59.5676 43.348 59.2962 43.2532 59.0685C43.1671 58.8408 43.012 58.3418 42.9173 57.9565C42.8225 57.5712 42.6847 57.1247 42.6072 56.9758C42.5297 56.827 42.4177 56.3979 42.3488 56.0302C42.2799 55.6624 42.1421 55.2597 42.0473 55.1371C41.9439 55.0057 41.875 54.7781 41.875 54.5942C41.875 54.4191 41.7803 54.0689 41.6597 53.8149C41.5477 53.5698 41.4099 53.1145 41.3582 52.8168C41.2979 52.5191 41.1859 52.1338 41.0998 51.9587C41.0137 51.7836 40.8931 51.3895 40.8414 51.0743C40.7897 50.7679 40.6691 50.3914 40.583 50.2513C40.4969 50.1024 40.3763 49.7347 40.3246 49.4282C40.2729 49.1218 40.1523 48.7365 40.0662 48.5701C39.98 48.4038 39.8594 47.9835 39.7991 47.642C39.7388 47.2918 39.6096 46.9065 39.5235 46.7752C39.4288 46.6438 39.3168 46.3286 39.2823 46.0659C39.2565 45.812 39.1445 45.4267 39.0498 45.2078C38.955 44.9977 38.8344 44.5862 38.7741 44.2972C38.7138 44.0083 38.6018 43.6318 38.5157 43.4654C38.4296 43.2903 38.3348 42.9576 38.3004 42.7212C38.2659 42.476 38.1281 42.0294 37.9989 41.7142C37.8697 41.399 37.7405 40.97 37.706 40.7598C37.6716 40.5497 37.5768 40.217 37.4907 40.0156C37.3959 39.8229 37.2839 39.4027 37.2237 39.0874C37.172 38.7722 37.0514 38.3957 36.9652 38.2556C36.8791 38.1068 36.7585 37.739 36.7068 37.4238C36.6551 37.1086 36.5346 36.7321 36.4484 36.592C36.3623 36.4431 36.2503 36.0842 36.1986 35.7865C36.1556 35.4975 36.0436 35.1035 35.9488 34.9109C35.8541 34.727 35.7249 34.3155 35.6646 34.009C35.6129 33.6938 35.4923 33.2998 35.4148 33.1334C35.3286 32.967 35.2167 32.5905 35.1564 32.3016C35.0961 32.0126 34.9583 31.5486 34.8463 31.2771C34.7343 30.9969 34.6395 30.6467 34.6395 30.4803C34.6395 30.3052 34.5534 30.0688 34.4242 29.8937C34.1658 29.5435 34.14 29.0706 34.3639 28.9393C34.4587 28.878 38.1195 28.8517 45.2688 28.843C54.8731 28.843 56.0445 28.8605 56.1824 28.9743ZM74.1247 28.9568C74.2711 29.0619 74.2711 29.0882 74.0816 29.4121C73.9782 29.6048 73.7973 29.8587 73.6767 29.9813C73.4872 30.1914 72.7292 31.1896 72.1521 32.0039C72.0143 32.2053 71.6353 32.7131 71.3166 33.1246C70.9979 33.5362 70.6361 34.0177 70.5155 34.1841C70.3863 34.3505 70.0935 34.7445 69.8609 35.0597C69.6283 35.3749 69.3441 35.7689 69.2321 35.9353C69.1201 36.1017 68.7756 36.5657 68.4655 36.9597C68.1554 37.3538 67.8281 37.7916 67.7419 37.9229C67.6644 38.0542 67.4921 38.2907 67.3715 38.4483C66.9925 38.9386 66.7858 39.2013 66.3637 39.7879C66.1398 40.1031 65.9072 40.4183 65.8469 40.4884C65.3645 41.1101 65.132 41.4253 64.8736 41.8105C64.7099 42.0557 64.4687 42.3709 64.3395 42.511C64.2017 42.6599 64.0983 42.8 64.0983 42.835C64.0983 42.87 63.9777 43.0364 63.8399 43.2027C63.6935 43.3691 63.4351 43.7193 63.2542 43.9733C63.0819 44.2359 62.7632 44.6737 62.5479 44.9539C62.3325 45.2341 62.0224 45.6456 61.8588 45.8733C61.6951 46.0922 61.4109 46.4512 61.2386 46.6701C61.0577 46.889 60.9113 47.0991 60.9113 47.1342C60.9113 47.1779 60.7045 47.4669 60.4634 47.7733C60.2136 48.0886 59.7743 48.6752 59.49 49.0692C59.2058 49.472 58.8526 49.9623 58.6976 50.155C58.5425 50.3563 58.3013 50.6716 58.1463 50.8642C57.9998 51.0568 57.2591 52.055 56.5097 53.0882C55.7517 54.1214 55.054 55.067 54.9592 55.1896C54.4079 55.8988 53.9083 56.5906 53.7533 56.8445C53.6499 56.9933 53.538 57.1247 53.5035 57.1247C53.4604 57.1247 53.3398 57.2735 53.2365 57.4487C53.1245 57.6325 52.8575 58.009 52.6249 58.2892C52.401 58.5694 52.2115 58.8408 52.2115 58.8934C52.2115 58.9459 52.0822 59.1385 51.9358 59.3137C51.4535 59.874 50.2648 61.5202 50.0408 61.9405C49.903 62.1769 49.8685 62.2031 49.7049 62.1068C49.5412 62.0193 49.524 61.9667 49.5757 61.5114C49.6101 61.24 49.7479 60.7847 49.8858 60.487C50.0322 60.198 50.1442 59.839 50.1442 59.6989C50.1442 59.5588 50.2389 59.2349 50.3595 58.9809C50.4715 58.7358 50.6093 58.2805 50.661 57.9828C50.7213 57.6851 50.8333 57.291 50.928 57.1072C51.0228 56.9233 51.152 56.4855 51.2123 56.1353C51.2812 55.7763 51.419 55.356 51.5137 55.1896C51.6171 55.0233 51.6946 54.7781 51.6946 54.6468C51.6946 54.5154 51.7894 54.1827 51.9014 53.9025C52.0133 53.6311 52.1512 53.1758 52.2028 52.9043C52.2459 52.6329 52.3665 52.2564 52.4526 52.0725C52.5474 51.8886 52.6594 51.4946 52.7197 51.1882C52.78 50.8905 52.9178 50.4351 53.0298 50.1812C53.1503 49.9361 53.2451 49.6121 53.2451 49.472C53.2451 49.3319 53.3398 49.0167 53.4518 48.7715C53.5638 48.5263 53.7016 48.0798 53.7619 47.7733C53.8136 47.4669 53.9514 47.0378 54.072 46.8189C54.184 46.6 54.2787 46.2936 54.2787 46.1447C54.2787 45.9959 54.3649 45.6982 54.4596 45.4793C54.5544 45.2604 54.6922 44.8226 54.7611 44.4899C54.8214 44.1659 54.9506 43.7544 55.0454 43.5705C55.1315 43.3954 55.2521 42.9751 55.3038 42.6424C55.3641 42.3096 55.4847 41.8893 55.5794 41.6967C55.6742 41.5128 55.7947 41.1363 55.8378 40.8561C55.8895 40.5847 56.0015 40.2257 56.0876 40.0506C56.1737 39.8842 56.2943 39.4815 56.346 39.175C56.4063 38.8598 56.5269 38.4833 56.6044 38.3432C56.6906 38.1943 56.7853 37.8791 56.8198 37.6427C56.8542 37.3975 56.992 36.9422 57.1299 36.6183C57.2677 36.3031 57.3797 35.9265 57.3797 35.7865C57.3797 35.6551 57.4744 35.3311 57.595 35.0772C57.707 34.8321 57.8448 34.3767 57.8965 34.0703C57.9482 33.7726 58.0601 33.3873 58.1549 33.2122C58.241 33.0458 58.353 32.6693 58.4047 32.3804C58.465 32.1002 58.6028 31.6449 58.7062 31.3822C58.8181 31.1195 58.9387 30.6992 58.9732 30.4628C59.0076 30.2177 59.1024 29.9025 59.1971 29.7536C59.2833 29.6048 59.3608 29.3946 59.3608 29.2983C59.3608 29.1932 59.4469 29.0531 59.5503 28.9831C59.7226 28.8605 60.5581 28.843 66.8547 28.843C72.557 28.843 74.0041 28.8693 74.1247 28.9568Z" fill="#212322"/>
</svg>
