<svg fill="none" height="400" viewBox="0 0 220 400" width="220" xmlns="http://www.w3.org/2000/svg"><path clip-rule="evenodd" d="m218.211 108.088v84.49h-.035v207.422h-216.17541v-291.912c0-14.1092 2.72936-27.5845 7.6592-39.9517 1.91121-4.7951 4.14591-9.4178 6.68671-13.8342l.0006-.0011c7.6249-13.2712 17.98-24.7528 30.315-33.7101 4.1292-2.9858 8.48-5.6986 13.018-8.1043 15.4619-8.15905 32.939-12.4866 50.4259-12.4866 18.831 0 37.61 4.99799 53.922 14.4139l.004.0021c4.451 2.5585 8.697 5.4233 12.703 8.5767l.003.0024c11.992 9.4053 21.818 21.2585 29.004 34.6841 8.176 15.4768 12.469 32.9025 12.469 50.4088zm-113.761-42.9005v-53.7487c-13.7279 1.1286-26.964 4.4594-39.2108 10.8948l-1.9675 1.034 25.4012 45.9111 1.7698-.6848c3.849-1.4894 7.915-2.5602 12.1313-3.1458zm11.259-53.5799v53.5652l1.88.2583c4.87.6695 9.521 1.9747 13.889 3.832l1.743.7414 26.859-44.8214c-12.977-7.4622-27.014-12.3348-41.999-13.5682zm-36.8733 63.1097-25.1581-45.2738-1.9978 1.5136c-10.4308 7.9033-19.1394 17.7923-25.6719 29.202l-1.0597 1.8509 41.3905 24.7963 1.1879-1.4728c2.8644-3.5511 6.1462-6.7322 9.7951-9.4772zm92.5123-41.5783-1.949-1.5946-26.528 44.2833 1.479 1.1873c3.566 2.8628 6.746 6.1432 9.49 9.792l1.137 1.5114 41.908-23.1952-.99-1.8842c-6.105-11.6225-14.471-21.8576-24.547-30.1zm-110.8287 63.3369-40.4055-24.2164-.9073 2.4643c-3.7297 10.1309-5.8195 21.0719-5.9248 32.4592l-.0216.021v6.766h42.4266l.259-1.878c.6695-4.854 1.9747-9.505 3.8322-13.8728zm141.6087-18.4399-.819-2.5011-40.895 22.6254.691 1.7723c1.503 3.8584 2.557 7.9224 3.144 12.1444l.26 1.876h42.408v-5.865c0-10.4858-1.692-20.5811-4.789-30.052zm-92.022-1.8646c-23.9469 0-43.4198 19.473-43.4198 43.4196 0 23.947 19.4729 43.42 43.4198 43.42 23.946 0 43.419-19.473 43.419-43.42 0-23.9466-19.473-43.4196-43.419-43.4196zm-54.4037 49.0406h-42.4248v41.506l46.4986-25.729-.6848-1.77c-1.4874-3.843-2.5421-7.909-3.1284-12.131zm151.2317 0h-42.428l-.258 1.879c-.669 4.871-1.974 9.522-3.832 13.889l-.741 1.744 47.259 28.302zm-140.563 27.128-1.1369-1.511-51.9566 28.754v74.391h9.7426l54.3009-90.651-1.4727-1.188c-3.5512-2.864-6.7322-6.146-9.4773-9.795zm140.563 31.818-53.079-31.8-1.188 1.473c-2.864 3.551-6.146 6.732-9.795 9.477l-1.511 1.137 49.533 89.529h16.04zm-118.2349-14.256-1.7436-.742-50.8214 84.832h68.3159v-79.999l-1.878-.259c-4.8536-.67-9.5054-1.975-13.8729-3.832zm89.3299 84.09-46.525-84.071-1.77.685c-3.844 1.487-7.909 2.542-12.131 3.128l-1.876.261v79.997zm-109.0457 11.242h-55.7058v123.489h144.0415v-25.825h-29.445v-29.446h-29.4454v-29.445h-29.4453zm137.9677.017h-126.6908v27.514h29.4448v29.445h29.446v29.445h29.445v37.068h38.338z" fill="#4265c5" fill-rule="evenodd"/><path d="m181.081 115.423c-1.585-11.719-7.39-19.8641-18.573-36.2158-8.761-12.8109-13.327-19.3264-22.412-24.7221-4.227-2.5108-15.159-8.1976-29.577-7.5122-10.3.4895-17.7493 4.0115-23.5172 6.7386-5.0546 2.3899-12.8778 6.0889-19.9959 13.6273-10.1996 10.8022-12.8859 23.0648-15.5147 35.0652-1.3385 6.109-3.5695 16.725-1.9541 30.447 1.078 9.154 2.0002 16.99 7.0457 24.295 8.5183 12.335 23.2768 15.176 36.3739 17.697 23.1263 4.452 41.5313-.983 50.1033-3.625 12.938-3.987 20.935-6.451 27.94-14.236 13.648-15.166 10.784-36.357 10.081-41.559z" fill="#4265c5"/><path d="m85.1567 96.7383c1.1013-.054 2.195-.1692 3.2708-.358 7.0265-1.2325 10.8669-4.9864 12.3535-6.795-4.2406-3.6509-9.949-5.9456-15.7625-6.5155-1.165-.1143-2.3326-.1544-3.4949-.1268-1.3365.0319-2.6655.1491-3.9677.3778-7.0261 1.2321-10.8665 4.9861-12.3529 6.7947 4.4114 3.7985 10.4118 6.1258 16.4676 6.5728 1.1637.0859 2.3288.107 3.4861.05z" fill="#fff"/><path d="m85.0164 83.0697c-1.1649-.1143-2.3327-.1546-3.495-.1268l-6.7956 7.1099 6.9426 6.6353c1.1637.0859 2.3289.107 3.4862.05l6.7612-7.0738z" fill="#190b12"/><path d="m141.203 96.3995c1.101-.0546 2.194-.1703 3.27-.3596 7.026-1.2359 10.865-4.9918 12.35-6.801-4.242-3.6489-9.952-5.9408-15.765-6.5077-1.165-.1139-2.333-.1535-3.495-.1253-1.337.0326-2.666.1505-3.968.3798-7.025 1.2355-10.864 4.9914-12.349 6.8006 4.413 3.7964 10.414 6.1208 16.47 6.5649 1.164.0853 2.329.1058 3.487.0483z" fill="#fff"/><path d="m141.058 82.7316c-1.165-.1137-2.333-.1534-3.495-.1252l-6.792 7.1131 6.946 6.6321c1.163.0854 2.329.1059 3.486.0483l6.758-7.077z" fill="#190b12"/></svg>