<svg width="221" height="401" viewBox="0 0 221 401" fill="none" xmlns="http://www.w3.org/2000/svg">
<path fill-rule="evenodd" clip-rule="evenodd" d="M3 109.004V193.474H3.03483V400.848H219.16V109.004C219.16 94.8986 216.431 81.4265 211.502 69.0621C209.592 64.2682 207.357 59.6466 204.817 55.2312L204.817 55.2301C197.193 41.9622 186.841 30.4834 174.509 21.5282C170.381 18.5429 166.03 15.8305 161.493 13.4254C148.567 6.60423 134.107 2.32421 118.757 1.24976L118.749 1.24917C116.195 1.06062 113.641 0.941895 111.08 0.941895C108.519 0.941895 105.981 1.06056 103.435 1.23252C86.6688 2.40981 70.9647 7.38951 57.1703 15.3524L57.1667 15.3545C52.7158 17.9124 48.4711 20.7765 44.4663 23.9292L44.4632 23.9316C32.5213 33.2975 22.5943 45.1021 15.4665 58.6075C13.0795 63.1256 11.016 67.8153 9.27581 72.6773C5.21734 84.0342 3 96.2616 3 109.004ZM103.196 12.5467H105.477V66.0994L103.599 66.3576C98.7295 67.0269 94.0792 68.3318 89.713 70.1887L87.97 70.93L61.1174 26.119L63.037 25.0152C75.0184 18.1255 88.6194 13.7465 103.107 12.5541L103.196 12.5467ZM116.734 12.5714H119.087C132.294 13.6572 144.756 17.3954 155.936 23.2703L157.903 24.304L132.508 70.2043L130.738 69.5197C126.89 68.0306 122.825 66.96 118.61 66.3746L116.734 66.1141V12.5714ZM165.955 33.0023L142.345 75.6434L143.856 76.7803C147.504 79.5248 150.785 82.705 153.649 86.2554L154.837 87.7278L196.217 62.9373L195.158 61.0868C188.628 49.6814 179.873 39.7158 169.443 31.8133L167.699 30.4919L165.955 33.0023ZM49.8518 34.0731L51.6277 32.6203L53.4036 35.172L78.3227 76.7515L76.8439 77.9388C73.2788 80.8009 70.0997 84.0806 67.3554 87.7285L66.2186 89.2395L24.3213 66.0498L25.3108 64.166C31.4143 52.5462 39.7781 42.3135 49.8518 34.0731ZM160.655 97.3951L201.051 73.1844L201.958 75.6481C205.687 85.7767 207.776 96.7152 207.881 108.1L207.903 108.121V114.885H165.486L165.227 113.007C164.558 108.155 163.253 103.504 161.396 99.138L160.655 97.3951ZM19.0796 78.9595L19.8975 76.459L60.7832 99.0791L60.0929 100.851C58.5899 104.709 57.5358 108.772 56.9497 112.992L56.6892 114.868H14.2743L14.2917 112.693V109.004C14.2917 98.5212 15.9827 88.4282 19.0796 78.9595ZM111.08 77.0954C135.021 77.0954 154.489 96.5638 154.489 120.505C154.489 144.446 135.021 163.914 111.08 163.914C87.1388 163.914 67.6705 144.446 67.6705 120.505C67.6705 96.5638 87.1388 77.0954 111.08 77.0954ZM165.471 126.125H207.885V167.621L161.398 141.898L162.082 140.128C163.569 136.286 164.624 132.221 165.21 128L165.471 126.125ZM14.2743 126.125H56.6919L56.9501 128.003C57.6194 132.873 58.9242 137.523 60.7811 141.889L61.5226 143.633L14.2743 171.927V126.125ZM154.804 153.246L155.941 151.735L207.885 180.483V254.856H198.145L143.857 164.227L145.329 163.039C148.88 160.175 152.06 156.894 154.804 153.246ZM14.2743 185.056L67.3404 153.264L68.5281 154.737C71.3918 158.287 74.6728 161.467 78.3209 164.212L79.8317 165.348L30.3105 254.856H14.2743V252.699V185.056ZM132.481 170.803L134.225 170.062L185.034 254.874H116.734V174.894L118.612 174.635C123.464 173.965 128.115 172.661 132.481 170.803ZM43.1725 254.874L89.687 170.823L91.4562 171.507C95.299 172.994 99.3637 174.049 103.584 174.635L105.46 174.895V254.874H43.1725ZM152.193 266.113H207.885V389.574H63.8776V363.754H93.3159V334.316H122.754V304.877H152.193V266.113ZM14.2569 266.131H140.918V293.638H111.48V323.076H82.0416V352.515H52.6033V389.574H14.2743V277.579H14.2569V266.131Z" fill="#465FC0"/>
</svg>
