<svg fill="none" height="401" viewBox="0 0 221 401" width="221" xmlns="http://www.w3.org/2000/svg"><path clip-rule="evenodd" d="m3 109.004v84.47h.03483v207.374h216.12517v-291.844c0-14.1054-2.729-27.5775-7.658-39.9419-1.91-4.7939-4.145-9.4155-6.685-13.8309v-.0011c-7.624-13.2679-17.976-24.7467-30.308-33.7019-4.128-2.9853-8.479-5.6977-13.016-8.1028-12.926-6.82117-27.386-11.10119-42.736-12.17564l-.008-.00059c-2.554-.18855-5.108-.307275-7.669-.307275s-5.099.118665-7.645.290625c-16.7662 1.17729-32.4703 6.15699-46.2647 14.11988l-.0036.0021c-4.4509 2.5579-8.6956 5.422-12.7004 8.5747l-.0031.0024c-11.9419 9.3659-21.8689 21.1705-28.9967 34.6759-2.387 4.5181-4.4505 9.2078-6.19069 14.0698-4.05847 11.3569-6.27581 23.5843-6.27581 36.3267zm100.196-96.4573h2.281v53.5527l-1.878.2582c-4.8695.6693-9.5198 1.9742-13.886 3.8311l-1.743.7413-26.8526-44.811 1.9196-1.1038c11.9814-6.8897 25.5824-11.2687 40.07-12.4611zm13.538.0247h2.353c13.207 1.0858 25.669 4.824 36.849 10.6989l1.967 1.0337-25.395 45.9003-1.77-.6846c-3.848-1.4891-7.913-2.5597-12.128-3.1451l-1.876-.2605zm49.221 20.4309-23.61 42.6411 1.511 1.1369c3.648 2.7445 6.929 5.9247 9.793 9.4751l1.188 1.4724 41.38-24.7905-1.059-1.8505c-6.53-11.4054-15.285-21.371-25.715-29.2735l-1.744-1.3214zm-116.1032 1.0708 1.7759-1.4528 1.7759 2.5517 24.9191 41.5795-1.4788 1.1873c-3.5651 2.8621-6.7442 6.1418-9.4885 9.7897l-1.1368 1.511-41.8973-23.1897.9895-1.8838c6.1035-11.6198 14.4673-21.8525 24.541-30.0929zm110.8032 63.322 40.396-24.2107.907 2.4637c3.729 10.1286 5.818 21.0671 5.923 32.4519l.022.021v6.764h-42.417l-.259-1.878c-.669-4.852-1.974-9.503-3.831-13.869zm-141.5754-18.4356.8179-2.5005 40.8857 22.6201-.6903 1.7719c-1.503 3.858-2.5571 7.921-3.1432 12.141l-.2605 1.876h-42.4149l.0174-2.175v-3.689c0-10.4828 1.691-20.5758 4.7879-30.0445zm92.0004-1.8641c23.941 0 43.409 19.4684 43.409 43.4096 0 23.941-19.468 43.409-43.409 43.409-23.9412 0-43.4095-19.468-43.4095-43.409 0-23.9412 19.4683-43.4096 43.4095-43.4096zm54.391 49.0296h42.414v41.496l-46.487-25.723.684-1.77c1.487-3.842 2.542-7.907 3.128-12.128zm-151.1967 0h42.4176l.2582 1.878c.6693 4.87 1.9741 9.52 3.831 13.886l.7415 1.744-47.2483 28.294zm140.5297 27.121 1.137-1.511 51.944 28.748v74.373h-9.74l-54.288-90.629 1.472-1.188c3.551-2.864 6.731-6.145 9.475-9.793zm-140.5297 31.81 53.0661-31.792 1.1877 1.473c2.8637 3.55 6.1447 6.73 9.7928 9.475l1.5108 1.136-49.5212 89.508h-16.0362v-2.157zm118.2067-14.253 1.744-.741 50.809 84.812h-68.3v-79.98l1.878-.259c4.852-.67 9.503-1.974 13.869-3.832zm-89.3085 84.071 46.5145-84.051 1.7692.684c3.8428 1.487 7.9075 2.542 12.1278 3.128l1.876.26v79.979zm109.0205 11.239h55.692v123.461h-144.0074v-25.82h29.4383v-29.438h29.4381v-29.439h29.439zm-137.9361.018h126.6611v27.507h-29.438v29.438h-29.4384v29.439h-29.4383v37.059h-38.329v-111.995h-.0174z" fill="#465fc0" fill-rule="evenodd"/></svg>