<svg width="220" height="400" viewBox="0 0 220 400" fill="none" xmlns="http://www.w3.org/2000/svg">
<path fill-rule="evenodd" clip-rule="evenodd" d="M218.211 108.088V192.578H218.176V400H2.00059V108.088C2.00059 93.9788 4.72995 80.5035 9.65979 68.1363C11.571 63.3412 13.8057 58.7185 16.3465 54.3021L16.3471 54.301C23.972 41.0298 34.3271 29.5482 46.6621 20.5909C50.7913 17.6051 55.1421 14.8923 59.6801 12.4866C75.142 4.32755 92.6191 0 110.106 0C128.937 0 147.716 4.99799 164.028 14.4139L164.032 14.416C168.483 16.9745 172.729 19.8393 176.735 22.9927L176.738 22.9951C188.73 32.4004 198.556 44.2536 205.742 57.6792C213.918 73.156 218.211 90.5817 218.211 108.088ZM104.45 65.1875V11.4388C90.7221 12.5674 77.486 15.8982 65.2392 22.3336L63.2717 23.3676L88.6729 69.2787L90.4427 68.5939C94.2917 67.1045 98.3577 66.0337 102.574 65.4481L104.45 65.1875ZM115.709 11.6076V65.1728L117.589 65.4311C122.459 66.1006 127.11 67.4058 131.478 69.2631L133.221 70.0045L160.08 25.1831C147.103 17.7209 133.066 12.8483 118.081 11.6149L115.709 11.6076ZM78.8357 74.7173L53.6776 29.4435L51.6798 30.9571C41.249 38.8604 32.5404 48.7494 26.0079 60.1591L24.9482 62.01L66.3387 86.8063L67.5266 85.3335C70.391 81.7824 73.6728 78.6013 77.3217 75.8563L78.8357 74.7173ZM171.348 33.139L169.399 31.5444L142.871 75.8277L144.35 77.015C147.916 79.8778 151.096 83.1582 153.84 86.807L154.977 88.3184L196.885 65.1232L195.895 63.239C189.79 51.6165 181.424 41.3814 171.348 33.139ZM60.5193 96.4759L20.1138 72.2595L19.2065 74.7238C15.4768 84.8547 13.387 95.7957 13.2817 107.183L13.2601 107.204V113.97H55.6867L55.9457 112.092C56.6152 107.238 57.9204 102.587 59.7779 98.2192L60.5193 96.4759ZM202.128 78.036L201.309 75.5349L160.414 98.1603L161.105 99.9326C162.608 103.791 163.662 107.855 164.249 112.077L164.509 113.953H206.917V108.088C206.917 97.6022 205.225 87.5069 202.128 78.036ZM110.106 76.1714C86.1591 76.1714 66.6862 95.6444 66.6862 119.591C66.6862 143.538 86.1591 163.011 110.106 163.011C134.052 163.011 153.525 143.538 153.525 119.591C153.525 95.6444 134.052 76.1714 110.106 76.1714ZM55.7023 125.212H13.2775V166.718L59.7761 140.989L59.0913 139.219C57.6039 135.376 56.5492 131.31 55.9629 127.088L55.7023 125.212ZM206.934 125.212H164.506L164.248 127.091C163.579 131.962 162.274 136.613 160.416 140.98L159.675 142.724L206.934 171.026V125.212ZM66.371 152.34L65.2341 150.829L13.2775 179.583V253.974H23.0201L77.321 163.323L75.8483 162.135C72.2971 159.271 69.1161 155.989 66.371 152.34ZM206.934 184.158L153.855 152.358L152.667 153.831C149.803 157.382 146.521 160.563 142.872 163.308L141.361 164.445L190.894 253.974H206.934V184.158ZM88.6991 169.902L86.9555 169.16L36.1341 253.992H104.45V173.993L102.572 173.734C97.7184 173.064 93.0666 171.759 88.6991 169.902ZM178.029 253.992L131.504 169.921L129.734 170.606C125.89 172.093 121.825 173.148 117.603 173.734L115.727 173.995V253.992H178.029ZM68.9833 265.234H13.2775V388.723H157.319V362.898H127.874V333.452H98.4286V304.007H68.9833V265.234ZM206.951 265.251H80.2602V292.765H109.705V322.21H139.151V351.655H168.596V388.723H206.934L206.951 265.251Z" fill="#4265C5"/>
<path d="M181.081 115.423C179.496 103.704 173.691 95.5589 162.508 79.2072C153.747 66.3963 149.181 59.8808 140.096 54.4851C135.869 51.9743 124.937 46.2875 110.519 46.9729C100.219 47.4624 92.7697 50.9844 87.0018 53.7115C81.9472 56.1014 74.124 59.8004 67.0059 67.3388C56.8063 78.141 54.12 90.4036 51.4912 102.404C50.1527 108.513 47.9217 119.129 49.5371 132.851C50.6151 142.005 51.5373 149.841 56.5828 157.146C65.1011 169.481 79.8596 172.322 92.9567 174.843C116.083 179.295 134.488 173.86 143.06 171.218C155.998 167.231 163.995 164.767 171 156.982C184.648 141.816 181.784 120.625 181.081 115.423Z" fill="#4265C5"/>
<path d="M85.1567 96.7383C86.258 96.6843 87.3517 96.5691 88.4275 96.3803C95.454 95.1478 99.2944 91.3939 100.781 89.5853C96.5404 85.9344 90.832 83.6397 85.0185 83.0698C83.8535 82.9555 82.6859 82.9154 81.5236 82.943C80.1871 82.9749 78.8581 83.0921 77.5559 83.3208C70.5298 84.5529 66.6894 88.3069 65.203 90.1155C69.6144 93.914 75.6148 96.2413 81.6706 96.6883C82.8343 96.7742 83.9994 96.7953 85.1567 96.7383Z" fill="white"/>
<path d="M85.0164 83.0697C83.8515 82.9554 82.6837 82.9151 81.5214 82.9429L74.7258 90.0528L81.6684 96.6881C82.8321 96.774 83.9973 96.7951 85.1546 96.7381L91.9158 89.6643L85.0164 83.0697Z" fill="#190B12"/>
<path d="M141.203 96.3995C142.304 96.3449 143.397 96.2292 144.473 96.0399C151.499 94.804 155.338 91.0481 156.823 89.2389C152.581 85.59 146.871 83.2981 141.058 82.7312C139.893 82.6173 138.725 82.5777 137.563 82.6059C136.226 82.6385 134.897 82.7564 133.595 82.9857C126.57 84.2212 122.731 87.9771 121.246 89.7863C125.659 93.5827 131.66 95.9071 137.716 96.3512C138.88 96.4365 140.045 96.457 141.203 96.3995Z" fill="white"/>
<path d="M141.058 82.7316C139.893 82.6179 138.725 82.5782 137.563 82.6064L130.771 89.7195L137.717 96.3516C138.88 96.437 140.046 96.4575 141.203 96.3999L147.961 89.3229L141.058 82.7316Z" fill="#190B12"/>
</svg>
