<svg viewBox="0 0 400 77" xmlns="http://www.w3.org/2000/svg">
<path d="M152.352 1.5363H129.081V75.0122H152.352C175.319 75.0122 189.364 59.1518 189.364 37.9625C189.364 16.7733 175.832 1.52887 152.352 1.52887V1.5363ZM151.839 65.2896H140.36V11.2514H151.839C168.858 11.2514 177.877 21.3822 177.877 37.9625C177.877 54.5428 168.754 65.2896 151.839 65.2896Z" fill="currentColor"/>
<path d="M216.785 1.53632L188.591 75.0122H199.974L206.74 56.7916H238.525L245.187 75.0122H257.179L229.194 1.53632H216.792H216.785ZM210.123 47.6925L222.733 13.8194L235.134 47.6925H210.123Z" fill="currentColor"/>
<path d="M294.087 45.9484H319.515C317.463 58.5358 308.853 66.9298 295.217 66.9298C278.816 66.9298 268.868 54.6468 268.868 38.3782C268.868 21.0853 279.321 10.1308 293.887 10.1308C306.496 10.1308 314.593 17.3967 317.367 26.815H330.489C325.976 11.5706 313.166 0 294.199 0C272.771 0 257.187 16.4764 257.187 38.1703C257.187 59.8643 273.589 76.5485 294.816 76.5485C317.374 76.5485 331.828 60.4803 331.419 36.9457H294.102V45.9484H294.087Z" fill="currentColor"/>
<path d="M372.007 1.53632H359.605L331.411 75.0122H342.794L349.56 56.7916H381.345L388.007 75.0122H400L372.014 1.53632H372.007ZM352.936 47.6925L365.546 13.8194L377.948 47.6925H352.936Z" fill="currentColor"/>
<path d="M116.099 2.46409L116.047 1.5141H104.634V13.5374C104.634 27.5201 104.634 41.5028 104.634 55.4855C104.634 56.1609 104.619 56.9327 104.493 57.6526C103.898 60.8737 102.128 63.0706 99.2361 64.1838C96.4182 65.2674 93.7416 64.7627 91.2806 62.6846C89.2136 60.9405 88.2099 58.5729 88.2173 55.4335C88.2396 44.5309 88.2396 33.4278 88.2173 21.4936C88.2173 20.1873 88.0983 18.8514 87.8753 17.5081C86.6113 9.90073 80.9384 3.86681 73.4215 2.13753C72.4475 1.91487 71.4661 1.79613 70.5069 1.67738C70.0757 1.62543 69.6519 1.57347 69.2281 1.5141H67.5106H67.347C66.8786 1.58832 66.4028 1.65511 65.9269 1.71448C64.8637 1.85549 63.7633 2.00393 62.6852 2.29338C54.239 4.56445 48.5586 12.105 48.5511 21.0631C48.5363 33.554 48.5363 46.0375 48.5437 58.5284V74.9232H60.0606V64.8221C60.0606 50.2086 60.0606 35.595 60.0606 20.9815C60.0606 20.4471 60.083 19.9276 60.1276 19.4229C60.3581 16.6694 61.9566 14.2202 64.3953 12.8843C66.8414 11.541 69.6593 11.5039 72.1129 12.7878C75.2356 14.4206 76.8268 17.0554 76.8342 20.6252C76.8342 25.2193 76.8342 29.806 76.8342 34.3927C76.8342 41.243 76.8342 48.0933 76.8565 54.9511C76.8565 56.5171 77.0275 58.1054 77.3398 59.6639C78.6632 66.21 84.0091 74.129 94.723 74.9232C95.3699 74.9677 96.0093 74.9974 96.6413 74.9974C101.972 74.9974 106.478 73.2607 110.054 69.817C114.106 65.9131 116.166 60.8366 116.166 54.7359C116.166 39.8848 116.166 25.0412 116.166 10.1902V4.62384C116.166 4.34181 116.136 2.73868 116.121 2.44923L116.099 2.46409Z" fill="currentColor"/>
<path d="M13.7029 1.53632H0V11.3108H13.7029V65.2302H0V75.0122H13.7029H24.9819H38.6847V65.2302H24.9819V11.3108H38.6847V1.53632H24.9819H13.7029Z" fill="currentColor"/>
</svg>
