<svg fill="none" viewBox="0 0 150 200" xmlns="http://www.w3.org/2000/svg"><g fill="#fff"><path d="m76.6527 166.023c1.4601-2.737 3.0007-5.637 3.0007-11.292 0-5.656-1.5406-8.556-3.0007-11.293l-.0098-.019c-1.3726-2.573-2.6621-4.991-2.6621-9.959 0-4.967 1.2894-7.384 2.662-9.957l.0098-.018c1.4601-2.737 3.0008-5.638 3.0008-11.292s-1.5407-8.554-3.0008-11.291l-.0097-.018c-1.3726-2.5725-2.6621-4.9896-2.6621-9.9569 0-4.9672 1.2895-7.3843 2.6621-9.9571l.0097-.0184c1.4601-2.7369 3.0008-5.6368 3.0008-11.2911h-2.7953c0 4.9672-1.2894 7.3843-2.662 9.9571l-.0098.0183c-1.46 2.737-3.0008 5.6369-3.0008 11.2912s1.5408 8.5542 3.0009 11.2909l.0098.019c1.3726 2.572 2.6619 4.989 2.6619 9.956 0 4.968-1.2895 7.385-2.6621 9.958l-.0097.018c-1.46 2.737-3.0008 5.637-3.0008 11.291 0 5.655 1.5407 8.556 3.0008 11.293l.0098.019c1.3725 2.573 2.662 4.99 2.662 9.959 0 4.968-1.2895 7.385-2.6621 9.959l-.0097.018c-1.4601 2.737-3.0008 5.637-3.0008 11.292h2.7953c0-4.968 1.2895-7.385 2.662-9.958z"/><path d="m89.2862 154.729c0 5.655-1.5406 8.555-3.0007 11.292l-.0099.019c-1.3725 2.573-2.6619 4.99-2.6619 9.958h-2.7953c0-5.655 1.5407-8.555 3.0007-11.292l.0097-.018c1.3726-2.573 2.6621-4.991 2.6621-9.959 0-4.969-1.2894-7.386-2.662-9.959l-.0098-.019c-1.4601-2.737-3.0007-5.637-3.0007-11.293 0-5.654 1.5407-8.554 3.0007-11.291l.0097-.018c1.3726-2.573 2.6621-4.99 2.6621-9.958 0-4.967-1.2893-7.384-2.6619-9.956l-.0098-.019c-1.4601-2.7366-3.0008-5.6366-3.0008-11.2909s1.5407-8.5542 3.0008-11.2911l.0097-.0183c1.3726-2.5729 2.662-4.9899 2.662-9.9572h2.7953c0 5.6543-1.5407 8.5543-3.0008 11.2912l-.0097.0183c-1.3726 2.5729-2.662 4.9899-2.662 9.9571 0 4.9674 1.2895 7.3844 2.662 9.9569l.0097.018c1.4601 2.737 3.0008 5.637 3.0008 11.291 0 5.655-1.5407 8.555-3.0007 11.292l-.0099.018c-1.3725 2.573-2.6619 4.99-2.6619 9.957 0 4.969 1.2894 7.386 2.662 9.959l.0098.019c1.4601 2.737 3.0007 5.637 3.0007 11.293z"/><path d="m115.773 52.9962v25.0905h15.012v81.0403h-15.012v-52.482c0 11.968-10.01 22.253-24.3507 26.805v-66.633c0-6.5456-7.4-11.8511-16.5304-11.8511-9.1294-.0009-16.5295 5.3055-16.5295 11.8511v66.633c-14.3408-4.552-24.3507-14.837-24.3507-26.805v52.482h-15.0117v-81.0403h15.0117v-25.0905c0-16.1867 18.3026-29.3087 40.8802-29.3087 22.5785 0 40.8811 13.122 40.8811 29.3087z"/><path d="m68.964 154.73c0 5.655-1.5407 8.555-3.0008 11.292l-.0098.019c-1.3726 2.573-2.662 4.99-2.662 9.958h-2.7953c0-5.655 1.5407-8.555 3.0007-11.292l.0097-.018c1.3726-2.574 2.6622-4.991 2.6622-9.959 0-4.969-1.2895-7.386-2.6621-9.959l-.0098-.019c-1.46-2.737-3.0007-5.638-3.0007-11.293 0-5.654 1.5407-8.554 3.0008-11.291l.0097-.018c1.3726-2.573 2.6621-4.99 2.6621-9.958 0-4.967-1.2894-7.384-2.6619-9.956l-.0099-.019c-1.4601-2.7367-3.0008-5.6366-3.0008-11.2909s1.5407-8.5542 3.0008-11.2911l.0098-.0183c1.3725-2.5729 2.662-4.99 2.662-9.9572h2.7953c0 5.6543-1.5407 8.5542-3.0008 11.2912l-.0098.0183c-1.3726 2.5729-2.662 4.9899-2.662 9.9571 0 4.9673 1.2895 7.3844 2.6621 9.9569l.0097.018c1.46 2.737 3.0008 5.637 3.0008 11.291 0 5.655-1.5407 8.555-3.0008 11.292l-.0099.018c-1.3725 2.573-2.6619 4.99-2.6619 9.957 0 4.969 1.2895 7.386 2.662 9.959l.0098.019c1.4601 2.737 3.0008 5.637 3.0008 11.293z"/></g></svg>