<svg fill="none" height="260" viewBox="0 0 140 260" width="140" xmlns="http://www.w3.org/2000/svg"><path d="m90.219 254.531c-.2527.008-.5092.015-.762.023.2565.026.513.011.762-.023z" fill="#e77300"/><path d="m127.962 155.873c-9.657-.54-26.573-1.15-36.2082-.318-.2565 16.123.0186 32.253.8252 48.353 3.1707-.159-4.5609 3.035-10.5491 5.696-11.2071-1.017-25.845-2.284-26.2688-3.423-.1895-.51-.6579-1.001-1.156-1.075-.078-2.052-2.6317-9.791-2.7135-11.843.5241-12.382.2082-24.794-.9441-37.135-8.8133-.015-26.8523.998-35.6656.983-.9776 0-2.0369.022-2.8138.61-1.13.854-1.2006 2.487-1.1672 3.899.5576 23.438 1.2044 46.875 1.9329 70.309.1821 5.895-.0632 12.001.5724 17.867.5316 4.883 1.6356 5.47 6.5235 5.907 11.8204 1.053 24.1092.343 35.9035-.681-.1041-7.954-.2082-15.908-.3122-23.858-.0223-1.8-.0261-3.693.8437-5.271.9814-1.789 2.9031-2.853 4.8025-3.619 6.2187-2.502 13.3147-2.768 19.7044-.743 1.8622.592 3.7765 1.464 4.7987 3.12.8624 1.401.9405 3.131.9925 4.772.1896 5.999.3829 11.998.5724 17.993-1.2415 4.032-2.1559 3.818-1.4719 6.183.6393 2.2-1.8288.961 4.0479.928 13.2328-.373 26.4698-.743 39.7028-1.116-.339-32.519-.989-65.034-1.959-97.538z" fill="#e77300"/><path d="m69.7761 138.519c-6.1704-.54-12.3854-.584-18.5595-.133.8066.081 1.6132.163 2.4161.244-10.6234-.059-21.2469-.115-31.8704-.174-.2788 5.238-.5575 10.475-.8326 15.713 2.0258-.248 4.0553-.499 6.0812-.747 7.0848.203 14.1658.41 21.2506.614l-1.1969-.252c1.5463.263 1.8883 2.273 1.8697 3.822-.1673 12.068-.3382 24.136-.5055 36.2-.0446 3.068-.0855 6.136-.1301 9.204-.0521 3.685-1.1114 5.455 3.0183 5.574 6.1741.177 12.3556.21 18.5297.314-.4535.078-.9033.155-1.3567.233l23.0051-.218c.3382-17.25.6802-34.504 1.0185-51.754.0148-.758.0557-1.578.5501-2.155.6356-.736 1.7545-.78 2.7358-.769 8.1665.115 16.3325.229 24.4995.344 0-3.807-.008-7.61-.008-11.418 0-.676-.029-1.426-.513-1.903-.475-.473-1.222-.514-1.895-.525-14.404-.244-28.8115-.484-43.2152-.728.4906-.37-.3085-1.009-.9256-1.083-1.3195-.163-2.6428-.299-3.9661-.414zm9.9172 14.046c.2602.003.5204 0 .7806.022.71.063.814.17.8549.872.0149.292 0 .588-.0074.88-.2379 13.044-.4795 26.091-.7174 39.135-.0223 1.163-.622 1.735-1.7991 1.715-6.2373-.111-12.4746-.226-18.7119-.34-1.5351-.03-1.5388-.034-1.5128-1.553.1189-6.597.2416-13.191.3605-19.789.119-6.487.2379-12.974.3569-19.457.0074-.329 0-.661.026-.99.0632-.71.1636-.81.8772-.843.2602-.015.5204 0 .7806.008 6.2373.11 12.4746.225 18.7119.34z" fill="#e77300"/><g fill="#000"><path d="m67.5492 80.2159c0-.0297-.0037-.052-.0111-.0557-.0037 0-.0186.0111-.0186.0111-.0372.0297-.0186.0558.0335.0483z"/><path d="m66.9991 83.3173c.0372.0814.0483.1627.0669.2292.0037.0111.0483.0998.0744.1774.0148.0407.026.0776.0371.1072.0112.0296.0186.0481.0186.0481.0112-.0037.0186-.0814.0186-.1738 0-.0887-.0186-.207-.0149-.2254-.0669-.1405-.2156-.3068-.3717-.3696.0706.0443.1376.1256.171.2069z"/><path d="m65.5895 82.5004s.0037.0075.0074.0112c.0037-.0186.0037-.0372 0-.0409 0 0-.0186.0074-.0112.0297z"/><path d="m67.5674 80.3574s.0335-.0558.0558-.0967c.0223-.0446.0409-.0669.052-.0595-.0111 0-.0149-.026-.0372-.0148-.0223.0148-.0743.0409-.078.0334-.0075 0-.0075 0-.0112 0v.026c0 .0484.0037.1116.0186.1116z"/><path d="m66.141 82.2715s.0186.0297.0335.0558c0-.0149 0-.0298-.0037-.0372-.0112-.0297-.0335-.0297-.0298-.0186z"/><path d="m65.8358 81.8532c-.0334-.0075-.0148.052.0223.0669.0112-.0037.0186-.0074.026-.0112-.0223-.0297-.0408-.0557-.052-.0557z"/><path d="m66.1395 81.7349c-.1004-.0112-.223.0446-.2528.0446 0 0 .0075.0074.026.0148.0075.0038.0149.0075.0261.0149.0185.0074.0334.0112.052.0186s.0335.0112.0483.0186c.0483-.0186.1227-.0521.1933-.0818-.0483-.0149-.0892-.0297-.0929-.0297z"/><path d="m65.9533 82.5299c-.0669.0924-.1189.1405-.1152.1405.0074 0 .026-.0074.0557-.0185.0261-.0111.0669-.0333.1078-.0629.0744-.0554.1301-.1219.145-.1515-.0595.0148-.1227.0444-.1859.0702-.0037.0074-.0074.0148-.0111.0222z"/><path d="m67.274 80.3342c.0075-.0554.1004-.2107.119-.2181.0037 0 .0074.0407.0111.0998.0037.0555.0112.1294.0149.1257.0111 0 .0334-.0628.0557-.1109.0223-.0517.0446-.085.0558-.0776.0149-.0111.0334-.0222.0706-.037.0483-.0221.1041-.0406.1004-.0443-.0037-.0111-.0669-.0222-.119-.0259-.0557-.0074-.1003-.0074-.1115-.0185 0-.0111.0409-.0332.1004-.0517.052-.0185.1152-.0333.1115-.0444s-.2342-.048-.2528-.0443c-.0148 0-.0483.0295-.0632.0554-.0111.0296 0 .0481-.0074.0518 0 0-.0223 0-.052.0184-.0298.0148-.0595.0555-.0707.0703-.0223.0258-.1152.1848-.1226.2439-.0075.0481.0334.244.0409.2883.0037.0444.0446.2477.0334.3105.0223-.1072.1041-.207.1153-.3068.0111-.085-.0521-.2144-.0409-.2846z"/><path d="m65.9201 82.448c-.0446.0407-.0818.0591-.1115.0739.0223.0074.0483.0148.0743.0148.0223 0 .0558-.0185.0855-.0332.0521-.0851.0707-.159.0669-.1627-.0037 0-.0409.0481-.1115.1072z"/><path d="m65.7675 82.5407s.0223-.0074.0409-.0149c-.0409-.0148-.0781-.0297-.1041-.0297-.0223.0297-.0149.0632.0632.0446z"/><path d="m65.8428 82.6666s-.0074 0-.0111 0c-.0892-.0259-.1636-.0739-.2007-.1072-.0075-.0074-.0223-.0258-.0335-.0443v.0037c-.0037.0222-.0223.0295-.026.0332-.0186.0074-.0743-.0184-.0892-.0739-.0037-.0111.0111-.048.0297-.1072.0186-.0517.0372-.0961.0372-.1146 0-.048-.052-.1293-.0558-.1441-.0074-.0259-.0483-.0296-.052-.0591-.0112-.0259.0186-.074.0781-.1146-.1524.0037-.2156-.0222-.3086.0998.0038.0702.0261.1441.0446.2291.0075.037.0744.2107.0818.2329 0 .0443-.0446.1626-.0223.1848.0298.0407.0929.0296.1264.0296.0149 0 .1264-.0222.1673-.0148.0594.0148.1375.0998.2267.1109.0558.0074.2491.0887.2974.1072.0446.0147.249.1072.3122.1219.1078.0259.2416-.0221.3903.0703-.0372-.0444-.1227-.0961-.2044-.1331-.0744-.0333-.1487-.0628-.171-.0813-.0149-.0111.0743-.0074.1784.0074.052.0074.1189.0259.1636.0369.0483.0148.0892.0333.0892.0296 0 0-.0261-.0259-.0669-.0554-.0372-.0222-.0855-.0518-.1413-.0814-.0929-.0443-.1933-.0813-.2119-.0887-.0297-.011-.3048.0259-.3345.0222-.0743-.0111-.2193-.0813-.2862-.1035z"/><path d="m67.4745 80.4307s-.0149-.0149-.0223-.0186l-.0186.0074s.052.0484.1078.1078c-.0037-.0111-.0112-.0223-.0149-.0297-.0186-.0223-.0334-.0595-.052-.0669z"/><path d="m68.793 82.4749c.0557.0258.1226.0554.1895.085.1004.0443.2119.085.2639.0924.0595.0111.1413 0 .2008-.0111.0706-.0111.1301-.0259.1747-.0222.0334 0 .1003.0259.1635.0518.0483-.0148.2231-.0851.2751-.0851.026 0 .0855.0111.1487.0222 0 0 .0037-.0037.0037-.0074-.0112-.0074-.0074-.0259-.0483-.0702-.0409-.0554-.0818-.1072-.1004-.1331-.0074-.0111-.0297-.0295-.052-.0517-.0186-.0185-.0409-.0444-.0595-.0702-.0149-.0185-.0297-.0296-.0372-.037-.0111.0185-.0186.037-.026.048-.0186.0222-.0446.0407-.0669.0592-.0074.0185-.0223.0517-.0372.0554-.0186.0111-.0334.0074-.0334 0s.0297-.0295.0669-.0554c0-.0037.0037-.0111.0037-.0111.026-.0628.0446-.1109.0669-.1035 0 0 .0074 0 .0186.0074.0409-.0776.1078-.1922.1673-.2144h.0111c-.0446-.0111-.0892-.0259-.1227-.0259-.0966.0037-.1821.0777-.2787.0888-.0484.0037-.093.0258-.1376.048-.0223.0111-.0446.0185-.0706.0296-.0335.0074-.0892.0185-.1301.0222-.1896.0221-.4423 0-.7062.133-.0186.0074-.0521.0296-.0781.0407.0074.0037.0186.0111.026.0148.0521.0258.119.0628.197.0998z"/><path d="m68.2408 82.5706c.1227-.1035.2416-.1664.3309-.2144-.1078-.0555-.3086-.1774-.461-.3438-.0855-.0887-.1375-.1663-.1895-.2439-.0038-.0074-.0075-.0111-.0112-.0185-.0186.0259-.0372.0554-.0557.0813-.1004.1442-.2751.329-.4312.4473-.0037 0-.0112.0073-.0149.011.0372.0296.0743.0518.1078.0851.171.1552.3048.3511.4014.5322v.0074c.0372-.0591.1599-.2181.3197-.3437z"/><path d="m70.2035 82.0529s.0074.0112.0112.0074c.0037-.0037-.0409-.0632-.119-.0371.0112 0 .0186 0 .0297.0037.0261.0074.0558.0149.0781.0223z"/><path d="m68.0619 80.7117c.0223-.0149.0409-.0335.0261-.0446 0-.0075-.0224-.0261-.0372-.0372v.0074c0 .0186.0037.0521.0074.0744z"/><path d="m67.9871 81.6173c.0334-.0665.0632-.1368.0743-.1811.0558-.1848.0223-.3955.026-.4768 0-.0998-.0148-.1737-.026-.2514-.0149.0111-.0334.0222-.0557.0259-.0075 0-.0409-.0111-.0744-.0259.0558.0444.1041.0814.119.0961-.0038 0-.0298.0037-.0558 0-.0111 0-.0223 0-.0372-.0074-.0186-.0037-.0371-.0073-.0557-.0147-.0335-.0111-.0744-.0296-.119-.0555-.0223-.0148-.0409-.0296-.0632-.0443-.0446.0258-.0817.0591-.0855.0591-.0148-.0037.0112-.0333.0595-.0776-.0111-.0074-.0223-.0148-.0297-.0222-.0595-.048-.0892-.085-.1227-.122.0112.0222.0223.0444.0335.0666.0186.0369.0371.0924.0557.1367.0075.1109-.0446.2181-.0223.3659 0 .0222.0409.1257.0781.2218.026.0628.052.122.0743.1737.0298.0629.0558.1109.0669.1331.0186.0333.0372.0665.0781.1294.0074-.0111.0186-.0259.026-.037.0186-.0333.0372-.0665.0521-.0961z"/><path d="m67.7828 80.6632c.0297 0 .0929.026.1486.0483-.0408-.0334-.0817-.0743-.1226-.1226-.0075.0037-.0149.0111-.0223.0148-.0483.0298-.0669.0484-.0892.0707.0074.0074.0185.0111.026.0185.0186-.0111.0372-.026.0595-.026z"/><path d="m68.0171 80.4375c-.026.0222-.052.0407-.0855.0665.0484.0592.0893.0998.119.1257-.0074-.0591-.026-.1368-.0335-.1922z"/><path d="m68.1184 86.8287c.0446-.1515.0632-.2846.0743-.2698.0074.0148.0149.122.0037.255-.0074.1331-.0371.2846-.052.3475-.0075.0443-.0521.2107-.1152.3622-.0075.0185-.0149.037-.0223.0518.0148.0184.026.0295.0408.048.0223-.0296.0409-.0517.0595-.085.0967-.1515.171-.3253.1896-.3659.0111-.0259.0372-.1774.0446-.3216.0037-.0887 0-.1626 0-.2255-.0074-.0258-.0186-.0517-.026-.0776-.0223-.0702-.0409-.1404-.0409-.1811 0-.0517.0632-.2624.0743-.3031.0037-.0185.0186-.0813.0298-.1441l-.1116-.4103-.078-.2772c-.0186-.0592-.0706-.1959-.0781-.2772 0-.0259.0632-.2699.0707-.2957.0111-.0518.0706-.2255.0706-.2994 0-.0185-.0186-.085-.0372-.1479-.0186-.0702-.0409-.1404-.0446-.1552-.0111-.0444-.0892-.2846-.1004-.3807 0-.0444-.0074-.0887-.0074-.1368-.0037-.0554 0-.0887-.0074-.1663-.0075-.0665-.0186-.1368-.0335-.2033-.026-.085-.0595-.17-.1003-.2476-.0409.0554-.145.218-.2045.377-.0669.1626-.1003.3105-.1041.3733-.0111.1072.0075.2255.0261.2513.0185.0481.0371.0961.0371.1442 0 .0739-.078.2365-.0743.3031.0074.0887.0595.2217.0743.2883.0112.0443.0744.2328.0744.2883 0 .0776-.0632.2291-.0744.3031-.0111.1035-.052.218-.0743.303-.0112.0407-.0744.2514-.0744.3031 0 .0518.0632.2477.0744.2883.0186.0703.0669.1959.0743.2883 0 .0518-.0148.1664-.0148.3031 0 .1368.0148.2846.0408.3622.0335.1109.1078.2366.1933.3512.0372-.0998.0669-.1996.0893-.2994.0148-.0074.0817-.1663.1226-.3179z"/><path d="m71.4136 137.677c-1.1746-.174-2.3492-.348-3.5201-.522 2.457.137 4.9177.274 7.3747.411.3346.018.762-.022.8661-.337.1041-.314-.6096-.406-.4609-.111.6988-.048 1.4013-.096 2.1001-.144-.4311-.022-.8623-.044-1.2935-.066 2.6205-.067 5.2411-.133 7.8654-.196-.197-6.701-.3978-13.45-1.8623-19.993-1.4608-6.542-4.2784-12.944-9.0548-17.6785-.9925-.9869-2.1039-1.9516-2.5648-3.2711-.4572-1.3195.0817-3.1048 1.4496-3.4153-1.4459-1.6928-2.8882-3.382-4.3341-5.0748-1.2452 1.6818-2.4905 3.3598-3.7357 5.0416 1.2304.5914 1.524 2.299 1.0259 3.5631s-1.55 2.214-2.5016 3.1898c-4.6278 4.7492-7.4044 11.0442-8.8578 17.4972-1.2527 5.563-1.985 11.721-1.7396 17.432.1487 3.478 1.9923 2.347 5.189 2.291 2.8994-.052 5.8024-.052 8.7018 0 .4795.008 1.0259.052 1.3121.436.2862.385-.1301 1.106-.5427.865 1.6504.045 3.3008.089 4.9512.133-.1227-.018-.2454-.037-.368-.055zm-2.654-17.849c0-1.8 1.4682-3.26 3.2785-3.26h1.576c1.8102 0 3.2785 1.46 3.2785 3.26v4.964c0 1.8-1.4683 3.26-3.2785 3.26h-1.576c-1.8103 0-3.2785-1.46-3.2785-3.26zm-1.9589 4.964c0 1.8-1.4683 3.26-3.2785 3.26h-1.5761c-1.8102 0-3.2784-1.46-3.2784-3.26v-4.964c0-1.8 1.4682-3.26 3.2784-3.26h1.5761c1.8102 0 3.2785 1.46 3.2785 3.26z"/><path d="m66.7566 82.0199c.0223-.0111.0446-.026.0669-.0372.0483-.0334.0855-.0594.1004-.0706.0037 0-.0335.0149-.0892.0372-.0595.0223-.119.0334-.1896.0483-.0372.0074-.0706.0074-.1041.0112.0521.0037.1115.0074.1859.0074h.0334z"/><path d="m70.4553 82.4118c.0149.0481.0298.0887.0335.0924 0 0 .026-.0406.0446-.0924.0186-.0628.0372-.1293.0372-.1367 0-.0703-.0855-.1479-.0967-.1774.0037.0406-.052.1182-.052.1922 0 .0073.0186.0702.0334.1219z"/><path d="m66.4415 81.835c.0335.0111.0558.0222.0558.0222s-.1041.0037-.1933.0111c-.0855.0074-.1673.0148-.1673.0148.0483.0111.1041.037.1636.0591.052.0185.1041.037.1561.0518.1041-.0444.2193-.0961.3605-.1959.1673-.1072.3123-.3253.342-.4842.0446-.1627.0335-.2735.0298-.3881-.0149.0813-.1301.255-.1747.3511-.0298.0665-.0521.1442-.1041.2255-.0484.0776-.119.1478-.1896.1811-.0483.0296-.145.0407-.2267.0444-.0818.0036-.1487 0-.1785.0036-.0297.0074-.0594.0222-.0892.0333.026.0074.0521.0185.0818.0259.0446.0148.0929.0296.1264.0443z"/><path d="m65.9945 81.9091c.0744-.0112.145-.0223.145-.0223s-.0446-.0186-.1004-.0372h-.0074c-.0446.0186-.0967.0372-.145.0558.0037.0074.0075.0074.0149.0148.0186-.0037.0446-.0111.0929-.0148z"/><path d="m70.4248 82.0901s0-.0037 0-.0074h.0298c.0074.0074.0148.0111.0148.0185-.0111-.037.0521-.0666.0409-.0814 0-.0073-.0149-.0998-.0929-.1182-.0074-.0074-.2379.0221-.2416.0295.0074.0111.2007.0961.2081.1146.0149.0111.0298.0333.0372.0481z"/><path d="m68.0841 80.3379s-.0149 0-.026 0c-.0223.0111-.0446.0334-.0483.0595 0 .0111.0037.026.0074.0409.0372-.0298.0669-.0595.0706-.0744 0-.0037 0-.0149 0-.0223z"/><path d="m70.4298 82.1196s0-.0112 0-.0223c0 0-.0037-.0037-.0075-.0075-.0111.0112-.0185.0298-.0111.0335h.0149z"/><path d="m66.4866 82.0127s.0372-.0037.0558-.0074c-.0149 0-.0335 0-.0446 0-.0112 0-.026-.0074-.0372-.0112-.0148.0075-.0297.0149-.0446.0186z"/><path d="m65.8732 81.9272s-.0074-.0075-.0111-.0112c-.0335.0149-.0706.0298-.1004.0409.0037.0112.1041.0149.1896.0186-.0149-.0186-.0372-.0409-.0483-.0558-.0149 0-.0223.0075-.0298.0075z"/><path d="m67.9055 80.4746c-.0818-.1109-.0781-.1996-.0521-.1885-.0111 0-.0185.0185-.0223.0554-.0037.0333-.0074.0887-.0185.0887-.0075 0-.0298-.0443-.0521-.0665-.0223-.0369-.0409-.0296-.0446-.0333-.026 0-.026.1035.0706.2366.0075.0074.0149.0111.0186.0185.0409-.0259.0855-.0555.1264-.085-.0074-.0111-.0186-.0148-.026-.0259z"/><path d="m66.7567 82.0193c-.026.0148-.052.0296-.0818.0481-.0929.048-.1858.085-.2118.0887-.0781.0185-.2751-.0037-.342-.0148.0706.0628.1412.1294.1487.1737.0074.0222 0 .0665-.0149.0813s-.0334.0148-.0409.0037c-.0111-.0185-.026-.048-.0409-.0702 0 .0333 0 .0702-.0148.0961 0 0-.0075.0074-.0075.0111.0075 0 .0149-.0074.0223-.0074.0186 0 .1004 0 .1859.0074.0818.0037.1896 0 .2081 0 .0149 0-.0892.0406-.1858.0702-.0892.0296-.1784.0629-.1747.0665 0 .0111.0892.0111.1858.0074.1041-.0037.2194-.0184.2305-.0074 0 .0148-.1078.0481-.2082.0777-.0892.0258-.1784.0517-.1709.0628 0 .0037.0855.0074.1821.0111.1078 0 .223-.0074.2602-.0185.0372-.0074.0781-.0222.1227-.0443.0446-.0185.1226-.0555.1821-.0888.0557-.0295.1487-.085.2193-.1367.0632-.0407.1338-.0961.1933-.1442-.1227-.0961-.2491-.1774-.3457-.2143-.1152-.0481-.2044-.0518-.3048-.0629z"/><path d="m65.9913 82.0272c-.0892.0297-.223.0743-.197.078.026.0186.2268.0298.3085.0335h.0186c-.0409-.0372-.0818-.0707-.1152-.0967-.0074-.0074-.0112-.0111-.0149-.0186z"/><path d="m65.9512 81.9795s.026.0334.0409.0483c.0408-.0149.0743-.026.0743-.0334 0-.0112-.0558-.0112-.1152-.0149z"/></g><path d="m60.8212 94.8451c-1.1821-.4103-2.5946.1072-3.2822 1.2087-1.866 2.9939-9.1664 5.6962-11.9877 8.5492-3.8955 3.94-7.1108 8.645-9.4526 13.79-1.7544 3.852-5.0218 11.174-4.1371 15.576.7917 3.948 2.2303 2.835 6.2819 2.761 3.5424-.063 7.0811-.122 10.6235-.185-1.0408-14.829 3.3268-30.009 11.995-41.6888-.0111-.0037-.026-.0074-.0371-.0148z" fill="#e77300"/><path d="m76.7487 96.4053c.658 1.2087 1.3159 2.4173 1.9701 3.6257.1784.329.6542.363.8066.015.1524-.3474-.2751-.8168-.513-.5507.2008-.2217 5.1557 11.1957 5.5199 12.2857 1.5575 4.683 2.6429 9.599 3.219 14.6.2788 2.406.4387 4.835.4758 7.267.0409 2.554-.7583 5.175.9553 6.158 1.5315.876 5.2486-.015 6.977-.019 2.4979-.003 4.9956-.007 7.4976-.011-.108-9.747-2.836-19.423-7.6648-27.211-4.8286-7.788-11.7349-13.65-19.4219-16.4849z" fill="#e77300"/><path d="m63.5264 116.567h-1.576c-1.8103 0-3.2785 1.46-3.2785 3.26v4.964c0 1.8 1.4682 3.26 3.2785 3.26h1.576c1.8102 0 3.2785-1.46 3.2785-3.26v-4.964c0-1.8-1.4683-3.26-3.2785-3.26zm-.6505 9.707-3.8881-3.593 3.613-3.866 3.8881 3.592z" fill="#fff"/><path d="m62.5964 118.815-3.6101 3.865 3.8863 3.589 3.6101-3.864z" fill="#000"/><path d="m72.0363 128.051h1.576c1.8103 0 3.2785-1.46 3.2785-3.26v-4.964c0-1.8-1.4682-3.26-3.2785-3.26h-1.576c-1.8102 0-3.2785 1.46-3.2785 3.26v4.964c0 1.8 1.4683 3.26 3.2785 3.26zm.6505-9.233 3.8881 3.593-3.613 3.866-3.8881-3.592z" fill="#fff"/><g fill="#000"><path d="m72.6862 118.813-3.61 3.865 3.8862 3.589 3.6101-3.864z"/><path d="m83.4185 187.347c-.3159-.166-.472-.48-1.2229-.27-.8586.241-.6207-.026-.4572-.229.5464-.673.5687-.669-.4349-1.061-.3122-.122-.6802-.232-.8921-.388-.1115-.081-.0074-.288.1598-.384.1747-.1.5465-.141.829-.203-.0335.107-.0781.218-.1004.325-.0818.399.1264.488.8958.266.4758-.137.7806-.203 1.1598-.052.275.111.6467.2.9144-.044.1003-.093-.0298-.314-.2119-.348-.8698-.17-.8921-.476-.4424-.857.4349-.373.1227-.632-.2973-.865-.4832-.27-.4461-.554-.0037-.891.2527-.192.5427-.384.6951-.584.1375-.185.2825-.432.1152-.558-.2751-.211-.7917-.199-1.3716.033-.6245.255-.7026-.062-.6356-.162.1486-.229.4906-.447.7471-.673.4572-.403.8847-.806.2825-1.175-.1004-.063-.197-.189-.1115-.241 1.301-.743.2342-1.389.5204-2.073.394-.928.0817-1.737-.591-2.517-.1413-.163-.145-.244-.0335-.425.368-.625 1.2229-1.357-.4944-1.719-.8363-.177-1.2824-.292-.1449-.654.1152-.037-.0521-.24-.1673-.351-.0743-.074-1.3159 0-.0669-.222.6839-.122 1.0445-.263.4758-.447-.8364-.278-.6394-.695.2007-.917.9441-.248.6765-.466.7434-.695s-.223-.455-.0892-.68c.6245-1.057.5576-2.044-.3829-2.953-.2341-.226-.3122-.492-.6393-.691-.6654-.407-.3011-.884.145-1.316.2639-.259.5055-.411.0111-.603-.2602-.103-.2342-.31-.3382-.469h-.0223c-1.0631-.595-.4015-1.323-.1487-2.018.1152-.311 1.0779-.71-.3197-.832-.0186 0 .0706-.218.2342-.281.5092-.196.5352-.325.171-.525-.2974-.162-.3717-.41-.4275-.628-.0669-.277-.4609-.392-1.0817-.403-.8103-.015-.6616.277-.9032.447-.197.141-.1673.403-.8401.333-.4052-.041-.8586-.159-1.1077.089-.171.173-.1821.425.0298.554.4497.277 1.5686.458-.1078.865-.1487.037-.0521.318.0148.473.1859.433.5836.813-.052 1.346-.6579.547.2379.972 1.6467 1.105.5389.051 1.5054-.163 1.5946.221-.6802.041-1.3605.093-2.037.115-.2973.011-.5873-.085-.8623-.055-.3011.033-.8401.177-.8327.232.0669.74-.5278 1.579.8735 2.129.6022.237.8698.522.539.851-.2453.244-1.1077.451-1.2935.687-.1376.174.7285.44.5427.551-.7397.429-.0335.617.3903.835.2081.107.7137.159 1.1225.159.1338 0 .461-.24.591-.377.4684-.499.8364-1.005 1.3605-1.501.1375-.129.6765-.251 1.0743-.321.1561-.026.5389.074.6356.155.4312.37-.1673 1.364-1.1635 1.663-1.0705.322-1.2118.688-.8252.961.736.529-.6914 1.102-.4089 1.627.0223.044-.8326.214-1.2824.329-.1412-.133-.4163-.255-.394-.396.0558-.377.2714-.765.368-1.146.0372-.136-.0409-.281-.1598-.403-.0558-.059-.3085-.092-.5055-.103-.0818-.004-.3309.078-.3532.122-.275.469-.9701 1.024-.6579 1.393.5055.595.4721 1.172.0632 1.812-.052.085.119.214.3085.251.3085.055.7323.041 1.0817.074 1.1635.118 1.1449.137.4238.576-.2825.17-.7249.492-.6022.533.9107.299.3531.695.0818 1.06-.3643.492-.5056.928.2825 1.313.2379.114.2081.373.078.558-.7025 1.012.6877 1.966-.7508 3.001-.1078.078.1449.211.1598.325.1078.802.4052 1.601.2267 2.414-.2007.92-.2936 1.804.3309 2.646.1263.17.0557.403-.0632.595-.3792.603-.1859 1.165.1747 1.697.2267.329.2713.636.2081.998-.1226.658-.2527 1.331.2342 1.951.684.891.7397 1.86.3383 2.436-.1822.27-.4052.388-.487.403-.0966.008-.0037-.022.0112.203.0074.2-.1747.389-.4312.533-.2639.144-.6022.258-.9702.377-.5836.177-1.13.074-1.6764-.074-.1821-.052-.394-.104-.5724-.048-.2714.088-.4312.029-.5947-.174-.2082-.262-.3309-.166-.4647.159-.2044.495-.394.554-.8809.458-.3086-.063-.6171-.188-.9219-.166-1.1114.078-2.2191.185-3.3305.233-.6654.029-1.3344.029-1.9998.018-.6393-.011-1.3419-.199-1.8957-.059-.7992.207-1.6244.026-2.405.226-.3011.081-.6468.107-.9887-.137-.1822-.13-.5687-.118-.8252-.056-.3048.078-.5873.108-.8475.048-.2565-.055-.487-.21-.6208-.487-.0334-.067-.1933-.085-.2304-.03-.093.137-.1562.329-.2342.499-.0483-.192-.0409-.407-.0558-.558-.0223-.152.0075-.303-.0483-.329-.1896-.074-.2862-.444.0892-.884.0521-.059-.0595-.155-.078-.247-.0632-.288-.1896-.673-.1413-1.039.0818-.602.2676-1.201.4758-1.796.1375-.388-.0743-.717-.2453-1.079-.1562-.329.2899-.732.3977-1.109.1189-.422.1301-.85.2007-1.279.0223-.141.1673-.285.1301-.421-.1635-.573-.4051-1.139-.6133-1.712-.0706-.192-.2044-.417-.0706-.584.3345-.41.3196-.824.3717-1.253.0595-.462.2527-.894-.1413-1.356-.0743-.085.0186-.241.1636-.307.8103-.377.5129-.784.1375-1.216-.1784-.207-.3308-.451-.2565-.658.2379-.673.7881-1.316.2974-2.037-.1561-.232.145-.506.1301-.761-.0558-.965 1.0891-1.892.0743-2.894-.078-.078.1487-.2.171-.307.0484-.214.0818-.436.0707-.654-.0112-.233-.1227-.466-.119-.695.0149-.957.0372-1.907-.6059-2.861-.1598-.24-.0557-.625.2379-.798.9219-.551.6951-1.153.3123-1.789-.5427-.876-.8587-1.771-.6914-2.661.104-.61-.1487-1.272.3196-1.841.0707-.085.0744-.24.0149-.336-.3605-.562-.3643-1.117-.2751-1.697.0409-.296-.1301-.632-.078-.924.0595-.366-.0669-.673-.1673-1.017-.197-.669-.3159-1.36-.3382-2.04-.0186-.673.052-1.349.0408-2.025 0-.144-.0148-.289-.026-.433-.0037-.044-.026-.118-.0297-.111-.0149.026-.0446.074-.0483.126-.0335.51-.0967 1.024-.1524 1.538-.0707.672-.1264 1.345-.2119 2.018-.0074.07-.0966.133-.145.203-.3085.458-.3382.469.093.795.0706.051.2044.136.1932.177-.1152.407-.104.839-.1338 1.261-.0334.425-.104.842-.4832 1.219-.1189.119-.0632.411.0558.569.3457.462.4795.862-.2565 1.217-.1078.051-.1636.284-.0818.358.4721.432.171.821-.2639 1.105-.4275.285-.4275.54-.1264.773.6208.484.565.898-.1412 1.308-.3234.189-.3086.333.1226.484.3755.133 1.0371.111 1.0631.462.0223.289.1413.662-.1375.847-1.052.695-1.2341 1.434-1.0966 2.321.1227.776-.5575 1.563-.8475 2.351-.0706.188.0112.403.1227.595.3271.558.7323 1.112 1.0928 1.674.2677.418-.2007.658-1.1374.603-.2676-.015-.5353-.052-.8029-.078.0149.166-.0743.351.0669.495.1784.178.7657.318.7955.481.1003.539.0594 1.083.0111 1.622-.0186.222-.3457.407-.9181.318-1.1783-.181-1.0334.063-.8549.422.2267.454.368.898 1.0259 1.312.8438.528.7806.547-.2676.891-1.1709.384-1.1449.384-.7137 1.072.1933.306.3791.628.3791.938 0 .592-.1264 1.176-.1561 1.767 0 .063.1747.144.3048.196.0409.018.249-.015.2937-.052.1338-.111.2267-.233.3382-.351.0483.144.145.288.1375.429-.0074.17.0298.425-.1784.488-1.1969.377-.3866.854-.1635 1.312.1561.307.3791.632.3419.928-.1003.798-.3271 1.589-.3828 2.391-.0595.85-.026 1.7.0186 2.565.0148.422.0817 1.031.84 1.113l.0409-.085-.0409.088c-.2304.37-.171.784.0484 1.143.2193.358.6096.643.9887.798.3234.137.6691.118.7806.425.1858.484.6319.724 1.0556.817.4312.096.8587.055 1.249.048.3531-.007.6728-.052.9887-.074.3197-.018.6319-.022.933.026.6096.089 1.2378-.44 1.8065.015.0521.04.3048-.011.4015-.074.3977-.259.788-.167 1.2378-.111.9293.118 1.8771.358 2.8213.007.1561-.059.3903 0 .5873.019.7471.081 1.4942.207 2.2414.284.6356.067.6356.034.5575-.565-.0074-.067.0298-.141.0446-.211.0632.041.171.074.1896.126.1338.377.3977.562.8475.547.0929-.004.223.052.2862.118.4052.455.933.473 1.3493.259.461-.24.8066-.13 1.223.122.42.247.8437.499 1.3455.44.6877-.089 1.4869-.096 2.4162-.37.2193-.063.5204-.007.814-.041.4423-.048.9293-.192 1.4162-.399.684-.284 1.0928-.813.7249-1.375-.2156-.321-.1339-.502.3271-.477.3865.026.7025-.122.5761-.617-.1784-.643-.3531-1.116-.3197-1.552.0335-.436.264-.839.8401-1.272.1152-.088.1227-.255.1115-.369-.026-.27.0075-.544-.1635-.765-.4089-.518-.3309-1.279-2.0965-1.213-.4535.019-1.0779-.181-.8029-.499.2565-.288-.5798-.798.881-.876.2119-.011.4349-.125.6579-.192zm-.6356 2.587c.1933-.062.3829-.147.5873-.177.1896-.026.5539-.011.5613.03.0446.184.1004.402-.052.569-.2156.233-.6022.432-.9144.639-.0038 0-.1227-.044-.2305-.081.6245-.359.5576-.684.0483-.98zm-8.0215 6.343c-.052 0-.1152-.159-.171-.248.1524-.051.3011-.133.4572-.151.0744-.007.1673.1.4052.27-.342.074-.5167.129-.6914.129zm6.6945-21.737c-.1673.055-.3234.126-.5092.166-.0669.015-.3011-.048-.29-.059.0818-.07.2045-.14.3755-.244.1858.059.3048.1.42.137zm-23.1389 17.353c.0409.06.1152.119.1115.178 0 .063-.0744.126-.119.188-.0371-.074-.0706-.147-.0966-.203.0446-.07.0743-.118.1041-.163z"/><path d="m75.4726 154.917c.0632-.096.145-.3.2342-.455-.0409-.048-.1115-.048-.1413-.155-.052-.192-.1635-.366-.2899-.562-.1264-.185-.2528-.421-.3011-.721-.1561-1.024-.6765-.754-1.0817-.624-.1933.063-.4163.077-.5612.251-.3866.455-.8401.551-1.3791.466-.2565-.041-.6096.225-.6691.547-.171.909-.643 1.042-1.1634 1.164-.342.078-.6654.24-.9702-.436-.1487-.325-.3531-.285-.5204-.022-.394.617-.4089.565-1.0259.21-.2974-.17-.7025-.462-.5278.392.0111.056-.1004.2-.145.185-.617-.166-.959.373-1.3828.665-.3456.244-.7285.318-1.0519.089-.3531-.251-.7174-.1-.9218.096-.2156.215-.2639.566-.3643.832-.0149.037.1561.174.2119.162.4497-.099.8884-.114 1.3493.034.0632.018.1672-.048.2267-.108.4498-.417.8661-.953 1.6355-.643.3978-.439.9219-.221 1.4274-.159.3457.037.7248.215 1.0222-.114.1115-.126.3977.011.6096.066.3085.078.6282.252.9293.292.197.026.5018-.04.5241-.225.1115-.998.5687-1.017 1.1895-.702.1338.066.2639-.089.4014-.126.2193-.059.4349-.144.6654-.155.3977-.015.7992-.022 1.2192-.022h.1264l.0892-.012c.0557-.003.1115-.011.171-.014.104-.011.2081-.023.3196-.034.0038-.003.0707-.048.1524-.173zm-1.4162-.625v-.14c.0929-.207.171-.433.2862-.61.0297-.045.1487.085.2156.137-.0149.088-.0074.24-.0372.258-.1301.096-.3011.152-.4609.222l-.0074.133z"/><path d="m80.4937 155.785c-.4237.07-.8475.159-1.2675.2-.2565.022-.7211.018-.71-.008.1041-.284-.2119-.414-.5315-.458-.3197-.052-.6431-.018-.6059-.214.0297-.178-.1153-.248-.2007-.322-.0893-.081-.1227-.174.0929-.558.0818-.144.1264-.262.1487-.351.0111-.044.0148-.081.0111-.111 0-.015-.0037-.03-.0074-.041-.0112 0-.0372.015-.0558.023-.1672.085-.4089.277-.6653.517-.2082.203-.4238.41-.6431.625-.2119.196-.2639.196-.2602.037.0074-.163.0744-.481.1896-.958.052-.203.0892-.395.1115-.573.0111-.088.0186-.173.0223-.255 0-.088 0-.177.0037-.266 0-.377-.0855-.684-.2788-.905-.052-.059-.0594-.351-.0074-.459.0706-.136.2862-.306.3606-.281.5166.185.9144.47 1.0482.924.1189.414.2081.514.8475.067.2379-.17.4795-.344.7211-.514l.3977-.27.2008-.125c.026-.011.078-.056.0854-.045.0149.008.0298.011.0409.019.2193.114.3197.462.0298 1.146.6616-.045.6951.665.0706 1.519-.0446.059.0334.14.1152.148.4201.029.5948.273.6654.558.0743.288.0446.621.0818.92l-.0149.011z"/><path d="m80.5111 155.774c.2119-.037.4237-.063.6319-.111.5315-.122 1.0556-.259 1.5835-.403-.1636.229-.3011.484-.4572.702-.0781.129-.1673.152-.2639.211-.0967.051-.2045.096-.3271.129-1.2564.34-2.1337.769-2.8957 1.297-.4497.311-1.156.296-1.5314.026-.6914-.495-.2379-.868 1.2712-1.035.4684-.051.9553-.081 1.3308-.17.1858-.044.3456-.103.4609-.184.1152-.097.1784-.255.1821-.451z"/><path d="m61.9221 157.216c-.2973.062-.6021.044-.8289 0-.2267-.045-.3828-.108-.394-.207 0-.019.1078-.104.145-.111.1003-.019.2527-.034.2713.003.1562.307.6096.141 1.0148.019.1338-.037.249-.137.3829-.177.0892-.03.2007.003.301.011-.0594.062-.1077.144-.1858.177-.2788.129-.5724.233-.7063.281z"/><path d="m56.0759 173.449c-.0669-.107-.2193-.221-.1784-.317.0409-.085.2751-.163.4646-.207.0483-.011.3494.099.3643.159.0223.085-.1227.173-.1933.258z"/><path d="m80.8648 149.165c.3159-.133.617-.303.617-.244 0 .067-.0409.163-.0967.266-.0185.041-.0706.126-.1189.204-.0446.074-.0892.148-.1338.225-.0186-.011-.0409-.022-.0706-.022-.0521.033-.1078.067-.1599.096-.1003.059-.1784.1-.1821.078-.0297-.1.0818-.326.145-.599z"/><path d="m82.1653 162.235c0-.029-.0186-.055-.0074-.085l.1858-.503c.1375.008.3308-.003.4015.026.5612.241-.0446.4-.5576.566h-.0223z"/><path d="m84.1691 187.983-.4832.617c-.0446-.011-.1115-.018-.1264-.041-.1933-.262.145-.432.5873-.587l.0223.007z"/><path d="m59.5352 157.553c.0483-.041.0817-.067.1152-.097.0632 0 .145-.011.1858 0 .0149.004-.0706.067-.1226.082-.0446.015-.1115.007-.1784.015z"/><path d="m84.1465 187.975.4646-.621c.0483.008.1338.023.1338.023-.1933.203-.3828.403-.5761.606z"/><path d="m82.0389 153.915c.1672-.163.3196-.388.3977-.392.1413-.008.3011.1.3308.222.0223.085-.171.262-.2676.388-.1301-.067-.2639-.133-.4646-.218z"/><path d="m83.418 187.347.1487.026z"/><path d="m92.2898 157.415c-.1598-.314-.2937-.421-.4721-.61-.1784-.159-.4089-.318-.7769-.225-.4237.129-.5761.085-.6058-.1-.0298-.178.0669-.447.1412-.654.249-.684.394-.869.3383-1.22-.0261-.17-.1004-.37-.2342-.673-.0335-.077-.0706-.159-.1115-.247l-.0298-.071-.0148-.037.0074-.014c.0074-.023.0149-.045.026-.067.0335-.096.0781-.2.1487-.318.171-.299.3829-.661.8847-.876.2676-.107 1.011-.011 1.3158.159.3234.174.4015.543.5576.828-.29-.037-.5947-.081-.9033-.103-.5687-.045-.9181-.011-.985.122-.0706.136.1598.38.5761.768.5204.485.6766.795.6617 1.165-.0223.269.223.632.5836.916.1264.111.1933-.007.1635-.199-.104-.88.2825-.906 1.3605-.447.9144.443 1.6801.136 2.3975-.281.8252-.477 1.5947-.433 2.4013.011.4607.255.9217.55 1.4307.702.469.14 1.104.292 1.487.126.628-.27.71-.788.201-1.368-.55-.628.316-.699.572-.632.588.152 1.108.499 1.662.758.992.465 1.985.894 3.111.306.19-.099.554-.192.669-.107 1.736 1.312 3.702.263 5.49.558.606.104 1.201.163 1.788.182l.439.007.487-.007c.498-.015.989-.037 1.472-.071.502 0 .918-.144 1.349-.247l.632-.167.309-.085c.059 0 .078-.077.118-.114l.105-.141c.565-.739 1.044-1.508 1.393-2.31.25-.698.409-.961.759-1.6.145-.27.338-.536.472-.832.122-.277.245-.554.368-.835.104-.27.178-.544.253-.821.033-.14.066-.281.096-.421.019-.141.03-.281.037-.422.104-1.119-.316-2.225-1.338-2.842-.516-.292-.922-.484-1.089-.761-.193-.274-.16-.625.156-1.298.049-.129-.457-.72-.792-.983-.115-.089-.434.033-.628.052-.193.015-.252-.067.097-.632.197-.314.279-.603.182-.85-.1-.24-.36-.462-.881-.521-.39-.041-.732-.119-1.033-.233-.32-.089-.599-.215-.844-.377-.48-.318-.818-.703-.94-1.194-.134-.547-.465-.824-.833-.976-.372-.159-.781-.185-1.152-.281-.755-.192-1.569.019-2.197-.155-.751-.207-1.435-.351-2.097-.447-.672-.1-1.341-.152-2.011-.159-1.341-.015-2.68.177-4.025.58-.669.2-1.402.24-2.019.536-1.263.602-2.457.181-3.5122-.314-.6319-.296-.9739-.555-1.6244-.089-.342.244-.8921.192-1.3493.274l-.0186.018c-1.8548.969-3.6576.226-5.4641-.118-.8029-.159-1.643-1.157-2.3232.207-.0074.018-.565-.096-.6951-.27-.3977-.529-.7397-.569-1.3716-.24-.513.27-1.1932.314-1.8065.336-.7657.03-1.1709.403-1.3568 1.013-.2453.798.5799.687.9776.95.3271.214 1.0483.218.6877.872-.2156.396-.6468.824-.0372 1.102.4238.192 1.104.236 1.5055.044.8586-.407 1.6243-1.486 2.3008.218.0595.152.8438.096 1.2787.048 1.2155-.126 2.3344-.469 3.6093.229 1.3084.725 2.68-.111 3.3937-1.478.2714-.525-.0594-1.508.9962-1.545-.0632.676-.0892 1.356-.2007 2.022-.0483.295-.3754.569-.3643.842.0112.3.2639.85.4126.854 2.0069.033 4.1189.728 5.9589-.58.788-.562 1.62-.791 2.423-.422.595.274.933 1.154 1.528 1.368.439.155 1.372-.662 1.617-.462.963.787 1.654.118 2.349-.274.338-.192.598-.68.706-1.083.037-.129-.524-.491-.862-.635-1.227-.525-2.498-.958-3.699-1.538-.312-.151-.505-.698-.594-1.101-.034-.159.334-.525.58-.607 1.107-.373 3.627.341 4.2 1.368.613 1.102 1.55 1.297 2.468 1.053.892-.236 1.669.13 2.301.621.32.237.606.525.892.788.141.133.301.236.442.362.145.126.301.236.48.329.056.033.015.251-.086.528-.1.278-.245.596-.342.821-.319-.163-.762-.111-.974-.322-.323-.229-.628-.506-1.018-.728-.379-.229-.799-.428-1.245-.576-.327-.108-.714-.093-1.06-.019-.167.037-.327.27-.412.459-.034.077.093.34.189.377.532.199 1.026.539 1.431.827.406.292.748.525 1.071.555.561-.011 1.033.31 1.383.706.078.111.152.225.227.34.07.115.107.259.156.388.104.251.111.566.133.843-.007.155.227.351.439.392.349.062.751 0 1.123.059 1.23.218 1.263.41.572 1.36-.149.181-.327.432-.476.636-.16.203-.264.369-.208.428.766.987-.078 1.586-.617 1.863-.39.189-.68.366-.959.514-.342.007-.584.155-.944.521-.056.056-.13.096-.216.122-.044.011-.089.022-.137.026-.049.007-.13.011-.194.011-.275.004-.564-.037-.799-.103-2.587-.721-5.456.646-7.943-.806-.186-.107-.599.14-.907.155-2.189.092-4.409.373-6.557.181-1.2193-.107-2.4236-.192-3.6168-.17-.5984.011-1.1932.048-1.7916.118-.2974.037-.5985.082-.8959.134l-.223.044c-.0297.007-.0855.015-.1487.022l-.1784.026-.6951.111c-.368.063-.7843.081-1.2229.066-.4423-.018-.8921-.059-1.3159-.107-.6616-.077-1.3381-.122-2.0035-.133h-.249l-.1227-.004c-.0149.004-.052-.011-.0483.011v.056l-.0297.44c-.0149.295-.0224.599-.0261.905 0 .618 0 1.239.0558 1.874.0818.658.1821 1.309.2899 1.933.0669.388.1227.762.1673 1.109.0372.222.0669.444.0855.666.0372.443.0372.89.0149 1.375-.1004 1.737-.197 3.518.3122 5.278.7248 2.502.788 5.06.5836 7.592-.2007 2.361-.3978 4.749.1189 7.133.4498 2.122.6877 4.277 1.0259 6.395.2528 1.622.2231 3.042.145 4.524-.026.495-.052 1.064.0297 1.534.1227.724.0855 1.145-.0966 1.596-.2342.577-.1227.899.223 1.235.5241.517.6096 1.016.5762 2.328-.0223.817-.1301 1.619-.1301 2.399 0 1.409-.1152 2.809-.565 4.036-.4349 1.228-1.2452 2.255-2.4013 2.817-1.3864.699-3.1409.769-4.8879.721-1.7025-.052-3.6056-.3-5.0962-.2-2.1559.148-4.375-.096-6.4752.044-.814.056-1.7396.06-2.654-.21-.4832-.144-1.5277-.159-2.2228-.118-1.6876.099-3.2227.059-4.691-.459-.1858-.066-.8549-.055-.9293.008-.1784.155-.1375.358-.1821.543-.3791-.17-.7062-.381-1.156-.514-.4535-.133-1.0631-.281-1.5463-.277-1.643.018-3.219-.048-4.7802-.488-.223-.063-.5836.033-.8884.041-.4944.014-.9887.048-1.4868.074l-.3718.014c-.0892.008-.1263.019-.1932.026-.119.015-.2454.026-.3643.022-.2045 0-.3643-.04-.539-.066l-.1227-.026c-.0334-.011-.1003 0-.0669-.07l.0744-.303.078-.289.0632-.255.0632-.236s.0298-.152.0483-.244l.0558-.299c.1933-1.05.026-1.922-.0967-2.898-.1115-.876.3941-1.974.5539-2.987.1747-1.135.249-2.291.3791-3.437.0409-.381.2082-.773.1896-1.135-.0818-1.534-.2453-3.053-.3791-4.587-.0446-.521-.1487-1.12.0111-1.571.3903-1.109.4349-2.217.5464-3.371.1227-1.238.3792-2.413.0484-3.64-.0632-.23.052-.644.2081-.832.8661-1.035.6208-2.118.3048-3.271-.1524-.555-.2676-1.209-.1673-1.763.3346-1.811.9739-3.549.5836-5.482-.1264-.621.2156-1.36.2342-2.047.0372-1.298.3792-2.573.5985-3.859.223-1.261.3233-2.772-.342-4.217-.1041-.222.078-.647.026-.998-.0781-.699-.2379-1.438-.5799-2.159-.3531-.765-.9367-1.46-1.5797-2.081-.6617-.647-1.5017-1.161-2.3418-1.43-.8401-.285-1.6467-.377-2.3938-.392-.7471-.011-1.4348.063-2.0779.17-.6356.107-1.2675.244-1.8957.421-.6282.178-1.6838.1-2.1856-.177-1.5835-.872-3.1856-.606-4.8694-.174-2.3158.603-4.7096.983-7.1294.883-1.6653-.055-3.4272.241-5.0107-.177-.2416-.063-.6579-.055-.907.011-1.4831.403-2.9811.444-4.5571.399-.1599-.011-.2416-.014-.3717-.011-.119.004-.2454.015-.3755.03-.1338.018-.2787.04-.4126.052-.0669.007-.1338.011-.1932.011h-.0893c-.0185-.008-.078.014-.0483-.03.1227-.318.1747-.543.2119-.78.0372-.122.0706-.247.1004-.381l.0483-.206c.0186-.082.0297-.126.0557-.256.3383-1.77.7583-3.57 1.275-5.333.513-1.737 1.1151-3.463 1.6355-5.208.1115-.37.2156-.75.316-1.12.0297-.115.0669-.31.0557-.292-.0371.063-.1003.181-.1486.314-.4349 1.309-.8996 2.61-1.3568 3.926-.5984 1.715-1.1857 3.441-1.7991 5.152-.0669.185-.2007.322-.301.492-.3309.558-.5093.839-.5799 1.101-.0372.129-.0446.255-.0335.407.0075.159.0446.306.0707.587.0223.174.0929.396.052.496-.2342.554-.4275 1.145-.6059 1.722l-.0669.218c-.0149.067-.0818.174.0372.141h.4572l.9181-.008c1.275 0 2.3492.041 3.4234.385.3272.107 1.1189.033 1.5278-.097 1.2192-.377 2.2786-.539 3.3193.163.1524.104.7881.141.9814.056 1.1188-.503 2.2005-.23 3.0145.181.8103.403 1.5017.384 2.1002.066 1.2452-.654 2.3752-.628 3.5535.041.539.307.933.281 1.301-.159.3234-.384.2007-1.035 1.1449-1.09.7731-.045 1.773-.189 2.3046.073.9962.496 1.9961.777 3.0443.906.5241.067 1.0631.092 1.6206.092.5613 0 1.1189-.033 1.6765-.059.9664-.048 1.9143.218 2.4793.728.5724.518.7991 1.15.9515 1.874.0818.337.2751.721.4647 1.109.5613 1.131.9627 2.551 1.2378 4.029.2118 1.116-.2937 1.774-1.223 1.641-.2676-.037-.5278-.129-.7917-.196-.0112.448-.1227.947 0 1.331.1524.473.7248.839.7323 1.271.0223 1.449-.093 2.909-.2119 4.358-.052.599-.4015 1.094-.9665.869-1.156-.466-1.0445.192-.9144 1.149.1673 1.216.2417 2.41.8475 3.508.7732 1.405.7026 1.456-.394 2.402-1.2266 1.061-1.2006 1.054-.8661 2.895.1487.82.2937 1.681.2491 2.509-.0781 1.586-.2899 3.164-.4052 4.746-.0111.166.1561.381.2788.521.0409.045.2528-.048.3011-.144.1487-.299.2602-.632.3866-.95.0297.381.104.769.078 1.146-.0334.455-.0297 1.138-.2453 1.316-1.2527 1.039-.5055 2.306-.3457 3.53.1115.824.2937 1.685.2119 2.491-.2119 2.151-.5501 4.276-.7174 6.431l-.0632.858-.0929 1.46c-.0744 1.031-.0892 1.977-.1264 2.975l-.0074.185c.0557.011.1189.011.1784.019l.3605.033.7249.066.7285.067c.2416.026.487.044.7509.044l1.5537.022.6951.008h.4349c1.0928 0 2.2823-.011 2.6206-.739l-.1785-.056.1822.052c1.5203.554 2.9439.162 4.3267-.144.5687-.133 1.1672-.348 1.6987-.119 1.6058.673 3.5981.462 5.5199.485 1.7061.007 3.4792-.056 5.0924.088 1.6393.133 3.338-.347 4.862.152.1449.048.8177.011 1.0854-.045 1.0742-.229 2.1261-.103 3.3305-.014 1.2601.092 2.4979.221 3.7951.281 1.2936.044 2.6838-.023 3.9922-.559.4238-.17 1.104-.351 1.6392-.628 1.0297-.499 1.9144-1.312 2.55-2.266.6468-.953 1.0333-2.021 1.2712-3.082.2008-.906.2268-1.36.1747-1.56-.0594-.203-.223-.155-.5315-.067-.0706.019-.1338-.085-.2007-.133.0594-.173.1003-.458.1598-.506.4014-.344.6096-1.09.5576-2.325-.0112-.251.026-.61.0892-.783.4014-1.113.3531-2.525.0818-3.626-.3011-1.216-.2305-2.144-.0372-3.275.1896-1.139.3866-2.292.2639-3.622-.1673-1.734-.2714-3.504-.3829-5.271-.026-.425.1041-.895.171-1.338.1041-.677.197-1.36.3383-2.022.1933-.92.2156-1.648-.4015-2.085-.3494-.247-.3828-.606.0484-.861.3605-.211.5761-.517.2973-1.201-.7397-1.8-1.0333-3.611.0892-5.463.1115-.185.1153-.569.1004-.854-.0372-.695-.0149-1.445-.1933-2.062-.4349-1.464-.3829-3.493-2.1559-3.645-.4535-.04-1.0891-.684-.8252-1.489.2453-.728-.6133-2.251.8512-2.188.2156.011.4349-.255.6542-.396zm-.5427 6.831c.1933-.13.3829-.329.5836-.366.1895-.034.5538.074.565.181.052.499.1189 1.098-.0298 1.515-.2081.588-.591 1.046-.8958 1.549-.0037.007-.1264-.137-.2379-.263.6133-.842.5353-1.733.0112-2.616zm1.2861 30.881c.0074.144-.145.314-.223.473-.0744-.403-.1747-.791-.2119-1.212-.0186-.196.0781-.447.2156-1.102.1189.91.197 1.368.223 1.841zm28.1498-43.334c-.197.022-.431.041-.606-.018-.063-.026-.1-.366-.082-.377.156-.1.327-.167.602-.315.049.3.067.507.086.71zm-70.4801 54.888c.1487-.04.3085-.111.4683-.103.1747.007.3457.081.5167.125-.197.03-.394.063-.5427.085-.1895-.048-.3122-.077-.4386-.11z"/><path d="m61.7461 140.97c.275-.066.4981-.255.7397-.395-.2714-.089-.5948-.133-.7992-.277-.736-.522-1.866-.987-2.0518-1.586-.3197-1.035-1.1375-.92-2.0593-.913-.5501.004-1.1374-.048-1.6392.07-1.3271.322-2.5723.277-3.9179.033-.6356-.114-1.7433.034-2.1336.326-1.0891.817-2.4161.806-3.8509.765-.9441-.026-1.8957.033-2.2154-.706-.1524-.355-.7174-.377-1.3344-.178-1.4646.474-1.4571.418-2.8139-.103-.6467-.251-1.498-.651-1.6466.218-.0075.055-.4052.159-.5093.133-1.4794-.344-2.7544.07-4.0665.222-1.0742.129-2.1187.085-2.799-.229-.7434-.344-1.7916-.311-2.4607-.181-.7137.14-1.0891.462-1.5352.687-.0669.033.2825.211.4312.218 1.2415.037 2.3901.155 3.4792.436.145.037.4721 0 .6654-.033 1.4683-.266 2.9328-.65 4.7096-.126 1.3455-.299 2.5499.063 3.8174.274.8735.137 1.7322.418 2.7395.196.3754-.085 1.0297.129 1.5389.244.7434.166 1.4497.425 2.208.554.4906.085 1.3344.111 1.5202-.059.9999-.92 2.1969-.802 3.5908-.314.2973.103.7508-.004 1.13 0 .6096.007 1.2303-.008 1.8325.052 2.0927.207 4.1817.458 6.635.75.0223 0 .4275.011.788-.078zm-5.0887-1.319.1003-.133c.3866-.167.7583-.359 1.1709-.499.1004-.034.3197.125.487.196-.0855.085-.1599.229-.2602.24-.4572.044-.9219.048-1.3828.07l-.1115.126z"/><path d="m79.0013 137.866c-.0074.425.0298.854-.0409 1.271-.0446.255-.301.714-.3754.699-1.498-.277-2.338 1.164-3.8509 1.027-1.2713-.103-2.5574.499-3.8918-.033-.9999-.392-1.9887-.222-2.9328.181-.4795.207-.9702.411-1.4906.525-1.4087.314-2.5796-.107-3.0182-1.186-.3755-.928-.9219-1.675-1.9218-2.218-.1375-.074-.2342-.359-.1561-.447.1004-.111.4498-.218.6022-.17 1.0631.347 2.1708.669 3.1298 1.179.8549.454 1.524.617 2.5759.318 1.3828-.388 2.747-1.324 4.375-.621 1.0966-.64 2.1485-.606 3.1856.107.0743.052.3308-.015.4275-.096.9999-.817 2.2079-.558 3.3677-.555l.0185.019z"/><path d="m78.9821 137.847c0-.211.0149-.425 0-.636-.0446-.536-.1041-1.072-.1598-1.607.5241.373 1.2935.654 1.5277 1.153.5984 1.286 1.5389 2.206 2.773 3.027.7285.484.5055 1.179-.3123 1.515-1.5054.618-2.4049.119-2.4644-1.389-.0372-.936.1561-1.941-1.3419-2.052l-.0186-.018z"/><path d="m23.071 138.826c-.8178-.029-1.5946-.14-2.1596-.244-.5613-.111-.9107-.218-.8735-.314.0074-.018.3531-.066.4497-.063.2714.015.684.045.7063.085.1895.34 1.4868.318 2.6205.322.3755 0 .7434-.056 1.1189-.056.2565 0 .5167.063.7768.1-.2007.041-.3791.104-.6058.115-.8178.04-1.6504.052-2.0333.059z"/><path d="m48.2496 160.039c-.0744-.244-.2416-.481-.2156-.688.0223-.185.2416-.388.4089-.517.0446-.037.3754.151.4014.292.0409.185-.0855.41-.1487.621z"/><path d="m68.582 136.177c.3903-.081.6765-.207.7583-.148.1859.137.2714.37.394.562-.1858.066-.446.233-.5464.181-.2156-.111-.3457-.329-.6059-.599z"/><path d="m96.4727 137.061c-.0781 0-.1562.011-.2305 0l-1.3047-.252c.0558-.133.0706-.325.171-.392.7917-.521 1.0668.1 1.379.625l-.0186.019z"/><path d="m93.0703 159.27-.4646 1.571c-.0446-.041-.1152-.07-.1301-.129-.2044-.743.1301-1.139.5687-1.468l.0223.026z"/><path d="m16.6248 138.435c.1487-.022.2602-.04.368-.059.171.019.3866.033.4832.059.0335.008-.2267.041-.3791.041-.1301 0-.2937-.026-.4758-.041z"/><path d="m93.0449 159.244.4424-1.578c.0483.03.1338.081.1375.085-.1859.51-.3717 1.013-.5539 1.519l-.0223-.026z"/><path d="m76.7223 136.132c-.1338-.181-.3419-.358-.3011-.436.0744-.14.29-.285.461-.303.1152-.011.249.196.3717.307-.1487.122-.3011.244-.5316.432z"/><path d="m92.2891 157.415.1486.104z"/><path d="m59.9263 96.871c.7397-.4435.9665-.5064 2.8771-1.7372.6021-.3844.9404-.6025 1.1597-.7466.2305-.1442.3383-.2033.3345-.1885.0261.0074-.2973.2439-.5612.4398-.8661.6358-1.275.9204-1.2415.9425.0185.0111.1486-.048.3903-.1626.1338-.0628.2787-.1331.446-.2144.0892-.0443.1821-.0887.2862-.1367.0781-.0333.1599-.0703.2491-.1109.4386-.1922.9776-.4362 1.2043-.462.119-.0148-.197.2624-.5315.4805-.3532.2291-.9628.547-1.472.8242.1301-.1146.2639-.2292.3717-.3363.197-.1922.223-.2625.0223-.1738-.2379.1109-.788.4251-1.6467.9241-1.0705.6246-1.7061.9721-2.4495 1.3491-.539.2698-1.3308.7133-1.9515 1.083-.2305.1367.0111.0258.3717-.1627 1.7507-.9129 1.6281-.7318.6616-.1996-.933.5101-.3828.2699.2788.0555.762-.2551.5464-.0518-.275.3179-.4721.2143-.9851.4176-1.2639.5359-.2564.1109-.5092.2107-.2787.1663.3791-.0739 1.1114-.218 2.0406-.5211 1.0185-.3475.9962-.207.8587-.1294-.3122.1737-.8772.3696-1.301.5101-.3791.1293-.7248.2291-.8884.2957-.1635.0702-.1449.1072.1673.1626.1078.0185.1821.0665.0669.0813-.8698.1035-.9739.1368-.985.2255.0074.0808.104.2178-.0892.2628-.1301.022-.2119.048-.2528.092-.0112.011-.0186.022-.026.033-.0037.008 0 .008-.0112.022l-.0371.063c-.0447.082-.0818.17-.1116.263-.1189.362-.1226.78-.0148 1.249.0409.192.0074.255-.1747.333-.6059.262-1.695.38-.394 1.519.6319.551.9664.854-.1859.554-.1152-.029-.0706.204-.0186.344.0335.092 1.1449.647-.0372.2-.6504-.244-1.0222-.315-.6096.103.6059.617.2565.828-.5798.595-.9367-.262-.8029.033-.9628.178-.1635.147-.0074.454-.223.565-1.0259.525-1.353 1.368-.8884 2.488.119.277.0781.521.2937.813.4274.595-.0595.82-.6319.987-.3383.099-.6171.125-.2342.476.2007.185.1004.34.1375.511l.0186.011c.762.887-.1338 1.197-.591 1.674-.2119.207-1.2415.188.0186.795.0149.007-.1375.151-.3123.144-.5389-.022-.6096.077-.3382.366.223.236.2119.462.1858.661-.0297.248.3011.473.881.692.7546.28.71 0 .9925-.052.2304-.045.2899-.263.8958.022.3643.17.7546.414 1.0668.307.2156-.074.3085-.263.1524-.436-.3308-.366-1.3159-.906.3754-.621.1487.025.1524-.222.1376-.366-.0335-.396-.29-.839.4943-.995.7992-.159.1227-.809-1.1188-1.467-.4758-.251-1.4385-.466-1.3791-.802.6357.24 1.2824.469 1.9069.721.2751.111.5092.295.7732.38.2862.097.8326.2.8475.159.2007-.576 1.0184-.938-.0223-1.922-.4535-.425-.5836-.754-.1562-.85.316-.074 1.1709.152 1.4274.063.1896-.066-.4832-.639-.2751-.636.829.023.2602-.428-.0223-.78-.1412-.173-.565-.436-.9292-.628-.1153-.059-.5093-.037-.684.007-.617.156-1.1448.374-1.8139.522-.1747.037-.7063-.108-1.0891-.226-.1524-.048-.4535-.296-.5056-.403-.2304-.48.6989-1.005 1.7211-.765 1.0891.248 1.3678.048 1.1485-.336-.4163-.739 1.0854-.488 1.0594-1.006 0-.044.8215.248 1.2564.385.0669.163.2565.384.1784.477-.2081.244-.5576.417-.8066.647-.0892.085-.0818.221-.0297.362.026.066.2341.21.4014.307.0706.04.3234.096.3643.077.4386-.211 1.2787-.266 1.156-.673-.1933-.657.0632-1.06.71-1.286.0817-.029-.0075-.207-.1561-.325-.2417-.192-.6096-.396-.8959-.595-.9478-.669-.9218-.68-.104-.617.3196.022.8437.029.7545-.063-.643-.677.0149-.669.4089-.776.5241-.152.8624-.355.3866-1.039-.0706-.104-.0706-.196-.026-.266.0557-.093.1561-.17.2676-.218.6245-.289.8029-.876 1.0519-1.372.2528-.524.5873-.9236 1.7731-1.4374.1784-.0813 0-.2365.0669-.3548.4981-.8686.7174-1.6707 1.5872-2.591.9813-1.0091 1.9032-2.1364 1.6095-2.5873-.0595-.0851.2379-.3844.5985-.706 1.0928-.9204 1.2415-1.3417 1.0407-1.497-.1263-.0961.0335-.34.4498-.7872.1859-.2033.3754-.4066.565-.6099.1747-.1959.3717-.4103.42-.5286.145-.2661.171-.462-.2602-.2994-.617.2366-1.0036.3401-.985.1109.0186-.2254.4424-.7762 1.3791-1.7815l.6913-.7356.1822-.1922.0409-.0443v-.0111-.0222c0-.0259-.0112-.0517-.0223-.0702-.0484-.085-.1747-.1109-.4201-.0407-.4795.1331-1.4682.669-2.996 1.7409-1.3493.9499-2.4347 1.6781-3.4494 2.3545-.4907.3289-.9813.6542-1.4683.9832-.472.3215-.9776.6505-1.3084.9351-1.1263.9019-1.5203.9869-2.1001 1.1125-.1859.037-.4461.1109-.7769.3881-.5018.4214-.658.4325-.7769.207-.1598-.2846-.4981.0555-.8661.7467-.565 1.0571-.7285 1.2382-1.4162 1.5191-.1747.133-.3494.2698-.5353.4324l-.0706.0592-.0706.0332-.1375.074c-.093.0517-.1822.1108-.2677.1774-.1821.1404-.2453.1996-.3419.2772l-.2751.2329-.5464.4657c-.3643.3104-.7286.6135-1.1003.9092-.4349.3659-.8661.7392-1.3196 1.0872-.4274.336-1.0184.572-1.2935.979-.2007.292-.4609.517-.7025.761-.2491.241-.4981.474-.6691.777-.1338.232-.3271.454-.7063.473-.2007.011-.4349.247-.5538.44-.1413.236-.3011.436-.5093.576-.197.152-.4423.244-.7768.248-.0818 0-.2082.177-.1784.24.078.152.2341.281.3605.421-.197-.022-.4163-.085-.6022-.062-.1858.022-.4163.077-.5055.203-.3085.429-.6691.776-1.3084.883-.0929.015-.0892.17-.1413.252-.1672.277-.2527.617-.4832.835-.3791.362-.8438.658-1.327.946-.3159.185-.3196.54-.3754.891-.026.159-.1784.24-.3643.31-.1784.074-.3866.137-.5204.241-.3011.24-.5204.543-.7843.817-.0892.088-.2788.114-.3122.232-.145.507-.2156 1.054-.3123 1.579-.0334.177-.0297.406-.2118.465-.4609.133-.6282.455-.8587.751-.249.318-.6096.55-.4683 1.09.026.1-.119.17-.2751.152-.8735-.111-.7917.351-.6468.853.0707.244.1153.507-.0297.632-.4646.411-1.2081.677-1.0445 1.457.052.251-.3234.332-.4089.539-.1487.396-.6022.64-.8884.972-.2973.326-.4832.714-.1858 1.313.0446.092-.2045.103-.2602.181-.1153.155-.2193.321-.2825.502-.0669.193-.0409.422-.119.607-.3531.757-.5984 1.563-.2527 2.55.0892.248-.1153.528-.4424.584-1.0222.174-.9887.75-.7694 1.386.3308.894.4535 1.715.1041 2.414-.119.24-.1413.517-.2156.776-.0707.259-.2045.499-.461.695-.0817.059-.1077.188-.0631.281.2713.55.1895 1.016.0185 1.489-.0855.244.0372.558-.0594.795-.1115.299-.0335.576.0148.88.1153.595.1933 1.193.1524 1.77-.0371.569-.1635 1.131-.2044 1.7-.0112.122-.0074.244-.0112.366 0 .037.0149.1.0224.096.0185-.022.052-.059.0594-.103.0744-.425.1784-.85.2751-1.275.1264-.555.2379-1.117.3754-1.667.0149-.06.1078-.1.1599-.152.3419-.34.3679-.34-.0112-.676-.0632-.056-.1821-.145-.1673-.178.1747-.321.2231-.676.3123-1.024.0929-.347.223-.68.6467-.92.1339-.074.119-.325.0261-.477-.2677-.447-.3569-.817.446-.942.1152-.019.2156-.192.1524-.27-.3754-.455 0-.702.4795-.824.4721-.122.5204-.326.2751-.588-.5055-.547-.3643-.876.3977-1.009.3494-.059.3606-.178-.0223-.425-.3271-.211-.9627-.385-.8995-.673.0557-.236.0371-.573.3531-.636 1.182-.236 1.5389-.743 1.6392-1.489.0632-.662.9702-1.017 1.472-1.501.1227-.118.1115-.307.0669-.495-.1301-.547-.3345-1.131-.4869-1.711-.1153-.433.3903-.429 1.2266.003.2379.122.4684.259.7026.388.0446-.125.1932-.221.1115-.388-.0967-.203-.5799-.554-.5502-.687.1041-.44.3346-.824.5688-1.201.0966-.156.4534-.145.9292.181.9851.665.9405.425.907.085-.0372-.425-.026-.821-.4349-1.423-.5278-.777-.4572-.765.591-.496 1.1709.303 1.1449.3 1.0445-.391-.0446-.311-.078-.629.0446-.843.2379-.41.5576-.765.8587-1.131.0297-.041-.0855-.189-.1673-.296-.026-.033-.2156-.126-.2676-.122-.1599 0-.2937.037-.4424.056.0223-.122.0075-.274.0781-.363.0818-.111.1673-.303.368-.233 1.1672.4.7025-.362.7248-.798.0112-.296-.0297-.643.1376-.824.2267-.244.4572-.473.7211-.684.2565-.211.5129-.425.7322-.669.4647-.514.8661-1.087 1.2527-1.671.1784-.281.394-.565-.0929-1.131l-.0744.008.0744-.011c.7062 0 .6691-.603.7062-1.15.0112-.225-.0334-.521.2342-.495.8029.074.9999-.573 1.4125-.998.3531-.388.6728-.839 1.104-1.109.4237-.277.4497-1.027 1.1002-1.013.0632 0 .171-.185.197-.281.0855-.402.3978-.539.7212-.731.6765-.4 1.4273-.703 1.8176-1.475.0632-.13.2491-.207.3978-.281.5538-.296 1.1337-.551 1.6838-.8429.4684-.2513.4498-.2772.0558-.7318-.0446-.0517-.0595-.1294-.0893-.1959.067 0 .1562-.0222.2008.0148.3048.255.4386.3289.5575.2255.0261-.0259.0744.0073.0967.0702.1301.4176.052.4103.2639.0148.2342-.4362.3457-.4029.223-.1257-.1041.2661-.3345.5803-.1449.3585.2639-.3068.5389-.5359.8474-.7836.0781-.0591-.1263.1627-.2304.2736-.1561.17-.3085.3289-.5687.5729-.3606.34-.4238.377.9218-.7984.762-.6653.8698-.7392-.0595.0702-.7731.6764-1.2601 1.0867-.6096.536.8698-.7282 1.5426-1.2383 1.6727-1.3085.1227-.0665-.3011.3068-1.7098 1.3861-.2788.2144-.2862.2181-.2454.1885.1896-.1331.3866-.2772.5613-.3992 1.2118-.8612 1.1189-.7651 6.2559-4.2987 1.3679-.9536 2.9105-1.9294 1.9329-1.1716-.4386.3326-.197.2365-.3346.3807-.1375.1441-.6281.5026-2.483 1.6928-.4497.2957-1.156.7614-1.7359 1.1421zm1.9181-1.7187c-.5316.3881-1.1263.8168-1.5761 1.1458-.4683.3327-1.2638.8982-1.5723 1.1162-.171.1072-.3829.244-.0186-.0369.5167-.3955 1.4868-1.1347 2.2228-1.7187.0149-.0111.342-.2477.6505-.4658-1.5017 1.1754-1.2489 1.0091.2899-.0369zm-6.2522 3.4966c-.0186.0147-.0186-.1627-.0372-.244.0818-.1146.1822-.2698.2788-.3548.0446-.037.0706.0628.1078.2107-.197.2143-.2788.3363-.3494.3881zm2.0816 4.0101c.1672.048.3308.082.5055.152.0632.026.2305.192.2193.196-.1041.007-.2379-.011-.4312-.026-.1301-.141-.2118-.229-.2936-.322zm-14.1287 5.404c0-.067-.026-.152.0037-.192.0372-.041.1227-.037.1896-.052-.0112.07-.0223.144-.0298.2-.0706.018-.1152.033-.1635.044z"/><path d="m53.4965 123.277c-.0558-.093-.2379-.193-.368-.289-.0967.067-.1524.159-.3011.2-.539.14-1.0371.421-1.6393.388-1.0407-.055-.9515.222-.9775.514-.0149.173-.0855.355.0185.528.2677.462.2119.847-.0594 1.246-.1264.188 0 .558.2862.71.7992.428.762.835.6988 1.278-.0483.292.0149.592-.7286.636-.3531.022-.3791.2-.1821.407.4684.495.4126.484-.1115.883-.2528.189-.6579.444.2119.529.0557.003.1598.133.1338.166-.3569.451.0706.869.2416 1.283.145.34.1115.661-.197.872-.3383.229-.2899.562-.1524.772.1487.226.4758.34.71.477.0334.019.2081-.089.2155-.137.0261-.384.1301-.739.3978-1.071.0371-.045 0-.145-.0409-.204-.2825-.454-.6951-.924-.1784-1.456-.2974-.429.0706-.787.2862-1.164.1412-.263.4274-.507.2044-.832-.0855-.122.1301-.307.2491-.455.1672-.214.4349-.41.5798-.628.093-.14.1338-.395-.0334-.466-.907-.391-.7657-.754-.2528-1.127.1078-.081.0075-.229.0186-.347.0186-.185.0112-.377.0818-.555.2676-.613.5836-1.212.9478-1.907 0-.007.0223-.126-.052-.251zm-1.4683 1.356-.1301-.048c-.1561-.14-.3345-.285-.4572-.432-.0297-.037.1338-.082.2119-.122.0818.037.223.081.2304.114.0298.148.0223.292.0261.436z"/><path d="m51.2741 117.344c.4126.103.8363.196 1.2378.318.249.074.6765.262.6579.281-.3605.395.9999.979.7806 1.4-.1859.359.3606.873-.223 1.165-.4312.221-.3085.558.0483.92.1821.185.3606.37.4535.543.2527.477-.223.747-1.2973.703-.9293-.041-1.6913.003-2.2637.236-.0781.03-.3643.019-.446-.022-.1078-.048-.2008-.177-.1487-.218.3828-.281.7285-.58 1.2861-.787.4906-.185.6802-.363.4312-.743-.3197-.499-1.1784-1.117-.4089-1.486-.5836-.477-.487-.81.2751-.972.052-.011.0037-.107-.067-.155-.7359-.496-.4088-.821-.3382-1.18h.0186z"/><path d="m51.2552 117.347c-.2081-.051-.4126-.107-.6207-.151-.5242-.111-1.052-.222-1.5798-.333.3977-.081.7211-.259 1.2229-.21 1.2898.125 2.2414.062 3.1187-.1.5241-.093 1.1783.155 1.4533.484.513.606-.0223.743-1.4942.392-.9144-.218-1.8809-.529-2.0816-.085h-.0186z"/><path d="m51.132 134.99c-.0075.255-.0967.499-.1896.676-.0967.178-.1933.292-.2937.285-.0186 0-.078-.107-.0743-.137.0074-.085.026-.214.0669-.222.3345-.074.2788-.473.2528-.828-.0075-.118-.0744-.229-.0855-.347-.0075-.082.0483-.163.0817-.244.0484.063.1153.118.1301.188.0632.252.0967.51.1116.629z"/><path d="m37.6905 122.249c.0297.107.1338.252.0669.307-.0632.048-.3011.015-.4907-.026-.0483-.011-.2899-.211-.2862-.262.0074-.071.1636-.082.2565-.119z"/><path d="m49.0347 120.297c-.0632-.141-.1747-.259-.1078-.274.145-.033.3754-.015.5762-.018.0594.074.2081.188.1524.21-.119.049-.3383.049-.6208.082z"/><path d="m51.8267 111.652c-.0075.022 0 .052-.0223.07l-.3569.329c-.1227-.059-.3048-.126-.3568-.177-.4238-.414.1895-.307.7211-.237l.0186.011z"/><path d="m58.1424 97.9467c.4758-.3364.9664-.6875 1.4682-1.0571.1153-.0776.2268-.1516.342-.2292.4424-.2587-.5501.4362-1.7507 1.2456l-.0632.0407z"/><path d="m50.9087 137.007c-.026-.044-.0483-.077-.0669-.11.0111-.056.0223-.122.0446-.156.0074-.011.0483.07.052.115 0 .041-.0185.092-.0297.151z"/><path d="m58.2056 97.9062c-.446.3142-.8772.6099-1.2935.8908-.119.0776-.342.2181-.3457.2218.4981-.329 1.0296-.6912 1.5761-1.0719z"/><path d="m49.4325 117.662c-.1859 0-.3717.03-.4461 0-.1301-.055-.2602-.159-.2676-.218-.0037-.04.2082-.037.3234-.051.1115.077.2193.151.3903.269z"/><path d="m59.9268 96.8711-.3643.2292.3606-.2255z"/><path d="m70.6452 94.1169c.5873.3992.9739.7504 2.0853 1.2124.6431.2735.881.3992.959.462.0595.0555-.0594.0444-.1486.0444-.3011-.0074-.4572.0147-.3234.1478.0669.0665.2007.1589.4237.292.119.0665.2491.1442.4015.2292.078.0443.1635.0887.2527.1404.1078.0555.2231.1146.3457.1774.5501.2736 1.0891.5434 1.6801.8391.2045.1072.0595.1256-.2044.0739-.2713-.0554-.8884-.2513-1.3419-.377.0149-.0518.0558-.0924.0595-.1442.0112-.0961-.0818-.1848-.342-.3141-.2304-.1146-.5687-.2366-1.0928-.3844-.6468-.1812-1.0519-.2846-1.6913-.658-.4646-.2661-1.0779-.6135-1.3381-.5248-.0967.0333.2267.3511.5129.4879 1.3642.6764 1.5203.9055 1.1003 1.083-.4052.1774.1784.5913.8512.9388.3866.2033.5985.3548.6654.4879.0706.1441 0 .2661-.1822.4029-.2081.1515-.446.3252-.4943.547-.0484.1996-.0484.499.2304.6579.4572.2666 1.0073.2146 1.5352-.0222.5798-.2365.8103.0444.7843.1328-.0558.207-.316.444-.4572.71-.2639.458-.3977 1.068.3866 1.297.1078.052.223.178.1561.274-.1561.421-.2862.573-.3048.754-.0223.17.0334.296.1152.403.1673.222.4535.38.4312.691-.0335.425.0855.75.3197 1.005.2193.266.5575.462.9776.625.1747.066.2007.126.1524.307-.1599.617-.7509 1.467.9478 1.109.8289-.174 1.2676-.237.3048.451-.0966.07.1115.166.2453.21.0893.03 1.2267-.466.119.148-.6059.336-.907.566-.3308.51.8512-.078.7769.314.0409.769-.8252.51-.5204.58-.5279.776-.0111.196.3271.266.2491.484-.3643 1.013-.1004 1.719.9924 2.14.2714.104.4052.285.7509.352.71.133.4498.613.1004 1.064-.2082.274-.4164.451.0966.473.2676.011.2825.181.4126.277h.0223c1.1449.193.6208.943.4721 1.542-.0669.273-.9442.794.4349.584.0186 0-.0372.184-.1896.273-.4684.263-.4758.366-.0929.447.3122.067.4237.244.5092.407.1078.203.4944.222 1.1077.111.7918-.144.6133-.351.8289-.54.1747-.151.1004-.362.7732-.44.4052-.048.8661-.037 1.0705-.292.1413-.177.1115-.391-.1189-.458-.4833-.14-1.6021-.048-.0372-.743.1375-.063 0-.277-.0892-.392-.2528-.325-.6988-.543-.1673-1.142.5353-.613-.4275-.758-1.8102-.51-.5278.096-1.4237.51-1.5835.229.6468-.207 1.2973-.425 1.944-.613.2863-.085.5836-.082.8438-.174.2862-.103.7769-.359.7583-.403-.2156-.599.1859-1.475-1.275-1.545-.6319-.026-.9552-.177-.7173-.54.1784-.269.9515-.694 1.0705-.946.0855-.188-.7992-.148-.6468-.292.6022-.58-.1152-.521-.5687-.569-.223-.022-.7137.092-1.1003.226-.1264.04-.3791.34-.4683.491-.3271.547-.565 1.065-.9516 1.612-.1004.14-.5873.399-.9516.573-.1412.066-.5315.103-.6393.07-.487-.152-.1338-1.094.7397-1.649.9441-.591.9887-.931.5501-1.016-.8289-.166.3643-1.094-.0409-1.416-.0334-.026.7249-.458 1.1114-.706.1673.056.4609.063.4758.181.0483.326-.0483.706-.0372 1.043.0038.122.1153.21.2565.269.0669.03.316-.025.5055-.081.0781-.022.29-.17.3011-.211.1301-.469.6319-1.153.2379-1.352-.6393-.318-.7657-.795-.565-1.468.0261-.088-.171-.133-.3605-.092-.3048.066-.6914.233-1.0297.333-1.1188.332-1.1039.314-.5687-.3.2119-.24.5204-.661.394-.647-.933.108-.5389-.417-.4051-.817.1821-.532.1784-.946-.6691-.931-.2565.007-.3197-.207-.2639-.403.1524-.543-.1822-.854-.4238-1.208-.1226-.178-.2193-.363-.2304-.599 0-.059 0-.119.0074-.185 0-.078.0409-.111.0892-.148.0892-.089.1822-.203.342-.314.0929-.067-.1524-.019-.1784-.059-.0855-.1296-.2231-.2479-.3309-.3846-.104-.1331-.1747-.2809-.0817-.3992.1078-.1331.2156-.2218.1747-.3216-.0372-.1035-.2156-.2254-.7323-.4953-.2082-.1108-.0966-.133.1227-.085.6951.1516.4906.0296-.2045-.4029-.4274-.2661-.5166-.377-.3159-.3252.3531.0776.9292.3844-.171-.377-.5762-.4029-.6468-.5175-.4312-.4362.1078.0407.2899.1294.5204.2588.2007.1108.4423.2513.7062.4139.4498.2809.8624.5545 1.0817.7023l.6208.4694.1338.0924c.052.0296.0223 0-.0892-.1146-.1784-.1811-.2268-.2698-.2453-.3363-.0149-.0629 0-.1072.0037-.1774.0223-.1109.3903.1959.6542.5211.0929.1109.171.2218.1747.1811.0111-.0591.0892.0481.1821.3253.1115.3511.0818.2513.0483-.1035-.052-.5359.0707-.5285.2379-.3105.1078.1405.1487.3253.2305.3623.8029.3991 1.6504.7614 2.4235 1.2347.2342.137.4684.281.6951.429.2231.155.4424.317.6617.48.42.314.7731.795 1.2118.965.6467.236 1.0668.787 1.6801 1.053.2416.1.4758.259.5278.625.0298.188.2714.392.4684.488.4758.236.8326.547.8252 1.194 0 .081.1635.203.223.17.1487-.078.2825-.233.4237-.359-.0297.196-.1003.41-.0892.591.0112.182.0521.403.1673.492.4052.292.71.665.7397 1.272 0 .088.1561.092.2305.147.2416.178.5575.296.7174.547.2713.414.4609.895.6282 1.379.0966.329.4274.388.7508.506.2937.104.1598.632.2676.928.1153.337.316.617.4721.924.0521.104.0074.277.1041.34.42.255.8661.496 1.3121.751.1487.085.368.159.3346.343-.0781.451.104.725.2527 1.039.1524.344.1859.728.7174.839.1004.022.0855.174-.0111.296-.539.672-.119.791.3903.902.2416.055.4795.147.4943.329.0558.591-.1858 1.289.5316 1.574.223.096.052.429.1598.603.2008.332.1264.787.1524 1.19.0186.41.1524.761.7806.931.0967.026-.0706.203-.0557.292.0297.174.0669.348.1412.507.0818.166.2524.299.3194.469.29.713.521 1.427 1.394 1.948.22.129.227.462-.015.687-.743.703-.383 1.076.145 1.464.707.529 1.231 1.164 1.234 1.907.012.507.387.983.03 1.527-.056.081-.037.203.041.27.442.38.532.831.535 1.308 0 .248.208.492.194.736-.015.303.148.535.289.802.276.521.447 1.079.532 1.641.086.554.033 1.12.093 1.681.011.119.033.241.052.359.007.037.033.096.037.089.015-.022.041-.063.041-.107 0-.426.034-.854.06-1.287.04-.565.011-1.131.04-1.7 0-.059.082-.122.123-.185.268-.417.29-.432-.178-.65-.078-.037-.22-.089-.216-.122.063-.351 0-.706-.026-1.061-.015-.355-.022-.71.294-1.087.096-.118-.004-.351-.145-.462-.413-.321-.606-.613.041-1.057.096-.066.104-.27.011-.314-.547-.255-.324-.636.044-.972.365-.337.294-.547-.048-.665-.714-.244-.747-.588-.16-1.117.272-.244.22-.358-.234-.366-.398-.003-1.022.196-1.137-.074-.093-.221-.301-.484-.082-.713.836-.872.773-1.534.39-2.203-.334-.58.026-1.438.045-2.188.003-.177-.145-.322-.32-.429-.502-.314-1.07-.584-1.591-.868-.386-.211-.063-.584.807-.939.249-.1.505-.185.754-.277-.078-.126-.07-.311-.256-.363-.231-.062-.814.085-.903-.025-.294-.374-.472-.81-.662-1.239-.074-.177.134-.469.676-.672 1.119-.411.881-.536.569-.732-.39-.252-.714-.525-1.476-.507-.97.026-.914-.011-.174-.805.825-.891.806-.891.104-1.176-.312-.129-.628-.266-.777-.495-.283-.44-.4795-.935-.7583-1.379-.0297-.044-.2193 0-.3494.034-.0409.011-.197.155-.2119.203-.052.155-.0669.296-.0966.44-.1115-.074-.2639-.122-.3271-.226-.0781-.125-.2379-.281-.1004-.447.7843-.968-.1375-.832-.5613-1.009-.2899-.118-.6393-.203-.7694-.433-.3494-.606-.6319-1.264-1.0371-1.84-.4535-.592-.9813-1.124-1.5277-1.634-.2639-.236-.5576-.484-1.1746-.055.0446-.706-.5836-.74-1.1412-.795-.2304-.022-.5278.011-.4981-.259.0855-.809-.5612-1.053-1.037-1.43-.4238-.337-.9144-.625-1.2453-1.02-.1672-.204-.4423-.285-.6802-.4-.2379-.118-.4423-.262-.4944-.584-.0111-.059-.2118-.147-.3159-.151-.4275-.004-.6282-.277-.8921-.554-.2825-.281-.5539-.581-.8587-.8395-.3048-.2588-.6467-.4731-1.0854-.5434-.1412-.0258-.2787-.1774-.4051-.2883-.2416-.2069-.4758-.4287-.7174-.6394-.2416-.207-.487-.414-.7397-.6136-.4312-.3363-.4461-.3104-.6951.2403-.0298.0628-.093.1072-.1413.1626-.026-.0628-.0855-.1367-.0706-.1922.0446-.1922.0706-.3474-.0558-.5174-.1078-.1627-.301-.3179-.5538-.4473-.1004-.0517-.2379-.1885-.3011-.2994-.2081-.3696-.5204-.669-.8178-.8686-.1486-.0998-.2973-.1737-.4311-.2217-.0669-.0222-.1301-.0407-.1896-.0481-.0632-.0111-.1598-.048-.2267-.0591-.316-.0629-.5688-.1737-.881-.3955-.3085-.2181-.6728-.5397-1.1412-.9684-.472-.4288-.985-.8871-1.4794-1.29-.1226-.0961-.2416-.1922-.3642-.2883-.1264-.0813-.2565-.1552-.3792-.2254-.2453-.1331-.472-.2403-.6653-.2994-.4981-.1553-.9813-.3253-1.4609-.5027-.5018-.1922-1.0073-.3881-1.5128-.5803-.2676-.1035-1.0445-.6542-1.6504-1.0423-.9888-.6321-1.9849-1.2678-2.9551-1.8888-.7769-.5064-1.3828-.8686-1.5352-.8871-.0371-.0037-.0483.0111-.0223.0555.0112.0222.0335.048.0632.0813.0186.0222.0223.0296.0595.0628l.1152.1109c.3197.3031.762.6949 1.3493 1.1939.4387.3696.736.632.881.7725.3122.2883-.0223.0702-1.0965-.7245-1.3456-.9979-2.0593-1.46-1.0334-.5063 1.3419 1.2419 2.0518 1.9441 2.063 2.1437.0074.0518-.0409.0703-.1152.0592-.0707-.0111-.1822-.0555-.3346-.122-.3048-.1368-.7731-.3844-1.3902-.7208-.2453-.133-.1896-.0258-.1115.0777.1821.2476.2639.4398.6802.8205.2528.2292.394.3807.6319.621.2194.2217.4461.4435.7323.6875.5724.4916 1.3865 1.0755 2.877 1.9441.7732.4584 1.892 1.1828 1.5501 1.1052-.3085-.048 1.2415.9832-1.0929-.2181-.3419-.1774-.6542-.2846-.9776-.4213zm-.078-1.2714c-.3197-.1811-.6171-.3327-.9665-.5434-.3234-.1959-.9776-.6209-1.011-.6616-.0372-.0443-.1004-.1146-.119-.1478-.0148-.0296-.0297-.0592-.0297-.0814 0-.0443.0409-.0554.1896.0111.4237.1848 1.2675.6727 2.0481 1.1348.0111.0074.2416.1774.4572.3363-.7657-.4583-1.0928-.6136-1.1486-.5877-.026.0111.0149.0666.1041.1553.0446.0443.1041.0924.171.1515l.1152.0961c.0595.0481.1227.0924.1859.1405zm10.2666 3.7553c.0558.0295.1338.255.1933.3844-.1375-.0148-.2528.0148-.3792-.0333-.0297-.0111-.0706-.0628-.1412-.1515-.0743-.0924-.1524-.2107-.3345-.4103.0446.0148.0892.0296.1301.0443.0334.0074.0632.0148.0929.0222.0595.0148.1152.0296.1635.0407.1004.0295.1859.0591.2751.1072zm-2.4905 8.5012c.1376-.111.2602-.222.4164-.325.0557-.037.2899-.078.2825-.067-.0558.089-.1487.189-.2714.337-.1896.025-.3085.044-.4275.059zm14.8536 2.336c-.0632-.007-.1561.007-.1859-.03-.0334-.04-.0186-.125-.026-.192.0706.019.1375.041.1896.056.0074.07.0148.118.0223.166z"/><path d="m87.536 124.045c-.0855-.074-.2862-.108-.4386-.159-.0707.1-.093.207-.2231.292-.4683.314-.8549.732-1.4385.887-1.0073.262-.84.484-.7731.754.0408.162.026.344.1784.473.4014.347.4126.728.2416 1.161-.0818.203.1227.513.4349.598.8735.233.9293.64.9627 1.08.0186.288.1078.576-.617.739-.3494.077-.3494.247-.1264.418.5278.402.4721.41.0037.857-.2267.214-.5947.492.2788.484.0558 0 .1747.115.1524.144-.2788.47.1598.832.342 1.231.1561.325.1375.647-.1599.865-.3271.237-.2676.551-.1226.754.1598.214.4906.325.7285.462.0335.019.2045-.089.2082-.137.0074-.384.1003-.743.3531-1.086.0335-.048-.0074-.148-.0483-.207-.3011-.451-.7286-.88-.2416-1.457-.3531-.399-.0335-.787.1301-1.197.1041-.281.3531-.569.0892-.865-.1004-.111.0892-.329.1858-.499.1376-.248.3755-.492.461-.743.0594-.163.0408-.429-.1376-.466-.9739-.21-.9181-.584-.5055-1.079.0892-.103-.0446-.233-.0595-.351-.026-.189-.0743-.377-.0446-.573.0967-.676.1822-1.353.316-2.162 0-.008-.0186-.133-.1301-.229zm-.9702 1.77-.1375-.011c-.1933-.092-.4089-.174-.5725-.277-.0408-.026.1041-.115.1636-.178.0892.012.2379.012.2565.041.0743.129.1115.27.1598.407l.1301.014z"/><path d="m83.1043 119.562c.4126-.104.8289-.222 1.2415-.303.2528-.052.7212-.089.7137-.063-.1301.506 1.353.414 1.3605.906 0 .406.6951.669.2825 1.19-.3048.388-.0595.65.4126.857.2416.107.4832.218.6393.355.4312.373.0892.821-.9478 1.15-.8921.28-1.5984.576-2.0705.968-.0632.052-.3382.129-.4311.122-.119-.011-.2454-.096-.2045-.148.2751-.373.5241-.758.9627-1.138.3829-.34.487-.573.1078-.825-.4906-.336-1.5165-.532-.9553-1.16-.7174-.181-.7545-.492-.1524-.957.0409-.034-.0446-.093-.1338-.104-.8884-.1-.7434-.503-.8475-.835l.0149-.011z"/><path d="m83.0889 119.569c-.2044.052-.4163.1-.617.159-.5167.148-1.0333.295-1.55.443.3196-.236.5241-.525.9887-.717 1.1969-.495 2.0035-1.005 2.6875-1.589.4014-.344 1.0965-.47 1.498-.311.7397.292.3419.699-1.1189 1.098-.9069.252-1.8994.451-1.8734.906z"/><path d="m86.9715 136.202c-.0223.251-.1227.491-.2267.661-.1041.17-.2082.277-.3086.263-.0185 0-.0706-.111-.0669-.141.0112-.081.0372-.207.0781-.214.3382-.052.3048-.455.2936-.802 0-.115-.0631-.229-.0669-.344 0-.078.0595-.159.093-.24.0446.063.1078.118.1226.188.0483.252.0706.51.0781.629z"/><path d="m103.839 119.299c.101.059.283.092.279.185-.004.085-.193.24-.349.351-.041.029-.357.055-.394.015-.049-.06.048-.185.085-.281z"/><path d="m82.3052 122.918c-.1115-.093-.2565-.148-.2044-.185.1226-.081.3419-.151.5241-.229.0817.041.2639.081.223.118-.0929.085-.2974.167-.5427.296z"/><path d="m80.5811 114.882c.0075.022.0298.04.0223.063l-.0892.436c-.1338.026-.3197.085-.394.077-.5873-.048-.0297-.317.4349-.576h.0223z"/><path d="m69.1016 92.9233c.1672-.0222.3345-.037.5055-.0444.078.0554.2007.1257.2342.1589.4497.3955-.0409.1959-.6951-.0813l-.0446-.0295z"/><path d="m86.6433 138.179c-.0261-.048-.0446-.081-.0632-.114.0148-.052.0297-.118.052-.148.0075-.011.0446.07.0446.118 0 .041-.0223.089-.0372.144z"/><path d="m69.1435 92.9526c-.1487.0334-.2937.0743-.4423.1264-.0818-.0484-.2305-.1376-.2305-.1413.2007-.0186.4163-.0186.6282-.0149z"/><path d="m81.6169 120.629c-.1673.082-.3197.181-.3977.189-.1413.011-.3048-.011-.3346-.056-.0223-.029.1673-.114.2639-.177.1339.011.2639.026.4684.044z"/><path d="m70.6453 94.1174-.2527-.1486z"/><path d="m83.7706 246.152c.1561.64.0371 1.652.8884 1.409.9738-.285.5427.38.2118.927-.5538.943-.9069 1.586-.9887 2.048-.0929.462.0706.824.4646 1.179.0892.078.1896.133.2937.181l.1264.059c.1003-.022.2341-.066.3419-.096.2268-.066.4349-.125.6282-.17.3123-.074.6208.081.7026.266.0743.196-.1562.555-.2156.843-.3048-.074-.5873-.159-.8847-.218-.539-.115-.9181-.129-1.2564-.03-.3271.1-.6059.307-.7694.68-.2008.459-.2677.762-1.5426.976-.0558.008-.1301.026-.1747.026-.0483 0-.0967.004-.1413.008-.0966.007-.1933.014-.2899.029-.1561-.151-.3829-.148-.7918.54.0224.048.0744.103.1487.159.3011.159 1.6913.203 2.1039.077 2.0407-.606 3.1521-.499 4.7653.148.197.078.394.144.5948.203.1226.048.2453.085.3642.115.2417.055.4758.078.71.067.4647-.015.9181-.145 1.3605-.296 1.0184-.355 1.8994-.203 2.7729.355.4981.318.9925.676 1.5575.902.5241.207 1.2378.447 1.6987.336.762-.178.9218-.68.4126-1.327-.5539-.702.4572-.647.7434-.543.6579.232 1.2118.65 1.8177.99 1.0857.603 2.1747 1.172 3.5537.747.23-.07.665-.111.784-.011 1.829 1.548 4.241.787 6.263 1.334.688.189 1.365.333 2.041.436.673.104 1.338.167 2.048.192 1.402.052 2.888-.07 4.394-.462.628-.17.914-.196 1.591-.173 1.133.037 2.501-.015 3.728-.57 1.223-.535 2.189-1.596 2.264-2.912.022-.647.018-1.113.167-1.464.078-.174.216-.307.413-.421.193-.115.464-.207.843-.285.168-.029.391-.843.461-1.286.045-.311-1.085-.824.246-.787.36.003.661-.063.836-.255.089-.096.145-.226.164-.392.011-.163-.023-.366-.105-.603-.483-1.389-.092-2.609.818-3.027.513-.229.721-.558.825-.928.101-.362.086-.761.153-1.127.13-.739-.108-1.589.063-2.232.818-3.105.937-6.195.182-9.315-.186-.776-.212-1.622-.498-2.343-.58-1.471-.13-2.842.39-4.058.313-.729.577-1.12.123-1.878-.238-.396-.175-1.035-.245-1.564l-.019-.022c-.933-2.158-.149-4.236.234-6.32.175-.928 1.197-1.885-.16-2.691-.018-.011.112-.654.287-.802.539-.455.591-.847.271-1.582-.26-.599-.29-1.386-.301-2.092-.015-.887-.379-1.36-.993-1.582-.795-.292-.702.662-.973 1.116-.223.377-.242 1.209-.893.787-.39-.255-.817-.761-1.107-.055-.201.488-.26 1.271-.078 1.741.39.998 1.461 1.9-.268 2.657-.152.067-.115.973-.078 1.479.104 1.404.424 2.706-.305 4.173-.754 1.504.052 3.101 1.416 3.944.521.321 1.517-.052 1.532 1.175-.677-.081-1.361-.122-2.03-.259-.297-.059-.565-.439-.84-.432-.301.007-.862.292-.866.469-.074 2.322-.818 4.754.457 6.901.551.92.762 1.885.372 2.809-.286.684-1.178 1.065-1.405 1.748-.167.507.636 1.597.431 1.878-.814 1.105-.152 1.907.223 2.724.186.403.673.71 1.078.836.13.04.502-.61.654-.998.554-1.412 1.015-2.88 1.625-4.258.16-.359.713-.577 1.119-.673.159-.037.52.392.598.68.353 1.283-.42 4.206-1.461 4.831-1.119.676-1.316 1.763-1.011 2.761.294.957.03 1.793-.327 2.576-.349.791-.788 1.516-.877 2.392-.019.147-.929.236-1.427.31-.012-.447-.16-.92-.053-1.312.305-1.046.677-2.122.889-3.249.082-.41.033-.869-.048-1.279-.045-.196-.287-.377-.476-.469-.078-.041-.338.133-.372.258-.364 1.361-1.227 2.702-1.126 3.811.078.909-.03 1.745-.301 2.477-.279.72-.729 1.327-1.294 1.737-.074.052-.119.17-.145.295-.03.119-.033.256 0 .355.108.337.394.669.513 1.02.398 1.198.219 1.372-1.059 1.298-.246-.015-.599-.063-.874-.082-.29-.033-.505-.025-.55.045-.308.584-.825.772-1.323.795-.517 0-1.022-.156-1.52-.289-1.32-.34-2.51-.606-3.97 0-.439.185-1.238.052-1.759-.148-2.891-1.083-6.382-.136-9.066-1.933-.2-.133-.709.056-1.07.022-2.5388-.221-5.1371-.258-7.5941-.757-1.3939-.281-2.7729-.536-4.1557-.684-.3457-.037-.6914-.067-1.0408-.092l-.5204-.03-.2602-.011h-.1301c-.0371-.004-.0371 0-.0594 0-.2602.015-.5502.059-.9442.144-.3308.078-.6096-.041-.6691-.188l-.0297-.06c.026-.044.0669-.096.1004-.14.2639-.418.3903-.669.4423-.92.0223-.126.0372-.248.0186-.389-.0037-.033-.0037-.07-.0037-.11v-.06c0-.018-.0038-.029.0037-.092.0223-.203.0409-.41.052-.621.0818-1.131.2825-2.096.6133-3.212.5873-1.999 1.104-4.162.8029-6.394-.2118-1.579-.368-3.135-.5501-4.694-.1821-1.575-.4163-3.146-.7434-4.709-.3085-1.457-.7546-2.924-1.4571-4.303-.7063-1.371-1.6764-2.653-2.9142-3.666-1.104-.895-2.2637-1.726-3.5387-2.351-1.2675-.628-2.6057-1.09-3.9773-1.32-2.0927-.31-3.8881-.406-5.7838-.266-.316.023-.6579.048-.985.126-.3309.07-.658.137-.9405.251-.4311.181-.7731.303-1.0891.374-.3048.092-.5836.133-.8884.144-.3903.007-.669.103-.8809.244-.2156.14-.3643.332-.4869.576-.3606.78-.8698 1.087-2.2192 1.982-.42.292-.8549.572-1.2452.905-.197.163-.4051.318-.5873.499-.1821.181-.3605.366-.5315.558-2.4459 2.828-3.7766 6.354-4.323 9.891-.342 2.129-.3569 4.295-.1747 6.428.1152 1.02.2119 2.099.4274 3.127.1971 1.031.4535 1.977.736 2.79.8289 2.344 1.2861 4.842 1.3754 7.112.0371.876-.1487 1.918-.7992 2.65-.0929.092-.1561.236-.2825.366-.1152.137-.2342.292-.3494.458-.1301.155-.2825.3-.4126.458-.1264.163-.2714.289-.3978.411-.6058.595-1.3864.972-2.1968 1.138-.8103.17-1.6503.133-2.457-.085-.2007-.048-.9329-.033-1.0147.026-.197.152-.1561.359-.2082.543-.4312-.181-.788-.406-1.2861-.573-.5055-.17-1.1783-.377-1.7433-.425-1.9032-.159-3.7246-.395-5.4939-1.001-.2565-.089-.6802-.03-1.0296-.056-1.1486-.077-2.3083-.074-3.4458-.247-1.8808-.289-3.7542-.684-5.6128-1.094-1.2155-.274-2.2414-.174-3.3863-.126-1.0296.044-2.2823-.543-3.4569-.78-1.3195-.262-2.6614-.425-3.9921-.639-.4424-.071-.8921-.267-1.3159-.274-.4498-.004-.8958-.007-1.3419-.011-.1375-.007-.1635.015-.2193.026l-.1635.041-.3569.073c-.2453.041-.5055.056-.7991.082l-.1078.007c-.0409.008-.0335-.037-.0521-.055l-.0743-.148-.1561-.322c-.0744-.151-.1747-.318-.2454-.506-.0185-.044-.0334-.092-.0483-.141-.0149-.048-.026-.085-.0409-.166-.026-.148-.0371-.288-.0334-.425.0632-1.345-.2454-2.591-.4349-3.918-.2045-1.427-.2639-2.805-.9033-4.106-.1226-.244-.1189-.74-.0149-.983.5911-1.364.1116-2.529-.4683-3.767-.2751-.595-.5427-1.308-.5724-1.959-.0707-2.125.2267-4.217-.5576-6.342-.249-.684-.026-1.59-.1338-2.377-.1859-1.49-.0818-2.998-.0706-4.498.0334-1.505-.0632-2.994-.684-4.465-.0966-.226.0967-.643.0967-.976 0-.677.0037-1.36-.0484-2.037-.052-.713-.2007-1.423-.2379-2.14-.0408-.743-.0817-1.486-.1189-2.225-.026-.739-.0632-1.478-.1227-2.214-.1115-1.471-.3308-2.931-.6691-4.384-.1635-.728-.0594-1.94.2305-2.513.4609-.902.6282-1.807.6356-2.735.0075-.928-.104-1.874-.2825-2.854-.2379-1.341-.4349-2.713-.5129-4.091-.0595-1.379-.0298-2.769.1189-4.158.171-1.908.1115-3.959.6988-5.733.0892-.27.1301-.747.0892-1.042-.1263-.873-.1263-1.738-.0743-2.61s.1598-1.756.2937-2.654c.1338-.92.0557-1.97.2341-2.872.2008-1.127.1933-2.081.2305-3.153.0409-2.092.2751-4.224.5687-6.339.145-1.042.316-2.084.5278-3.123.2008-1.038.3978-2.081.5799-3.123.0781-.44.145-.895.2119-1.334.0186-.133.0371-.366.0297-.344-.0297.077-.0855.222-.1189.384-.316 1.575-.658 3.142-.9962 4.728-.4349 2.066-.7769 4.162-1.1895 6.239-.0446.222-.1598.406-.2416.624-.4981 1.416-.5241 1.442-.2193 2.481.0483.17.1524.436.1264.558-.2677 1.26-.4498 2.598-.6096 3.921-.1636 1.324-.3643 2.621-.8624 3.8-.1524.366-.19328 1.283-.11894 1.77.23794 1.453.28254 2.684-.53898 3.815-.11895.166-.23046.898-.16355 1.127.36055 1.338.02602 2.562-.46092 3.475-.47208.905-.50925 1.711-.24162 2.428.53527 1.49.47208 2.787-.26763 4.125-.33825.614-.33454 1.068.08921 1.519.368.392 1.02964.277 1.03336 1.371-.00744.899.14125 2.055-.14497 2.662-.52039 1.134-.8252 2.291-.98131 3.511-.15612 1.22-.10408 2.499-.00372 3.892.10408 1.212-.02602 2.462-.14125 3.718-.12266 1.261-.29737 2.532-.37171 3.796-.03345.607.07434 1.272.23046 1.856.46835 1.711 1.00733 3.378 1.50542 5.067.17843.629.18214 1.154.02231 1.519-.16356.366-.49438.577-.96645.573-.27135 0-.54641-.062-.81776-.099.07062.521.04461 1.119.23418 1.545.23417.524.86236.85.94414 1.352.14125.836.23789 1.682.33826 2.529.10779.846.20072 1.696.28993 2.546.07434.699-.17099 1.342-.76944 1.194-1.23036-.31-.98503.429-.66164 1.515.40516 1.379.79174 2.739 1.6318 3.87 1.08542 1.446 1.02962 1.512.18214 2.85-.92556 1.501-.88839 1.493-.07806 3.526.36054.91.73224 1.856.91074 2.817.1895.916.3605 1.833.5129 2.757l.119.691.1709.935c.1524.802.2974 1.63.4833 2.418.0743.336.3234.617.4906.757.0521.045.1822-.314.1784-.524-.0111-.662-.0743-1.298-.0892-1.926.1822.65.4238 1.212.5576 1.852.0111.048.0223.099.0335.147.0111.019 0 .063.0297.067l.078.015c.1041.018.2156.037.3234.059.2193.041.4424.081.6468.129.4126.093.7546.2.8698.326.6728.676 2.26.953 2.7061.916.7025 0 1.4385-.177 2.1559-.214.9664-.048 1.9812-.163 2.9142-.022 2.5016.373 4.9623.876 7.4713 1.205 2.6578.351 5.3378.613 8.0178.861 1.2676.118 2.6429.236 3.1001-.455l-.2007-.074.2081.07c1.7136.718 3.3937.481 5.0218.326.6654-.07 1.3865-.218 1.9998.052.9293.402 2.0333.554 3.2116.502 1.1783-.066 2.4347-.329 3.6056-.876.2639-.107.5092-.262.762-.403.2416-.155.4832-.321.71-.502.4609-.363.8363-.806 1.2043-1.242.7137-.917 1.1337-1.989 1.4013-2.998.1524-.517.1673-1.046.1859-1.571-.026-.517-.0595-1.031-.1375-1.523-.0521-.499-.1524-.975-.1933-1.456-.0669-.469-.0818-.95-.0744-1.415.0112-.182-.2118-.95-.3531-1.235-.5427-1.157-.7806-2.362-1.0705-3.715-.6022-2.79-.6319-5.61-.7063-8.457-.0037-.469.1301-1.171.2677-1.744.4832-2.199 1.3679-4.277 2.5759-6.114.2416-.402.4721-.665.6096-.887.1413-.218.2268-.362.2602-.462.0669-.203-.0966-.255-.4126-.34-.0706-.018-.0595-.148-.0855-.229.1561-.133.3829-.362.4609-.373.264-.045.5836-.167.9293-.407.3383-.251.7657-.565 1.2452-1.016.2082-.17.5465-.37.7323-.429 1.2229-.366 2.4942-1.076 3.5201-1.722 1.1337-.721 2.1819-.891 3.3826-.806 1.2155.085 2.364.314 3.6725.488l.643.096.6319.162.3197.082.3085.118.6208.233.5984.296.3011.147c.0966.056.1896.119.2862.174l.5762.351.5464.403c.3643.244.5947.71.8698 1.061.1858.292.3717.584.5576.876.1635.307.3159.617.4571.917.1673.447.3495.809.5651 1.094.2081.288.4832.469.866.532.4201.078.6171.421.3309.828-.2305.34-.3383.71.1858 1.253 1.3047 1.471 2.0333 3.504.9776 5.448-.1078.196-.0892.591-.0743.883.0371.721-.0112 1.497.1189 2.163.1524.791.1561 1.73.2862 2.535.1524.802.4424 1.482 1.301 1.745.4424.129.9144 1.002.4498 1.855-.4126.762-.0483 2.699-1.4422 2.225-.2045-.07-.4944.163-.7472.255zm2.0704-7.451c-.2082.122-.4237.321-.6282.336-.1933.011-.539-.151-.539-.266.0112-.273 0-.577.0223-.861.0186-.285.0669-.558.1487-.78.119-.311.2788-.591.4535-.861.1598-.27.3346-.533.4869-.813.0038-.008.1227.155.2342.295-.6096.939-.5984 1.893-.1784 2.95zm-20.7749-17.505c-.1375.081-.3791.037-.5761.052.3717-.267.7025-.592 1.13-.814.1004-.055.223-.088.4163-.129.1896-.041.4461-.096.8178-.148-.4684.215-.7843.444-1.0668.599s-.4944.31-.7212.44zm53.2699 35.524c-.153-.163-.338-.315-.424-.496-.03-.062.227-.303.253-.295.208.077.398.196.706.343-.23.207-.383.329-.535.448zm-80.5162.547c.1859-.022.3792-.074.5613-.052.2007.026.394.118.5873.181-.2305.011-.4609.019-.6393.026-.2194-.067-.3643-.115-.5093-.159z"/><path d="m127.71 182.356c.059.321.249.577.379.861.096-.31.148-.687.297-.92.539-.847 1.03-2.144 1.639-2.351 1.049-.355.948-1.301.963-2.369.007-.636.074-1.316-.037-1.9-.294-1.538-.223-2.975.052-4.532.13-.731.004-2.018-.283-2.472-.799-1.272-.758-2.806-.687-4.465.048-1.091.007-2.196.758-2.551.357-.17.394-.828.204-1.541-.442-1.7-.39-1.693.164-3.256.067-.185.141-.388.204-.588.034-.1.06-.2.082-.296.011-.037.023-.114.03-.188.007-.07.015-.141.019-.211.033-.554-.075-.976-.513-.891-.056 0-.157-.491-.131-.646.023-.145.045-.285.064-.426l.007-.051c0-.019.008-.037-.015-.034l-.085-.018-.175-.037c-.234-.044-.479-.085-.728-.115-.491-.066-1.038-.055-1.525-.051-.133 0-.215.007-.315.014l-.29.019c-.194.015-.383.03-.577.044-.382.03-.765.063-1.148.078-1.257.055-2.468-.063-3.238-.425-.844-.396-2.063-.436-2.847-.355-.836.092-1.29.384-1.821.58-.078.026.316.233.49.248 1.439.126 2.77.322 4.015.676.167.048.546.037.773.015.859-.085 1.721-.192 2.62-.203.45-.004.911.015 1.383.074.238.029.48.07.725.125.216.049.398.1.569.163.327-.07.661-.07.974-.059l.23.015c.008.066-.004.148-.007.222-.012.151-.03.306-.056.458-.045.303-.1.591-.16.854-.067.355-.137.72-.193 1.083-.156 1.009-.457 1.999-.257 3.164.078.436-.152 1.19-.278 1.774-.186.857-.458 1.67-.606 2.546-.093.566-.142 1.542.026 1.76.907 1.171.762 2.55.241 4.158-.111.344-.011.869-.022 1.308-.022.706-.019 1.423-.089 2.122-.253 2.421-.547 4.835-.896 7.666 0 .026-.019.495.059.913zm1.434-5.866.13.118c.16.451.346.884.476 1.361.03.114-.134.369-.208.558-.082-.1-.227-.189-.238-.303-.033-.529-.03-1.065-.041-1.601l-.122-.129z"/><path d="m130.468 202.356c-.427-.015-.858.022-1.278-.063-.257-.052-.71-.355-.695-.443.308-1.73-1.119-2.717-.952-4.469.13-1.468-.446-2.964.115-4.502.417-1.15.268-2.299-.119-3.397-.197-.558-.39-1.131-.498-1.73-.286-1.633.164-2.982 1.257-3.478.94-.425 1.706-1.042 2.271-2.192.078-.155.364-.266.453-.173.112.118.208.525.156.698-.371 1.224-.721 2.503-1.252 3.604-.476.983-.651 1.756-.372 2.975.361 1.605 1.271 3.194.532 5.072.62 1.275.565 2.495-.175 3.681-.052.085.007.381.085.495.799 1.168.513 2.562.487 3.903l-.018.023z"/><path d="m130.486 202.338c.212 0 .428.026.64.007.543-.044 1.081-.107 1.62-.162-.386.602-.683 1.489-1.193 1.752-1.304.676-2.252 1.752-3.104 3.167-.501.836-1.196.569-1.516-.38-.587-1.749-.067-2.784 1.45-2.835.944-.034 1.947.207 2.089-1.523l.018-.022z"/><path d="m113.998 152.987c-.948-.089-1.844-.252-2.494-.396-.647-.148-1.048-.281-1-.377.011-.018.416-.04.528-.029.312.033.792.092.814.133.201.351 1.71.421 3.026.502.434.03.866-.003 1.304.023.298.018.599.099.896.155-.238.026-.446.077-.714.074-.951-.019-1.918-.063-2.364-.085z"/><path d="m7.25389 220.74c-.09292-.325-.27506-.669-.25648-.975.01859-.278.23046-.555.40517-.732.0446-.045.37171.258.40145.447.04088.259-.07806.562-.12639.846l-.42746.414z"/><path d="m132.387 190.325c.075.451.197.784.134.88-.141.211-.375.307-.576.451-.063-.218-.223-.521-.171-.632.115-.248.338-.396.613-.695z"/><path d="m130.906 222.574c0-.089-.007-.181.008-.266.093-.503.185-1.002.278-1.504.134.066.327.085.391.203.505.924-.123 1.235-.658 1.589z"/><path d="m83.5508 243.931c.2862-.529.5724-1.061.8363-1.601.0335.056.093.104.0967.166.0297.862-.4126 1.22-.9144 1.464l-.0186-.033z"/><path d="m106.533 152.144c.175-.015.301-.022.431-.034.197.03.446.06.562.093.037.011-.268.026-.443.015-.152-.007-.338-.044-.55-.074z"/><path d="m83.5653 243.96c-.2899.532-.5724 1.061-.8735 1.59-.0372-.045-.1041-.126-.1078-.126.3308-.499.643-.991.9664-1.493l.0186.033z"/><path d="m132.26 199.743c.185-.152.368-.388.442-.34.137.089.282.34.294.536.007.133-.201.284-.316.425-.119-.174-.238-.351-.424-.621z"/><path d="m83.7715 246.153-.1153-.152.1153.156z"/></g></svg>