<svg fill="none" height="200" viewBox="0 0 140 200" width="140" xmlns="http://www.w3.org/2000/svg"><g fill="#e77300"><path d="m90.219 194.531c-.2527.008-.5092.015-.762.023.2565.026.513.011.762-.023z"/><path d="m127.962 95.8727c-9.657-.5397-26.573-1.1495-36.2082-.3179-.2565 16.1232.0186 32.2532.8252 48.3532 3.1707-.159-4.5609 3.035-10.5491 5.696-11.2071-1.017-25.845-2.284-26.2688-3.423-.1895-.51-.6579-1.001-1.156-1.075-.078-2.052-2.6317-9.791-2.7135-11.843.5241-12.382.2082-24.794-.9441-37.1353-8.8133-.0148-26.8523.998-35.6656.9832-.9776 0-2.0369.0222-2.8138.6099-1.13.8538-1.2006 2.4872-1.1672 3.8992.5576 23.438 1.2044 46.875 1.9329 70.309.1821 5.895-.0632 12.001.5724 17.867.5316 4.883 1.6356 5.47 6.5235 5.907 11.8204 1.053 24.1091.343 35.9035-.681-.1041-7.954-.2082-15.908-.3122-23.858-.0223-1.8-.0261-3.693.8437-5.271.9814-1.789 2.9031-2.853 4.8025-3.619 6.2187-2.502 13.3147-2.768 19.7044-.743 1.8622.592 3.7765 1.464 4.7987 3.12.8624 1.401.9405 3.131.9925 4.772.1896 5.999.3829 11.998.5724 17.993-1.2415 4.032-2.1559 3.818-1.4719 6.183.6393 2.2-1.8288.961 4.0479.928 13.2328-.373 26.4698-.743 39.7028-1.116-.339-32.519-.989-65.034-1.959-97.5383z"/><path d="m69.7761 78.5191c-6.1704-.5396-12.3854-.584-18.5595-.1331.8066.0814 1.6132.1627 2.4161.244-10.6234-.0592-21.2469-.1146-31.8704-.1737-.2788 5.2374-.5575 10.4749-.8326 15.7124 2.0258-.2477 4.0553-.499 6.0812-.7466 7.0848.2033 14.1658.4102 21.2506.6135l-1.1969-.2513c1.5463.2624 1.8883 2.2731 1.8697 3.8218-.1673 12.0679-.3382 24.1359-.5055 36.1999-.0446 3.068-.0855 6.136-.1301 9.204-.0521 3.685-1.1114 5.455 3.0183 5.574 6.1741.177 12.3556.21 18.5297.314-.4535.078-.9033.155-1.3567.233l23.0051-.218c.3382-17.25.6802-34.504 1.0185-51.7541.0148-.7577.0557-1.5783.5501-2.1549.6356-.7355 1.7545-.7799 2.7358-.7688 8.1665.1146 16.3325.2292 24.4995.3438 0-3.8071-.008-7.6105-.008-11.4175 0-.6764-.029-1.4267-.513-1.9035-.475-.4732-1.222-.5138-1.895-.5249-14.404-.2439-28.8115-.4842-43.2152-.7281.4906-.3697-.3085-1.0091-.9256-1.083-1.3195-.1626-2.6428-.2994-3.9661-.414zm9.9172 14.0455c.2602.0037.5204 0 .7806.0221.71.0629.814.1701.8549.8723.0149.292 0 .5877-.0074.8797-.2379 13.0443-.4795 26.0913-.7174 39.1353-.0223 1.163-.622 1.735-1.7991 1.715-6.2373-.111-12.4746-.226-18.7119-.34-1.5351-.03-1.5388-.034-1.5128-1.553.1189-6.597.2416-13.191.3605-19.789.119-6.487.2379-12.974.3569-19.4566.0074-.3289 0-.6616.026-.9906.0632-.7096.1636-.8094.8772-.8427.2602-.0148.5204 0 .7806.0074 6.2373.1109 12.4746.2255 18.7119.3401z"/></g><g fill="#000"><path d="m67.5492 20.2159c0-.0297-.0037-.052-.0111-.0557-.0037 0-.0186.0111-.0186.0111-.0372.0297-.0186.0558.0335.0483z"/><path d="m66.9991 23.3173c.0372.0814.0483.1627.0669.2292.0037.0111.0483.0998.0744.1774.0148.0407.026.0776.0371.1072.0112.0296.0186.0481.0186.0481.0112-.0037.0186-.0814.0186-.1738 0-.0887-.0186-.207-.0149-.2254-.0669-.1405-.2156-.3068-.3717-.3696.0706.0443.1376.1256.171.2069z"/><path d="m65.5895 22.5004s.0037.0075.0074.0112c.0037-.0186.0037-.0372 0-.0409 0 0-.0186.0074-.0112.0297z"/><path d="m67.5674 20.3574s.0335-.0558.0558-.0967c.0223-.0446.0409-.0669.052-.0595-.0111 0-.0149-.026-.0372-.0148-.0223.0148-.0743.0409-.078.0334-.0075 0-.0075 0-.0112 0v.026c0 .0484.0037.1116.0186.1116z"/><path d="m66.141 22.2715s.0186.0297.0335.0558c0-.0149 0-.0298-.0037-.0372-.0112-.0297-.0335-.0297-.0298-.0186z"/><path d="m65.8358 21.8532c-.0334-.0075-.0148.052.0223.0669.0112-.0037.0186-.0074.026-.0112-.0223-.0297-.0408-.0557-.052-.0557z"/><path d="m66.1395 21.7349c-.1004-.0112-.223.0446-.2528.0446 0 0 .0075.0074.026.0148.0075.0038.0149.0075.0261.0149.0185.0074.0334.0112.052.0186s.0335.0112.0483.0186c.0483-.0186.1227-.0521.1933-.0818-.0483-.0149-.0892-.0297-.0929-.0297z"/><path d="m65.9533 22.5299c-.0669.0924-.1189.1405-.1152.1405.0074 0 .026-.0074.0557-.0185.0261-.0111.0669-.0333.1078-.0629.0744-.0554.1301-.1219.145-.1515-.0595.0148-.1227.0444-.1859.0702-.0037.0074-.0074.0148-.0111.0222z"/><path d="m67.274 20.3342c.0075-.0554.1004-.2107.119-.2181.0037 0 .0074.0407.0111.0998.0037.0555.0112.1294.0149.1257.0111 0 .0334-.0628.0557-.1109.0223-.0517.0446-.085.0558-.0776.0149-.0111.0334-.0222.0706-.037.0483-.0221.1041-.0406.1004-.0443-.0037-.0111-.0669-.0222-.119-.0259-.0557-.0074-.1003-.0074-.1115-.0185 0-.0111.0409-.0332.1004-.0517.052-.0185.1152-.0333.1115-.0444s-.2342-.048-.2528-.0443c-.0148 0-.0483.0295-.0632.0554-.0111.0296 0 .0481-.0074.0518 0 0-.0223 0-.052.0184-.0298.0148-.0595.0555-.0707.0703-.0223.0258-.1152.1848-.1226.2439-.0075.0481.0334.244.0409.2883.0037.0444.0446.2477.0334.3105.0223-.1072.1041-.207.1153-.3068.0111-.085-.0521-.2144-.0409-.2846z"/><path d="m65.9201 22.448c-.0446.0407-.0818.0591-.1115.0739.0223.0074.0483.0148.0743.0148.0223 0 .0558-.0185.0855-.0332.0521-.0851.0707-.159.0669-.1627-.0037 0-.0409.0481-.1115.1072z"/><path d="m65.7675 22.5407s.0223-.0074.0409-.0149c-.0409-.0148-.0781-.0297-.1041-.0297-.0223.0297-.0149.0632.0632.0446z"/><path d="m65.8428 22.6666s-.0074 0-.0111 0c-.0892-.0259-.1636-.0739-.2007-.1072-.0075-.0074-.0223-.0258-.0335-.0443v.0037c-.0037.0222-.0223.0295-.026.0332-.0186.0074-.0743-.0184-.0892-.0739-.0037-.0111.0111-.048.0297-.1072.0186-.0517.0372-.0961.0372-.1146 0-.048-.052-.1293-.0558-.1441-.0074-.0259-.0483-.0296-.052-.0591-.0112-.0259.0186-.074.0781-.1146-.1524.0037-.2156-.0222-.3086.0998.0038.0702.0261.1441.0446.2291.0075.037.0744.2107.0818.2329 0 .0443-.0446.1626-.0223.1848.0298.0407.0929.0296.1264.0296.0149 0 .1264-.0222.1673-.0148.0594.0148.1375.0998.2267.1109.0558.0074.2491.0887.2974.1072.0446.0147.249.1072.3122.1219.1078.0259.2416-.0221.3903.0703-.0372-.0444-.1227-.0961-.2044-.1331-.0744-.0333-.1487-.0628-.171-.0813-.0149-.0111.0743-.0074.1784.0074.052.0074.1189.0259.1636.0369.0483.0148.0892.0333.0892.0296 0 0-.0261-.0259-.0669-.0554-.0372-.0222-.0855-.0518-.1413-.0814-.0929-.0443-.1933-.0813-.2119-.0887-.0297-.011-.3048.0259-.3345.0222-.0743-.0111-.2193-.0813-.2862-.1035z"/><path d="m67.4745 20.4307s-.0149-.0149-.0223-.0186l-.0186.0074s.052.0484.1078.1078c-.0037-.0111-.0112-.0223-.0149-.0297-.0186-.0223-.0334-.0595-.052-.0669z"/><path d="m68.793 22.4749c.0557.0258.1226.0554.1895.085.1004.0443.2119.085.2639.0924.0595.0111.1413 0 .2008-.0111.0706-.0111.1301-.0259.1747-.0222.0334 0 .1003.0259.1635.0518.0483-.0148.2231-.0851.2751-.0851.026 0 .0855.0111.1487.0222 0 0 .0037-.0037.0037-.0074-.0112-.0074-.0074-.0259-.0483-.0702-.0409-.0554-.0818-.1072-.1004-.1331-.0074-.0111-.0297-.0295-.052-.0517-.0186-.0185-.0409-.0444-.0595-.0702-.0149-.0185-.0297-.0296-.0372-.037-.0111.0185-.0186.037-.026.048-.0186.0222-.0446.0407-.0669.0592-.0074.0185-.0223.0517-.0372.0554-.0186.0111-.0334.0074-.0334 0s.0297-.0295.0669-.0554c0-.0037.0037-.0111.0037-.0111.026-.0628.0446-.1109.0669-.1035 0 0 .0074 0 .0186.0074.0409-.0776.1078-.1922.1673-.2144h.0111c-.0446-.0111-.0892-.0259-.1227-.0259-.0966.0037-.1821.0777-.2787.0888-.0484.0037-.093.0258-.1376.048-.0223.0111-.0446.0185-.0706.0296-.0335.0074-.0892.0185-.1301.0222-.1896.0221-.4423 0-.7062.133-.0186.0074-.0521.0296-.0781.0407.0074.0037.0186.0111.026.0148.0521.0258.119.0628.197.0998z"/><path d="m68.2408 22.5706c.1227-.1035.2416-.1664.3309-.2144-.1078-.0555-.3086-.1774-.461-.3438-.0855-.0887-.1375-.1663-.1895-.2439-.0038-.0074-.0075-.0111-.0112-.0185-.0186.0259-.0372.0554-.0557.0813-.1004.1442-.2751.329-.4312.4473-.0037 0-.0112.0073-.0149.011.0372.0296.0743.0518.1078.0851.171.1552.3048.3511.4014.5322v.0074c.0372-.0591.1599-.2181.3197-.3437z"/><path d="m70.2035 22.0529s.0074.0112.0112.0074c.0037-.0037-.0409-.0632-.119-.0371.0112 0 .0186 0 .0297.0037.0261.0074.0558.0149.0781.0223z"/><path d="m68.0619 20.7117c.0223-.0149.0409-.0335.0261-.0446 0-.0075-.0224-.0261-.0372-.0372v.0074c0 .0186.0037.0521.0074.0744z"/><path d="m67.9871 21.6173c.0334-.0665.0632-.1368.0743-.1811.0558-.1848.0223-.3955.026-.4768 0-.0998-.0148-.1737-.026-.2514-.0149.0111-.0334.0222-.0557.0259-.0075 0-.0409-.0111-.0744-.0259.0558.0444.1041.0814.119.0961-.0038 0-.0298.0037-.0558 0-.0111 0-.0223 0-.0372-.0074-.0186-.0037-.0371-.0073-.0557-.0147-.0335-.0111-.0744-.0296-.119-.0555-.0223-.0148-.0409-.0296-.0632-.0443-.0446.0258-.0817.0591-.0855.0591-.0148-.0037.0112-.0333.0595-.0776-.0111-.0074-.0223-.0148-.0297-.0222-.0595-.048-.0892-.085-.1227-.122.0112.0222.0223.0444.0335.0666.0186.0369.0371.0924.0557.1367.0075.1109-.0446.2181-.0223.3659 0 .0222.0409.1257.0781.2218.026.0628.052.122.0743.1737.0298.0629.0558.1109.0669.1331.0186.0333.0372.0665.0781.1294.0074-.0111.0186-.0259.026-.037.0186-.0333.0372-.0665.0521-.0961z"/><path d="m67.7828 20.6632c.0297 0 .0929.026.1486.0483-.0408-.0334-.0817-.0743-.1226-.1226-.0075.0037-.0149.0111-.0223.0148-.0483.0298-.0669.0484-.0892.0707.0074.0074.0185.0111.026.0185.0186-.0111.0372-.026.0595-.026z"/><path d="m68.0171 20.4375c-.026.0222-.052.0407-.0855.0665.0484.0592.0893.0998.119.1257-.0074-.0591-.026-.1368-.0335-.1922z"/><path d="m68.1184 26.8287c.0446-.1515.0632-.2846.0743-.2698.0074.0148.0149.122.0037.255-.0074.1331-.0371.2846-.052.3475-.0075.0443-.0521.2107-.1152.3622-.0075.0185-.0149.037-.0223.0518.0148.0184.026.0295.0408.048.0223-.0296.0409-.0517.0595-.085.0967-.1515.171-.3253.1896-.3659.0111-.0259.0372-.1774.0446-.3216.0037-.0887 0-.1626 0-.2255-.0074-.0258-.0186-.0517-.026-.0776-.0223-.0702-.0409-.1404-.0409-.1811 0-.0517.0632-.2624.0743-.3031.0037-.0185.0186-.0813.0298-.1441l-.1116-.4103-.078-.2772c-.0186-.0592-.0706-.1959-.0781-.2772 0-.0259.0632-.2699.0707-.2957.0111-.0518.0706-.2255.0706-.2994 0-.0185-.0186-.085-.0372-.1479-.0186-.0702-.0409-.1404-.0446-.1552-.0111-.0444-.0892-.2846-.1004-.3807 0-.0444-.0074-.0887-.0074-.1368-.0037-.0554 0-.0887-.0074-.1663-.0075-.0665-.0186-.1368-.0335-.2033-.026-.085-.0595-.17-.1003-.2476-.0409.0554-.145.218-.2045.377-.0669.1626-.1003.3105-.1041.3733-.0111.1072.0075.2255.0261.2513.0185.0481.0371.0961.0371.1442 0 .0739-.078.2365-.0743.3031.0074.0887.0595.2217.0743.2883.0112.0443.0744.2328.0744.2883 0 .0776-.0632.2291-.0744.3031-.0111.1035-.052.218-.0743.303-.0112.0407-.0744.2514-.0744.3031 0 .0518.0632.2477.0744.2883.0186.0703.0669.1959.0743.2883 0 .0518-.0148.1664-.0148.3031 0 .1368.0148.2846.0408.3622.0335.1109.1078.2366.1933.3512.0372-.0998.0669-.1996.0893-.2994.0148-.0074.0817-.1663.1226-.3179z"/><path d="m71.4136 77.6766c-1.1746-.1737-2.3492-.3474-3.5201-.5212 2.457.1368 4.9177.2736 7.3747.4103.3346.0185.762-.0222.8661-.3363.1041-.3142-.6096-.4066-.4609-.1109.6988-.0481 1.4013-.0961 2.1001-.1442-.4311-.0222-.8623-.0443-1.2935-.0665 2.6205-.0665 5.2411-.1331 7.8654-.1959-.197-6.7012-.3978-13.4504-1.8623-19.9926-1.4608-6.5422-4.2784-12.944-9.0548-17.6788-.9925-.9869-2.1039-1.9516-2.5648-3.2711-.4572-1.3195.0817-3.1048 1.4496-3.4153-1.4459-1.6928-2.8882-3.382-4.3341-5.0748-1.2452 1.6818-2.4905 3.3598-3.7357 5.0416 1.2304.5914 1.524 2.299 1.0259 3.5631s-1.55 2.214-2.5016 3.1898c-4.6278 4.7496-7.4044 11.0441-8.8578 17.4977-1.2527 5.5627-1.985 11.7205-1.7396 17.4311.1487 3.4781 1.9923 2.3471 5.189 2.2916 2.8994-.0517 5.8024-.0517 8.7018 0 .4795.0074 1.0259.0518 1.3121.4362s-.1301 1.1051-.5427.8649c1.6504.0443 3.3008.0887 4.9512.133-.1227-.0184-.2454-.0369-.368-.0554zm-2.654-17.8488c0-1.8001 1.4682-3.26 3.2785-3.26h1.576c1.8102 0 3.2785 1.4599 3.2785 3.26v4.9639c0 1.8001-1.4683 3.2601-3.2785 3.2601h-1.576c-1.8103 0-3.2785-1.46-3.2785-3.2601zm-1.9589 4.9639c0 1.8001-1.4683 3.2601-3.2785 3.2601h-1.5761c-1.8102 0-3.2784-1.46-3.2784-3.2601v-4.9639c0-1.8001 1.4682-3.26 3.2784-3.26h1.5761c1.8102 0 3.2785 1.4599 3.2785 3.26z"/><path d="m66.7566 22.0199c.0223-.0111.0446-.026.0669-.0372.0483-.0334.0855-.0594.1004-.0706.0037 0-.0335.0149-.0892.0372-.0595.0223-.119.0334-.1896.0483-.0372.0074-.0706.0074-.1041.0112.0521.0037.1115.0074.1859.0074h.0334z"/><path d="m70.4553 22.4118c.0149.0481.0298.0887.0335.0924 0 0 .026-.0406.0446-.0924.0186-.0628.0372-.1293.0372-.1367 0-.0703-.0855-.1479-.0967-.1774.0037.0406-.052.1182-.052.1922 0 .0073.0186.0702.0334.1219z"/><path d="m66.4415 21.835c.0335.0111.0558.0222.0558.0222s-.1041.0037-.1933.0111c-.0855.0074-.1673.0148-.1673.0148.0483.0111.1041.037.1636.0591.052.0185.1041.037.1561.0518.1041-.0444.2193-.0961.3605-.1959.1673-.1072.3123-.3253.342-.4842.0446-.1627.0335-.2735.0298-.3881-.0149.0813-.1301.255-.1747.3511-.0298.0665-.0521.1442-.1041.2255-.0484.0776-.119.1478-.1896.1811-.0483.0296-.145.0407-.2267.0444-.0818.0036-.1487 0-.1785.0036-.0297.0074-.0594.0222-.0892.0333.026.0074.0521.0185.0818.0259.0446.0148.0929.0296.1264.0443z"/><path d="m65.9945 21.9091c.0744-.0112.145-.0223.145-.0223s-.0446-.0186-.1004-.0372h-.0074c-.0446.0186-.0967.0372-.145.0558.0037.0074.0075.0074.0149.0148.0186-.0037.0446-.0111.0929-.0148z"/><path d="m70.4248 22.0901s0-.0037 0-.0074h.0298c.0074.0074.0148.0111.0148.0185-.0111-.037.0521-.0666.0409-.0814 0-.0073-.0149-.0998-.0929-.1182-.0074-.0074-.2379.0221-.2416.0295.0074.0111.2007.0961.2081.1146.0149.0111.0298.0333.0372.0481z"/><path d="m68.0841 20.3379s-.0149 0-.026 0c-.0223.0111-.0446.0334-.0483.0595 0 .0111.0037.026.0074.0409.0372-.0298.0669-.0595.0706-.0744 0-.0037 0-.0149 0-.0223z"/><path d="m70.4298 22.1196s0-.0112 0-.0223c0 0-.0037-.0037-.0075-.0075-.0111.0112-.0185.0298-.0111.0335h.0149z"/><path d="m66.4866 22.0127s.0372-.0037.0558-.0074c-.0149 0-.0335 0-.0446 0-.0112 0-.026-.0074-.0372-.0112-.0148.0075-.0297.0149-.0446.0186z"/><path d="m65.8732 21.9272s-.0074-.0075-.0111-.0112c-.0335.0149-.0706.0298-.1004.0409.0037.0112.1041.0149.1896.0186-.0149-.0186-.0372-.0409-.0483-.0558-.0149 0-.0223.0075-.0298.0075z"/><path d="m67.9055 20.4746c-.0818-.1109-.0781-.1996-.0521-.1885-.0111 0-.0185.0185-.0223.0554-.0037.0333-.0074.0887-.0185.0887-.0075 0-.0298-.0443-.0521-.0665-.0223-.0369-.0409-.0296-.0446-.0333-.026 0-.026.1035.0706.2366.0075.0074.0149.0111.0186.0185.0409-.0259.0855-.0555.1264-.085-.0074-.0111-.0186-.0148-.026-.0259z"/><path d="m66.7567 22.0193c-.026.0148-.052.0296-.0818.0481-.0929.048-.1858.085-.2118.0887-.0781.0185-.2751-.0037-.342-.0148.0706.0628.1412.1294.1487.1737.0074.0222 0 .0665-.0149.0813s-.0334.0148-.0409.0037c-.0111-.0185-.026-.048-.0409-.0702 0 .0333 0 .0702-.0148.0961 0 0-.0075.0074-.0075.0111.0075 0 .0149-.0074.0223-.0074.0186 0 .1004 0 .1859.0074.0818.0037.1896 0 .2081 0 .0149 0-.0892.0406-.1858.0702-.0892.0296-.1784.0629-.1747.0665 0 .0111.0892.0111.1858.0074.1041-.0037.2194-.0184.2305-.0074 0 .0148-.1078.0481-.2082.0777-.0892.0258-.1784.0517-.1709.0628 0 .0037.0855.0074.1821.0111.1078 0 .223-.0074.2602-.0185.0372-.0074.0781-.0222.1227-.0443.0446-.0185.1226-.0555.1821-.0888.0557-.0295.1487-.085.2193-.1367.0632-.0407.1338-.0961.1933-.1442-.1227-.0961-.2491-.1774-.3457-.2143-.1152-.0481-.2044-.0518-.3048-.0629z"/><path d="m65.9913 22.0272c-.0892.0297-.223.0743-.197.078.026.0186.2268.0298.3085.0335h.0186c-.0409-.0372-.0818-.0707-.1152-.0967-.0074-.0074-.0112-.0111-.0149-.0186z"/><path d="m65.9512 21.9795s.026.0334.0409.0483c.0408-.0149.0743-.026.0743-.0334 0-.0112-.0558-.0112-.1152-.0149z"/></g><path d="m60.8212 34.8451c-1.1821-.4103-2.5946.1072-3.2822 1.2087-1.866 2.9939-9.1664 5.6958-11.9877 8.5492-3.8955 3.9401-7.1108 8.6454-9.4526 13.7904-1.7544 3.8514-5.0218 11.1736-4.1371 15.5757.7917 3.9475 2.2303 2.835 6.2819 2.761 3.5424-.0628 7.0811-.1219 10.6235-.1848-1.0408-14.829 3.3268-30.0092 11.995-41.6891-.0111-.0037-.026-.0074-.0371-.0148z" fill="#e77300"/><path d="m76.7487 36.4053c.658 1.2087 1.3159 2.4173 1.9701 3.626.1784.3289.6542.3622.8066.0148.1524-.3475-.2751-.8169-.513-.5508.2008-.2217 5.1557 11.1957 5.5199 12.2861 1.5575 4.6831 2.6429 9.599 3.219 14.5999.2788 2.4062.4387 4.8346.4758 7.2667.0409 2.554-.7583 5.1746.9553 6.1578 1.5315.876 5.2486-.0148 6.977-.0185 2.4979-.0037 4.9956-.0074 7.4976-.0111-.108-9.7468-2.836-19.4234-7.6648-27.2112-4.8286-7.7878-11.7349-13.65-19.4219-16.4849z" fill="#e77300"/><path d="m63.5264 56.5674h-1.576c-1.8103 0-3.2785 1.46-3.2785 3.26v4.964c0 1.8 1.4682 3.26 3.2785 3.26h1.576c1.8102 0 3.2785-1.46 3.2785-3.26v-4.964c0-1.8-1.4683-3.26-3.2785-3.26zm-.6505 9.7061-3.8881-3.5926 3.613-3.8662 3.8881 3.5926z" fill="#fff"/><path d="m62.5964 58.8153-3.6101 3.8644 3.8863 3.5897 3.6101-3.8643z" fill="#000"/><path d="m72.0363 68.0514h1.576c1.8103 0 3.2785-1.46 3.2785-3.26v-4.964c0-1.8-1.4682-3.26-3.2785-3.26h-1.576c-1.8102 0-3.2785 1.46-3.2785 3.26v4.964c0 1.8 1.4683 3.26 3.2785 3.26zm.6505-9.233 3.8881 3.5926-3.613 3.8662-3.8881-3.5927z" fill="#fff"/><g fill="#000"><path d="m72.6862 58.8134-3.61 3.8643 3.8862 3.5898 3.6101-3.8644z"/><path d="m83.4185 127.347c-.3159-.166-.472-.48-1.2229-.27-.8586.241-.6207-.026-.4572-.229.5464-.673.5687-.669-.4349-1.061-.3122-.122-.6802-.233-.8921-.388-.1115-.081-.0074-.288.1598-.384.1747-.1.5465-.141.829-.203-.0335.107-.0781.218-.1004.325-.0818.399.1264.488.8958.266.4758-.137.7806-.203 1.1598-.052.275.111.6467.2.9144-.044.1003-.093-.0298-.314-.2119-.348-.8698-.17-.8921-.476-.4424-.857.4349-.373.1227-.632-.2973-.865-.4832-.27-.4461-.554-.0037-.891.2527-.192.5427-.384.6951-.584.1375-.185.2825-.432.1152-.558-.2751-.211-.7917-.199-1.3716.033-.6245.255-.7026-.062-.6356-.162.1486-.229.4906-.447.7471-.673.4572-.403.8847-.806.2825-1.175-.1004-.063-.197-.189-.1115-.241 1.301-.743.2342-1.389.5204-2.073.394-.928.0818-1.737-.591-2.517-.1413-.163-.145-.244-.0335-.425.368-.625 1.2229-1.357-.4944-1.719-.8363-.177-1.2824-.292-.1449-.654.1152-.037-.0521-.24-.1673-.351-.0743-.074-1.3159 0-.0669-.222.6839-.122 1.0445-.263.4758-.447-.8364-.278-.6394-.695.2007-.917.9441-.248.6765-.466.7434-.695s-.223-.455-.0892-.68c.6245-1.057.5576-2.044-.3829-2.953-.2341-.226-.3122-.492-.6393-.691-.6654-.407-.3011-.884.145-1.316.2639-.259.5055-.411.0111-.603-.2602-.103-.2342-.31-.3382-.469h-.0223c-1.0631-.595-.4015-1.323-.1487-2.018.1152-.3108 1.0779-.7099-.3197-.8319-.0186 0 .0706-.2181.2342-.2809.5092-.1959.5352-.3253.171-.5249-.2974-.1626-.3717-.4103-.4275-.6283-.0669-.2772-.4609-.3918-1.0817-.4029-.8103-.0148-.6616.2772-.9032.4472-.197.1405-.1673.4029-.8401.3327-.4052-.0407-.8586-.159-1.1077.0887-.171.1737-.1821.425.0298.5544.4497.2772 1.5686.4583-.1078.8649-.1487.037-.0521.318.0148.473.1859.433.5836.813-.052 1.346-.6579.547.2379.972 1.6467 1.105.5389.051 1.5054-.163 1.5946.221-.6802.041-1.3605.093-2.037.115-.2973.011-.5873-.085-.8623-.055-.3011.033-.8401.177-.8327.232.0669.74-.5278 1.579.8735 2.129.6022.237.8698.522.539.851-.2453.244-1.1077.451-1.2935.687-.1376.174.7285.44.5427.551-.7397.429-.0335.617.3903.835.2081.107.7137.159 1.1225.159.1338 0 .461-.24.591-.377.4684-.499.8364-1.005 1.3605-1.501.1375-.129.6765-.251 1.0743-.321.1561-.026.5389.074.6356.155.4312.37-.1673 1.364-1.1635 1.663-1.0705.322-1.2118.688-.8252.961.736.529-.6914 1.102-.4089 1.627.0223.044-.8326.214-1.2824.329-.1412-.133-.4163-.255-.394-.396.0558-.377.2714-.765.368-1.146.0372-.136-.0409-.281-.1598-.403-.0558-.059-.3085-.092-.5055-.103-.0818-.004-.3309.078-.3532.122-.275.469-.9701 1.024-.6579 1.393.5055.595.4721 1.172.0632 1.812-.052.085.119.214.3085.251.3085.055.7323.041 1.0817.074 1.1635.118 1.1449.137.4237.576-.2824.17-.7248.492-.6021.533.9107.299.3531.695.0818 1.06-.3643.492-.5056.928.2825 1.313.2379.114.2081.373.078.558-.7025 1.012.6877 1.966-.7508 3.001-.1078.078.1449.211.1598.325.1078.802.4052 1.601.2267 2.414-.2007.92-.2936 1.804.3309 2.646.1263.17.0557.403-.0632.595-.3792.603-.1859 1.165.1747 1.697.2267.329.2713.636.2081.998-.1226.658-.2527 1.331.2342 1.951.684.891.7397 1.86.3383 2.436-.1822.27-.4052.388-.487.403-.0966.008-.0037-.022.0112.203.0074.2-.1747.389-.4312.533-.2639.144-.6022.258-.9702.377-.5836.177-1.13.074-1.6764-.074-.1821-.052-.394-.104-.5724-.048-.2714.088-.4312.029-.5947-.174-.2082-.262-.3309-.166-.4647.159-.2044.495-.394.554-.8809.458-.3086-.063-.6171-.188-.9219-.166-1.1114.078-2.2191.185-3.3305.233-.6654.029-1.3344.029-1.9998.018-.6393-.011-1.3419-.199-1.8957-.059-.7992.207-1.6244.026-2.405.226-.3011.081-.6468.107-.9887-.137-.1822-.13-.5687-.118-.8252-.056-.3048.078-.5873.108-.8475.048-.2565-.055-.487-.21-.6208-.487-.0334-.067-.1933-.085-.2304-.03-.093.137-.1562.329-.2342.499-.0483-.192-.0409-.407-.0558-.558-.0223-.152.0075-.303-.0483-.329-.1896-.074-.2862-.444.0892-.884.0521-.059-.0595-.155-.078-.247-.0632-.288-.1896-.673-.1413-1.039.0818-.602.2676-1.201.4758-1.796.1375-.388-.0743-.717-.2453-1.079-.1562-.329.2899-.732.3977-1.109.1189-.422.1301-.85.2007-1.279.0223-.141.1673-.285.1301-.421-.1635-.573-.4051-1.139-.6133-1.712-.0706-.192-.2044-.417-.0706-.584.3345-.41.3196-.824.3717-1.253.0595-.462.2527-.894-.1413-1.356-.0743-.085.0186-.241.1636-.307.8103-.377.5129-.784.1375-1.216-.1784-.207-.3308-.451-.2565-.658.2379-.673.7881-1.316.2974-2.037-.1561-.232.145-.506.1301-.761-.0558-.965 1.0891-1.892.0743-2.894-.078-.078.1487-.2.171-.307.0484-.214.0818-.436.0707-.654-.0112-.233-.1227-.466-.119-.695.0149-.957.0372-1.907-.6059-2.861-.1598-.24-.0557-.625.2379-.798.9219-.551.6951-1.153.3123-1.789-.5427-.876-.8587-1.771-.6914-2.661.104-.61-.1487-1.272.3196-1.841.0707-.085.0744-.24.0149-.336-.3605-.562-.3643-1.117-.2751-1.697.0409-.2957-.1301-.6321-.078-.9241.0595-.3659-.0669-.6727-.1673-1.0164-.197-.669-.3159-1.3602-.3382-2.0403-.0186-.6727.052-1.3491.0408-2.0255 0-.1442-.0148-.2883-.026-.4325-.0037-.0443-.026-.1182-.0297-.1108-.0149.0258-.0446.0739-.0483.1256-.0335.5101-.0967 1.0239-.1524 1.5376-.0707.6727-.1264 1.3454-.2119 2.0181-.0074.0703-.0966.1331-.145.2033-.3085.4584-.3382.4694.093.7947.0706.0518.2044.1368.1932.1774-.1152.4066-.104.8391-.1338 1.2604-.0334.4251-.104.8427-.4832 1.2195-.1189.119-.0632.411.0558.569.3457.462.4795.862-.2565 1.217-.1078.051-.1636.284-.0818.358.4721.432.171.821-.2639 1.105-.4275.285-.4275.54-.1264.773.6208.484.565.898-.1412 1.308-.3234.189-.3086.333.1226.484.3755.133 1.0371.111 1.0631.462.0223.289.1413.662-.1375.847-1.052.695-1.2341 1.434-1.0966 2.321.1227.776-.5575 1.563-.8475 2.351-.0706.188.0112.403.1227.595.3271.558.7323 1.112 1.0928 1.674.2677.418-.2007.658-1.1374.603-.2676-.015-.5353-.052-.8029-.078.0149.166-.0743.351.0669.495.1784.178.7657.318.7955.481.1003.539.0594 1.083.0111 1.622-.0186.222-.3457.407-.9181.318-1.1783-.181-1.0334.063-.8549.422.2267.454.368.898 1.0259 1.312.8438.528.7806.547-.2676.891-1.1709.384-1.1449.384-.7137 1.072.1933.306.3791.628.3791.938 0 .592-.1264 1.176-.1561 1.767 0 .063.1747.144.3048.196.0409.018.249-.015.2937-.052.1338-.111.2267-.233.3382-.351.0483.144.145.288.1375.429-.0074.17.0298.425-.1784.488-1.1969.377-.3866.854-.1635 1.312.1561.307.3791.632.3419.928-.1003.798-.3271 1.589-.3828 2.391-.0595.85-.026 1.7.0186 2.565.0148.422.0817 1.031.84 1.113l.0409-.085-.0409.088c-.2304.37-.171.784.0484 1.143.2193.358.6096.643.9887.798.3234.137.6691.118.7806.425.1858.484.6319.724 1.0556.817.4312.096.8587.055 1.249.048.3531-.007.6728-.052.9887-.074.3197-.018.6319-.022.933.026.6096.089 1.2378-.44 1.8065.015.0521.04.3048-.011.4015-.074.3977-.259.788-.167 1.2378-.111.9293.118 1.8771.358 2.8213.007.1561-.059.3903 0 .5873.019.7471.081 1.4942.207 2.2414.284.6356.067.6356.034.5575-.565-.0074-.067.0298-.141.0446-.211.0632.041.171.074.1896.126.1338.377.3977.562.8475.547.0929-.004.223.052.2862.118.4052.455.933.473 1.3493.259.461-.24.8066-.13 1.223.122.42.247.8437.499 1.3455.44.6877-.089 1.4869-.096 2.4162-.37.2193-.063.5204-.007.814-.041.4423-.048.9293-.192 1.4162-.399.684-.284 1.0928-.813.7249-1.375-.2156-.321-.1339-.502.3271-.477.3865.026.7025-.122.5761-.617-.1784-.643-.3531-1.116-.3197-1.552.0335-.436.264-.839.8401-1.272.1152-.088.1227-.255.1115-.369-.026-.27.0075-.544-.1635-.765-.4089-.518-.3309-1.279-2.0965-1.213-.4535.019-1.0779-.181-.8029-.499.2565-.288-.5798-.798.881-.876.2119-.011.4349-.125.6579-.192zm-.6356 2.587c.1933-.062.3829-.147.5873-.177.1896-.026.5539-.011.5613.03.0446.184.1004.403-.052.569-.2156.233-.6022.432-.9144.639-.0038 0-.1227-.044-.2305-.081.6245-.359.5576-.684.0483-.98zm-8.0215 6.343c-.052 0-.1152-.159-.171-.248.1524-.051.3011-.133.4572-.151.0744-.007.1673.1.4052.27-.342.074-.5167.129-.6914.129zm6.6945-21.737c-.1673.055-.3234.126-.5092.166-.0669.015-.3011-.048-.29-.059.0818-.07.2045-.14.3755-.244.1858.059.3048.1.42.137zm-23.1389 17.353c.0409.06.1152.119.1115.178 0 .063-.0744.126-.119.188-.0371-.074-.0706-.147-.0966-.203.0446-.07.0743-.118.1041-.163z"/><path d="m75.4726 94.9168c.0632-.0961.145-.2994.2342-.4547-.0409-.048-.1115-.048-.1413-.1552-.052-.1922-.1635-.3659-.2899-.5618-.1264-.1848-.2528-.4214-.3011-.7208-.1561-1.0238-.6765-.754-1.0817-.6246-.1932.0628-.4163.0776-.5612.2513-.3866.4547-.8401.5508-1.3791.4657-.2565-.0406-.6096.2255-.6691.5471-.171.9092-.643 1.0423-1.1634 1.1643-.342.0776-.6654.2402-.9702-.4362-.1487-.3252-.3531-.2846-.5204-.0222-.394.6173-.4089.5656-1.0259.2107-.2974-.17-.7025-.462-.5278.3918.0111.0555-.1004.1996-.145.1848-.617-.1663-.959.3733-1.3828.6653-.3456.244-.7285.3179-1.0519.0887-.3531-.2513-.7174-.0997-.9218.0962-.2156.2143-.2639.5655-.3643.8316-.0149.037.1561.1737.2119.1626.4497-.0998.8884-.1146 1.3493.0333.0632.0185.1672-.0481.2267-.1072.4498-.4177.8661-.9536 1.6355-.6431.3978-.4399.9219-.2218 1.4274-.159.3457.037.7248.2144 1.0222-.1146.1115-.1256.3977.0111.6096.0666.3085.0776.6282.2513.9293.292.197.0258.5018-.0407.5241-.2255.1115-.998.5687-1.0164 1.1895-.7023.1338.0666.2639-.0887.4014-.1256.2193-.0592.4349-.1442.6654-.1553.3977-.0148.7992-.0222 1.2192-.0222h.1264l.0892-.011c.0557-.0037.1115-.0111.171-.0148.104-.0111.2081-.0222.3196-.0333.0038-.0037.0707-.048.1524-.1737zm-1.4162-.6247v-.1404c.0929-.207.171-.4325.2862-.6099.0297-.0443.1487.085.2156.1368-.0149.0887-.0074.2402-.0372.2587-.1301.0961-.3011.1515-.4609.2218l-.0074.133z"/><path d="m80.4937 95.7852c-.4237.0702-.8475.159-1.2675.1996-.2565.0222-.7211.0185-.71-.0074.1041-.2846-.2119-.4139-.5315-.4583-.3197-.0517-.6431-.0185-.6059-.2144.0297-.1774-.1153-.2476-.2007-.3215-.0893-.0814-.1227-.1738.0929-.5582.0818-.1441.1264-.2624.1487-.3511.0111-.0444.0148-.0813.0111-.1109 0-.0148-.0037-.0296-.0074-.0406-.0112 0-.0372.0147-.0558.0221-.1672.085-.4089.2772-.6653.5175-.2082.2033-.4238.4103-.6431.6246-.2119.1959-.2639.1959-.2602.037.0074-.1626.0744-.4805.1896-.9573.052-.2033.0892-.3955.1115-.5729.0111-.0887.0186-.1737.0223-.255 0-.0888 0-.1775.0037-.2662 0-.377-.0855-.6838-.2788-.9055-.052-.0592-.0594-.3512-.0074-.4584.0706-.1367.2862-.3067.3606-.2809.5166.1848.9144.4695 1.0482.9241.1189.414.2081.5137.8475.0665.2379-.17.4795-.3437.7211-.5138l.3977-.2698.2008-.1256c.026-.0111.078-.0555.0854-.0444.0149.0074.0298.0111.0409.0185.2193.1146.3197.462.0298 1.1458.6616-.0444.6951.6653.0706 1.5191-.0446.0592.0334.1405.1152.1479.4201.0295.5948.2735.6654.5581.0743.2883.0446.6209.0818.9203l-.0149.0111z"/><path d="m80.5111 95.7735c.2119-.0369.4237-.0628.6319-.1109.5315-.1219 1.0556-.2587 1.5835-.4028-.1636.2291-.3011.4842-.4572.7022-.0781.1294-.1673.1516-.2639.2107-.0967.0518-.2045.0961-.3271.1294-1.2564.34-2.1337.7688-2.8957 1.2973-.4497.3105-1.156.2957-1.5314.0259-.6914-.4953-.2379-.8686 1.2712-1.0349.4684-.0518.9553-.0813 1.3308-.17.1858-.0444.3456-.1035.4609-.1848.1152-.0961.1784-.2551.1821-.451z"/><path d="m61.9221 97.2156c-.2973.0629-.6021.0444-.8289 0-.2267-.0443-.3828-.1072-.394-.207 0-.0184.1078-.1035.145-.1108.1003-.0185.2527-.0333.2713.0036.1562.3068.6096.1405 1.0148.0185.1338-.0369.249-.1367.3829-.1774.0892-.0296.2007.0037.301.0111-.0594.0628-.1077.1442-.1858.1774-.2788.1294-.5724.2329-.7063.2809z"/><path d="m56.0759 113.449c-.0669-.107-.2193-.221-.1784-.317.0409-.085.2751-.163.4646-.207.0483-.011.3494.099.3643.159.0223.085-.1227.173-.1933.258z"/><path d="m80.8648 89.1652c.3159-.133.617-.3031.617-.2439 0 .0665-.0409.1626-.0967.2661-.0185.0407-.0706.1257-.1189.2033-.0446.0739-.0892.1478-.1338.2255-.0186-.0111-.0409-.0222-.0706-.0222-.0521.0332-.1078.0665-.1599.0961-.1003.0591-.1784.0998-.1821.0776-.0297-.0998.0818-.3253.145-.5988z"/><path d="m82.1653 102.235c0-.029-.0186-.055-.0074-.085l.1858-.503c.1375.008.3308-.003.4015.026.5612.241-.0446.4-.5576.566h-.0223z"/><path d="m84.1691 127.983-.4832.617c-.0446-.011-.1115-.018-.1264-.041-.1933-.262.145-.432.5873-.587l.0223.007z"/><path d="m59.5352 97.5528c.0483-.0409.0817-.0669.1152-.0967.0632 0 .145-.0111.1858 0 .0149.0037-.0706.0669-.1226.0818-.0446.0149-.1115.0074-.1784.0149z"/><path d="m84.1465 127.975.4646-.621c.0483.008.1338.023.1338.023-.1933.203-.3828.403-.5761.606z"/><path d="m82.0389 93.9146c.1672-.1626.3196-.3881.3977-.3918.1413-.0074.3011.0998.3308.2218.0223.085-.171.2624-.2676.3881-.1301-.0665-.2639-.1331-.4646-.2181z"/><path d="m83.418 127.347.1487.026z"/><path d="m92.2898 97.415c-.1599-.3141-.2937-.4213-.4721-.6098-.1784-.159-.4089-.3179-.7769-.2255-.4237.1294-.5761.085-.6059-.0998-.0297-.1774.067-.4472.1413-.6542.249-.6838.394-.8686.3383-1.2198-.0261-.17-.1004-.3696-.2342-.6727-.0335-.0776-.0706-.1589-.1115-.2476l-.0298-.0702-.0148-.037.0074-.0148c.0074-.0222.0149-.0443.026-.0665.0335-.0961.0781-.1996.1487-.3179.171-.2994.3829-.6616.8847-.876.2676-.1072 1.011-.0111 1.3158.159.3234.1737.4015.5433.5576.8279-.29-.037-.5948-.0813-.9033-.1035-.5687-.0443-.9181-.0111-.985.122-.0706.1367.1598.3807.5761.7688.5204.4842.6766.7947.6617 1.1643-.0223.2698.223.632.5836.9166.1264.1109.1933-.0074.1635-.1996-.104-.8797.2825-.9055 1.3605-.4472.9144.4435 1.6801.1368 2.3975-.2809.8252-.4768 1.5946-.4325 2.4013.0111.4607.255.9217.5507 1.4307.7023.469.1404 1.104.2919 1.487.1256.628-.2698.71-.7873.201-1.3676-.55-.6283.316-.6985.572-.632.588.1515 1.108.499 1.662.7577.992.4657 1.985.8945 3.111.3068.19-.0998.554-.1922.669-.1072 1.736 1.3121 3.702.2624 5.49.5581.606.1035 1.201.1627 1.788.1811l.439.0074.487-.0074c.498-.0148.989-.0369 1.472-.0702.502 0 .918-.1441 1.349-.2476l.632-.1664.309-.085c.059 0 .078-.0776.118-.1146l.105-.1404c.565-.7392 1.044-1.5081 1.393-2.3101.249-.6986.409-.961.759-1.6005.145-.2698.338-.5359.472-.8316.122-.2772.245-.5544.368-.8353.104-.2699.178-.5434.253-.8206.033-.1404.066-.2809.096-.4213.019-.1405.03-.281.037-.4214.104-1.12-.316-2.2251-1.338-2.8424-.516-.292-.922-.4842-1.089-.7614-.193-.2735-.16-.6246.156-1.2973.049-.1294-.457-.7208-.792-.9832-.115-.0887-.434.0332-.628.0517-.193.0148-.252-.0665.097-.632.197-.3142.279-.6025.182-.8501-.1-.2403-.36-.4621-.881-.5212-.39-.0407-.732-.1183-1.033-.2329-.32-.0887-.599-.2143-.844-.377-.48-.3178-.818-.7022-.94-1.1938-.134-.5471-.465-.8243-.833-.9758-.372-.159-.781-.1848-1.152-.2809-.755-.1922-1.569.0185-2.197-.1553-.751-.2069-1.435-.3511-2.097-.4472-.672-.0998-1.341-.1515-2.011-.1589-1.341-.0148-2.68.1774-4.025.5803-.669.1996-1.402.2402-2.019.5359-1.263.6025-2.457.1811-3.5122-.3142-.6319-.2957-.9739-.5544-1.6244-.0887-.342.244-.8921.1922-1.3493.2735l-.0186.0185c-1.8548.9684-3.6576.2255-5.4641-.1183-.8029-.1589-1.643-1.1569-2.3232.207-.0074.0185-.565-.0961-.6951-.2698-.3977-.5285-.7397-.5692-1.3716-.2402-.513.2698-1.1932.3141-1.8065.3363-.7657.0296-1.1709.4029-1.3568 1.0128-.2453.7983.5799.6874.9776.9499.3271.2144 1.0483.218.6877.8723-.2156.3955-.6468.8242-.0372 1.1014.4238.1922 1.104.2366 1.5055.0444.8586-.4066 1.6243-1.4859 2.3008.2181.0595.1515.8438.0961 1.2787.048 1.2155-.1257 2.3344-.4694 3.6093.2292 1.3084.7244 2.68-.1109 3.3937-1.4785.2714-.5249-.0594-1.508.9962-1.545-.0632.6764-.0892 1.3565-.2007 2.0218-.0483.2957-.3754.5692-.3643.8427.0112.2994.2639.8502.4126.8539 2.0069.0332 4.1189.7281 5.9589-.5803.788-.5619 1.62-.791 2.423-.4214.595.2735.933 1.1532 1.528 1.3676.439.1552 1.372-.6616 1.617-.462.963.7872 1.654.1182 2.349-.2736.338-.1922.598-.6801.706-1.0829.037-.1294-.524-.4916-.862-.6358-1.227-.5248-2.498-.9573-3.699-1.5376-.312-.1515-.505-.6986-.594-1.1015-.034-.1589.334-.5248.58-.6061 1.107-.3733 3.627.34 4.2 1.3676.613 1.1014 1.55 1.2973 2.468 1.0534.892-.2366 1.669.1293 2.301.6209.32.2366.606.5249.892.7873.141.1331.301.2366.442.3622.145.1257.301.2366.48.329.056.0333.015.2513-.086.5285-.1.2773-.245.5951-.342.8206-.319-.1626-.762-.1109-.974-.3216-.323-.2291-.628-.5063-1.018-.7281-.379-.2292-.799-.4288-1.245-.5766-.327-.1072-.714-.0924-1.06-.0185-.167.037-.327.2698-.412.4583-.034.0776.093.3401.189.377.532.1996 1.026.5397 1.431.828.406.292.748.5248 1.071.5544.561-.0111 1.033.3105 1.383.706.078.1109.152.2254.227.34.07.1146.107.2588.156.3881.104.2514.111.5655.133.8427-.007.1553.227.3512.439.3918.349.0629.751 0 1.123.0592 1.23.2181 1.263.4103.572 1.3602-.149.1811-.327.4324-.476.6357-.16.2033-.264.3696-.208.4288.766.9868-.078 1.5856-.617 1.8628-.39.1885-.68.366-.959.5138-.342.0074-.584.1552-.944.5212-.056.0554-.13.0961-.216.1219-.044.0111-.089.0222-.137.0259-.049.0074-.13.0111-.194.0111-.275.0037-.564-.037-.799-.1035-2.587-.7207-5.456.6468-7.943-.8058-.186-.1071-.599.1405-.907.1553-2.189.0924-4.409.3733-6.557.1811-1.2193-.1072-2.4236-.1922-3.6168-.17-.5984.0111-1.1932.048-1.7916.1182-.2974.037-.5985.0814-.8959.1331l-.223.0444c-.0297.0074-.0855.0148-.1487.0221l-.1784.0259-.6951.1109c-.368.0628-.7843.0813-1.2229.0665-.4423-.0184-.8921-.0591-1.3159-.1072-.6616-.0776-1.3381-.1219-2.0035-.133h-.249l-.1227-.0037c-.0149.0037-.052-.0111-.0483.0111v.0554l-.0297.4399c-.0149.2957-.0223.5987-.0261.9055 0 .6173 0 1.2382.0558 1.874.0818.6579.1821 1.3084.2899 1.9331.0669.3881.1227.7614.1673 1.1088.0372.2218.0669.4436.0855.6653.0372.4436.0372.8908.0149 1.375-.1004 1.7375-.197 3.5185.3122 5.2785.7248 2.502.788 5.06.5836 7.592-.2007 2.361-.3978 4.749.1189 7.133.4498 2.122.6877 4.277 1.0259 6.395.2528 1.622.2231 3.042.145 4.524-.026.495-.052 1.064.0297 1.534.1227.724.0855 1.145-.0966 1.596-.2342.577-.1227.899.223 1.235.5241.517.6096 1.016.5762 2.328-.0223.817-.1301 1.619-.1301 2.399 0 1.409-.1152 2.809-.565 4.036-.4349 1.228-1.2452 2.255-2.4013 2.817-1.3864.699-3.1409.769-4.8879.721-1.7025-.052-3.6056-.3-5.0962-.2-2.1559.148-4.375-.096-6.4752.044-.814.056-1.7396.06-2.654-.21-.4832-.144-1.5277-.159-2.2228-.118-1.6876.099-3.2227.059-4.691-.459-.1858-.066-.8549-.055-.9293.008-.1784.155-.1375.358-.1821.543-.3791-.17-.7062-.381-1.156-.514-.4535-.133-1.0631-.281-1.5463-.277-1.643.018-3.219-.048-4.7802-.488-.223-.063-.5836.033-.8884.041-.4944.014-.9888.048-1.4868.074l-.3718.014c-.0892.008-.1263.019-.1932.026-.119.015-.2454.026-.3643.022-.2045 0-.3643-.04-.539-.066l-.1227-.026c-.0334-.011-.1003 0-.0669-.07l.0744-.303.078-.289.0632-.255.0632-.236s.0298-.152.0483-.244l.0558-.299c.1933-1.05.026-1.922-.0966-2.898-.1116-.876.394-1.974.5538-2.987.1747-1.135.249-2.291.3791-3.437.0409-.381.2082-.773.1896-1.135-.0818-1.534-.2453-3.053-.3791-4.587-.0446-.521-.1487-1.12.0111-1.571.3903-1.109.4349-2.217.5464-3.371.1227-1.238.3792-2.413.0484-3.64-.0632-.23.052-.644.2081-.832.8661-1.035.6208-2.118.3048-3.271-.1524-.555-.2676-1.209-.1673-1.763.3346-1.811.9739-3.549.5836-5.482-.1264-.621.2156-1.36.2342-2.047.0372-1.298.3792-2.573.5985-3.859.223-1.261.3233-2.772-.342-4.2175-.1041-.2217.078-.6468.026-.9979-.0781-.6986-.2379-1.4378-.5799-2.1586-.3531-.7651-.9367-1.46-1.5797-2.0809-.6617-.6469-1.5017-1.1606-2.3418-1.4305-.8401-.2846-1.6467-.377-2.3938-.3918-.7471-.011-1.4348.0629-2.0779.1701-.6356.1072-1.2675.2439-1.8957.4213-.6282.1775-1.6838.0998-2.1856-.1774-1.5835-.8723-3.1856-.6062-4.8694-.1737-2.3158.6025-4.7096.9832-7.1294.8834-1.6653-.0555-3.4272.2402-5.0107-.1774-.2416-.0629-.6579-.0555-.907.0111-1.4831.4028-2.9811.4435-4.5571.3991-.1599-.011-.2416-.0147-.3717-.011-.119.0036-.2454.0147-.3755.0295-.1338.0185-.2787.0407-.4126.0518-.0669.0074-.1338.0111-.1932.0111h-.0893c-.0185-.0074-.078.0147-.0483-.0296.1227-.3179.1747-.5433.2119-.7799.0372-.122.0706-.2476.1004-.3807l.0483-.207c.0186-.0813.0297-.1257.0557-.255.3383-1.7705.7583-3.5705 1.275-5.3336.513-1.7372 1.1151-3.4633 1.6355-5.2079.1115-.3696.2156-.7503.316-1.1199.0297-.1146.0669-.3105.0557-.292-.0371.0628-.1003.1811-.1486.3141-.4349 1.3085-.8996 2.6095-1.3568 3.9254-.5984 1.715-1.1857 3.4411-1.7991 5.1524-.0669.1848-.2007.3216-.301.4916-.3309.5581-.5093.839-.5799 1.1015-.0372.1293-.0446.255-.0335.4066.0075.1589.0446.3067.0707.5876.0223.1738.0929.3955.052.4953-.2342.5545-.4275 1.1458-.6059 1.7224l-.0669.2181c-.0149.0666-.0818.1737.0372.1405h.4572l.9181-.0074c1.275 0 2.3492.0406 3.4234.3844.3272.1072 1.1189.0332 1.5278-.0961 1.2192-.377 2.2786-.5397 3.3193.1626.1524.1035.7881.1405.9814.0555 1.1188-.5027 2.2005-.2292 3.0145.1811.8103.4029 1.5017.3844 2.1002.0665 1.2452-.6542 2.3752-.6283 3.5535.0407.539.3067.933.2809 1.301-.159.3234-.3844.2007-1.0349 1.1449-1.0903.7731-.0444 1.773-.1886 2.3046.0739.9962.4953 1.9961.7762 3.0443.9055.5241.0666 1.0631.0924 1.6206.0924.5613 0 1.1189-.0332 1.6765-.0591.9664-.048 1.9143.2181 2.4793.7281.5724.5175.7991 1.1496.9515 1.874.0818.3364.2751.7208.4647 1.1089.5613 1.131.9627 2.5507 1.2378 4.0287.2118 1.116-.2937 1.774-1.223 1.641-.2676-.037-.5278-.129-.7917-.196-.0112.448-.1227.947 0 1.331.1524.473.7248.839.7323 1.271.0223 1.449-.093 2.909-.2119 4.358-.0521.599-.4015 1.094-.9665.869-1.156-.466-1.0445.192-.9144 1.149.1673 1.216.2416 2.41.8475 3.508.7732 1.405.7026 1.456-.394 2.402-1.2266 1.061-1.2006 1.054-.8661 2.895.1487.82.2937 1.681.2491 2.509-.0781 1.586-.2899 3.164-.4052 4.746-.0111.166.1561.381.2788.521.0409.045.2528-.048.3011-.144.1487-.299.2602-.632.3866-.95.0297.381.104.769.078 1.146-.0334.455-.0297 1.138-.2453 1.316-1.2527 1.039-.5055 2.306-.3457 3.53.1115.824.2937 1.685.2119 2.491-.2119 2.151-.5501 4.276-.7174 6.431l-.0632.858-.0929 1.46c-.0744 1.031-.0892 1.977-.1264 2.975l-.0074.185c.0557.011.1189.011.1784.019l.3605.033.7249.066.7285.067c.2416.026.487.044.7509.044l1.5537.022.6951.008h.4349c1.0928 0 2.2823-.011 2.6206-.739l-.1785-.056.1822.052c1.5203.554 2.9439.162 4.3267-.144.5687-.133 1.1672-.348 1.6987-.119 1.6058.673 3.5982.462 5.5199.485 1.7061.007 3.4792-.056 5.0924.088 1.6393.133 3.338-.347 4.862.152.1449.048.8177.011 1.0854-.045 1.0742-.229 2.1262-.103 3.3305-.014 1.2601.092 2.4979.221 3.7951.281 1.2936.044 2.6838-.023 3.9922-.559.4238-.17 1.104-.351 1.6392-.628 1.0297-.499 1.9144-1.312 2.55-2.266.6468-.953 1.0333-2.021 1.2712-3.082.2008-.906.2268-1.36.1747-1.56-.0594-.203-.223-.155-.5315-.067-.0706.019-.1338-.085-.2007-.133.0594-.173.1003-.458.1598-.506.4014-.344.6096-1.09.5576-2.325-.0112-.251.026-.61.0892-.783.4014-1.113.3531-2.525.0818-3.626-.3011-1.216-.2305-2.144-.0372-3.275.1896-1.139.3866-2.292.2639-3.622-.1673-1.734-.2714-3.504-.3829-5.271-.026-.425.1041-.895.171-1.338.1041-.677.197-1.36.3383-2.022.1933-.92.2156-1.648-.4015-2.085-.3494-.247-.3828-.606.0484-.861.3605-.211.5761-.517.2973-1.201-.7397-1.8-1.0333-3.611.0892-5.463.1115-.185.1153-.569.1004-.854-.0372-.695-.0149-1.445-.1933-2.062-.4349-1.464-.3829-3.493-2.1559-3.645-.4535-.04-1.0891-.684-.8252-1.4893.2453-.7282-.6133-2.251.8512-2.1881.2156.011.4349-.2551.6542-.3955zm-.5427 6.831c.1933-.13.3828-.329.5836-.366.1895-.034.5538.074.565.181.052.499.1189 1.098-.0298 1.515-.2081.588-.591 1.046-.8958 1.549-.0037.007-.1264-.137-.2379-.263.6133-.842.5353-1.733.0112-2.616zm1.2861 30.881c.0074.144-.145.314-.223.473-.0744-.403-.1747-.791-.2119-1.212-.0186-.196.0781-.447.2156-1.102.1189.91.197 1.368.223 1.841zm28.1498-43.3339c-.197.0222-.431.0407-.606-.0184-.063-.0259-.1-.366-.082-.377.156-.0998.327-.1664.602-.3142.049.2994.067.5064.086.7096zm-70.4801 54.8879c.1487-.04.3085-.111.4683-.103.1747.007.3457.081.5167.125-.197.03-.394.063-.5427.085-.1895-.048-.3122-.077-.4386-.11z"/><path d="m61.7461 80.9703c.275-.0665.4981-.255.7397-.3955-.2714-.0887-.5948-.133-.7992-.2772-.736-.5212-1.866-.9869-2.0518-1.5857-.3197-1.0349-1.1375-.9203-2.0593-.9129-.5501.0037-1.1374-.0481-1.6392.0702-1.3271.3216-2.5723.2772-3.9179.0333-.6356-.1146-1.7433.0333-2.1336.3252-1.0891.8169-2.4161.8058-3.8509.7652-.9441-.0259-1.8957.0332-2.2154-.706-.1524-.3548-.7174-.377-1.3344-.1774-1.4646.4731-1.4571.4176-2.8139-.1035-.6467-.2514-1.498-.6505-1.6466.2181-.0075.0554-.4052.1589-.5093.133-1.4794-.3437-2.7544.0702-4.0665.2218-1.0742.1294-2.1187.085-2.799-.2292-.7434-.3437-1.7916-.3105-2.4607-.1811-.7137.1405-1.0891.462-1.5352.6875-.0669.0333.2825.2107.4312.2181 1.2415.0369 2.3901.1552 3.4792.4361.145.037.4721 0 .6654-.0332 1.4683-.2662 2.9328-.6506 4.7096-.1257 1.3455-.2994 2.5499.0628 3.8174.2735.8735.1368 1.7322.4177 2.7395.1959.3754-.085 1.0297.1294 1.5389.2439.7434.1664 1.4497.4251 2.208.5545.4906.085 1.3344.1109 1.5202-.0592.9999-.9203 2.1969-.802 3.5908-.3141.2973.1035.7508-.0037 1.13 0 .6096.0074 1.2303-.0074 1.8325.0517 2.0927.207 4.1817.4583 6.635.7503.0223 0 .4275.0111.788-.0776zm-5.0887-1.3195.1003-.1331c.3866-.1663.7583-.3585 1.1709-.499.1004-.0332.3197.1257.487.1959-.0855.085-.1599.2292-.2602.2403-.4572.0443-.9219.048-1.3828.0702l-.1115.1257z"/><path d="m79.0013 77.8659c-.0074.425.0298.8538-.0409 1.2714-.0446.2551-.301.7134-.3754.6986-1.498-.2772-2.338 1.1643-3.8509 1.0276-1.2713-.1035-2.5574.4989-3.8918-.0333-.9999-.3918-1.9887-.2218-2.9328.1811-.4795.207-.9702.4103-1.4906.5249-1.4087.3141-2.5796-.1072-3.0182-1.1865-.3755-.9278-.9219-1.6744-1.9218-2.2177-.1375-.0739-.2342-.3585-.1561-.4473.1004-.1108.4498-.218.6022-.17 1.0631.3475 2.1708.669 3.1298 1.1791.8549.4546 1.524.6173 2.5759.3179 1.3828-.3881 2.747-1.3233 4.375-.621 1.0966-.6394 2.1485-.6062 3.1856.1072.0743.0518.3308-.0148.4275-.0961.9999-.8169 2.2079-.5581 3.3677-.5544l.0185.0185z"/><path d="m78.9821 77.8471c0-.2107.0149-.4251 0-.6358-.0446-.5359-.1041-1.0718-.1598-1.6078.5241.3733 1.2935.6542 1.5277 1.1532.5984 1.2863 1.5389 2.2066 2.773 3.0272.7285.4842.5055 1.1791-.3123 1.5154-1.5054.6173-2.4049.1183-2.4644-1.3897-.0372-.9352.1561-1.9405-1.3419-2.0514l-.0186-.0185z"/><path d="m23.071 78.8262c-.8178-.0295-1.5946-.1404-2.1596-.2439-.5613-.1109-.9107-.2181-.8735-.3142.0074-.0185.3531-.0665.4497-.0628.2714.0148.684.0443.7063.085.1895.34 1.4868.3179 2.6205.3216.3755 0 .7434-.0555 1.1189-.0555.2565 0 .5167.0629.7768.0998-.2007.0407-.3791.1035-.6058.1146-.8178.0407-1.6504.0517-2.0333.0591z"/><path d="m48.2496 100.039c-.0744-.2442-.2416-.4807-.2156-.6877.0223-.1848.2416-.3881.4089-.5175.0446-.037.3754.1516.4014.292.0409.1848-.0855.4103-.1487.621z"/><path d="m68.582 76.1768c.3903-.0813.6765-.207.7583-.1478.1859.1367.2714.3696.394.5618-.1858.0665-.446.2329-.5464.1811-.2156-.1109-.3457-.3289-.6059-.5988z"/><path d="m96.4727 77.0606c-.0781 0-.1562.0111-.2305 0l-1.3047-.2513c.0558-.1331.0706-.3253.171-.3918.7917-.5212 1.0668.0998 1.379.6246l-.0186.0185z"/><path d="m93.0703 99.27-.4646 1.571c-.0446-.041-.1152-.07-.1301-.129-.2044-.7434.1301-1.1389.5687-1.4679l.0223.0259z"/><path d="m16.6248 78.4354c.1487-.0223.2602-.0408.368-.0594.171.0186.3866.0334.4832.0594.0335.0075-.2267.0409-.3791.0409-.1301 0-.2937-.026-.4758-.0409z"/><path d="m93.0449 99.2443.4424-1.5783c.0483.0296.1338.0813.1375.085-.1859.5101-.3717 1.0128-.5539 1.5192l-.0223-.0259z"/><path d="m76.7223 76.1322c-.1338-.1811-.3419-.3585-.3011-.4361.0744-.1405.29-.2846.461-.3031.1152-.0111.249.1959.3717.3068-.1487.122-.3011.2439-.5316.4324z"/><path d="m92.2891 97.415.1486.1041z"/><path d="m59.9263 36.871c.7397-.4435.9665-.5064 2.8771-1.7372.6021-.3844.9404-.6025 1.1597-.7466.2305-.1442.3383-.2033.3345-.1885.0261.0074-.2973.2439-.5612.4398-.8661.6358-1.275.9204-1.2415.9425.0185.0111.1486-.048.3903-.1626.1338-.0628.2787-.1331.446-.2144.0892-.0443.1821-.0887.2862-.1367.0781-.0333.1599-.0703.2491-.1109.4386-.1922.9776-.4362 1.2043-.462.1189-.0148-.197.2624-.5315.4805-.3532.2291-.9628.547-1.472.8242.1301-.1146.2639-.2292.3717-.3363.197-.1922.223-.2625.0223-.1738-.2379.1109-.788.4251-1.6467.9241-1.0705.6246-1.7061.9721-2.4495 1.3491-.539.2698-1.3308.7133-1.9515 1.083-.2305.1367.0111.0258.3717-.1627 1.7507-.9129 1.6281-.7318.6616-.1996-.933.5101-.3828.2699.2788.0555.762-.2551.5464-.0518-.275.3179-.4721.2143-.9851.4176-1.2639.5359-.2564.1109-.5092.2107-.2787.1663.3791-.0739 1.1114-.218 2.0406-.5211 1.0185-.3475.9962-.207.8587-.1294-.3122.1737-.8772.3696-1.301.5101-.3791.1293-.7248.2291-.8884.2957-.1635.0702-.1449.1072.1673.1626.1078.0185.1821.0665.0669.0813-.8698.1035-.9739.1368-.985.2255.0074.0813.104.2181-.0892.2624-.1301.0222-.2119.0481-.2528.0924-.0112.0111-.0186.0222-.026.0333-.0037.0074 0 .0074-.0112.0222l-.0371.0628c-.0447.0813-.0818.17-.1116.2624-.1189.3622-.1226.7799-.0148 1.2493.0409.1922.0074.2551-.1747.3327-.6059.2624-1.695.3807-.394 1.5191.6319.5507.9664.8538-.1859.5544-.1152-.0295-.0706.2033-.0186.3438.0335.0924 1.1449.6468-.0372.1996-.6504-.244-1.0222-.3142-.6096.1035.6059.6172.2565.8279-.5798.595-.9367-.2624-.8029.0333-.9628.1775-.1635.1478-.0074.4546-.223.5655-1.0259.5248-1.353 1.3676-.8884 2.4875.119.2772.0781.5212.2937.8132.4275.595-.0595.8205-.6319.9868-.3383.0998-.6171.1257-.2342.4768.2007.1848.1004.3401.1375.5101l.0186.0111c.762.8871-.1338 1.1976-.591 1.6744-.2119.2069-1.2415.1885.0186.7946.0149.0074-.1375.1516-.3123.1442-.5389-.0222-.6096.0776-.3382.3659.223.2366.2119.462.1858.6616-.0297.2477.3011.4731.881.6912.7546.2809.71 0 .9925-.0517.2304-.0444.2899-.2625.8958.0221.3643.1701.7546.414 1.0668.3068.2156-.0739.3085-.2624.1524-.4361-.3308-.3659-1.3159-.9056.3754-.621.1487.0259.1524-.2218.1376-.3659-.0335-.3955-.29-.839.4943-.9943.7992-.1589.1227-.8094-1.1188-1.4674-.4758-.2513-1.4385-.4657-1.3791-.802.6357.2402 1.2824.4694 1.9069.7207.2751.1109.5092.2957.7732.3807.2862.0961.8326.1996.8475.159.2007-.5766 1.0184-.9389-.0223-1.922-.4535-.4251-.5836-.7541-.1562-.8502.316-.0739 1.1709.1516 1.4274.0629.1896-.0666-.4832-.6395-.2751-.6358.829.0222.2602-.4287-.0223-.7799-.1412-.1737-.565-.4361-.9292-.6283-.1153-.0591-.5093-.037-.684.0074-.617.1552-1.1448.3733-1.8139.5212-.1747.0369-.7063-.1072-1.0891-.2255-.1524-.0481-.4535-.2957-.5056-.4029-.2304-.4805.6989-1.0054 1.7211-.7651 1.0891.2476 1.3678.048 1.1485-.3364-.4163-.7392 1.0854-.4879 1.0594-1.0053 0-.0444.8215.2476 1.2564.3844.0669.1626.2565.3844.1784.4768-.2081.2439-.5575.4177-.8066.6468-.0892.085-.0818.2218-.0297.3622.026.0666.2341.2107.4014.3068.0706.0407.3234.0961.3643.0776.4386-.2106 1.2787-.2661 1.156-.6727-.1933-.6579.0632-1.0608.71-1.2862.0817-.0296-.0075-.207-.1561-.3253-.2417-.1922-.6096-.3955-.8959-.5951-.9478-.669-.9218-.6801-.104-.6172.3196.0221.8437.0295.7545-.0629-.643-.6764.0149-.669.4089-.7762.5241-.1515.8624-.3548.3866-1.0386-.0706-.1035-.0706-.1959-.026-.2661.0557-.0924.1561-.17.2676-.2181.6245-.2883.8029-.876 1.0519-1.3713.2528-.5248.5873-.924 1.7731-1.4378.1784-.0813 0-.2365.0669-.3548.4981-.8686.7174-1.6707 1.5872-2.591.9813-1.0091 1.9032-2.1364 1.6095-2.5873-.0595-.0851.2379-.3844.5985-.706 1.0928-.9204 1.2415-1.3417 1.0407-1.497-.1263-.0961.0335-.34.4498-.7872.1859-.2033.3754-.4066.565-.6099.1747-.1959.3717-.4103.42-.5286.145-.2661.171-.462-.2602-.2994-.617.2366-1.0036.3401-.985.1109.0186-.2254.4424-.7762 1.3791-1.7815l.6913-.7356.1822-.1922.0409-.0443v-.0111-.0222c0-.0259-.0112-.0517-.0223-.0702-.0484-.085-.1747-.1109-.4201-.0407-.4795.1331-1.4682.669-2.996 1.7409-1.3493.9499-2.4347 1.6781-3.4494 2.3545-.4907.3289-.9813.6542-1.4683.9832-.472.3215-.9776.6505-1.3084.9351-1.1263.9019-1.5203.9869-2.1001 1.1125-.1859.037-.4461.1109-.7769.3881-.5018.4214-.658.4325-.7769.207-.1598-.2846-.4981.0555-.8661.7467-.565 1.0571-.7285 1.2382-1.4162 1.5191-.1747.133-.3494.2698-.5353.4324l-.0706.0592-.0706.0332-.1375.074c-.093.0517-.1822.1109-.2677.1774-.1821.1404-.2453.1996-.3419.2772l-.2751.2329-.5464.4657c-.3643.3104-.7286.6135-1.1003.9092-.4349.3659-.8661.7393-1.3196 1.0867-.4274.3364-1.0184.5729-1.2935.9795-.2007.292-.4609.5175-.7025.7614-.2491.2403-.4981.4731-.6691.7762-.1338.2329-.3271.4546-.7063.4731-.2007.0111-.4349.2476-.5538.4399-.1413.2365-.3011.4361-.5093.5766-.197.1515-.4423.2439-.7768.2476-.0818 0-.2082.1774-.1784.2402.078.1516.2341.281.3605.4214-.197-.0222-.4163-.085-.6022-.0628-.1858.0222-.4163.0776-.5055.2033-.3085.4287-.6691.7762-1.3084.8834-.0929.0147-.0892.17-.1413.2513-.1672.2772-.2527.6173-.4832.8353-.3791.3623-.8438.6579-1.327.9462-.3159.1849-.3196.5397-.3754.8908-.026.159-.1784.2403-.3643.3105-.1784.0739-.3866.1368-.5204.2403-.3011.2402-.5204.5433-.7843.8168-.0892.0887-.2788.1146-.3122.2329-.145.5063-.2156 1.0534-.3123 1.5782-.0334.1774-.0297.4066-.2118.4657-.4609.1331-.6282.4547-.8587.7504-.249.3178-.6096.5507-.4683 1.0903.026.0998-.119.1701-.2751.1516-.8735-.1109-.7917.3511-.6468.8538.0707.2439.1153.5064-.0297.632-.4646.4103-1.2081.6764-1.0445 1.4563.052.2514-.3234.3327-.4089.5397-.1487.3955-.6022.6394-.8884.9721-.2973.3252-.4832.7133-.1858 1.3121.0446.0924-.2045.1035-.2602.1811-.1153.1553-.2193.3216-.2825.5027-.0669.1922-.0409.4214-.119.6062-.3531.7577-.5984 1.5635-.2527 2.5503.0892.2477-.1153.5286-.4424.584-1.0222.1737-.9887.7504-.7694 1.3861.3308.8945.4535 1.715.1041 2.4136-.119.2402-.1413.5175-.2156.7762-.0707.2587-.2045.499-.461.6949-.0817.0591-.1077.1885-.0631.2809.2713.5507.1895 1.0164.0185 1.4895-.0855.244.0372.5582-.0594.7947-.1115.2994-.0335.5766.0148.8797.1153.5951.1933 1.1939.1524 1.7705-.0371.5692-.1635 1.131-.2044 1.7002-.0112.122-.0074.2439-.0112.3659 0 .037.0149.0998.0224.0961.0185-.0222.052-.0591.0594-.1035.0744-.425.1784-.8501.2751-1.2752.1264-.5544.2379-1.1162.3754-1.6669.0149-.0592.1078-.0998.1599-.1516.3419-.34.3679-.34-.0112-.6764-.0632-.0554-.1821-.1441-.1673-.1774.1747-.3215.2231-.6764.3123-1.0238.0929-.3475.223-.6801.6467-.9204.1339-.0739.119-.3252.0261-.4768-.2677-.4472-.3569-.8168.446-.9425.1152-.0185.2156-.1922.1524-.2698-.3754-.4546 0-.7023.4795-.8243.4721-.1219.5204-.3252.2751-.5876-.5055-.5471-.3643-.876.3977-1.0091.3494-.0591.3606-.1774-.0223-.4251-.3271-.2106-.9627-.3844-.8995-.6727.0557-.2365.0371-.5729.3531-.6357 1.182-.2366 1.5389-.7429 1.6392-1.4896.0632-.6616.9702-1.0164 1.472-1.5006.1227-.1183.1115-.3068.0669-.4953-.1301-.547-.3345-1.131-.4869-1.7113-.1153-.4325.3903-.4288 1.2266.0037.2379.1219.4684.2587.7026.3881.0446-.1257.1932-.2218.1115-.3881-.0967-.2033-.5799-.5545-.5502-.6875.1041-.4399.3346-.8243.5688-1.2013.0966-.1552.4534-.1441.9292.1811.9851.6653.9405.4251.907.0851-.0372-.4251-.026-.8206-.4349-1.4231-.5278-.7762-.4572-.7651.591-.4953 1.1709.3031 1.1449.2994 1.0445-.3918-.0446-.3104-.078-.6283.0446-.8427.2379-.4103.5576-.7651.8587-1.131.0297-.0407-.0855-.1885-.1673-.2957-.026-.0333-.2156-.1257-.2676-.122-.1599 0-.2937.037-.4424.0555.0223-.122.0075-.2736.0781-.3623.0818-.1108.1673-.303.368-.2328 1.1672.3992.7025-.3622.7248-.7984.0112-.2957-.0297-.6431.1376-.8242.2267-.244.4572-.4732.7211-.6838.2565-.2107.5129-.4251.7322-.669.4647-.5138.8661-1.0867 1.2527-1.6707.1784-.2809.394-.5655-.0929-1.131l-.0744.0074.0744-.0111c.7062 0 .6691-.6025.7062-1.1495.0112-.2255-.0334-.5212.2342-.4953.8029.0739.9999-.5729 1.4125-.998.3531-.3881.6728-.839 1.104-1.1088.4237-.2773.4497-1.0276 1.1002-1.0128.0632 0 .171-.1848.197-.2809.0855-.4029.3978-.5396.7212-.7318.6765-.3992 1.4273-.7023 1.8176-1.4748.0632-.1294.2491-.207.3978-.2809.5538-.2957 1.1337-.5508 1.6838-.8428.4684-.2513.4498-.2772.0558-.7318-.0446-.0517-.0595-.1294-.0893-.1959.067 0 .1562-.0222.2008.0148.3048.255.4386.3289.5575.2255.0261-.0259.0744.0073.0967.0702.1301.4176.052.4103.2639.0148.2342-.4362.3457-.4029.223-.1257-.1041.2661-.3345.5803-.1449.3585.2639-.3068.5389-.5359.8474-.7836.0781-.0591-.1263.1627-.2304.2736-.1561.17-.3085.3289-.5687.5729-.3606.34-.4238.377.9218-.7984.762-.6653.8698-.7392-.0595.0702-.7731.6764-1.2601 1.0867-.6096.536.8698-.7282 1.5426-1.2383 1.6727-1.3085.1227-.0665-.3011.3068-1.7098 1.3861-.2788.2144-.2862.2181-.2454.1885.1896-.1331.3866-.2772.5613-.3992 1.2118-.8612 1.1189-.7651 6.2559-4.2987 1.3679-.9536 2.9105-1.9294 1.9329-1.1716-.4386.3326-.197.2365-.3346.3807-.1375.1441-.6281.5026-2.483 1.6928-.4497.2957-1.156.7614-1.7359 1.1421zm1.9181-1.7187c-.5316.3881-1.1263.8168-1.5761 1.1458-.4683.3327-1.2638.8982-1.5723 1.1162-.171.1072-.3829.244-.0186-.0369.5167-.3955 1.4868-1.1347 2.2228-1.7187.0149-.0111.342-.2477.6505-.4658-1.5017 1.1754-1.2489 1.0091.2899-.0369zm-6.2522 3.4966c-.0186.0147-.0186-.1627-.0372-.244.0818-.1146.1822-.2698.2788-.3548.0446-.037.0706.0628.1078.2107-.197.2143-.2788.3363-.3494.3881zm2.0816 4.0103c.1672.0481.3308.0813.5055.1515.0632.0259.2305.1923.2193.1959-.1041.0074-.2379-.011-.4312-.0258-.1301-.1405-.2118-.2292-.2936-.3216zm-14.1287 5.4038c0-.0665-.026-.1515.0037-.1922.0372-.0407.1227-.037.1896-.0517-.0112.0702-.0223.1441-.0298.1996-.0706.0184-.1152.0332-.1635.0443z"/><path d="m53.4965 63.2766c-.0558-.0924-.2379-.1922-.368-.2883-.0967.0665-.1524.1589-.3011.1996-.539.1404-1.0371.4213-1.6393.3881-1.0407-.0555-.9515.2217-.9775.5137-.0149.1738-.0855.3549.0185.5286.2677.462.2119.8464-.0594 1.2456-.1264.1885 0 .5581.2862.7097.7992.4287.762.8353.6988 1.2788-.0483.292.0149.5914-.7286.6358-.3531.0222-.3791.1996-.1821.4066.4684.4952.4126.4842-.1115.8833-.2528.1886-.6579.4436.2119.5286.0557.0037.1598.1331.1338.1663-.3569.451.0706.8686.2416 1.2826.145.34.1115.6616-.197.8723-.3383.2292-.2899.5618-.1524.7725.1487.2255.4758.34.71.4768.0334.0185.2081-.0887.2155-.1368.0261-.3844.1301-.7392.3978-1.0718.0371-.0444 0-.1442-.0409-.2033-.2825-.4547-.6951-.9241-.1784-1.4563-.2974-.4288.0706-.7873.2862-1.1643.1412-.2624.4274-.5064.2044-.8317-.0855-.1219.1301-.3067.2491-.4546.1672-.2144.4349-.4103.5798-.6283.093-.1405.1338-.3955-.0334-.4658-.907-.3917-.7657-.754-.2528-1.1273.1078-.0813.0075-.2291.0186-.3474.0186-.1848.0112-.377.0818-.5545.2676-.6135.5836-1.2123.9478-1.9072 0-.0074.0223-.1256-.052-.2513zm-1.4683 1.3565-.1301-.0481c-.1561-.1404-.3345-.2846-.4572-.4324-.0297-.037.1338-.0813.2119-.122.0818.037.223.0813.2304.1146.0298.1478.0223.292.0261.4361z"/><path d="m51.2741 57.3438c.4126.1034.8363.1958 1.2378.3178.249.0739.6765.2624.6579.2809-.3605.3955.9999.9795.7806 1.4009-.1859.3585.3606.8723-.223 1.1643-.4312.2217-.3085.5581.0483.9203.1821.1848.3606.3696.4535.5434.2527.4768-.223.7466-1.2973.7022-.9293-.0406-1.6913.0037-2.2637.2366-.0781.0296-.3643.0185-.446-.0222-.1078-.048-.2008-.1774-.1487-.2181.3828-.2809.7285-.5803 1.2861-.7872.4906-.1849.6802-.3623.4312-.743-.3197-.499-1.1784-1.1162-.4089-1.4858-.5836-.4768-.487-.8095.2751-.9721.052-.0111.0037-.1072-.067-.1553-.7359-.4953-.4088-.8205-.3382-1.1791h.0186z"/><path d="m51.2552 57.3474c-.2081-.0517-.4126-.1072-.6207-.1515-.5242-.1109-1.052-.2218-1.5798-.3327.3977-.0813.7211-.2587 1.2229-.2107 1.2898.1257 2.2414.0629 3.1187-.0998.5241-.0924 1.1783.1553 1.4533.4842.513.6062-.0223.743-1.4942.3918-.9144-.218-1.8809-.5285-2.0816-.085h-.0186z"/><path d="m51.132 74.9897c-.0075.255-.0967.499-.1896.6764-.0967.1774-.1933.292-.2937.2846-.0186 0-.078-.1072-.0743-.1367.0074-.0851.026-.2144.0669-.2218.3345-.0739.2788-.4731.2528-.828-.0075-.1182-.0744-.2291-.0855-.3474-.0075-.0813.0483-.1626.0817-.2439.0484.0628.1153.1182.1301.1885.0632.2513.0967.51.1116.6283z"/><path d="m37.6905 62.2492c.0297.1072.1338.2514.0669.3068-.0632.048-.3011.0148-.4907-.0259-.0483-.0111-.2899-.2107-.2862-.2624.0074-.0702.1636-.0813.2565-.1183z"/><path d="m49.0347 60.2968c-.0632-.1405-.1747-.2588-.1078-.2735.145-.0333.3754-.0148.5762-.0185.0594.0739.2081.1885.1524.2107-.119.048-.3383.048-.6208.0813z"/><path d="m51.8267 51.6518c-.0075.0222 0 .0518-.0223.0702l-.3569.329c-.1227-.0591-.3048-.1257-.3568-.1774-.4238-.414.1895-.3068.7211-.2366l.0186.0111z"/><path d="m58.1424 37.9467c.4758-.3364.9664-.6875 1.4682-1.0571.1153-.0776.2268-.1516.342-.2292.4424-.2587-.5501.4362-1.7507 1.2456l-.0632.0407z"/><path d="m50.9087 77.0074c-.026-.0444-.0483-.0776-.0669-.1109.0111-.0554.0223-.122.0446-.1552.0074-.0111.0483.0702.052.1145 0 .0407-.0185.0924-.0297.1516z"/><path d="m58.2056 37.9062c-.446.3142-.8772.6099-1.2935.8908-.119.0776-.342.2181-.3457.2218.4981-.329 1.0296-.6912 1.5761-1.0719z"/><path d="m49.4325 57.6624c-.1859 0-.3717.0296-.4461 0-.1301-.0554-.2602-.1589-.2676-.2181-.0037-.0406.2082-.0369.3234-.0517.1115.0776.2193.1515.3903.2698z"/><path d="m59.9268 36.8711-.3643.2292.3606-.2255z"/><path d="m70.6452 34.1169c.5873.3992.9739.7504 2.0853 1.2124.6431.2735.881.3992.959.462.0595.0555-.0594.0444-.1486.0444-.3011-.0074-.4572.0147-.3234.1478.0669.0665.2007.1589.4237.292.119.0665.2491.1442.4015.2292.078.0443.1635.0887.2527.1404.1078.0555.2231.1146.3457.1774.5501.2736 1.0891.5434 1.6801.8391.2045.1072.0595.1256-.2044.0739-.2713-.0554-.8884-.2513-1.3419-.377.0149-.0518.0558-.0924.0595-.1442.0112-.0961-.0818-.1848-.342-.3141-.2304-.1146-.5687-.2366-1.0928-.3844-.6468-.1812-1.0519-.2846-1.6913-.658-.4646-.2661-1.0779-.6135-1.3381-.5248-.0967.0333.2267.3511.5129.4879 1.3642.6764 1.5203.9055 1.1003 1.083-.4052.1774.1784.5913.8512.9388.3866.2033.5985.3548.6654.4879.0706.1441 0 .2661-.1822.4029-.2081.1515-.446.3252-.4943.547-.0484.1996-.0484.499.2304.6579.4572.2661 1.0073.2144 1.5352-.0222.5798-.2365.8103.0444.7843.1331-.0558.207-.316.4435-.4572.7097-.2639.4583-.3977 1.0682.3866 1.2973.1078.0518.223.1774.1561.2735-.1561.4214-.2862.5729-.3048.7541-.0223.17.0334.2957.1152.4028.1673.2218.4535.3807.4312.6912-.0335.4251.0855.7503.3197 1.0054.2193.2661.5575.462.9776.6246.1747.0666.2007.1257.1524.3068-.1599.6173-.7509 1.4674.9478 1.1089.8289-.1737 1.2676-.2366.3048.4509-.0966.0702.1115.1663.2453.2107.0893.0296 1.2267-.4657.119.1478-.6059.3364-.907.5655-.3308.5101.8512-.0776.7768.3142.0409.7688-.8252.5101-.5204.5803-.5279.7762-.0111.1959.3271.2661.2491.4842-.3643 1.0128-.1004 1.7187.9924 2.1401.2714.1035.4052.2846.7509.3511.71.1331.4498.6136.1004 1.0645-.2082.2735-.4164.451.0966.4731.2676.0111.2825.1811.4126.2772h.0223c1.1449.1922.6208.9426.4721 1.5413-.0669.2736-.9442.7947.4349.584.0186 0-.0372.1848-.1896.2736-.4683.2624-.4758.3659-.0929.4472.3122.0665.4237.2439.5092.4066.1078.2033.4944.2217 1.1077.1109.7918-.1442.6133-.3512.8289-.5397.1747-.1515.1004-.3622.7732-.4398.4051-.0481.8661-.037 1.0705-.292.1413-.1774.1115-.3918-.1189-.4584-.4833-.1404-1.6021-.048-.0372-.7429.1375-.0628 0-.2772-.0892-.3918-.2528-.3252-.6988-.5433-.1673-1.1421.5353-.6136-.4275-.7577-1.8102-.5101-.5278.0961-1.4237.5101-1.5835.2292.6468-.207 1.2973-.4251 1.944-.6136.2863-.085.5836-.0813.8438-.1737.2862-.1035.7769-.3585.7583-.4029-.2156-.5988.1859-1.4747-1.275-1.545-.6319-.0258-.9552-.1774-.7173-.5396.1784-.2698.9515-.6949 1.0705-.9462.0855-.1885-.7992-.1479-.6468-.292.6022-.5803-.1152-.5212-.5687-.5692-.223-.0222-.7137.0924-1.1003.2254-.1264.0407-.3791.3401-.4683.4916-.3271.5471-.565 1.0645-.9516 1.6116-.1004.1404-.5873.3991-.9516.5729-.1412.0665-.5315.1034-.6393.0702-.487-.1516-.1338-1.0941.7397-1.6485.9441-.5914.9887-.9314.5501-1.0165-.8289-.1663.3643-1.094-.0409-1.4156-.0334-.0259.7249-.4583 1.1114-.706.1673.0555.4609.0629.4758.1812.0483.3252-.0483.7059-.0372 1.0423.0038.1219.1153.2107.2565.2698.0669.0296.316-.0259.5056-.0813.078-.0222.2899-.17.301-.2107.1301-.4694.6319-1.1532.2379-1.3528-.6393-.3179-.7657-.7947-.565-1.4674.0261-.0887-.171-.133-.3605-.0924-.3048.0665-.6914.2329-1.0297.3327-1.1188.3326-1.1039.3141-.5687-.2994.2119-.2403.5204-.6616.394-.6468-.933.1071-.5389-.4177-.4051-.8169.1821-.5323.1784-.9462-.6691-.9314-.2565.0074-.3197-.207-.2639-.4029.1524-.5434-.1822-.8538-.4238-1.2087-.1226-.1774-.2193-.3622-.2304-.5987 0-.0592 0-.1183.0074-.1849 0-.0776.0409-.1108.0892-.1478.0892-.0887.1822-.2033.342-.3142.0929-.0665-.1524-.0185-.1784-.0591-.0855-.1294-.2231-.2477-.3309-.3844-.104-.1331-.1747-.2809-.0817-.3992.1078-.1331.2156-.2218.1747-.3216-.0372-.1035-.2156-.2254-.7323-.4953-.2082-.1108-.0966-.133.1227-.085.6951.1516.4906.0296-.2045-.4029-.4274-.2661-.5166-.377-.3159-.3252.3531.0776.9292.3844-.171-.377-.5762-.4029-.6468-.5175-.4312-.4362.1078.0407.2899.1294.5204.2588.2007.1108.4423.2513.7062.4139.4498.2809.8624.5545 1.0817.7023l.6208.4694.1338.0924c.052.0296.0223 0-.0892-.1146-.1784-.1811-.2268-.2698-.2453-.3363-.0149-.0629 0-.1072.0037-.1774.0223-.1109.3903.1959.6542.5211.0929.1109.171.2218.1747.1811.0111-.0591.0892.0481.1821.3253.1115.3511.0818.2513.0483-.1035-.052-.5359.0707-.5285.2379-.3105.1078.1405.1487.3253.2305.3623.8029.3991 1.6504.7614 2.4235 1.2345.2342.1367.4684.2809.6951.4287.2231.1553.4424.3179.6617.4805.42.3142.7731.7947 1.2118.9647.6467.2366 1.0668.7873 1.6801 1.0534.2416.0998.4758.2588.5278.6247.0298.1885.2714.3918.4684.4879.4758.2366.8326.547.8252 1.1939 0 .0813.1635.2032.223.17.1487-.0776.2825-.2329.4237-.3585-.0297.1959-.1003.4102-.0892.5913.0112.1812.0521.4029.1673.4916.4052.292.71.6653.7397 1.2715 0 .0887.1561.0924.2305.1479.2416.1774.5575.2957.7174.547.2713.414.4609.8945.6282 1.3787.0966.3289.4274.3881.7508.5063.2937.1035.1598.6321.2676.9278.1153.3363.316.6172.4721.924.0521.1035.0074.2772.1041.3401.42.255.8661.4953 1.3121.7503.1487.085.368.1589.3346.3437-.0781.451.104.7245.2527 1.0387.1524.3437.1859.7281.7174.839.1004.0222.0855.1737-.0111.2957-.539.6727-.119.791.3903.9019.2416.0554.4795.1478.4943.3289.0558.5914-.1858 1.29.5316 1.5746.223.0961.052.4287.1598.6025.2008.3326.1264.7872.1524 1.1901.0186.4103.1524.7614.7806.9315.0967.0258-.0706.2033-.0557.292.0297.1737.0669.3474.1412.5063.0818.1664.2524.2994.3194.4694.29.7134.521 1.4268 1.394 1.9479.22.1294.227.4621-.015.6875-.743.7023-.383 1.0756.145 1.4637.707.5286 1.231 1.1643 1.234 1.9072.012.5064.387.9832.03 1.5265-.056.0814-.037.2033.041.2699.442.3807.532.8316.535 1.3084 0 .2477.208.4916.194.7355-.015.3031.148.536.289.8021.276.5212.447 1.0793.532 1.6411.086.5544.033 1.12.093 1.6818.011.1183.033.2402.052.3585.007.037.033.0961.037.0887.015-.0222.041-.0628.041-.1072 0-.425.034-.8538.06-1.2862.04-.5656.011-1.1311.04-1.7003 0-.0591.082-.122.123-.1848.268-.4177.29-.4324-.178-.6505-.078-.037-.22-.0887-.216-.122.063-.3511 0-.706-.026-1.0608-.015-.3548-.022-.7097.294-1.0867.096-.1182-.004-.3511-.145-.462-.413-.3216-.606-.6136.041-1.0571.096-.0665.104-.2698.011-.3142-.547-.255-.324-.6357.044-.9721.365-.3363.294-.547-.048-.6653-.714-.2439-.747-.5877-.16-1.1162.272-.244.22-.3585-.234-.3659-.398-.0037-1.022.1959-1.137-.074-.093-.2217-.301-.4842-.082-.7133.836-.8723.773-1.5339.39-2.2029-.334-.5803.026-1.4379.045-2.1882.003-.1774-.145-.3215-.32-.4287-.502-.3142-1.07-.584-1.591-.8686-.386-.2107-.063-.584.807-.9389.249-.0998.505-.1848.754-.2772-.078-.1256-.07-.3104-.256-.3622-.231-.0628-.814.085-.903-.0259-.294-.3733-.472-.8094-.662-1.2382-.074-.1774.134-.4694.676-.6727 1.119-.4103.881-.5359.569-.7318-.39-.2514-.714-.5249-1.476-.5064-.97.0259-.914-.0111-.174-.8058.825-.8907.806-.8907.104-1.1754-.312-.1293-.628-.2661-.777-.4952-.283-.4399-.4795-.9352-.7583-1.3787-.0297-.0444-.2193 0-.3494.0333-.0409.011-.197.1552-.2119.2032-.052.1553-.0669.2957-.0966.4399-.1115-.0739-.2639-.122-.3271-.2255-.0781-.1256-.2379-.2809-.1004-.4472.7843-.9684-.1375-.8317-.5613-1.0091-.2899-.1182-.6393-.2033-.7694-.4324-.3494-.6062-.6319-1.2641-1.0371-1.8407-.4535-.5914-.9813-1.1237-1.5277-1.6337-.2639-.2366-.5576-.4842-1.1746-.0555.0446-.7059-.5836-.7392-1.1412-.7946-.2304-.0222-.5278.011-.4981-.2588.0855-.8094-.5612-1.0534-1.037-1.4304-.4238-.3363-.9144-.6246-1.2453-1.0201-.1672-.2033-.4423-.2846-.6802-.3992-.2379-.1183-.4423-.2625-.4944-.584-.0111-.0592-.2118-.1479-.3159-.1516-.4275-.0037-.6282-.2772-.8921-.5544-.2825-.2809-.5539-.5803-.8587-.839-.3048-.2588-.6467-.4731-1.0854-.5434-.1412-.0258-.2787-.1774-.4051-.2883-.2416-.2069-.4758-.4287-.7174-.6394-.2416-.207-.487-.414-.7397-.6136-.4312-.3363-.4461-.3104-.6951.2403-.0298.0628-.093.1072-.1413.1626-.026-.0628-.0855-.1367-.0706-.1922.0446-.1922.0706-.3474-.0558-.5174-.1078-.1627-.301-.3179-.5538-.4473-.1004-.0517-.2379-.1885-.3011-.2994-.2081-.3696-.5204-.669-.8177-.8686-.1487-.0998-.2974-.1737-.4312-.2217-.0669-.0222-.1301-.0407-.1896-.0481-.0632-.0111-.1598-.048-.2267-.0591-.316-.0629-.5688-.1737-.881-.3955-.3085-.2181-.6728-.5397-1.1412-.9684-.472-.4288-.985-.8871-1.4794-1.29-.1226-.0961-.2416-.1922-.3642-.2883-.1264-.0813-.2565-.1552-.3792-.2254-.2453-.1331-.472-.2403-.6653-.2994-.4981-.1553-.9813-.3253-1.4609-.5027-.5018-.1922-1.0073-.3881-1.5128-.5803-.2676-.1035-1.0445-.6542-1.6504-1.0423-.9888-.6321-1.9849-1.2678-2.9551-1.8888-.7769-.5064-1.3828-.8686-1.5352-.8871-.0371-.0037-.0483.0111-.0223.0555.0112.0222.0335.048.0632.0813.0186.0222.0223.0296.0595.0628l.1152.1109c.3197.3031.762.6949 1.3493 1.1939.4387.3696.736.632.881.7725.3122.2883-.0223.0702-1.0965-.7245-1.3456-.9979-2.0593-1.46-1.0334-.5063 1.3419 1.2419 2.0518 1.9441 2.063 2.1437.0074.0518-.0409.0703-.1152.0592-.0707-.0111-.1822-.0555-.3346-.122-.3048-.1368-.7731-.3844-1.3902-.7208-.2453-.133-.1896-.0258-.1115.0777.1821.2476.2639.4398.6802.8205.2528.2292.394.3807.6319.621.2194.2217.4461.4435.7323.6875.5724.4916 1.3865 1.0755 2.877 1.9441.7732.4584 1.892 1.1828 1.5501 1.1052-.3085-.048 1.2415.9832-1.0929-.2181-.3419-.1774-.6542-.2846-.9776-.4213zm-.078-1.2714c-.3197-.1811-.6171-.3327-.9665-.5434-.3234-.1959-.9776-.6209-1.011-.6616-.0372-.0443-.1004-.1146-.119-.1478-.0148-.0296-.0297-.0592-.0297-.0814 0-.0443.0409-.0554.1896.0111.4237.1848 1.2675.6727 2.0481 1.1348.0111.0074.2416.1774.4572.3363-.7657-.4583-1.0928-.6136-1.1486-.5877-.026.0111.0149.0666.1041.1553.0446.0443.1041.0924.171.1515l.1152.0961c.0595.0481.1227.0924.1859.1405zm10.2666 3.7553c.0558.0295.1338.255.1933.3844-.1375-.0148-.2528.0148-.3792-.0333-.0297-.0111-.0706-.0628-.1412-.1515-.0743-.0924-.1524-.2107-.3345-.4103.0446.0148.0892.0296.1301.0443.0334.0074.0632.0148.0929.0222.0595.0148.1152.0296.1635.0407.1004.0295.1859.0591.2751.1072zm-2.4905 8.5012c.1376-.1109.2602-.2218.4164-.3253.0557-.037.2899-.0776.2825-.0665-.0558.0887-.1487.1885-.2714.3363-.1896.0259-.3085.0444-.4275.0592zm14.8536 2.3359c-.0632-.0073-.1561.0074-.1859-.0295-.0334-.0407-.0186-.1257-.026-.1922.0706.0185.1375.0406.1896.0554.0074.0702.0148.1183.0223.1663z"/><path d="m87.536 64.0447c-.0855-.0739-.2862-.1072-.4386-.159-.0707.0998-.093.207-.2231.292-.4683.3142-.8549.7319-1.4385.8871-1.0073.2625-.84.4842-.7731.754.0408.1627.026.3438.1784.4732.4014.3474.4126.7281.2416 1.1605-.0818.2033.1227.5138.4349.5988.8735.2329.9293.6395.9627 1.0793.0186.2883.1078.5766-.617.7392-.3494.0777-.3494.2477-.1264.4177.5278.4029.4721.4103.0037.8575-.2267.2144-.5947.4916.2788.4842.0558 0 .1747.1146.1524.1442-.2788.4694.1598.8316.342 1.2308.1561.3253.1375.6468-.1599.8649-.3271.2366-.2676.5507-.1226.754.1598.2144.4906.3253.7285.462.0335.0185.2045-.0887.2082-.1367.0074-.3844.1003-.7429.3531-1.0867.0335-.048-.0074-.1478-.0483-.207-.3011-.4509-.7286-.8797-.2416-1.4563-.3531-.3992-.0335-.7873.1301-1.1975.1041-.2809.3531-.5692.0892-.8649-.1004-.1109.0892-.329.1858-.499.1376-.2477.3755-.4916.461-.7429.0594-.1627.0408-.4288-.1376-.4658-.9739-.2106-.9181-.584-.5055-1.0792.0892-.1035-.0446-.2329-.0595-.3512-.026-.1885-.0743-.377-.0446-.5729.0967-.6764.1822-1.3528.316-2.1622 0-.0074-.0186-.1331-.1301-.2292zm-.9702 1.7704-.1375-.011c-.1933-.0924-.4089-.1738-.5725-.2773-.0408-.0258.1041-.1145.1636-.1774.0892.0111.2379.0111.2565.0407.0743.1293.1115.2698.1598.4066l.1301.0147z"/><path d="m83.1043 59.5619c.4126-.1035.8289-.2218 1.2415-.3031.2528-.0517.7212-.0887.7137-.0628-.1301.5063 1.353.4139 1.3605.9055 0 .4066.6951.669.2825 1.1902-.3048.3881-.0595.6505.4126.8575.2416.1072.4832.2181.6393.3548.4312.3734.0892.8206-.9478 1.1496-.8921.2809-1.5984.5766-2.0705.9683-.0632.0518-.3382.1294-.4311.122-.119-.0111-.2454-.0961-.2045-.1478.2751-.3733.5241-.7577.9627-1.1384.3829-.3401.487-.573.1078-.8243-.4906-.3363-1.5165-.5322-.9553-1.1606-.7174-.1811-.7545-.4916-.1524-.9573.0409-.0333-.0446-.0924-.1338-.1035-.8884-.0998-.7434-.5027-.8475-.8353l.0149-.0111z"/><path d="m83.0889 59.5688c-.2044.0518-.4163.0998-.617.159-.5167.1478-1.0333.2957-1.55.4435.3196-.2365.5241-.5248.9887-.717 1.1969-.4953 2.0035-1.0054 2.6875-1.5894.4014-.3437 1.0965-.4694 1.498-.3105.7397.292.3419.6986-1.1189 1.0978-.9069.2513-1.8994.4509-1.8734.9055z"/><path d="m86.9715 76.2016c-.0223.2514-.1227.4916-.2267.6616-.1041.1701-.2082.2772-.3086.2625-.0185 0-.0706-.1109-.0669-.1405.0112-.0813.0372-.207.0781-.2144.3382-.0517.3048-.4546.2936-.802 0-.1146-.0631-.2292-.0669-.3438 0-.0776.0595-.1589.093-.2402.0446.0628.1078.1182.1226.1885.0483.2513.0706.51.0781.6283z"/><path d="m103.839 59.2988c.101.0592.283.0924.279.1848-.004.085-.193.2403-.349.3512-.041.0295-.357.0554-.394.0148-.049-.0592.048-.1848.085-.281z"/><path d="m82.3052 62.9179c-.1115-.0924-.2565-.1479-.2044-.1848.1226-.0813.3419-.1516.5241-.2292.0817.0407.2639.0813.223.1183-.0929.085-.2974.1663-.5427.2957z"/><path d="m80.5811 54.8818c.0075.0222.0298.0407.0223.0629l-.0892.4361c-.1338.0259-.3197.085-.394.0776-.5873-.048-.0297-.3178.4349-.5766h.0223z"/><path d="m69.1016 32.9233c.1672-.0222.3345-.037.5055-.0444.078.0554.2007.1257.2342.1589.4497.3955-.0409.1959-.6951-.0813l-.0446-.0295z"/><path d="m86.6433 78.1795c-.0261-.0481-.0446-.0813-.0632-.1146.0148-.0518.0297-.1183.052-.1479.0075-.011.0446.0703.0446.1183 0 .0407-.0223.0887-.0372.1442z"/><path d="m69.1435 32.9526c-.1487.0334-.2937.0743-.4423.1264-.0818-.0484-.2305-.1376-.2305-.1413.2007-.0186.4163-.0186.6282-.0149z"/><path d="m81.6169 60.6293c-.1673.0813-.3197.1811-.3977.1885-.1413.0111-.3048-.0111-.3346-.0554-.0223-.0296.1673-.1146.2639-.1774.1339.011.2639.0258.4684.0443z"/><path d="m70.6453 34.1174-.2527-.1486z"/><path d="m83.7706 186.152c.1561.64.0371 1.652.8884 1.409.9738-.285.5427.38.2118.927-.5538.943-.9069 1.586-.9887 2.048-.0929.462.0706.824.4646 1.179.0892.078.1896.133.2937.181l.1264.059c.1003-.022.2341-.066.3419-.096.2268-.066.4349-.125.6282-.17.3123-.074.6208.081.7026.266.0743.196-.1562.555-.2156.843-.3048-.074-.5873-.159-.8847-.218-.539-.115-.9181-.129-1.2564-.03-.3271.1-.6059.307-.7694.68-.2007.459-.2677.762-1.5426.976-.0558.008-.1301.026-.1747.026-.0483 0-.0967.004-.1413.008-.0966.007-.1933.014-.2899.029-.1561-.151-.3829-.148-.7918.54.0224.048.0744.103.1487.159.3011.159 1.6913.203 2.1039.077 2.0407-.606 3.1521-.499 4.7653.148.197.078.394.144.5948.203.1226.048.2453.085.3642.115.2417.055.4758.078.71.067.4646-.015.9181-.145 1.3605-.296 1.0184-.355 1.8994-.203 2.7729.355.4981.318.9925.676 1.5575.902.5241.207 1.2378.447 1.6987.336.762-.178.9218-.68.4126-1.327-.5539-.702.4572-.647.7434-.543.6579.232 1.2118.65 1.8177.99 1.0857.603 2.1747 1.172 3.5537.747.23-.07.665-.111.784-.011 1.829 1.548 4.241.787 6.263 1.334.688.189 1.365.333 2.041.436.673.104 1.338.167 2.048.192 1.402.052 2.888-.07 4.394-.462.628-.17.914-.196 1.591-.173 1.133.037 2.501-.015 3.728-.57 1.223-.535 2.189-1.596 2.264-2.912.022-.647.018-1.113.167-1.464.078-.174.216-.307.413-.421.193-.115.464-.207.843-.285.168-.029.391-.843.461-1.286.045-.311-1.085-.824.246-.787.36.003.661-.063.836-.255.089-.096.145-.226.164-.392.011-.163-.023-.366-.105-.603-.483-1.389-.092-2.609.818-3.027.513-.229.721-.558.825-.928.101-.362.086-.761.153-1.127.13-.739-.108-1.589.063-2.232.818-3.105.937-6.195.182-9.315-.186-.776-.212-1.622-.498-2.343-.58-1.471-.13-2.842.39-4.058.313-.729.577-1.12.123-1.878-.238-.396-.175-1.035-.245-1.564l-.019-.022c-.933-2.158-.149-4.236.234-6.32.175-.928 1.197-1.885-.16-2.691-.018-.011.112-.654.287-.802.539-.455.591-.847.271-1.582-.26-.599-.29-1.386-.301-2.092-.015-.887-.379-1.36-.993-1.582-.795-.292-.702.662-.973 1.116-.223.377-.242 1.209-.893.787-.39-.255-.817-.761-1.107-.055-.201.488-.26 1.271-.078 1.741.39.998 1.461 1.9-.268 2.657-.152.067-.115.973-.078 1.479.104 1.404.424 2.706-.305 4.173-.754 1.504.052 3.101 1.416 3.944.521.321 1.517-.052 1.532 1.175-.677-.081-1.361-.122-2.03-.259-.297-.059-.565-.439-.84-.432-.301.007-.862.292-.866.469-.074 2.322-.818 4.754.457 6.901.551.92.762 1.885.372 2.809-.286.684-1.178 1.065-1.405 1.748-.167.507.636 1.597.431 1.878-.814 1.105-.152 1.907.223 2.724.186.403.673.71 1.078.836.13.04.502-.61.654-.998.554-1.412 1.015-2.88 1.625-4.258.16-.359.713-.577 1.119-.673.159-.037.52.392.598.68.353 1.283-.42 4.206-1.461 4.831-1.119.676-1.316 1.763-1.011 2.761.294.957.03 1.793-.327 2.576-.349.791-.788 1.516-.877 2.392-.019.147-.929.236-1.427.31-.012-.447-.16-.92-.053-1.312.305-1.046.677-2.122.889-3.249.082-.41.033-.869-.048-1.279-.045-.196-.287-.377-.476-.469-.078-.041-.338.133-.372.258-.364 1.361-1.227 2.702-1.126 3.811.078.909-.03 1.745-.301 2.477-.279.72-.729 1.327-1.294 1.737-.074.052-.119.17-.145.295-.03.119-.033.256 0 .355.108.337.394.669.513 1.02.398 1.198.219 1.372-1.059 1.298-.246-.015-.599-.063-.874-.082-.29-.033-.505-.025-.55.045-.308.584-.825.772-1.323.795-.517 0-1.022-.156-1.52-.289-1.32-.34-2.51-.606-3.97 0-.439.185-1.238.052-1.759-.148-2.891-1.083-6.382-.136-9.066-1.933-.2-.133-.709.056-1.07.022-2.5388-.221-5.1371-.258-7.5941-.757-1.3939-.281-2.7729-.536-4.1557-.684-.3457-.037-.6914-.067-1.0408-.092l-.5204-.03-.2602-.011h-.1301c-.0371-.004-.0371 0-.0594 0-.2602.015-.5502.059-.9442.144-.3308.078-.6096-.041-.6691-.188l-.0297-.06c.026-.044.0669-.096.1004-.14.2639-.418.3903-.669.4423-.92.0223-.126.0372-.248.0186-.389-.0037-.033-.0037-.07-.0037-.11v-.06c0-.018-.0038-.029.0037-.092.0223-.203.0409-.41.052-.621.0818-1.131.2825-2.096.6133-3.212.5873-1.999 1.104-4.162.8029-6.394-.2118-1.579-.368-3.135-.5501-4.694-.1821-1.575-.4163-3.146-.7434-4.709-.3085-1.457-.7546-2.924-1.4571-4.303-.7063-1.371-1.6764-2.653-2.9142-3.666-1.104-.895-2.2637-1.726-3.5387-2.351-1.2675-.628-2.6057-1.09-3.9773-1.32-2.0927-.31-3.8881-.406-5.7838-.266-.316.023-.6579.048-.985.126-.3309.07-.658.137-.9405.251-.4311.181-.7731.303-1.0891.374-.3048.092-.5836.133-.8884.144-.3903.007-.669.103-.8809.244-.2156.14-.3643.332-.4869.576-.3606.78-.8698 1.087-2.2192 1.982-.42.292-.8549.572-1.2452.905-.197.163-.4051.318-.5873.499-.1821.181-.3605.366-.5315.558-2.4459 2.828-3.7766 6.354-4.323 9.891-.342 2.129-.3569 4.295-.1747 6.428.1152 1.02.2119 2.099.4274 3.127.1971 1.031.4535 1.977.736 2.79.8289 2.344 1.2861 4.842 1.3754 7.112.0371.876-.1487 1.918-.7992 2.65-.0929.092-.1561.236-.2825.366-.1152.137-.2342.292-.3494.458-.1301.155-.2825.3-.4126.458-.1264.163-.2714.289-.3978.411-.6058.595-1.3864.972-2.1968 1.138-.8103.17-1.6503.133-2.457-.085-.2007-.048-.933-.033-1.0147.026-.197.152-.1561.359-.2082.543-.4312-.181-.788-.406-1.2861-.573-.5055-.17-1.1783-.377-1.7433-.425-1.9032-.159-3.7246-.395-5.4939-1.001-.2565-.089-.6802-.03-1.0296-.056-1.1486-.077-2.3083-.074-3.4458-.247-1.8808-.289-3.7542-.684-5.6128-1.094-1.2155-.274-2.2414-.174-3.3863-.126-1.0296.044-2.2823-.543-3.4569-.78-1.3195-.262-2.6614-.425-3.9921-.639-.4424-.071-.8921-.267-1.3159-.274-.4498-.004-.8958-.007-1.3419-.011-.1375-.007-.1635.015-.2193.026l-.1635.041-.3569.073c-.2453.041-.5055.056-.7991.082l-.1078.007c-.0409.008-.0335-.037-.0521-.055l-.0743-.148-.1561-.322c-.0744-.151-.1747-.318-.2454-.506-.0185-.044-.0334-.092-.0483-.141-.0149-.048-.026-.085-.0409-.166-.026-.148-.0371-.288-.0334-.425.0632-1.345-.2454-2.591-.4349-3.918-.2045-1.427-.2639-2.805-.9033-4.106-.1226-.244-.1189-.74-.0149-.983.5911-1.364.1116-2.529-.4683-3.767-.2751-.595-.5427-1.308-.5724-1.959-.0707-2.125.2267-4.217-.5576-6.342-.249-.684-.026-1.59-.1338-2.377-.1859-1.49-.0818-2.998-.0706-4.498.0334-1.505-.0632-2.994-.684-4.465-.0966-.226.0967-.643.0967-.976 0-.677.0037-1.36-.0484-2.037-.052-.713-.2007-1.423-.2379-2.14-.0408-.743-.0817-1.486-.1189-2.225-.026-.739-.0632-1.478-.1227-2.214-.1115-1.471-.3308-2.931-.6691-4.384-.1635-.728-.0594-1.94.2305-2.513.4609-.902.6282-1.807.6356-2.735.0075-.928-.104-1.874-.2825-2.854-.2379-1.341-.4349-2.713-.5129-4.091-.0595-1.379-.0298-2.769.1189-4.158.171-1.908.1115-3.959.6988-5.733.0892-.27.1301-.747.0892-1.042-.1263-.873-.1263-1.738-.0743-2.61s.1598-1.756.2937-2.654c.1338-.92.0557-1.97.2341-2.872.2008-1.127.1933-2.081.2305-3.153.0409-2.092.2751-4.224.5687-6.339.145-1.042.316-2.084.5278-3.123.2008-1.038.3978-2.0807.5799-3.1231.0781-.4398.145-.8944.2119-1.3343.0186-.133.0371-.3659.0297-.3437-.0297.0776-.0855.2217-.1189.3844-.316 1.5745-.658 3.1417-.9962 4.7277-.4349 2.066-.7769 4.162-1.1895 6.239-.0446.222-.1598.406-.2416.624-.4981 1.416-.5241 1.442-.2193 2.481.0483.17.1524.436.1264.558-.2677 1.26-.4498 2.598-.6096 3.921-.1636 1.324-.3643 2.621-.8624 3.8-.1524.366-.19328 1.283-.11894 1.77.23794 1.453.28254 2.684-.53898 3.815-.11895.166-.23046.898-.16355 1.127.36055 1.338.02602 2.562-.46092 3.475-.47208.905-.50925 1.711-.24162 2.428.53527 1.49.47208 2.787-.26763 4.125-.33825.614-.33454 1.068.08921 1.519.368.392 1.02964.277 1.03336 1.371-.00744.899.14125 2.055-.14497 2.662-.52039 1.134-.8252 2.291-.98131 3.511-.15612 1.22-.10408 2.499-.00372 3.892.10408 1.212-.02602 2.462-.14125 3.718-.12266 1.261-.29737 2.532-.37171 3.796-.03345.607.07434 1.272.23046 1.856.46835 1.711 1.00733 3.378 1.50542 5.067.17843.629.18214 1.154.02231 1.519-.16356.366-.49438.577-.96645.573-.27135 0-.54641-.062-.81776-.099.07062.521.04461 1.119.23418 1.545.23417.524.86236.85.94414 1.352.14125.836.23789 1.682.33826 2.529.10779.846.20072 1.696.28993 2.546.07434.699-.17099 1.342-.76944 1.194-1.23036-.31-.98503.429-.66164 1.515.40516 1.379.79174 2.739 1.6318 3.87 1.08542 1.446 1.02962 1.512.18214 2.85-.92556 1.501-.88839 1.493-.07806 3.526.36054.91.73224 1.856.91074 2.817.1895.916.3605 1.833.5129 2.757l.119.691.1709.935c.1524.802.2974 1.63.4833 2.418.0743.336.3234.617.4906.757.0521.045.1822-.314.1784-.524-.0111-.662-.0743-1.298-.0892-1.926.1822.65.4238 1.212.5576 1.852.0112.048.0223.099.0335.147.0111.019 0 .063.0297.067l.078.015c.1041.018.2156.037.3234.059.2193.041.4424.081.6468.129.4126.093.7546.2.8698.326.6728.676 2.26.953 2.7061.916.7025 0 1.4385-.177 2.1559-.214.9664-.048 1.9812-.163 2.9142-.022 2.5016.373 4.9623.876 7.4713 1.205 2.6578.351 5.3378.613 8.0178.861 1.2676.118 2.6429.236 3.1001-.455l-.2007-.074.2081.07c1.7136.718 3.3937.481 5.0218.326.6654-.07 1.3865-.218 1.9998.052.9293.402 2.0333.554 3.2116.502 1.1783-.066 2.4347-.329 3.6056-.876.2639-.107.5092-.262.762-.403.2416-.155.4832-.321.71-.502.4609-.363.8363-.806 1.2043-1.242.7137-.917 1.1337-1.989 1.4013-2.998.1524-.517.1673-1.046.1859-1.571-.026-.517-.0595-1.031-.1375-1.523-.0521-.499-.1524-.975-.1933-1.456-.0669-.469-.0818-.95-.0744-1.415.0112-.182-.2118-.95-.3531-1.235-.5427-1.157-.7806-2.362-1.0705-3.715-.6022-2.79-.6319-5.61-.7063-8.457-.0037-.469.1301-1.171.2677-1.744.4832-2.199 1.3679-4.277 2.5759-6.114.2416-.402.4721-.665.6096-.887.1413-.218.2268-.362.2602-.462.0669-.203-.0966-.255-.4126-.34-.0706-.018-.0595-.148-.0855-.229.1561-.133.3829-.362.4609-.373.264-.045.5836-.167.9293-.407.3383-.251.7657-.565 1.2452-1.016.2082-.17.5465-.37.7323-.429 1.2229-.366 2.4942-1.076 3.5201-1.722 1.1337-.721 2.1819-.891 3.3826-.806 1.2155.085 2.364.314 3.6725.488l.643.096.6319.162.3197.082.3085.118.6208.233.5984.296.3011.147c.0966.056.1896.119.2862.174l.5762.351.5464.403c.3643.244.5947.71.8698 1.061.1858.292.3717.584.5575.876.1636.307.316.617.4573.917.1672.447.3494.809.565 1.094.2081.288.4832.469.866.532.4201.078.6171.421.3309.828-.2305.34-.3383.71.1858 1.253 1.3047 1.471 2.0333 3.504.9776 5.448-.1078.196-.0892.591-.0743.883.0371.721-.0112 1.497.1189 2.163.1524.791.1561 1.73.2862 2.535.1524.802.4424 1.482 1.301 1.745.4424.129.9144 1.002.4498 1.855-.4126.762-.0483 2.699-1.4422 2.225-.2045-.07-.4944.163-.7472.255zm2.0704-7.451c-.2082.122-.4237.321-.6282.336-.1933.011-.539-.151-.539-.266.0112-.273 0-.577.0223-.861.0186-.285.0669-.558.1487-.78.119-.311.2788-.591.4535-.861.1598-.27.3345-.533.4869-.813.0038-.008.1227.155.2342.295-.6096.939-.5984 1.893-.1784 2.95zm-20.7749-17.505c-.1375.081-.3791.037-.5761.052.3717-.267.7025-.592 1.13-.814.1004-.055.223-.088.4163-.129.1896-.041.4461-.096.8178-.148-.4684.215-.7843.444-1.0668.599s-.4944.31-.7212.44zm53.2699 35.524c-.153-.163-.338-.315-.424-.496-.03-.062.227-.303.253-.295.208.077.398.196.706.343-.23.207-.383.329-.535.448zm-80.5162.547c.1859-.022.3792-.074.5613-.052.2007.026.394.118.5873.181-.2305.011-.4609.019-.6393.026-.2194-.067-.3643-.115-.5093-.159z"/><path d="m127.71 122.356c.059.321.249.577.379.861.096-.31.148-.687.297-.92.539-.847 1.03-2.144 1.639-2.351 1.049-.355.948-1.301.963-2.369.007-.636.074-1.316-.037-1.9-.294-1.538-.223-2.975.052-4.532.13-.731.004-2.018-.283-2.472-.799-1.272-.758-2.806-.687-4.465.048-1.091.007-2.196.758-2.551.357-.17.394-.828.204-1.541-.442-1.7002-.39-1.6928.164-3.2563.067-.1848.141-.3881.204-.5877.034-.0998.06-.1996.082-.2957.011-.0369.023-.1145.03-.1885.007-.0702.015-.1404.019-.2106.033-.5545-.075-.9758-.513-.8908-.056 0-.157-.4916-.131-.6469.023-.1441.045-.2846.064-.425l.007-.0518c0-.0184.008-.0369-.015-.0332l-.085-.0185-.175-.037c-.234-.0443-.479-.085-.728-.1145-.491-.0666-1.038-.0555-1.525-.0518-.133 0-.215.0074-.315.0148l-.29.0185c-.194.0148-.383.0295-.577.0443-.382.0296-.765.0629-1.148.0776-1.257.0555-2.468-.0628-3.238-.425-.844-.3955-2.063-.4362-2.847-.3548-.836.0924-1.29.3844-1.821.5803-.078.0258.316.2328.49.2476 1.439.1257 2.77.3216 4.015.6764.167.048.546.037.773.0148.859-.085 1.721-.1922 2.62-.2033.45-.0037.911.0148 1.383.0739.238.0296.48.0702.725.1257.216.048.398.0998.569.1626.327-.0702.661-.0702.974-.0591l.23.0148c.008.0665-.004.1478-.007.2217-.012.1516-.03.3068-.056.4584-.045.303-.1.5913-.16.8538-.067.3548-.137.7207-.193 1.083-.156 1.009-.457 1.9996-.257 3.1643.078.436-.152 1.19-.278 1.774-.186.857-.458 1.67-.606 2.546-.093.566-.142 1.542.026 1.76.907 1.171.762 2.55.241 4.158-.111.344-.011.869-.022 1.308-.022.706-.019 1.423-.089 2.122-.253 2.421-.547 4.835-.896 7.666 0 .026-.019.495.059.913zm1.434-5.866.13.118c.16.451.346.884.476 1.361.03.114-.134.369-.208.558-.082-.1-.227-.189-.238-.303-.033-.529-.03-1.065-.041-1.601l-.122-.129z"/><path d="m130.468 142.356c-.427-.015-.858.022-1.278-.063-.257-.052-.71-.355-.695-.443.308-1.73-1.119-2.717-.952-4.469.13-1.468-.446-2.964.115-4.502.417-1.15.268-2.299-.119-3.397-.197-.558-.39-1.131-.498-1.73-.286-1.633.164-2.982 1.257-3.478.94-.425 1.706-1.042 2.271-2.192.078-.155.364-.266.453-.173.112.118.208.525.156.698-.371 1.224-.721 2.503-1.252 3.604-.476.983-.651 1.756-.372 2.975.361 1.605 1.271 3.194.532 5.072.62 1.275.565 2.495-.175 3.681-.052.085.007.381.085.495.799 1.168.513 2.562.487 3.903l-.018.023z"/><path d="m130.486 142.338c.212 0 .428.026.64.007.543-.044 1.081-.107 1.62-.162-.386.602-.683 1.489-1.193 1.752-1.304.676-2.252 1.752-3.104 3.167-.501.836-1.196.569-1.516-.38-.587-1.749-.067-2.784 1.45-2.835.944-.034 1.947.207 2.089-1.523l.018-.022z"/><path d="m113.998 92.9867c-.948-.0887-1.844-.2514-2.494-.3955-.647-.1479-1.048-.2809-1-.377.011-.0185.416-.0407.528-.0296.312.0333.792.0924.814.1331.201.3511 1.71.4213 3.026.5027.434.0295.866-.0037 1.304.0221.298.0185.599.0998.896.1553-.238.0258-.446.0776-.714.0739-.951-.0185-1.918-.0628-2.364-.085z"/><path d="m7.25389 160.74c-.09292-.325-.27506-.669-.25648-.975.01859-.278.23046-.555.40517-.732.0446-.045.37171.258.40145.447.04088.259-.07806.562-.12639.846l-.42746.414z"/><path d="m132.387 130.325c.075.451.197.784.134.88-.141.211-.375.307-.576.451-.063-.218-.223-.521-.171-.632.115-.248.338-.396.613-.695z"/><path d="m130.906 162.574c0-.089-.007-.181.008-.266.093-.503.185-1.002.278-1.504.134.066.327.085.391.203.505.924-.123 1.235-.658 1.589z"/><path d="m83.5508 183.931c.2862-.529.5724-1.061.8363-1.601.0335.056.093.104.0967.166.0297.862-.4126 1.22-.9144 1.464l-.0186-.033z"/><path d="m106.533 92.1438c.175-.0149.301-.0223.431-.0334.197.0297.446.0594.562.0929.037.0111-.268.026-.443.0149-.152-.0075-.338-.0447-.55-.0744z"/><path d="m83.5653 183.96c-.2899.532-.5724 1.061-.8735 1.59-.0372-.045-.1041-.126-.1078-.126.3308-.499.643-.991.9664-1.493l.0186.033z"/><path d="m132.26 139.743c.185-.152.368-.388.442-.34.137.089.282.34.294.536.007.133-.201.284-.316.425-.119-.174-.238-.351-.424-.621z"/><path d="m83.7715 186.153-.1153-.152.1153.156z"/></g></svg>