<svg width="140" height="260" viewBox="0 0 140 260" fill="none" xmlns="http://www.w3.org/2000/svg">
<path d="M134.154 222.528C132.981 222.191 133.447 222.069 133.542 221.559C133.576 221.059 133.6 220.74 133.566 220.478C133.484 220.268 133.403 220.057 133.321 219.846C133.189 219.639 132.998 219.404 132.713 219.068C132.319 218.599 132.159 218.086 132.431 217.828C132.461 217.797 132.478 217.763 132.505 217.733C131.867 216.054 131.231 214.375 130.589 212.696C130.511 212.632 130.432 212.567 130.348 212.506C129.98 212.258 129.498 211.333 129.372 210.739C129.104 209.481 128.696 208.384 127.992 207.337C127.727 206.939 127.557 206.416 127.354 205.94C127.041 205.21 126.708 204.588 127.099 204.03C126.789 203.31 126.48 202.59 126.168 201.869C126.147 202.059 126.13 202.253 126.134 202.467C126.134 202.607 125.984 202.78 125.899 202.739C125.787 202.688 125.586 202.416 125.563 202.274C125.417 201.373 125.243 200.452 125.165 199.582C124.632 198.376 124.091 197.176 123.541 195.98C122.939 195.256 122.368 194.491 122.192 193.39C121.379 192.646 120.982 191.742 120.948 190.665C120.948 190.59 120.802 190.393 120.717 190.332C119.853 189.724 119.49 188.636 118.997 187.664C118.882 187.725 118.759 187.773 118.654 187.848L117.848 188.449C117.835 187.902 117.668 187.175 117.838 186.838C118.097 186.322 118.215 185.73 118.253 185.078C117.947 184.487 117.645 183.895 117.332 183.307C117.427 183.61 117.481 183.882 117.145 183.902C116.744 183.926 116.37 183.702 116.017 183.08C115.735 182.584 115.412 182.036 115.048 181.693C114.6 181.272 114.464 180.986 114.549 180.504C114.562 180.426 114.518 180.263 114.471 180.123C114.423 179.981 114.372 179.858 114.365 179.858C113.376 179.705 113.499 178.723 113.189 178.03C112.52 176.463 111.993 174.791 110.634 173.609C110.671 173.67 110.715 173.731 110.743 173.792L111.256 174.91C111.167 174.907 111.065 174.951 110.987 174.893C110.359 174.421 110.518 174.013 110.613 173.602C110.352 173.265 110.097 172.813 109.815 172.62C109.278 172.253 109.227 171.903 109.047 171.311C108.744 170.326 108.309 169.269 107.388 168.474C106.933 168.09 106.522 167.543 106.08 167.094C104.296 165.296 102.875 163.281 101.652 161.076C101.394 160.6 100.884 160.216 100.571 159.75C100.262 159.288 99.766 158.924 99.9053 158.265C100.034 157.674 99.4635 156.835 98.5528 156.474C97.9275 156.24 97.9003 155.91 98.0736 155.533C98.3931 154.847 97.8323 155.251 97.6658 155.129C97.4143 154.948 96.9726 154.609 96.976 154.517C96.9895 153.593 96.5342 153.474 95.7695 153.361C94.2063 153.12 93.3771 151.666 92.4256 150.51C92.1435 150.174 91.9906 150.041 91.6134 149.814C89.7953 148.74 88.0723 147.622 86.4004 146.157C85.1702 145.073 83.2637 144.641 82.3258 143.122C82.2646 143.02 81.9418 142.895 81.7583 142.854C80.6674 142.609 80.0115 141.926 79.3658 141.212C79.0056 140.811 78.6964 140.383 78.2648 140.037C78.0745 139.884 77.3438 139.523 77.5953 140.118C77.823 140.669 77.5885 140.907 76.9938 140.777C76.6336 140.696 76.1646 140.336 75.8248 140.06C75.4544 139.758 75.1723 139.394 74.8698 139.051C74.3431 138.456 73.7076 138.12 72.8784 138.055C72.1546 138.004 71.4205 137.909 70.7817 137.291C70.119 136.665 69.3985 136.387 68.6169 136.689C68.4538 136.747 67.8897 136.625 67.7232 136.492C67.2712 136.125 67.6416 135.993 68.0222 135.942C68.5456 135.867 68.5286 135.643 68.4198 135.252C68.3756 135.106 68.3621 134.99 68.3756 134.905C67.995 134.756 67.6076 134.62 67.2236 134.477C66.5507 134.538 66.2993 134.419 65.3987 133.835C65.0691 133.723 64.7394 133.61 64.4064 133.505C64.403 133.57 64.4098 133.655 64.4506 133.78C64.6375 134.392 63.8185 134.256 63.2985 134.338L63.1728 134.409L63.2985 134.334C63.2272 134.151 63.0437 133.926 63.1048 133.784C63.2408 133.454 63.1524 133.254 62.9519 133.118C61.7115 132.859 60.8619 132.703 60.0973 132.547C59.9512 132.625 59.8424 132.723 59.8017 132.832C59.2987 134.079 57.5078 133.631 56.1213 133.784C55.5402 133.824 54.8741 133.736 54.2454 133.699C53.9905 133.682 53.6439 133.641 53.4944 133.532C51.9583 132.472 50.215 132.53 48.611 133.271C47.9993 133.536 47.7376 133.372 47.5439 133.039C47.3162 132.649 46.9866 132.679 46.7759 133.039C46.4089 133.672 45.7836 133.699 44.968 133.634C44.3767 133.566 43.7752 133.59 43.1669 133.587C42.7693 133.597 42.3377 133.553 41.974 133.658C40.4686 134.13 39.0107 134.739 37.6888 135.52C36.6761 136.108 35.6973 136.36 34.6778 136.601C33.6855 136.863 32.8835 137.199 32.2243 138.171C31.548 139.095 30.9125 139.693 29.8488 139.948C29.6857 139.982 29.4512 140.159 29.3561 140.329C29.1318 140.709 28.8701 141.107 28.5744 141.321C28.2822 141.545 27.9594 141.651 27.5991 141.644C27.4938 141.641 27.3307 141.851 27.1981 141.967C27.2865 142.059 27.3545 142.198 27.47 142.229C28.4657 142.521 28.5031 142.548 27.7758 143.89C26.9467 145.484 26.1752 147.109 25.6145 148.825C25.4548 149.27 25.2475 149.81 25.2951 150.201C25.5669 152.536 24.9858 154.666 24.9043 156.94C24.9043 157.477 24.8805 157.99 24.9314 158.479C25.0096 158.965 25.1591 159.427 25.4684 159.852C25.6247 160.063 25.8456 160.624 25.7912 160.766C25.499 161.568 25.7267 162.282 26.0529 162.979C24.0241 163.39 22.0497 163.777 21.8152 162.782C21.387 160.94 21.0641 159.149 21.1185 157.297C21.1389 156.549 20.9962 155.594 20.935 154.751C20.7515 152.271 20.8704 149.749 21.3496 147.244C21.455 146.65 21.7608 146.041 21.9511 145.433C22.5798 143.622 23.3648 141.848 24.3605 140.23C24.8057 139.51 25.3528 138.803 25.9034 138.151C26.4675 137.461 27.0078 136.801 27.4836 136.217C28.5575 134.888 29.6721 133.852 31.2149 133.016C32.4112 132.38 33.5462 131.84 34.7594 131.276C35.9828 130.712 37.2368 130.212 38.5112 129.794C40.0472 129.278 41.5832 128.703 43.1771 128.323C43.6596 128.193 44.2305 127.996 44.6077 127.993C47.2313 128.03 49.7834 127.993 52.4681 128.061C53.2565 128.081 54.2386 128.329 54.9455 128.584C55.6489 128.832 56.1281 129.182 56.6922 129.492C56.8009 129.25 56.7772 128.961 57.0898 128.788C57.2189 128.717 58.286 128.843 58.5579 128.978C59.6114 129.488 60.692 129.869 61.8271 130.151C62.3062 130.273 62.5849 130.324 62.9213 130.362C63.2442 130.396 63.5364 130.426 63.7743 130.413C63.7981 130.396 63.7539 130.3 63.7437 130.246C63.6554 129.913 63.5806 129.57 63.5534 129.298C63.5398 129.159 63.5364 129.033 63.5466 128.91C63.5534 128.849 63.5602 128.792 63.5738 128.737C63.584 128.632 63.5942 128.509 63.6112 128.418C63.8525 126.943 63.7437 125.516 63.3801 124.272C62.5305 121.077 62.3538 117.58 61.4804 114.298C60.8755 112.024 60.828 109.027 60.4949 106.356L60.2468 104.385L60.1347 103.508C60.1279 103.477 60.1007 103.369 60.0803 103.284L60.0226 102.998L59.9172 102.444V102.434L59.9138 102.424L59.8832 102.217L59.9172 102.39C59.8764 102.176 59.8323 101.887 59.8051 101.612C59.5706 100.545 59.1458 99.43 59.0167 97.9245C58.9759 96.8745 59.0167 95.8176 59.7235 94.601C60.2197 93.7956 60.6343 92.963 60.9469 92.1202C57.4738 90.975 55.061 88.4942 55.061 85.6124C55.061 85.5614 55.0644 85.5071 55.0678 85.4561H60.9537C60.9129 85.3473 60.8721 85.2386 60.8246 85.1333C60.3998 84.1341 60.0158 82.9719 59.3905 82.0102C58.371 80.4945 57.6369 80.1581 56.6854 80.3892C56.0533 80.5455 55.7067 80.4945 55.2275 79.8353C54.8299 79.3493 54.3134 79.0604 53.3482 78.9857C52.7162 78.9551 51.9685 78.7818 51.2753 78.7138C48.8998 78.5031 46.4123 78.2584 43.6732 77.4055C42.5144 77.0214 42.545 76.9773 42.2051 77.0079C41.9197 77.0418 41.7158 77.3035 41.692 77.5652C41.6716 77.7079 41.6852 77.7895 41.6988 77.9662L41.7192 79.2134C41.743 80.0324 41.7939 80.8242 41.8993 81.5786L41.9944 82.2175L42.0828 82.9923C42.1236 83.5089 42.1474 84.0288 42.1372 84.5487C42.1338 84.8546 42.1032 85.157 42.0794 85.4595H46.2491C46.2491 85.5105 46.2559 85.5614 46.2559 85.6158C46.2559 88.5248 43.8023 91.0225 40.2783 92.1542C40.0914 92.5518 39.9011 92.946 39.6938 93.33C39.4321 93.8262 39.1568 94.3121 38.8748 94.7913C38.5723 95.2908 38.3956 95.6307 37.9674 96.29L37.8995 96.3681C37.8757 96.3919 37.8655 96.4293 37.8485 96.4599L37.4237 97.493L36.9853 98.6178L37.0635 98.3765L36.7542 99.3145L36.4654 100.035L35.9182 101.452C35.5648 102.404 35.2386 103.362 34.9429 104.33C34.1137 107.032 32.8427 109.53 31.6329 111.987C30.9601 113.35 30.4537 114.549 29.9882 115.963C29.2439 118.23 28.3502 120.503 27.1234 122.607C26.7326 123.279 26.2976 124.136 26.0597 124.866C24.8941 128.489 23.3206 131.84 21.6487 135.279C20.1772 138.307 18.9334 141.573 17.5979 144.736C17.4245 145.195 17.1493 146.021 16.8706 146.283C16.6463 146.507 16.4016 146.731 16.123 146.945C15.8511 147.163 15.4671 147.367 15.3108 147.459C14.8928 147.7 14.4748 147.965 14.0602 148.247C13.6456 148.529 13.2378 148.825 12.83 149.134L12.2217 149.603L11.6814 150.153C10.9643 150.891 10.2405 151.628 9.52683 152.359C8.89814 153.164 8.25246 153.932 7.55581 154.643C7.00867 155.122 6.49893 156.06 6.31202 156.603C6.16929 157.059 6.00277 157.487 5.81246 157.898C5.71731 158.102 5.61876 158.306 5.51341 158.503L5.25174 159.125C4.88812 159.947 4.44634 160.739 3.95358 161.558C3.61375 162.183 3.31809 162.839 3.04963 163.529C2.81854 164.226 2.54327 164.94 2.67921 165.772C2.70639 165.993 2.22723 167.08 1.94517 167.658C1.20094 169.123 1.29609 169.249 1.82623 170.207C1.99614 170.496 2.22383 170.598 2.36316 170.951C2.44812 171.169 2.4855 171.767 2.42433 172.083C2.26121 173.303 2.25102 174.509 2.24422 175.729C2.34617 176.942 2.56366 178.173 2.83893 179.447C3.35208 180.983 3.3045 183.049 3.80405 184.837C3.84144 185.003 3.78706 185.282 3.73269 185.251C3.59676 185.177 3.39625 185 3.28751 184.759C3.05982 184.252 2.83213 183.674 2.67921 183.127C2.55347 182.359 2.42773 181.595 2.30539 180.83L2.12188 179.688C2.06411 179.308 2.06071 178.917 2.01993 178.533C1.96896 177.959 1.75146 177.364 1.60874 176.772C1.4864 176.959 1.29609 177.19 1.16016 177.391C1.59514 181.34 2.66222 185.204 4.3104 188.772C4.27982 188.67 4.24923 188.568 4.22205 188.466C4.07252 187.946 3.88561 187.059 3.97397 187.076C4.24244 187.131 4.65364 187.382 4.96288 187.814C5.27893 188.252 5.62556 188.663 5.91781 189.156C6.21007 189.649 6.5499 190.169 6.72322 190.923C6.84556 191.294 7.85146 192.31 8.21508 192.853C8.65007 193.635 8.5821 194.355 9.01029 195.188C9.6016 196.303 10.6449 197.115 11.6474 197.781C14.118 199.239 16.3643 201.59 18.8688 203.419C19.0557 203.555 19.2053 204.034 19.1305 204.187C19.0591 204.326 18.563 204.16 18.4101 204.255C18.3047 204.319 18.2164 204.401 18.1246 204.479C18.4678 204.731 18.8111 204.979 19.1577 205.223C19.1951 205.21 19.2358 205.199 19.2834 205.199C20.6156 205.196 22.6036 205.94 24.16 207.313C25.7199 208.679 27.3069 209.475 28.9177 210.555C29.4954 210.939 30.5081 211.68 30.5285 211.813C30.78 213.271 32.0679 213.542 33.2336 214.3C33.7841 214.647 34.5385 215.432 34.9327 215.999C35.49 216.825 34.8342 216.506 34.4434 216.428C34.3618 216.411 34.304 216.411 34.2632 216.424C34.4977 216.669 34.7356 216.91 34.9633 217.162C35.5682 217.821 36.1187 218.535 36.6795 219.282C36.6183 219.129 36.5571 218.976 36.4892 218.82C35.9998 217.733 36.5299 217.722 37.4883 218.636C37.7058 218.844 37.9029 219.048 38.083 219.245C38.2325 219.415 38.3718 219.578 38.5044 219.727C38.5519 219.761 38.8034 219.996 38.9393 220.173C39.0957 220.353 39.2112 220.54 39.3064 220.713C39.6734 221.42 39.6088 221.957 39.235 222.232C39.1704 222.279 39.1025 222.324 39.0345 222.368C39.4049 223.058 39.67 223.805 39.8297 224.584C39.969 224.696 40.0982 224.838 40.1016 224.91C40.1661 225.511 40.2205 226.035 40.2749 226.538C40.2953 226.789 40.3361 227.027 40.3361 227.292C40.3361 227.523 40.3802 227.683 40.455 227.883C40.7473 228.845 40.9138 229.807 40.7608 231.037C40.4822 233.073 40.3734 235.247 39.2758 237.188C38.4602 238.622 37.8723 240.08 37.3625 241.541C37.1042 242.282 36.8086 243.04 36.4178 243.791C35.3099 245.809 34.2463 247.023 33.2641 247.312C32.9073 247.41 32.5301 247.57 32.1529 247.835C31.6975 248.851 31.3577 249.915 31.2217 251.057C31.1742 251.451 31.1266 251.77 31.0688 252.042C31.0926 252.005 31.1164 251.967 31.1368 251.93C31.514 251.284 31.8334 250.255 32.299 249.643C32.4791 249.381 32.649 248.943 32.8563 248.6C32.819 248.967 32.8427 249.303 32.7918 249.684C32.7102 250.173 32.6219 250.717 32.6151 250.751C32.5709 250.989 32.5267 251.226 32.4893 251.447C32.4621 251.607 32.4553 251.638 32.4417 251.692C32.4282 251.746 32.4146 251.797 32.401 251.845C32.3772 251.93 32.35 252.018 32.3262 252.079C32.2888 252.175 32.2446 252.273 32.1767 252.355C32.0815 252.426 32.0645 252.521 32.0679 252.63L32.0407 252.943L32.0271 253.102C32.0407 253.136 32.1087 253.119 32.1461 253.13C32.5335 253.157 32.9107 253.184 33.2811 253.208C33.5462 253.231 34.3754 253.259 35.0313 253.282C35.7109 253.306 36.3838 253.33 37.0567 253.35C38.0082 253.381 38.9733 253.35 39.9351 253.34C40.5332 253.333 41.24 253.228 41.709 253.306C43.9111 253.67 45.787 253.772 47.3332 252.898C47.6187 252.739 48.944 252.722 49.7154 252.776C50.9082 252.861 52.0229 253.072 53.1953 253.208C53.9939 253.299 55.027 253.49 55.6115 253.388C57.185 253.119 58.5409 253.367 59.9104 253.483C61.9018 253.653 63.8015 254.054 65.9017 253.639C68.7053 254.224 70.989 253.721 73.2862 253.208C73.5853 253.14 74.095 253.065 74.3261 253.109C76.0389 253.446 77.8468 253.575 79.7906 253.558C80.0251 253.558 80.5756 253.864 80.4737 253.928C80.2868 254.047 80.1067 254.176 79.9232 254.305H82.1321C82.0777 254.295 82.0233 254.285 81.9689 254.275C82.285 254.186 82.5637 254.054 82.9205 254.016C84.2016 253.908 85.5066 253.799 86.1081 253.748C87.4844 253.748 88.786 253.982 89.6832 254.302H92.9184V253.306C92.1979 253.146 91.6066 252.776 91.0595 252.022C90.6992 251.522 90.3322 251.023 89.9652 250.523C90.2065 250.89 90.4444 251.257 90.6789 251.624C90.8012 251.814 90.7978 252.069 90.7808 252.222C90.7774 252.266 90.4987 252.083 90.3798 251.937C89.9992 251.468 89.6084 250.985 89.2617 250.492C88.4394 249.327 87.6136 248.165 86.7028 247.074C85.7989 245.983 84.7828 244.977 83.7157 244.046C82.6282 243.104 81.4694 242.248 80.2596 241.5C79.6547 241.127 79.0362 240.783 78.4109 240.474C77.7618 240.148 77.0991 239.801 76.4637 239.376C75.8112 238.945 75.2029 238.452 74.6931 237.827C74.1834 237.229 73.7756 236.4 73.5649 235.642C73.1945 234.408 72.5828 233.073 72.3585 231.778C72.1206 230.422 71.9337 229.107 71.7366 227.815C71.6856 227.683 71.6278 227.547 71.5871 227.425L71.4749 227.01L71.2778 226.181C71.1555 225.63 71.0535 225.083 70.955 224.539C70.8768 224.115 70.887 223.445 70.9652 223.058C71.0331 222.714 71.1011 222.368 71.1691 222.021C71.2268 221.777 71.2846 221.528 71.3458 221.28C71.3662 220.546 71.373 219.819 71.4103 219.173C71.4647 217.834 71.4987 216.472 71.6652 215.157C71.9065 213.247 72.1274 211.34 72.4027 209.444C72.508 208.717 75.6243 204.523 77.1535 202.178C77.7176 202.199 78.2818 202.216 78.8493 202.229C79.3318 202.246 79.8654 202.294 80.3276 202.433C81.2893 202.729 82.268 203.028 83.2331 203.324C84.2016 203.626 85.1804 203.857 86.1591 203.918C88.3952 204.115 90.2405 204.347 92.0212 205.325C92.497 205.594 93.4485 205.533 94.1791 205.556C95.0695 205.58 94.9947 205.036 95.3176 204.741C95.6914 204.401 96.0448 204.394 96.5444 204.683C97.6726 205.301 98.6853 205.471 100.031 205.166C100.68 205.013 101.404 205.182 102.039 205.801C102.689 206.44 103.474 207.096 104.68 207.283C104.884 207.323 105.407 207.701 105.455 207.888C105.842 209.063 106.603 209.611 107.698 210.273C108.061 210.494 108.619 211.065 108.687 211.405C109.156 213.519 110.695 215.242 111.439 217.24C111.473 217.335 111.752 217.42 111.912 217.484C112.894 217.875 112.914 217.899 113.067 219.17C113.091 219.367 113.036 219.578 113.115 219.744C113.832 221.304 114.613 222.878 115.143 224.529C115.565 225.783 115.884 227.058 116.248 228.318C116.268 228.386 116.248 228.464 116.221 228.539C116.608 228.478 116.938 228.43 117.261 228.349C118.175 228.114 119.089 227.877 120.006 227.642C119.612 227.493 119.351 227.278 119.306 227.034C119.293 226.969 119.565 226.772 119.656 226.772C119.915 226.772 120.319 226.786 120.377 226.891C120.537 227.183 120.774 227.323 121.05 227.374C122.701 226.945 124.356 226.524 126.011 226.099C126.13 225.766 126.276 225.447 126.603 225.222C127.099 224.879 128.016 224.648 128.971 224.94C129.44 225.083 129.94 225.08 130.436 224.985C130.599 224.944 130.762 224.903 130.922 224.862C131.18 224.781 131.435 224.682 131.68 224.563C132.203 224.312 132.672 224.009 133.206 223.771C133.409 223.673 133.613 223.578 133.824 223.476C134.045 223.377 134.262 223.187 134.371 222.952C134.419 222.881 134.211 222.562 134.137 222.548L134.154 222.528ZM60.325 133.617C61.0319 133.651 61.3139 133.981 61.5076 134.361C61.9426 134.575 62.3674 134.824 62.7922 135.061C62.7548 135.085 62.6868 135.133 62.6868 135.133C62.2858 134.875 61.8882 134.609 61.4804 134.372L60.1857 133.678C60.2333 133.658 60.274 133.614 60.3284 133.617H60.325ZM77.9012 201.828C77.7618 201.811 77.6191 201.74 77.4798 201.669C77.5817 201.506 77.6735 201.353 77.7482 201.22C77.7822 201.227 77.8162 201.23 77.8468 201.24C78.0541 201.308 78.224 201.506 78.3225 201.658C78.3497 201.696 78.0507 201.849 77.9012 201.828ZM116.873 228.393C116.754 228.424 116.581 228.322 116.397 228.271C116.506 228.121 116.591 228.009 116.673 227.897C116.846 227.968 117.057 228.019 117.176 228.118C117.213 228.148 117.012 228.359 116.877 228.393H116.873ZM118.875 190.43C118.769 190.41 118.6 190.267 118.525 190.131C118.474 190.04 118.532 189.866 118.542 189.73C118.671 189.822 118.8 189.914 118.997 190.053C118.95 190.216 118.936 190.444 118.875 190.43ZM122.222 196.948C122.025 196.639 121.841 196.432 121.845 196.343C121.858 196.146 121.964 196.004 122.032 195.84C122.144 195.98 122.344 196.157 122.351 196.252C122.368 196.466 122.287 196.643 122.222 196.945V196.948Z" fill="#435DC6"/>
<path d="M28.9213 140.872C28.9349 140.383 29.2645 139.72 28.5237 139.553C27.6605 139.377 28.1805 139.057 28.5917 138.833C28.9247 138.643 29.1694 138.5 29.3597 138.381C29.5534 138.266 29.6859 138.164 29.7777 138.038C29.9646 137.79 29.968 137.43 30.0665 136.736C30.1277 136.301 30.1345 135.819 30.3384 135.408C30.4471 135.193 30.8821 134.966 31.1336 134.962C31.3953 134.962 31.6196 135.217 31.8574 135.363C31.6467 135.492 31.4293 135.611 31.2186 135.751C31.0282 135.876 30.8787 135.992 30.7768 136.097C30.6782 136.206 30.6272 136.308 30.6238 136.396C30.6137 136.577 30.7904 136.716 31.1574 136.862C31.6162 137.039 31.8574 137.195 31.7997 137.715C31.7555 138.092 31.8099 138.5 32.3196 138.378C32.4148 138.357 32.5269 138.242 32.6187 138.116C32.7138 137.994 32.7784 137.851 32.7648 137.756C32.7036 137.3 32.8022 136.954 33.0265 136.723C33.2576 136.502 33.6042 136.383 34.0188 136.349C34.4232 136.318 34.7188 136.196 34.9397 135.975C35.0519 135.87 35.147 135.741 35.2354 135.605C35.3271 135.475 35.4121 135.333 35.4902 135.183C35.6772 134.847 35.9082 134.595 36.1971 134.476C36.4894 134.357 36.8224 134.334 37.1928 134.395C37.6108 134.463 38.0526 134.609 38.4604 134.602C38.841 134.595 39.344 134.602 39.5716 134.364C39.9557 133.994 39.9081 133.528 39.3609 133.11C39.0653 132.896 39.0789 132.726 39.1978 132.604C39.3202 132.488 39.5445 132.431 39.6532 132.434C39.9047 132.441 40.1528 132.492 40.3974 132.563C40.6455 132.641 40.8868 132.733 41.1281 132.804C41.998 133.059 42.7933 133.348 43.6156 132.719C43.755 132.607 44.037 132.512 44.1356 132.58C44.8696 133.124 45.5731 133.171 46.3037 133.12C47.0276 133.069 47.7786 132.934 48.4719 133.134C50.3375 133.688 52.0877 133.722 53.9975 133.6C54.3951 133.576 54.5685 133.62 54.9117 133.82C55.4928 134.174 56.0671 134.643 56.6788 134.898C57.2905 135.149 57.943 135.18 58.7314 134.639C59.496 134.116 59.982 133.861 60.1587 135.068C60.1757 135.19 60.6854 135.231 60.9709 135.248C61.1612 135.255 61.6506 134.228 61.4637 135.397C61.3617 136.04 61.4467 136.434 62.1297 136.179C63.139 135.795 63.8867 136.373 63.8595 137.219C63.8255 138.177 64.3998 138.194 64.811 138.483C65.2222 138.772 65.8271 138.796 66.1839 139.139C67.8661 140.733 69.7216 141.824 72.0256 142.327C72.6 142.462 73.1437 142.755 73.7316 142.795C74.9312 142.884 75.5905 143.744 76.1002 144.597C76.3959 145.12 76.508 145.477 77.1979 145.419C77.5581 145.388 77.9217 145.687 78.2854 145.837L78.3092 145.83C79.2097 145.891 79.8894 146.275 80.4705 146.785C81.0414 147.312 81.524 147.954 82.0541 148.525C82.5265 149.035 82.5605 150.183 83.7703 149.504C83.7873 149.494 84.1067 149.854 84.0999 150.048C84.0795 150.642 84.2834 150.843 84.8917 150.921C85.3879 150.982 85.8704 151.298 86.2952 151.59C86.8288 151.957 87.3113 151.893 87.7837 151.543C88.3988 151.091 87.7769 150.748 87.6512 150.35C87.5492 150.024 87.0564 149.65 87.6681 149.358C88.0352 149.181 88.5755 149.093 88.307 148.569C88.1201 148.209 87.6749 147.822 87.2943 147.754C86.4753 147.608 85.3743 148.002 85.8161 146.408C85.8568 146.265 85.2723 145.915 84.9393 145.732C84.0115 145.218 83.043 144.923 82.5061 143.754C81.9352 142.578 80.5079 142.551 79.3049 143.264C78.8461 143.536 78.5844 144.447 77.8164 143.981C78.2004 143.489 78.5606 142.979 78.9752 142.517C79.1587 142.313 79.5291 142.259 79.6617 142.041C79.8044 141.803 79.8996 141.259 79.7908 141.185C79.4306 140.94 79.0874 140.651 78.7407 140.376C78.3873 140.104 78.0339 139.836 77.6635 139.598C76.9226 139.125 76.1172 138.789 75.1249 138.887C74.2787 138.966 73.5549 138.782 73.1233 138.14C72.8039 137.667 72.9432 136.818 72.583 136.39C72.3111 136.077 71.2338 136.339 71.1319 136.08C70.7275 135.04 69.8949 135.306 69.188 135.35C68.838 135.367 68.4302 135.673 68.1855 135.965C68.1074 136.06 68.3996 136.566 68.5933 136.821C69.3138 137.725 70.0784 138.592 70.7037 139.547C70.8668 139.795 70.7581 140.318 70.6391 140.672C70.5916 140.811 70.16 140.95 69.9425 140.92C68.9808 140.767 67.4447 139.224 67.4447 138.174C67.4515 137.052 66.7956 136.532 66.0174 136.522C64.5391 136.498 64.1687 134.847 62.9079 134.548C62.806 134.524 62.9079 133.702 62.9079 133.253C63.2614 133.277 63.6794 133.192 63.9682 133.345C64.743 133.77 65.4329 134.334 66.1669 134.816C66.4354 134.99 66.7684 135.091 67.0879 135.142C67.2408 135.166 67.4583 135.02 67.5976 134.891C67.6554 134.837 67.6316 134.568 67.5569 134.5C66.7446 133.773 65.9596 132.655 64.9843 132.505C63.4143 132.261 62.1909 131.686 60.9641 130.789C60.8044 130.674 60.417 130.697 60.2471 130.816C59.965 131.013 59.7951 131.36 59.547 131.608C58.7212 132.437 58.7008 132.417 58.0687 131.486C57.8172 131.129 57.2905 130.528 57.1444 130.599C56.604 130.864 56.1725 130.823 55.7851 130.65C55.3942 130.483 55.0408 130.194 54.6704 129.963C53.6815 129.372 52.6654 129.008 51.4998 129.545C51.323 129.627 51.0886 129.634 50.8439 129.596C50.6026 129.566 50.3511 129.498 50.154 129.409C49.053 128.92 47.8024 128.981 46.5892 129.029C45.3658 129.063 44.1866 129.097 42.9734 128.553C42.7899 128.475 42.4364 128.747 42.1544 128.791C40.146 129.141 38.2225 129.902 36.2991 130.446C34.1105 131.068 31.9866 132.108 30.5355 133.936C30.2534 134.313 29.7573 134.606 29.3325 134.83C27.9901 135.52 27.0794 136.757 26.4473 138.048C26.2604 138.459 26.0599 138.823 25.8322 139.169C25.6215 139.526 25.3836 139.87 25.105 140.223C24.1364 141.518 23.2461 142.979 23.0252 144.661C22.7295 147.043 22.1416 149.225 21.5707 151.478C21.027 153.558 20.7007 155.801 21.2513 157.972C21.7304 159.896 22.1994 161.802 22.9164 163.59C23.4636 164.959 23.7932 166.173 24.1976 167.45C24.2656 167.664 24.3369 167.892 24.4219 168.116C24.5103 168.337 24.619 168.548 24.7379 168.728C24.9181 169.007 25.0404 169.234 25.1186 169.449C25.2035 169.659 25.2477 169.86 25.2613 170.081C25.3055 170.645 25.5196 170.876 25.9545 170.981C26.607 171.155 26.8857 171.488 27.443 172.51C27.6095 172.84 27.7964 173.156 27.9901 173.465C28.1838 173.778 28.381 174.084 28.6086 174.366L29.2237 175.137C29.4378 175.385 29.6655 175.623 29.8864 175.865L31.2254 177.305C32.1837 178.196 33.0876 179.144 34.0969 179.97C35.2592 181.02 36.4962 181.975 37.7162 182.947C38.3211 183.385 38.9328 183.881 39.5343 184.35C40.1426 184.812 40.7645 185.207 41.3388 185.509C42.1646 185.951 42.9904 186.416 43.806 186.889C44.2172 187.12 44.6148 187.371 45.0327 187.575C45.4473 187.783 45.8653 187.98 46.2867 188.15C46.613 188.282 46.9562 188.438 47.2926 188.632C47.6291 188.819 47.9689 189.033 48.2782 189.312C48.6044 189.601 49.4234 189.995 49.9875 190.202C51.3774 190.671 52.5702 191.228 53.5999 192.105C53.7291 192.217 54.2762 192.414 54.3544 192.38C54.5481 192.302 54.582 192.112 54.6772 191.966C54.9321 192.224 55.1224 192.516 55.452 192.758C55.7817 193.002 56.2336 193.301 56.6312 193.434C57.9804 193.896 59.2649 194.348 60.434 195.147C60.6039 195.262 60.9301 195.262 61.1816 195.327C62.0108 195.541 62.8672 195.69 63.6726 195.976C65.0047 196.452 66.3131 197.009 67.6146 197.573C68.4642 197.94 69.239 197.95 70.0886 198.022C70.8532 198.079 71.6824 198.729 72.5082 199.051C73.436 199.412 74.3977 199.68 75.3356 199.996C75.6483 200.101 75.9473 200.319 76.2566 200.367C77.5615 200.567 78.8767 200.693 80.1884 200.859C80.6336 200.914 81.1604 200.934 81.5036 201.162C82.3498 201.716 83.2639 201.971 84.2018 202.304C85.2112 202.654 86.1151 203.136 87.2094 203.102C87.4133 203.099 87.7293 203.289 87.8449 203.469C88.4837 204.458 89.4251 204.485 90.4446 204.492C90.9373 204.492 91.5049 204.546 91.9229 204.781C92.6093 205.162 93.2618 205.59 93.9347 205.974C94.6109 206.354 95.3246 206.65 96.147 206.779C96.6771 206.861 97.1597 207.353 97.6796 207.598C98.1758 207.822 98.6413 208.108 99.0967 208.41C99.5453 208.723 99.9769 209.066 100.422 209.379C100.871 209.685 101.316 209.991 101.802 210.235C102.284 210.483 102.825 210.636 103.402 210.745C103.583 210.776 103.718 211.105 103.909 211.255C104.293 211.557 104.704 211.829 105.105 212.108C105.537 212.393 106.019 212.604 106.444 212.9C106.882 213.212 107.297 213.549 107.728 213.865L108.374 214.337C108.581 214.5 108.796 214.663 109.01 214.82C109.434 215.139 109.89 215.424 110.332 215.724C110.773 216.023 111.236 216.301 111.725 216.553C112.218 216.804 112.748 217.525 112.846 217.997C113.003 218.741 113.281 219.346 113.713 219.846C114.155 220.338 114.647 220.794 115.218 221.236C115.412 221.389 115.609 221.545 115.799 221.705C115.98 221.875 116.156 222.044 116.33 222.221C116.673 222.578 117.03 222.935 117.336 223.329C117.631 223.73 117.913 224.145 118.172 224.576L118.365 224.899C118.423 225.011 118.474 225.127 118.525 225.239C118.627 225.467 118.725 225.701 118.817 225.936C118.94 226.258 119.099 226.574 119.239 226.897C119.368 227.227 119.497 227.553 119.626 227.883C119.687 228.046 119.748 228.212 119.803 228.379C119.857 228.552 119.905 228.685 119.956 228.929C120.054 229.375 120.129 229.833 120.18 230.336C120.211 230.642 120.36 231.121 120.489 231.349L120.561 231.475C120.601 231.492 120.676 231.458 120.73 231.454L121.084 231.386L121.76 231.264L122.086 231.21C122.199 231.186 122.314 231.152 122.43 231.125C122.657 231.067 122.882 231.016 123.106 230.965C123.303 230.924 123.5 230.883 123.701 230.839C123.86 230.809 124.023 230.778 124.187 230.751C124.513 230.697 124.842 230.649 125.179 230.608C125.865 230.516 126.593 230.221 127.272 230.143C128.118 230.041 128.788 229.796 129.553 229.562C131.038 229.099 132.584 228.698 134.137 228.389C135.669 228.083 137.229 227.859 138.772 227.557C139.098 227.495 139.431 227.421 139.754 227.349C139.853 227.325 140.016 227.274 139.999 227.274C139.934 227.271 139.819 227.268 139.7 227.285C138.524 227.475 137.345 227.638 136.159 227.808C134.609 228.032 133.056 228.27 131.503 228.484C131.337 228.508 131.177 228.457 131.004 228.443C129.882 228.365 129.858 228.342 129.209 228.868C129.104 228.953 128.941 229.11 128.849 229.116C127.894 229.188 126.912 229.381 125.937 229.538C125.451 229.616 124.961 229.68 124.479 229.708C124.238 229.721 123.996 229.725 123.758 229.711C123.524 229.701 123.255 229.674 123.106 229.633C123.001 229.606 122.841 229.64 122.657 229.697C122.477 229.755 122.277 229.823 122.107 229.905C121.984 229.966 121.855 230.02 121.726 230.075L121.628 230.115L121.58 230.136C121.58 230.136 121.566 230.119 121.556 230.112C121.529 230.075 121.502 230.034 121.478 229.993C121.376 229.83 121.291 229.633 121.233 229.422C121.176 229.212 121.148 228.984 121.159 228.756C121.165 228.641 121.182 228.528 121.21 228.416L121.261 228.25C121.274 228.185 121.291 228.121 121.312 228.056C121.356 227.903 121.203 227.359 121.07 227.227C120.88 227.033 120.73 226.829 120.618 226.619C120.51 226.404 120.428 226.19 120.353 225.976C120.221 225.548 120.197 225.103 120.221 224.695C120.282 223.873 119.939 223.339 119.439 223.003C119.177 222.829 118.953 222.649 118.766 222.452C118.583 222.255 118.403 222.061 118.273 221.841C118.008 221.402 117.876 220.889 117.852 220.274C117.808 219.727 117.58 219.452 117.06 219.421C116.608 219.397 116.187 219.839 115.674 219.21C115.225 218.714 114.579 218.143 114.478 217.63C114.382 217.147 114.209 216.723 114.015 216.301C113.815 215.887 113.587 215.479 113.305 215.112C113.02 214.748 112.697 214.398 112.347 214.055C112.17 213.885 111.99 213.712 111.796 213.549C111.599 213.389 111.392 213.233 111.181 213.073C110.811 212.798 110.468 212.488 110.138 212.152C109.795 211.832 109.468 211.489 109.142 211.132C108.503 210.405 107.83 209.698 107.124 209.039C106.787 208.716 106.305 208.522 105.87 208.363C104.602 207.897 103.294 207.585 102.009 207.245C101.044 207.014 100.718 206.354 101.173 205.627C101.306 205.42 101.476 205.233 101.632 205.039C101.275 204.859 100.905 204.584 100.541 204.56C100.092 204.526 99.5929 204.879 99.236 204.74C98.6447 204.495 98.05 204.261 97.4655 203.996L96.5921 203.595L95.7154 203.204C95.2362 202.99 94.927 202.541 95.2804 202.12C96.0144 201.264 95.4299 201.148 94.5769 201.002C94.0366 200.91 93.5099 200.798 92.9797 200.74C92.453 200.683 91.916 200.7 91.3757 200.825C89.9892 201.152 89.9756 201.09 89.4421 199.904C88.844 198.576 88.8304 198.593 87.1856 198.491C86.4515 198.436 85.6869 198.392 84.9903 198.185C83.6581 197.787 82.36 197.298 81.0346 196.9C80.8953 196.859 80.6778 196.968 80.5351 197.05C80.4909 197.077 80.5249 197.284 80.5962 197.345C80.8205 197.532 81.0788 197.692 81.3235 197.865C80.9938 197.821 80.6506 197.814 80.338 197.723C79.9573 197.61 79.3796 197.481 79.2743 197.26C78.6422 195.955 77.4188 196.39 76.3551 196.319C75.6347 196.275 74.87 196.282 74.2108 196.068C72.4334 195.5 70.7139 194.817 68.9434 194.273C67.0709 193.692 65.1644 193.182 63.2852 192.632C62.3982 192.37 61.4297 192.105 60.9539 192.649L61.083 192.741L60.9505 192.649C59.8732 191.769 58.6125 191.762 57.4095 191.633C56.9133 191.589 56.3628 191.609 56.0025 191.262C54.9321 190.206 53.2805 189.811 51.7818 189.149C50.4361 188.608 49.053 188.014 47.8602 187.327C47.2689 186.957 46.596 186.722 45.9537 186.444C45.3046 186.179 44.7201 185.818 44.2579 185.319C44.173 185.224 43.6564 184.975 43.4321 184.914C42.9734 184.795 42.586 184.568 42.1917 184.32C41.8009 184.068 41.4169 183.779 41.0023 183.48C40.1494 182.845 39.3406 182.134 38.4842 181.489C38.073 181.142 37.655 180.809 37.2234 180.49C36.7918 180.17 36.3296 179.885 35.8879 179.579C35.5888 179.385 35.2218 178.988 34.9023 178.675C34.277 178.097 33.7333 177.438 33.1658 176.809C32.8905 176.486 32.5915 176.184 32.3332 175.848L31.5482 174.848C30.9456 174.103 30.5378 173.895 30.3248 174.223C30.2874 174.281 30.1855 174.254 30.1141 174.264C30.0529 174.121 29.9306 173.911 29.9442 173.846C30.0291 173.387 29.8083 172.803 29.183 172.004C29.0504 171.844 28.9451 171.556 28.9145 171.406C28.8363 170.903 28.6494 170.407 28.3911 169.951C28.2654 169.724 28.1091 169.506 27.9698 169.299C27.8304 169.088 27.6809 168.895 27.5246 168.718C27.1712 168.334 26.9605 167.936 26.7905 167.535C26.6138 167.138 26.5357 166.706 26.4541 166.241C26.2944 165.299 26.206 164.351 25.8322 163.332C25.3632 161.996 25.0404 160.576 24.8161 159.148C24.7685 158.802 24.8535 158.411 24.9011 158.047C24.9894 157.493 25.037 156.939 25.1899 156.409C25.2885 156.039 25.3361 155.716 25.3123 155.434C25.2885 155.152 25.1695 154.917 24.8977 154.724C24.5918 154.503 24.5782 154.204 24.9996 154.037C25.3462 153.894 25.5739 153.677 25.3802 153.109C24.9011 151.621 24.969 150.027 26.3827 148.919C26.5221 148.811 26.6172 148.525 26.6682 148.314C26.7396 148.053 26.8381 147.791 26.9129 147.529C26.9876 147.268 27.042 147.006 27.0658 146.758C27.1032 145.538 27.9154 144.189 26.5662 143.285C26.3895 143.169 26.2434 142.925 26.2094 142.639C26.1822 142.36 26.2774 142.051 26.5628 141.82C26.8143 141.609 26.974 141.14 27.2051 140.818C27.4328 140.491 27.7251 140.321 28.2484 140.746C28.4013 140.869 28.697 140.818 28.9281 140.855L28.9213 140.872ZM25.6317 145.405C25.8322 145.375 26.0599 145.297 26.2434 145.348C26.4133 145.395 26.6784 145.609 26.6546 145.687C26.5425 146.075 26.4133 146.537 26.155 146.795C25.8152 147.169 25.3564 147.407 24.9486 147.713C24.9418 147.716 24.8807 147.57 24.8195 147.441C25.2069 147.2 25.4414 146.907 25.5603 146.564C25.6963 146.228 25.7099 145.844 25.6317 145.405ZM27.9188 170.356C27.9833 170.458 27.9358 170.655 27.9392 170.808C27.7115 170.543 27.4634 170.298 27.2561 170.006C27.1542 169.87 27.1474 169.629 27.0114 169.078C27.2323 169.398 27.3886 169.639 27.5416 169.836C27.6945 170.03 27.81 170.189 27.9188 170.356ZM54.2558 132.233C54.198 132.057 54.1063 131.883 54.0893 131.707C54.0825 131.642 54.3136 131.479 54.3306 131.496C54.4563 131.608 54.5583 131.754 54.7214 131.958C54.5141 132.077 54.3849 132.155 54.2558 132.23V132.233ZM63.2682 194.664C63.1288 194.661 62.9793 194.685 62.8502 194.64C62.7074 194.593 62.5885 194.484 62.456 194.402C62.6259 194.423 62.7992 194.443 62.9283 194.457C63.0745 194.545 63.173 194.603 63.2682 194.664Z" fill="black"/>
<path d="M103.593 161.751C103.378 161.629 103.117 161.618 102.879 161.561C102.988 161.781 103.161 162.006 103.195 162.223C103.256 162.614 103.382 163.056 103.46 163.46C103.531 163.871 103.552 164.245 103.409 164.497C102.92 165.36 103.477 165.785 104.028 166.345C104.354 166.678 104.666 167.073 105.047 167.304C105.295 167.457 105.53 167.62 105.744 167.796C105.954 167.977 106.151 168.17 106.335 168.374C106.702 168.782 107.025 169.237 107.327 169.737C107.613 170.209 108.347 170.818 108.772 170.886C109.958 171.083 110.678 171.973 111.449 172.931C111.952 173.563 112.53 174.151 112.177 174.794C112.007 175.099 112.289 175.49 112.761 175.786C113.879 176.493 113.839 176.523 114.185 177.723C114.348 178.294 114.505 179.089 115.208 178.708C115.252 178.685 115.531 178.895 115.565 178.98C116.068 180.183 117.023 180.829 117.808 181.651C118.453 182.321 118.916 183.096 119.018 183.731C119.12 184.435 119.656 185.148 120.081 185.553C120.543 185.978 120.955 186.09 121.339 186.297C121.393 186.328 121.369 185.984 121.305 185.876C120.744 184.965 120.255 184.102 119.935 183.184C119.891 183.062 119.704 182.848 119.582 182.732C119.113 182.287 118.651 181.842 118.202 181.349C117.757 180.849 117.363 180.279 117.104 179.517C116.19 178.756 115.854 177.716 115.313 176.751C114.943 176.085 114.685 175.344 113.981 174.79C113.716 174.586 113.522 174.019 113.329 173.611C113.033 173.023 112.819 172.405 112.483 171.827C112.268 171.453 111.81 170.879 111.589 170.858C110.987 170.804 110.542 170.563 110.189 170.185C109.825 169.818 109.557 169.312 109.319 168.714C109.217 168.459 108.88 168.238 108.663 167.99C108.313 167.593 107.942 167.209 107.633 166.784C106.532 165.329 105.431 163.875 104.14 162.169C104.123 162.155 103.881 161.904 103.599 161.744L103.593 161.751ZM105.805 165.734L105.655 165.757C105.312 165.625 104.962 165.516 104.629 165.35C104.547 165.309 104.52 165.071 104.469 164.925C104.575 164.925 104.717 164.877 104.785 164.932C105.088 165.187 105.37 165.469 105.655 165.744L105.805 165.734Z" fill="black"/>
<path d="M90.6616 153.986C90.9131 153.687 91.1408 153.36 91.4262 153.102C91.6029 152.942 92.0413 152.755 92.0821 152.806C92.9283 153.799 94.3182 153.265 95.2357 154.217C96.0004 155.009 97.2306 155.301 97.7607 156.446C98.1583 157.296 98.8923 157.758 99.7487 158.036C100.184 158.179 100.629 158.329 101.033 158.556C102.128 159.182 102.58 160.191 102.165 161.159C101.805 161.995 101.655 162.814 101.913 163.763C101.947 163.892 101.825 164.136 101.72 164.147C101.584 164.16 101.305 164.021 101.244 163.902C100.823 163.046 100.354 162.176 100.089 161.265C99.8609 160.446 99.5312 159.953 98.6782 159.549C97.5568 159.012 96.1363 158.859 95.5246 157.459C94.4269 157.289 93.7711 156.691 93.5264 155.617C93.5094 155.542 93.3055 155.444 93.1934 155.447C92.6258 155.454 92.1908 155.246 91.7966 154.961C91.3956 154.682 91.0422 154.322 90.6582 154.013V153.992L90.6616 153.986Z" fill="black"/>
<path d="M90.6623 154.01C90.54 154.159 90.404 154.302 90.2953 154.462C90.0268 154.859 89.7414 155.277 89.4661 155.688C89.3404 155.148 89.0005 154.54 89.1331 154.061C89.4763 152.827 89.3913 151.651 89.0141 150.407C88.7898 149.68 89.3302 149.286 90.0846 149.47C91.4575 149.837 91.7804 150.693 90.9512 151.801C90.438 152.491 89.7312 153.109 90.6589 153.983V154.003L90.6623 154.01Z" fill="black"/>
<path d="M122.991 188.904C123.358 189.505 123.616 190.13 123.779 190.596C123.942 191.062 124.01 191.371 123.918 191.391C123.898 191.395 123.711 191.163 123.67 191.089C123.562 190.885 123.405 190.565 123.426 190.531C123.517 190.382 123.415 190.069 123.225 189.692C123.025 189.322 122.736 188.887 122.474 188.479C122.301 188.207 122.083 187.969 121.907 187.701C121.788 187.517 121.713 187.296 121.621 187.089C121.747 187.211 121.879 187.31 121.995 187.469C122.406 188.037 122.807 188.632 122.991 188.907V188.904Z" fill="black"/>
<path d="M104.669 206.67C104.921 206.745 105.23 206.758 105.407 206.918C105.567 207.061 105.624 207.353 105.638 207.567C105.641 207.621 105.285 207.723 105.155 207.655C104.979 207.564 104.856 207.339 104.703 207.176L104.666 206.67H104.669Z" fill="black"/>
<path d="M96.3129 160.915C96.0207 160.749 95.7624 160.674 95.7522 160.586C95.7216 160.389 95.8134 160.181 95.8542 159.978C96.0139 160.039 96.279 160.073 96.3062 160.164C96.3707 160.362 96.3197 160.582 96.3129 160.915Z" fill="black"/>
<path d="M78.3061 145.827C78.3605 145.864 78.4217 145.891 78.4658 145.935L79.2542 146.731C79.1455 146.805 79.0368 146.945 78.9314 146.948C78.109 146.979 78.2347 146.381 78.2823 145.83L78.3061 145.823V145.827Z" fill="black"/>
<path d="M28.636 142.462C28.2928 142.724 27.9564 143.003 27.6097 143.288C27.5927 143.241 27.552 143.186 27.5622 143.142C27.7253 142.541 28.1467 142.425 28.6258 142.435L28.6326 142.462H28.636Z" fill="black"/>
<path d="M125.562 193.818C125.478 193.719 125.416 193.648 125.352 193.573C125.291 193.441 125.209 193.274 125.182 193.189C125.175 193.162 125.314 193.339 125.382 193.448C125.44 193.543 125.491 193.675 125.559 193.815L125.562 193.818Z" fill="black"/>
<path d="M28.6289 142.435C28.9823 142.177 29.3222 141.919 29.6722 141.681C29.6926 141.725 29.7334 141.803 29.7334 141.803C29.3663 142.024 29.0027 142.241 28.6357 142.462L28.6289 142.435Z" fill="black"/>
<path d="M91.1372 156.433C91.1134 156.634 91.144 156.871 91.0692 156.902C90.9401 156.96 90.7158 156.943 90.5968 156.865C90.5187 156.81 90.5561 156.589 90.5391 156.447C90.709 156.443 90.8755 156.436 91.1338 156.43L91.1372 156.433Z" fill="black"/>
<path d="M28.9219 140.872L28.9796 141.018L28.9219 140.872Z" fill="black"/>
<path d="M4.15408 177.87C3.81425 177.344 3.61375 176.365 2.95108 176.854C2.57386 177.143 2.43113 177.095 2.39035 176.895C2.34957 176.698 2.42094 176.351 2.4957 176.056C2.71319 175.073 2.86612 174.601 2.82874 174.18C2.78456 173.758 2.58745 173.395 2.17626 172.62C1.91459 172.137 1.63932 171.668 1.49999 171.087C1.42183 170.781 1.61553 170.17 1.80244 169.925C1.99954 169.674 2.33938 169.701 2.61804 169.609C2.53988 169.932 2.45492 170.255 2.38695 170.584C2.15927 171.804 2.33598 172.141 3.08021 171.713C3.54918 171.451 3.83804 171.366 4.1269 171.94C4.33759 172.362 4.64004 172.725 4.95609 172.1C5.07843 171.865 5.02066 171.193 4.88132 171.026C4.53809 170.628 4.39197 170.193 4.40556 169.745C4.43614 169.296 4.61286 168.831 4.91531 168.365C5.22116 167.917 5.3401 167.475 5.37408 167.036C5.41486 166.598 5.35029 166.16 5.26534 165.721C5.18038 165.222 5.20417 164.763 5.3333 164.338C5.47263 163.917 5.71391 163.529 6.04355 163.166C6.43436 162.755 6.85235 162.367 7.17519 161.888C7.48444 161.45 7.84466 160.848 7.87185 160.403C7.90244 159.669 7.50483 159.387 6.79458 159.713C6.02656 160.07 6.33921 159.132 6.50572 158.884C6.89993 158.326 7.41987 157.912 7.89904 157.45C8.75542 156.614 9.58121 155.802 9.68996 154.425C9.70695 154.194 9.82249 153.786 9.95502 153.712C10.9439 153.137 11.4979 152.271 11.9804 151.34C12.4596 150.408 12.8606 149.409 13.5199 148.634C15.3006 146.531 16.507 144.329 17.5605 141.892C17.778 141.386 17.9241 141.182 18.3285 140.805C19.7116 139.534 21.5807 138.358 21.2715 136.163C21.1185 135.096 21.0777 134.467 22.4235 134.416C22.5594 134.409 22.8483 133.77 22.991 133.407C23.0896 133.162 22.2162 132.424 23.3682 132.795C24.0003 132.999 24.4693 132.917 24.4897 132.017C24.5203 130.698 25.397 129.777 26.3146 129.832C27.3409 129.893 27.5923 129.135 28.0443 128.581C28.5065 128.024 28.7376 127.225 29.2269 126.729C31.5072 124.374 33.1826 121.546 33.937 118.298C34.1137 117.485 34.4604 116.67 34.5181 115.881C34.5861 114.25 35.5104 113.102 36.343 112.011C36.5979 111.691 36.8188 111.447 36.9547 111.175C37.0907 110.899 37.1552 110.6 37.0533 110.152C36.9547 109.686 37.1824 109.051 37.264 108.493L37.2538 108.466C37.2232 108.164 37.2164 107.875 37.2266 107.589C37.2334 107.304 37.2402 107.015 37.2742 106.74C37.3387 106.183 37.4645 105.646 37.6276 105.112C37.8077 104.585 37.9538 104.048 38.1271 103.512C38.2971 102.975 38.4772 102.438 38.6335 101.894C38.8986 100.936 39.8841 99.9467 38.6811 99.0699C38.6675 99.0563 38.8068 98.4038 38.9733 98.2577C39.4797 97.8091 39.5408 97.4081 39.269 96.6707C39.0481 96.0692 39.0447 95.2944 39.0651 94.6113C39.0889 93.7583 38.7932 93.2961 38.2495 93.0345C37.546 92.698 37.5596 93.6326 37.2912 94.0744C37.0669 94.4346 37.0159 95.2672 36.4382 94.8254C36.0882 94.5603 35.7245 94.0268 35.4289 94.7336C35.2216 95.223 35.1434 96.0148 35.2997 96.4872C35.626 97.4931 36.5809 98.4276 34.9667 99.1175C34.8274 99.1786 34.8172 100.066 34.8138 100.555C34.824 101.238 34.8138 101.894 34.7424 102.557C34.6541 103.216 34.5147 103.879 34.0254 104.511C33.5462 105.163 33.4239 105.884 33.5326 106.597C33.6108 107.301 33.9404 107.997 34.4332 108.565C34.807 109.003 35.7891 108.871 35.4731 110.091C34.9055 109.839 34.3142 109.622 33.7603 109.323C33.5156 109.19 33.3763 108.762 33.1282 108.704C32.8597 108.64 32.299 108.762 32.2514 108.922C32.0679 109.445 31.8334 109.962 31.6058 110.481C31.3815 110.998 31.1538 111.518 30.9295 112.031C30.4911 113.064 30.226 114.131 30.3144 115.314C30.362 115.824 30.3314 116.32 30.2022 116.772C30.0799 117.227 29.8148 117.621 29.458 117.954C28.9211 118.444 28.0273 118.413 27.5482 118.909C27.1777 119.27 27.3205 120.551 27.0214 120.704C25.866 121.302 25.9815 122.26 25.8796 123.133C25.8286 123.562 26.0563 124.051 26.3146 124.347C26.3961 124.442 27.0146 124.051 27.3341 123.786C28.5031 122.828 29.56 121.723 30.729 120.748C31.0246 120.49 31.5752 120.52 31.9524 120.595C32.0985 120.625 32.1937 121.173 32.1223 121.472C31.949 122.128 31.3407 123.042 30.6372 123.796C29.9202 124.54 29.0978 125.115 28.5269 125.152C27.3069 125.237 26.566 126.066 26.3078 127.059C26.0631 128.013 25.4446 128.588 24.8023 129.118C24.16 129.651 23.4872 130.137 23.076 130.899C23.008 131.024 22.1822 130.817 21.7132 130.766C21.8764 130.331 21.9443 129.815 22.2162 129.478C22.9468 128.574 23.7726 127.755 24.5236 126.865C24.7921 126.539 24.996 126.121 25.1387 125.723C25.2067 125.533 25.1116 125.264 25.013 125.094C24.9722 125.023 24.6766 125.053 24.5848 125.145C23.5959 126.148 22.1754 127.018 21.6962 128.17C20.9044 130.032 19.8102 131.442 18.3693 132.724C18.1824 132.89 18.0362 133.349 18.077 133.576C18.1484 133.95 18.4237 134.229 18.563 134.579C19.0184 135.745 18.9674 135.785 17.7202 136.333C17.2308 136.547 16.3711 137.019 16.3643 137.213C16.3303 138.64 15.2598 139.218 14.417 139.945C13.282 140.9 12.378 141.947 12.1673 143.51C12.1096 143.986 11.6236 144.635 11.226 145.025C10.1046 146.099 9.38411 147.554 8.62968 148.954C7.87185 150.357 7.09024 151.717 5.82946 152.719C5.64255 152.872 5.61196 153.413 5.46244 153.749C4.37837 156.128 3.55258 158.656 2.54328 161.035C1.38445 163.73 0.545061 166.55 0.660604 169.544C0.691189 170.149 0.517874 170.873 0.354755 171.468C-0.185579 173.32 -0.0564428 175.301 0.392136 177.14C0.463501 177.425 0.524671 177.704 0.575646 177.979C0.630019 178.254 0.691189 178.523 0.735367 178.795C0.782944 179.066 0.816927 179.338 0.854309 179.62C0.898487 179.899 0.939267 180.185 0.97325 180.484C1.22473 182.618 1.73108 184.85 2.99186 186.726C3.88562 188.048 4.71141 189.363 5.55079 190.655C6.37659 191.953 7.20578 193.248 8.02478 194.536C9.56082 196.931 11.3313 199.232 13.6286 200.958C15.6642 202.505 17.6182 204.116 19.5961 205.631C21.1049 206.797 22.2536 207.969 23.375 209.257C23.7556 209.682 24.177 210.182 24.6018 210.525C25.2509 211.058 25.5431 211.449 25.7606 211.942C26.0291 212.574 26.3384 212.788 26.8345 212.883C27.2151 212.955 27.5108 213.094 27.82 213.366C28.1293 213.638 28.4827 214.025 28.9177 214.637C29.4852 215.398 29.961 216.22 30.5319 216.958C32.5641 219.649 34.304 222.582 35.2997 225.793C35.9386 227.7 36.1935 229.695 36.1357 231.7C36.0949 233.63 35.5206 235.679 35.1298 237.283C34.8512 238.449 34.3652 239.584 33.7773 240.637C33.485 241.167 33.1554 241.67 32.819 242.163C32.6456 242.404 32.4723 242.646 32.299 242.884L32.0305 243.234C31.9354 243.353 31.8776 243.451 31.7077 243.628C31.5684 243.777 31.429 243.927 31.2829 244.083C31.2082 244.158 31.1504 244.233 31.0552 244.311C30.9567 244.389 30.8581 244.467 30.7596 244.545C30.5557 244.702 30.3518 244.858 30.1445 245.018C30.1105 245.038 30.1037 245.055 30.0493 245.079L29.842 245.164L29.4206 245.334C29.1284 245.449 28.8361 245.565 28.5439 245.68C28.4895 245.779 28.4283 245.878 28.3638 245.98C28.3026 246.092 28.2176 246.146 28.1361 246.238C27.9729 246.398 27.7962 246.588 27.5957 246.761C27.4258 246.88 27.2831 247.013 27.1607 247.152L27.1336 247.2L27.0826 247.24C27.052 247.267 27.018 247.295 26.9874 247.322C26.9263 247.373 26.8719 247.437 26.8175 247.475C26.702 247.533 26.6068 247.618 26.5083 247.635C26.3485 247.696 26.1277 247.733 25.883 247.774C25.7538 247.787 25.6281 247.798 25.499 247.811L25.4514 247.818C25.4514 247.818 25.4786 247.825 25.4922 247.825L25.5873 247.842L25.7776 247.876C26.2704 247.974 26.6986 248.1 26.6408 248.515C26.634 248.566 26.719 248.627 26.8345 248.657C27.2593 248.559 27.6739 248.454 27.7962 248.403C28.4079 248.151 28.6424 247.94 29.0128 247.719C29.3017 247.828 29.5464 247.985 30.1581 248.022C30.763 248.059 31.7383 248.059 32.5675 247.937C32.9107 247.889 33.2539 247.838 33.5938 247.791L34.0967 247.723C34.2531 247.702 34.457 247.675 34.5487 247.668C35.0109 247.624 35.4697 247.59 35.9284 247.57C36.8426 247.529 37.7533 247.543 38.6641 247.641C38.9258 247.665 39.3268 247.553 39.6734 247.512C40.7982 247.393 41.9265 247.196 43.0615 247.166C43.9995 247.155 44.9408 247.196 45.8821 247.237C46.8201 247.284 47.758 247.325 48.6891 247.434C49.9091 247.56 50.8981 247.363 52.0195 247.203C53.0254 247.081 54.31 247.536 55.479 247.668C56.7908 247.801 58.1161 247.934 59.4347 248.066C59.873 248.114 60.3216 248.277 60.7362 248.267C61.6164 248.26 62.4931 248.253 63.3699 248.246C64.2467 248.239 65.1336 248.192 66.0138 248.219C66.6119 248.229 67.3086 248.195 67.8149 248.386C68.4402 248.62 69.0723 248.773 69.7078 248.895C70.3433 249.031 70.9856 249.15 71.6414 249.279C72.3449 249.419 73.0246 249.589 73.711 249.704C74.3975 249.813 75.0771 249.922 75.7942 249.874C76.0627 249.857 76.5248 250.034 76.7185 250.207C77.2555 250.69 77.8366 250.921 78.4551 251.026C79.0668 251.145 79.7159 251.135 80.3887 251.114C80.4703 251.114 80.5518 251.114 80.6368 251.111C80.7218 251.111 80.8679 251.125 80.98 251.135C81.2213 251.155 81.4626 251.179 81.7005 251.21C82.1762 251.267 82.6418 251.369 83.0938 251.515C83.8244 251.743 84.606 252.059 85.4148 252.358C86.2203 252.664 87.063 252.98 87.9092 253.276C88.7554 253.571 89.605 253.847 90.39 254.061C91.1852 254.285 91.9464 254.489 92.514 254.55C92.8776 254.591 93.5267 254.836 94.2675 255.124C95.0049 255.413 95.8341 255.75 96.4186 255.93L97.0201 256.124C97.2308 256.191 97.4415 256.263 97.6386 256.338C98.0464 256.484 98.478 256.647 98.93 256.82L101.846 257.965C102.865 258.37 103.919 258.784 104.925 259.168L105.298 259.311L105.482 259.379C105.533 259.396 105.56 259.4 105.601 259.413L106.043 259.525C106.328 259.593 106.586 259.648 106.801 259.678C105.339 258.557 103.297 257.106 100.724 255.457C100.391 255.247 100.32 255.145 100.266 255.043C100.211 254.944 100.181 254.842 99.9733 254.666C99.1407 253.955 98.1892 253.174 97.1153 252.345C95.9836 251.468 94.6141 250.52 93.581 249.701C92.5513 248.868 91.525 248.039 90.5021 247.21C89.5302 246.411 88.5515 245.616 87.566 244.838C87.1412 244.477 86.7198 244.117 86.295 243.757C85.877 243.407 85.4624 243.064 85.0512 242.734L84.5653 242.354L84.1269 242.024C83.8312 241.806 83.5322 241.599 83.2263 241.395C82.618 240.981 81.8772 240.026 81.6937 239.438C81.1703 237.541 79.8756 236.342 78.5095 234.986C76.6064 233.154 74.9684 230.894 74.061 228.305C73.4154 226.551 72.6337 224.679 72.6745 222.861C72.6881 222.585 72.61 222.13 72.5046 221.858C72.4264 221.661 72.3517 221.461 72.2837 221.26C72.2225 221.056 72.175 220.852 72.1274 220.645C72.0322 220.23 71.9541 219.812 71.8895 219.388C71.8487 218.963 71.8215 218.531 71.8012 218.093C71.7944 217.875 71.7808 217.654 71.7808 217.437C71.791 217.216 71.7978 216.995 71.808 216.774C71.8351 216.319 71.7842 215.836 71.7876 215.354C71.7876 214.875 71.7944 214.392 71.8419 213.943C72.0153 212.832 71.9915 211.894 72.1104 210.841C72.3075 208.792 72.7493 206.678 73.5343 204.7C74.2989 202.743 75.3286 200.88 76.4671 199.103C76.7185 198.736 76.97 198.352 77.2147 197.978C77.2895 197.866 77.405 197.662 77.388 197.679C77.3302 197.737 77.2215 197.849 77.1229 197.982C76.654 198.634 76.1646 199.273 75.7466 199.963C75.5325 200.303 75.3014 200.636 75.0975 200.986L74.5028 202.046C73.5003 203.912 72.6847 205.889 72.0356 207.922C71.9745 208.143 71.8487 208.316 71.7536 208.527C71.1147 209.899 71.1079 209.947 71.3152 210.997C71.3492 211.167 71.4239 211.439 71.3934 211.558C71.2438 212.187 71.1555 212.842 71.0569 213.502C70.9856 214.164 70.9516 214.837 70.8938 215.507C70.87 216.176 70.8496 216.839 70.7817 217.495C70.7545 218.147 70.6899 218.79 70.5506 219.422C70.4826 219.812 70.6457 220.737 70.8088 221.206C71.0705 221.899 71.3118 222.531 71.407 223.163C71.5327 223.788 71.5531 224.404 71.3696 225.083C71.3016 225.284 71.4987 226.018 71.6346 226.218C71.8385 226.507 71.9983 226.799 72.1206 227.095C72.2599 227.387 72.3687 227.676 72.4468 227.968C72.61 228.549 72.6337 229.137 72.6575 229.651C72.6813 230.16 72.7833 230.609 72.9464 230.993C73.1129 231.377 73.3372 231.703 73.6396 231.951C74.2581 232.475 74.6897 233.035 75.0296 233.633C75.3796 234.228 75.5835 234.894 75.6922 235.655C75.8112 236.338 76.0966 236.719 76.6777 236.858C76.9292 236.92 77.1603 236.831 77.4084 236.841C77.6531 236.855 77.9249 236.954 78.275 237.375C78.5604 237.722 78.9037 238.109 79.1959 238.486C79.4984 238.857 79.7634 239.21 79.862 239.526C80.229 240.719 80.8305 241.755 81.5645 242.758C81.9452 243.244 82.3666 243.72 82.8185 244.192C83.0768 244.464 83.2025 244.569 83.3894 244.736C83.5662 244.892 83.7531 245.048 83.9536 245.211C84.307 245.511 84.606 245.782 84.8575 246.061C85.109 246.34 85.3061 246.601 85.4556 246.819C85.7581 247.274 85.8125 247.543 85.9688 247.794C86.0469 247.913 86.5091 248.199 87.0868 248.555C88.3204 249.306 89.8633 250.275 91.627 251.417C91.9498 251.628 92.2727 251.838 92.5955 252.049L93.0917 252.375L93.3431 252.542L93.4689 252.627C93.4893 252.644 93.4757 252.64 93.4825 252.65C93.5029 252.773 92.8878 252.525 91.977 252.049C91.0527 251.57 89.8361 250.87 88.3646 249.986C87.7121 249.592 86.6926 248.98 85.8396 248.467C85.7479 248.453 85.3537 248.256 85.6459 248.477C86.0163 248.742 86.3324 248.97 86.645 249.194C87.0155 249.463 87.3009 249.69 87.2126 249.68C86.9135 249.643 86.4921 249.538 86.0333 249.402C85.5508 249.255 85.0648 249.106 84.5823 248.96C84.3784 248.899 84.1031 248.746 83.8482 248.535C83.59 248.321 83.3589 248.049 83.1312 247.719C82.6418 247.033 82.3428 246.714 82.2476 246.608C82.1423 246.503 82.1864 246.595 82.1694 246.68C82.1457 246.788 82.0607 246.856 81.9214 246.968C81.85 247.023 81.7617 247.087 81.6461 247.162L81.6019 247.193C81.6019 247.193 81.5238 247.203 81.4864 247.21L81.2281 247.24C81.0582 247.264 80.8883 247.295 80.7184 247.332C78.9852 247.719 78.9478 247.662 77.9691 246.496C76.8681 245.195 76.8613 245.201 74.6659 245.198C73.6804 245.215 72.6575 245.225 71.6856 245.065L70.2923 244.827L68.8956 244.603C67.9644 244.45 67.0367 244.294 66.1022 244.161C65.9051 244.131 65.6434 244.274 65.4769 244.376C65.4225 244.409 65.5245 244.61 65.6366 244.661C65.9866 244.814 66.3706 244.96 66.7376 245.106C66.2857 245.096 65.8303 245.113 65.3885 245.072C64.8516 245.014 64.0496 244.97 63.8457 244.76C62.6495 243.546 61.1304 244.131 59.6895 244.263C58.7176 244.345 57.7049 244.484 56.7568 244.393C55.4858 244.308 54.2216 244.192 52.954 244.083C52.322 244.019 51.6865 243.995 51.051 243.968C50.4155 243.941 49.78 243.917 49.1411 243.907C47.7886 243.862 46.4327 243.92 45.0767 243.971C44.3971 243.998 43.7208 244.022 43.0411 244.059L41.0089 244.223C39.7312 244.328 38.3412 244.443 38.0252 245.171L38.2393 245.198L38.0218 245.174C37.111 245.014 36.2479 245.086 35.4221 245.239C35.0075 245.317 34.6065 245.419 34.2055 245.531C33.9778 245.626 33.7297 245.735 33.4375 245.85C33.203 245.946 32.9141 246.068 32.6321 246.146C32.3568 246.224 32.0883 246.258 31.9966 246.163C31.9082 246.068 31.8267 245.993 31.7349 245.939C31.7111 245.925 31.6907 245.912 31.6669 245.901C31.6567 245.895 31.6363 245.895 31.6363 245.884L31.6465 245.85L31.6873 245.721C31.5276 245.687 31.2863 245.728 30.9635 245.799C30.7902 245.837 30.6202 245.878 30.4469 245.918L30.2192 245.969L30.4197 245.925C30.8683 245.813 31.1776 245.687 31.6499 245.415C31.8368 245.293 32.0747 245.14 32.2956 244.987C32.3568 244.946 32.418 244.902 32.4791 244.861C32.5607 244.804 32.6253 244.749 32.683 244.695C32.751 244.624 32.8122 244.545 32.8733 244.464L33.2947 243.903C33.451 243.706 33.5802 243.489 33.7229 243.285C34.2768 242.455 34.773 241.633 35.3949 240.906C35.5104 240.766 35.8333 240.015 35.9012 239.693C36.1969 238.422 36.6863 237.27 37.0533 235.866C37.4271 234.412 37.699 232.903 37.7329 231.37C37.7669 229.841 37.597 228.284 37.0873 226.83C36.9411 226.347 36.7508 225.62 36.6013 225.008C35.9556 222.698 35.0245 220.468 33.8249 218.382C32.785 216.618 32.7306 216.662 32.4315 217.179C32.3976 217.236 32.2752 217.179 32.1937 217.179C32.1087 216.988 31.9422 216.703 31.949 216.625C31.9966 216.078 31.6329 215.286 30.7358 214.175C30.5489 213.95 30.3246 213.597 30.2464 213.403C30.0017 212.761 29.5804 212.142 29.1148 211.551C28.6322 210.98 28.0953 210.45 27.5685 210.046C26.3995 209.148 25.7097 208.309 24.9145 207.232C24.1158 206.144 23.2833 205.06 22.0938 204.041C20.5442 202.726 19.0082 201.353 17.5095 199.97C17.1459 199.637 16.8604 199.168 16.5512 198.756C16.0788 198.138 15.6166 197.502 15.202 196.867C14.6379 195.973 14.1112 195.355 13.3635 195.331C12.9354 195.321 12.6465 195.025 12.7722 194.563C12.8776 194.175 12.8266 193.785 12.1469 193.346C10.3764 192.191 8.95252 190.587 8.87436 188.344C8.86756 188.123 8.65686 187.766 8.52093 187.498C8.34082 187.175 8.16411 186.832 7.9772 186.505C7.80388 186.176 7.63397 185.856 7.42327 185.588C7.1684 185.272 6.9543 184.898 6.73681 184.528C6.51592 184.157 6.28823 183.79 6.07074 183.457C5.60517 182.805 5.08522 182.325 4.27302 182.421C4.06233 182.448 3.77347 182.315 3.53219 182.05C3.29431 181.785 3.13459 181.384 3.15837 180.905C3.17197 180.477 2.96127 179.852 2.86952 179.321C2.80155 178.788 2.9035 178.356 3.57637 178.343C3.77347 178.336 3.94339 178.027 4.1269 177.86L4.15408 177.87ZM5.36389 185.357C5.47943 185.16 5.56439 184.895 5.72751 184.796C5.88043 184.704 6.23726 184.708 6.28483 184.81C6.40377 185.054 6.52272 185.33 6.64166 185.591C6.7606 185.853 6.85575 186.111 6.88294 186.349C6.9543 187.019 6.88294 187.613 6.88294 188.242C6.88294 188.252 6.70962 188.154 6.5533 188.072C6.57029 187.797 6.5533 187.539 6.50233 187.297C6.45815 187.053 6.39018 186.815 6.28823 186.594C6.08433 186.149 5.7479 185.751 5.36049 185.36L5.36389 185.357ZM28.7716 212.04C28.8837 212.17 28.9007 212.411 28.9619 212.601C28.6152 212.272 28.2516 211.976 27.9016 211.629C27.7351 211.466 27.6195 211.181 27.2117 210.525C27.9967 211.259 28.4045 211.626 28.775 212.04H28.7716ZM16.3881 141.155C16.1842 141.172 15.9667 141.226 15.7798 141.192C15.7152 141.179 15.6948 140.849 15.7152 140.832C15.8987 140.713 16.0958 140.638 16.3915 140.499C16.3915 140.788 16.3881 140.971 16.3881 141.155ZM41.9706 246.095C41.7905 246.146 41.6138 246.224 41.4303 246.234C41.2298 246.245 41.0259 246.19 40.822 246.166C41.0463 246.119 41.2706 246.071 41.4439 246.037C41.6682 246.061 41.8211 246.078 41.9706 246.095Z" fill="black"/>
<path d="M54.1771 81.0251C53.8814 80.811 53.5348 80.7567 53.2188 80.6445C53.4294 80.9368 53.7149 81.246 53.7999 81.5247C53.9698 82.0175 54.1737 82.5986 54.2892 83.1117C54.398 83.6317 54.4218 84.0802 54.2552 84.3283C53.6911 85.1711 54.2552 85.8168 54.731 86.7139C55.0199 87.2407 55.2476 87.849 55.5738 88.3112C56.4302 89.5447 56.855 90.9177 57.0521 92.4333C57.1506 93.1504 57.5652 94.3228 57.922 94.7136C58.9347 95.7705 59.2542 97.2759 59.5702 98.9105C59.7707 99.9844 60.0562 101.055 59.4649 101.558C59.1828 101.796 59.2916 102.445 59.6144 103.101C60.3722 104.671 60.3213 104.677 60.1513 106.312C60.063 107.094 59.8863 108.13 60.7019 108.144C60.7528 108.144 60.933 108.575 60.9296 108.698C60.9228 109.571 61.0893 110.349 61.2966 111.097C61.5005 111.845 61.7553 112.558 61.9558 113.296C62.2787 114.502 62.4452 115.705 62.2821 116.527C62.1088 117.428 62.3297 118.617 62.5607 119.365C62.8156 120.16 63.1724 120.544 63.4511 121.023C63.4919 121.095 63.5972 120.67 63.5769 120.497C63.3933 119.069 63.2982 117.734 63.3458 116.446C63.3526 116.273 63.2608 115.906 63.1928 115.691C62.9278 114.872 62.6457 114.06 62.4384 113.187C62.2277 112.317 62.0918 111.386 62.1495 110.326C61.6024 108.84 61.6738 107.406 61.5854 105.925C61.5141 104.905 61.5786 103.872 61.1436 102.768C60.9805 102.356 61.0213 101.571 61.0077 100.97C60.9805 100.093 61.0417 99.2368 60.9771 98.3464C60.9296 97.7721 60.746 96.807 60.5489 96.6303C60.0154 96.1545 59.6892 95.5768 59.5158 94.9039C59.3391 94.2344 59.3187 93.4664 59.3255 92.5998C59.3289 92.2294 59.0911 91.7367 58.9653 91.3017C58.7648 90.6016 58.5201 89.905 58.3298 89.2049C57.99 87.9917 57.5958 86.7853 57.0725 85.5449C56.5491 84.3045 55.8966 83.0268 54.9451 81.7218C54.9179 81.7048 54.5815 81.2902 54.1771 81.0217V81.0251ZM56.719 86.8737L56.5593 86.8227C56.2229 86.4829 55.8694 86.177 55.5296 85.827C55.4447 85.7454 55.4515 85.4464 55.4073 85.2493C55.5262 85.2934 55.6859 85.3002 55.7505 85.3988C56.0496 85.844 56.3112 86.3265 56.5593 86.8057L56.719 86.8737Z" fill="black"/>
<path d="M39.2324 88.2973C38.8619 88.175 38.4677 88.1036 38.1279 87.9201C37.9172 87.8079 37.6114 87.3967 37.6521 87.3152C37.8492 86.9142 37.975 86.5438 38.0327 86.1665C38.1143 85.7995 38.1177 85.4121 38.1721 85.0383C38.2163 84.6577 38.257 84.2669 38.3862 83.8829C38.4983 83.4887 38.7022 83.108 39.0081 82.7342C39.5416 82.1259 39.98 81.4259 40.5713 80.8108C41.1388 80.1821 41.8695 79.6384 42.7666 79.4073C44.0988 79.0742 45.2304 78.5509 46.5184 78.0683C47.1742 77.8067 47.8709 77.6537 48.6423 77.6367C49.689 77.6333 50.6405 77.9698 51.2556 78.4591C51.8775 78.9451 52.1834 79.5466 52.1494 80.1175C52.0916 81.1064 52.1834 82.0138 52.5708 83.1148C52.6218 83.2712 52.4994 83.5226 52.3873 83.5192C52.2445 83.5091 51.9285 83.3357 51.8503 83.1964C51.5751 82.7172 51.2488 82.2585 50.892 81.8201C50.5318 81.3885 50.1376 80.9841 49.7332 80.5831C49.5497 80.4132 49.3662 80.2467 49.1657 80.1345C49.0671 80.0733 48.9652 80.019 48.8598 79.968C48.7545 79.9238 48.6457 79.8864 48.5336 79.8525C48.0884 79.7165 47.582 79.7131 47.0009 79.8694C46.2329 80.0767 45.577 80.5389 44.9585 80.9433C44.3332 81.3715 43.7453 81.7657 42.8652 82.0172C42.318 83.1862 41.6588 83.8727 40.4693 84.4232C40.3844 84.4606 40.2756 84.7223 40.2858 84.8548C40.313 85.5073 40.1465 86.0612 39.929 86.6151C39.8746 86.7545 39.8135 86.8904 39.7489 87.0263C39.6911 87.1656 39.6334 87.305 39.5756 87.4443C39.4464 87.7196 39.3479 88.005 39.2527 88.2871L39.2324 88.3007V88.2973Z" fill="black"/>
<path d="M39.2545 88.2842C39.4414 88.342 39.6216 88.4133 39.8119 88.4507C40.2774 88.5459 40.7804 88.6512 41.2663 88.7531C41.0285 88.9061 40.8042 89.1643 40.5731 89.3954C40.3352 89.6231 40.1177 89.8338 39.8628 89.9018C38.5749 90.245 37.5418 91.1558 36.6446 92.5151C36.1179 93.3171 35.4994 93.0282 35.2955 92.0121C35.1154 91.0776 35.2037 90.3266 35.5164 89.8508C35.8256 89.375 36.3388 89.1779 37.0286 89.2901C37.4534 89.3581 37.8816 89.4906 38.2588 89.4124C38.636 89.3309 38.9589 89.0386 39.2308 88.2978L39.2511 88.2842H39.2545Z" fill="black"/>
<path d="M64.0117 125.149C64.1953 127.038 64.1341 128.768 63.9574 128.703C63.937 128.697 63.8452 128.306 63.835 128.194C63.8078 127.881 63.7739 127.405 63.8078 127.375C64.0831 127.113 63.8758 125.624 63.6923 124.326C63.6345 123.895 63.5224 123.48 63.4612 123.048C63.4204 122.756 63.4306 122.447 63.4238 122.145C63.4952 122.369 63.5835 122.566 63.6311 122.824C63.801 123.755 63.9438 124.71 64.0117 125.152V125.149Z" fill="black"/>
<path d="M85.2918 247.9C84.9724 247.709 84.4083 247.404 84.4694 247.421C84.5238 247.434 85.1559 247.733 85.6521 247.961C85.7744 248.015 86.7769 248.539 86.906 248.627C87.076 248.743 86.7599 248.61 86.6342 248.569L85.2918 247.9Z" fill="black"/>
<path d="M46.4219 82.5503C46.2927 82.6182 46.1874 82.6726 46.1092 82.7338C46.0311 82.7949 45.9733 82.8289 45.9393 82.8085C45.7796 82.727 45.6505 82.5367 45.4941 82.4041C45.6097 82.2988 45.766 82.0983 45.8544 82.1153C46.0447 82.1493 46.1976 82.343 46.4219 82.5469V82.5503Z" fill="black"/>
<path d="M37.2578 108.469C37.285 108.377 37.2986 108.282 37.336 108.201C37.4413 107.953 37.5637 107.711 37.6554 107.457L37.9375 106.695C38.0428 106.787 38.2127 106.845 38.2433 106.981C38.5152 108.058 37.8321 108.248 37.268 108.496L37.2578 108.469Z" fill="black"/>
<path d="M5.1116 179.79C5.04363 180.368 5.04363 180.942 5.00965 181.53C4.96207 181.493 4.89411 181.476 4.86692 181.418C4.52369 180.65 4.73099 180.174 5.08441 179.767L5.1116 179.79Z" fill="black"/>
<path d="M64.5894 132.608C64.5486 132.438 64.5181 132.316 64.4875 132.19C64.4807 131.993 64.4637 131.745 64.4739 131.626C64.4739 131.589 64.5418 131.885 64.5622 132.054C64.5792 132.204 64.5792 132.394 64.5894 132.605V132.608Z" fill="black"/>
<path d="M5.08543 179.766L5.16019 178.907C5.19418 178.621 5.23835 178.336 5.27574 178.054C5.32331 178.081 5.40827 178.128 5.40827 178.132C5.3539 178.404 5.28593 178.682 5.24175 178.958L5.10922 179.79L5.08203 179.766H5.08543Z" fill="black"/>
<path d="M41.5449 86.8462C41.7522 86.8156 41.9799 86.7341 42.0241 86.7986C42.1056 86.9176 42.1362 87.1487 42.0819 87.2812C42.0411 87.3696 41.8304 87.3933 41.691 87.4511C41.6469 87.2812 41.5959 87.1079 41.5449 86.8462Z" fill="black"/>
<path d="M4.1543 177.871L4.30382 177.969L4.1543 177.867V177.871Z" fill="black"/>
<path d="M40.2913 92.1371C43.8154 91.0054 46.2689 88.5077 46.2689 85.5987C46.2689 85.5477 46.2655 85.4934 46.2621 85.4424H40.9234L36.6721 90.3903L30.9085 85.4424H25.8994C25.8994 85.4934 25.8926 85.5443 25.8926 85.5987C25.8926 89.568 30.4531 92.7862 36.0808 92.7862C36.1351 92.7862 36.1861 92.7828 36.2371 92.7794C37.6814 92.7624 39.0509 92.5347 40.2913 92.1371Z" fill="white"/>
<path d="M40.9197 85.4424H37.4432H30.9082L36.6718 90.3937L40.9197 85.4424Z" fill="black"/>
<path d="M60.0862 85.4424H55.0771C55.0771 85.4934 55.0703 85.5443 55.0703 85.5987C55.0703 88.4805 57.4831 90.9613 60.9562 92.1065C62.0029 92.4531 63.1413 92.6774 64.3443 92.7522C64.6468 92.7726 64.9492 92.7862 65.2585 92.7862C70.8861 92.7862 75.4467 89.568 75.4467 85.5987C75.4467 85.5477 75.4433 85.4934 75.4399 85.4424H70.1011L65.8498 90.3903L60.0862 85.4424Z" fill="white"/>
<path d="M60.9593 85.4424H60.0859L65.8495 90.3937L70.1008 85.4424H63.4333H60.9593Z" fill="black"/>
</svg>
