<svg fill="none" height="183" viewBox="0 0 140 183" width="140" xmlns="http://www.w3.org/2000/svg"><path d="m134.154 145.528c-1.173-.337-.707-.459-.612-.969.034-.5.058-.819.024-1.081-.082-.21-.163-.421-.245-.632-.132-.207-.323-.442-.608-.778-.394-.469-.554-.982-.282-1.24.03-.031.047-.065.074-.095-.638-1.679-1.274-3.358-1.916-5.037-.078-.064-.157-.129-.241-.19-.368-.248-.85-1.173-.976-1.767-.268-1.258-.676-2.355-1.38-3.402-.265-.398-.435-.921-.638-1.397-.313-.73-.646-1.352-.255-1.91-.31-.72-.619-1.44-.931-2.161-.021.19-.038.384-.034.598 0 .14-.15.313-.235.272-.112-.051-.313-.323-.336-.465-.146-.901-.32-1.822-.398-2.692-.533-1.206-1.074-2.406-1.624-3.602-.602-.724-1.173-1.489-1.349-2.59-.813-.744-1.21-1.648-1.244-2.725 0-.075-.146-.272-.231-.333-.864-.608-1.227-1.696-1.72-2.668-.115.061-.238.109-.343.184l-.806.601c-.013-.547-.18-1.274-.01-1.611.259-.516.377-1.108.415-1.76-.306-.591-.608-1.183-.921-1.771.095.303.149.575-.187.595-.401.024-.775-.2-1.128-.822-.282-.496-.605-1.043-.969-1.387-.448-.421-.584-.707-.499-1.189.013-.078-.031-.241-.078-.381-.048-.142-.099-.265-.106-.265-.989-.153-.866-1.135-1.176-1.828-.669-1.5668-1.196-3.2387-2.555-4.4213.037.0611.081.1223.109.1835l.513 1.118c-.089-.0034-.191.0408-.269-.017-.628-.4723-.469-.8801-.374-1.2913-.261-.3365-.516-.7884-.798-.9822-.537-.367-.588-.717-.768-1.3083-.303-.9855-.738-2.0424-1.659-2.8376-.455-.384-.866-.9312-1.308-1.3797-1.784-1.7977-3.205-3.813-4.428-6.0185-.258-.4757-.768-.8597-1.081-1.3253-.309-.4622-.805-.8258-.6657-1.4851.1287-.5913-.4418-1.4307-1.3525-1.7909-.6253-.2345-.6525-.5641-.4792-.9413.3194-.6865-.2413-.2821-.4078-.4044-.2515-.1801-.6932-.52-.6898-.6117.0135-.9244-.4418-1.0433-1.2065-1.1555-1.5632-.2412-2.3924-1.6957-3.3439-2.8512-.2821-.3364-.435-.4689-.8122-.6966-1.8181-1.0739-3.5411-2.1919-5.213-3.6566-1.2302-1.0841-3.1367-1.5157-4.0746-3.0347-.0612-.102-.384-.2277-.5675-.2685-1.0909-.2447-1.7468-.9277-2.3925-1.6414-.3602-.401-.6694-.8292-1.101-1.1758-.1903-.1529-.921-.5131-.6695.0816.2277.5505-.0068.7884-.6015.6592-.3602-.0815-.8292-.4417-1.169-.717-.3704-.3025-.6525-.6661-.955-1.0093-.5267-.5947-1.1622-.9312-1.9914-.9957-.7238-.051-1.4579-.1461-2.0967-.7646-.6627-.6253-1.3832-.904-2.1648-.6015-.1631.0577-.7272-.0646-.8937-.1972-.452-.367-.0816-.4995.299-.5505.5234-.0747.5064-.299.3976-.6898-.0442-.1462-.0577-.2617-.0442-.3467-.3806-.1495-.768-.2854-1.152-.4282-.6729.0612-.9243-.0577-1.8249-.6422-.3296-.1122-.6593-.2243-.9923-.3297-.0034.0646.0034.1495.0442.2753.1869.6117-.6321.4758-1.1521.5573l-.1257.0714.1257-.0748c-.0713-.1835-.2548-.4078-.1937-.5505.136-.3297.0476-.5302-.1529-.6661-1.2404-.2583-2.09-.4146-2.8546-.5709-.1461.0782-.2549.1767-.2956.2854-.503 1.2472-2.2939.7987-3.6804.9516-.5811.0408-1.2472-.0476-1.8759-.085-.2549-.017-.6015-.0578-.751-.1665-1.5361-1.0603-3.2794-1.0025-4.8834-.2617-.6117.2651-.8734.102-1.0671-.2311-.2277-.3908-.5573-.3602-.768 0-.367.6321-.9923.6593-1.8079.5948-.5913-.068-1.1928-.0442-1.8011-.0476-.3976.0102-.8292-.034-1.1929.0713-1.5054.4724-2.9633 1.0807-4.2852 1.8623-1.0127.5879-1.9915.8394-3.011 1.0807-.9923.2617-1.7943.5981-2.4535 1.57-.6763.9244-1.3118 1.5225-2.3755 1.7773-.1631.034-.3976.2107-.4927.3807-.2243.3806-.486.7782-.7817.9923-.2922.2243-.615.3296-.9753.3228-.1053-.0034-.2684.2073-.401.3229.0884.0917.1564.231.2719.2616.9957.2923 1.0331.3195.3058 1.6618-.8291 1.5938-1.6006 3.2182-2.1613 4.9344-.1597.4451-.367.9855-.3194 1.3763.2718 2.3346-.3093 4.4654-.3908 6.7389 0 .5369-.0238 1.0501.0271 1.5394.0782.486.2277.9481.537 1.3729.1563.2107.3772.7715.3228.9142-.2922.802-.0645 1.5156.2617 2.2123-2.0288.4112-4.0032.7986-4.2377-.1971-.4282-1.8419-.7511-3.6328-.6967-5.4849.0204-.7476-.1223-1.7026-.1835-2.5453-.1835-2.4808-.0646-5.0024.4146-7.507.1054-.5947.4112-1.203.6015-1.8113.6287-1.8113 1.4137-3.5852 2.4094-5.2028.4452-.7204.9923-1.4273 1.5429-2.0798.5641-.6898 1.1044-1.3491 1.5802-1.9336 1.0739-1.3288 2.1885-2.3653 3.7313-3.2012 1.1963-.6355 2.3313-1.1759 3.5445-1.74 1.2234-.5641 2.4774-1.0637 3.7518-1.4817 1.536-.5165 3.072-1.0908 4.6659-1.4714.4825-.1292 1.0534-.3263 1.4307-.3297 2.6235.0374 5.1756 0 7.8603.068.7884.0204 1.7705.2685 2.4774.5233.7034.2481 1.1826.5981 1.7467.9074.1087-.2413.085-.5301.3976-.7035.1291-.0713 1.1962.0544 1.4681.1903 1.0535.5098 2.1341.8904 3.2692 1.1725.4791.1223.7578.1733 1.0942.2107.3229.034.6151.0645.853.0509.0238-.0169-.0204-.1121-.0306-.1665-.0883-.333-.1631-.6762-.1903-.9481-.0136-.1393-.017-.2651-.0068-.3874.0068-.0612.0136-.119.0272-.1733.0102-.1054.0204-.2277.0374-.3195.2413-1.4748.1325-2.9021-.2311-4.1459-.8496-3.1945-1.0263-6.6913-1.8997-9.9741-.6049-2.2735-.6524-5.2708-.9855-7.9419l-.2481-1.971-.1121-.8768c-.0068-.0306-.034-.1393-.0544-.2243l-.0577-.2855-.1054-.5539v-.0102l-.0034-.0102-.0306-.2073.034.1733c-.0408-.214-.0849-.5029-.1121-.7782-.2345-1.067-.6593-2.1817-.7884-3.6872-.0408-1.05 0-2.1069.7068-3.3235.4962-.8054.9108-1.638 1.2234-2.4808-3.4731-1.1452-5.8859-3.626-5.8859-6.50779 0-.05097.0034-.10534.0068-.15632h5.8859c-.0408-.10875-.0816-.21749-.1291-.32284-.4248-.99911-.8088-2.16133-1.4341-3.12306-1.0195-1.51565-1.7536-1.85209-2.7051-1.621-.6321.15632-.9787.10535-1.4579-.55393-.3976-.48596-.9141-.77482-1.8793-.84958-.632-.03059-1.3797-.2039-2.0729-.27187-2.3755-.21069-4.863-.45537-7.6021-1.308353-1.1588-.3840104-1.1282-.4281886-1.4681-.39760367-.2854.03398327-.4893.29565467-.5131.55732567-.0204.142729-.0068.224289.0068.401002l.0204 1.247189c.0238.81899.0747 1.6108.1801 2.36523l.0951.63889.0884.77482c.0408.51654.0646 1.03648.0544 1.55643-.0034.30585-.034.6083-.0578.91075h4.1697c0 .05097.0068.10195.0068.15632 0 2.90899-2.4536 5.40669-5.9776 6.53839-.1869.3976-.3772.7918-.5845 1.1758-.2617.4962-.537.9821-.819 1.4613-.3025.4995-.4792.8394-.9074 1.4987l-.0679.0781c-.0238.0238-.034.0612-.051.0918l-.4248 1.0331-.4384 1.1248.0782-.2413-.3093.938-.2888.7204-.5472 1.4171c-.3534.9515-.6796 1.9099-.9753 2.8784-.8292 2.7017-2.1002 5.1994-3.31 7.6564-.6728 1.3627-1.1792 2.5624-1.6447 3.9761-.7443 2.2666-1.638 4.5401-2.8648 6.6437-.3908.6729-.8258 1.5292-1.0637 2.2599-1.1656 3.6226-2.7391 6.9733-4.411 10.4124-1.4715 3.028-2.7153 6.2937-4.0508 9.4576-.1734.4588-.4486 1.2846-.7273 1.5462-.2243.2243-.469.4486-.7476.6627-.2719.2175-.6559.4214-.8122.5131-.418.2413-.836.5064-1.2506.7885-.4146.282-.8224.5777-1.2302.8869l-.6083.469-.5403.5505c-.7171.7375-1.4409 1.4749-2.15457 2.2055-.62869.8054-1.27437 1.5735-1.97102 2.2837-.54714.4792-1.05688 1.4171-1.24379 1.9608-.14273.4554-.30925.8836-.49956 1.2948-.09515.2039-.1937.4078-.29905.6049l-.26167.6219c-.36362.8224-.8054 1.6142-1.29816 2.4332-.33983.6253-.63549 1.2812-.90395 1.971-.23109.6967-.50636 1.4103-.37042 2.2429.02718.2209-.45198 1.3084-.73404 1.8861-.74423 1.4647-.64908 1.5904-.11894 2.5487.16991.2889.3976.3908.53693.7443.08496.2175.12234.8156.06117 1.1316-.16312 1.22-.17331 2.4264-.18011 3.6464.10195 1.2132.31944 2.4438.59471 3.7178.51315 1.536.46557 3.602.96512 5.39.03739.166-.01699.445-.07136.414-.13593-.074-.33644-.251-.44518-.492-.22769-.507-.45538-1.085-.6083-1.632-.12574-.768-.25148-1.532-.37382-2.297l-.18351-1.142c-.05777-.38-.06117-.771-.10195-1.155-.05097-.574-.26847-1.169-.41119-1.7605-.12234.1869-.31265.4175-.44858.6185.43498 3.949 1.50206 7.813 3.15024 11.381-.03058-.102-.06117-.204-.08835-.306-.14953-.52-.33644-1.407-.24808-1.39.26847.055.67967.306.98891.738.31605.438.66268.849.95493 1.342.29226.493.63209 1.013.80541 1.767.12234.371 1.12824 1.387 1.49186 1.93.43499.782.36702 1.502.79521 2.335.59131 1.115 1.63461 1.927 2.63711 2.593 2.4706 1.458 4.7169 3.809 7.2214 5.638.1869.136.3365.615.2617.768-.0714.139-.5675-.027-.7204.068-.1054.064-.1937.146-.2855.224.3432.252.6865.5 1.0331.744.0374-.013.0782-.024.1257-.024 1.3322-.003 3.3202.741 4.8766 2.114 1.5599 1.366 3.1469 2.162 4.7577 3.242.5777.384 1.5904 1.125 1.6108 1.258.2515 1.458 1.5394 1.729 2.7051 2.487.5505.347 1.3049 1.132 1.6991 1.699.5573.826-.0985.507-.4893.429-.0816-.017-.1394-.017-.1802-.004.2345.245.4724.486.7001.738.6049.659 1.1554 1.373 1.7162 2.12-.0612-.153-.1224-.306-.1903-.462-.4894-1.087.0407-1.098.9991-.184.2175.208.4146.412.5947.609.1495.17.2888.333.4214.482.0475.034.299.269.4349.446.1564.18.2719.367.3671.54.367.707.3024 1.244-.0714 1.519-.0646.047-.1325.092-.2005.136.3704.69.6355 1.437.7952 2.216.1393.112.2685.254.2719.326.0645.601.1189 1.125.1733 1.628.0204.251.0612.489.0612.754 0 .231.0441.391.1189.591.2923.962.4588 1.924.3058 3.154-.2786 2.036-.3874 4.21-1.485 6.151-.8156 1.434-1.4035 2.892-1.9133 4.353-.2583.741-.5539 1.499-.9447 2.25-1.1079 2.018-2.1715 3.232-3.1537 3.521-.3568.098-.734.258-1.1112.523-.4554 1.016-.7952 2.08-.9312 3.222-.0475.394-.0951.713-.1529.985.0238-.037.0476-.075.068-.112.3772-.646.6966-1.676 1.1622-2.287.1801-.262.35-.7.5573-1.043-.0373.367-.0136.703-.0645 1.084-.0816.489-.1699 1.033-.1767 1.067-.0442.238-.0884.475-.1258.696-.0272.16-.034.191-.0476.245s-.0271.105-.0407.153c-.0238.085-.051.173-.0748.234-.0374.096-.0816.194-.1495.276-.0952.071-.1122.166-.1088.275l-.0272.313-.0136.159c.0136.034.0816.017.119.027.3874.028.7646.055 1.135.079.2651.023 1.0943.051 1.7502.074.6796.024 1.3525.048 2.0254.068.9515.031 1.9166 0 2.8784-.01.5981-.007 1.3049-.112 1.7739-.034 2.2021.364 4.078.466 5.6242-.408.2855-.159 1.6108-.176 2.3822-.122 1.1928.085 2.3075.296 3.4799.432.7986.091 1.8317.282 2.4162.18 1.5735-.269 2.9294-.021 4.2989.095 1.9914.17 3.8911.571 5.9913.156 2.8036.585 5.0873.082 7.3845-.431.2991-.068.8088-.143 1.0399-.099 1.7128.337 3.5207.466 5.4645.449.2345 0 .785.306.6831.37-.1869.119-.367.248-.5505.377h2.2089c-.0544-.01-.1088-.02-.1632-.03.3161-.089.5948-.221.9516-.259 1.2811-.108 2.5861-.217 3.1876-.268 1.3763 0 2.6779.234 3.5751.554h3.2352v-.996c-.7205-.16-1.3118-.53-1.8589-1.284-.3603-.5-.7273-.999-1.0943-1.499.2413.367.4792.734.7137 1.101.1223.19.1189.445.1019.598-.0034.044-.2821-.139-.401-.285-.3806-.469-.7714-.952-1.118-1.445-.8224-1.165-1.6482-2.327-2.559-3.418-.9039-1.091-1.92-2.097-2.9871-3.028-1.0875-.942-2.2463-1.798-3.4561-2.546-.6049-.373-1.2234-.717-1.8487-1.026-.6491-.326-1.3118-.673-1.9472-1.098-.6525-.431-1.2608-.924-1.7706-1.549-.5097-.598-.9175-1.427-1.1282-2.185-.3704-1.234-.9821-2.569-1.2064-3.864-.2379-1.356-.4248-2.671-.6219-3.963-.051-.132-.1088-.268-.1495-.39l-.1122-.415-.1971-.829c-.1223-.551-.2243-1.098-.3228-1.642-.0782-.424-.068-1.094.0102-1.481.0679-.344.1359-.69.2039-1.037.0577-.244.1155-.493.1767-.741.0204-.734.0272-1.461.0645-2.107.0544-1.339.0884-2.701.2549-4.016.2413-1.91.4622-3.817.7375-5.713.1053-.727 3.2216-4.921 4.7508-7.266.5641.021 1.1283.038 1.6958.051.4825.017 1.0161.065 1.4783.204.9617.296 1.9404.595 2.9055.891.9685.302 1.9473.533 2.926.594 2.2361.197 4.0814.429 5.8621 1.407.4758.269 1.4273.208 2.1579.231.8904.024.8156-.52 1.1385-.815.3738-.34.7272-.347 1.2268-.058 1.1282.618 2.1409.788 3.4866.483.649-.153 1.373.016 2.008.635.65.639 1.435 1.295 2.641 1.482.204.04.727.418.775.605.387 1.175 1.148 1.723 2.243 2.385.363.221.921.792.989 1.132.469 2.114 2.008 3.837 2.752 5.835.034.095.313.18.473.244.982.391 1.002.415 1.155 1.686.024.197-.031.408.048.574.717 1.56 1.498 3.134 2.028 4.785.422 1.254.741 2.529 1.105 3.789.02.068 0 .146-.027.221.387-.061.717-.109 1.04-.19.914-.235 1.828-.472 2.745-.707-.394-.149-.655-.364-.7-.608-.013-.065.259-.262.35-.262.259 0 .663.014.721.119.16.292.397.432.673.483 1.651-.429 3.306-.85 4.961-1.275.119-.333.265-.652.592-.877.496-.343 1.413-.574 2.368-.282.469.143.969.14 1.465.045.163-.041.326-.082.486-.123.258-.081.513-.18.758-.299.523-.251.992-.554 1.526-.792.203-.098.407-.193.618-.295.221-.099.438-.289.547-.524.048-.071-.16-.39-.234-.404zm-73.829-88.9108c.7069.0339.9889.3636 1.1826.7442.435.2141.8598.4622 1.2846.7001-.0374.0237-.1054.0713-.1054.0713-.401-.2583-.7986-.5233-1.2064-.7612l-1.2947-.6933c.0476-.0204.0883-.0645.1427-.0611zm17.5762 68.2108c-.1394-.017-.2821-.088-.4214-.159.1019-.163.1937-.316.2684-.449.034.007.068.01.0986.02.2073.068.3772.266.4757.418.0272.038-.2718.191-.4213.17zm38.9718 26.565c-.119.031-.292-.071-.476-.122.109-.15.194-.262.276-.374.173.071.384.122.503.221.037.03-.164.241-.299.275zm2.002-37.963c-.106-.02-.275-.163-.35-.299-.051-.091.007-.265.017-.401.129.092.258.184.455.323-.047.163-.061.391-.122.377zm3.347 6.518c-.197-.309-.38-.516-.377-.605.013-.197.119-.339.187-.502.112.139.312.316.319.411.017.214-.064.391-.129.693z" fill="#435dc6"/><g fill="#000"><path d="m28.9213 63.872c.0136-.4893.3432-1.152-.3976-1.3185-.8632-.1767-.3432-.4962.068-.7205.333-.1903.5777-.333.768-.4519.1937-.1156.3262-.2175.418-.3433.1869-.2481.1903-.6083.2888-1.3015.0612-.435.068-.9176.2719-1.3288.1087-.2141.5437-.4418.7952-.4452.2617 0 .486.2549.7238.401-.2107.1292-.4281.2481-.6388.3874-.1904.1258-.3399.2413-.4418.3467-.0986.1087-.1496.2107-.153.299-.0101.1801.1666.3195.5336.4656.4588.1767.7.333.6423.853-.0442.3772.0102.785.5199.6627.0952-.0204.2073-.136.2991-.2617.0951-.1224.1597-.2651.1461-.3602-.0612-.4554.0374-.802.2617-1.0331.231-.2209.5777-.3399.9923-.3738.4044-.0306.7-.153.9209-.3739.1122-.1053.2073-.2344.2957-.3704.0917-.1291.1767-.2718.2548-.4214.187-.3364.418-.5879.7069-.7068.2923-.119.6253-.1428.9957-.0816.418.068.8598.2141 1.2676.2073.3806-.0068.8836 0 1.1112-.2379.3841-.3704.3365-.836-.2107-1.2539-.2956-.2141-.282-.3841-.1631-.5064.1224-.1155.3467-.1733.4554-.1699.2515.0068.4996.0578.7442.1291.2481.0782.4894.1699.7307.2413.8699.2549 1.6652.5437 2.4875-.085.1394-.1121.4214-.2073.52-.1393.734.5437 1.4375.5913 2.1681.5403.7239-.0509 1.4749-.1869 2.1682.0136 1.8656.554 3.6158.5879 5.5256.4656.3976-.0238.571.0204.9142.2209.5811.3534 1.1554.8224 1.7671 1.0773.6117.2514 1.2642.282 2.0526-.2583.7646-.5233 1.2506-.7782 1.4273.4282.017.1223.5267.1631.8122.1801.1903.0068.6797-1.0195.4928.1495-.102.6423-.017 1.0365.666.7816 1.0093-.384 1.757.1937 1.7298 1.0399-.034.9584.5403.9753.9515 1.2642s1.0161.3126 1.3729.6559c1.6822 1.5938 3.5377 2.6847 5.8417 3.1876.5744.1359 1.1181.4282 1.706.469 1.1996.0883 1.8589.9481 2.3686 1.8011.2957.5233.4078.8802 1.0977.8224.3602-.0306.7238.2685 1.0875.418l.0238-.0068c.9005.0612 1.5802.4452 2.1613.9549.5709.5268 1.0535 1.169 1.5836 1.74.4724.5097.5064 1.6583 1.7162.9787.017-.0102.3364.35.3296.5437-.0204.5947.1835.7952.7918.8734.4962.0611.9787.3772 1.4035.6694.5336.3671 1.0161.3025 1.4885-.0475.6151-.452-.0068-.7952-.1325-1.1928-.102-.3263-.5948-.7001.0169-.9924.3671-.1767.9074-.265.6389-.7884-.1869-.3602-.6321-.7476-1.0127-.8156-.819-.1461-1.92.2481-1.4782-1.3457.0407-.1427-.5438-.4928-.8768-.6763-.9278-.5131-1.8963-.8088-2.4332-1.9778-.5709-1.1758-1.9982-1.203-3.2012-.4894-.4588.2719-.7205 1.1827-1.4885.7171.384-.4928.7442-1.0025 1.1588-1.4647.1835-.2039.5539-.2583.6865-.4758.1427-.2378.2379-.7816.1291-.8563-.3602-.2447-.7034-.5336-1.0501-.8088-.3534-.2719-.7068-.5404-1.0772-.7782-.7409-.4724-1.5463-.8088-2.5386-.7103-.8462.0782-1.57-.1053-2.0016-.7476-.3194-.4724-.1801-1.322-.5403-1.7502-.2719-.3126-1.3492-.0509-1.4511-.3092-.4044-1.0399-1.237-.7748-1.9439-.7307-.35.017-.7578.3229-1.0025.6151-.0781.0952.2141.6015.4078.8564.7205.904 1.4851 1.7706 2.1104 2.7255.1631.2481.0544.7714-.0646 1.1248-.0475.1394-.4791.2787-.6966.2481-.9618-.1529-2.4978-1.6958-2.4978-2.7458.0068-1.1215-.6491-1.6414-1.4273-1.6516-1.4783-.0238-1.8487-1.6754-3.1095-1.9745-.1019-.0237 0-.8461 0-1.2947.3535.0238.7715-.0612 1.0603.0917.7748.4248 1.4647.9889 2.1987 1.4715.2685.1733.6015.2753.921.3262.1529.0238.3704-.1223.5097-.2514.0578-.0544.034-.3229-.0408-.3908-.8122-.7273-1.5972-1.8453-2.5725-1.9949-1.57-.2446-2.7934-.8189-4.0202-1.7161-.1597-.1155-.5471-.0918-.717.0272-.2821.1971-.452.5437-.7001.7918-.8258.8292-.8462.8088-1.4783-.1223-.2514-.3569-.7782-.9584-.9243-.887-.5404.2651-.9719.2243-1.3593.051-.3909-.1666-.7443-.4554-1.1147-.6865-.9889-.5913-2.005-.9549-3.1706-.418-.1768.0816-.4112.0884-.6559.051-.2413-.0306-.4928-.0986-.6899-.1869-1.101-.4894-2.3516-.4282-3.5648-.3806-1.2234.0339-2.4026.0679-3.6158-.4758-.1835-.0782-.537.1937-.819.2379-2.0084.35-3.9319 1.1112-5.8553 1.655-2.1886.6219-4.3125 1.6617-5.7636 3.49-.2821.3773-.7782.6695-1.203.8938-1.3424.6899-2.2531 1.9269-2.8852 3.2182-.1869.4112-.3874.7748-.6151 1.1215-.2107.3568-.4486.7-.7272 1.0534-.9686 1.2948-1.8589 2.7561-2.0798 4.4383-.2957 2.3822-.8836 4.5639-1.4545 6.817-.5437 2.0798-.87 4.3227-.3194 6.4942.4791 1.9235.9481 3.8299 1.6651 5.6174.5472 1.3696.8768 2.5828 1.2812 3.8605.068.2141.1393.4418.2243.6661.0884.2209.1971.4316.316.6117.1802.2787.3025.5064.3807.7204.0849.2107.1291.4112.1427.6321.0442.5642.2583.7952.6932.9006.6525.1733.9312.5063 1.4885 1.5292.1665.3297.3534.6457.5471.955.1937.3126.3909.6185.6185.9005l.6151.7714c.2141.2481.4418.486.6627.7273l1.339 1.4404c.9583.891 1.8622 1.839 2.8715 2.665 1.1623 1.05 2.3993 2.005 3.6193 2.977.6049.438 1.2166.934 1.8181 1.403.6083.462 1.2302.857 1.8045 1.159.8258.442 1.6516.907 2.4672 1.38.4112.231.8088.482 1.2267.686.4146.208.8326.405 1.254.575.3263.132.6695.288 1.0059.482.3365.187.6763.401.9856.68.3262.289 1.1452.683 1.7093.89 1.3899.469 2.5827 1.026 3.6124 1.903.1292.112.6763.309.7545.275.1937-.078.2276-.268.3228-.414.2549.258.4452.55.7748.792.3297.244.7816.543 1.1792.676 1.3492.462 2.6337.914 3.8028 1.713.1699.115.4961.115.7476.18.8292.214 1.6856.363 2.491.649 1.3321.476 2.6405 1.033 3.942 1.597.8496.367 1.6244.377 2.474.449.7646.057 1.5938.707 2.4196 1.029.9278.361 1.8895.629 2.8274.945.3127.105.6117.323.921.371 1.3049.2 2.6201.326 3.9318.492.4452.055.972.075 1.3152.303.8462.554 1.7603.809 2.6982 1.142 1.0094.35 1.9133.832 3.0076.798.2039-.003.5199.187.6355.367.6388.989 1.5802 1.016 2.5997 1.023.4927 0 1.0603.054 1.4782.289.6865.381 1.339.809 2.0119 1.193.6762.38 1.3899.676 2.2123.805.5301.082 1.0127.574 1.5326.819.4962.224.9617.51 1.4171.812.4486.313.8802.656 1.3253.969.449.306.894.612 1.38.856.482.248 1.023.401 1.6.51.181.031.316.36.507.51.384.302.795.574 1.196.853.432.285.914.496 1.339.792.438.312.853.649 1.284.965l.646.472c.207.163.422.326.636.483.424.319.88.604 1.322.904.441.299.904.577 1.393.829.493.251 1.023.972 1.121 1.444.157.744.435 1.349.867 1.849.442.492.934.948 1.505 1.39.194.153.391.309.581.469.181.17.357.339.531.516.343.357.7.714 1.006 1.108.295.401.577.816.836 1.247l.193.323c.058.112.109.228.16.34.102.228.2.462.292.697.123.322.282.638.422.961.129.33.258.656.387.986.061.163.122.329.177.496.054.173.102.306.153.55.098.446.173.904.224 1.407.031.306.18.785.309 1.013l.072.126c.04.017.115-.017.169-.021l.354-.068.676-.122.326-.054c.113-.024.228-.058.344-.085.227-.058.452-.109.676-.16.197-.041.394-.082.595-.126.159-.03.322-.061.486-.088.326-.054.655-.102.992-.143.686-.092 1.414-.387 2.093-.465.846-.102 1.516-.347 2.281-.581 1.485-.463 3.031-.864 4.584-1.173 1.532-.306 3.092-.53 4.635-.832.326-.062.659-.136.982-.208.099-.024.262-.075.245-.075-.065-.003-.18-.006-.299.011-1.176.19-2.355.353-3.541.523-1.55.224-3.103.462-4.656.676-.166.024-.326-.027-.499-.041-1.122-.078-1.146-.101-1.795.425-.105.085-.268.242-.36.248-.955.072-1.937.265-2.912.422-.486.078-.976.142-1.458.17-.241.013-.483.017-.721.003-.234-.01-.503-.037-.652-.078-.105-.027-.265.007-.449.064-.18.058-.38.126-.55.208-.123.061-.252.115-.381.17l-.098.04-.048.021s-.014-.017-.024-.024c-.027-.037-.054-.078-.078-.119-.102-.163-.187-.36-.245-.571-.057-.21-.085-.438-.074-.666.006-.115.023-.228.051-.34l.051-.166c.013-.065.03-.129.051-.194.044-.153-.109-.697-.242-.829-.19-.194-.34-.398-.452-.608-.108-.215-.19-.429-.265-.643-.132-.428-.156-.873-.132-1.281.061-.822-.282-1.356-.782-1.692-.262-.174-.486-.354-.673-.551-.183-.197-.363-.391-.493-.611-.265-.439-.397-.952-.421-1.567-.044-.547-.272-.822-.792-.853-.452-.024-.873.418-1.386-.211-.449-.496-1.095-1.067-1.196-1.58-.096-.483-.269-.907-.463-1.329-.2-.414-.428-.822-.71-1.189-.285-.364-.608-.714-.958-1.057-.177-.17-.357-.343-.551-.506-.197-.16-.404-.316-.615-.476-.37-.275-.713-.585-1.043-.921-.343-.32-.67-.663-.996-1.02-.639-.727-1.312-1.434-2.018-2.093-.337-.323-.819-.517-1.254-.676-1.268-.466-2.576-.778-3.861-1.118-.965-.231-1.291-.891-.836-1.618.133-.207.303-.394.459-.588-.357-.18-.727-.455-1.091-.479-.449-.034-.9481.319-1.305.18-.5913-.245-1.186-.479-1.7705-.744l-.8734-.401-.8767-.391c-.4792-.214-.7884-.663-.435-1.084.734-.856.1495-.972-.7035-1.118-.5403-.092-1.067-.204-1.5972-.262-.5267-.057-1.0637-.04-1.604.085-1.3865.327-1.4001.265-1.9336-.921-.5981-1.328-.6117-1.311-2.2565-1.413-.7341-.055-1.4987-.099-2.1953-.306-1.3322-.398-2.6303-.887-3.9557-1.285-.1393-.041-.3568.068-.4995.15-.0442.027-.0102.234.0611.295.2243.187.4826.347.7273.52-.3297-.044-.6729-.051-.9855-.142-.3807-.113-.9584-.242-1.0637-.463-.6321-1.305-1.8555-.87-2.9192-.941-.7204-.044-1.4851-.037-2.1443-.251-1.7774-.568-3.4969-1.251-5.2674-1.795-1.8725-.581-3.779-1.091-5.6582-1.641-.887-.262-1.8555-.527-2.3313.017l.1291.092-.1325-.092c-1.0773-.88-2.338-.887-3.541-1.016-.4962-.044-1.0467-.024-1.407-.371-1.0704-1.056-2.722-1.451-4.2207-2.113-1.3457-.541-2.7288-1.135-3.9216-1.822-.5913-.37-1.2642-.605-1.9065-.883-.6491-.265-1.2336-.626-1.6958-1.125-.0849-.095-.6015-.344-.8258-.405-.4587-.119-.8461-.346-1.2404-.594-.3908-.252-.7748-.541-1.1894-.84-.8529-.635-1.6617-1.346-2.5181-1.991-.4112-.347-.8292-.68-1.2608-.999-.4316-.32-.8938-.605-1.3355-.911-.2991-.194-.6661-.591-.9856-.904-.6253-.578-1.169-1.237-1.7365-1.8657-.2753-.3228-.5743-.6253-.8326-.9617l-.785-.9991c-.6026-.7454-1.0104-.9538-1.2234-.6253-.0374.0578-.1393.0306-.2107.0408-.0612-.1428-.1835-.3535-.1699-.418.0849-.4588-.1359-1.0433-.7612-1.8419-.1326-.1597-.2379-.4486-.2685-.5981-.0782-.503-.2651-.9991-.5234-1.4545-.1257-.2277-.282-.4452-.4213-.6525-.1394-.2107-.2889-.4044-.4452-.5811-.3534-.384-.5641-.7816-.7341-1.1826-.1767-.3976-.2548-.8292-.3364-1.2948-.1597-.9413-.2481-1.8894-.6219-2.9089-.469-1.3356-.7918-2.7561-1.0161-4.1834-.0476-.3466.0374-.7374.085-1.101.0883-.554.1359-1.1079.2888-1.638.0986-.3704.1462-.6933.1224-.9753-.0238-.2821-.1428-.5166-.4146-.7103-.3059-.2209-.3195-.5199.1019-.6865.3466-.1427.5743-.3602.3806-.9277-.4791-1.4885-.4112-3.0823 1.0025-4.1901.1394-.1088.2345-.3942.2855-.6049.0714-.2617.1699-.5234.2447-.7851.0747-.2616.1291-.5233.1529-.7714.0374-1.22.8496-2.5691-.4996-3.4731-.1767-.1155-.3228-.3602-.3568-.6456-.0272-.2787.068-.588.3534-.819.2515-.2107.4112-.6797.6423-1.0025.2277-.3263.52-.4962 1.0433-.0714.1529.1223.4486.0714.6797.1087zm-3.2896 4.5334c.2005-.0306.4282-.1088.6117-.0578.1699.0476.435.2617.4112.3399-.1121.3874-.2413.8495-.4996 1.1078-.3398.3738-.7986.6117-1.2064.9176-.0068.0034-.0679-.1428-.1291-.2719.3874-.2413.6219-.5335.7408-.8768.136-.3364.1496-.7204.0714-1.1588zm2.2871 24.9505c.0645.102.017.2991.0204.452-.2277-.2651-.4758-.5098-.6831-.802-.1019-.136-.1087-.3772-.2447-.9278.2209.3195.3772.5608.5302.7579.1529.1937.2684.3534.3772.5199zm26.337-38.1224c-.0578-.1767-.1495-.35-.1665-.5268-.0068-.0645.2243-.2276.2413-.2107.1257.1122.2277.2583.3908.4622-.2073.119-.3365.1971-.4656.2719zm9.0124 62.4305c-.1394-.003-.2889.021-.418-.024-.1428-.047-.2617-.156-.3942-.238.1699.021.3432.041.4723.055.1462.088.2447.146.3399.207z"/><path d="m103.593 84.7509c-.215-.1224-.476-.1326-.714-.1904.109.2209.282.4452.316.6627.061.3908.187.8326.265 1.237.071.4112.092.785-.051 1.0365-.489.8632.068 1.288.619 1.8487.326.333.638.7272 1.019.9583.248.1529.483.3161.697.4928.21.1801.407.3738.591.5777.367.4078.69.8632.992 1.3627.286.4724 1.02 1.0807 1.445 1.1487 1.186.1971 1.906 1.0874 2.677 2.0457.503.6321 1.081 1.22.728 1.8623-.17.3059.112.6967.584.9923 1.118.7069 1.078.7375 1.424 1.9371.163.571.32 1.366 1.023.985.044-.023.323.187.357.272.503 1.203 1.458 1.849 2.243 2.671.645.67 1.108 1.445 1.21 2.08.102.704.638 1.417 1.063 1.822.462.425.874.537 1.258.744.054.031.03-.313-.034-.421-.561-.911-1.05-1.774-1.37-2.692-.044-.122-.231-.336-.353-.452-.469-.445-.931-.89-1.38-1.383-.445-.5-.839-1.07-1.098-1.832-.914-.761-1.25-1.801-1.791-2.7659-.37-.6661-.628-1.4069-1.332-1.9609-.265-.2039-.459-.7714-.652-1.1792-.296-.5879-.51-1.2064-.846-1.7841-.215-.3738-.673-.9481-.894-.9685-.602-.0544-1.047-.2957-1.4-.6729-.364-.367-.632-.8734-.87-1.4715-.102-.2549-.439-.4757-.656-.7238-.35-.3976-.721-.7816-1.03-1.2064-1.101-1.4545-2.202-2.909-3.493-4.615-.017-.0135-.259-.265-.541-.4247zm2.212 3.9828-.15.0238c-.343-.1326-.693-.2413-1.026-.4078-.082-.0408-.109-.2787-.16-.4248.106 0 .248-.0476.316.0068.303.2549.585.5369.87.8122z"/><path d="m90.6616 76.9856c.2515-.299.4792-.6253.7646-.8835.1767-.1598.6151-.3467.6559-.2957.8462.9923 2.2361.4588 3.1536 1.4103.7647.7918 1.9949 1.0841 2.525 2.2293.3976.8496 1.1316 1.3118 1.988 1.5904.4353.1428.8803.2923 1.2843.52 1.095.6253 1.547 1.6346 1.132 2.6031-.36.836-.51 1.655-.252 2.6031.034.1291-.088.3738-.193.384-.136.0136-.415-.1257-.476-.2447-.421-.8563-.89-1.7263-1.155-2.6371-.2281-.819-.5578-1.3117-1.4108-1.7161-1.1214-.537-2.5419-.6899-3.1536-2.09-1.0977-.1699-1.7535-.768-1.9982-1.8419-.017-.0747-.2209-.1733-.333-.1699-.5676.0068-1.0026-.2005-1.3968-.486-.401-.2786-.7544-.6388-1.1384-.9481v-.0204z"/><path d="m90.6623 77.0097c-.1223.1495-.2583.2923-.367.452-.2685.3976-.5539.8156-.8292 1.2268-.1257-.5403-.4656-1.1486-.333-1.6278.3432-1.2336.2582-2.4094-.119-3.6532-.2243-.7272.3161-1.1215 1.0705-.9379 1.3729.367 1.6958 1.2234.8666 2.3312-.5132.6899-1.22 1.3084-.2923 2.1817v.0204z"/><path d="m122.991 111.904c.367.601.625 1.226.788 1.692s.231.775.139.795c-.02.004-.207-.228-.248-.302-.108-.204-.265-.524-.244-.558.091-.149-.011-.462-.201-.839-.2-.37-.489-.805-.751-1.213-.173-.272-.391-.51-.567-.778-.119-.184-.194-.405-.286-.612.126.122.258.221.374.38.411.568.812 1.163.996 1.438z"/><path d="m104.669 129.67c.252.075.561.088.738.248.16.143.217.435.231.649.003.054-.353.156-.483.088-.176-.091-.299-.316-.452-.479l-.037-.506z"/><path d="m96.3129 83.9155c-.2922-.1665-.5505-.2413-.5607-.3297-.0306-.1971.0612-.4044.102-.6083.1597.0612.4248.0952.452.1869.0645.1972.0135.418.0067.7511z"/><path d="m78.3061 68.8266c.0544.0374.1156.0646.1597.1088l.7884.7952c-.1087.0748-.2174.2141-.3228.2175-.8224.0306-.6967-.5675-.6491-1.1181l.0238-.0068z"/><path d="m28.636 65.4624c-.3432.2616-.6796.5403-1.0263.8257-.017-.0475-.0577-.1019-.0475-.1461.1631-.6015.5845-.717 1.0636-.7068l.0068.0272z"/><path d="m125.562 116.818c-.084-.099-.146-.17-.21-.245-.061-.132-.143-.299-.17-.384-.007-.027.132.15.2.259.058.095.109.227.177.367z"/><path d="m28.6289 65.4351c.3534-.2583.6933-.5166 1.0433-.7544.0204.0441.0612.1223.0612.1223-.3671.2209-.7307.4384-1.0977.6593z"/><path d="m91.1372 79.4331c-.0238.2005.0068.4384-.068.469-.1291.0577-.3534.0407-.4724-.0374-.0781-.0544-.0407-.2753-.0577-.418.1699-.0034.3364-.0102.5947-.017z"/><path d="m28.9219 63.8721.0577.1461z"/><path d="m4.15408 100.87c-.33983-.526-.54033-1.5052-1.203-1.0158-.37722.2888-.51995.2408-.56073.0408-.04078-.1972.03059-.5438.10535-.8394.21749-.9822.37042-1.4545.33304-1.8759-.04418-.4214-.24129-.785-.65248-1.5598-.26167-.4826-.53694-.9516-.67627-1.5327-.07816-.3058.11554-.9175.30245-1.1622.1971-.2515.53694-.2243.8156-.3161-.07816.3229-.16312.6457-.23109.9754-.22768 1.22-.05097 1.5564.69326 1.1282.46897-.2617.75783-.3466 1.04669.2277.21069.4214.51314.785.82919.1597.12234-.2345.06457-.9073-.07477-1.0739-.34323-.3976-.48935-.8326-.47576-1.2811.03058-.4486.2073-.9142.50975-1.3797.30585-.4486.42479-.8904.45877-1.3288.04078-.4384-.02379-.8768-.10874-1.3151-.08496-.4996-.06117-.9584.06796-1.3832.13933-.4214.38061-.8088.71025-1.1724.39081-.4112.8088-.7986 1.13164-1.2778.30925-.4383.66947-1.0398.69666-1.485.03059-.7341-.36702-1.0161-1.07727-.6899-.76802.3568-.45537-.5811-.28886-.8292.39421-.5573.91415-.9719 1.39332-1.4341.85638-.836 1.68217-1.6482 1.79092-3.0245.01699-.2311.13253-.6389.26507-.7136.98887-.5743 1.54287-1.4409 2.02537-2.3721.4792-.9311.8802-1.9302 1.5395-2.705 1.7807-2.1036 2.9871-4.3057 4.0406-6.7423.2175-.5064.3636-.7103.768-1.0875 1.3831-1.2709 3.2522-2.4468 2.9429-4.6421-.1529-1.0671-.1937-1.6957 1.1521-1.7467.1359-.0068.4248-.6457.5675-1.0093.0986-.2447-.7748-.9821.3772-.6117.6321.2039 1.1011.1223 1.1215-.7782.0305-1.3186.9073-2.2395 1.8249-2.1852 1.0263.0612 1.2777-.6966 1.7297-1.2505.4622-.5574.6933-1.356 1.1826-1.8521 2.2803-2.3551 3.9557-5.1825 4.7101-8.4313.1767-.8122.5234-1.6278.5811-2.4162.068-1.6312.9923-2.7798 1.8249-3.8707.2549-.3194.4758-.5641.6117-.836.136-.2752.2005-.5743.0986-1.0229-.0986-.4655.1291-1.101.2107-1.6583l-.0102-.0272c-.0306-.3025-.0374-.5913-.0272-.8768.0068-.2855.0136-.5743.0476-.8496.0645-.5573.1903-1.0942.3534-1.6278.1801-.5267.3262-1.0637.4995-1.6006.17-.5369.3501-1.0739.5064-1.6176.2651-.9583 1.2506-1.9472.0476-2.824-.0136-.0136.1257-.6661.2922-.8122.5064-.4486.5675-.8496.2957-1.587-.2209-.6015-.2243-1.3763-.2039-2.0594.0238-.853-.2719-1.3152-.8156-1.5768-.7035-.3365-.6899.5981-.9583 1.0399-.2243.3602-.2753 1.1928-.853.751-.3501-.2651-.7137-.7986-1.0093-.0918-.2073.4894-.2855 1.2812-.1292 1.7536.3263 1.0059 1.2812 1.9404-.333 2.6303-.1393.0611-.1495.9481-.1529 1.4375.0102.683 0 1.3389-.0714 2.0016-.0883.6593-.2277 1.3219-.717 1.954-.4792.6525-.6015 1.3729-.4928 2.0866.0782.7034.4078 1.4001.9006 1.9676.3738.4384 1.3559.3059 1.0399 1.5259-.5676-.2515-1.1589-.469-1.7128-.7681-.2447-.1325-.384-.5607-.6321-.6185-.2685-.0645-.8292.0578-.8768.2175-.1835.5234-.418 1.0399-.6456 1.5599-.2243.5165-.452 1.0365-.6763 1.5496-.4384 1.0331-.7035 2.1002-.6151 3.2828.0476.5097.017 1.0059-.1122 1.4579-.1223.4554-.3874.8496-.7442 1.1826-.5369.4893-1.4307.4588-1.9098.9549-.3705.3602-.2277 1.6414-.5268 1.7943-1.1554.5981-1.0399 1.5565-1.1418 2.4298-.051.4282.1767.9176.435 1.2132.0815.0952.7-.2956 1.0195-.5607 1.169-.9583 2.2259-2.0628 3.3949-3.0381.2956-.2583.8462-.2277 1.2234-.1529.1461.0306.2413.5777.1699.8768-.1733.6558-.7816 1.57-1.4851 2.3244-.717.7442-1.5394 1.3186-2.1103 1.3559-1.22.085-1.9609.9142-2.2191 1.9065-.2447.9549-.8632 1.5293-1.5055 2.0594-.6423.5335-1.3151 1.0195-1.7263 1.7807-.068.1258-.8938-.0815-1.3628-.1325.1632-.435.2311-.9516.503-1.288.7306-.9039 1.5564-1.7229 2.3074-2.6133.2685-.3262.4724-.7442.6151-1.1418.068-.1903-.0271-.4588-.1257-.6287-.0408-.0714-.3364-.0408-.4282.0509-.9889 1.0026-2.4094 1.8725-2.8886 3.0246-.7918 1.8622-1.886 3.2725-3.3269 4.5537-.1869.1665-.3331.6253-.2923.853.0714.3738.3467.6525.486 1.0025.4554 1.1656.4044 1.2064-.8428 1.7535-.4894.2141-1.3491.6865-1.3559.8802-.034 1.4273-1.1045 2.005-1.9473 2.7323-1.135.9549-2.039 2.0016-2.2497 3.5648-.0577.4758-.5437 1.1248-.9413 1.5157-1.1214 1.0738-1.84189 2.5283-2.59632 3.9284-.75783 1.4035-1.53944 2.7629-2.80022 3.7654-.18691.1529-.2175.6932-.36702 1.0297-1.08407 2.3788-1.90986 4.9071-2.91916 7.286-1.15883 2.6948-1.998219 5.5154-1.882676 8.5094.030585.6049-.14273 1.3287-.305849 1.9234-.540334 1.8521-.4111978 3.8333.037381 5.6722.071365.285.132535.564.18351.839.054373.275.115543.544.159721.816.047577.271.08156.543.118942.825.044178.279.084958.565.118941.864.25148 2.134.75783 4.366 2.01861 6.242.89376 1.322 1.71955 2.637 2.55893 3.929.8258 1.298 1.65499 2.593 2.47399 3.881 1.53604 2.395 3.30652 4.696 5.60382 6.422 2.0356 1.547 3.9896 3.158 5.9675 4.673 1.5088 1.166 2.6575 2.338 3.7789 3.626.3806.425.802.925 1.2268 1.268.6491.533.9413.924 1.1588 1.417.2685.632.5778.846 1.0739.941.3806.072.6763.211.9855.483.3093.272.6627.659 1.0977 1.271.5675.761 1.0433 1.583 1.6142 2.321 2.0322 2.691 3.7721 5.624 4.7678 8.835.6389 1.907.8938 3.902.836 5.907-.0408 1.93-.6151 3.979-1.0059 5.583-.2786 1.166-.7646 2.301-1.3525 3.354-.2923.53-.6219 1.033-.9583 1.526-.1734.241-.3467.483-.52.721l-.2685.35c-.0951.119-.1529.217-.3228.394-.1393.149-.2787.299-.4248.455-.0747.075-.1325.15-.2277.228-.0985.078-.1971.156-.2956.234-.2039.157-.4078.313-.6151.473-.034.02-.0408.037-.0952.061l-.2073.085-.4214.17c-.2922.115-.5845.231-.8767.346-.0544.099-.1156.198-.1801.3-.0612.112-.1462.166-.2277.258-.1632.16-.3399.35-.5404.523-.1699.119-.3126.252-.435.391l-.0271.048-.051.04c-.0306.027-.0646.055-.0952.082-.0611.051-.1155.115-.1699.153-.1155.058-.2107.143-.3092.16-.1598.061-.3806.098-.6253.139-.1292.013-.2549.024-.384.037l-.0476.007s.0272.007.0408.007l.0951.017.1903.034c.4928.098.921.224.8632.639-.0068.051.0782.112.1937.142.4248-.098.8394-.203.9617-.254.6117-.252.8462-.463 1.2166-.684.2889.109.5336.266 1.1453.303.6049.037 1.5802.037 2.4094-.085.3432-.048.6864-.099 1.0263-.146l.5029-.068c.1564-.021.3603-.048.452-.055.4622-.044.921-.078 1.3797-.098.9142-.041 1.8249-.027 2.7357.071.2617.024.6627-.088 1.0093-.129 1.1248-.119 2.2531-.316 3.3881-.346.938-.011 1.8793.03 2.8206.071.938.047 1.8759.088 2.807.197 1.22.126 2.209-.071 3.3304-.231 1.0059-.122 2.2905.333 3.4595.465 1.3118.133 2.6371.266 3.9557.398.4383.048.8869.211 1.3015.201.8802-.007 1.7569-.014 2.6337-.021s1.7637-.054 2.6439-.027c.5981.01 1.2948-.024 1.8011.167.6253.234 1.2574.387 1.8929.509.6355.136 1.2778.255 1.9336.384.7035.14 1.3832.31 2.0696.425.6865.109 1.3661.218 2.0832.17.2685-.017.7306.16.9243.333.537.483 1.1181.714 1.7366.819.6117.119 1.2608.109 1.9336.088.0816 0 .1631 0 .2481-.003.085 0 .2311.014.3432.024.2413.02.4826.044.7205.075.4757.057.9413.159 1.3933.305.7306.228 1.5122.544 2.3211.843.8054.306 1.6481.622 2.4943.918.8462.295 1.6958.571 2.4808.785.7952.224 1.5564.428 2.124.489.3636.041 1.0127.286 1.7535.574.7374.289 1.5666.626 2.1511.806l.6015.194c.2107.067.4214.139.6185.214.4078.146.8394.309 1.2914.482l2.916 1.145c1.019.405 2.073.819 3.079 1.203l.373.143.184.068c.051.017.078.021.119.034l.442.112c.285.068.543.123.758.153-1.462-1.121-3.504-2.572-6.077-4.221-.333-.21-.404-.312-.458-.414-.055-.099-.085-.201-.2927-.377-.8326-.711-1.7841-1.492-2.858-2.321-1.1317-.877-2.5012-1.825-3.5343-2.644-1.0297-.833-2.056-1.662-3.0789-2.491-.9719-.799-1.9506-1.594-2.9361-2.372-.4248-.361-.8462-.721-1.271-1.081-.418-.35-.8326-.693-1.2438-1.023l-.4859-.381-.4384-.329c-.2957-.218-.5947-.425-.9006-.629-.6083-.414-1.3491-1.369-1.5326-1.957-.5234-1.897-1.8181-3.096-3.1842-4.452-1.9031-1.832-3.5411-4.092-4.4485-6.681-.6456-1.754-1.4273-3.626-1.3865-5.444.0136-.276-.0645-.731-.1699-1.003-.0782-.197-.1529-.397-.2209-.598-.0611-.204-.1087-.408-.1563-.615-.0952-.415-.1733-.833-.2379-1.257-.0408-.425-.068-.857-.0883-1.295-.0068-.218-.0204-.439-.0204-.656.0102-.221.017-.442.0272-.663.0271-.455-.0238-.938-.0204-1.42 0-.479.0068-.962.0543-1.411.1734-1.111.1496-2.049.2685-3.102.1971-2.049.6389-4.163 1.4239-6.141.7646-1.957 1.7943-3.82 2.9328-5.597.2514-.367.5029-.751.7476-1.125.0748-.112.1903-.316.1733-.299-.0578.058-.1665.17-.2651.303-.4689.652-.9583 1.291-1.3763 1.981-.2141.34-.4452.673-.6491 1.023l-.5947 1.06c-1.0025 1.866-1.8181 3.843-2.4672 5.876-.0611.221-.1869.394-.282.605-.6389 1.372-.6457 1.42-.4384 2.47.034.17.1087.442.0782.561-.1496.629-.2379 1.284-.3365 1.944-.0713.662-.1053 1.335-.1631 2.005-.0238.669-.0442 1.332-.1121 1.988-.0272.652-.0918 1.295-.2311 1.927-.068.39.0951 1.315.2582 1.784.2617.693.503 1.325.5982 1.957.1257.625.1461 1.241-.0374 1.92-.068.201.1291.935.265 1.135.2039.289.3637.581.486.877.1393.292.2481.581.3262.873.1632.582.1869 1.169.2107 1.683.0238.509.1258.958.2889 1.342.1665.384.3908.71.6932.958.6185.524 1.0501 1.084 1.39 1.682.35.595.5539 1.261.6626 2.022.119.683.4044 1.064.9856 1.203.2514.062.4825-.027.7306-.017.2447.014.5165.113.8666.534.2854.347.6287.734.9209 1.111.3025.371.5675.724.6661 1.04.367 1.193.9685 2.229 1.7025 3.232.3807.486.8021.962 1.254 1.434.2583.272.384.377.5709.544.1768.156.3637.312.5642.475.3534.3.6524.571.9039.85s.4486.54.5981.758c.3025.455.3569.724.5132.975.0781.119.5403.405 1.118.761 1.2336.751 2.7765 1.72 4.5402 2.862.3228.211.6457.421.9685.632l.4962.326.2514.167.1258.085c.0204.017.0068.013.0136.023.0204.123-.5947-.125-1.5055-.601-.9243-.479-2.1409-1.179-3.6124-2.063-.6525-.394-1.672-1.006-2.525-1.519-.0917-.014-.4859-.211-.1937.01.3705.265.6865.493.9991.717.3705.269.6559.496.5676.486-.2991-.037-.7205-.142-1.1793-.278-.4825-.147-.9685-.296-1.451-.442-.2039-.061-.4792-.214-.7341-.425-.2583-.214-.4893-.486-.717-.816-.4894-.686-.7884-1.005-.8836-1.111-.1053-.105-.0612-.013-.0782.072-.0237.108-.1087.176-.248.288-.0714.055-.1597.119-.2753.194l-.0442.031s-.0781.01-.1155.017l-.2583.03c-.1699.024-.3398.055-.5097.092-1.7332.387-1.7706.33-2.7493-.836-1.101-1.301-1.1078-1.295-3.3032-1.298-.9855.017-2.0084.027-2.9803-.133l-1.3933-.238-1.3967-.224c-.9312-.153-1.8589-.309-2.7934-.442-.1971-.03-.4588.113-.6253.215-.0544.033.0476.234.1597.285.35.153.734.299 1.1011.445-.452-.01-.9074.007-1.3492-.034-.5369-.058-1.3389-.102-1.5428-.312-1.1962-1.214-2.7153-.629-4.1562-.497-.9719.082-1.9846.221-2.9327.129-1.271-.084-2.5352-.2-3.8028-.309-.632-.064-1.2675-.088-1.903-.115s-1.271-.051-1.9099-.061c-1.3525-.045-2.7084.013-4.0644.064-.6796.027-1.3559.051-2.0356.088l-2.0322.164c-1.2777.105-2.6677.22-2.9837.948l.2141.027-.2175-.024c-.9108-.16-1.7739-.088-2.5997.065-.4146.078-.8156.18-1.2166.292-.2277.095-.4758.204-.768.319-.2345.096-.5234.218-.8054.296-.2753.078-.5438.112-.6355.017-.0884-.095-.17-.17-.2617-.224-.0238-.014-.0442-.027-.068-.038-.0102-.006-.0306-.006-.0306-.017l.0102-.034.0408-.129c-.1597-.034-.401.007-.7238.078-.1733.038-.3433.079-.5166.119l-.2277.051.2005-.044c.4486-.112.7579-.238 1.2302-.51.1869-.122.4248-.275.6457-.428.0612-.041.1224-.085.1835-.126.0816-.057.1462-.112.2039-.166.068-.071.1292-.15.1903-.231l.4214-.561c.1563-.197.2855-.414.4282-.618.5539-.83 1.0501-1.652 1.672-2.379.1155-.14.4384-.891.5063-1.213.2957-1.271.7851-2.423 1.1521-3.827.3738-1.454.6457-2.963.6796-4.496.034-1.529-.1359-3.086-.6456-4.54-.1462-.483-.3365-1.21-.486-1.822-.6457-2.31-1.5768-4.54-2.7764-6.626-1.0399-1.764-1.0943-1.72-1.3933-1.203-.034.057-.1564 0-.2379 0-.085-.191-.2515-.476-.2447-.554.0476-.547-.3161-1.339-1.2132-2.45-.1869-.225-.4112-.578-.4894-.772-.2447-.642-.666-1.261-1.1316-1.852-.4826-.571-1.0195-1.101-1.5463-1.505-1.169-.898-1.8588-1.737-2.654-2.814-.7987-1.088-1.6312-2.172-2.8207-3.191-1.5496-1.315-3.0856-2.688-4.5843-4.071-.3636-.333-.6491-.802-.9583-1.214-.4724-.618-.9346-1.254-1.3492-1.889-.5641-.894-1.0908-1.512-1.8385-1.536-.4281-.01-.717-.306-.5913-.768.1054-.388.0544-.778-.6253-1.217-1.7705-1.155-3.19438-2.759-3.27254-5.002-.0068-.221-.2175-.578-.35343-.846-.18011-.323-.35682-.666-.54373-.993-.17332-.329-.34323-.649-.55393-.917-.25487-.316-.46897-.69-.68646-1.06-.22089-.371-.44858-.738-.66607-1.071-.46557-.652-.98552-1.132-1.79772-1.036-.21069.027-.49955-.106-.74083-.371-.23788-.265-.3976-.666-.37382-1.145.0136-.428-.1971-1.054-.28885-1.584-.06797-.533.03398-.965.70685-.978.1971-.007.36702-.316.55053-.483zm1.20981 7.487c.11554-.197.2005-.462.36362-.561.15292-.092.50975-.088.55732.014.11894.244.23789.52.35683.781.11894.262.21409.52.24128.758.07136.67 0 1.264 0 1.893 0 .01-.17332-.088-.32964-.17.01699-.275 0-.533-.05097-.775-.04418-.244-.11215-.482-.2141-.703-.2039-.445-.54033-.843-.92774-1.234zm23.40771 26.683c.1121.13.1291.371.1903.561-.3467-.329-.7103-.625-1.0603-.972-.1665-.163-.2821-.448-.6899-1.104.785.734 1.1928 1.101 1.5633 1.515zm-12.3835-70.8852c-.2039.017-.4214.0713-.6083.0373-.0646-.0136-.085-.3432-.0646-.3602.1835-.1189.3806-.1937.6763-.333 0 .2888-.0034.4724-.0034.6559zm25.5826 104.9402c-.1802.051-.3569.129-.5404.139-.2005.011-.4044-.044-.6083-.068.2243-.047.4486-.095.6219-.129.2243.024.3772.041.5268.058z"/><path d="m54.1771 4.02417c-.2957-.2141-.6423-.26847-.9583-.38062.2106.29226.4961.60151.5811.88017.1699.49276.3738 1.07387.4893 1.58702.1088.51994.1326.96852-.034 1.2166-.5641.84279 0 1.48847.4758 2.38562.2889.52674.5166 1.13504.8428 1.59724.8564 1.2336 1.2812 2.6065 1.4783 4.1221.0985.7171.5131 1.8895.8699 2.2803 1.0127 1.0569 1.3322 2.5624 1.6482 4.197.2005 1.0738.486 2.1443-.1053 2.6473-.2821.2378-.1733.8869.1495 1.5428.7578 1.57.7069 1.5768.5369 3.2114-.0883.7816-.265 1.8181.5506 1.8317.0509 0 .2311.4316.2277.5539-.0068.8734.1597 1.6516.367 2.3993.2039.7476.4587 1.4612.6592 2.1987.3229 1.2064.4894 2.4094.3263 3.2318-.1733.9005.0476 2.09.2786 2.8376.2549.7952.6117 1.1792.8904 1.6584.0408.0713.1461-.3535.1258-.5268-.1836-1.4273-.2787-2.7628-.2311-4.0508.0068-.1733-.085-.5403-.153-.7544-.265-.819-.5471-1.6312-.7544-2.5046-.2107-.8699-.3466-1.8011-.2889-2.8614-.5471-1.485-.4757-2.9191-.5641-4.4008-.0713-1.0195-.0068-2.0526-.4418-3.157-.1631-.4112-.1223-1.1963-.1359-1.7978-.0272-.8767.034-1.7331-.0306-2.6235-.0475-.5743-.2311-1.5394-.4282-1.7161-.5335-.4758-.8597-1.0535-1.0331-1.7264-.1767-.6694-.1971-1.4375-.1903-2.304.0034-.3705-.2344-.8632-.3602-1.2982-.2005-.7-.4452-1.3967-.6355-2.0968-.3398-1.2132-.734-2.41957-1.2573-3.65996-.5234-1.24039-1.1759-2.51816-2.1274-3.82312-.0272-.01699-.3636-.43158-.768-.70005zm2.5419 5.84852-.1597-.05098c-.3364-.33983-.6899-.64568-1.0297-.99571-.0849-.08156-.0781-.38061-.1223-.57771.1189.04417.2786.05097.3432.14952.2991.44518.5607.92775.8088 1.40691z"/><path d="m39.2324 11.2973c-.3705-.1223-.7647-.1937-1.1045-.3772-.2107-.1122-.5165-.5234-.4758-.6049.1971-.40103.3229-.77144.3806-1.14866.0816-.36702.085-.75443.1394-1.12824.0442-.38061.0849-.77142.2141-1.15543.1121-.39421.316-.77482.6219-1.14864.5335-.6083.9719-1.30835 1.5632-1.92345.5675-.62869 1.2982-1.17242 2.1953-1.40351 1.3322-.33303 2.4638-.85638 3.7518-1.33894.6558-.261669 1.3525-.414594 2.1239-.431586 1.0467-.003398 1.9982.333036 2.6133.822396.6219.48596.9278 1.08746.8938 1.65838-.0578.98892.034 1.89627.4214 2.99733.051.15632-.0714.40779-.1835.4044-.1428-.0102-.4588-.18351-.537-.32284-.2752-.47917-.6015-.93794-.9583-1.37633-.3602-.43158-.7544-.83598-1.1588-1.23699-.1835-.16991-.367-.33643-.5675-.44858-.0986-.06117-.2005-.11554-.3059-.16651-.1053-.04418-.2141-.08156-.3262-.11555-.4452-.13593-.9516-.13933-1.5327.01699-.768.2073-1.4239.66947-2.0424 1.07388-.6253.42818-1.2132.82239-2.0933 1.07387-.5472 1.16902-1.2064 1.85548-2.3959 2.40601-.0849.03738-.1937.29905-.1835.43159.0272.65248-.1393 1.2064-.3568 1.76033-.0544.13933-.1155.27526-.1801.41118-.0578.1393-.1155.2787-.1733.418-.1292.2753-.2277.5607-.3229.8428l-.0203.0136z"/><path d="m39.2545 11.2832c.1869.0578.3671.1291.5574.1665.4655.0952.9685.2005 1.4544.3025-.2378.1529-.4621.4112-.6932.6423-.2379.2276-.4554.4383-.7103.5063-1.2879.3432-2.321 1.254-3.2182 2.6133-.5267.802-1.1452.5132-1.3491-.5029-.1801-.9346-.0918-1.6856.2209-2.1614.3092-.4757.8224-.6728 1.5122-.5607.4248.068.853.2005 1.2302.1223.3772-.0815.7001-.3738.972-1.1146l.0203-.0136z"/><path d="m64.0117 48.1486c.1836 1.8895.1224 3.6193-.0543 3.5547-.0204-.0068-.1122-.3976-.1224-.5097-.0272-.3127-.0611-.7885-.0272-.819.2753-.2617.068-1.7502-.1155-3.0483-.0578-.4316-.1699-.8462-.2311-1.2778-.0408-.2923-.0306-.6015-.0374-.904.0714.2243.1597.4214.2073.6797.1699.9311.3127 1.8861.3806 2.3279z"/><path d="m85.2918 170.9c-.3194-.191-.8835-.496-.8224-.479.0544.013.6865.312 1.1827.54.1223.054 1.1248.578 1.2539.666.17.116-.1461-.017-.2718-.058z"/><path d="m46.4219 5.55026c-.1292.06796-.2345.12234-.3127.18351-.0781.06117-.1359.09515-.1699.07476-.1597-.08156-.2888-.27186-.4452-.4044.1156-.10535.2719-.30585.3603-.28886.1903.03399.3432.22769.5675.43159z"/><path d="m37.2578 31.4692c.0272-.0917.0408-.1869.0782-.2684.1053-.2481.2277-.4894.3194-.7443l.2821-.7612c.1053.0918.2752.1495.3058.2855.2719 1.0772-.4112 1.2675-.9753 1.5156z"/><path d="m5.1116 102.79c-.06797.578-.06797 1.152-.10195 1.74-.04758-.037-.11554-.054-.14273-.112-.34323-.768-.13593-1.244.21749-1.651z"/><path d="m64.5894 55.6074c-.0408-.1699-.0713-.2922-.1019-.418-.0068-.1971-.0238-.4452-.0136-.5641 0-.0374.0679.2583.0883.4282.017.1495.017.3398.0272.5505z"/><path d="m5.08543 102.766.07476-.859c.03399-.286.07816-.571.11555-.853.04757.027.13253.074.13253.078-.05437.272-.12234.55-.16652.826l-.13253.832-.02719-.024z"/><path d="m41.5449 9.84621c.2073-.03058.435-.11214.4792-.04757.0815.11894.1121.35006.0578.48256-.0408.0884-.2515.1121-.3909.1699-.0441-.1699-.0951-.3432-.1461-.60489z"/><path d="m4.1543 100.871.14952.098-.14952-.102z"/></g><path d="m40.2913 15.1371c3.5241-1.1317 5.9776-3.6294 5.9776-6.53839 0-.05098-.0034-.10535-.0068-.15633h-5.3387l-4.2513 4.94792-5.7636-4.94792h-5.0091c0 .05098-.0068.10195-.0068.15633 0 3.96929 4.5605 7.18749 10.1882 7.18749.0543 0 .1053-.0034.1563-.0068 1.4443-.017 2.8138-.2447 4.0542-.6423z" fill="#fff"/><path d="m40.9197 8.44238h-3.4765-6.535l5.7636 4.95132z" fill="#000"/><path d="m60.0862 8.44238h-5.0091c0 .05098-.0068.10195-.0068.15633 0 2.88179 2.4128 5.36259 5.8859 6.50779 1.0467.3466 2.1851.5709 3.3881.6457.3025.0204.6049.034.9142.034 5.6276 0 10.1882-3.2182 10.1882-7.18749 0-.05098-.0034-.10535-.0068-.15633h-5.3388l-4.2513 4.94792z" fill="#fff"/><path d="m60.9593 8.44238h-.8734l5.7636 4.95132 4.2513-4.95132h-6.6675z" fill="#000"/></svg>