<svg fill="none" height="260" viewBox="0 0 140 260" width="140" xmlns="http://www.w3.org/2000/svg"><path d="m134.154 222.528c-1.173-.337-.707-.459-.612-.969.034-.5.058-.819.024-1.081-.082-.21-.163-.421-.245-.632-.132-.207-.323-.442-.608-.778-.394-.469-.554-.982-.282-1.24.03-.031.047-.065.074-.095-.638-1.679-1.274-3.358-1.916-5.037-.078-.064-.157-.129-.241-.19-.368-.248-.85-1.173-.976-1.767-.268-1.258-.676-2.355-1.38-3.402-.265-.398-.435-.921-.638-1.397-.313-.73-.646-1.352-.255-1.91-.31-.72-.619-1.44-.931-2.161-.021.19-.038.384-.034.598 0 .14-.15.313-.235.272-.112-.051-.313-.323-.336-.465-.146-.901-.32-1.822-.398-2.692-.533-1.206-1.074-2.406-1.624-3.602-.602-.724-1.173-1.489-1.349-2.59-.813-.744-1.21-1.648-1.244-2.725 0-.075-.146-.272-.231-.333-.864-.608-1.227-1.696-1.72-2.668-.115.061-.238.109-.343.184l-.806.601c-.013-.547-.18-1.274-.01-1.611.259-.516.377-1.108.415-1.76-.306-.591-.608-1.183-.921-1.771.095.303.149.575-.187.595-.401.024-.775-.2-1.128-.822-.282-.496-.605-1.044-.969-1.387-.448-.421-.584-.707-.499-1.189.013-.078-.031-.241-.078-.381-.048-.142-.099-.265-.106-.265-.989-.153-.866-1.135-1.176-1.828-.669-1.567-1.196-3.239-2.555-4.421.037.061.081.122.109.183l.513 1.118c-.089-.003-.191.041-.269-.017-.628-.472-.469-.88-.374-1.291-.261-.337-.516-.789-.798-.982-.537-.367-.588-.717-.768-1.309-.303-.985-.738-2.042-1.659-2.837-.455-.384-.866-.931-1.308-1.38-1.784-1.798-3.205-3.813-4.428-6.018-.258-.476-.768-.86-1.081-1.326-.309-.462-.805-.826-.6657-1.485.1287-.591-.4418-1.43-1.3525-1.791-.6253-.234-.6525-.564-.4792-.941.3195-.686-.2413-.282-.4078-.404-.2515-.181-.6932-.52-.6898-.612.0135-.924-.4418-1.043-1.2065-1.156-1.5632-.241-2.3924-1.695-3.3439-2.851-.2821-.336-.435-.469-.8122-.696-1.8181-1.074-3.5411-2.192-5.213-3.657-1.2302-1.084-3.1367-1.516-4.0746-3.035-.0612-.102-.384-.227-.5675-.268-1.0909-.245-1.7468-.928-2.3925-1.642-.3602-.401-.6694-.829-1.101-1.175-.1903-.153-.921-.514-.6695.081.2277.551-.0068.789-.6015.659-.3602-.081-.8292-.441-1.169-.717-.3704-.302-.6525-.666-.955-1.009-.5267-.595-1.1622-.931-1.9914-.996-.7238-.051-1.4579-.146-2.0967-.764-.6627-.626-1.3832-.904-2.1648-.602-.1631.058-.7272-.064-.8937-.197-.452-.367-.0816-.499.299-.55.5234-.075.5064-.299.3976-.69-.0442-.146-.0577-.262-.0442-.347-.3806-.149-.768-.285-1.152-.428-.6729.061-.9243-.058-1.8249-.642-.3296-.112-.6593-.225-.9923-.33-.0034.065.0034.15.0442.275.1869.612-.6321.476-1.1521.558l-.1257.071.1257-.075c-.0713-.183-.2548-.408-.1937-.55.136-.33.0476-.53-.1529-.666-1.2404-.259-2.09-.415-2.8546-.571-.1461.078-.2549.176-.2956.285-.503 1.247-2.2939.799-3.6804.952-.5811.04-1.2472-.048-1.8759-.085-.2549-.017-.6015-.058-.751-.167-1.5361-1.06-3.2794-1.002-4.8834-.261-.6117.265-.8734.101-1.0671-.232-.2277-.39-.5573-.36-.768 0-.367.633-.9923.66-1.8079.595-.5913-.068-1.1928-.044-1.8011-.047-.3976.01-.8292-.034-1.1929.071-1.5054.472-2.9633 1.081-4.2852 1.862-1.0127.588-1.9915.84-3.011 1.081-.9923.262-1.7943.598-2.4535 1.57-.6763.924-1.3118 1.522-2.3755 1.777-.1631.034-.3976.211-.4927.381-.2243.38-.486.778-.7817.992-.2922.224-.615.33-.9753.323-.1053-.003-.2684.207-.401.323.0884.092.1564.231.2719.262.9957.292 1.0331.319.3058 1.661-.8291 1.594-1.6006 3.219-2.1613 4.935-.1597.445-.367.985-.3194 1.376.2718 2.335-.3093 4.465-.3908 6.739 0 .537-.0238 1.05.0271 1.539.0782.486.2277.948.537 1.373.1563.211.3772.772.3228.914-.2922.802-.0645 1.516.2617 2.213-2.0288.411-4.0032.798-4.2377-.197-.4282-1.842-.7511-3.633-.6967-5.485.0204-.748-.1223-1.703-.1835-2.546-.1835-2.48-.0646-5.002.4146-7.507.1054-.594.4112-1.203.6015-1.811.6287-1.811 1.4137-3.585 2.4094-5.203.4452-.72.9923-1.427 1.5429-2.079.5641-.69 1.1044-1.35 1.5802-1.934 1.0739-1.329 2.1885-2.365 3.7313-3.201 1.1963-.636 2.3313-1.176 3.5445-1.74 1.2234-.564 2.4774-1.064 3.7518-1.482 1.536-.516 3.072-1.091 4.6659-1.471.4825-.13 1.0534-.327 1.4306-.33 2.6236.037 5.1757 0 7.8604.068.7884.02 1.7705.268 2.4774.523.7034.248 1.1826.598 1.7467.908.1087-.242.085-.531.3976-.704.1291-.071 1.1962.055 1.4681.19 1.0535.51 2.1341.891 3.2692 1.173.4791.122.7578.173 1.0942.211.3229.034.6151.064.853.051.0238-.017-.0204-.113-.0306-.167-.0883-.333-.1631-.676-.1903-.948-.0136-.139-.017-.265-.0068-.388.0068-.061.0136-.118.0272-.173.0102-.105.0204-.228.0374-.319.2413-1.475.1325-2.902-.2311-4.146-.8496-3.195-1.0263-6.692-1.8997-9.974-.6049-2.274-.6524-5.271-.9855-7.942l-.2481-1.971-.1121-.877c-.0068-.031-.034-.139-.0544-.224l-.0577-.286-.1054-.554v-.01l-.0034-.01-.0306-.207.034.173c-.0408-.214-.0849-.503-.1121-.778-.2345-1.067-.6593-2.182-.7884-3.6875-.0408-1.05 0-2.1069.7068-3.3235.4962-.8054.9108-1.638 1.2234-2.4808-3.4731-1.1452-5.8859-3.626-5.8859-6.5078 0-.051.0034-.1053.0068-.1563h5.8859c-.0408-.1088-.0816-.2175-.1291-.3228-.4248-.9992-.8088-2.1614-1.4341-3.1231-1.0195-1.5157-1.7536-1.8521-2.7051-1.621-.6321.1563-.9787.1053-1.4579-.5539-.3976-.486-.9141-.7749-1.8793-.8496-.632-.0306-1.3797-.2039-2.0729-.2719-2.3755-.2107-4.863-.4554-7.6021-1.3083-1.1588-.3841-1.1282-.4282-1.4681-.3976-.2854.0339-.4893.2956-.5131.5573-.0204.1427-.0068.2243.0068.401l.0204 1.2472c.0238.819.0747 1.6108.1801 2.3652l.0951.6389.0884.7748c.0408.5166.0646 1.0365.0544 1.5564-.0034.3059-.034.6083-.0578.9108h4.1697c0 .051.0068.1019.0068.1563 0 2.909-2.4536 5.4067-5.9776 6.5384-.1869.3976-.3772.7918-.5845 1.1758-.2617.4962-.537.9821-.819 1.4613-.3025.4995-.4792.8394-.9074 1.4987l-.0679.0781c-.0238.0238-.034.0612-.051.0918l-.4248 1.0331-.4384 1.1248.0782-.2413-.3093.938-.2888.7205-.5472 1.417c-.3534.952-.6796 1.91-.9753 2.878-.8292 2.702-2.1002 5.2-3.31 7.657-.6728 1.363-1.1792 2.562-1.6447 3.976-.7443 2.267-1.638 4.54-2.8648 6.644-.3908.672-.8258 1.529-1.0637 2.259-1.1656 3.623-2.7391 6.974-4.411 10.413-1.4715 3.028-2.7153 6.294-4.0508 9.457-.1734.459-.4486 1.285-.7273 1.547-.2243.224-.469.448-.7476.662-.2719.218-.6559.422-.8122.514-.418.241-.836.506-1.2506.788s-.8224.578-1.2302.887l-.6083.469-.5403.55c-.7171.738-1.4409 1.475-2.15457 2.206-.62869.805-1.27437 1.573-1.97102 2.284-.54714.479-1.05688 1.417-1.24379 1.96-.14273.456-.30925.884-.49956 1.295-.09515.204-.1937.408-.29905.605l-.26167.622c-.36362.822-.8054 1.614-1.29816 2.433-.33983.625-.63549 1.281-.90395 1.971-.23109.697-.50636 1.411-.37042 2.243.02718.221-.45198 1.308-.73404 1.886-.74423 1.465-.64908 1.591-.11894 2.549.16991.289.3976.391.53693.744.08496.218.12234.816.06117 1.132-.16312 1.22-.17331 2.426-.18011 3.646.10195 1.213.31944 2.444.59471 3.718.51315 1.536.46557 3.602.96512 5.39.03739.166-.01699.445-.07136.414-.13593-.074-.33644-.251-.44518-.492-.22769-.507-.45538-1.085-.6083-1.632-.12574-.768-.25148-1.532-.37382-2.297l-.18351-1.142c-.05777-.38-.06117-.771-.10195-1.155-.05097-.574-.26847-1.169-.41119-1.761-.12234.187-.31265.418-.44858.619.43498 3.949 1.50206 7.813 3.15024 11.381-.03058-.102-.06117-.204-.08835-.306-.14953-.52-.33644-1.407-.24808-1.39.26847.055.67967.306.98891.738.31605.438.66268.849.95493 1.342.29226.493.63209 1.013.80541 1.767.12234.371 1.12824 1.387 1.49186 1.93.43499.782.36702 1.502.79521 2.335.59131 1.115 1.63461 1.927 2.63711 2.593 2.4706 1.458 4.7169 3.809 7.2214 5.638.1869.136.3365.615.2617.768-.0714.139-.5675-.027-.7204.068-.1054.064-.1937.146-.2855.224.3432.252.6865.5 1.0331.744.0374-.013.0781-.024.1257-.024 1.3322-.003 3.3202.741 4.8766 2.114 1.5599 1.366 3.1469 2.162 4.7577 3.242.5777.384 1.5904 1.125 1.6108 1.258.2515 1.458 1.5394 1.729 2.7051 2.487.5505.347 1.3049 1.132 1.6991 1.699.5573.826-.0985.507-.4893.429-.0816-.017-.1394-.017-.1802-.004.2345.245.4724.486.7001.738.6049.659 1.1554 1.373 1.7162 2.12-.0612-.153-.1224-.306-.1903-.462-.4894-1.087.0407-1.098.9991-.184.2175.208.4146.412.5947.609.1495.17.2888.333.4214.482.0475.034.299.269.4349.446.1564.18.2719.367.3671.54.367.707.3024 1.244-.0714 1.519-.0646.047-.1325.092-.2005.136.3704.69.6355 1.437.7952 2.216.1393.112.2685.254.2719.326.0645.601.1189 1.125.1733 1.628.0204.251.0612.489.0612.754 0 .231.0441.391.1189.591.2923.962.4588 1.924.3058 3.154-.2786 2.036-.3874 4.21-1.485 6.151-.8156 1.434-1.4035 2.892-1.9133 4.353-.2583.741-.5539 1.499-.9447 2.25-1.1079 2.018-2.1715 3.232-3.1537 3.521-.3568.098-.734.258-1.1112.523-.4554 1.016-.7952 2.08-.9312 3.222-.0475.394-.0951.713-.1529.985.0238-.037.0476-.075.068-.112.3772-.646.6966-1.675 1.1622-2.287.1801-.262.35-.7.5573-1.043-.0373.367-.0136.703-.0645 1.084-.0816.489-.1699 1.033-.1767 1.067-.0442.238-.0884.475-.1258.696-.0272.16-.034.191-.0476.245-.0135.054-.0271.105-.0407.153-.0238.085-.051.173-.0748.234-.0374.096-.0816.194-.1495.276-.0952.071-.1122.166-.1088.275l-.0272.313-.0136.159c.0136.034.0816.017.119.028.3874.027.7646.054 1.135.078.2651.023 1.0943.051 1.7502.074.6796.024 1.3525.048 2.0254.068.9515.031 1.9166 0 2.8784-.01.5981-.007 1.3049-.112 1.7739-.034 2.2021.364 4.078.466 5.6242-.408.2855-.159 1.6108-.176 2.3822-.122 1.1928.085 2.3075.296 3.4799.432.7986.091 1.8317.282 2.4162.18 1.5735-.269 2.9294-.021 4.2989.095 1.9914.17 3.8911.571 5.9913.156 2.8036.585 5.0873.082 7.3845-.431.2991-.068.8088-.143 1.0399-.099 1.7128.337 3.5207.466 5.4645.449.2345 0 .785.306.6831.37-.1869.119-.367.248-.5505.377h2.2089c-.0544-.01-.1088-.02-.1632-.03.3161-.089.5948-.221.9516-.259 1.2811-.108 2.5861-.217 3.1876-.268 1.3763 0 2.6779.234 3.5751.554h3.2352v-.996c-.7205-.16-1.3118-.53-1.8589-1.284-.3603-.5-.7273-.999-1.0943-1.499.2413.367.4792.734.7137 1.101.1223.19.1189.445.1019.598-.0034.044-.2821-.139-.401-.285-.3806-.469-.7714-.952-1.1181-1.445-.8223-1.165-1.6481-2.327-2.5589-3.418-.9039-1.091-1.92-2.097-2.9871-3.028-1.0875-.942-2.2463-1.798-3.4561-2.546-.6049-.373-1.2234-.717-1.8487-1.026-.6491-.326-1.3118-.673-1.9472-1.098-.6525-.431-1.2608-.924-1.7706-1.549-.5097-.598-.9175-1.427-1.1282-2.185-.3704-1.234-.9821-2.569-1.2064-3.864-.2379-1.356-.4248-2.671-.6219-3.963-.051-.132-.1088-.268-.1495-.39l-.1122-.415-.1971-.829c-.1223-.551-.2243-1.098-.3228-1.642-.0782-.424-.068-1.094.0102-1.481.0679-.344.1359-.69.2039-1.037.0577-.244.1155-.493.1767-.741.0204-.734.0272-1.461.0645-2.107.0544-1.339.0884-2.701.2549-4.016.2413-1.91.4622-3.817.7375-5.713.1053-.727 3.2216-4.921 4.7508-7.266.5641.021 1.1283.038 1.6958.051.4825.017 1.0161.065 1.4783.204.9617.296 1.9404.595 2.9055.891.9685.302 1.9473.533 2.926.594 2.2361.197 4.0814.429 5.8621 1.407.4758.269 1.4273.208 2.1579.231.8904.024.8156-.52 1.1385-.815.3738-.34.7272-.347 1.2268-.058 1.1282.618 2.1409.788 3.4866.483.649-.153 1.373.016 2.008.635.65.639 1.435 1.295 2.641 1.482.204.04.727.418.775.605.387 1.175 1.148 1.723 2.243 2.385.363.221.921.792.989 1.132.469 2.114 2.008 3.837 2.752 5.835.034.095.313.18.473.244.982.391 1.002.415 1.155 1.686.024.197-.031.408.048.574.717 1.56 1.498 3.134 2.028 4.785.422 1.254.741 2.529 1.105 3.789.02.068 0 .146-.027.221.387-.061.717-.109 1.04-.19.914-.235 1.828-.472 2.745-.707-.394-.149-.655-.364-.7-.608-.013-.065.259-.262.35-.262.259 0 .663.014.721.119.16.292.397.432.673.483 1.651-.429 3.306-.85 4.961-1.275.119-.333.265-.652.592-.877.496-.343 1.413-.574 2.368-.282.469.143.969.14 1.465.045.163-.041.326-.082.486-.123.258-.081.513-.18.758-.299.523-.251.992-.554 1.526-.792.203-.098.407-.193.618-.295.221-.099.438-.289.547-.524.048-.071-.16-.39-.234-.404zm-73.829-88.911c.7069.034.9889.364 1.1826.744.435.214.8598.463 1.2846.7-.0374.024-.1054.072-.1054.072-.401-.258-.7986-.524-1.2064-.761l-1.2947-.694c.0476-.02.0883-.064.1427-.061zm17.5762 68.211c-.1394-.017-.2821-.088-.4214-.159.1019-.163.1937-.316.2684-.449.034.007.068.01.0986.02.2073.068.3772.266.4757.418.0272.038-.2718.191-.4213.17zm38.9718 26.565c-.119.031-.292-.071-.476-.122.109-.15.194-.262.276-.374.173.071.384.122.503.221.037.03-.164.241-.299.275zm2.002-37.963c-.106-.02-.275-.163-.35-.299-.051-.091.007-.265.017-.401.129.092.258.184.455.323-.047.163-.061.391-.122.377zm3.347 6.518c-.197-.309-.381-.516-.377-.605.013-.197.119-.339.187-.503.112.14.312.317.319.412.017.214-.064.391-.129.693z" fill="#435dc6"/><g fill="#000"><path d="m28.9213 140.872c.0136-.489.3432-1.152-.3976-1.319-.8632-.176-.3432-.496.068-.72.333-.19.5777-.333.768-.452.1937-.115.3262-.217.418-.343.1869-.248.1903-.608.2888-1.302.0612-.435.068-.917.2719-1.328.1087-.215.5437-.442.7952-.446.2617 0 .486.255.7238.401-.2107.129-.4281.248-.6388.388-.1904.125-.3399.241-.4418.346-.0986.109-.1496.211-.153.299-.0101.181.1666.32.5336.466.4588.177.7.333.6423.853-.0442.377.0102.785.5199.663.0952-.021.2073-.136.2991-.262.0951-.122.1597-.265.1461-.36-.0612-.456.0374-.802.2617-1.033.2311-.221.5777-.34.9923-.374.4044-.031.7-.153.9209-.374.1122-.105.2073-.234.2957-.37.0917-.13.1767-.272.2548-.422.187-.336.418-.588.7069-.707.2923-.119.6253-.142.9957-.081.418.068.8598.214 1.2676.207.3806-.007.8836 0 1.1112-.238.3841-.37.3365-.836-.2107-1.254-.2956-.214-.282-.384-.1631-.506.1224-.116.3467-.173.4554-.17.2515.007.4996.058.7442.129.2481.078.4894.17.7307.241.8699.255 1.6652.544 2.4875-.085.1394-.112.4214-.207.52-.139.734.544 1.4375.591 2.1681.54.7239-.051 1.4749-.186 2.1682.014 1.8656.554 3.6158.588 5.5256.466.3976-.024.571.02.9142.22.5811.354 1.1554.823 1.7671 1.078.6117.251 1.2642.282 2.0526-.259.7646-.523 1.2506-.778 1.4273.429.017.122.5267.163.8122.18.1903.007.6797-1.02.4928.149-.102.643-.017 1.037.666.782 1.0093-.384 1.757.194 1.7298 1.04-.034.958.5403.975.9515 1.264s1.0161.313 1.3729.656c1.6822 1.594 3.5377 2.685 5.8417 3.188.5744.135 1.1181.428 1.706.468 1.1996.089 1.8589.949 2.3686 1.802.2957.523.4078.88 1.0977.822.3602-.031.7238.268 1.0875.418l.0238-.007c.9005.061 1.5802.445 2.1613.955.5709.527 1.0535 1.169 1.5836 1.74.4724.51.5064 1.658 1.7162.979.017-.01.3364.35.3296.544-.0204.594.1835.795.7918.873.4962.061.9787.377 1.4035.669.5336.367 1.0161.303 1.4885-.047.6151-.452-.0068-.795-.1325-1.193-.102-.326-.5948-.7.0169-.992.3671-.177.9074-.265.6389-.789-.1869-.36-.6321-.747-1.0127-.815-.819-.146-1.92.248-1.4782-1.346.0407-.143-.5438-.493-.8768-.676-.9278-.514-1.8963-.809-2.4332-1.978-.5709-1.176-1.9982-1.203-3.2012-.49-.4588.272-.7205 1.183-1.4885.717.384-.492.7442-1.002 1.1588-1.464.1835-.204.5539-.258.6865-.476.1427-.238.2379-.782.1291-.856-.3602-.245-.7034-.534-1.0501-.809-.3534-.272-.7068-.54-1.0772-.778-.7409-.473-1.5463-.809-2.5386-.711-.8462.079-1.57-.105-2.0016-.747-.3194-.473-.1801-1.322-.5403-1.75-.2719-.313-1.3492-.051-1.4511-.31-.4044-1.04-1.237-.774-1.9439-.73-.35.017-.7578.323-1.0025.615-.0781.095.2141.601.4078.856.7205.904 1.4851 1.771 2.1104 2.726.1631.248.0544.771-.0646 1.125-.0475.139-.4791.278-.6966.248-.9617-.153-2.4978-1.696-2.4978-2.746.0068-1.122-.6491-1.642-1.4273-1.652-1.4783-.024-1.8487-1.675-3.1095-1.974-.1019-.024 0-.846 0-1.295.3535.024.7715-.061 1.0603.092.7748.425 1.4647.989 2.1987 1.471.2685.174.6015.275.921.326.1529.024.3704-.122.5097-.251.0578-.054.034-.323-.0407-.391-.8123-.727-1.5973-1.845-2.5726-1.995-1.57-.244-2.7934-.819-4.0202-1.716-.1597-.115-.5471-.092-.717.027-.2821.197-.452.544-.7001.792-.8258.829-.8462.809-1.4783-.122-.2515-.357-.7782-.958-.9243-.887-.5404.265-.9719.224-1.3593.051-.3909-.167-.7443-.456-1.1147-.687-.9889-.591-2.005-.955-3.1706-.418-.1768.082-.4112.089-.6559.051-.2413-.03-.4928-.098-.6899-.187-1.101-.489-2.3516-.428-3.5648-.38-1.2234.034-2.4026.068-3.6158-.476-.1835-.078-.537.194-.819.238-2.0084.35-3.9319 1.111-5.8553 1.655-2.1886.622-4.3125 1.662-5.7636 3.49-.2821.377-.7782.67-1.203.894-1.3424.69-2.2531 1.927-2.8852 3.218-.1869.411-.3874.775-.6151 1.121-.2107.357-.4486.701-.7272 1.054-.9686 1.295-1.8589 2.756-2.0798 4.438-.2957 2.382-.8836 4.564-1.4545 6.817-.5437 2.08-.87 4.323-.3194 6.494.4791 1.924.9481 3.83 1.6651 5.618.5472 1.369.8768 2.583 1.2812 3.86.068.214.1393.442.2243.666.0884.221.1971.432.316.612.1802.279.3025.506.3807.721.0849.21.1291.411.1427.632.0442.564.2583.795.6932.9.6525.174.9312.507 1.4885 1.529.1665.33.3534.646.5471.955.1937.313.3909.619.6185.901l.6151.771c.2141.248.4418.486.6627.728l1.339 1.44c.9583.891 1.8622 1.839 2.8715 2.665 1.1623 1.05 2.3993 2.005 3.6193 2.977.6049.438 1.2166.934 1.8181 1.403.6083.462 1.2302.857 1.8045 1.159.8258.442 1.6516.907 2.4672 1.38.4112.231.8088.482 1.2267.686.4146.208.8326.405 1.254.575.3263.132.6695.288 1.0059.482.3365.187.6763.401.9856.68.3262.289 1.1452.683 1.7093.89 1.3899.469 2.5827 1.026 3.6124 1.903.1292.112.6763.309.7545.275.1937-.078.2276-.268.3228-.414.2549.258.4452.55.7748.792.3297.244.7816.543 1.1792.676 1.3492.462 2.6337.914 3.8028 1.713.1699.115.4961.115.7476.18.8292.214 1.6856.363 2.491.649 1.3321.476 2.6405 1.033 3.942 1.597.8496.367 1.6244.377 2.474.449.7646.057 1.5938.707 2.4196 1.029.9278.361 1.8895.629 2.8274.945.3127.105.6117.323.921.371 1.3049.2 2.6201.326 3.9318.492.4452.055.972.075 1.3152.303.8462.554 1.7603.809 2.6982 1.142 1.0094.35 1.9133.832 3.0076.798.2039-.003.5199.187.6355.367.6388.989 1.5802 1.016 2.5997 1.023.4927 0 1.0603.054 1.4783.289.6864.381 1.3389.809 2.0118 1.193.6762.38 1.3899.676 2.2123.805.5301.082 1.0127.574 1.5326.819.4962.224.9617.51 1.4171.812.4486.313.8802.656 1.3253.969.449.306.894.612 1.38.856.482.248 1.023.401 1.6.51.181.031.316.36.507.51.384.302.795.574 1.196.853.432.285.914.496 1.339.792.438.312.853.649 1.284.965l.646.472c.207.163.422.326.636.483.424.319.88.604 1.322.904.441.299.904.577 1.393.829.493.251 1.023.972 1.121 1.444.157.744.435 1.349.867 1.849.442.492.934.948 1.505 1.39.194.153.391.309.581.469.181.17.357.339.531.516.343.357.7.714 1.006 1.108.295.401.577.816.836 1.247l.193.323c.058.112.109.228.16.34.102.228.2.462.292.697.123.322.282.638.422.961.129.33.258.656.387.986.061.163.122.329.177.496.054.173.102.306.153.55.098.446.173.904.224 1.407.031.306.18.785.309 1.013l.072.126c.04.017.115-.017.169-.021l.354-.068.676-.122.326-.054c.113-.024.228-.058.344-.085.227-.058.452-.109.676-.16.197-.041.394-.082.595-.126.159-.03.322-.061.486-.088.326-.054.655-.102.992-.143.686-.092 1.414-.387 2.093-.465.846-.102 1.516-.347 2.281-.581 1.485-.463 3.031-.864 4.584-1.173 1.532-.306 3.092-.53 4.635-.832.326-.062.659-.136.982-.208.099-.024.262-.075.245-.075-.065-.003-.18-.006-.299.011-1.176.19-2.355.353-3.541.523-1.55.224-3.103.462-4.656.676-.166.024-.326-.027-.499-.041-1.122-.078-1.146-.101-1.795.425-.105.085-.268.242-.36.248-.955.072-1.937.265-2.912.422-.486.078-.976.142-1.458.17-.241.013-.483.017-.721.003-.234-.01-.503-.037-.652-.078-.105-.027-.265.007-.449.064-.18.058-.38.126-.55.208-.123.061-.252.115-.381.17l-.098.04-.048.021s-.014-.017-.024-.024c-.027-.037-.054-.078-.078-.119-.102-.163-.187-.36-.245-.571-.057-.21-.085-.438-.074-.666.006-.115.023-.228.051-.34l.051-.166c.013-.065.03-.129.051-.194.044-.153-.109-.697-.242-.829-.19-.194-.34-.398-.452-.608-.108-.215-.19-.429-.265-.643-.132-.428-.156-.873-.132-1.281.061-.822-.282-1.356-.782-1.692-.262-.174-.486-.354-.673-.551-.183-.197-.363-.391-.493-.611-.265-.439-.397-.952-.421-1.567-.044-.547-.272-.822-.792-.853-.452-.024-.873.418-1.386-.211-.449-.496-1.095-1.067-1.196-1.58-.096-.483-.269-.907-.463-1.329-.2-.414-.428-.822-.71-1.189-.285-.364-.608-.714-.958-1.057-.177-.17-.357-.343-.551-.506-.197-.16-.404-.316-.615-.476-.37-.275-.713-.585-1.043-.921-.343-.32-.67-.663-.996-1.02-.639-.727-1.312-1.434-2.018-2.093-.337-.323-.819-.517-1.254-.676-1.268-.466-2.576-.778-3.861-1.118-.965-.231-1.291-.891-.836-1.618.133-.207.303-.394.459-.588-.357-.18-.727-.455-1.091-.479-.449-.034-.9481.319-1.305.18-.5913-.245-1.186-.479-1.7705-.744l-.8734-.401-.8767-.391c-.4792-.214-.7884-.663-.435-1.084.734-.856.1495-.972-.7035-1.118-.5403-.092-1.067-.204-1.5972-.262-.5267-.057-1.0637-.04-1.604.085-1.3865.327-1.4001.265-1.9336-.921-.5981-1.328-.6117-1.311-2.2565-1.413-.7341-.055-1.4987-.099-2.1953-.306-1.3322-.398-2.6303-.887-3.9557-1.285-.1393-.041-.3568.068-.4995.15-.0442.027-.0102.234.0611.295.2243.187.4826.347.7273.52-.3297-.044-.6729-.051-.9855-.142-.3807-.113-.9584-.242-1.0637-.463-.6321-1.305-1.8555-.87-2.9192-.941-.7204-.044-1.4851-.037-2.1443-.251-1.7774-.568-3.4969-1.251-5.2674-1.795-1.8725-.581-3.779-1.091-5.6582-1.641-.887-.262-1.8555-.527-2.3313.017l.1291.092-.1325-.092c-1.0773-.88-2.338-.887-3.541-1.016-.4962-.044-1.0467-.024-1.407-.371-1.0704-1.056-2.722-1.451-4.2207-2.113-1.3457-.541-2.7288-1.135-3.9216-1.822-.5913-.37-1.2642-.605-1.9065-.883-.6491-.265-1.2336-.626-1.6958-1.125-.0849-.095-.6015-.344-.8258-.405-.4587-.119-.8461-.346-1.2404-.594-.3908-.252-.7748-.541-1.1894-.84-.8529-.635-1.6617-1.346-2.5181-1.991-.4112-.347-.8292-.68-1.2608-.999-.4316-.32-.8938-.605-1.3355-.911-.2991-.194-.6661-.591-.9856-.904-.6253-.578-1.169-1.237-1.7365-1.866-.2753-.323-.5743-.625-.8326-.961l-.785-1c-.6026-.745-1.0104-.953-1.2234-.625-.0374.058-.1393.031-.2107.041-.0612-.143-.1835-.353-.1699-.418.0849-.459-.1359-1.043-.7612-1.842-.1326-.16-.2379-.448-.2685-.598-.0782-.503-.2651-.999-.5234-1.455-.1257-.227-.282-.445-.4213-.652-.1394-.211-.2889-.404-.4452-.581-.3534-.384-.5641-.782-.7341-1.183-.1767-.397-.2548-.829-.3364-1.294-.1597-.942-.2481-1.89-.6219-2.909-.469-1.336-.7918-2.756-1.0161-4.184-.0476-.346.0374-.737.085-1.101.0883-.554.1359-1.108.2888-1.638.0986-.37.1462-.693.1224-.975s-.1428-.517-.4146-.71c-.3059-.221-.3195-.52.1019-.687.3466-.143.5743-.36.3806-.928-.4791-1.488-.4112-3.082 1.0025-4.19.1394-.108.2345-.394.2855-.605.0714-.261.1699-.523.2447-.785.0747-.261.1291-.523.1529-.771.0374-1.22.8496-2.569-.4996-3.473-.1767-.116-.3228-.36-.3568-.646-.0272-.279.068-.588.3534-.819.2515-.211.4112-.68.6423-1.002.2277-.327.52-.497 1.0433-.072.1529.123.4486.072.6797.109zm-3.2896 4.533c.2005-.03.4282-.108.6117-.057.1699.047.435.261.4112.339-.1121.388-.2413.85-.4996 1.108-.3398.374-.7986.612-1.2064.918-.0068.003-.0679-.143-.1291-.272.3874-.241.6219-.534.7408-.877.136-.336.1496-.72.0714-1.159zm2.2871 24.951c.0645.102.017.299.0204.452-.2277-.265-.4758-.51-.6831-.802-.1019-.136-.1087-.377-.2447-.928.2209.32.3772.561.5302.758.1529.194.2684.353.3772.52zm26.337-38.123c-.0578-.176-.1495-.35-.1665-.526-.0068-.065.2243-.228.2413-.211.1257.112.2277.258.3908.462-.2073.119-.3365.197-.4656.272zm9.0124 62.431c-.1394-.003-.2889.021-.418-.024-.1428-.047-.2617-.156-.3942-.238.1699.021.3432.041.4723.055.1462.088.2447.146.3399.207z"/><path d="m103.593 161.751c-.215-.122-.476-.133-.714-.19.109.22.282.445.316.662.061.391.187.833.265 1.237.071.411.092.785-.051 1.037-.489.863.068 1.288.619 1.848.326.333.638.728 1.019.959.248.153.483.316.697.492.21.181.407.374.591.578.367.408.69.863.992 1.363.286.472 1.02 1.081 1.445 1.149 1.186.197 1.906 1.087 2.677 2.045.503.632 1.081 1.22.728 1.863-.17.305.112.696.584.992 1.118.707 1.078.737 1.424 1.937.163.571.32 1.366 1.023.985.044-.023.323.187.357.272.503 1.203 1.458 1.849 2.243 2.671.645.67 1.108 1.445 1.21 2.08.102.704.638 1.417 1.063 1.822.462.425.874.537 1.258.744.054.031.03-.313-.034-.421-.561-.911-1.05-1.774-1.37-2.692-.044-.122-.231-.336-.353-.452-.469-.445-.931-.89-1.38-1.383-.445-.5-.839-1.07-1.098-1.832-.914-.761-1.25-1.801-1.791-2.766-.37-.666-.628-1.407-1.332-1.961-.265-.204-.459-.771-.652-1.179-.296-.588-.51-1.206-.846-1.784-.215-.374-.673-.948-.894-.969-.602-.054-1.047-.295-1.4-.673-.364-.367-.632-.873-.87-1.471-.102-.255-.439-.476-.656-.724-.35-.397-.721-.781-1.03-1.206-1.101-1.455-2.202-2.909-3.493-4.615-.017-.014-.259-.265-.541-.425zm2.212 3.983-.15.023c-.343-.132-.693-.241-1.026-.407-.082-.041-.109-.279-.16-.425.106 0 .248-.048.316.007.303.255.585.537.87.812z"/><path d="m90.6616 153.986c.2515-.299.4792-.626.7646-.884.1767-.16.6151-.347.6559-.296.8462.993 2.2361.459 3.1536 1.411.7647.792 1.9949 1.084 2.525 2.229.3976.85 1.1316 1.312 1.988 1.59.4353.143.8803.293 1.2843.52 1.095.626 1.547 1.635 1.132 2.603-.36.836-.51 1.655-.252 2.604.034.129-.088.373-.193.384-.136.013-.415-.126-.476-.245-.421-.856-.89-1.726-1.155-2.637-.2281-.819-.5578-1.312-1.4108-1.716-1.1214-.537-2.5419-.69-3.1536-2.09-1.0977-.17-1.7535-.768-1.9982-1.842-.017-.075-.2209-.173-.333-.17-.5676.007-1.0026-.201-1.3968-.486-.401-.279-.7544-.639-1.1384-.948v-.021z"/><path d="m90.6623 154.01c-.1223.149-.2583.292-.367.452-.2685.397-.5539.815-.8292 1.226-.1257-.54-.4656-1.148-.333-1.627.3432-1.234.2582-2.41-.119-3.654-.2243-.727.3161-1.121 1.0705-.937 1.3729.367 1.6958 1.223.8666 2.331-.5132.69-1.22 1.308-.2923 2.182v.02z"/><path d="m122.991 188.904c.367.601.625 1.226.788 1.692s.231.775.139.795c-.02.004-.207-.228-.248-.302-.108-.204-.265-.524-.244-.558.091-.149-.011-.462-.201-.839-.2-.37-.489-.805-.751-1.213-.173-.272-.391-.51-.567-.778-.119-.184-.194-.405-.286-.612.126.122.258.221.374.38.411.568.812 1.163.996 1.438z"/><path d="m104.669 206.67c.252.075.561.088.738.248.16.143.217.435.231.649.003.054-.353.156-.483.088-.176-.091-.299-.316-.452-.479l-.037-.506z"/><path d="m96.3129 160.915c-.2922-.166-.5505-.241-.5607-.329-.0306-.197.0612-.405.102-.608.1597.061.4248.095.452.186.0645.198.0135.418.0067.751z"/><path d="m78.3061 145.827c.0544.037.1156.064.1597.108l.7884.796c-.1087.074-.2174.214-.3228.217-.8224.031-.6967-.567-.6491-1.118l.0238-.007z"/><path d="m28.636 142.462c-.3432.262-.6796.541-1.0263.826-.017-.047-.0577-.102-.0475-.146.1631-.601.5845-.717 1.0636-.707l.0068.027z"/><path d="m125.562 193.818c-.084-.099-.146-.17-.21-.245-.061-.132-.143-.299-.17-.384-.007-.027.132.15.2.259.058.095.109.227.177.367z"/><path d="m28.6289 142.435c.3534-.258.6933-.516 1.0433-.754.0204.044.0612.122.0612.122-.3671.221-.7307.438-1.0977.659z"/><path d="m91.1372 156.433c-.0238.201.0068.438-.068.469-.1291.058-.3534.041-.4724-.037-.0781-.055-.0407-.276-.0577-.418.1699-.004.3364-.011.5947-.017z"/><path d="m28.9219 140.872.0577.146z"/><path d="m4.15408 177.87c-.33983-.526-.54033-1.505-1.203-1.016-.37722.289-.51995.241-.56073.041-.04078-.197.03059-.544.10535-.839.21749-.983.37042-1.455.33304-1.876-.04418-.422-.24129-.785-.65248-1.56-.26167-.483-.53694-.952-.67627-1.533-.07816-.306.11554-.917.30245-1.162.1971-.251.53694-.224.8156-.316-.07816.323-.16312.646-.23109.975-.22768 1.22-.05097 1.557.69326 1.129.46897-.262.75783-.347 1.04669.227.21069.422.51314.785.82919.16.12234-.235.06457-.907-.07477-1.074-.34323-.398-.48935-.833-.47576-1.281.03058-.449.2073-.914.50975-1.38.30585-.448.42479-.89.45877-1.329.04078-.438-.02379-.876-.10874-1.315-.08496-.499-.06117-.958.06796-1.383.13933-.421.38061-.809.71025-1.172.39081-.411.8088-.799 1.13164-1.278.30925-.438.66947-1.04.69666-1.485.03059-.734-.36702-1.016-1.07727-.69-.76802.357-.45537-.581-.28886-.829.39421-.558.91415-.972 1.39332-1.434.85638-.836 1.68217-1.648 1.79092-3.025.01699-.231.13253-.639.26506-.713.98888-.575 1.54288-1.441 2.02538-2.372.4792-.932.8802-1.931 1.5395-2.706 1.7807-2.103 2.9871-4.305 4.0406-6.742.2175-.506.3636-.71.768-1.087 1.3831-1.271 3.2522-2.447 2.943-4.642-.153-1.067-.1938-1.696 1.152-1.747.1359-.007.4248-.646.5675-1.009.0986-.245-.7748-.983.3772-.612.6321.204 1.1011.122 1.1215-.778.0306-1.319.9073-2.24 1.8249-2.185 1.0263.061 1.2777-.697 1.7297-1.251.4622-.557.6933-1.356 1.1826-1.852 2.2803-2.355 3.9557-5.183 4.7101-8.431.1767-.813.5234-1.628.5811-2.417.068-1.631.9923-2.779 1.8249-3.87.2549-.32.4758-.564.6117-.836.136-.276.2005-.575.0986-1.023-.0986-.466.1291-1.101.2107-1.659l-.0102-.027c-.0306-.302-.0374-.591-.0272-.877.0068-.285.0136-.574.0476-.849.0645-.557.1903-1.094.3534-1.628.1801-.527.3262-1.064.4995-1.6.17-.537.3501-1.074.5064-1.618.2651-.958 1.2506-1.9473.0476-2.8241-.0136-.0136.1257-.6661.2922-.8122.5064-.4486.5675-.8496.2957-1.587-.2209-.6015-.2243-1.3763-.2039-2.0594.0238-.853-.2719-1.3152-.8156-1.5768-.7035-.3365-.6899.5981-.9583 1.0399-.2243.3602-.2753 1.1928-.853.751-.35-.2651-.7137-.7986-1.0093-.0918-.2073.4894-.2855 1.2812-.1292 1.7536.3263 1.0059 1.2812 1.9404-.333 2.6303-.1393.0611-.1495.9485-.1529 1.4375.0102.683 0 1.339-.0714 2.002-.0883.659-.2277 1.322-.717 1.954-.4792.652-.6015 1.373-.4928 2.086.0782.704.4078 1.4.9006 1.968.3738.438 1.3559.306 1.0399 1.526-.5676-.252-1.1589-.469-1.7128-.768-.2447-.133-.384-.561-.6321-.619-.2685-.064-.8292.058-.8768.218-.1835.523-.418 1.04-.6456 1.559-.2243.517-.452 1.037-.6763 1.55-.4384 1.033-.7035 2.1-.6151 3.283.0476.51.017 1.006-.1122 1.458-.1223.455-.3874.849-.7442 1.182-.5369.49-1.4307.459-1.9098.955-.3705.361-.2277 1.642-.5268 1.795-1.1554.598-1.0399 1.556-1.1418 2.429-.051.429.1767.918.435 1.214.0815.095.7-.296 1.0195-.561 1.169-.958 2.2259-2.063 3.3949-3.038.2956-.258.8462-.228 1.2234-.153.1461.03.2413.578.1699.877-.1733.656-.7816 1.57-1.4851 2.324-.717.744-1.5394 1.319-2.1103 1.356-1.22.085-1.9609.914-2.2191 1.907-.2447.954-.8632 1.529-1.5055 2.059-.6423.533-1.3151 1.019-1.7263 1.781-.068.125-.8938-.082-1.3628-.133.1632-.435.2311-.951.503-1.288.7306-.904 1.5564-1.723 2.3074-2.613.2685-.326.4724-.744.6151-1.142.068-.19-.0271-.459-.1257-.629-.0408-.071-.3364-.041-.4282.051-.9889 1.003-2.4094 1.873-2.8886 3.025-.7918 1.862-1.886 3.272-3.3269 4.554-.1869.166-.3331.625-.2923.852.0714.374.3467.653.486 1.003.4554 1.166.4044 1.206-.8428 1.754-.4894.214-1.3491.686-1.3559.88-.034 1.427-1.1045 2.005-1.9473 2.732-1.135.955-2.039 2.002-2.2497 3.565-.0577.476-.5437 1.125-.9413 1.515-1.1214 1.074-1.84189 2.529-2.59632 3.929-.75783 1.403-1.53944 2.763-2.80022 3.765-.18691.153-.2175.694-.36702 1.03-1.08407 2.379-1.90986 4.907-2.91916 7.286-1.15883 2.695-1.998219 5.515-1.882676 8.509.030585.605-.14273 1.329-.305849 1.924-.540334 1.852-.4111978 3.833.037381 5.672.071365.285.132535.564.18351.839.054373.275.115543.544.159721.816.047577.271.08156.543.118942.825.044178.279.084958.565.118941.864.25148 2.134.75783 4.366 2.01861 6.242.89376 1.322 1.71955 2.637 2.55893 3.929.8258 1.298 1.65499 2.593 2.47399 3.881 1.53604 2.395 3.30652 4.696 5.60382 6.422 2.0356 1.547 3.9896 3.158 5.9675 4.673 1.5088 1.166 2.6575 2.338 3.7789 3.626.3806.425.802.925 1.2268 1.268.6491.533.9413.924 1.1588 1.417.2685.632.5778.846 1.0739.941.3806.072.6763.211.9855.483.3093.272.6627.659 1.0977 1.271.5675.761 1.0433 1.583 1.6142 2.321 2.0322 2.691 3.7721 5.624 4.7678 8.835.6389 1.907.8938 3.902.836 5.907-.0408 1.93-.6151 3.979-1.0059 5.583-.2786 1.166-.7646 2.301-1.3525 3.354-.2923.53-.6219 1.033-.9583 1.526-.1734.241-.3467.483-.52.721l-.2685.35c-.0951.119-.1529.217-.3228.394-.1393.149-.2787.299-.4248.455-.0747.075-.1325.15-.2277.228-.0985.078-.1971.156-.2956.234-.2039.157-.4078.313-.6151.473-.034.02-.0408.037-.0952.061l-.2073.085-.4214.17c-.2922.115-.5845.231-.8767.346-.0544.099-.1156.198-.1801.3-.0612.112-.1462.166-.2277.258-.1632.16-.3399.35-.5404.523-.1699.119-.3126.252-.435.391l-.0271.048-.051.04c-.0306.027-.0646.055-.0952.082-.0611.051-.1155.115-.1699.153-.1155.058-.2107.143-.3092.16-.1598.061-.3806.098-.6253.139-.1292.013-.2549.024-.384.037l-.0476.007s.0272.007.0408.007l.0951.017.1903.034c.4928.098.921.224.8632.639-.0068.051.0782.112.1937.142.4248-.098.8394-.203.9617-.254.6117-.252.8462-.463 1.2166-.684.2889.109.5336.266 1.1453.303.6049.037 1.5802.037 2.4094-.085.3432-.048.6864-.099 1.0263-.146l.5029-.068c.1564-.021.3603-.048.452-.055.4622-.044.921-.078 1.3797-.098.9142-.041 1.8249-.027 2.7357.071.2617.024.6627-.088 1.0093-.129 1.1248-.119 2.2531-.316 3.3881-.346.938-.011 1.8793.03 2.8206.071.938.047 1.8759.088 2.807.197 1.22.126 2.209-.071 3.3304-.231 1.0059-.122 2.2905.333 3.4595.465 1.3118.133 2.6371.266 3.9557.398.4383.048.8869.211 1.3015.201.8802-.007 1.7569-.014 2.6337-.021s1.7637-.054 2.6439-.027c.5981.01 1.2948-.024 1.8011.167.6253.234 1.2574.387 1.8929.509.6355.136 1.2778.255 1.9336.384.7035.14 1.3832.31 2.0696.425.6865.109 1.3661.218 2.0832.17.2685-.017.7306.16.9243.333.537.483 1.1181.714 1.7366.819.6117.119 1.2608.109 1.9336.088.0816 0 .1631 0 .2481-.003.085 0 .2311.014.3432.024.2413.02.4826.044.7205.075.4757.057.9413.159 1.3933.305.7306.228 1.5122.544 2.321.843.8055.306 1.6482.622 2.4944.918.8462.295 1.6958.571 2.4808.785.7952.224 1.5564.428 2.124.489.3636.041 1.0127.286 1.7535.574.7374.289 1.5666.626 2.1511.806l.6015.194c.2107.067.4214.139.6185.214.4078.146.8394.309 1.2914.482l2.916 1.145c1.019.405 2.073.819 3.079 1.203l.373.143.184.068c.051.017.078.021.119.034l.442.112c.285.068.543.123.758.153-1.462-1.121-3.504-2.572-6.077-4.221-.333-.21-.404-.312-.458-.414-.055-.099-.085-.201-.2927-.377-.8326-.711-1.7841-1.492-2.858-2.321-1.1317-.877-2.5012-1.825-3.5343-2.644-1.0297-.833-2.056-1.662-3.0789-2.491-.9719-.799-1.9506-1.594-2.9361-2.372-.4248-.361-.8462-.721-1.271-1.081-.418-.35-.8326-.693-1.2438-1.023l-.4859-.38-.4384-.33c-.2957-.218-.5947-.425-.9006-.629-.6083-.414-1.3491-1.369-1.5326-1.957-.5234-1.897-1.8181-3.096-3.1842-4.452-1.9031-1.832-3.5411-4.092-4.4485-6.681-.6456-1.754-1.4273-3.626-1.3865-5.444.0136-.276-.0645-.731-.1699-1.003-.0782-.197-.1529-.397-.2209-.598-.0612-.204-.1087-.408-.1563-.615-.0952-.415-.1733-.833-.2379-1.257-.0408-.425-.068-.857-.0883-1.295-.0068-.218-.0204-.439-.0204-.656.0102-.221.017-.442.0272-.663.0271-.455-.0238-.938-.0204-1.42 0-.479.0068-.962.0543-1.411.1734-1.111.1496-2.049.2685-3.102.1971-2.049.6389-4.163 1.4239-6.141.7646-1.957 1.7943-3.82 2.9328-5.597.2514-.367.5029-.751.7476-1.125.0748-.112.1903-.316.1733-.299-.0578.058-.1665.17-.2651.303-.4689.652-.9583 1.291-1.3763 1.981-.2141.34-.4452.673-.6491 1.023l-.5947 1.06c-1.0025 1.866-1.8181 3.843-2.4672 5.876-.0611.221-.1869.394-.282.605-.6389 1.372-.6457 1.42-.4384 2.47.034.17.1087.442.0782.561-.1496.629-.2379 1.284-.3365 1.944-.0713.662-.1053 1.335-.1631 2.005-.0238.669-.0442 1.332-.1121 1.988-.0272.652-.0918 1.295-.2311 1.927-.068.39.0951 1.315.2582 1.784.2617.693.503 1.325.5982 1.957.1257.625.1461 1.241-.0374 1.92-.068.201.1291.935.265 1.135.2039.289.3637.581.486.877.1393.292.2481.581.3262.873.1632.581.1869 1.169.2107 1.683.0238.509.1258.958.2889 1.342.1665.384.3908.71.6932.958.6185.524 1.0501 1.084 1.39 1.682.35.595.5539 1.261.6626 2.022.119.683.4044 1.064.9855 1.203.2515.062.4826-.027.7307-.017.2447.014.5165.113.8666.534.2854.347.6287.734.9209 1.111.3025.371.5675.724.6661 1.04.367 1.193.9685 2.229 1.7025 3.232.3807.486.8021.962 1.254 1.434.2583.272.384.377.5709.544.1768.156.3637.312.5642.475.3534.3.6524.571.9039.85s.4486.54.5981.758c.3025.455.3569.724.5132.975.0781.119.5403.405 1.118.761 1.2336.751 2.7765 1.72 4.5402 2.862.3228.211.6457.421.9685.632l.4962.326.2514.167.1258.085c.0204.017.0068.013.0136.023.0204.123-.5947-.125-1.5055-.601-.9243-.479-2.1409-1.179-3.6124-2.063-.6525-.394-1.672-1.006-2.525-1.519-.0917-.014-.4859-.211-.1937.01.3704.265.6865.493.9991.717.3705.269.6559.496.5676.486-.2991-.037-.7205-.142-1.1793-.278-.4825-.147-.9685-.296-1.451-.442-.2039-.061-.4792-.214-.7341-.425-.2582-.214-.4893-.486-.717-.816-.4894-.686-.7884-1.005-.8836-1.111-.1053-.105-.0612-.013-.0782.072-.0237.108-.1087.176-.248.288-.0714.055-.1597.119-.2753.194l-.0442.031s-.0781.01-.1155.017l-.2583.03c-.1699.024-.3398.055-.5097.092-1.7332.387-1.7706.33-2.7493-.836-1.101-1.301-1.1078-1.295-3.3032-1.298-.9855.017-2.0084.027-2.9803-.133l-1.3933-.238-1.3967-.224c-.9312-.153-1.8589-.309-2.7934-.442-.1971-.03-.4588.113-.6253.215-.0544.033.0476.234.1597.285.35.153.734.299 1.101.445-.4519-.01-.9073.007-1.3491-.034-.5369-.058-1.3389-.102-1.5428-.312-1.1962-1.214-2.7153-.629-4.1562-.497-.9719.082-1.9846.221-2.9327.13-1.271-.085-2.5352-.201-3.8028-.31-.632-.064-1.2675-.088-1.903-.115s-1.271-.051-1.9099-.061c-1.3525-.045-2.7084.013-4.0644.064-.6796.027-1.3559.051-2.0356.088l-2.0322.164c-1.2777.105-2.6677.22-2.9837.948l.2141.027-.2175-.024c-.9108-.16-1.7739-.088-2.5997.065-.4146.078-.8156.18-1.2166.292-.2277.095-.4758.204-.768.319-.2345.096-.5234.218-.8054.296-.2753.078-.5438.112-.6355.017-.0884-.095-.1699-.17-.2617-.224-.0238-.014-.0442-.027-.068-.038-.0102-.006-.0306-.006-.0306-.017l.0102-.034.0408-.129c-.1597-.034-.401.007-.7238.078-.1733.038-.3433.079-.5166.119l-.2277.051.2005-.044c.4486-.112.7579-.238 1.2302-.51.1869-.122.4248-.275.6457-.428.0612-.041.1224-.085.1835-.126.0816-.057.1462-.112.2039-.166.068-.071.1292-.15.1903-.231l.4214-.561c.1563-.197.2855-.414.4282-.618.5539-.83 1.0501-1.652 1.672-2.379.1155-.14.4384-.891.5063-1.213.2957-1.271.7851-2.423 1.1521-3.827.3738-1.454.6457-2.963.6796-4.496.034-1.529-.1359-3.086-.6456-4.54-.1462-.483-.3365-1.21-.486-1.822-.6457-2.31-1.5768-4.54-2.7764-6.626-1.0399-1.764-1.0943-1.72-1.3934-1.203-.0339.057-.1563 0-.2378 0-.085-.191-.2515-.476-.2447-.554.0476-.547-.3161-1.339-1.2132-2.45-.1869-.225-.4112-.578-.4894-.772-.2447-.642-.666-1.261-1.1316-1.852-.4826-.571-1.0195-1.101-1.5463-1.505-1.169-.898-1.8588-1.737-2.654-2.814-.7987-1.088-1.6312-2.172-2.8207-3.191-1.5496-1.315-3.0856-2.688-4.5843-4.071-.3636-.333-.6491-.802-.9583-1.214-.4724-.618-.9346-1.254-1.3492-1.889-.5641-.894-1.0908-1.512-1.8385-1.536-.4281-.01-.717-.306-.5913-.768.1054-.388.0544-.778-.6253-1.217-1.7705-1.155-3.19438-2.759-3.27254-5.002-.0068-.221-.2175-.578-.35343-.846-.18011-.323-.35682-.666-.54373-.993-.17332-.329-.34323-.649-.55393-.917-.25487-.316-.46897-.69-.68646-1.06-.22089-.371-.44858-.738-.66607-1.071-.46557-.652-.98552-1.132-1.79772-1.036-.21069.027-.49955-.106-.74083-.371-.23788-.265-.3976-.666-.37382-1.145.0136-.428-.1971-1.053-.28885-1.584-.06797-.533.03398-.965.70685-.978.1971-.007.36702-.316.55053-.483zm1.20981 7.487c.11554-.197.2005-.462.36362-.561.15292-.092.50975-.088.55732.014.11894.244.23789.52.35683.781.11894.262.21409.52.24128.758.07136.67 0 1.264 0 1.893 0 .01-.17332-.088-.32964-.17.01699-.275 0-.533-.05097-.775-.04418-.244-.11215-.482-.2141-.703-.2039-.445-.54033-.843-.92774-1.234zm23.40771 26.683c.1121.13.1291.371.1903.561-.3467-.329-.7103-.625-1.0603-.972-.1665-.163-.2821-.448-.6899-1.104.785.734 1.1928 1.101 1.5633 1.515zm-12.3835-70.885c-.2039.017-.4214.071-.6083.037-.0646-.013-.085-.343-.0646-.36.1835-.119.3806-.194.6763-.333 0 .289-.0034.472-.0034.656zm25.5825 104.94c-.1801.051-.3568.129-.5403.139-.2005.011-.4044-.044-.6083-.068.2243-.047.4486-.095.6219-.129.2243.024.3772.041.5267.058z"/><path d="m54.1771 81.0251c-.2957-.2141-.6423-.2684-.9583-.3806.2106.2923.4961.6015.5811.8802.1699.4928.3738 1.0739.4893 1.587.1088.52.1326.9685-.034 1.2166-.5641.8428 0 1.4885.4758 2.3856.2889.5268.5166 1.1351.8428 1.5973.8564 1.2335 1.2812 2.6065 1.4783 4.1221.0985.7171.5131 1.8895.8699 2.2803 1.0127 1.0569 1.3322 2.5623 1.6482 4.1969.2005 1.0739.486 2.1445-.1053 2.6475-.2821.238-.1733.887.1495 1.543.7578 1.57.7069 1.576.5369 3.211-.0883.782-.265 1.818.5506 1.832.0509 0 .2311.431.2277.554-.0068.873.1597 1.651.367 2.399.2039.748.4587 1.461.6592 2.199.3229 1.206.4894 2.409.3263 3.231-.1733.901.0476 2.09.2786 2.838.2549.795.6117 1.179.8904 1.658.0408.072.1461-.353.1258-.526-.1836-1.428-.2787-2.763-.2311-4.051.0068-.173-.085-.54-.153-.755-.265-.819-.5471-1.631-.7544-2.504-.2107-.87-.3466-1.801-.2889-2.861-.5471-1.486-.4757-2.92-.5641-4.401-.0713-1.02-.0068-2.053-.4418-3.157-.1631-.412-.1223-1.197-.1359-1.798-.0272-.877.034-1.7332-.0306-2.6236-.0475-.5743-.2311-1.5394-.4282-1.7161-.5335-.4758-.8597-1.0535-1.0331-1.7264-.1767-.6695-.1971-1.4375-.1903-2.3041.0034-.3704-.2344-.8631-.3602-1.2981-.2005-.7001-.4452-1.3967-.6355-2.0968-.3398-1.2132-.734-2.4196-1.2573-3.66-.5234-1.2404-1.1759-2.5181-2.1274-3.8231-.0272-.017-.3636-.4316-.768-.7001zm2.5419 5.8486-.1597-.051c-.3364-.3398-.6899-.6457-1.0297-.9957-.0849-.0816-.0781-.3806-.1223-.5777.1189.0441.2786.0509.3432.1495.2991.4452.5607.9277.8088 1.4069z"/><path d="m39.2324 88.2973c-.3705-.1223-.7647-.1937-1.1045-.3772-.2107-.1122-.5165-.5234-.4758-.6049.1971-.401.3229-.7714.3806-1.1487.0816-.367.085-.7544.1394-1.1282.0442-.3806.0849-.7714.2141-1.1554.1121-.3942.316-.7749.6219-1.1487.5335-.6083.9719-1.3083 1.5632-1.9234.5675-.6287 1.2982-1.1724 2.1953-1.4035 1.3322-.3331 2.4638-.8564 3.7518-1.339.6558-.2616 1.3525-.4146 2.1239-.4316 1.0467-.0034 1.9982.3331 2.6133.8224.6219.486.9278 1.0875.8938 1.6584-.0578.9889.034 1.8963.4214 2.9973.051.1564-.0714.4078-.1835.4044-.1428-.0101-.4588-.1835-.537-.3228-.2752-.4792-.6015-.9379-.9583-1.3763-.3602-.4316-.7544-.836-1.1588-1.237-.1835-.1699-.367-.3364-.5675-.4486-.0986-.0612-.2005-.1155-.3059-.1665-.1053-.0442-.2141-.0816-.3262-.1155-.4452-.136-.9516-.1394-1.5327.0169-.768.2073-1.4239.6695-2.0424 1.0739-.6253.4282-1.2132.8224-2.0933 1.0739-.5472 1.169-1.2064 1.8555-2.3959 2.406-.0849.0374-.1937.2991-.1835.4316.0272.6525-.1393 1.2064-.3568 1.7603-.0544.1394-.1155.2753-.1801.4112-.0578.1393-.1155.2787-.1733.418-.1292.2753-.2277.5607-.3229.8428l-.0203.0136z"/><path d="m39.2545 88.2842c.1869.0578.3671.1291.5574.1665.4655.0952.9685.2005 1.4544.3024-.2378.153-.4621.4112-.6932.6423-.2379.2277-.4554.4384-.7103.5064-1.2879.3432-2.321 1.254-3.2182 2.6133-.5267.802-1.1452.5131-1.3491-.503-.1801-.9345-.0918-1.6855.2209-2.1613.3092-.4758.8224-.6729 1.5122-.5607.4248.068.853.2005 1.2302.1223.3772-.0815.7001-.3738.972-1.1146l.0203-.0136z"/><path d="m64.0117 125.149c.1836 1.889.1224 3.619-.0543 3.554-.0204-.006-.1122-.397-.1224-.509-.0272-.313-.0611-.789-.0272-.819.2753-.262.068-1.751-.1155-3.049-.0578-.431-.1699-.846-.2311-1.278-.0408-.292-.0306-.601-.0374-.903.0714.224.1597.421.2073.679.1699.931.3127 1.886.3806 2.328z"/><path d="m85.2918 247.9c-.3194-.191-.8835-.496-.8224-.479.0544.013.6865.312 1.1827.54.1223.054 1.1248.578 1.2539.666.17.116-.1461-.017-.2718-.058z"/><path d="m46.4219 82.5503c-.1292.0679-.2345.1223-.3127.1835-.0781.0611-.1359.0951-.1699.0747-.1597-.0815-.2888-.2718-.4452-.4044.1156-.1053.2719-.3058.3603-.2888.1903.034.3432.2277.5675.4316z"/><path d="m37.2578 108.469c.0272-.092.0408-.187.0782-.268.1053-.248.2277-.49.3194-.744l.2821-.762c.1053.092.2752.15.3058.286.2719 1.077-.4112 1.267-.9753 1.515z"/><path d="m5.1116 179.79c-.06797.578-.06797 1.152-.10195 1.74-.04758-.037-.11554-.054-.14273-.112-.34323-.768-.13593-1.244.21749-1.651z"/><path d="m64.5894 132.608c-.0408-.17-.0713-.292-.1019-.418-.0068-.197-.0238-.445-.0136-.564 0-.037.0679.259.0883.428.017.15.017.34.0272.551z"/><path d="m5.08543 179.766.07476-.859c.03399-.286.07816-.571.11555-.853.04757.027.13253.074.13253.078-.05437.272-.12234.55-.16652.826l-.13253.832-.02719-.024z"/><path d="m41.5449 86.8462c.2073-.0306.435-.1121.4792-.0476.0815.119.1121.3501.0578.4826-.0408.0884-.2515.1121-.3909.1699-.0441-.1699-.0951-.3432-.1461-.6049z"/><path d="m4.1543 177.871.14952.098-.14952-.102z"/></g><path d="m40.2913 92.1371c3.5241-1.1317 5.9776-3.6294 5.9776-6.5384 0-.051-.0034-.1053-.0068-.1563h-5.3387l-4.2513 4.9479-5.7636-4.9479h-5.0091c0 .051-.0068.1019-.0068.1563 0 3.9693 4.5605 7.1875 10.1882 7.1875.0543 0 .1053-.0034.1563-.0068 1.4443-.017 2.8138-.2447 4.0542-.6423z" fill="#fff"/><path d="m40.9197 85.4424h-3.4765-6.535l5.7636 4.9513z" fill="#000"/><path d="m60.0862 85.4424h-5.0091c0 .051-.0068.1019-.0068.1563 0 2.8818 2.4128 5.3626 5.8859 6.5078 1.0467.3466 2.1851.5709 3.3881.6457.3025.0204.6049.034.9142.034 5.6276 0 10.1882-3.2182 10.1882-7.1875 0-.051-.0034-.1053-.0068-.1563h-5.3388l-4.2513 4.9479z" fill="#fff"/><path d="m60.9593 85.4424h-.8734l5.7636 4.9513 4.2513-4.9513h-6.6675z" fill="#000"/></svg>