<svg fill="none" height="260" viewBox="0 0 140 260" width="140" xmlns="http://www.w3.org/2000/svg" xmlns:xlink="http://www.w3.org/1999/xlink"><clipPath id="a"><path d="m0 0h140v260h-140z"/></clipPath><g clip-path="url(#a)"><g fill="#e77300"><path d="m95.1831 4.75116c.0651 0 .1342.00811.1993.00405.4272-.01621.8137-.17023 1.2408-.18645.4476-.02432.8218.12565 1.2124.17024.3865.04459.777-.02432 1.1798.0608.4028.08917.8015.33642 1.2086.44586.268.0689.602.08511.907.12159-.224-.11754-.431-.23509-.541-.34047-.057-.05269.529-.06485.85 0 .277.0608.59.26751.968.4337-.232.03242-.419.05674-.598.08106.102.03648.212.07296.326.11349.085.02838.126.04864.244.08107.114.03242.22.05674.313.07701.183.03243.301.05675.313.05675.004.01215-.109.01621-.293.00405-.183-.00811-.471-.0608-.585-.07701-.31-.04864-.623-.10539-.672-.09323-.419-.09728-.838-.07701-1.24-.18645-.2608-.07296-.9931-.41343-1.2006-.44585-.3784-.06891-.8828-.06891-1.1513-.06486-.0855 0-.3052.01216-.5208.03648-.1057.01216-.2156.02432-.3132.03648-.0977.01216-.2075.02432-.2685.02838-.1953.0081-1.1473-.08107-1.31-.09323-.0773-.00405-.2807-.02432-.5126-.04458-.2401.05674-.5696.10943-.6998.09727-.2197-.01621-.48-.03648-.7282-.0608-.2644.04054-.5207.08918-.6062.10134-.1424.02026-1.0577.18239-1.2367.18644-.2807.00811-1.0944-.07701-1.31-.09322-.3174-.02027-.9032-.08917-1.3059-.09322-.2319 0-.9724.17429-1.2368.18644-.4312.01622-.8788-.10538-1.3141-.09322-.4109.01216-.8218.17024-1.2367.18645-.358.01216-.9683-.11349-1.31-.09323-.1261.02027-1.1798.17835-1.2368.18645-.0895-.00405-.4149-.02432-.7201-.04053-.1505-.01216-.301-.02026-.4109-.02837-.1098-.00811-.179-.01621-.183-.02432-.0122-.04459 1.2489-.13781 1.2367-.18645-.0122-.04459-1.2978-.04459-1.314-.09322-.0122-.04459 1.2693-.14187 1.2367-.18645-.0325-.04459-1.2978-.04459-1.314-.09323-.0122-.04053 1.314-.14997 1.2367-.18645-.0325-.01621-1.1554-.09322-1.31-.08917-.3458 0-.7445-.0608-1.1065-.07701-.6876.3729-1.4117.7458-2.5509.94846-.7078.13781-1.7086.18239-2.5508.21887-.4353.01622-.834.04864-1.196.10944-.0407.00811-.0733.01621-.114.02432-.0569.02432-.1179.05269-.1708.08512-.2197.09322-.3824.26751-.4353.28778-.0448.04458-.2197.20266-.3662.40127-.0691.10538-.1383.21077-.1993.29994-.0448.09728-.0773.17834-.0936.21888-.0651.18239-.0854.37289-.0773.56745 0 .1905-.0122.37695-.0244.57556-.0163.16618-.057.33237-.1017.49855l-.1505.55529v.06486l-.0122-.01216-.1343.49449-.5452-.80254c-.0528-.07701-.1057-.15808-.1586-.23509l-.118-.12565c-.1098-.11754-.2238-.23509-.3336-.35263-.1139-.11755-.2319-.23104-.3458-.34858-.1993-.16618-.3906-.32426-.4475-.3729-.1302-.10944-.9357-.83497-.9479-.81065-.0204.02838.6916.89982.7892 1.05385.1587.23914.5574.74174.7852 1.04979l.3824.5107.3458.45802 1.013.78232.4231-1.88075.1302-.57556c-.0122.19861.0082.39317.0244.58772l.2116 2.48059-.7893-.608-.0976.4378-.9154-1.22007-.4597-.35668c-.1505-.11349-.297-.23509-.4312-.37695-.2889-.3121-.5004-.74175-.7852-1.04979-.2929-.3121-.6631-.5026-.952-.8147-.2807-.29994-.5085-.75391-.7892-1.0498-.118-.12159-.2401-.22292-.3703-.3202-.0284.09322-.0569.19455-.0895.29589.1058.08511.2075.17023.297.26346.2889.3121.5045.72958.7893 1.05384-.3173-.27157-.6347-.54314-.9479-.81065-.0326-.02837-.1221-.10133-.2319-.1905-.0326.11754-.061.22698-.0773.30805-.0692.42964.0081.8147-.057 1.24434-.0569.38506-.2807.8755-.3458 1.26461-.0691.42154.0082.83095-.0569 1.24435-.0651.4215-.2767.8471-.3458 1.2687-.0204.1378-.0245.2796-.0285.4215.2034.0324.4068.0649.6265.0649.4516.004.9194.1499 1.4117.1823.1424.0122.4434 0 .7689.0203.3214.0122.6591.0487.7974.0851.1505.0244.4963.0933.8787.2311.3987.158.7649.3607 1.0293.5999.4231.3769.6672.8917.7771 1.297.1139.4134.1383.7498.179 1.0255.0651.3769.24 1.2403.2237 1.4875-.0203.454-.1302 1.0376-.1708 1.3538-.0245.154-.1668 1.0863-.1628 1.2403 0 .1824.0732.5796.1302.839l.4923 2.2212-.6713-.1216.0203.2107h.1058v.0325l.2929.0324-.183 1.7915c-.0041.0487-.0082.0568-.0082.0568-.004 0-.0081-.0203-.0122-.0568l-.1342-1.3092-.1262 1.2971c-.0081.081-.0122.1094-.0122.1216-.0122.227.0692 1.0741.0814 1.2484.0244.4134.0529.8268.0814 1.2443.0244.4134.0529.8269.0813 1.2444.0204.2958.0814.8511.0814 1.2443 0 .077-.1342.8633-.1831 1.1714l-.5126 3.0521-2.3636-1.1633c-.057-.0284-.0977-.0486-.114-.0567-.1383-.0689-1.0048-.5189-1.1798-.5797-.4271-.1499-.7851-.1418-1.2164-.2958-.4109-.146-.8055-.146-1.2164-.2959-.3377-.1216-.8584-.4702-1.1798-.5796-.0041 0-.0122 0-.0203-.0041.061.3283.0935.6728.1912.9849.0895.2959.3987.8836.4963 1.1431.1587.4174.3499.8066.4963 1.143.1139.2594.3743.7904.4964 1.143.0162.0446.0284.1054.0447.1743.0814-.0446.1546-.0851.2156-.1176.1424-.077.9154-.5107 1.1066-.5836.2319-.0892 1.0862-.3 1.2693-.3486.061-.0162.1221-.0324.1912-.0527l1.8755-.5148.6997 1.293c.175.3202.3621.6931.5615 1.0458.1505.2634.4393.9484.6021 1.2119.1831.2918.6102.6971.7689.9646.2034.3405.3377.7864.5533 1.0944.1871.2716.5899.5634.7648.7823.1099.15.24.3486.3662.531 0 0 0-.0162.004-.0122.0692.0162.1831.0527.3011.1135.0325.0162.0529.0284.0935.0527l.1465.1054c.0976.0729.1912.1499.2726.2229.2319.1946.3987.5594.5817.8552-.2115-.158-.4271-.3161-.6875-.4863.1546.1742.3133.3364.4516.5228.2482.2837.8259 1.0701.9031 1.2727.0733.077-1.0211-1.0781-1.0496-1.0254-.0122.0202.2034.2634.4069.5512.2074.2878.4149.5999.4597.6972.1953.3567.537.9687.6631 1.374.2482.3891.4638.8066.6469 1.2322.1505-.1459.301-.2999.4475-.458.1383.7296.2197 1.597.2115 2.3306 0 .4904-.0447.9079-.1139 1.2281-.0203.377-.0691 1.0174-.0691 1.1431.0122.3121.1139 1.07.1301 1.2889.0122.1621.114 1.066.1099 1.2524-.0122.2675-.179 1.0701-.175 1.3011.0041.381.0814.9525.1058 1.2403.0122.1459.1139 1.0539.1058 1.2444-.0163.462-.1505.839-.1749 1.297.0447.1054.0569 1.2119.1057 1.2403-.0447-.0243-.1301 1.2889-.1749 1.3011-.0285 0-.0895-1.0741-.1098-1.2444-.0122-.1337-.0895-1.2767-.1058-1.2402-.0366.0526-.1424 1.066-.175 1.301-.0162.1257-.0325.2554-.0528.381-.0204 1.2363-.0285 2.5617.0854 3.5831.1505 1.3578.1017 2.0955-.2238 2.971-.0203.0527-.0366.1419-.0569.2432.0163.1541.0325.3081.0447.4459.0366.4134.0733.8269.1058 1.2403.0366.4134.0732.8269.1099 1.2403.0732.8309.1423 1.6537.2156 2.4846.0162.1905.1139.985.1098 1.2403-.0041.0365-.0447.3608-.0854.6769-.0407.3162-.0895.6201-.0895.6201-.0285.0082-.0895-1.066-.1058-1.2402-.0122-.1054-.0936-1.2768-.1058-1.2403-.0203.0648-.1668 1.1349-.1749 1.3011-.0163.3404.118.8876.1058 1.2402-.0122.4256-.1546.8755-.175 1.2971.0366.4175.0733.8309.1058 1.2443.0244.2959.0692 1.0863.1058 1.2363.0244.0891.1464-1.293.1749-1.2971.0448-.0081.0651 1.1349.1058 1.2444.0285.0729.1383-1.2971.1749-1.3052.0285 0 .0895 1.0701.1058 1.2444.0326.381.0692.8147.1098 1.2403-.004.0324-.1586 1.1876-.1749 1.3011-.0285.4782-.1505.8147-.1749 1.3011-.0204.4255-.1628.8714-.175 1.297s.118.8187.1058 1.2403c-.0122.4256-.1627.8755-.1749 1.3011-.0122.385.122.8633.1058 1.2403-.0163.4337-.1628.8674-.175 1.297-.0081.2675.1221 1.0133.1058 1.2403-.0285.4053-.1302.9849-.1749 1.3011-.0285.2067-.1668 1.0336-.175 1.297-.0163.3932.118.8431.1058 1.2444-.0081.2634-.179 1.0741-.1749 1.297.0081.3972.0813.9404.1057 1.2403.0163.1783.1139 1.0052.1058 1.2403-.0041.2108-.1505 1.1309-.1749 1.297-.0204.1541-.1709 1.1189-.175 1.3009-.0081.426.118.819.1058 1.241-.0122.429-.1627.871-.1749 1.301-.0122.417.122.826.1058 1.24-.0123.43-.1628.867-.175 1.297-.0122.426.118.815.1058 1.24-.0122.426-.1627.88-.1749 1.301-.0082.333.1261.92.1057 1.241-.0081.056-.0488.381-.0854.693-.0407.308-.0895.604-.0895.604-.0041 0-.0122-.081-.0244-.203-.0082-.122-.0204-.284-.0326-.446-.0244-.32-.0447-.632-.0529-.592-.0081.049-.0406.256-.0732.491 0 .563 0 1.123-.0163 1.686.0163.142.0285.276.0204.365 0 .056-.0204.125-.0285.19-.0163.62-.0488 1.245-.0773 1.869.0244.174.0407.348.0366.482-.0081.203-.0488.401-.0854.6-.0203.405-.0285.807-.0529 1.212 0 .049.0081.093.0122.142.0244.3.057.592.057.592s.0488-.317.0895-.633c.0407-.32.0813-.644.0854-.669 0 .41.118.831.1098 1.241-.0081.243-.1505 1.102-.1749 1.301-.0203.15-.1749 1.135-.1749 1.301 0 .296.0895 1.017.1058 1.24.0122.154.1139 1.034.1057 1.236-.0122.434-.1627.868-.1749 1.302-.0081.263.1261 1.009.1098 1.24-.0284.405-.1342.985-.1749 1.297-.0285.223-.1627 1.009-.1749 1.301-.0163.369.1179.863.1057 1.24-.0081.264-.179 1.074-.1749 1.301.0081.398.0814.929.1058 1.253.0203.194.0976 1.05.0813 1.329-.0081.211-.24 1.249-.2929 1.431-.0244.17-.3783 1.257-.4475 1.471-.1383.499-.1587.985-.3946 1.496-.2238.495-.6591.944-.9845 1.378-.1668.268-.7974 1.107-.9846 1.273-.0773.093-.301.332-.5492.547-.1383.134-.2807.255-.3987.349.118-.025.2156-.045.2726-.061.4109-.122.8747-.118 1.2856-.239.2563-.077.7282-.312 1.017-.438l.0448.527c.3661.073.7567.182.9967.207l.0895.008 9.947.754-2.5834.932.4638.073-2.1724.543-5.3051 1.913c-.3621.13-.655.32-1.0293.446l.0407.466c-.0447 0-.0854 0-.118 0-.4109-.02-.7689.016-1.0211.049-.1261.008-.6509.133-.7282.162-.1221-.008-.6306 0-.7893.024-.1424.008-.3132.045-.48.081-.1628.029-.3336.065-.5208.118-.1953.044-.6265.15-.952.263-.0895.053-.1749.106-.2725.146-.3743.142-.6428.43-.9968.588-.2847.138-.7729.215-1.0699.365 0 0-.0122.008-.0163.008-.1424.089-.3539.243-.5696.389-.1342.109-.2685.215-.4271.3-.2807.162-.8218.348-1.0822.515-.2848.174-.5899.575-.8421.762-.2075.15-.8666.49-1.0212.62-.2156.15-.7241.454-.9845.677-.2563.239-.6875.494-.9398.749-.1708.15-.537.807-.6387.945-.0325.053-.1668.263-.3011.474-.1179.223-.24.442-.2807.495-.1708.235-.6712.697-.7933.887-.2522.316-.5004.633-.7485.945-.0936.137-.5777.814-.6795 1.005-.1098.166-.301.952-.3458 1.102-.1017.369-.2237.726-.2929 1.111-.0813.373-.1586.75-.24 1.119-.0407.227-.0895.835-.1627 1.135-.0326.137-.1302.34-.2157.555-.0773.215-.1586.429-.1912.584-.0732.389-.0162.762-.0854 1.155-.061.401-.2766.81-.3255 1.22-.0529.389.0326.81-.0122 1.199-.0325.244-.2359 1.042-.2725 1.229-.0407.17-.2319 1.029-.2441 1.244-.0204.215.0569 1.038.0691 1.204 0 .129.1017 1.05.0936 1.2-.0081.052-.0448.364-.0814.664s-.0854.588-.0854.588-.0366-.28-.0651-.567c-.0285-.292-.057-.592-.0529-.633-.0163.426-.1546.843-.1627 1.265 0 .344.1464.867.1424 1.2 0 .449-.1261.818-.1099 1.264.0122.385.1668.811.1912 1.196.0122.247-.0895 1.07-.061 1.273.0448.393.1749.887.24 1.183.0814.393.1709.782.2604 1.176.0326.158.2563.968.2848 1.171.0488.401-.0204.884.0366 1.305.0488.353.2685.872.3051 1.212.0244.219.0407 1.192.0326 1.317 0 .049-.0733-.259-.1465-.575-.0366-.158-.0732-.32-.1017-.442s-.0488-.203-.0569-.199c0 0 0 .304.0081.616.0122.317.0244.645.0244.698.0163.146.2644 1.102.297 1.228.0976.409.1912.814.2888 1.228.057.239.236.9.2848 1.228.0204.134 0 1.204 0 1.338 0 .158-.0285 1.151-.0163 1.337.0204.223.2441 1.07.2482 1.249.0081.445-.0366.985-.0529 1.345 0 .154-.0773 1.155-.0732 1.338.0122.284.1709 1.058.1912 1.264.0407.313.1383.864.1627 1.273.0204.235-.1424 1.074-.1424 1.35-.0081.385.1221.916.114 1.285 0 .369.1017.908.0854 1.293-.0041.279-.2319 1.114-.236 1.349-.0122.414.0326.985.0244 1.302 0 .178.0204 1.074-.0081 1.309-.0244.231-.297 1.155-.3417 1.337-.1017.369-.2482.888-.3743 1.326-.0814.32-.3336.973-.4069 1.313-.0569.243-.1423 1.098-.1708 1.297-.0163.154-.0448.381-.0732.62-.0245.223-.057.446-.0977.624-.0569.264-.3661.892-.4353 1.188-.0936.389-.0366.811-.1261 1.2-.0529.227-.3377 1.033-.3946 1.212-.0611.186-.3296.977-.3743 1.224-.0814.417-.2889.819-.3621 1.236-.0692.409-.0041.819-.0651 1.228-.0569.414.0081.819-.0569 1.232-.057.369-.2889.904-.3377 1.257-.057.425.0163.819-.0448 1.24-.0488.345-.2563.896-.2888 1.22-.0326.324.0447.868 0 1.18-.0488.263-.1831 1.005-.2197 1.212-.0692.409-.1343.818-.2034 1.224-.0488.158-.1383 1.037-.1343 1.232.0082.235.1424.989.1668 1.159.0407.389.1546.762.2319 1.143.0651.288.1953.75.2563 1.127.0041.19.0244.977.0611 1.204.061.324.2969.782.3458 1.09.0569.316.0935.888.179 1.184.0813.255.358.875.4475 1.045.0651.118.476.839.5329.993.1546.385.1261.77.3173 1.139l.6225.937.3051.466.354.433c.3336.702.6387 1.431 1.0699 2.092-.5573-.519-1.0089-1.115-1.489-1.707-.0529-.064-.2278-.291-.3946-.498-.1465-.219-.2766-.426-.2889-.422-.0162.008.0733.276.1994.539.1342.26.2726.527.2766.572l.7201.896c.236.3.5289.555.7893.831.2034.206.5573.531.7933.81.1342.138.5492.799.7038.969.2278.235.6509.515.8828.726.3092.291.4801.616.7974.907.2726.244.6509.426.9601.641.2401.182.651.681.8788.843.2563.19.7974.462 1.0252.555.3092.15.6835.304 1.0496.503.2278.126.7933.348 1.0578.474.3458.187.659.503 1.0048.701.2726.142.83.292 1.0944.406.0488.024.3133.178.5696.328.2522.15.4922.304.4922.304-.0081.049-1.1147-.401-1.1269-.357-.0122.045 1.0781.588 1.07.637 0 .004-.0773-.021-.1872-.053-.0895-.028-.2034-.069-.3173-.105.5289.263 1.0496.522 1.5582.774.0081 0 .0244.008.0325.008.1912.077.3458.162.4963.251.2482.122.4964.235.7405.353.3417.089.6875.154 1.0333.223.1383.028 1.1798.259 1.1595.231 0 0-.0773-.041-.1872-.089-.1098-.049-.2563-.114-.3987-.179-.2888-.125-.5655-.251-.541-.247.1301.024.9723.17 1.1513.227.24.069.9398.405 1.1472.454.3662.085.8788.126 1.1676.142.1994.016.9032.052 1.1676.105.3377.073.83.28 1.1839.341.3336.048.8544 0 1.1757.032.3296.045.8788.243 1.2002.272.0488.004.3417.008.6265-.013.2807-.016.5492-.04.5492-.04s-.2929-.057-.5899-.11c-.297-.044-.598-.121-.6224-.121.3946.044.773-.081 1.1676-.053.0732.012 1.1961.203 1.2123.207-.0081.028-1.1716.077-1.1716.077.3376.04.838.199 1.2245.203.3214.012.8381-.126 1.1758-.122.4068.016.8258.126 1.2367.126.415-.008.8381.129 1.2449.097.2319-.016.9927-.187 1.1717-.219.1383-.012 1.0048-.231 1.1635-.247.2889-.029 1.0334.008 1.2571 0 .1139 0 1.1595-.02 1.2612-.041.3458-.056.9031-.251 1.1513-.328.3865-.118.7648-.231 1.1513-.349.7608-.259 1.5175-.498 2.2742-.774.3987-.089.8584-.065 1.253-.158.1587-.028 1.0294-.425 1.1274-.442.081-.012.39-.065.683-.113.146-.025.289-.045.395-.061.097-.016.162-.028.166-.024.037.032-.96.389-1.11.454-.212.085-1.0783.401-1.1271.441-.0448.057 1.2121-.214 1.2611-.19.366-.154.769-.292 1.111-.454.256-.118.699-.349 1.037-.474.195-.065.932-.203 1.168-.284.329-.113.691-.409.992-.563.196-.102.916-.244 1.144-.377.252-.134.724-.511.943-.645.334-.231.639-.49.904-.693.154-.101.671-.579.874-.721.135-.085.94-.479 1.054-.56.297-.174.7-.364 1.037-.608.224-.162.79-.47 1.017-.656.216-.187.574-.685.749-.868.289-.292.513-.628.72-.895.086-.114.574-.771.684-.912.15-.167.773-.673.903-.799.228-.219.598-.547.866-.839.212-.223.643-.624.842-.88.24-.312.334-.689.546-1.021.207-.332.313-.693.508-1.034.183-.304.574-.652.745-.956.162-.308.533-.673.707-.993.114-.191.326-.924.391-1.09.053-.114.309-.977.354-1.095.134-.284.5-.839.602-1.054.171-.328.387-.685.566-1.078.097-.223.435-.847.524-1.102.086-.239.122-.945.196-1.147.134-.345.337-.86.443-1.139.057-.142.378-.965.403-1.156.041-.226.081-.989.077-1.159.012-.385.021-.77.033-1.155 0-.292-.041-.774-.021-1.147.021-.191.212-.953.224-1.184.029-.393-.098-.749-.106-1.139 0-.381.159-.81.131-1.195-.013-.219-.159-.949-.192-1.119-.032-.17-.227-.892-.248-1.102-.012-.207-.024-1.01-.024-1.18.008-.292-.098-1.017-.082-1.179 0-.045.086.223.175.502.094.28.163.576.175.572.029-.004-.073-1.111-.085-1.192-.065-.389-.045-.811-.147-1.192-.036-.137-.122-.344-.207-.543-.102-.21-.208-.421-.26-.551-.163-.409-.363-.802-.513-1.135-.086-.19-.423-.863-.513-1.131-.053-.158-.236-1.131-.264-1.276-.065-.313-.159-.888-.265-1.277-.061-.223-.431-.88-.512-1.131-.126-.385-.139-.896-.265-1.277-.081-.239-.435-.956-.512-1.131-.126-.275-.375-.762-.513-1.131-.077-.21-.183-1.025-.264-1.276-.126-.398-.387-.738-.513-1.131-.13-.406-.134-.872-.264-1.277-.082-.251-.452-.912-.513-1.127-.106-.389-.203-.969-.264-1.277-.037-.17-.22-1.13-.285-1.329-.077-.239-.435-1.017-.509-1.192-.065-.137-.435-1.021-.484-1.208-.097-.34-.118-1.041-.207-1.357-.118-.418-.338-.799-.432-1.233-.085-.36-.073-1.021-.142-1.366-.106-.486-.289-.762-.374-1.256-.069-.389-.029-.977-.077-1.378-.049-.373-.285-.916-.31-1.273-.02-.259.017-1.175-.004-1.386-.049-.409-.187-.989-.24-1.297-.032-.199-.187-1.034-.203-1.309-.012-.207.102-1.22.114-1.391.012-.19.154-1.143.154-1.382-.004-.235-.073-1.135-.085-1.321-.02-.17-.069-1.107-.049-1.325.012-.26.228-1.172.277-1.37.02-.094.089-.377.154-.661.065-.276.13-.535.147-.649.053-.413.244-.835.289-1.244.036-.304-.021-.94-.013-1.208.013-.43-.02-.847-.036-1.196 0-.117-.069-1.062-.061-1.183.028-.32.158-.977.191-1.22.053-.357.126-.791.155-1.216.016-.268.126-.928.113-1.216 0-.122-.207-1.09-.207-1.131 0-.166.016-1.147.016-1.2-.065-.129-.24-.843-.313-1.114-.077-.264-.228-.758-.33-1.099 0-.008-.036-.304-.069-.6-.032-.296-.057-.591-.057-.591-.077-.377-.301-.702-.419-1.062-.065-.207-.175-.993-.211-1.176-.021-.215-.187-.92-.277-1.163-.142-.369-.146-.799-.305-1.163-.167-.349-.443-.621-.614-.961-.171-.345-.436-.608-.639-.936-.171-.292-.297-.815-.464-1.095-.195-.34-.525-.535-.736-.863-.183-.259-.354-.819-.558-1.05-.219-.263-.606-.531-.809-.794-.077-.093-.199-.312-.334-.519-.138-.199-.276-.397-.329-.474-.171-.235-.468-.689-.704-.977-.142-.158-.749-.519-.924-.689-.268-.251-.508-.677-.793-.912-.309-.276-.525-.612-.842-.884-.273-.247-.708-.365-1.009-.588-.321-.231-.578-.599-.907-.834-.338-.215-.724-.3-1.058-.515-.216-.142-.757-.673-.968-.766-.33-.171-.834-.353-1.086-.462-.358-.162-.7286-.296-1.1029-.43-.1424-.053-.9439-.32-1.1066-.405-.1953-.118-.9032-.548-1.0618-.645-.3011-.178-.7038-.442-1.0781-.64-.2441-.122-.8666-.507-1.2937-.726-.1424-.069-.4964-.223-.8788-.454s-.7689-.559-.9032-.705c-.2115-.215-.5166-.559-.7485-.961-.2441-.401-.4109-.835-.4923-1.163-.0732-.255-.1017-.677-.0895-1.058.0082-.433.0488-.636.0448-.802-.0082-.414-.1587-.823-.1628-1.237 0-.243.0977-1.114.1139-1.305.0163-.202.118-1.045.114-1.305 0-.142.0122-.284.0284-.421 0-.535 0-1.074-.0081-1.61-.0325-.166-.0651-.336-.0692-.506-.0162-.422-.1546-.815-.1627-1.236-.0081-.341.1302-.989.1139-1.31-.0203-.409-.1546-.814-.1627-1.232 0-.186.061-.644.0976-.977-.0325-.421-.061-.839-.0976-1.252-.0204-.118-.0366-.227-.0448-.312-.0244-.195-.1546-.977-.1627-1.236 0-.077.0163-.3.0366-.539-.1342-1.674-.1464-2.376.0326-3.267 0-.017 0-.029 0-.045-.0082-.426.122-.88.1139-1.305-.0041-.239-.1424-1.046-.1628-1.236-.0203-.154-.1627-1.062-.1627-1.241 0-.291.0977-1.082.1139-1.305.0122-.154.1221-1.123.118-1.305 0-.134-.1668-1.171-.1627-1.236.0081-.089.0325-.414.0529-.718.0244-.304.0488-.587.061-.591-.0488-.15-.1261-.937-.1627-1.237-.0245-.186-.1587-.981-.1628-1.236-.004-.194.1017-1.143.1139-1.305.0122-.146.0326-.316.0489-.49-.0285-.406-.057-.807-.0895-1.216-.1099-1.427-.1994-2.5418.0081-2.8174-.0285-.1986-.057-.3973-.0651-.5634-.0163-.2838.122-.989.1139-1.3052-.0041-.3202-.1668-.9403-.1627-1.2362.004-.3567.0935-1.0336.118-1.3092l.1139-1.3052c.0325-.3769.0976-.8552.1139-1.3051.0081-.154-.1587-1.0295-.1627-1.2362-.0041-.2432.1017-1.1066.1139-1.3052.0122-.1783.122-1.1025.1139-1.3051-.0082-.2635-.1383-1.0458-.1628-1.2363-.0528-.4094-.1098-.8228-.1627-1.2362-.0529-.3891-.118-.7863-.1627-1.2363-.0082-.1013.118-1.1389.118-1.3051 0-.0405-.0407-.3526-.0814-.6526-.0407-.2999-.0854-.5877-.0854-.5877s-.0122.0811-.0244.1986c-.0123.1176-.0245.2756-.0407.4337-.0285.3162-.0529.6404-.0529.6769-.0122-.4337-.1546-.8025-.1627-1.2362-.0041-.2432.1017-1.1066.1139-1.3092.0244-.3324.1057-.8917.1139-1.3052.004-.2513-.1587-.9525-.1628-1.2362-.004-.2432.1017-1.1066.114-1.3052.0162-.1905.122-1.0862.1179-1.3092-.004-.2391-.1383-1.0579-.1627-1.2362-.0529-.4134-.1098-.8269-.1627-1.2362-.0366-.2878-.1424-.8553-.1628-1.2363-.0162-.2472.1221-1.0214.1139-1.3051-.0081-.3567-.1667-.8958-.1627-1.2363 0-.2432.1302-1.1024.1139-1.3051-.0244-.3891-.1261-.9444-.1627-1.2362-.0529-.4094-.1098-.8229-.1627-1.2363-.0407-.2999-.1384-.839-.1628-1.2362-.0162-.227.1221-1.0417.114-1.3092-.0082-.4297-.1546-.8026-.1628-1.2363 0-.0405.0244-.3648.0529-.6809.0285-.3162.061-.6242.061-.6242.0407-.0122.1261 1.3132.1628 1.2362.0203-.0405.1098-1.1268.1139-1.3051.0081-.3607.122-.9323.118-1.3052-.0041-.2391-.1424-1.0457-.1628-1.2362-.0366-.2959-.1424-.8552-.1627-1.2362-.0163-.2838.122-.9931.1139-1.3052-.0081-.4296-.1505-.8025-.1627-1.2362-.0122-.4013.122-.9039.1139-1.3052 0-.1783-.0448-.4012-.0854-.6242-.0204-.1135-.0367-.2229-.0529-.3242-.0163-.1216-.0245-.2554-.0204-.3648.0285-.6161.1546-1.0701.3458-1.905.0448-.1865.0977-.3973.1912-.6648.0366-.1135.1139-.2959.1831-.4458.0326-.073.1017-.1865.1546-.2757.061-.1013.1058-.1742.2075-.3039.0936-.1135.1912-.227.2929-.3324.1221-.1216.2807-.2473.4353-.3526.2197-.146.1668-.1135.1912-.1338l.0407-.0405c.057-.0527.1139-.1014.179-.1378.2075-.1095.6875-.2959.8625-.4378.1831-.1783.4719-.5593.5736-.7296.0732-.077.419-.6809.5004-.7904.0936-.1134.6591-.6525.7079-.7701.1749-.3121.2929-.689.4109-.9646.1261-.3486.2563-.681.3783-1.0458.1221-.3688.2441-.7377.3662-1.1025.4516-.766.9032-1.528 1.3547-2.2901l-.4109 1.2241c-.0488.15-.4068 1.1957-.3824 1.1795.0692-.0283.5574-1.0133.6631-1.1268.1384-.4094.2767-.8147.4109-1.2281.1262-.3648.3784-.9849.472-1.2646.0122-.0446.0529-.1459.1057-.2716.2116-.4175.5411-.8431.8015-1.0984.0976-.0973.1831-.1703.2685-.2473l-.0081-.1297c-.1628.1176-.3458.2594-.5493.458-.0773.073-.179.1824-.2644.2838-.0854.0973-.1709.2067-.2604.3404-.0935.146-.179.2838-.2563.4013-.0732.1176-.122.1946-.1261.1986.0407-.0851.0773-.1864.1221-.2959-.0163.0081.1342-.2796.2441-.4499.1179-.1905.2197-.3202.3458-.4783.2603-.3121.5044-.539.7241-.7214l-.0935-1.2849c-.0204-.2918-.0448-.608-.0529-.7174-.0244-.4337-.0448-.8147-.0733-1.2444.1424-.8674.2848-1.7267.4272-2.59.0244.4134.0488.8269.0732 1.2443.0082.1216.057 1.2809.0733 1.2444.0162-.0365.2075-1.1836.2115-1.297.024-.4216-.0936-.8229-.0732-1.2444.0242-.4215.1872-.8714.2112-1.293.013-.2189-.061-1.0862-.073-1.2443 0-.0284-.053.2959-.102.6242-.0525.3283-.1094.6688-.1094.6688-.0285.0081-.0611-1.0741-.0733-1.2444-.0122-.1621-.0813-1.0173-.0732-1.2443.0041-.0284.0366-.2473.0773-.5026l.1505-1.0052-.0447-1.8037.2688.0364-.2851-2.0712c-.0122-.077-.0163-.1337-.0244-.1702l-.1668-1.2362-.1668-1.2363c-.0366-.2756-.1465-.8633-.1668-1.2362-.0163-.2635.118-1.0093.1139-1.3052-.0081-.3566-.1668-.8957-.1668-1.2362 0-.4945.1098-.8147.1139-1.3092 0-.3324-.1586-.8836-.1668-1.2362-.0041-.2392.0977-1.1066.1139-1.3092 0-.0244.0082-.0811.0163-.1622l.3417-3.9235 3.1448 1.02141c.313.10134.989.32426 1.098.34048.302.05269.871.07701 1.16.09727-.077-.20671-.142-.38505-.151-.4418-.008-.04458.139.1905.297.45396l.167.01216c-.13-.32831-.268-.66878-.24-.64852.02.01216.24.36885.423.66474l.126.01216c-.105-.28778-.244-.63636-.325-.85524l-.452-1.23218-.105-.28778c-.208.09322-.411.18645-.619.27967-.224.10133-1.253.57961-1.298.57151-.016 0 .244-.17835.521-.36885.273-.1905.566-.38911.635-.4337.171-.12159.407-.28372.622-.43775l-.203-.55934c-.025-.0608-.069-.1824-.13-.33237l.313.09323c-.029-.04459-.065-.10539-.118-.19051l.065.02027s-.012-.02837-.016-.04053l.683.20266c.114-.08512.24-.17834.366-.26752-.032-.0689-.061-.13781-.093-.21076l-.2-.05675c.009.02837.021.0608.017.0608s-.025-.02027-.061-.07296l.04.01216s0-.01216-.008-.02837l.191.05674c-.036-.08511-.073-.16618-.113-.2513-.306.16619-.611.33237-.916.49855-.931.5553-1.7 1.01331-2.189 1.30515-2.266-.49045-4.0923-1.2403-5.9067-1.21598-1.0659.01216-2.1318.04053-3.1977.06485 1.0049.19861 1.6802.46207 1.8226.72554zm-15.3741 155.87184c-.3336 1.678-4.7274 2.484-8.7184 2.087-.4881-.049-.9682-.113-1.432-.198-.8909-.163-1.8144-.41-2.7095-.714-3.2221-1.09-6.0943-2.938-5.8787-4.402.1953-1.325 2.9374-2.322 6.1106-2.513 1.3588-.081 2.7949-.016 4.1497.235.8584.158 1.7249.402 2.563.702 3.3482 1.199 6.2082 3.319 5.9153 4.799zm20.525-4.799c.838-.3 1.704-.543 2.563-.702 1.354-.251 2.79-.316 4.149-.235 3.178.191 5.916 1.188 6.111 2.513.215 1.464-2.657 3.308-5.879 4.402-.895.304-1.818.547-2.709.714-.468.085-.948.15-1.432.198-3.9873.397-8.3811-.409-8.7188-2.087-.297-1.48 2.5671-3.6 5.9158-4.799z"/><path d="m115.027 160.901c-.012-.11-.028-.256-.04-.402-.033-.296-.07-.591-.07-.612-.016-.056-.105-.328-.203-.583-.11-.252-.224-.483-.224-.483s.045.28.094.564c.032.292.065.591.073.632.037-.016.366 1.155.387 1.082 0-.004-.005-.081-.017-.19z"/><path d="m115.691 164.453c-.037-.588-.093-1.172-.167-1.759-.073-.256-.146-.495-.146-.495-.029.016.081 1.297.045 1.22.057-.008.231 1.188.26 1.119 0-.004.004-.041.008-.085z"/></g><path d="m61.0759 157.399c-.2157 1.463 2.6566 3.307 5.8786 4.402l.2319-6.915c-3.1773.19-5.9153 1.187-6.1105 2.513z" fill="#fffaff"/><path d="m73.8968 155.823-2.803 6.887c3.9869.397 8.3806-.41 8.7183-2.088.297-1.479-2.5671-3.599-5.9153-4.799z" fill="#fffaff"/><path d="m71.3347 155.121c-1.3548-.252-2.7909-.317-4.1497-.236l-.2319 6.915c.895.304 1.8186.548 2.7095.714.4679.085.9479.15 1.432.198l2.8031-6.886c-.8381-.3-1.7046-.543-2.563-.701z" fill="#000"/><path d="m113.157 157.399c-.195-1.326-2.937-2.323-6.11-2.513l.232 6.915c3.222-1.091 6.094-2.939 5.878-4.402z" fill="#fffaff"/><path d="m103.136 162.71-2.803-6.887c-3.3482 1.2-6.2123 3.32-5.9153 4.799.3336 1.678 4.7274 2.485 8.7183 2.088z" fill="#fffaff"/><g fill="#000"><path d="m104.569 162.51c.891-.162 1.815-.41 2.71-.714l-.232-6.914c-1.359-.081-2.795-.017-4.15.235-.858.158-1.725.401-2.563.701l2.803 6.886c.488-.048.968-.113 1.432-.198z"/><path d="m106.542 254.374c.26-.507.887-1.001.171-1.569-.814-.652-.163-.661.309-.73.789-.097 1.2-.145 1.452-.352.257-.203.362-.568.521-1.326.102-.47.142-.972.346-1.374.106-.21.553-.348.814-.316.272.037.528.353.797.547-.224.118-.448.223-.675.333-.822.417-.9.737-.11 1.228.496.304.777.519.63 1.102-.105.426-.138.929.505.868.24-.02.651-.454.639-.685-.017-.547.117-.936.374-1.208.26-.268.655-.409 1.155-.47.989-.106 1.314-.847 1.518-1.613.118-.442.313-.762.594-.985.268-.235.618-.385 1.057-.466.501-.09 1.038-.155 1.506-.365.431-.191.943-.535 1.057-.916.183-.637-.199-1.058-.988-1.147-.85-.102-.379-.718-.171-.839.24-.138.517-.227.789-.312.273-.094.553-.175.822-.28.96-.373 1.957-.815 2.01-2.051.012-.207.122-.535.26-.568 1.074-.239 1.587-.96 1.985-1.738.419-.775.623-1.65 1.16-2.315.757-.892 1.192-1.909 1.534-2.93.17-.511.244-1.05.317-1.585.061-.535.114-1.07.094-1.617-.017-.458.036-.645.284-1.03.208-.324.452-.652.68-.993.219-.34.394-.697.516-1.062.22-.729.204-1.5-.634-2.274-.794-.75-1.217-1.155.138-1.637.069-.025.081-.175.069-.357-.02-.182-.073-.397-.118-.551-.057-.207-1.407-.406-.008-.564.769-.085 1.196-.328.643-.956-.395-.458-.553-.92-.472-1.313.077-.394.386-.722.858-.904.533-.203.733-.462.814-.738s.012-.571.053-.855c.073-.576-.244-1.196-.102-1.747.151-.649.228-1.301.261-1.95.016-.324.024-.648.004-.968-.029-.321-.07-.641-.122-.957-.114-.632-.257-1.257-.505-1.861-.256-.599-.565-1.183-.936-1.742-.089-.138-.17-.284-.252-.43l-.256-.434c-.171-.288-.358-.563-.598-.79-.96-.928-.936-2.067-.785-3.202.097-.677.199-1.086-.521-1.439-.378-.182-.545-.673-.806-1.021h-.028c-.415-.288-.757-.58-1.009-.921-.256-.336-.435-.713-.59-1.094-.15-.385-.264-.79-.374-1.2-.114-.401-.22-.81-.346-1.204-.224-.701.301-1.909-1.29-1.625-.02 0-.179-.47-.081-.669.301-.6.175-.883-.427-1.143-.492-.21-.855-.681-1.16-1.102-.382-.527-.915-.6-1.574-.377-.854.288-.37.819-.427 1.26-.049.361.289.884-.488 1.014-.468.077-1.07.016-1.042.624.02.421.301.936.667 1.115.777.377 2.144.304.867 1.783-.114.13.293.661.537.948.663.795 1.489 1.431 1.338 2.728-.069.665.192 1.131.712 1.419.517.292 1.225.426 2.047.385.622-.024 1.48-.746 1.92.097-.704.248-1.4.523-2.112.734-.317.093-.703-.033-.976.101-.297.146-.765.576-.716.685.081.183.155.373.22.568l.15.596c.098.401.195.798.338 1.175.15.373.297.746.541 1.078.244.337.574.636 1.033.9.798.446 1.18 1.09.956 1.824-.085.271-.35.527-.606.774-.264.251-.529.495-.598.746-.106.369.92.965.741 1.2-.346.45-.354.778-.188 1.066.167.287.489.535.737.798.244.26.809.43 1.265.478.146.017.48-.498.602-.806.22-.555.431-1.131.614-1.707.171-.575.346-1.163.566-1.751.114-.304.675-.595 1.09-.762.163-.064.623.191.753.402.289.47.37 1.337.199 2.152-.187.823-.582 1.581-1.11 1.881-1.119.652-1.302 1.475-.875 2.197.199.348.26.68.22 1.001-.049.32-.179.628-.326.932-.301.604-.614 1.175-.549 1.828.012.109-.956.276-1.465.401-.114-.336-.366-.685-.317-.993.11-.831.423-1.658.549-2.509.041-.308-.045-.644-.171-.94-.061-.142-.337-.256-.549-.308-.089-.02-.362.125-.39.215-.159.502-.411 1.025-.623 1.52-.22.498-.354.972-.211 1.406.252.705.264 1.374.195 2.023-.041.324-.106.644-.212.956-.118.312-.264.62-.435.924-.09.158.041.499.224.641.301.231.752.352 1.102.559 1.172.693 1.115.758.139 1.431-.387.263-1.013.766-.908.908.733 1.041-.118 1.662-.626 2.298-.37.422-.684.831-.838 1.289-.155.458-.155.969.024 1.577.114.373-.158.887-.447 1.179-.391.414-.72.855-.965 1.35-.256.486-.439 1.021-.716 1.504-.26.49-.541.968-.907 1.378-.382.397-.874.705-1.485.887-.183.053-.15.483-.284.693-.253.365-.505.73-.757 1.095-.256.361-.484.75-.773 1.09-.281.345-.57.685-.867 1.009-.15.163-.301.321-.463.471-.167.141-.342.279-.517.409-.403.296-.793.596-1.168.904-.386.296-.777.584-1.135.904-.704.656-1.416 1.293-2.001 2.148-.232.353-.721.535-1.127.648-1.278.353-2.254 1.099-3.149 2.027-.574.543-1.168.892-1.916 1.151-.692.207-1.384.41-2.043.693-.679.244-1.3259.564-1.9321 1.046-.4394.32-.9031.588-1.3791.827-.2401.117-.4801.227-.7283.328-.2481.089-.5044.162-.7567.231-.5085.138-1.0252.252-1.5459.329-.5248.048-1.0537.077-1.5826.085l-.7363.008-.7364-.033c-.4882-.016-.9764-.02-1.4605 0-.4841 0-.9683.004-1.4524.057s-.9682.146-1.4564.235c-.4353.089-.8747.166-1.3182.235-.4434.041-.8869.069-1.3344.098-.2237.012-.4475.032-.6712.036h-.6713c-.4475-.004-.8991 0-1.3466-.004-.6835-.036-1.3181-.126-1.9243-.276-.598-.174-1.1676-.389-1.7412-.616-.3743-.174-.8056-.373-1.2002-.433-.301-.049-.537-.106-.7201-.207-.183-.106-.3254-.235-.4556-.41-.3336-.433-.6143-.429-1.0252-.206-.6306.348-1.0415.202-2.0016-.341-.5981-.36-1.1269-.835-1.7453-1.131-2.1888-1.167-4.2514-2.594-6.013-4.353-.2807-.247-.5126-.539-.7648-.814l-.7364-.843c-.4353-.604-.895-1.192-1.2855-1.824-.7527-1.216-1.3019-2.692-1.8999-3.782-.8991-1.577-1.2327-3.437-1.8104-5.115-.1221-.325-.2116-.685-.2685-1.058-.0529-.377-.0692-.77.0122-1.18.0407-.215.0244-.539-.0204-.879-.0366-.345-.0976-.706-.1668-.993-.3214-1.403-.419-2.72.0407-4.005.057-.162 0-.73-.0773-.786-.1831-.138-.4027-.093-.6102-.118.1627-.336.3783-.628.4963-1.017.118-.393.2522-.92.2197-1.33-.1017-1.402-.0814-2.756.3417-4.114.0611-.194-.0569-.502-.0773-.762-.0691-.851-.2278-1.702-.1912-2.553.061-1.411.2401-2.825.4435-4.228.1342-.92-.1139-1.662-.3174-2.501-.1871-.749.2848-1.73.3865-2.614.1099-.993.1058-1.994.1628-2.995.0203-.333.1708-.681.122-.993-.2034-1.322-.4923-2.627-.7486-3.944-.0854-.446-.2441-.961-.1017-1.358.3458-.981.3133-1.941.354-2.951.0447-1.078.2359-2.111-.2116-3.149-.0854-.195.0082-.559.1668-.73.8706-.944.5248-1.868.0977-2.845-.2035-.47-.3784-1.03-.3092-1.516.2319-1.585.8014-3.125.2359-4.775-.183-.527.1384-1.187.1058-1.783-.0976-2.246 1.1025-4.503-.0407-6.745-.0854-.17.1587-.474.1831-.721.0488-.503.0895-1.005.0732-1.504-.0162-.531-.1261-1.058-.118-1.585.0529-2.193.1791-4.308-.2644-6.489-.1017-.547.1221-1.415.5207-1.759 1.1921-1.103 1.2409-2.351 1.2043-3.806-.0407-1.97.4231-4.013 1.5907-5.646.3905-.552.7485-1.147 1.1757-1.695.4353-.535.9316-1.017 1.5582-1.289.183-.089.4312-.308.5329-.502.6021-1.123 1.6233-1.897 2.7664-2.493.5859-.304 1.1473-.827 1.7738-1.046.7689-.283 1.3426-.652 2.0504-.98 1.367-.649 2.9414-1.022 4.5199-.994 1.5582.041 3.1.471 4.5036 1.143.1505.069.3011.142.4516.215.1464.081.2929.158.4394.239.0895.049.2481.114.2359.102-.0447-.045-.1261-.13-.2278-.195-1.0089-.636-2.1114-1.167-3.2912-1.471-1.5379-.409-3.1733-.491-4.7722-.324-.1708.016-.3376-.057-.5166-.069-.5859-.061-.891-.073-1.1269 0-.236.065-.3987.235-.6876.571-.0936.11-.2319.304-.3214.329-.956.194-1.8877.62-2.7827 1.074-.8991.45-1.7575.924-2.7502 1.163-.3091.073-.834.563-1.0211.912-.5777 1.009-1.07 1.739-2.2782 1.913-.1709.028-.5899.438-.6225.636-.2075 1.119-.9723 1.719-1.7331 2.141-.7526.409-1.0618.989-.9804 1.633.0366.332.0366.632 0 .908-.0367.276-.0936.535-.1994.774s-.2522.454-.4434.661c-.1872.206-.3987.405-.6672.596-.4801.348-.594.701-.2197 1.163.3173.401 1.0374.507.8584 1.301-.1383.657-.1871 1.524-.5736 1.909-1.4524 1.455-1.8715 3.259-1.8715 5.371.0082 1.84-.7811 3.725-1.1025 5.613-.0732.45.0122.957.1424 1.403.3702 1.297.8381 2.561 1.2571 3.838.3133.953-.1912 1.553-1.2164 1.492-.297-.016-.5858-.081-.8787-.122.0203.389-.0651.827.0976 1.151.2034.402.8503.681.891 1.058.1301 1.253.1098 2.521.0854 3.782-.0122.519-.3621.973-.9927.811-1.2978-.333-1.1269.227-.9153 1.049.2725 1.042.4393 2.072 1.1798 2.984.9479 1.171.8747 1.215-.2523 2.099-1.2652.989-1.2327.981-.7323 2.554.2197.701.4435 1.439.4557 2.156.0285 1.378-.0895 2.752-.0936 4.13 0 .146.1994.32.3418.434.0447.036.2725-.057.3173-.142.1424-.267.2359-.559.3539-.843.061.328.1709.661.1668.985 0 .397.0488.985-.1749 1.151-1.2897.969-.3824 2.023-.118 3.072.1831.706.4435 1.443.415 2.141-.0733 1.872-.2889 3.728-.3174 5.601-.0244 1.986.0448 3.98.1343 5.975.0407.94.0976 1.965.9113 2.237l.0529-.154-.0488.158c-.5574 1.325-.0651 2.55.3376 3.733.175.486.4353.993.2197 1.467-.6509 1.431-.2726 3.166-.0854 4.84.179 1.487.4963 3.016.6591 4.438.1668 1.463 1.078 2.756 1.017 4.195 0 .138.2238.693.3784.892.3051.397.5004.823.6834 1.273.1994.442.354.924.5533 1.422l.3296.775c.1098.259.2197.522.3539.77.2604.502.5248 1.009.8055 1.508.3174.474.655.936 1.009 1.386.0895.109.179.223.2725.328l.3092.3c.2075.199.4231.389.6428.571.1465.122.297.296.4516.491.1587.19.3336.381.4923.555l.9072 1.001.9723.941.4882.47c.1668.154.3458.292.5167.438l1.0537.859c1.2571.896 1.2815.855 1.4605.199.0203-.073.1383-.094.2075-.142.1057.121.297.279.3051.356.0447.535.5207.997 1.4809 1.504.1952.106.4515.296.5573.426.3377.425.8055.786 1.31 1.058.5126.255 1.0781.405 1.5866.474.5615.089 1.0374.19 1.4809.365.4434.166.8503.421 1.3059.677.4597.259.9316.514 1.4402.737.5045.231 1.0618.365 1.6721.454 1.5907.211 3.2139.349 4.8372.414.3905.02.8095.174 1.2164.279.6184.158 1.253.304 1.8673.446.8584.211 1.5541.247 1.9284-.438.2115-.397.5329-.45.7974.009.2197.381.5329.599 1.1432.255 1.6069-.945 3.1163-1.471 5.0813-.632.1952.085.5573.024.8136-.049.6225-.199 1.3181-.353 1.8263-.685.301-.195.639-.377.965-.584.325-.202.646-.409.911-.644.537-.47.842-1.07.553-2.003-.142-.478.122-1.321.887-1.309.72.037 1.518-1.382 2.164.085.094.215.415.333.639.491zm-5.976 1.641c.175.166.406.308.508.507.094.186.122.596.033.636-.415.207-.936.397-1.351.341-.5859-.085-1.0985-.385-1.6111-.596-.0081 0 .0855-.162.1628-.308.8909.458 1.6802.194 2.2583-.584zm-26.9366-.673c-.118-.052-.179-.275-.2644-.417.3498.097.6997.162 1.0577.267.1668.053.3214.244.7933.621-.7851-.219-1.2001-.296-1.5825-.471zm51.7726-25.053c-.203.045-.41.118-.626.114-.073 0-.252-.26-.24-.276.13-.117.301-.207.545-.357.142.232.232.377.321.519zm-68.2899-13.181c.0489.134.1302.272.1302.405 0 .15-.0773.3-.122.45-.0407-.17-.0855-.336-.1139-.466.0447-.166.0732-.279.1057-.389z"/><path d="m109.228 174.982c.069.256.276.462.423.685.102-.243.154-.535.313-.713.59-.645 1.164-1.585 1.831-1.682 1.159-.179 1.082-.855 1.163-1.63.049-.462.163-.944.09-1.386-.204-1.167 0-2.221.431-3.332.204-.527.175-1.503-.102-1.884-.768-1.062-.63-2.185-.504-3.417.085-.811.037-1.626.85-1.889.391-.126.419-.636.183-1.18-.28-.644-.415-.952-.423-1.264 0-.312.13-.616.338-1.257.199-.604.488-1.479-.484-1.418-.061 0-.244-.316-.236-.414.016-.34-.029-.66-.102-.964-.085-.3-.211-.58-.342-.852-.146-.267-.309-.514-.468-.762-.166-.243-.345-.478-.504-.721-.557-.778-.993-1.544-1.111-2.221-.093-.77-.825-1.447-1.367-1.739-.284-.166-.569-.203-.817-.231-.248-.024-.476-.016-.712-.016-.065 0 .065.316.15.405.806.644 1.392 1.443 1.693 2.306.036.118.236.296.358.397.223.203.468.402.683.625.204.231.423.466.594.745.338.552.594 1.208.529 2.007.659.981.48 2.087.382 3.145-.057.738-.313 1.451-.04 2.278.101.312-.122.859-.265 1.273-.195.612-.504 1.179-.691 1.791-.114.393-.212 1.091-.041 1.261.924.944.671 1.954-.028 3.056-.151.235-.086.636-.135.961-.081.518-.142 1.049-.28 1.56-.476 1.767-.997 3.547-1.424 5.768 0 .02-.029.389.061.721zm1.802-4.373.134.105c.143.357.314.701.432 1.07.028.089-.167.26-.257.393-.085-.085-.24-.162-.24-.251-.008-.401.029-.802.057-1.2l-.126-.113z"/><path d="m116.481 188.33c-.411.223-.806.482-1.237.656-.265.106-.81.158-.83.094-.191-.637-.716-.929-1.253-1.237-.269-.154-.549-.304-.785-.502-.232-.203-.423-.446-.537-.77-.383-1.066-1.445-1.946-1.282-3.304.045-.494.008-.952-.167-1.37-.081-.211-.191-.413-.321-.612-.114-.202-.252-.401-.403-.596-.301-.397-.643-.818-.822-1.297-.537-1.313-.109-2.492 1.07-2.902 1.009-.361 1.823-.827 2.445-1.633.086-.11.403-.179.497-.11.118.09.223.377.171.495-.407.851-.721 1.755-1.217 2.598-.215.377-.358.721-.37 1.07-.008.174.008.353.061.539.061.187.15.377.273.58.162.267.362.523.557.774.215.247.435.49.618.746.346.514.627 1.049.476 1.816.989.608 1.265 1.365.94 2.476-.024.077.134.243.248.28 1.18.352 1.383 1.345 1.876 2.188l-.008.025z"/><path d="m116.492 188.306c.203-.114.415-.219.606-.345.484-.32.985-.648 1.477-.977-.159.56-.098 1.253-.472 1.695-.968 1.139-1.408 2.346-1.603 3.725-.11.81-.862 1.062-1.558.652-1.286-.758-1.237-1.739.171-2.622.874-.552 1.896-.973 1.371-2.108l.008-.024z"/><path d="m105.003 145.28c-.638-.259-1.257-.495-1.725-.669-.463-.178-.777-.284-.74-.397.008-.02.321-.061.411-.049.248.012.606.13.618.167.118.372 1.209.563 2.12.944.293.142.618.203.907.357.195.109.358.283.533.425-.175-.044-.342-.061-.517-.146-.309-.162-.646-.267-.923-.393-.281-.113-.529-.178-.684-.235z"/><path d="m53.8494 174.249c-.0773-.247-.2481-.507-.2034-.738.0407-.206.297-.401.5004-.527.0529-.032.3865.211.4028.353.0244.195-.1302.418-.2034.624z"/><path d="m114.983 180.143c.151.255.354.417.301.494-.11.166-.342.292-.521.438-.109-.114-.337-.26-.305-.345.078-.186.273-.336.525-.583z"/><path d="m125.186 200.937c-.029-.065-.073-.126-.09-.195-.097-.405-.207-.794-.313-1.196.155-.024.35-.109.456-.061.858.394.374.937-.029 1.456h-.028z"/><path d="m105.347 255.846-1.546.06c.016-.06.016-.137.057-.174.549-.45 1.021-.243 1.501.081z"/><path d="m99.6016 144.884c.1139-.065.1993-.11.2847-.159.1507-.028.3337-.069.4227-.069.029 0-.179.106-.301.143-.1054.032-.2518.048-.4064.085z"/><path d="m105.354 255.813c.521-.032 1.025-.11 1.546-.163 0 .057-.008.167-.008.167-.525.016-1.029.045-1.55.029z"/><path d="m117.271 185.809c.131-.183.228-.414.318-.422.163-.016.386.057.464.162.052.073-.102.268-.163.41-.175-.041-.35-.086-.619-.15z"/><path d="m106.541 254.374-.012.186z"/><path d="m70.1452 11.8838c.1912.6121.24 1.4997 1.1187 1.22 1.0131-.2756.6306.2716.4069.7175-.3824.7458-.5411 1.1551-.4882 1.4956.0488.3445.3295.6404.9031 1.1633.3662.3243.7893.6039 1.0659.9728.1343.1945.0936.6606-.0651.8876-.1627.2351-.5532.3243-.8462.4824-.0081-.2594.0082-.5229 0-.7823-.0244-.9485-.2685-1.1836-1.0659-.6891-.4922.3081-.8095.4743-1.2774.0406-.3295-.3202-.7608-.6202-1.0049.0365-.0895.2472.1221.8592.3418.9646 1.0292.5026 1.1716 1.2484.8584 2.2293-.3011.9485.1871 1.5808.7811 2.1077.6835.608.7852 1.2889.4597 2.1077-.1871.4661-.415.9403-.4841 1.4227-.0651.4418-.1058 1.0295.1424 1.3173.4068.4783.9764.4256 1.5052-.1581.5696-.6364.8096.1054.7852.3486-.0529.5472-.3254 1.0862-.5004 1.6294-.3092.9728-.5817 1.9293.2197 2.7846.1383.1459.297.4418.2197.5634-1.1391 1.7996.3051 3.2952.2726 4.9165-.0163 1.0944.0773 2.128.3458 3.1129.2603.985.6672 1.9294 1.1676 2.8616.2075.3891.24.5796.1749 1.0133-.1831 1.4714-.9886 3.1737 1.0171 4.1181.9682.4581 1.4931.7701.3255 1.5727-.118.0811.1179.5796.2725.8512.1017.1824 1.4605.077.1302.5391-.7282.2513-1.0944.5552-.415 1.0416 1.009.7175.8381 1.7105-.0488 2.1726-1.0048.5228-.6712 1.0619-.7038 1.601-.0366.5431.3255 1.1025.2156 1.6254-.1261.6161-.2115 1.224-.24 1.8239-.0244.5999-.0122 1.1917.0325 1.7834.1018 1.1795.4272 2.3347.9846 3.4818.2766.5715.3865 1.2119.7648 1.7348.3824.5309.4963 1.0741.4313 1.601-.0651.531-.2848 1.0457-.5289 1.5321-.2889.5796-.5492.8998-.0041 1.443.2848.2837.2644.7782.3784 1.1754l.0244.0162c1.1676 1.5889.48 3.2386.1302 4.8518-.1506.7214-1.2246 1.4916.2969 2.055.0204.0081-.0895.5066-.2766.6242-.5696.3688-.6062.6687-.2238 1.22.3133.4499.3784 1.0538.4231 1.597.0529.6769.4476 1.0376 1.127 1.1997.8787.2148.7567-.5228 1.0455-.8836.2278-.2959.2116-.9403.9398-.6282.4394.1864.9276.5755 1.2164.0162.1993-.3851.2278-1.0012.0041-1.3619-.472-.7701-1.6802-1.4268.1749-2.0874.1627-.0568.0814-.7661.0163-1.1593-.1872-1.0943-.5574-2.0914.118-3.279.716-1.2241-.2767-2.4239-1.8226-2.9751-.5899-.2108-1.6518.15-1.7535-.7904.7445.0081 1.4931-.0122 2.2335.0405.3296.0244.6469.3.9479.2716.3296-.0284.9195-.2959.9113-.4337-.0406-.912.0977-1.8604.0529-2.7765-.0569-.916-.3214-1.7996-1.1188-2.5697-.6875-.6607-1.0089-1.3822-.6753-2.1401.2482-.5634 1.1798-.9647 1.3588-1.5241.1343-.4174-.8462-1.1673-.6509-1.4105.7648-.9647-.0651-1.5037-.5696-2.0834-.2522-.2877-.8177-.458-1.2733-.4985-.1465-.0122-.4679.5391-.5859.8593-.2156.5796-.4027 1.1673-.6021 1.7469-.2156.5837-.4394 1.1633-.7038 1.7267-.1383.2959-.7201.5269-1.1554.6445-.1709.0486-.6021-.2392-.716-.4459-.2563-.4661-.2238-1.2767-.0366-2.0469.1871-.7701.5736-1.5037 1.0984-1.8158 1.131-.6688 1.2205-1.5402.7486-2.2334-.9113-1.3294.5939-2.6062.1546-3.8992-.0366-.1054.8706-.462 1.3425-.7052.1871.3283.5289.6485.5411.989 0 .916-.1668 1.8401-.2075 2.7562-.0163.3323.0936.685.2441.993.0732.1459.358.2513.5736.2959.0895.0203.3499-.1581.3702-.2594.2197-1.1228.891-2.4198.4801-3.352-.6713-1.4998-.8137-2.89-.5167-4.4343.0366-.2027-.1871-.535-.4068-.6282-.358-.1541-.8218-.1379-1.2164-.2392-1.3181-.3405-1.3059-.385-.6184-1.4186.2685-.4053.6753-1.1674.5289-1.2687-1.1066-.7539-.6265-1.6942-.4475-2.5738.24-1.1795.2441-2.2455-.7567-3.1777-.3011-.2838-.358-.908-.2767-1.3498.2238-1.2281-.2115-2.4076-.4963-3.5993-.297-1.1916-.4801-2.3873.0895-3.66.0854-.1905-.2522-.5067-.3133-.7783-.5044-1.9293-1.2489-3.8262-1.4523-5.7839-.118-1.1106-.2686-2.2131-.533-3.2305-.2604-1.0214-.6021-1.9739-1.0862-2.9061-.1953-.377-.1831-.8918-.0855-1.3052.1506-.6404.1709-1.2362.1424-1.8037-.0407-.5715-.1342-1.1227-.2359-1.6861-.1302-.7012 0-1.3133.3458-1.897.6265-1.07 1.4157-1.90903 2.0504-3.13716.4516-.88766 1.1961-1.62941 2.087-2.12796.8869-.5107 1.8918-.8147 2.9089-.9363.9479-.12159 1.8998-.10943 2.8233-.13375.9195-.02432 1.8918-.06485 2.8845-.21888.8909-.13781 1.8104-.16618 2.7379-.12565.9276.03648 1.8633.12565 2.799.23509 1.4443.16618 2.6241.64041 3.8283 1.19976.4027.1824.8665.40532 1.2896.47828.0814.01622.1587.03243.2319.04864.0692.01622.1587.04053.1465.04053.0285.01622.0447.04459.0651.0608.0325.04054.0162.12565-.0692.22699-.1098.1297-.1953.16213-.1546.14591.0407-.02026.175-.08512.3662-.13376.2969-.07295.4393 0 .4841.14187.0122.03648.0163.07296.0163.11754 0 .02432 0 .04054-.0041.06891-.0081.04864-.0204.10133-.0285.15402-.0447.21077-.1098.45396-.1953.73769-.2197.71742-.5085 1.42269-.6387 2.15223-.4638 2.6509-.895 5.3057-1.3913 7.9485-.297 1.5848-.6266 3.1696-.9683 4.7463-.3255 1.5119-.8787 3.1413-1.0008 4.4869-.1668 1.9416-.777 3.8628-.9398 5.7475-.0651.7337-.1993 1.5524-.6346 2.3104-.2279.4013-.4069 1.3254-.4679 1.9455-.1505 1.516-.4272 2.8697-1.2123 4.0695-.0977.15-.1912.7499-.1343.8228.1383.1865.3702.1905.5614.2716-.2441.304-.5207.5512-.7363.9241-.2156.377-.4638.8877-.533 1.3173-.2278 1.4632-.541 2.8495-1.2449 4.1587-.1017.1905-.0488.5269-.0813.7984-.1099.8877-.1261 1.7956-.3336 2.6671-.3418 1.4429-.7852 2.8737-1.2327 4.3005-.2929.9363-.175 1.751-.1058 2.6589.0651.8106-.5492 1.7672-.7689 2.6873-.2482 1.0295-.3499 2.0915-.5289 3.1413-.0569.3485-.2359.7012-.2237 1.0376.0406.7093.0895 1.4146.1668 2.1158.0813.7012.1627 1.4024.2441 2.1077.0528.4783.1871 1.0254.0244 1.4348-.4069 1.0174-.415 2.0347-.4882 3.0926-.0936 1.135-.2929 2.2212.1302 3.3278.0773.2067-.0163.5917-.175.7701-.8747.9849-.5451 1.9739-.1017 2.9994.2075.4945.3865 1.0781.3214 1.5929-.2115 1.6659-.7486 3.3034-.1261 5.022.1953.5512-.0936 1.2524-.0448 1.8766.1831 2.3509-.9072 4.7626.3662 7.0729.0976.1743-.1261.5067-.1343.7701-.0162.531-.0162 1.0701.0366 1.6009.057.56.2157 1.115.2563 1.674.1587 2.323.3052 4.649 1.2124 6.874.2278.556.1912 1.512-.0814 1.991-.8665 1.503-.4597 2.95.1587 4.434.419 1.021.8299 2.055 1.1188 3.109.3254 1.049.537 2.124.6712 3.222.0977.754.3052 1.512.4598 2.266.183.754.3092 1.508.2441 2.27-.0244.231.0813.604.2156.806.3905.604.6835 1.232.9235 1.885.2644.644.4882 1.313.6875 2.01.0529.179.118.357.1953.535.0814.175.179.349.2726.519.1871.345.3661.689.4882 1.038.2807.871.7729 1.479 1.2489 2.18.2401.341.4516.698.7079 1.03.2523.336.5004.673.7445 1.013.2482.337.4719.693.7282 1.026.2604.328.5167.66.7649.997.2481.328.48.673.7323.997l.7933.957.7974.952.8908.872c.252.243.521.482.777.717.077.073.224.178.216.162-.033-.057-.098-.162-.187-.255-.432-.454-.863-.908-1.294-1.358-.22-.223-.415-.466-.6062-.718l-.5777-.741c-.2482-.325-.5167-.637-.7445-.977l-.6754-1.03c-.2237-.344-.4556-.681-.6672-1.029l-.5817-1.082c-.0814-.154-.0773-.333-.1262-.507-.0732-.284-.1261-.495-.1749-.665-.0407-.17-.0814-.3-.1424-.405-.118-.211-.301-.328-.6875-.563-.1261-.078-.3458-.187-.3784-.276-.1749-.47-.3824-.936-.5573-1.419-.1912-.478-.3865-.956-.5818-1.435-.2034-.474-.3173-.976-.4272-1.471-.0976-.494-.1505-.993-.1098-1.496.0366-.316-.2238-.968-.4557-1.284-.6997-.933-1.0658-1.845-.5085-2.911.0814-.158 0-.713-.1261-.863-.716-.871-.594-1.885-.2685-2.667.3377-.782.2319-1.378-.1912-1.856-.8747-.993-.9357-2.019-.3255-3.138.2848-.514.2319-.855-.2766-1.135-.4475-.247-1.1514-.068-1.2856-.907-.118-.69-.3255-1.573-.0732-2.072.4759-.932.7322-1.844.8258-2.792.0855-.945.0204-1.93-.1383-2.996-.2807-1.86.3133-3.875.4882-5.82.0407-.4663-.0814-.977-.24-1.4269-.4557-1.3133-.9846-2.5982-1.4687-3.9074-.3539-.9768.1221-1.6253 1.1473-1.605.297.004.5899.0567.8869.0891-.0407-.4012.0284-.8593-.1506-1.1876-.2156-.4053-.8747-.6728-.9316-1.0619-.1831-1.293-.1994-2.6103-.2075-3.9195 0-.5391.3417-1.0133.9723-.8593 1.3019.3162 1.1229-.2553.8951-1.0984-.297-1.0701-.4598-2.1199-1.2124-3.0602-.9479-1.2038-.8706-1.2606.2604-2.1604 1.2693-1.0052 1.2449-.989.777-2.6062-.2115-.7215-.4027-1.4795-.3905-2.2172.0081-.7052.0569-1.4064.1261-2.1076l.1831-2.0996c.0122-.1459-.175-.3405-.3092-.4661-.0448-.0406-.2767.0364-.3296.1215-.1586.2635-.2766.5594-.4149.8431-.0367-.3405-.1221-.685-.0977-1.0214.0326-.4053.0244-1.0133.2563-1.1673 1.3629-.8877.5615-2.0226.4028-3.1251-.1017-.7377-.2767-1.5159-.1668-2.2252.3051-1.901.8014-3.7574 1.1432-5.6502.3621-2.0104.6672-4.0452.9845-6.088.1505-.9647.3092-2.0145-.4312-2.4563l-.0855.15.0814-.15c.8259-1.2362.6102-2.5738.4841-3.8587-.0569-.5269-.1993-1.1024.1302-1.5321.9723-1.293 1.0537-3.0967 1.371-4.799.2685-1.5119.4719-3.0967.8747-4.4991.3946-1.4268.1343-3.0278.9072-4.2803.0733-.1175.1384-.7214.118-.9687-.0813-.9971.2116-1.905.4923-2.9548.5858-2.1847 1.314-4.3775 1.4035-6.6919.0122-.381.1912-.9282.3092-1.3903.472-1.755.9398-3.502 1.412-5.257.386-1.4957.35-1.5038-.3339-1.443-.0773.0081-.1383-.0973-.2034-.1499.0773-.146.1627-.3892.2319-.4216.4724-.2351.8054-.8228 1.0094-1.89284.04-.21888.166-.51882.268-.64852.171-.21483.317-.45802.443-.71338.025-.04053.074-.19455.11-.30399l.114-.36884c.073-.24725.143-.50261.208-.75796.11-.5026.142-.98089.183-1.4308l.012-.16618c-.024-.04053-.11-.04458-.163-.06485-.122-.03648-.24-.06891-.358-.10133-.236-.06485-.468-.1216-.687-.17429-.493-.10133-.903-.23914-1.3103-.34858-.1586-.04864-.3173-.09728-.4719-.14186-.1139-.04054-.2278-.08107-.3417-.12565-.4475-.1824-.8584-.42559-1.31-.70932-.9072-.57151-1.8511-1.15518-3.0919-1.41458-1.6111-.33642-3.2831-.66474-4.9877-.85119-.4069-.05269-.8422-.247243-1.2693-.385053-.651-.190503-1.3222-.360739-1.9854-.543135-.9235-.2594076-1.7087-.2675141-2.1277.433697-.2359.385061-.5818.449911-.8909.01216-.2523-.360739-.6266-.5877206-1.2897-.158077-.8747.539078-1.6924 1.045738-2.5752 1.341628-.8828.3202-1.8267.4418-3.0106.36479-.2319-.01216-.6224.17023-.8868.34858-.3214.21887-.6713.42964-.9846.66878-.3132.2513-.6021.51071-.8218.79849-.2481.36074-.541.71337-.8136 1.08222-.2563.38911-.5167.75795-.6672 1.15923-.1506.40127-.2319.78632-.1709 1.15112.0692.37289.2726.71742.6469 1.02141.1952.15808.3417.46207.3661.77012.0326.31615-.0285.64852-.3458.9039-.2726.2432-.3417.7904-.4923 1.1876-.1423.4012-.4068.6809-1.1676.4377-.2237-.077-.5248.1216-.7973.2067zm4.1374-5.62994c-.24-.07701-.5207-.07701-.7038-.21482-.1709-.12565-.3621-.4945-.2888-.58367.3702-.38911.8136-.88361 1.2774-.9971.3214-.08917.6347-.1216.9438-.11349.3133.01216.6184.04459.9154.0608.0081 0-.0447.18645-.0814.35263-1.0618-.16213-1.79.5026-2.0626 1.49159zm26.8834.64446c-.041.18645-.265.40533-.399.57557.045-.47829.033-.88361.082-1.3092.012-.10133.065-.23104.15-.44181 0-.01216.016-.02837.012-.03648l-.024-.02026s-.033-.02837-.053-.04053c-.037-.02838-.077-.0608-.122-.09728-.094-.07296-.208-.15403-.354-.25536.285.08107.533.14997.757.21077l.085.02432c.033.00405.004.04459.012.06485 0 .04864-.008.09323-.012.14187-.008.09322-.012.17834-.02.26346-.033.34047-.041.62014-.114.92414zm-24.536 36.40218c.1668-.1337.3174-.2918.5086-.385.0691-.0325.3498.1215.3417.1459-.0692.1702-.1831.3283-.3377.5755-.2278-.1499-.3702-.2432-.5126-.3364zm14.0397 8.9212c-.0203-.15-.0732-.304-.0448-.4418.0326-.154.1384-.2918.2116-.4378.0081.1824.0122.3608.0163.4986-.0773.1621-.1302.2716-.1831.381z"/><path d="m81.9641 103.942c-.0569-.256-.2522-.471-.3865-.706-.1139.235-.183.527-.3539.697-.6143.621-1.192 1.593-1.8633 1.703-1.1472.186-1.0862.924-1.1676 1.747-.0447.49-.1546 1.005-.0651 1.467.2319 1.216.0732 2.323-.3132 3.49-.179.551-.118 1.556.1464 1.941.7649 1.079.5899 2.266.3784 3.539-.1424.835-.1912 1.698-1.0334 1.86-.4027.077-.4963.576-.3499 1.156.3214 1.378.2441 1.365-.5166 2.472-.3662.527-.9276 1.204-.0082 1.496.057.016.114.389.0692.474-.5899 1.244-.3255 2.452-.3661 3.644-.0489.973-.2848 1.889-.7445 2.415-.5045.58-.651 1.504-.6347 2.124.0244.661.3011 1.066.4638 1.512.0244.065.2766-.198.3132-.332.2645-1.086.594-2.075 1.0903-2.979.0651-.122.0896-.418.0814-.596-.0163-.681-.0569-1.362.0122-2.055.0529-.697.1994-1.411.6225-2.152-.1261-1.257.4475-2.254.8665-3.344.2726-.754.7282-1.468.6062-2.408-.0488-.353.2644-.9.4516-1.337.2725-.641.6387-1.233.8706-1.897.1505-.426.2807-1.184.118-1.374-.4435-.515-.5981-1.038-.5533-1.573.0447-.539.2929-1.099.6143-1.694.1424-.256.061-.677.1017-1.018.0651-.551.1017-1.106.2197-1.645.2075-.933.4272-1.861.6631-2.83.1139-.486.2441-.98.358-1.491.1099-.515.2238-1.042.3377-1.589 0-.02.0366-.385-.0366-.721zm-1.8185 4.458-.1383-.105c-.1506-.365-.3255-.718-.4394-1.099-.0285-.093.1668-.275.2604-.413.0854.085.24.166.24.259.0081.414-.0285.831-.0488 1.249l.1261.113z"/><path d="m79.1493 88.2764c.4678.0121.9397-.0162 1.3995.0527.2807.0405.7851.2796.7689.3445-.3133 1.3416 1.3018 2.132 1.0943 3.502-.1505 1.143.4679 2.3347-.1546 3.5223-.4597.8836-.3051 1.7874.1099 2.667.2197.4458.4027.9039.5044 1.3821.2604 1.301-.2725 2.335-1.4849 2.647-1.0415.267-1.8958.697-2.5508 1.54-.0895.114-.4068.178-.4963.101-.118-.101-.2116-.421-.1506-.551.4435-.916.8625-1.881 1.4809-2.699.5492-.734.773-1.3257.4963-2.2864-.3824-1.2686-1.3751-2.5292-.5492-3.9559-.6713-1.0093-.6021-1.9415.2116-2.8454.0569-.0648-.0082-.2959-.0936-.3851-.8747-.916-.6062-1.986-.6021-3.0196l.0203-.0162z"/><path d="m79.1335 88.2919c-.2319 0-.4678-.0203-.6997-.0081-.5777.0405-1.1758.081-1.7697.1216.4109-.4581.7201-1.1349 1.2693-1.3376 1.4157-.5229 2.4287-1.3619 3.336-2.4725.5329-.6566 1.2978-.4661 1.668.2756.6753 1.366.1302 2.1847-1.5297 2.2253-1.0293.0283-2.1359-.15-2.2579 1.1835l-.0204.0162z"/><path d="m74.4968 138.123c-.2034.709-.4801 1.361-.712 1.828-.2319.466-.4231.741-.5207.685-.0203-.013 0-.329.0285-.41.0691-.235.1912-.584.2359-.596.4028-.077.6469-1.22.8869-2.209.0814-.328.0936-.664.1709-.993.0569-.223.1627-.442.2522-.66.0082.186.0448.36.0163.563-.1261.726-.2889 1.459-.3621 1.796z"/><path d="m91.5377 96.625c.0895.2513.2766.5107.2441.7458-.0285.2108-.2726.4296-.4679.5675-.0488.0364-.3987-.1946-.4231-.3405-.0366-.1986.1017-.4337.1668-.6526z"/><path d="m77.0756 97.4844c-.0773-.3486-.2115-.608-.1424-.6769.1546-.1581.415-.2189.6306-.3202.0692.1702.2441.4094.1831.4945-.1261.1865-.3702.2878-.6753.5067z"/><path d="m77.8144 72.7555c.0041.0689.0204.1378.0122.2026l-.1993 1.1674c-.1505-.0406-.3621-.0446-.4394-.1297-.6184-.6688.0448-.9485.6062-1.2565l.0244.0162z"/><path d="m70.0195 9.66623c.3825-.49044.8422-.91198 1.2653-1.32541.0162.06485.0651.13376.0488.19456-.1058.40532-.2848.65257-.5167.81875-.2197.17429-.4882.27157-.7852.34453l-.0122-.03648z"/><path d="m72.7383 143.668c.004-.138.0122-.24.0163-.341.0528-.146.1139-.328.1627-.409.0163-.025 0 .211-.0366.34-.0285.114-.0895.247-.1424.406z"/><path d="m70.0322 9.70362c-.4028.48638-.7527 1.01328-1.0822 1.56048-.0407-.0486-.118-.1337-.118-.1378.3702-.5229.7567-1.0133 1.188-1.46321l.0122.03648z"/><path d="m77.2419 90.2742c-.1994.1135-.3947.2918-.4801.2553-.1546-.0689-.3133-.2634-.3336-.4134-.0122-.1013.2156-.2148.3377-.3202.1342.1338.2685.2716.476.4783z"/><path d="m70.1455 11.8834-.1338-.15.1297.15z"/><path d="m62.4392 15.0173c.3254-.0649.4841-.0487 1.2611-.3608.891-.3526.6388-.2148.4638-.1175-.5777.3324-.5899.3648.415.0405.3132-.1054.6672-.2229.8869-.2959.1057-.0324 0 .0446-.175.1338-.179.0932-.5492.2594-.838.3972.0366-.0365.0813-.077.1057-.1054.0936-.1094-.1179-.0446-.895.3162-.4841.227-.7892.3688-1.1716.4823-.2767.0811-.655.2027-.9276.381-.1017.0689.0325.0811.2156.0162.8788-.308.895-.2513.4557.0487-.4232.2918-.1018.227.3173.0892.4841-.1581.4475-.0771.0325.2269-.24.1743-.5126.3729-.6509.5067-.1261.1216-.2522.2716-.0854.2189.2766-.0852.7648-.3648 1.3059-.7337.5899-.3931.6672-.3567.6102-.2999-.1342.1337-.4556.3729-.6875.5715-.415.3526-.7771.7053-.2034.454.0976-.0446.1912-.0689.1139-.0041-.5696.4742-.5981.6161-.5126.6647.0854.0527.2888.0122.1871.1946-.2807.5107.1017.5188.7282.2432.1302-.0568.1424-.0405.0651.0811-.2522.4093-.838 1.2565.5574.0567.6794-.5877 1.0252-.912.1831.0365-.0855.0973.0651.0162.1668-.0487.0651-.0405 1.0048-1.0214.0732 0-.5126.5594-.7648.8715-.3133.4743.6632-.5918.5493-.3527-.0447.3769-.6672.8188-.4353.6607-.4516.7701-.0163.1135.2238-.0648.1627.0973-.2847.7661-.0325.9809.7201.3729.1872-.15.2767-.1581.5126-.4053.476-.4986.3174-.0892.1261.4134-.1139.2959-.2278.5513.0977.1378.1709-.2148.1871-.1499.2766-.2148l.0122-.0203c.6957-.8674.4272-.1053.4272.2797-.0081.1703-.4109 1.1755.3173-.15.0082-.0162.0041.1095-.0651.2797-.2156.531-.1993.5837.0163.2716.1749-.2554.2563-.2837.3214-.2959.0854-.0122.2848-.381.5614-.993.3621-.7985.2523-.7013.3418-.9688.0691-.2188.0244-.231.3417-.8836.1912-.3931.4068-.8228.5004-1.1025.0651-.1945.0529-.2391-.061-.0527-.2278.4013-.8055 1.4552-.0163-.2269.0692-.146 0-.0973-.0407-.0527-.1261.1256-.3702.4377-.061-.2473.3255-.7012-.179.0892-1.0008 1.366-.3133.4864-.8421 1.4227-.9438 1.4308.3905-.6323.7811-1.2687 1.1676-1.8929.1708-.2756.3458-.531.5004-.7904.0854-.1418.1993-.3405.2969-.5066.0977-.1662.1668-.2959.1668-.2959-.0773-.0487.2685-.6729-.6265.4904-.3865.4986-.5817.685-.3865.3405.1465-.2554.6998-1.0336.8178-1.2281.0895-.1419-.4964.5674-.3784.3891.4882-.6931.0081-.1135-.297.2067-.1505.1581-.5044.5715-.7892.916-.0936.1095-.3051.4256-.3824.5594-.2848.4782-.4882.8917-.7812 1.4389-.0773.1418-.419.6323-.6712.993-.0977.1419-.3702.4499-.4475.5107-.3499.2797-.1017-.4661.5695-1.3497.712-.9566.7893-1.139.4882-.8836-.5817.4823.415-.7864.1709-.6566-.0122.004.1424-.1703.3417-.3932.1994-.2229.4394-.4905.6062-.6769.1098-.0892.3214-.2878.3133-.2473-.0285.1054-.1709.3446-.2197.4905-.0204.0527.0447.0162.1342-.0608.0407-.0365.2238-.2391.3621-.3972.057-.0649.2319-.2838.2482-.3121.179-.304.6794-.9404.4475-.7418-.3784.3202-.3743.1986-.0651-.1945.0407-.0527-.0936.0648-.2441.2026-.2441.2311-.5736.5472-.8462.8066-.9154.8593-.9113.8309-.3499.2189.2197-.2391.5696-.6161.4719-.531-.7404.6161-.301.1378-.0813-.1094.2929-.3364.419-.4864-.2563-.0122-.2034.1419-.1872.0811-.0773-.0364.3132-.3202.1627-.2757.0935-.304-.0691-.0244-.0528-.1257.6103-.6161.0976-.073-.1302.0567-.1424.0527-.0895-.0406-.3295 0-.1343-.2027.2319-.231.354-.3526-.2196-.1905-.118.0324-.0326-.0284.0976-.1054.4109-.231.2563-.2026-.0854-.1378-.2157.0405-.2482.0162-.1628-.0486.175-.1257.3621-.2189-.1057-.1662-.6632.0689-.6632-.0811-.3052-.2311.3336-.1459.6591-.231.2075-.2877-.4027-.0568-.5207-.15-.7892-.2513-.1953-.0811-.0855-.15.0773-.2027.0569-.0162.1098-.0365.0488-.0648-.0936-.0446-.0244-.0568.2034-.0446.2888.0121.1871-.0122-.1668-.077-.537-.1014-.598-.1419-.4882-.1905.0732-.0325.2156-.0446.1953-.0892-.0773-.1621-.1343-.3405-.1465-.5107 0-.1014.0082-.1986.061-.2797.0489-.0811.2726-.0892.1628-.227-.1628-.2067.0569-.231-.0773-.4377-.0529-.0811-.0529-.146.2034-.0568.1342.0487.1505-.004.1139-.0729-.0895-.1622-.061-.2594.4231-.0203.061.0284.0529-.0162 0-.0608-.1383-.1094-.3214-.2351-.4882-.35669.1546.08109.3458.19859.4679.25539.122.0567.2563.1175.2522.0851-.0122-.1095.061-.1662.4353.0486.0529.0324-.0244-.0567-.0325-.081-.0204-.0771-.1017-.2149-.0407-.227.1058-.0122.297.0527.4922.1418.1302.0608-.0162-.1378-.122-.31611-.0936-.16213.2766.14997.3783.19861.114.0486.1546.0203.2319.0324.0244.0041.1343.1095.118.0649-.0732-.18648-.2034-.4621-.2888-.70124-.0285-.08106-.0977-.22293.004-.12159.2523.2513.2767.1986.3458.20266.0773.0081.2238.14186.0326-.26346-.0366-.07701.0325-.00811.122.11754.5045.71739.354.41343.1872.02027-.0814-.18645-.1383-.35264-.0773-.29994.1993.16213.5207.64446.3458.10133-.0529-.17834.118.10538.1342.0689.0326-.0689.2035.17429.3052.29184.1057.11754.1464.11349 0-.44181-.0204-.08512.0773.13781.0935.15403.0366.03242.0733.05674.0895.03242.0163-.02837 0-.15402.0244-.16618.1058-.04459.1872-.08107.1384-.83092-.0122-.18239.0691-.09322.1546.21077.2685.95657.2522.68095.2644.23509.0041-.3121.0325-.57151.0732-.73364.0448-.15402.1058-.21076.175-.13781.0895.08918.179-.21482.2603.27157.0122.07296.0326.07296.0448 0 .0773-.42154.1668-.42559.24-.34047.0407.03648.1017-.15808.1424-.10944.0488.05675.1058-.08917.1749-.20266.1343-.22698.2686-.34858.3906-.36885.118-.01621.2197.0608.3377.04864.0244 0 .0529-.01216.0813-.02432.0082 0 .0285-.02432.0285-.03242 0-.01622 0-.04864-.0081-.0527-.0814-.03647-.1546-.10538-.236-.16618-.1058-.07701-.2156-.14186-.3254-.23914-.0123-.00811-.0082-.10538-.0123-.15402-.0406-.32832-.0447-.35669-.1627.11349-.0203.07701-.0529.22293-.0569.21077-.0611-.11755-.1384-.09728-.2157-.1216-.0732-.02837-.1424-.09728-.2034-.5026-.0203-.12565-.0813-.0608-.1139.0689-.0936.39317-.1505.55935-.24-.22698-.0122-.11349-.0651-.16618-.0732-.07296-.0651.53503-.1465.21888-.2441-.23914-.0936-.44991-.1587-.43775-.175-.10133-.0325.68905-.0976.66068-.2929-.07296-.0895-.33642-.122-.30805-.0814.16618.0367.41344.1546 1.1187.1017 1.17139-.0447.04053-.0813.1905-.1708-.09728-.3458-1.08221-.5696-1.21597-.6998-.98899-.1098.19861-.476-.43775-.7526-.65662-.0651-.0527-.0854.04864-.0773.1905.0122.40127.0732.8755.1302 1.29298.0447.3121-.1953-.13375-.5981-1.07005-.1139-.27157-.2237-.53908-.3376-.81065-.0285.03648-.1099-.02837-.0773.13376.0407.1986.2848.79849.2685.84712-.061.15808-.175.19051-.2929.21888-.0489.01216-.2482-.27562-.5289-.83902-.5696-1.16328-.5492-.98089-.533-.75391.0204.28778 0 .4945.2848 1.17139.3743.8674.3499.79849-.3254-.11754-.7567-1.01737-.7527-.98089-.6306-.47018.0529.22698.1098.45396.0529.50666-.1099.10133-.3052.08917-.4353.16618-.0122.00811.0895.17834.1668.29589.0244.03648.1708.21077.2074.24319.1099.09728.1912.15808.2848.23509.0082.06485.0488.17024.0204.18645-.0326.02026-.0448.09728-.1953-.06891-.8788-.94846-.4068-.16213-.3173.09728.061.1824.179.42154.1057.4418-.1912.04864-.48.01216-.6306.12971-.1627.11754-.2603.30399-.3336.49855-.0406.08917-.0569.21077.5533.7458l.0489.02431-.0489-.02026c-.5044-.25941-.2074.13781.0407.44586.1058.1297.2889.31615.0732.21076-.6346-.3121-.4841-.0081-.5248.13376-.0244.13781.0163.31615-.1342.36885-.1465.06485.3051.43771-.179.3202-.0448-.01216-.0122.0608.0407.11351.2237.1945.1017.2189.0122.2797-.1872.1134-.5167.2067-.1994.5228.0529.0487-.0163.077-.0488.1054-.1261.1176-.3011.227-.4231.3567-.0895.1175-.057.1256.5899.2513.0732.0162.1505.0365.2238.0567-.0448 0-.0814.0122-.1424.0041-.4069-.0608-.6184-.0486-.6143.0486 0 .0203-.0611.0365-.1384.0365-.5044 0-.5492.1257-.3214.2473.2482.1337.114.1864-.1546.2594-.2685.0729-.5492.1621-.4922.2877.0813.1622.1058.3203.1383.4743.0081.0365-.1546.0851-.2482.1297-.1424.0689-.2725.1418-.4515.2189-.2523.1094-.3052.1945.3498.1702.3702-.0122.3906.0162-.0895.0932-.3987.0649-.6468.1257-.3702.1621.7364.0933.9683.1743-.2766.6121-.1261.0446-.1384.0892-.1343.1175.0204.0689-.0244.1622.1505.1905.4231.0527.3255.3 2.1806-.2269.476-.1298 1.1229-.2797.8178-.1338-.2807.1419.5777-.0365-.9398.4702-.2197.0729-.4557.1743-.6835.2675zm.7404-.8107c-.2075.0608-.415.1297-.6306.1905-.1017.0244-.2482.0608-.3702.0892-.1221.0284-.2197.0486-.2238.0446-.0406-.0365-.0976-.0851.0733-.1621.24-.1095.659-.2432 1.0008-.3567.004 0 .1302-.0162.2441-.0325-.6835.2108-.6225.2919-.0936.227zm.0569-2.3509s.1791.0041.2726.0082c.0529.0364.1383.077.1546.1094.0082.0162-.1139.0162-.3051.0365-.0732-.077-.1302-.1216-.1221-.1541zm1.4036 5.1274c.1383-.1297.2644-.2513.4109-.3932.0529-.0486.2522-.2026.2441-.1905-.0732.077-.1668.1743-.297.3162-.1586.1175-.2563.1945-.358.2675zm.952-7.82681c.0285.03648.0854.10133.0773.10538-.0081.00811-.0732-.03648-.1139-.05674-.0244-.03648-.0448-.07296-.061-.09728.0447.02027.0732.03648.1017.04864z"/><path d="m69.4854 16.5256c-.0244.0729-.0773.2796-.118.4296-.0041.0932 0 .1419-.0163.2959-.0651.5553-.0813 1.0538-.1708 1.7024-.1587 1.1227-.0651.9849.0122.9727.0447-.0081.0895.0446.1464-.0932.1505-.3607.2319-.3283.3214-.077.0407.1175.1424-.0527.1872-.3769.1261-.9039.1993-.9201.2929-.9039.061.0121.118-.073.1586.7296.0204.385.0651.3972.1017.1661.0855-.5471.0773-.4863.2157.0527.0651.2594.1749.6769.1017-.2675-.0041-.0608.0122-.1864.0203-.1581.1424.3324.1831-.154.24-.3526.0489-.1702.114-.154.2197.1662.118.3486.1872.2797.1994.1256.0163-.1702-.0407-.5228-.0733-.7822-.004-.0365-.0691-.2149-.0773-.2189-.0732 0-.1668-.1013-.2766-.3688-.0163-.0365-.0244.0081-.0285.0526-.0162.3202-.0569.7823-.2237.2595-.0366.3647-.1506-.0001-.2319-.2068-.057-.1337-.1139-.4256-.1546-.1661-.0163.1013-.057-.1216-.0854-.2392-.0407-.1702-.0733-.4377-.1058-.5634-.0204-.0811-.0529-.0973-.0692.0932-.0732 1.0336-.1546.908-.1871.3973-.0082-.1095-.0366.0162-.057.0162-.0285 0-.0651.0243-.0895-.0325-.0814-.2067-.1505-.4256-.2034-.7336 0 0-.0163-.0081-.0529.0892zm.0447 1.3781-.0244.1459c-.0488.1864-.1017.4013-.1505.5553-.0122.0365 0-.1338 0-.2067.0203-.0933.0488-.2513.057-.2635.0366-.0527.065-.0648.0976-.0932l.0244-.1378z"/><path d="m67.4316 19.7964c.1668-.4337.3336-.8755.4964-1.3052.0529-.1297.1261-.3121.1871-.462.061-.146.1099-.2595.1099-.2554 0 .2918.5736-1.1998.598-1.0619.0366.1094.2888-.527.1871.0283-.0691.4135.0448.227.1994-.2107.0773-.223.1546-.4418.2034-.5716.1343-.3485.0732.0852-.1383 1.2444-.1831.993-.3051 1.7956-.3336 2.3793-.0041.081-.0529.385-.0733.4823-.0284.1216-.0813.2351-.0854.1824-.0203-.3729-.0407-.7215.0122-1.2646.0448-.4864.0488-.6526-.1058-.3324-.1952.4215-.5939 1.4065-.5044.6485-.2848.6648-.3784.6161-.2075-.1297.0122-.0527-.0285.0122-.0651.0973-.3702.839-.3865.5593-.4801.5472z"/><path d="m67.4264 19.8159c-.0813.2189-.1627.4337-.2441.6526l-.6061 1.6537c.0854-.3932.122-.6931.297-1.2079.4597-1.3213.7689-2.2738 1.0414-3.1129.1628-.4945.4842-1.1916.6672-1.528.3296-.6202.1546-.1176-.4393 1.4227-.3743.9565-.7974 1.9779-.712 2.1076v.0163z"/><path d="m71.523 18.0566c.0529 0 .1302.0892.1952.1784.0692.0932.1262.1945.1587.2959.0081.0202 0 .081-.0041.081-.0203 0-.0569-.0202-.0691-.0608-.1221-.3485-.1872-.2756-.2523-.2391-.0203.0081-.0244.0851-.0488.1013-.0162.0081-.0488-.0486-.0732-.081 0-.0527-.0081-.1257 0-.1419.0325-.073.0732-.1135.0936-.1338z"/><path d="m67.028 4.52762c0-.08107-.0366-.2513 0-.21888.0366.02838.1424.25941.2278.44586.0204.04864.1139.36884.1058.38911-.0081.03243-.0814-.10133-.1302-.16618z"/><path d="m67.8297 21.6686c-.061.0851-.1301.2189-.122.154.0203-.1459.0773-.3931.122-.5999.0366-.0689.1099-.2432.1058-.1905-.0122.1176-.0569.3486-.1058.6364z"/><path d="m65.5382 20.2135s.0203-.004.0203.0081c-.0081.0933-.0122.1865-.0203.2797-.0773.1257-.1831.3081-.2278.3689-.3621.4701-.0488-.1297.2156-.6364z"/><path d="m61.6562 15.0945.5208-.3161c.0447-.0081.118-.0284.1302-.0284.1953.0122-.1668.1581-.6265.3364h-.0245z"/><path d="m72.0113 18.2366v.073c-.0163-.0122-.0365-.0203-.0487-.0406-.004-.0081 0-.0486.0041-.0526.0081-.0041.0243.0162.0405.0243z"/><path d="m61.681 15.0859-.48.3243c-.0488.0122-.1424.0365-.1424.0365.1953-.1216.3987-.2432.598-.3567h.0244z"/><path d="m66.9906 21.6123c-.0529.1905-.0935.377-.1261.454-.057.1418-.1343.2918-.1587.304-.0162.0081.0448-.2068.0733-.3202.061-.1257.122-.2473.2156-.4378z"/><path d="m62.4392 15.0176-.154.0405z"/><path d="m66.7324 33.2979c.3254-.0324.476-.0162 1.2937-.2067.9357-.2108.6591-.1297.4719-.0689-.6306.2027-.6468.231.3865.0203.3255-.0689.6998-.1541.9113-.1987.1099-.0243-.0122.0203-.1993.0811-.1953.0568-.5818.1703-.8869.2594.0407-.0243.0895-.0486.1261-.0689.1139-.0689-.1017-.0243-.9276.2067-.5126.1459-.838.2432-1.2286.3121-.2848.0527-.6753.1257-.9723.2473-.1139.0446.0163.0608.2075.0162.9113-.1986.9153-.1621.4271.0486-.4719.2027-.1546.1662.2767.0689.4922-.1094.4394-.0527-.0285.1662-.2685.1257-.5736.2675-.7323.3689-.1465.0891-.301.1986-.1302.1621.2767-.0568.8015-.2675 1.3995-.535.6469-.2838.712-.2635.6428-.223-.1587.0933-.5167.2716-.7811.4175-.476.2594-.8991.531-.3092.3364.0976-.0324.1912-.0527.1058-.004-1.2978.7417-.2441.3891-.5248.6607-.3825.4012-.0448.4134.5817.1824.1302-.0487.1343-.0365.0366.0648-.3417.3283-1.0781 1.0255.4679.0324.7486-.4863 1.1391-.762.1424.0284-.1017.0811.0529.0081.1546-.0446.0691-.0365 1.1513-.8552.0651-.004-.5981.4661-.9032.7296-.4028.3931.7323-.4985.5614-.304-.1464.3121-.7974.6891-.5574.5594-.6021.6486-.0448.0972.2074-.0568.1098.081-.4597.6566-.3011.8553.4923.3202.1952-.1337.2725-.1418.5329-.3567.5248-.4418.2766-.081-.0203.3608-.175.2634-.3377.4904.0366.1256.1953-.1905.1912-.1337.2766-.1905l.0163-.0162c.7892-.7701.3621-.1054.2563.2473-.057.154-.6387 1.066.2807-.1297.0122-.0163-.0285.0972-.1302.2553-.3092.4823-.3092.531-.061.2473.2034-.2311.2726-.2554.3255-.2676.0691-.0121.3173-.3445.6916-.9079.4882-.7296.3824-.6404.5207-.8795.1139-.1986.0854-.2067.5045-.8026.2522-.3567.5248-.7498.6794-1.0052.1058-.1743.1139-.2107-.0163-.0365-.2726.3729-1.0049 1.3255.0732-.1905.0936-.1337.0367-.081 0-.0405-.1179.1216-.3864.4094.057-.1905.4679-.6161-.1343.1054-1.1432 1.2403-.3824.4337-1.07 1.2606-1.1473 1.2727.4882-.5593.9805-1.1227 1.4646-1.678.2157-.2432.4191-.4743.6184-.7012.2116-.2513.5818-.685.6021-.7094-.0285-.0243.4597-.5512-.5777.4864-.4516.4418-.655.6121-.3905.3202.1952-.2148.8787-.8876 1.0374-1.0457.118-.1175-.5574.5067-.4028.3526.6103-.5877.057-.077-.2848.2027-.1708.1459-.5777.4985-.9153.7904-.1099.0932-.3824.3607-.4882.4702-.3824.4053-.6754.7498-1.0781 1.22-.1058.1216-.5289.5472-.8381.8593-.122.1216-.4312.3891-.5126.4418-.3702.2432.0488-.4013.8666-1.1552.8706-.8188.9926-.9647.6672-.7417-.6266.4174.5817-.6486.3498-.527-.0081.0041.1709-.1418.4028-.3283.2319-.1864.5167-.4094.7119-.5634.118-.077.3499-.2472.3296-.2189-.0611.0811-.2563.2716-.3458.3851-.0326.0405.0284.0041.122-.0608.0448-.0324.2523-.2067.415-.3445.0651-.0568.2685-.2392.297-.2635.2441-.2432.8624-.7701.6224-.5836-.3946.2918-.3458.2067.0488-.1014.0529-.0405-.0935.0608-.2603.1784-.2726.1905-.6469.4539-.9561.6728-1.0293.7134-1.0211.6931-.3539.1986.2603-.1945.6753-.4945.5695-.4215-.8136.5147-.2929.1337-.0203-.0568.3621-.2594.5248-.3607-.1953.0325-.2197.1175-.179.0729-.0447-.0122.3742-.2391.2319-.1824.1871-.1905-.0447 0 0-.0649.7445-.4215.1098-.0527-.1302.0526-.1342.0526-.0529 0-.2808.0568-.0407-.0608.2847-.1337.4475-.1783-.1302-.0405-.118.0284-.0204-.0081.122-.0486.4516-.1297.3011-.0851-.0366-.0325-.2156.0365-.2441.0284-.1424 0 .2034-.0607.4719-.1094.0285-.077-.6184.0365-.5655-.0405-.0325-.0932.4882-.0567 1.1106-.0527.6916-.077-.3743-.0284-.4597-.0608-.7405-.1135-.2156-.0446.0204-.0486.3987-.0081.1261.0122.2685.0284.1872.0122-.1221-.0244.0081-.0081.4597.0689.5777.1013.415.077-.2441-.0487-1.0049-.1945-1.1229-.2351-.8584-.1986.1668.0203.5004.0892.4882.0811-.0366-.0405-.1953-.1176-.2604-.1824-.0366-.0365-.0203-.0608.0203-.0689.0448-.0122.4923.1702.1262-.0162-.5208-.2797-.1546-.1378-.6347-.4378-.1871-.1216-.24-.1824.2238.0689.2441.1338.179.077.0447-.0202-.3295-.2351-.3132-.2919.3824.1621.0855.0567.0082-.0081-.0935-.0811-.2523-.1783-.5574-.3931-.8422-.5958.236.1581.5248.3526.6916.4621.1628.1094.3133.2107.2685.1662-.1627-.15-.1505-.1865.2319.1053.057.0446-.0813-.077-.1139-.1094-.1017-.1013-.2766-.2756-.2603-.2837.0284-.0122.1546.0648.2725.154.0773.0567-.122-.1581-.2644-.3445-.1302-.1662.1831.1459.236.1824.061.0405.0488 0 .0773.0081.0081 0 .0935.0972.065.0527-.1179-.1824-.2603-.4175-.3661-.6202-.0366-.0689-.0976-.1864-.0285-.0973.179.2149.1709.1703.2075.1824.0366.0122.1302.1257-.0285-.1945-.0285-.0608.0163 0 .0814.1013.3539.5796.2278.3405.0976.0405-.0651-.1459-.1098-.2715-.0732-.2229.1261.1459.3336.5553.1953.1459-.0407-.1337.0732.1014.0773.0811.0407-.0811.3824.8633.1546-.0041-.0163-.0689.0488.1216.0569.1419.0204.0365.0407.0689.0448.0608.0081-.0122-.0082-.1094.004-.1054.0529.0081.0855.0487.0407-.5796-.0081-.1581.0326-.0608.0814.227.1505.9079.122.7215.1261.3283 0-.2716.0122-.4985.0366-.6404.0244-.154.057-.2027.0855-.1257.0366.0933.0976-.2067.1098.2797 0 .073.0081.073.0203 0 .0651-.4094.114-.4175.1424-.3324.0163.0365.0692-.1621.0814-.1175.0163.0527.0651-.0932.1139-.2067.0977-.227.1912-.3486.2645-.3729.0691-.0203.1179.0486.1912.0284.0162 0 .0325-.0163.0529-.0284.004 0 .0203-.0284.0244-.0324 0-.0162.0081-.0446.004-.0487-.0407-.0324-.0773-.0932-.1139-.1499-.0529-.069-.1098-.1216-.1668-.2068-.004-.0081.0082-.1013.0082-.1499.0122-.3162.0122-.3486-.1099.1054-.0203.0729-.0529.2148-.0569.2026-.0204-.1135-.0733-.0973-.114-.1216-.0406-.0284-.0732-.0973-.0773-.4985 0-.1257-.0447-.0608-.0732.0689-.0854.385-.122.5472-.1342-.2432 0-.1135-.0285-.1703-.0407-.0811-.0692.5269-.0977.2067-.1424-.2553-.0407-.4581-.0854-.4459-.1058-.1135-.0447.689-.0773.6485-.1953-.1216-.0529-.3527-.0813-.3364-.0569.1459.0203.4215.0895 1.1552.061 1.2038-.0285.0365-.0407.1865-.1017-.1216-.1098-.5837-.2116-.9363-.2889-1.1146-.0813-.1784-.1383-.1338-.179-.0244-.065.1987-.3376-.5026-.5492-.7579-.0488-.0608-.0569.0405-.0488.1864.0285.4216.1017.908.1749 1.3295.057.3121-.1423-.1621-.4963-1.139-.0976-.2837-.1953-.5634-.297-.843-.0203.0324-.0854-.0365-.0488.1256.0407.2027.2604.8228.2522.8674-.0325.1419-.1057.1662-.1871.1905-.0325.0081-.1993-.2878-.4516-.8552-.5085-1.1755-.48-.989-.4516-.758.0407.2919.0407.4945.3092 1.1552.3499.8431.3296.7701-.2563-.1378-.6468-.9971-.6346-.9444-.4882-.4499.0651.2229.1302.4296.0936.4783-.0692.0932-.2116.0729-.3133.1337-.0122.0081.0814.1581.1506.2675.0203.0365.1464.1946.179.227.0935.0892.1586.15.2359.227.0122.0567.0489.15.0285.1581-.0244.0121-.0163.077-.1464-.073-.7364-.8714-.3052-.1662-.2075.0568.0651.158.1749.3607.122.3688-.0651.0162-.1586.0041-.2481 0-.0895 0-.1546 0-.2075.0365-.1058.0729-.1587.2067-.1994.3567-.0203.077-.0325.1378.4801.5836l.0407.0243-.0407-.0202c-.415-.2513-.1587.0567.061.2999.0936.1014.2482.2513.0732.15-.2603-.1459-.3539-.1581-.3905-.1216-.0326.0324-.0244.0892-.0407.1338-.0285.077.0081.1905-.1261.1986-.1383.0162.3132.3364-.175.1702-.0447-.0162-.0203.0324.0326.073.2156.158.0976.1499 0 .1702s-.2278.0284-.2929.0648c-.0611.0365-.0977.1014.0773.223.0569.0405-.0244.0446-.0611.0567-.1464.0487-.3498.0892-.4841.15-.1302.0608-.0854.0729.6916.2553.0855.0244.179.0487.2685.073-.0569-.0081-.0976-.0041-.1708-.0203-.4923-.1013-.7567-.1256-.7527-.0608 0 .0122-.0773.0122-.1708 0-.6225-.0689-.6713.0081-.3906.1135.3092.1135.1546.1297-.1871.1541-.3377.0202-.6794.0567-.6021.1499.1057.1176.1383.2229.1749.3202.0081.0203-.1831.0487-.297.073-.1668.0405-.3254.0811-.537.1256-.297.0608-.358.1176.419.1419.4394.0122.4598.0324-.1057.0567-.472.0203-.7649.0487-.4394.0892.8747.1013 1.0699.15-.2685.3891-.1343.0243-.1383.0527-.118.073.0488.0486.0285.1054.2441.1256.5045.0487.4353.1986 2.3799-.0851.5045-.0689 1.1676-.15.8422-.0648-.297.081.5655-.0162-1.0049.2756-.2278.0405-.476.1054-.716.1581zm.8177-.4945c-.2278.0324-.4475.0649-.6794.1013-.1098.0122-.2685.0325-.3987.0446-.1342.0122-.24.0244-.2441.0203-.0488-.0243-.122-.0567.057-.1013.2522-.0608.716-.1338 1.0984-.1905.0041 0 .1465-.0081.2767-.0122-.7649.1094-.6713.1621-.1058.1338zm.1343-1.447s.2197.0284.3336.0446c.0651.0324.1708.0689.1952.0892.0123.0121-.1383-.0081-.3702-.0203-.0935-.0567-.1627-.0932-.1586-.1135zm.5614 3.3075c.1546-.1054.3051-.2027.4719-.3162.061-.0365.2563-.15.2685-.1581-.0813.0568-.1953.1378-.3539.2513-.1709.0973-.2807.1581-.3865.2189zm1.5744-4.5721c.0407.0446.1139.1175.1139.1216-.004 0-.0813-.0568-.1302-.0892-.0366-.0405-.0691-.077-.0976-.1094.0488.0324.0814.0567.1139.077z"/><path d="m71.7002 33.8538c-.0326.0811-.1139.2676-.1709.4094-.0285.0892-.0366.1338-.0854.2797-.1668.5188-.3214.9971-.5208 1.6254-.3661 1.07-.2725.9484-.2197.9403.0326-.0041.0489.0486.114-.077.1749-.3405.2196-.304.2237-.0527 0 .1175.1017-.0405.1953-.3526.2604-.8715.297-.8755.3458-.8512.0325.0162.0773-.0568-.0407.7377-.0569.381-.0285.4012.0326.1743.1464-.527.1261-.4702.122.077 0 .2634 0 .689.1017-.2513.0082-.0608.0366-.1784.0366-.154.0366.3485.1343-.1176.1872-.3081.0488-.1621.0813-.1297.1057.1986.0285.3567.0773.3.1058.15.0285-.1621.0326-.5148.0366-.7661 0-.0365-.0162-.2189-.0203-.2229-.0407-.0203-.0773-.1297-.1058-.4134 0-.0406-.0122 0-.0203.0445-.0407.3081-.1261.754-.1424.2108-.0692.3526-.0773-.0243-.0854-.2391-.0082-.1378.0162-.4337-.0489-.1784-.0244.0973-.0081-.1256 0-.2472.0122-.1703.0489-.4337.0611-.5594.0081-.081 0-.0932-.0448.0892-.236 1.0012-.2604.8755-.1627.377.0203-.1054-.0204.0121-.0285.0121-.0122 0-.0366.0203-.0325-.0365.0122-.2026.0366-.4174.1017-.7052 0 0-.0041-.0041-.0448.0851zm-.3336 1.3173-.0488.1379c-.0692.1783-.1506.381-.2157.5269-.0162.0365.0285-.1297.0489-.1986.0325-.0892.0854-.2392.0935-.2513.0326-.0487.0529-.0608.0733-.0851l.0447-.1298z"/><path d="m69.5317 36.9256c.236-.4013.4801-.8066.712-1.1998.1464-.2391.3946-.6404.4027-.6566-.0895.2675.7161-1.1146.6795-.9931-.0163.0973.3132-.5026.0895.0082-.1628.381-.0448.2067.1586-.2027.0977-.2027.1994-.4053.2645-.5431.1586-.3324-.0082.0729-.4272 1.1673-.3662.9403-.6428 1.7064-.8015 2.2658-.0203.077-.1261.3688-.1627.458-.0488.1135-.1098.2229-.1017.1702.0732-.3607.1465-.6931.3173-1.2079.1505-.462.1994-.616.0204-.3161-.2279.3932-.7608 1.3092-.5004.6039-.3703.6202-.4272.5675-.1058-.1216.0244-.0486-.0244.0122-.0732.0892-.4842.7782-.4231.5148-.4842.4985l.0082-.0162z"/><path d="m69.5219 36.9416c-.118.1986-.2359.4013-.3539.5999l-.8828 1.5199c.1668-.3647.2725-.6485.541-1.1187.6957-1.22 1.1839-2.0793 1.6233-2.8453.2604-.4499.6916-1.0822.9113-1.3984.3987-.5756.118-.1216-.7323 1.2889-.533.8755-1.1188 1.8118-1.0944 1.9334l-.0081.0162z"/><path d="m72.3916 35.5918c.0285.0122.0651.1135.0976.2189.0326.1054.0611.2148.0692.3242 0 .0203-.0041.0811-.0081.077-.0123-.0081-.0326-.0324-.0367-.077-.0488-.3648-.0854-.3121-.1261-.2918-.0122.0041-.0203.077-.0366.0851-.0081.0041-.0244-.0567-.0325-.0932.004-.0486.0081-.1176.0162-.1338.0244-.0608.0489-.0891.0611-.1053z"/><path d="m70.3525 26.1928c-.0081-.0851-.0366-.2675-.0081-.231.0285.0324.118.2756.1871.4742.0163.0527.0977.3891.0977.4135-.0041.0324-.0651-.1135-.1017-.1784l-.1709-.4783z"/><path d="m69.3402 38.6972c-.0651.077-.1464.1986-.1261.1378.0488-.1378.1546-.3689.236-.5634.0447-.0649.1383-.227.122-.1743-.0366.1094-.1261.3283-.2319.5999z"/><path d="m67.9975 37.3024s.0163-.004.0122.0081c-.0285.0811-.061.1662-.0936.2473-.0976.1135-.2319.2756-.2847.3283-.415.4175-.0041-.1176.3498-.5675z"/><path d="m65.9668 33.3143.5329-.1831c.0489-.0041.1221-.0163.1384-.0122.2034.0122-.1628.0895-.6469.1953z"/><path d="m72.6553 35.8802v.0689c-.0081-.0162-.0202-.0283-.0283-.0527 0-.0081 0-.0486.0081-.0526.004 0 .0162.0202.0243.0324z"/><path d="m65.9919 33.3135-.537.2115c-.0488.0082-.1424.0204-.1424.0204.2156-.0814.4353-.1546.655-.2279h.0244z"/><path d="m68.729 38.6074c-.0895.1784-.1668.3486-.2115.4216-.0814.1337-.1749.2675-.1993.2796-.0163.0081.0854-.1905.1342-.2999.0773-.1135.1546-.227.2726-.4013z"/><path d="m66.7323 33.2979-.1581.0243z"/><path d="m104.804 31.6464c-.329-.0202-.476-.0729-1.31.0163-.956.0972-.671.0364-.48-.0082.647-.154.672-.1783-.386-.1378-.33.0162-.704.0325-.936.0446-.11 0 .016-.0365.204-.0729.199-.0365.602-.0933.915-.146-.045.0244-.102.0487-.134.0689-.122.073.097.0649.948-.0608.529-.081.862-.1337 1.261-.1418.289-.0041.683-.0203.997-.1094.118-.0325-.009-.0771-.204-.0649-.932.0608-.932.0081-.419-.15.492-.1499.167-.1743-.277-.154-.504.0203-.451-.0405.041-.2027.281-.0932.602-.1986.773-.2837.159-.077.322-.1743.147-.1702-.285.004-.838.1337-1.465.3202-.679.1986-.745.15-.671.1135.171-.0811.545-.2108.83-.3283.504-.2068.96-.4256.337-.3446-.105.0122-.203.0122-.11-.0243 1.388-.5634.281-.4134.59-.6688.432-.3769.086-.4823-.59-.4012-.142.0162-.142 0-.032-.0892.374-.2959 1.208-.8917-.492-.1946-.83.3405-1.262.5391-.151-.081.11-.0608-.057-.0325-.167 0-.077.0202-1.285.6404-.069-.0162.667-.3608 1.009-.5756.456-.3365-.814.3527-.627.1703.175-.3242.899-.5513.634-.4702.691-.5634.057-.0973-.227 0-.109-.1297.537-.608.39-.8715-.513-.531-.224.0851-.309.0649-.61.2229-.611.3202-.318-.0081.04-.4053.216-.2351.411-.4337-.032-.154-.232.1459-.224.081-.326.1135l-.016.0121c-.944.5837-.419-.0243-.272-.3729.073-.1499.809-.9444-.334.0446-.016.0122.037-.1013.167-.2351.39-.4175.398-.4701.089-.2513-.252.1824-.333.1824-.394.1743-.078-.0121-.395.2594-.875.7377-.627.6202-.492.5634-.671.7782-.147.1784-.11.2027-.639.7012-.317.3-.671.6283-.8585.8553-.1302.1581-.1383.2026.0325.0648.354-.2959 1.265-1.0822-.0732.2108-.118.1135-.0407.0851.0163.0608.1589-.077.4919-.2878-.0366.2391-.5533.5391.1915-.0283 1.4035-.9484.464-.3527 1.286-1.0458 1.379-1.0214-.586.458-1.171.92-1.749 1.3781-.256.1986-.505.385-.741.5674-.126.1054-.3088.2513-.4553.3729-.1464.1216-.2603.2189-.2603.2189.0529.0648-.4923.531.7406-.2635.533-.3404.777-.4539.476-.1986-.224.1865-1.0132.7337-1.1882.8755-.1301.1014.6552-.3729.4842-.2432-.6957.4864-.0488.1014.346-.1054.191-.1013.663-.3769 1.049-.6039.122-.0729.432-.2959.55-.3932.431-.3526.769-.6647 1.232-1.0781.122-.1054.611-.454.973-.7053.142-.0973.496-.2999.59-.3364.419-.154-.082.4418-1.009 1.0538-.993.6648-1.131.8066-.765.6567.704-.2757-.659.5877-.391.539.012 0-.191.1135-.451.2595-.261.1459-.578.3202-.794.4418-.134.0486-.398.1702-.374.1378.065-.0892.277-.2594.374-.377.037-.0405-.036-.0243-.142.0162-.053.0203-.289.1541-.472.2594-.077.0446-.313.1905-.338.2108-.268.2229-.9557.6566-.675.5391.46-.1865.415-.077-.0122.1905-.057.0365.1098-.0324.2929-.1176.3053-.1418.7163-.3323 1.0623-.4945 1.143-.5188 1.131-.4985.398-.1013-.285.154-.74.3972-.618.3486.895-.3526.325-.0405.036.1175-.386.223-.557.3202.232.0771.236-.073.2-.0244.057.0526-.398.2027-.24.2027-.187.2473.057.0405.008.1256-.773.3932-.118.0405.139-.0203.151-.0081.069.0608.313.0891.065.2188-.289.15-.4436.2311.15.227.122 0 .025.0365-.122.0689-.4594.1054-.301.1216.045.15.22.0162.244.0486.142.0851-.199.073-.402.1175.061.1824.66.0973.615.231.24.2837-.353.0568-.695.0649-.264.2189.378.1419.476.2513.716.4053.175.1176.057.154-.114.1662-.057.0041-.114.0122-.061.0486.081.0608.016.0568-.203 0-.281-.0729-.183-.0283.146.1054.509.2067.562.2554.444.2757-.078.0121-.216 0-.208.0405.049.1662.077.3405.069.4985-.012.0933-.04.1784-.097.2473s-.277.0324-.183.1783c.134.2189-.082.2027.024.4175.045.0851.037.1459-.199.0162-.126-.0689-.147-.0202-.118.0487.069.1661.032.2513-.407-.0568-.057-.0365-.053.0081 0 .0568.122.1256.289.2756.439.4174-.142-.1053-.313-.2431-.427-.3202-.11-.077-.232-.154-.232-.1216 0 .1054-.069.146-.4148-.1216-.0488-.0405.0203.0568.0244.0811.0122.077.0814.2189.0203.2189-.1017 0-.2766-.0973-.4556-.2148-.118-.077.004.1297.0935.3161.0773.1703-.2481-.1864-.3417-.2472-.1017-.0649-.1464-.0446-.2156-.0649-.0244-.0081-.1221-.1256-.1058-.081.057.1905.1627.4742.2319.7174.0244.081.0773.231-.0122.1175-.2197-.2756-.2441-.231-.3092-.2432-.0691-.0162-.1993-.1702-.0447.2513.0284.0811-.0285.0041-.1058-.1337-.4313-.762-.3051-.4459-.1749-.0446.065.1945.1098.3607.0569.304-.1749-.1824-.4516-.6931-.3133-.1378.0407.1783-.1057-.1176-.122-.0811-.0325.0649-.179-.1905-.2685-.3202-.0936-.1297-.1302-.1257-.0244.4337.0163.0851-.0651-.1419-.0814-.1621-.0325-.0365-.0651-.0649-.0814-.0406-.0162.0243-.0081.1541-.0325.1622-.0976.0364-.179.0648-.1627.8147 0 .1824-.0651.0891-.1343-.2189-.2075-.9728-.2075-.6972-.2359-.2473-.0285.6283-.1384 1.0174-.2604.8553-.0773-.0933-.1709.2107-.2319-.2797-.0081-.073-.0285-.073-.0407 0-.0814.4175-.1627.4215-.2319.3405-.0366-.0365-.0976.158-.1342.1094-.0448-.0567-.1017.0892-.1628.1986-.1261.227-.2522.3486-.3661.377-.1099.0162-.1994-.0527-.3092-.0406-.0244 0-.0488.0162-.0773.0244-.0081 0-.0244.0283-.0244.0324 0 .0162 0 .0486.0081.0527.0733.0365.1424.1013.2116.1621.0935.077.1953.1378.2929.231.0122.0081.0041.1054.0122.1541.0285.3283.0325.3566.1505-.1135.0204-.077.0529-.223.057-.2108.0529.1175.1261.0973.1912.1216.0692.0284.1261.0973.1709.5026.0122.1257.0691.0608.1017-.0689.0976-.3891.1505-.5553.2115.2351.0082.1135.0529.1662.0651.077.0732-.531.1383-.2148.2116.2472.0732.454.1301.4418.1546.1095.0488-.6891.1098-.6526.2603.0892.0692.3404.1017.3161.0773-.1622-.0203-.4134-.1017-1.1268-.0529-1.1754.0407-.0405.0773-.1865.1506.1054.2725 1.0984.4719 1.2484.598 1.0335.1058-.1864.415.4743.6591.7175.0569.0567.0773-.0446.0773-.1784.0081-.3972-.0285-.8714-.0651-1.2889-.0285-.3121.1708.15.5004 1.1187.0895.2797.183.5553.2725.835.0285-.0325.0977.0405.0773-.1216-.0284-.1986-.2237-.8147-.2074-.8634.061-.15.1668-.1702.2807-.1824.0447-.004.2156.3.4476.8877.468 1.2038.456 1.0255.456.8025-.005-.2837.024-.4823-.208-1.1795-.301-.8957-.281-.8228.293.1541.647 1.0862.647 1.0538.561.5431-.036-.227-.077-.454-.02-.4986.106-.0851.285-.0445.411-.1013.012-.0081-.073-.1824-.138-.308-.021-.0406-.147-.227-.179-.2635-.094-.1094-.171-.1783-.253-.2675-.004-.0649-.036-.1702-.008-.1824.033-.0162.049-.0851.179.0973.765 1.0376.37.2148.301-.0446-.044-.1824-.142-.4337-.073-.4418.183-.0203.448.0608.598-.0284.163-.0851.265-.2472.35-.4215.041-.077.069-.1865-.472-.7945.464.3283.208-.0932-.004-.4256-.09-.1418-.248-.3445-.057-.2067.578.4013.46.0892.509-.0364.036-.1257.012-.2959.162-.3162.147-.0324-.252-.4621.204-.2594.044.0162.02-.0568-.029-.1094-.195-.223-.077-.2189.017-.2554.195-.0689.52-.0892.252-.4337-.045-.0567.024-.0649.061-.0851.138-.0811.321-.1419.455-.2351.106-.0851.074-.0973-.537-.3445-.069-.0284-.138-.0649-.211-.0973.045.0081.081.004.138.0243.387.1378.594.1702.606.0851 0-.0162.065-.0202.143 0 .492.1054.557.0041.354-.1499-.224-.1703-.082-.1865.195-.1946.277-.0041.565-.0243.533-.1459-.049-.1581-.045-.3-.045-.4418 0-.0324.167-.0405.269-.0568.154-.0283.297-.0608.488-.0891.268-.0365.338-.1014-.301-.227-.362-.073-.374-.0973.106-.0608.402.0324.659.0365.398-.0568-.695-.2472-.907-.3688.411-.462.13-.0081.159-.0446.159-.073 0-.0648.065-.1337-.098-.1945-.398-.1419-.236-.3284-2.168-.3-.497 0-1.156-.0162-.826-.077.305-.0608-.566-.1054 1.033-.1905.232-.0122.484-.0446.733-.073zm-.931.531c.219-.0081.435-.0203.659-.0203.106 0 .256.0041.382.0082.126 0 .224.0081.228.0121.029.0405.073.0932-.114.1216-.26.0405-.7.0608-1.062.0811-.004 0-.13-.0162-.244-.0284.716-.0284.676-.1094.151-.1743zm-.549 2.0469s-.175-.0405-.265-.0649c-.045-.0445-.122-.0972-.134-.1297-.004-.0162.114.0122.301.0325.057.0851.106.1337.098.1662zm.016-4.8315c-.171.0811-.334.1541-.517.2392-.065.0283-.301.1135-.289.1054.09-.0487.212-.1095.387-.2027.187-.0649.305-.1054.423-.1459zm-2.588 6.8703c-.024-.0405-.073-.1095-.065-.1135.008-.0041.069.0446.106.073.02.0364.037.077.053.1053-.041-.0283-.065-.0446-.09-.0648z"/><path d="m98.8316 28.4328c.0529-.0568.1749-.2311.2685-.3567.0407-.0851.0529-.1297.1302-.2635.2766-.4864.4841-.9403.8177-1.5037.582-.9728.448-.8796.378-.8958-.04-.0081-.057-.0689-.158.0365-.2688.2797-.3258.2229-.2973-.0405.0122-.1216-.1383 0-.3092.2796-.4678.7864-.537.7701-.6062.7215-.0447-.0324-.1261.0243.1668-.7255.1424-.3567.1058-.3891-.0162-.1905-.2929.4661-.2604.4134-.1546-.1257.0529-.2594.1342-.685-.1912.2108-.0204.0567-.0855.1621-.0814.1378.0203-.3567-.2116.0689-.3377.227-.1098.1378-.1546.0932-.1098-.2392.0488-.3607-.0366-.3283-.1139-.1945-.0814.15-.1831.4904-.2645.7377-.0122.0365-.0325.2229-.0284.227.061.0324.0935.158.0732.4458 0 .0405.0244 0 .0447-.0365.1506-.2837.3703-.689.293-.1459.179-.3161.1261.0568.1057.2797-.004.1419-.0773.4337.0611.2067.0569-.0851 0 .1338-.0285.2513-.0366.1702-.1139.4297-.1424.5553-.0163.0811.0081.1094.0936-.0608.4759-.916.4963-.7782.3173-.2959-.0366.1013.0407 0 .0569.0041.0245.0121.0651 0 .0611.0608-.0122.2188-.0407.4458-.118.7417 0 0 .0122.0122.0773-.0648zm.5085-1.2768.0773-.1256c.1139-.1541.2441-.3324.3458-.454.0244-.0284-.0488.1216-.0813.1905-.0529.077-.1384.2148-.1506.2229-.0529.0365-.0813.0365-.1179.0487z"/><path d="m101.883 26.0896c-.313.3445-.63.6971-.935 1.0376-.098.1013-.232.2472-.342.3648-.11.1175-.195.2027-.191.1986.114-.2635-.9646.916-.9279.7823.0122-.1095-.4516.3891-.1546-.0851.2197-.3567.0488-.2189-.2523.1297-.1464.1661-.2929.3323-.4027.458-.2563.2756-.0285-.1054.6061-1.0944.5493-.8471.9724-1.5443 1.2284-2.0672.037-.0729.196-.3364.253-.4134.073-.1013.162-.1905.142-.1378-.13.3486-.252.6728-.509 1.1511-.232.4297-.297.5796-.04.3364.329-.3202 1.057-1.0943.687-.4336.505-.5148.566-.4459.13.1823-.032.0446.033 0 .094-.0689.643-.6525.549-.3891.626-.3485l-.012.0162z"/><path d="m101.896 26.0775c.155-.1743.313-.3445.468-.5188l1.168-1.3214c-.228.3324-.375.5958-.729 1.0093-.907 1.0619-1.546 1.8361-2.111 2.517-.334.4013-.883.9363-1.1718 1.1917-.5289.4661-.1831.0608.9318-1.1592.696-.758 1.456-1.5605 1.436-1.7024l.012-.0162z"/><path d="m97.7494 26.2475c-.0406-.0243-.0651-.1338-.0813-.2472-.0163-.1135-.0204-.227 0-.3324 0-.0203.0325-.077.0407-.073.0162.0122.0366.0406.0325.0852-.0448.3647.0366.3283.1017.3242.0203 0 .057-.0648.0814-.0689.0162 0 .0162.0649.0244.1013-.0204.0446-.0448.1135-.061.1297-.057.0487-.1058.0689-.1302.0811z"/><path d="m99.1778 40.5672c0 .0811.0244.2513-.0122.2148-.0325-.0324-.118-.2715-.1871-.462-.0163-.0487-.0895-.377-.0814-.3973.0081-.0283.0732.1095.1099.1784l.1668.4661z"/><path d="m102.275 24.2655c.085-.0567.195-.1581.162-.1013-.073.1256-.219.3323-.341.5066-.061.0527-.192.1865-.167.1419.057-.1054.187-.2999.342-.5472z"/><path d="m103.704 26.2643s-.021 0-.013-.0121c.041-.0811.082-.1622.122-.2473.118-.0932.281-.227.342-.2675.496-.3202-.004.1338-.431.5148l-.016.0121z"/><path d="m105.575 31.7638-.582.1506c-.045 0-.122 0-.134-.0082-.183-.0529.203-.0976.691-.1464h.025z"/><path d="m97.4279 25.8793c.0121-.0284.0202-.0446.0284-.0648.0081.0162.0202.0324.0202.0607 0 .0082-.0202.0446-.0284.0446-.0081 0-.0162-.0243-.0243-.0405z"/><path d="m105.549 31.7615.553-.1668h.147c-.224.0611-.452.118-.672.1709h-.024z"/><path d="m102.969 24.57c.118-.1581.228-.3121.285-.377.105-.1135.227-.2229.256-.231.02-.0041-.118.1743-.187.2716-.102.0932-.2.1905-.354.3323z"/><path d="m106.485 8.63822c-.321-.0608-.46-.11349-1.294-.1905-.956-.08918-.667-.08107-.472-.07702.659.00811.688 0-.362-.14186-.329-.04458-.712-.09728-.927-.12565-.11-.01621.02-.02027.211-.01216.204.01216.606.04053.924.06485-.049.00811-.098.01216-.143.02027-.13.02432.09.05674.944.11754.533.03648.871.0608 1.265.11755.289.04053.68.09727.997.09322.122 0 0-.04458-.191-.06485-.924-.11349-.919-.14186-.391-.14997.513-.00405.204-.06891-.227-.1297-.497-.06891-.428-.09728.089-.10539.293-.00405.631-.01216.818-.02837.171-.01621.354-.04053.183-.06891-.277-.04458-.842-.06485-1.497-.0689-.708 0-.757-.04053-.676-.04864.183-.01621.582-.02837.883-.04459.541-.02837 1.042-.07295.423-.13781-.105-.01216-.195-.02837-.097-.03242 1.489-.07701.386-.1824.76-.27157.517-.13376.245-.25535-.415-.33237-.138-.01621-.134-.02431 0-.05674.46-.09728 1.453-.27967-.378-.20266-.895.04053-1.371.0689-.106-.07701.126-.01622-.036-.02838-.154-.03243-.078 0-1.432.12565-.057-.02432.752-.08106 1.155-.13781.553-.10944-.887.04864-.639-.02432.293-.15402 1.046-.14592.773-.14997.858-.19456.09-.04458-.207-.04458-.044-.09727.756-.25131.752-.4337-.196-.41344-.236.00406-.297-.02432-.634.00811-.68.06485-.265-.07296.24-.23509.301-.09728.565-.17429.049-.09728-.273.04054-.232 0-.334 0h-.02c-1.095.15808-.35-.09727-.041-.27967.142-.07701 1.18-.40532-.293-.04864-.02.00406.085-.05269.264-.10944.55-.17023.582-.20266.212-.13375-.301.05674-.366.04053-.411.02026-.057-.02432-.46.07296-1.11.25941-.847.2432-.708.23914-.973.33237-.215.07701-.203.10133-.903.29183-.423.11349-.887.23914-1.168.33642-.191.06891-.223.09322-.012.04864.452-.10539 1.619-.38911-.179.11349-.158.04459-.081.04459-.02.04053.163-.01216.561-.07296-.159.13781-.744.21077.179.02027 1.672-.27967.57-.11349 1.619-.36074 1.689-.32831-.729.15402-1.461.30804-2.181.46207-.317.06485-.622.12565-.915.18645-.322.07295-.879.1986-.908.20671.017.04864-.687.21482.765-.00405.627-.09323.891-.10944.509-.02027-.285.06485-1.233.23104-1.453.27967-.162.03243.749-.08511.537-.04863-.838.14997-.089.04864.35.0081.224-.02837.757-.09322 1.2-.14591.143-.02027.517-.08918.668-.1216.545-.1216.984-.23914 1.586-.38911.159-.04054.749-.14592 1.18-.22293.171-.02837.578-.07701.675-.08107.436-.0081-.28.2432-1.383.42154-1.184.19456-1.363.2513-.972.23509.753-.02432-.838.21482-.578.23914.012 0-.22.02837-.516.06485-.297.03243-.655.07296-.904.10133-.142 0-.431.02027-.394.00811.093-.04053.358-.09728.496-.14592.049-.01621-.02-.02026-.138-.01621-.057 0-.326.03243-.537.05675-.086.01216-.354.05269-.395.05674-.338.07701-1.139.19861-.83.18645.496-.01621.411.03648-.085.11349-.065.00811.114 0 .313-.00811.33-.02431.789-.05674 1.168-.08106 1.253-.08107 1.232-.07296.406.02027-.325.03648-.834.09322-.703.08511.964-.03242.317.04054-.009.08107-.443.05674-.634.08512.184.09322.248 0 .191.02432.032.04054-.439.04864-.289.07701-.248.11754.041.03648-.029.07701-.85.09728-.122 0 .138.01621.146.02432.045.05269.281.11754.004.15807-.313.04459-.496.07702.094.1824.118.02027.016.02837-.13.02837-.468-.00405-.314.04054.024.11349.216.04864.236.07296.13.08512-.199.02027-.415.02837.037.14187.643.16212.577.23508.219.23914-.345 0-.687-.01622-.268.13781.366.13781.48.22698.724.35263.179.09322.065.10944-.11.10944-.057 0-.118 0-.061.02837.086.04458.025.04053-.195-.00811-.281-.06485-.179-.02837.163.08512.524.17024.586.20672.48.21888-.069.00405-.212-.01216-.191.02026.073.11755.146.23914.17.34858.013.06485 0 .11755-.032.16619-.029.0486-.236.0243-.11.1297.187.154-.008.1459.159.2959.069.0608.081.1013-.171.0121-.134-.0445-.134-.0121-.086.0365.122.1176.114.1743-.378-.0324-.061-.0243-.041.0081.02.0405.159.0851.354.1905.537.2878-.166-.0729-.37-.1662-.488-.2148-.126-.0527-.256-.1013-.24-.077.049.081.012.1175-.386-.0608-.057-.0243.04.0405.053.0608.044.0567.162.1581.113.1621-.085 0-.264-.0527-.463-.1297-.13-.0486.061.0973.211.227.139.1216-.276-.1176-.374-.154-.106-.0365-.122-.0122-.187-.0244-.021 0-.151-.0851-.122-.0526.162.1661.35.3526.521.5228.056.0608.17.1662.048.0892-.297-.1865-.293-.15-.345-.154-.062-.0041-.228-.1095.093.1986.061.0567-.02.0081-.142-.0892-.688-.5391-.44-.304-.139-.004.147.1418.265.2715.2.235-.212-.1175-.663-.4782-.281-.0608.122.1338-.13-.0729-.122-.0445.012.1134-.879-.7175-.126.1418.057.0649-.118-.1054-.138-.1175-.041-.0243-.074-.0365-.07-.0122s.082.1297.074.1459c-.037.0527-.07.0973.354.7093.101.15.012.0892-.196-.1459-.655-.7498-.504-.5188-.272-.1459.325.5229.488.8796.337.7945-.089-.0487.033.235-.272-.1419-.045-.0568-.053-.0487-.021.0121.188.3689.151.4054.07.3608-.037-.0162.044.1702 0 .1459-.053-.0284 0 .1135.032.231.065.2311.077.3932.041.4621-.041.0649-.118.0486-.159.1135-.008.0122-.012.0365-.02.0567 0 .0082 0 .0325.008.0365.008.0162.024.0365.032.0365.053-.0081.118.0162.18.0284.081.0162.158.0121.248.0405.008 0 .057.0811.089.1176.195.2513.216.2796.012-.146-.032-.0689-.097-.1986-.089-.1905.089.077.118.0365.163.0284.048 0 .118.0324.362.3486.077.0973.069.0243.012-.0973-.171-.3567-.232-.5107.24.1257.069.0932.122.1216.077.0405-.26-.4621-.049-.2229.244.1337.289.3527.314.3243.139.0365-.362-.5958-.305-.5755.191 0 .228.2635.232.2351-.045-.154-.24-.3364-.683-.9039-.679-.9566 0-.0445-.057-.1743.142.0487.761.8349.956.9038.915.7012-.04-.1824.501.2878.777.4296.066.0365.021-.0527-.048-.1662-.208-.3202-.484-.6971-.733-1.0295-.187-.2472.192.0892.92.8107.207.2067.415.4134.622.6201 0-.0284.086.0162-.016-.1135-.126-.154-.582-.6161-.594-.6566-.041-.1338.02-.1662.085-.1946.029-.0121.302.2027.765.6324.948.8836.846.7417.729.5634-.155-.227-.236-.3892-.761-.9039-.672-.6607-.623-.6121.28.077 1.009.7661.993.7377.676.3526-.143-.1702-.285-.3404-.265-.381.037-.077.183-.0689.244-.1297.009-.0081-.146-.1337-.256-.2229-.036-.0284-.22-.1581-.26-.1824-.122-.0689-.212-.1176-.313-.1743-.037-.0486-.11-.1297-.098-.1378.016-.0162-.004-.0689.179.0567 1.074.7134.374.1257.195-.0689-.126-.1378-.313-.3121-.264-.3242.13-.0284.366.004.451-.0649.094-.0729.102-.1945.094-.3242 0-.0608-.029-.1379-.728-.5513.516.2189.134-.0729-.179-.304-.135-.0973-.35-.2391-.135-.1459.643.2675.403.0446.411-.0405-.016-.0851-.093-.2027.033-.2148.114-.0244-.391-.3243.081-.1784.045.0122 0-.0365-.061-.0729-.248-.1541-.142-.15-.069-.1743.151-.0446.431-.0487.102-.2838-.057-.0364.008-.0405.036-.0527.11-.0445.265-.077.371-.1297.085-.0445.052-.0567-.578-.2513-.069-.0243-.147-.0486-.22-.077.045.0081.082.0081.138.0243.395.1135.603.15.594.0933 0-.0122.057-.0081.135.0081.488.1013.537.0486.317-.0649-.244-.12562-.118-.12562.155-.1013.264.0243.545.0405.5-.03243-.065-.09728-.073-.1824-.081-.26346 0-.02027.162-.00405.26 0 .146 0 .289 0 .476.00811.26.01216.325-.01622-.309-.16619-.358-.08512-.374-.10133.102-.02026.394.0689.646.10133.386.01621-.683-.22293-.899-.32831.419-.19861.13.01216.159 0 .163-.01621.004-.03648.077-.06485-.082-.11755-.386-.13375-.219-.21077-2.123-.47828-.488-.0689-1.139-.17834-.806-.16618.309.01216-.545-.14592 1.042.04458.232.02838.484.04459.732.06891zm-.972.16618c.215.02837.431.05269.651.08107.101.01621.252.03648.374.05674.122.02027.224.04053.224.04053.028.02838.065.0608-.118.0527-.261-.01216-.7-.06486-1.058-.10133-.004 0-.126-.02432-.24-.04864.708.08106.679.03242.163-.08107zm-.444 1.17139s-.175-.04053-.264-.0608c-.053-.03243-.134-.07296-.151-.09322-.008-.01216.11.01621.297.04053.069.05674.126.09322.122.10944zm.558-2.86564c-.188.01216-.363.02837-.57.04053-.073 0-.297.0081-.309.0081.097-.01215.236-.02432.431-.04458.195 0 .321 0 .448-.00405zm-2.218 4.23155c-.036-.0283-.105-.077-.101-.081.004-.0041.073.0283.114.0486.032.0284.065.0527.085.073-.045-.0162-.073-.0284-.102-.0406z"/><path d="m102.275 5.59868c.081-.03243.272-.10538.415-.16213.085-.04459.118-.06891.26-.13781.504-.24319.94-.48234 1.534-.76201 1.025-.47828.878-.45396.838-.48234-.025-.01621.008-.06079-.13-.02026-.367.11349-.367.0608-.179-.10133.089-.07702-.098-.03648-.391.10133-.83.38911-.858.35668-.867.29994-.004-.03648-.093-.02432.603-.4337.333-.19861.333-.22698.122-.13376-.501.22293-.444.19861-.004-.13375.211-.15808.553-.41749-.261.08106-.053.03243-.163.08107-.142.06485.26-.23509-.171-.02026-.354.04459-.159.05674-.155.01216.102-.19456.276-.22698.203-.23103.065-.16213-.151.07296-.444.26752-.655.40127-.029.02027-.175.13781-.175.14592.008.04459-.057.13781-.273.32831-.028.02432.012.00811.049-.0081.281-.13781.692-.34047.268 0 .326-.15403.033.07701-.13.22293-.101.09322-.346.26751-.105.15807.093-.04053-.094.08917-.192.16213-.146.10539-.358.2513-.463.32832-.066.04863-.07.07295.101-.01216.916-.46613.842-.3729.407-.10539-.094.05675.029.00811.033.02027.008.01621.044.01621 0 .05674-.151.13781-.322.27968-.562.44991 0 0 0 .01216.098-.02026zm1.175-.69716.135-.0608c.183-.0689.382-.14997.533-.20671.036-.01216-.114.06485-.179.10133-.086.03648-.236.10133-.249.10538-.061.01216-.081 0-.114 0l-.126.05675z"/><path d="m105.973 4.83983c-.444.14592-.895.29183-1.331.4337-.268.08106-.72.22293-.74.22698.244-.13781-1.282.35263-1.176.27967.073-.06485-.582.14187-.069-.08511.374-.17024.175-.12971-.26.02026-.216.07296-.427.14592-.574.19456-.354.11349.045-.07701 1.123-.55124.927-.40938 1.668-.74985 2.181-1.02142.069-.03648.353-.16618.443-.20266.118-.04864.236-.08107.191-.0527-.313.19051-.606.36885-1.094.61204-.436.21888-.582.29994-.244.20672.435-.1216 1.444-.43775.773-.10944.691-.20671.695-.14997-.008.14592-.049.02027.024.00405.113-.02027.879-.2594.655-.11754.688-.07701l-.016.00811z"/><path d="m105.988 4.83179c.22-.07296.444-.14592.663-.21483l1.672-.55934c-.37.15402-.638.28778-1.151.46207-1.33.46612-2.266.79443-3.1 1.08627-.492.17429-1.233.381-1.603.47423-.679.17023-.175 0 1.399-.51071.981-.3121 2.039-.64042 2.104-.73364l.016-.00811z"/><path d="m103.125 3.79456c0-.03243.061-.11755.134-.19861.074-.08512.155-.16213.24-.23104.017-.01216.07-.04053.07-.03242 0 .01216-.013.04458-.049.07296-.289.23103-.22.23914-.183.26346.008.0081.073-.02432.089-.01622.008.00406-.036.04864-.061.08107-.045.02432-.102.0608-.122.0608-.065.01216-.102.00405-.122 0z"/><path d="m104.472 14.9005c.045.0649.151.1986.11.1783-.036-.0202-.219-.1945-.37-.3404-.036-.0365-.256-.2878-.264-.304-.008-.0243.105.077.166.1216z"/><path d="m107.355 3.77796c.098-.01621.24-.05269.179-.02432-.134.06485-.37.15808-.561.2432-.078.02026-.253.07295-.208.04864.106-.0527.321-.14592.59-.26752z"/><path d="m107.354 5.34369s-.016-.00407-.004-.01221c.073-.04068.151-.08137.228-.12205.147-.03254.35-.0773.427-.0895.586-.0895-.069.0773-.626.21969h-.021z"/><path d="m107.224 8.81653h-.594c-.044-.01221-.114-.02441-.13-.02441-.175-.05696.208-.02441.7.02034h.024z"/><path d="m103.234 3.42207c.024-.01216.044-.02432.061-.03242-.009.01621-.017.02837-.033.04863-.004.00811-.04.02432-.048.02027-.005 0 .012-.02432.016-.03648z"/><path d="m107.201 8.81185.57-.00814c.049.00814.142.02034.142.02034-.224 0-.456-.00407-.687-.00813h-.025z"/><path d="m107.705 4.14035c.183-.06916.358-.14239.44-.17087.146-.04475.309-.0895.333-.08543.016 0-.195.08136-.305.12611-.134.03662-.264.07323-.472.12612z"/><path d="m106.486 8.63867.158.02432z"/></g></g></svg>