<svg fill="none" viewBox="0 0 150 200" xmlns="http://www.w3.org/2000/svg"><path clip-rule="evenodd" d="m122.299 148.411v14.317c0 4.147-3.362 7.509-7.509 7.509h-79.2809c-4.1473 0-7.5091-3.362-7.5091-7.509v-14.317h9.4375l.3583-.509-8.2156-11.926 8.2311-11.948-8.2312-11.947 8.2314-11.948-8.2307-11.9498 8.2312-11.9555-8.231-11.9505 8.2166-11.9379-.3609-.5136h-9.4367v-14.3166c0-4.1473 3.3618-7.5091 7.5091-7.5091h79.2809c4.147 0 7.509 3.3618 7.509 7.5091v14.3166h-9.439l-.357.5071 8.215 11.9263-8.231 11.9478 8.232 11.9472-8.232 11.9479 8.231 11.95-8.231 11.955 8.231 11.951-8.217 11.937.362.516zm-18.554-96.5853-.325.4616 8.247 11.9716-8.232 11.9482 8.232 11.947-8.231 11.9469 8.231 11.951-8.231 11.956 8.232 11.951-8.246 11.981.331.471h-57.2005l.3263-.463-8.2469-11.972 8.2314-11.948-8.2312-11.947 8.231-11.947-8.2317-11.9516 8.2312-11.9555-8.2315-11.9512 8.2459-11.9805-.33-.4695z" fill="#fff" fill-rule="evenodd"/></svg>