<svg fill="none" height="150" viewBox="0 0 950 150" width="950" xmlns="http://www.w3.org/2000/svg" xmlns:xlink="http://www.w3.org/1999/xlink"><mask id="a" height="141" maskUnits="userSpaceOnUse" width="910" x="20" y="5"><path clip-rule="evenodd" d="m806.606 138.392c-10.675 1.879-21.528 3.027-32.455 3.569-11.484.571-23.046.367-34.595-.48-60.094-4.406-119.646-27.471-163.439-65.1429 14.741-17.9532 52.831-55.2228 122.546-67.48293 12.921-2.27568 26.108-3.44504 39.368-3.76836 11.535-.27987 23.121.11243 34.683 1.24286 57.689 5.62593 114.345 28.36823 156.443 64.57583-14.743 17.9535-52.834 55.2235-122.551 67.4865zm-556.148 3.396c-10.676 1.873-21.529 3.016-32.456 3.552-11.485.565-23.046.356-34.594-.496-60.091-4.436-119.6338-27.53-163.408-65.2228 14.7494-17.946 52.8576-55.1971 122.579-67.4234 12.922-2.26936 26.109-3.43222 39.371-3.74926 11.534-.27408 23.12.12378 34.68 1.25822 57.687 5.65564 114.332 28.42554 156.413 64.65364-14.753 17.9464-52.861 55.1976-122.585 67.4276z" fill="#fff" fill-rule="evenodd"/></mask><path clip-rule="evenodd" d="m806.606 138.392c-10.675 1.879-21.528 3.027-32.455 3.569-11.484.571-23.046.367-34.595-.48-60.094-4.406-119.646-27.471-163.439-65.1429 14.741-17.9532 52.831-55.2228 122.546-67.48293 12.921-2.27568 26.108-3.44504 39.368-3.76836 11.535-.27987 23.121.11243 34.683 1.24286 57.689 5.62593 114.345 28.36823 156.443 64.57583-14.743 17.9535-52.834 55.2235-122.551 67.4865zm-556.148 3.396c-10.676 1.873-21.529 3.016-32.456 3.552-11.485.565-23.046.356-34.594-.496-60.091-4.436-119.6338-27.53-163.408-65.2228 14.7494-17.946 52.8576-55.1971 122.579-67.4234 12.922-2.26936 26.109-3.43222 39.371-3.74926 11.534-.27408 23.12.12378 34.68 1.25822 57.687 5.65564 114.332 28.42554 156.413 64.65364-14.753 17.9464-52.861 55.1976-122.585 67.4276z" fill="#fff" fill-rule="evenodd"/><g mask="url(#a)"><path clip-rule="evenodd" d="m739.552 141.489 18.271 17.448 16.197-16.963.126-.006 67.058-70.2259-16.732-15.9777-.001-.0044-70.584-67.3987-65.81 68.9234-.01.1308-17.438 18.2625 49.43 47.198zm-575.803-15.909 38.074 36.357 16.197-16.963.126-.006 67.058-70.2259-16.732-15.9777-.001-.0044-70.584-67.39867-65.81 68.92337-.01.1308-17.438 18.2625z" fill="#190b12" fill-rule="evenodd"/></g></svg>