<svg width="70" height="45" viewBox="0 0 70 45" fill="none" xmlns="http://www.w3.org/2000/svg">
<path d="M58.0146 10.9219C57.9913 10.9218 57.98 10.9336 57.9799 10.9564C57.9798 10.9795 57.9911 10.9909 58.0143 10.9909C58.037 10.991 58.0489 10.9797 58.049 10.9567C58.049 10.9339 58.0372 10.9219 58.0146 10.9219Z" fill="#4265C5"/>
<path d="M59.7396 11.5153C59.7163 11.5152 59.7049 11.5385 59.7048 11.5843C59.7046 11.6307 59.7158 11.6534 59.7391 11.6536C59.7618 11.6536 59.7737 11.631 59.7739 11.5846C59.774 11.5388 59.7623 11.5155 59.7396 11.5153Z" fill="#4265C5"/>
<path d="M45.7024 14.8844C45.6563 14.7925 45.6337 14.7924 45.6334 14.8843L45.6331 14.9532L45.6677 14.9534C45.6903 14.9535 45.7023 14.9309 45.7024 14.8844Z" fill="#4265C5"/>
<path d="M48.3769 10.8524C48.377 10.8298 48.3884 10.818 48.4115 10.8181L48.3431 10.8178C48.3653 10.818 48.377 10.83 48.3769 10.8524Z" fill="#4265C5"/>
<path d="M31.4639 10.7913C31.464 10.7686 31.4754 10.7569 31.4986 10.7569L31.4295 10.7566C31.4522 10.7567 31.464 10.7686 31.4639 10.7913Z" fill="#4265C5"/>
<path d="M28.7204 14.823C28.7207 14.7313 28.7433 14.7313 28.7894 14.8233C28.7893 14.8697 28.7773 14.8923 28.7546 14.8923L28.7201 14.8921L28.7204 14.823Z" fill="#4265C5"/>
<path d="M42.7918 11.5232C42.792 11.4774 42.8034 11.4541 42.8267 11.4541C42.8493 11.4543 42.8611 11.4775 42.8609 11.5235C42.8607 11.5698 42.8487 11.5925 42.8262 11.5924C42.8029 11.5924 42.7917 11.5695 42.7918 11.5232Z" fill="#4265C5"/>
<path d="M41.0669 10.8952C41.067 10.8726 41.0783 10.8607 41.1016 10.8607C41.1242 10.8609 41.136 10.8727 41.136 10.8955C41.1359 10.9186 41.1239 10.9298 41.1013 10.9298C41.0781 10.9297 41.0667 10.9184 41.0669 10.8952Z" fill="#4265C5"/>
<path d="M9.90552 30.7144C9.90541 30.7376 9.91672 30.7488 9.93988 30.749L9.9401 30.6799C9.91694 30.6798 9.90558 30.6917 9.90552 30.7144Z" fill="#4265C5"/>
<path d="M9.71976 29.5045C9.73129 29.4587 9.74877 29.4356 9.77187 29.4356C9.79081 29.4356 9.80017 29.4656 9.80331 29.5136C9.79958 29.5524 9.7788 29.574 9.73686 29.5738C9.71365 29.5737 9.70775 29.5509 9.71976 29.5045Z" fill="#4265C5"/>
<path d="M9.97392 30.8874L9.97414 30.8183C9.95109 30.7954 9.93377 30.7954 9.9223 30.8181C9.91865 30.8251 9.91882 30.8322 9.91899 30.8392L9.91905 30.8422C9.92057 30.8488 9.92214 30.8555 9.92392 30.8627L9.92493 30.8649C9.92835 30.8723 9.9318 30.8798 9.93929 30.8872C9.96196 30.9105 9.97381 30.9105 9.97392 30.8874Z" fill="#4265C5"/>
<path d="M24.5209 29.8C24.4978 29.8 24.4865 29.7885 24.4866 29.7653C24.4866 29.7427 24.498 29.7308 24.5212 29.7309L24.5209 29.8Z" fill="#4265C5"/>
<path d="M24.389 29.9722L24.4391 29.8368C24.443 29.844 24.4355 29.8663 24.417 29.9032L24.4514 29.938C24.4513 29.96 24.4304 29.9712 24.389 29.9722Z" fill="#4265C5"/>
<path d="M24.8219 28.8334C24.8261 28.8337 24.8306 28.8338 24.8353 28.8338L24.8173 28.8157L24.8111 28.8325C24.8145 28.8329 24.8181 28.8332 24.8219 28.8334Z" fill="#4265C5"/>
<path d="M24.8333 28.7725C24.8379 28.7842 24.835 28.792 24.8246 28.796L24.8333 28.7725Z" fill="#4265C5"/>
<path fill-rule="evenodd" clip-rule="evenodd" d="M18.7121 28.3949C18.6444 28.0265 18.5934 27.7899 18.5593 27.6861C18.5251 27.5824 18.485 27.4846 18.4394 27.3922C18.3479 27.1845 18.1869 27.0688 17.9572 27.0449C17.8416 27.0445 17.738 27.0214 17.6465 26.9747C17.6232 26.9747 17.6001 26.9631 17.5774 26.9398C17.5543 26.9398 17.543 26.9284 17.543 26.9051C17.4964 26.9514 17.4612 27.1354 17.4374 27.4575C17.413 27.7802 17.4005 28.1138 17.3992 28.4592L17.3977 28.8737C17.397 29.0583 17.4018 29.2537 17.4129 29.461C17.4234 29.6683 17.434 29.8584 17.4453 30.0311C17.4561 30.2038 17.4616 30.302 17.4615 30.3248C17.5069 30.4632 17.5643 30.567 17.6332 30.6362C17.6557 30.6596 17.6901 30.7175 17.7362 30.8094C17.7587 30.8559 17.7758 30.8959 17.7875 30.9304C17.7988 30.9651 17.8159 30.9943 17.8391 31.017C17.8615 31.0635 17.9425 31.0751 18.0807 31.0525C18.219 31.0529 18.3108 31.0306 18.3573 30.9844C18.4726 30.9157 18.5768 30.732 18.6703 30.4328C18.7167 30.2488 18.7404 30.1453 18.7404 30.1222L18.7382 30.1288C18.7459 30.087 18.7527 30.0344 18.7583 29.9668C18.7702 29.8173 18.7768 29.6505 18.7774 29.466C18.7781 29.2819 18.7728 29.0919 18.7622 28.896C18.751 28.7004 18.7343 28.5332 18.7121 28.3949ZM18.7382 30.1288L18.7055 30.2257C18.718 30.2132 18.7289 30.1797 18.7382 30.1288Z" fill="#4265C5"/>
<path fill-rule="evenodd" clip-rule="evenodd" d="M35.7757 6.66101e-06C39.4918 0.023059 49.3357 0.375933 57.4992 4.43417C65.847 8.58396 67.3862 14.0971 68.7354 18.9301C69.2546 20.79 71.3704 28.5851 64.8402 36.5814C61.0921 41.171 59.793 41.987 58.7884 42.4364C55.4717 43.9206 49.3899 44.4249 42.6674 44.7675L42.6663 44.7676L42.6661 44.7676C38.1362 44.9985 33.9334 45.2128 28.4349 44.5969C25.1766 44.232 19.5913 43.5706 14.0526 41.1861C9.30482 39.1422 6.88487 36.8198 5.51309 35.4731C-0.833069 29.2424 -0.157704 22.8735 0.238169 19.1403L0.23818 19.1402L0.238221 19.1398C0.248845 19.0396 0.259268 18.9413 0.269348 18.845C0.728987 14.4528 1.19874 9.9665 7.01122 6.31011C12.4602 2.88255 20.5742 1.46174 22.5918 1.10844L22.592 1.10841C26.3944 0.442548 30.5322 0.170409 30.5322 0.170409C31.3936 0.113806 32.3057 0.0682448 33.2645 0.0384284C34.1396 0.0112093 34.9777 -0.000318019 35.7757 6.66101e-06ZM60.1714 13.38C60.1722 13.1726 60.1495 13.023 60.1039 12.9307C60.0579 12.8387 60.036 12.6196 60.0372 12.2741C60.015 11.9978 59.9984 11.8195 59.9874 11.7385C59.9758 11.6581 59.9474 11.583 59.9018 11.5137C59.8556 11.4676 59.8331 11.4217 59.8332 11.3752C59.8335 11.3062 59.7528 11.2254 59.5922 11.1325C59.477 11.0631 59.3682 11.0167 59.2647 10.9933C59.1611 10.9701 58.9594 10.9349 58.6605 10.8873C58.6141 10.8872 58.5683 10.8644 58.5226 10.8177C58.4304 10.7715 58.2579 10.7477 58.0047 10.7468C57.6129 10.7227 57.1412 10.7091 56.5885 10.707C56.0358 10.7052 55.5747 10.7266 55.2064 10.7713C54.861 10.8163 54.5327 10.8438 54.2217 10.854C53.9107 10.8648 53.6516 10.8693 53.4444 10.8686C53.1907 10.8676 52.903 10.8724 52.5807 10.8826C52.2579 10.8934 51.9416 10.8975 51.6307 10.8965C51.3198 10.8952 51.0317 10.889 50.7671 10.8761C50.5022 10.8636 50.3235 10.8572 50.2318 10.8568C50.0247 10.8335 49.9038 10.8211 49.8692 10.821C49.8347 10.8208 49.8174 10.844 49.8172 10.8898C49.8168 10.9822 49.7704 10.982 49.679 10.8894C49.6327 10.8432 49.5696 10.8199 49.4893 10.8196C49.4602 10.8195 49.4142 10.8193 49.3512 10.8191L49.348 10.8191C49.2355 10.8187 49.0697 10.818 48.8502 10.8173C48.7667 10.817 48.6833 10.8167 48.5998 10.8164L48.5979 10.8164C48.4747 10.8159 48.3515 10.8155 48.2284 10.8151C48.0212 10.8143 47.871 10.8256 47.7792 10.848C47.5485 10.8935 47.3644 10.9155 47.2262 10.9151C47.0881 10.9146 47.0189 10.9374 47.0187 10.9834C47.0186 11.0298 47.0066 11.0524 46.984 11.0524C46.9607 11.0523 46.9494 11.0409 46.9495 11.0177C46.9495 10.995 46.8919 10.9829 46.7769 10.9825C46.4083 10.9811 46.1312 11.1762 45.9457 11.5667C45.9224 11.6131 45.8989 11.6529 45.8763 11.6874C45.8529 11.7218 45.8295 11.7622 45.8068 11.808C45.76 11.9002 45.7369 12.0038 45.7365 12.1188C45.6881 12.6485 45.6463 13.1665 45.6099 13.6727C45.5736 14.1795 45.5551 14.4903 45.5547 14.6053C45.5535 14.9739 45.5407 15.2042 45.5178 15.296C45.5173 15.4114 45.5283 15.492 45.5514 15.5379C45.5738 15.6071 45.5737 15.6416 45.551 15.6415C45.5278 15.6415 45.5161 15.7105 45.5156 15.8487C45.5153 15.9642 45.5087 16.1595 45.4963 16.4358C45.4835 16.7121 45.4657 16.8621 45.4429 16.8847L45.4402 17.6101C45.4613 18.0712 45.4713 18.5894 45.4692 19.1649C45.4671 19.7407 45.4536 20.2011 45.4296 20.5464L45.4264 21.4445C45.3788 21.767 45.3764 22.4235 45.4192 23.4136L45.4146 24.6916C45.4143 24.784 45.4254 24.8299 45.4487 24.83C45.4713 24.8301 45.4832 24.842 45.483 24.8646C45.483 24.8878 45.4597 24.8991 45.4139 24.899C45.3907 24.8988 45.3792 24.9334 45.379 25.0024L45.3789 25.0089C45.3787 25.08 45.3781 25.216 45.3774 25.4169C45.377 25.5324 45.3882 25.5897 45.4113 25.5897C45.4572 25.59 45.4571 25.6019 45.4113 25.6243C45.3646 25.6705 45.3645 25.6933 45.411 25.6934C45.4337 25.6934 45.4336 25.7054 45.4108 25.728C45.3876 25.7511 45.3698 25.9005 45.3574 26.1768C45.3445 26.4531 45.3379 26.8045 45.3363 27.2302L45.3337 27.9557C45.333 28.1674 45.3322 28.3862 45.3314 28.6122C45.3295 29.1076 45.3278 29.5912 45.3261 30.063C45.3244 30.5354 45.3282 30.9611 45.3386 31.3412C45.3487 31.7211 45.365 32.0035 45.3875 32.1876C45.4095 32.3723 45.4209 32.5045 45.4206 32.585C45.4203 32.6659 45.4313 32.7406 45.4542 32.8097C45.4539 32.902 45.4418 32.9823 45.4189 33.0514C45.326 33.2125 45.3138 33.4542 45.3817 33.7766C45.4038 33.9613 45.5186 34.1457 45.7252 34.3305C45.771 34.3539 45.8285 34.4 45.8974 34.4695L46.0007 34.5734C46.0464 34.5968 46.2018 34.6147 46.4667 34.6269C46.7313 34.6397 46.9098 34.6346 47.0022 34.6115C47.094 34.612 47.1518 34.6239 47.1748 34.6467C47.1975 34.6701 47.2611 34.6871 47.3647 34.6993C47.4683 34.711 47.589 34.7287 47.7272 34.7524C48.6942 34.8249 49.4079 34.8043 49.8692 34.6911C49.9151 34.6685 49.9843 34.6516 50.0766 34.64C50.1684 34.6289 50.2607 34.6121 50.3532 34.5892C50.5372 34.5671 50.6583 34.5444 50.7161 34.5213C50.7734 34.499 50.8599 34.4529 50.9756 34.3842C51.0676 34.3387 51.1489 34.2526 51.2184 34.1259C51.288 34 51.3229 33.8792 51.3234 33.7636C51.3237 33.6719 51.3183 33.5278 51.3076 33.3317C51.2965 33.1363 51.2859 32.9344 51.2753 32.7271C51.2642 32.5199 51.2534 32.3356 51.2428 32.1743C51.2315 32.0134 51.2264 31.9097 51.2266 31.8633L51.2275 31.6216C51.2275 31.5989 51.2848 31.5872 51.4003 31.5876C51.5154 31.588 51.7684 31.589 52.1603 31.5904C52.4135 31.5913 52.6611 31.5982 52.9029 31.6103C53.1446 31.6231 53.3114 31.6291 53.4038 31.6294C53.6337 31.6535 53.8009 31.6653 53.9045 31.6657C54.0081 31.6661 54.1172 31.6553 54.2328 31.6324C54.4628 31.6106 54.7047 31.5769 54.9586 31.5314C55.2119 31.4865 55.3616 31.4412 55.4081 31.3949L55.5469 31.2572C55.5929 31.2115 55.6391 31.1425 55.6858 31.0504C55.7782 30.8668 55.8477 30.7519 55.8943 30.7057C55.9402 30.706 55.9635 30.6601 55.9639 30.5678C55.9641 30.5083 55.9481 30.4859 55.9189 30.4938C55.9236 30.429 55.9285 30.3492 55.9337 30.2545C55.9154 30.2491 55.9064 30.2391 55.9065 30.2245C55.9067 30.1787 55.8948 30.1554 55.8723 30.1553C55.8259 30.1324 55.838 30.086 55.9072 30.0173L55.9416 30.0864L55.9426 30.0853C55.9572 29.7945 55.974 29.4012 55.9929 28.9062C55.9998 28.9021 56.0045 28.8934 56.0046 28.8753L56.0739 28.8065L56.1431 28.7722L56.074 28.772L55.998 28.7717C55.9995 28.7313 56.001 28.6906 56.0025 28.6492L56.0057 28.5644C56.0063 28.4074 56.0068 28.259 56.0073 28.1192L56.0083 27.8351C56.0091 27.6226 56.0098 27.4339 56.0104 27.269C56.0116 26.9355 56.0066 26.6644 55.9961 26.4572C55.985 26.2498 55.9569 26.089 55.9115 25.9733C55.8654 25.8581 55.8086 25.7542 55.7397 25.6617C55.6709 25.5923 55.6134 25.5403 55.5677 25.5056C55.5213 25.471 55.4179 25.4188 55.2574 25.3491C55.0504 25.2566 54.9122 25.2561 54.8428 25.3476C54.8657 25.3018 54.8257 25.2784 54.7222 25.2779C54.6184 25.2776 54.3474 25.3112 53.91 25.3787C53.8176 25.4016 53.6681 25.4184 53.4608 25.4289C53.2535 25.44 53.0462 25.4447 52.8389 25.444C52.5161 25.466 52.1878 25.4934 51.8541 25.5267C51.5199 25.56 51.3065 25.5998 51.2145 25.6454C51.1681 25.6684 51.1569 25.6338 51.1804 25.5415L51.1813 25.2997C51.1815 25.2539 51.1697 25.2306 51.147 25.2306C51.1238 25.2078 51.1126 25.1673 51.1129 25.1095C51.113 25.0523 51.1246 25.0119 51.1479 24.9888C51.1705 24.9888 51.1826 24.943 51.1829 24.8508L51.1833 24.7471L51.4596 24.7481C51.4962 24.7482 51.5391 24.7484 51.5878 24.7486L51.9164 24.7497C51.8994 24.7493 51.8853 24.7379 51.8743 24.715C51.8512 24.669 51.8514 24.6345 51.8747 24.6115C51.8975 24.5887 51.9319 24.6003 51.9781 24.6464C52.0008 24.6929 52.0006 24.7274 51.9778 24.75L51.9779 24.7154C51.955 24.7382 51.935 24.7495 51.9179 24.7497C51.9282 24.7498 51.938 24.7498 51.9479 24.7498C51.9575 24.7499 51.9673 24.7499 51.9778 24.75C52.2078 24.7508 52.4382 24.7463 52.6687 24.7352C52.8987 24.7247 53.106 24.7195 53.2906 24.7202L54.2579 24.7237C54.396 24.7241 54.5342 24.7192 54.6724 24.7079C54.8106 24.6971 54.9023 24.6915 54.9488 24.6916C55.0872 24.6461 55.26 24.6237 55.4671 24.6244C55.6055 24.6249 55.7781 24.6142 55.9855 24.5917C56.1929 24.5698 56.4574 24.5362 56.7803 24.491C56.8954 24.4915 57.0223 24.4693 57.1607 24.4232C57.1832 24.4234 57.2065 24.4181 57.2298 24.4063C57.2525 24.395 57.2757 24.3891 57.2989 24.3892L57.4371 24.3897C57.5753 24.3902 57.6791 24.3334 57.7486 24.2182C57.7947 24.1725 57.8178 24.1725 57.8176 24.2183L57.8175 24.2875C57.8401 24.2876 57.9039 24.2591 58.0078 24.2017C58.1116 24.145 58.2327 24.0817 58.3711 24.0131C58.5096 23.9446 58.6361 23.876 58.7519 23.8072C58.8671 23.7387 58.9364 23.6929 58.9596 23.6698C59.0057 23.6241 59.0463 23.5898 59.0809 23.5665C59.1155 23.544 59.1443 23.521 59.1675 23.4978C59.2136 23.4521 59.2597 23.3833 59.3065 23.2911C59.3528 23.1995 59.3989 23.1306 59.4453 23.0842C59.4914 23.0385 59.5377 22.9351 59.5847 22.7739C59.6312 22.6133 59.6775 22.4633 59.7245 22.3253C59.7711 22.1415 59.7958 21.6924 59.7984 20.9783L59.8007 20.3567C59.8248 19.9654 59.8378 19.6486 59.8388 19.4067L59.8403 18.9667C59.8406 18.8918 59.8409 18.8197 59.8411 18.7505C59.8418 18.5551 59.8422 18.4341 59.8424 18.3878L59.843 18.215C59.8432 18.1691 59.8488 18.1232 59.8608 18.0769C59.8723 18.0311 59.8783 17.9966 59.8784 17.9733C59.9015 17.8585 59.9198 17.5935 59.9331 17.179C59.9459 16.7645 59.953 16.4656 59.9537 16.2809L60.1619 16.0054L60.1667 14.6928C60.1669 14.6469 60.1437 14.6009 60.098 14.5542C60.0517 14.5314 60.0519 14.5195 60.0982 14.5197C60.1441 14.5198 60.1674 14.5027 60.1675 14.4681L60.1714 13.38ZM59.7932 22.4292L59.7587 22.3946C59.7812 22.441 59.7985 22.4637 59.8104 22.4639C59.8216 22.4639 59.8159 22.4411 59.7934 22.3948L59.7932 22.4292ZM55.999 30.4297C56.0212 30.5221 56.0443 30.5681 56.0675 30.5683L56.0678 30.4645C56.0682 30.3729 56.0565 30.3263 56.0338 30.3262C56.0106 30.3262 55.9992 30.3606 55.999 30.4297ZM46.0003 34.6772C46.0002 34.6997 46.0114 34.7115 46.0347 34.7117C46.0573 34.7118 46.0692 34.6999 46.0693 34.6773C46.0694 34.6547 46.0575 34.6427 46.035 34.6427C46.0117 34.6426 46.0003 34.6544 46.0003 34.6772ZM43.2584 13.3188C43.2592 13.1115 43.2364 12.962 43.1909 12.8696C43.1449 12.7776 43.123 12.5584 43.1243 12.2129C43.1021 11.9365 43.0854 11.7584 43.0744 11.6772C43.0628 11.5968 43.0344 11.5217 42.9887 11.4525C42.9426 11.4065 42.92 11.3605 42.9202 11.3141C42.9204 11.2449 42.8399 11.1643 42.6792 11.0713C42.564 11.0019 42.4552 10.9556 42.3516 10.932C42.2481 10.909 42.0463 10.8736 41.7476 10.8263C41.7011 10.8261 41.6553 10.8033 41.6096 10.7566C41.5174 10.7103 41.3447 10.6865 41.0917 10.6857C40.6999 10.6615 40.2281 10.648 39.6755 10.6459C39.1227 10.6439 38.6618 10.6655 38.2935 10.71C37.9479 10.7552 37.6196 10.7826 37.3087 10.7929C36.9978 10.8035 36.7386 10.8082 36.5313 10.8073C36.2777 10.8064 35.99 10.8113 35.6678 10.8213C35.3449 10.8322 35.0286 10.8363 34.7176 10.8352C34.4068 10.8341 34.1187 10.8277 33.8541 10.8148C33.5892 10.8026 33.4105 10.796 33.3188 10.7956C33.1117 10.7722 32.9907 10.76 32.9562 10.7598C32.9216 10.7597 32.9044 10.7829 32.9041 10.8287C32.9039 10.921 32.8574 10.9208 32.7659 10.8281C32.7197 10.7822 32.6566 10.7588 32.5762 10.7585C32.5068 10.7581 32.3406 10.7576 32.077 10.7567L31.9372 10.7562C31.8482 10.7558 31.7592 10.7555 31.6702 10.7552L31.6667 10.7552H31.6665C31.5494 10.7548 31.4324 10.7543 31.3154 10.7539C31.1081 10.7531 30.958 10.7645 30.8661 10.7868C30.6355 10.8324 30.4514 10.8544 30.3132 10.8539C30.175 10.8533 30.1059 10.8764 30.1057 10.9221C30.1056 10.9686 30.0936 10.9914 30.0709 10.9912C30.0478 10.9912 30.0364 10.9796 30.0365 10.9565C30.0365 10.9337 29.9788 10.9218 29.8639 10.9214C29.4953 10.92 29.2182 11.1149 29.0327 11.5056C29.0093 11.552 28.986 11.5918 28.9632 11.6263C28.94 11.6607 28.9165 11.7011 28.8938 11.7468C28.8469 11.8391 28.8238 11.9425 28.8235 12.0575C28.7751 12.5874 28.7333 13.1054 28.6969 13.6116C28.6606 14.1182 28.6422 14.4292 28.6417 14.5441C28.6404 14.9126 28.6277 15.143 28.6046 15.2348C28.6042 15.3503 28.6154 15.4307 28.6384 15.4767C28.6607 15.5459 28.6606 15.5804 28.638 15.5804C28.6149 15.5802 28.6032 15.6493 28.6027 15.7875C28.6022 15.903 28.5956 16.0985 28.5833 16.3747C28.5703 16.6509 28.5527 16.801 28.5298 16.8236L28.5272 17.549C28.5483 18.0099 28.5582 18.5281 28.5562 19.1036C28.5541 19.6796 28.5406 20.1399 28.5166 20.4852L28.5133 21.3833C28.4657 21.706 28.4634 22.3622 28.5062 23.3523L28.5016 24.6305C28.5012 24.7228 28.5124 24.7688 28.5356 24.7688C28.5582 24.7689 28.5701 24.7809 28.57 24.8035C28.5699 24.8267 28.5467 24.8379 28.5008 24.8378C28.4777 24.8377 28.4661 24.8722 28.4659 24.9414C28.4658 24.9729 28.4656 25.0188 28.4654 25.0792C28.4651 25.151 28.4648 25.2433 28.4643 25.3558C28.4639 25.4713 28.4752 25.5285 28.4983 25.5286C28.5442 25.5288 28.5442 25.5406 28.4982 25.5632C28.4516 25.6094 28.4515 25.6321 28.498 25.6322C28.5207 25.6323 28.5206 25.6442 28.4978 25.6667C28.4745 25.6899 28.4567 25.8393 28.4443 26.1157C28.4315 26.392 28.4249 26.7434 28.4233 27.1691C28.4223 27.4447 28.4213 27.7345 28.4202 28.0387L28.4184 28.5511C28.4173 28.843 28.4163 29.1309 28.4152 29.4147L28.4131 30.0018C28.4114 30.4741 28.4152 30.9 28.4256 31.2799C28.4356 31.66 28.452 31.9424 28.4744 32.1265C28.4965 32.3112 28.5079 32.4434 28.5076 32.5238C28.5073 32.6048 28.5184 32.6794 28.5412 32.7485C28.5409 32.8409 28.5288 32.9212 28.5059 32.9903C28.413 33.1513 28.4008 33.3929 28.4687 33.7155C28.4908 33.9003 28.6056 34.0846 28.8121 34.2694C28.8579 34.2928 28.9156 34.3388 28.9843 34.4082L29.0876 34.5123C29.1334 34.5356 29.2887 34.5534 29.5537 34.5657C29.8182 34.5786 29.9968 34.5733 30.0892 34.5504C30.1809 34.5508 30.2387 34.5628 30.2618 34.5855C30.2844 34.6088 30.348 34.6259 30.4517 34.6381C30.5552 34.6498 30.676 34.6676 30.8141 34.6912C31.7811 34.7638 32.4948 34.7431 32.9562 34.6299C33.002 34.6074 33.0713 34.5903 33.1636 34.5787C33.2554 34.5679 33.3478 34.5509 33.4401 34.5281C33.6243 34.5061 33.7452 34.4832 33.8031 34.4602C33.8604 34.4378 33.9469 34.3916 34.0626 34.3231C34.1545 34.2775 34.2359 34.1914 34.3054 34.0648C34.3749 33.9388 34.4099 33.8179 34.4103 33.7025C34.4107 33.6107 34.4053 33.4666 34.3946 33.2706C34.3834 33.0752 34.3728 32.8733 34.3623 32.666C34.3512 32.4587 34.3404 32.2745 34.3298 32.1132C34.3185 31.9523 34.3134 31.8486 34.3136 31.8022L34.3145 31.5604C34.3145 31.5377 34.3718 31.526 34.4873 31.5265C34.5246 31.5267 34.5764 31.5268 34.6427 31.5271C34.7273 31.5273 34.8356 31.5277 34.9676 31.5282C35.0513 31.5285 35.1445 31.5288 35.2473 31.5292C35.5005 31.53 35.7481 31.537 35.9899 31.5492C36.2317 31.5619 36.3984 31.5679 36.4907 31.5682C36.7206 31.5923 36.8878 31.6042 36.9915 31.6046C37.0951 31.6049 37.2042 31.594 37.3198 31.5713C37.5498 31.5494 37.7917 31.5158 38.0456 31.4703C38.2989 31.4253 38.4485 31.38 38.4951 31.3337L38.6338 31.196C38.6798 31.1503 38.7259 31.0814 38.7728 30.9893C38.8652 30.8056 38.9347 30.6907 38.9813 30.6446C39.0272 30.6447 39.0505 30.599 39.0508 30.5066C39.051 30.4472 39.035 30.4249 39.006 30.4327C39.0106 30.3679 39.0155 30.2881 39.0207 30.1933C39.0024 30.1879 38.9934 30.1779 38.9935 30.1633C38.9936 30.1174 38.9819 30.0942 38.9593 30.0942C38.9129 30.0713 38.9249 30.0248 38.9942 29.956L39.0286 30.0251L39.0296 30.0241C39.0442 29.7332 39.061 29.34 39.0799 28.845C39.0868 28.841 39.0915 28.8322 39.0915 28.8142L39.1608 28.7452L39.2301 28.7111L39.0849 28.7105C39.0861 28.6805 39.0872 28.6504 39.0883 28.62L39.0927 28.5033C39.0946 27.9737 39.0962 27.542 39.0974 27.2078C39.0986 26.8743 39.0936 26.6032 39.083 26.396C39.0719 26.1887 39.0439 26.0278 38.9984 25.9121C38.9524 25.7968 38.8956 25.693 38.8268 25.6006C38.758 25.5312 38.7004 25.4792 38.6547 25.4444C38.6083 25.4098 38.5048 25.3576 38.3443 25.2879C38.1373 25.1954 37.9992 25.1949 37.9298 25.2864C37.9526 25.2407 37.9127 25.2171 37.809 25.2168C37.7055 25.2165 37.4345 25.2501 36.997 25.3176C36.9046 25.3404 36.7551 25.3572 36.5478 25.3678C36.3405 25.3789 36.1331 25.3836 35.9259 25.3828C35.6031 25.4048 35.2747 25.4322 34.941 25.4656C34.6068 25.4989 34.3935 25.5387 34.3015 25.5841C34.2551 25.6071 34.2438 25.5726 34.2674 25.4804L34.2683 25.2387C34.2685 25.1927 34.2567 25.1695 34.234 25.1693C34.2109 25.1467 34.1996 25.1061 34.1998 25.0484C34.2 24.9912 34.2116 24.9507 34.2348 24.9276C34.2576 24.9277 34.2695 24.8818 34.2699 24.7896L34.2703 24.6859L34.6594 24.6874C34.7381 24.6877 34.8333 24.688 34.9439 24.6884L35.0034 24.6886C34.9864 24.6882 34.9724 24.6768 34.9612 24.6539C34.9382 24.6079 34.9384 24.5734 34.9616 24.5502C34.9844 24.5277 35.0188 24.5392 35.0651 24.5852C35.0876 24.6316 35.0876 24.6662 35.0648 24.6889L35.0649 24.6543C35.0419 24.6771 35.022 24.6884 35.0049 24.6886C35.0127 24.6886 35.0203 24.6887 35.0278 24.6887C35.0397 24.6887 35.0517 24.6888 35.0648 24.6889C35.2948 24.6897 35.5252 24.6851 35.7557 24.674C35.9857 24.6634 36.193 24.6584 36.3775 24.6589L36.723 24.6603L37.3447 24.6625C37.4831 24.663 37.6212 24.6581 37.7594 24.6467C37.8977 24.6359 37.9893 24.6303 38.0358 24.6304C38.1742 24.5851 38.3469 24.5625 38.5542 24.5633C38.6924 24.5637 38.8652 24.5531 39.0725 24.5305C39.2798 24.5087 39.5444 24.4751 39.8674 24.4298C39.9824 24.4302 40.1092 24.408 40.2477 24.3621C40.2702 24.3621 40.2936 24.3569 40.3168 24.3451C40.3395 24.3339 40.3627 24.328 40.3859 24.328L40.4204 24.3282L40.5241 24.3285C40.6623 24.3291 40.7662 24.2722 40.8356 24.1569C40.8816 24.1112 40.9048 24.1114 40.9047 24.1572L40.9044 24.2262C40.9272 24.2264 40.9909 24.198 41.0946 24.1406C41.1985 24.0839 41.3196 24.0204 41.4581 23.952C41.5966 23.8834 41.7231 23.8147 41.8389 23.7461C41.9541 23.6774 42.0234 23.6318 42.0466 23.6086C42.0927 23.563 42.1333 23.5286 42.1679 23.5054C42.2026 23.4829 42.2312 23.4598 42.2545 23.4367C42.3006 23.3909 42.3467 23.3221 42.3935 23.2299C42.4396 23.1383 42.4858 23.0695 42.5323 23.0231C42.5784 22.9775 42.6246 22.874 42.6717 22.7127C42.7181 22.552 42.7645 22.4022 42.8115 22.2641C42.858 22.0803 42.8829 21.6314 42.8854 20.9172L42.8877 20.2955C42.9118 19.9043 42.9249 19.5873 42.9257 19.3457L42.93 18.1537C42.9302 18.1079 42.9358 18.0621 42.9477 18.0158C42.9593 17.9699 42.9653 17.9353 42.9654 17.9122C42.9884 17.7972 43.0067 17.5323 43.0201 17.1178C43.033 16.7033 43.04 16.4045 43.0407 16.2197L43.2489 15.9441L43.2537 14.6315C43.2538 14.5856 43.2307 14.5397 43.185 14.4931C43.1388 14.4703 43.1388 14.4583 43.1851 14.4586C43.231 14.4587 43.2544 14.4414 43.2545 14.407L43.2584 13.3188ZM42.8801 22.3681L42.8457 22.3334C42.8683 22.3799 42.8854 22.4027 42.8974 22.4027C42.9086 22.4027 42.9028 22.3799 42.8803 22.3335L42.8801 22.3681ZM39.0859 30.3685C39.1082 30.4611 39.1313 30.5069 39.1545 30.507L39.1549 30.4033C39.1552 30.3116 39.1435 30.2651 39.1208 30.2651C39.0976 30.2649 39.0862 30.2995 39.0859 30.3685ZM29.0873 34.6159C29.0871 34.6385 29.0984 34.6504 29.1217 34.6505C29.1443 34.6505 29.1563 34.6388 29.1563 34.6162C29.1564 34.5934 29.1445 34.5816 29.1219 34.5814C29.0987 34.5813 29.0873 34.5932 29.0873 34.6159ZM26.3226 15.9175L26.3555 16.3317L26.3557 16.2741C26.3558 16.2533 26.3559 16.2324 26.3559 16.2112C26.3564 16.0848 26.3449 15.9866 26.3226 15.9175ZM26.3509 17.5929C26.3517 17.3976 26.3524 17.2075 26.353 17.0229L26.3548 16.5232C26.355 16.4611 26.3553 16.3973 26.3555 16.332C26.3098 16.1477 26.288 15.8945 26.2892 15.5718C26.2916 14.9042 26.2585 14.5009 26.1899 14.3625C26.1438 14.2705 26.1216 14.1668 26.122 14.0513C26.1228 13.844 26.0546 13.5674 25.9178 13.2215C25.7808 12.8756 25.6435 12.6219 25.506 12.46C25.3909 12.3447 25.3108 12.2408 25.2653 12.1482C25.2192 12.0563 25.1333 11.9351 25.0076 11.7847C24.8812 11.6347 24.8182 11.5825 24.818 11.6284C24.8179 11.6517 24.7947 11.663 24.7489 11.6627C24.7257 11.6627 24.7144 11.64 24.7145 11.5936C24.7148 11.5245 24.6573 11.4552 24.5426 11.3857C24.4506 11.2936 24.4049 11.2588 24.4047 11.2816C24.4046 11.3279 24.3927 11.3506 24.37 11.3506C24.3468 11.3504 24.3356 11.3277 24.3358 11.2813C24.3359 11.2354 24.3127 11.2354 24.2666 11.2811C24.2201 11.3273 24.1974 11.3272 24.1975 11.2809C24.1976 11.2581 24.1745 11.2462 24.1286 11.2461C24.0821 11.2458 24.0708 11.2576 24.0938 11.2805L24.1283 11.3496C24.1049 11.3727 24.0591 11.3495 23.9903 11.2801C23.9214 11.2107 23.8752 11.1534 23.8528 11.1068C23.8066 11.0376 23.8185 11.003 23.8877 11.0033L23.9913 10.9692L23.9225 10.8997C23.8995 10.8771 23.871 10.8537 23.8365 10.8305C23.802 10.8076 23.7616 10.7729 23.7159 10.7264C23.6471 10.6571 23.4919 10.576 23.2505 10.4828C23.009 10.3901 22.8073 10.3317 22.6466 10.308C22.462 10.2845 22.3067 10.2668 22.1804 10.2544C22.0537 10.2426 21.9215 10.2362 21.7832 10.2358L21.2824 10.2339C21.0864 10.2332 20.8273 10.2441 20.505 10.2656C20.3203 10.2882 20.1595 10.299 20.0213 10.2984C19.9515 10.2982 19.8935 10.298 19.8472 10.2978L19.8364 10.2978C19.7963 10.2976 19.7658 10.2975 19.7449 10.2975L16.1869 10.2845C15.9105 10.2836 15.6629 10.2772 15.4443 10.2645C15.2252 10.2524 15.0929 10.246 15.047 10.2459C15.0194 10.2457 14.9836 10.2456 14.9398 10.2454L14.8398 10.2451C14.7475 10.2448 14.6439 10.2562 14.5289 10.2786C14.16 10.3238 13.9293 10.3574 13.8375 10.3797C13.7452 10.4025 13.6759 10.4368 13.6298 10.4825C13.5833 10.5288 13.5606 10.5288 13.5608 10.4824C13.5608 10.4596 13.5263 10.4595 13.4572 10.4819C13.4106 10.5049 13.3588 10.528 13.3014 10.5504C13.2436 10.5735 13.1917 10.5964 13.1458 10.619C13.0301 10.665 12.8742 10.7734 12.6782 10.9455C12.4817 11.1175 12.3602 11.2612 12.314 11.3759C12.2673 11.4448 12.2099 11.5024 12.1407 11.5482C12.0481 11.5941 11.9382 11.68 11.8116 11.8059C11.6843 11.9323 11.5974 12.0416 11.5513 12.1331C11.5278 12.1796 11.4585 12.2597 11.3431 12.3741C11.2738 12.4432 11.2389 12.5007 11.2388 12.5466C11.2387 12.5929 11.204 12.6501 11.1346 12.7189C11.0186 12.8566 10.9318 12.966 10.8743 13.0461C10.8163 13.1269 10.764 13.2243 10.7178 13.3392C10.625 13.5002 10.5206 13.6958 10.4049 13.9253C10.2884 14.1554 10.2308 14.2819 10.2307 14.3047C10.2306 14.3279 10.2072 14.3855 10.161 14.4771C10.1142 14.5693 10.0914 14.6382 10.0912 14.6842C10.091 14.7306 10.0676 14.7765 10.0215 14.8222C9.97496 14.8683 9.95212 14.9142 9.95201 14.96C9.9519 14.9833 9.92847 15.0635 9.88205 15.2015C9.83513 15.3395 9.81202 15.4431 9.81181 15.5123C9.81148 15.5812 9.7881 15.6622 9.74184 15.7537C9.69508 15.8459 9.64265 16.0417 9.58426 16.3405C9.52538 16.6399 9.48409 16.8583 9.46104 16.9963L9.4591 17.549C9.45866 17.6413 9.45222 17.7854 9.44015 17.9808C9.4276 18.1767 9.40958 18.3666 9.38626 18.5506C9.3625 18.7118 9.3447 18.8559 9.3329 18.9822C9.32062 19.1088 9.31456 19.2704 9.31385 19.4657C9.31349 19.5768 9.31303 19.7008 9.31253 19.8377L9.31131 20.1739C9.31056 20.3876 9.30958 20.6566 9.30839 20.9806L9.30731 21.2793C9.30281 22.5228 9.30482 23.4674 9.31434 24.1119C9.32332 24.7569 9.35027 25.2061 9.39578 25.4594C9.39567 25.5059 9.40076 25.5922 9.41212 25.7186C9.423 25.8454 9.42857 25.9664 9.42819 26.0814C9.42711 26.3809 9.44903 26.5537 9.4953 26.5997C9.51776 26.6462 9.53426 26.8709 9.54465 27.2735C9.55461 27.6767 9.5585 28.2122 9.55612 28.8799C9.55515 29.1562 9.56597 29.3064 9.58908 29.329C9.61148 29.3756 9.61137 29.4101 9.5887 29.4327C9.56543 29.4558 9.55341 29.6172 9.55233 29.9162C9.5966 30.3774 9.64162 30.6075 9.68805 30.6076C9.73394 30.6077 9.73388 30.631 9.68783 30.6766C9.61835 30.792 9.64054 30.907 9.75564 31.0224C9.80131 31.069 9.82441 31.1262 9.82414 31.1953C9.82404 31.2194 9.82966 31.2521 9.83789 31.2886C9.83805 31.2955 9.83951 31.3022 9.8427 31.3092C9.85921 31.3749 9.88616 31.4565 9.92647 31.5585C9.99492 31.7314 10.0634 31.8644 10.1323 31.9564C10.1778 32.0489 10.2008 32.1068 10.2007 32.1293C10.2006 32.1759 10.2231 32.1986 10.2696 32.1988C10.3154 32.199 10.3386 32.2221 10.3384 32.2681L10.3382 32.3371C10.3381 32.3604 10.3606 32.3837 10.407 32.4066C10.4295 32.4298 10.4586 32.453 10.4931 32.4759C10.5276 32.4992 10.5673 32.5339 10.6136 32.5801C10.797 32.7653 10.9117 32.8574 10.958 32.8576C10.9807 32.8576 11.0384 32.8811 11.1305 32.9273C11.2222 32.974 11.2798 32.997 11.303 32.997C11.3257 32.9971 11.36 33.0204 11.4063 33.0664C11.429 33.0898 11.4979 33.1245 11.6132 33.1709C11.728 33.2177 11.8487 33.2699 11.9754 33.3276C12.1015 33.3858 12.2281 33.4322 12.3549 33.4671C12.481 33.5021 12.5674 33.5198 12.6137 33.5199C12.6596 33.5201 12.7519 33.5436 12.8899 33.59C13.0047 33.6368 13.1428 33.6719 13.3041 33.6951C13.4648 33.719 13.5684 33.7307 13.6148 33.7308C13.6607 33.731 13.6838 33.7429 13.6837 33.7656C13.6837 33.7888 13.7295 33.8002 13.8219 33.8006C13.8909 33.8009 13.948 33.8243 13.9943 33.8703C14.0168 33.8937 14.1436 33.9287 14.3738 33.9754C14.4656 33.9989 14.5637 34.0166 14.6673 34.0281C14.7709 34.0404 14.8453 34.0581 14.8917 34.0808C15.0524 34.1047 15.1447 34.105 15.168 34.0818C15.1446 34.1282 15.1791 34.1629 15.2712 34.1859C15.3629 34.2094 15.4783 34.2331 15.6164 34.2562C15.7314 34.2566 15.835 34.2802 15.9271 34.3265C16.0187 34.3733 16.1222 34.3961 16.2378 34.3967C16.2836 34.3968 16.3468 34.4029 16.4277 34.4146C16.5081 34.4268 16.5712 34.4323 16.6176 34.4326C16.7093 34.456 16.8421 34.468 17.0147 34.4685C17.1875 34.4692 17.3715 34.4644 17.5675 34.4533C17.763 34.4427 17.9303 34.4319 18.0685 34.4204C18.2067 34.4097 18.2873 34.3927 18.3105 34.3696C18.3566 34.3239 18.4716 34.301 18.6562 34.3017C18.8402 34.3024 19.0244 34.2805 19.2091 34.2347C19.3934 34.1894 19.5662 34.167 19.7275 34.1675C19.8884 34.168 20.0385 34.1459 20.1769 34.1C20.3152 34.0546 20.4534 34.032 20.5917 34.0324C20.7066 34.0328 20.8103 34.0106 20.9028 33.9645C20.9488 33.9419 21.0066 33.9303 21.0756 33.9305C21.1216 33.9308 21.2079 33.9137 21.3348 33.8797C21.4613 33.8455 21.5942 33.8001 21.7327 33.7429C21.871 33.6862 22.0034 33.6229 22.1306 33.5544C22.2571 33.4857 22.3438 33.4289 22.3902 33.3826C22.4597 33.3137 22.5402 33.2569 22.6327 33.2107C22.7247 33.1652 22.8286 33.0851 22.9445 32.9702C23.0599 32.8555 23.1638 32.7755 23.2562 32.7294C23.3022 32.7068 23.3602 32.6607 23.4294 32.5918L23.6722 32.3509C23.8334 32.2364 23.9494 32.0989 24.0191 31.9376C24.0652 31.8686 24.106 31.7885 24.1409 31.6962C24.1758 31.6046 24.2047 31.5357 24.228 31.4893C24.2741 31.3978 24.338 31.2134 24.42 30.9373C24.5014 30.6612 24.6005 30.3161 24.7174 29.902C24.7402 29.8562 24.7576 29.8104 24.7697 29.764C24.7812 29.7182 24.7986 29.6724 24.822 29.6261C24.8684 29.5113 24.9147 29.3845 24.9615 29.2467L25.0316 28.9706C25.0318 28.9479 25.0547 28.867 25.1016 28.7289C25.148 28.5909 25.1715 28.5107 25.1715 28.4873C25.1716 28.4648 25.1946 28.3838 25.2415 28.2458C25.2644 28.2001 25.2879 28.131 25.3113 28.0389C25.3344 27.9471 25.3579 27.8663 25.3813 27.7973C25.4278 27.6134 25.4516 27.4867 25.4519 27.4175L25.4522 27.314C25.4981 27.3141 25.5446 27.1414 25.5921 26.7962C25.6151 26.7505 25.6326 26.6755 25.6449 26.5719C25.6565 26.4682 25.6741 26.382 25.6976 26.313C25.7443 26.0833 25.7682 25.8986 25.7687 25.7606C25.7929 25.3234 25.8517 25.0474 25.9445 24.9322C25.9907 24.8405 26.0142 24.7369 26.0146 24.6215L26.0155 24.3796C26.0616 24.3107 26.0967 24.1553 26.1208 23.9138C26.1444 23.672 26.145 23.5165 26.1224 23.4473C26.0997 23.3555 26.0999 23.2978 26.1231 23.2747C26.1691 23.2289 26.1926 23.183 26.1928 23.1367C26.2168 22.7454 26.2301 22.331 26.2317 21.8931C26.2333 21.4561 26.2224 21.1677 26.2004 21.0295L26.2015 20.7187C26.202 20.5805 26.208 20.4077 26.2205 20.2005C26.2284 20.0663 26.2363 19.9298 26.2443 19.7908C26.2467 19.749 26.2491 19.707 26.2515 19.6647C26.2535 19.6305 26.2555 19.5962 26.2575 19.5617C26.2695 19.3431 26.2763 19.1358 26.277 18.9399C26.2774 18.8343 26.2777 18.7405 26.278 18.6582C26.2783 18.5882 26.2785 18.5267 26.2787 18.4736C26.2799 18.1513 26.2918 17.9786 26.3151 17.9555C26.3379 17.9098 26.3503 17.789 26.3509 17.5929ZM22.9231 10.2744C22.9233 10.2285 22.9114 10.2053 22.8887 10.2052L22.8882 10.3435L22.9229 10.3436L22.9231 10.2744Z" fill="#4265C5"/>
</svg>
