<svg fill="none" viewBox="0 0 70 45" xmlns="http://www.w3.org/2000/svg"><g fill="#65468B"><path d="m58.0146 10.9219c-.0233-.0001-.0346.0117-.0347.0345-.0001.0231.0112.0345.0344.0345.0227.0001.0346-.0112.0347-.0342 0-.0228-.0118-.0348-.0344-.0348z"/><path d="m59.7396 11.5153c-.0233-.0001-.0347.0232-.0348.069-.0002.0464.011.0691.0343.0693.0227 0 .0346-.0226.0348-.069.0001-.0458-.0116-.0691-.0343-.0693z"/><path d="m45.7024 14.8844c-.0461-.0919-.0687-.092-.069-.0001l-.0003.0689.0346.0002c.0226.0001.0346-.0225.0347-.069z"/><path d="m48.3769 10.8524c.0001-.0226.0115-.0344.0346-.0343l-.0684-.0003c.0222.0002.0339.0122.0338.0346z"/><path d="m31.4639 10.7913c.0001-.0227.0115-.0344.0347-.0344l-.0691-.0003c.0227.0001.0345.012.0344.0347z"/><path d="m28.7204 14.823c.0003-.0917.0229-.0917.069.0003-.0001.0464-.0121.069-.0348.069l-.0345-.0002z"/><path d="m42.7918 11.5232c.0002-.0458.0116-.0691.0349-.0691.0226.0002.0344.0234.0342.0694-.0002.0463-.0122.069-.0347.0689-.0233 0-.0345-.0229-.0344-.0692z"/><path d="m41.0669 10.8952c.0001-.0226.0114-.0345.0347-.0345.0226.0002.0344.012.0344.0348-.0001.0231-.0121.0343-.0347.0343-.0232-.0001-.0346-.0114-.0344-.0346z"/><path d="m9.90552 30.7144c-.00011.0232.0112.0344.03436.0346l.00022-.0691c-.02316-.0001-.03452.0118-.03458.0345z"/><path d="m9.71976 29.5045c.01153-.0458.02901-.0689.05211-.0689.01894 0 .0283.03.03144.078-.00373.0388-.02451.0604-.06645.0602-.02321-.0001-.02911-.0229-.0171-.0693z"/><path d="m9.97392 30.8874.00022-.0691c-.02305-.0229-.04037-.0229-.05184-.0002-.00365.007-.00348.0141-.00331.0211l.00006.003c.00152.0066.00309.0133.00487.0205l.00101.0022c.00342.0074.00687.0149.01436.0223.02267.0233.03452.0233.03463.0002z"/><path d="m24.5209 29.8c-.0231 0-.0344-.0115-.0343-.0347 0-.0226.0114-.0345.0346-.0344z"/><path d="m24.389 29.9722.0501-.1354c.0039.0072-.0036.0295-.0221.0664l.0344.0348c-.0001.022-.021.0332-.0624.0342z"/><path d="m24.8219 28.8334c.0042.0003.0087.0004.0134.0004l-.018-.0181-.0062.0168c.0034.0004.007.0007.0108.0009z"/><path d="m24.8333 28.7725c.0046.0117.0017.0195-.0087.0235z"/><g clip-rule="evenodd" fill-rule="evenodd"><path d="m18.7121 28.3949c-.0677-.3684-.1187-.605-.1528-.7088-.0342-.1037-.0743-.2015-.1199-.2939-.0915-.2077-.2525-.3234-.4822-.3473-.1156-.0004-.2192-.0235-.3107-.0702-.0233 0-.0464-.0116-.0691-.0349-.0231 0-.0344-.0114-.0344-.0347-.0466.0463-.0818.2303-.1056.5524-.0244.3227-.0369.6563-.0382 1.0017l-.0015.4145c-.0007.1846.0041.38.0152.5873.0105.2073.0211.3974.0324.5701.0108.1727.0163.2709.0162.2937.0454.1384.1028.2422.1717.3114.0225.0234.0569.0813.103.1732.0225.0465.0396.0865.0513.121.0113.0347.0284.0639.0516.0866.0224.0465.1034.0581.2416.0355.1383.0004.2301-.0219.2766-.0681.1153-.0687.2195-.2524.313-.5516.0464-.184.0701-.2875.0701-.3106l-.0022.0066c.0077-.0418.0145-.0944.0201-.162.0119-.1495.0185-.3163.0191-.5008.0007-.1841-.0046-.3741-.0152-.57-.0112-.1956-.0279-.3628-.0501-.5011zm.0261 1.7339-.0327.0969c.0125-.0125.0234-.046.0327-.0969z"/><path d="m35.7757.00000666c3.7161.02305234 13.56.37592634 21.7235 4.43416334 8.3478 4.14979 9.887 9.66293 11.2362 14.49593.5192 1.8599 2.635 9.655-3.8952 17.6513-3.7481 4.5896-5.0472 5.4056-6.0518 5.855-3.3167 1.4842-9.3985 1.9885-16.121 2.3311l-.0011.0001h-.0002c-4.5299.2309-8.7327.4452-14.2312-.1707-3.2583-.3649-8.8436-1.0263-14.3823-3.4108-4.74778-2.0439-7.16773-4.3663-8.53951-5.713-6.346159-6.2307-5.670794-12.5996-5.274921-16.3328l.000011-.0001.000041-.0004c.010624-.1002.021047-.1985.031127-.2948.459639-4.3922.929392-8.8785 6.741872-12.53489 5.44898-3.42756 13.56298-4.84837 15.58058-5.20167l.0002-.00003c3.8024-.665862 7.9402-.938001 7.9402-.938001.8614-.056603 1.7735-.1021642 2.7323-.1319806.8751-.0272191 1.7132-.03874642 2.5112-.03842174zm24.3957 13.37999334c.0008-.2074-.0219-.357-.0675-.4493-.046-.092-.0679-.3111-.0667-.6566-.0222-.2763-.0388-.4546-.0498-.5356-.0116-.0804-.04-.1555-.0856-.2248-.0462-.0461-.0687-.092-.0686-.1385.0003-.069-.0804-.1498-.241-.2427-.1152-.0694-.224-.1158-.3275-.1392-.1036-.0232-.3053-.0584-.6042-.106-.0464-.0001-.0922-.0229-.1379-.0696-.0922-.0462-.2647-.07-.5179-.0709-.3918-.0241-.8635-.0377-1.4162-.0398-.5527-.0018-1.0138.0196-1.3821.0643-.3454.045-.6737.0725-.9847.0827-.311.0108-.5701.0153-.7773.0146-.2537-.001-.5414.0038-.8637.014-.3228.0108-.6391.0149-.95.0139-.3109-.0013-.599-.0075-.8636-.0204-.2649-.0125-.4436-.0189-.5353-.0193-.2071-.0233-.328-.0357-.3626-.0358-.0345-.0002-.0518.023-.052.0688-.0004.0924-.0468.0922-.1382-.0004-.0463-.0462-.1094-.0695-.1897-.0698-.0291-.0001-.0751-.0003-.1381-.0005h-.0032c-.1125-.0004-.2783-.0011-.4978-.0018-.0835-.0003-.1669-.0006-.2504-.0009h-.0019c-.1232-.0005-.2464-.0009-.3695-.0013-.2072-.0008-.3574.0105-.4492.0329-.2307.0455-.4148.0675-.553.0671-.1381-.0005-.2073.0223-.2075.0683-.0001.0464-.0121.069-.0347.069-.0233-.0001-.0346-.0115-.0345-.0347 0-.0227-.0576-.0348-.1726-.0352-.3686-.0014-.6457.1937-.8312.5842-.0233.0464-.0468.0862-.0694.1207-.0234.0344-.0468.0748-.0695.1206-.0468.0922-.0699.1958-.0703.3108-.0484.5297-.0902 1.0477-.1266 1.5539-.0363.5068-.0548.8176-.0552.9326-.0012.3686-.014.5989-.0369.6907-.0005.1154.0105.196.0336.2419.0224.0692.0223.1037-.0004.1036-.0232 0-.0349.069-.0354.2072-.0003.1155-.0069.3108-.0193.5871-.0128.2763-.0306.4263-.0534.4489l-.0027.7254c.0211.4611.0311.9793.029 1.5548-.0021.5758-.0156 1.0362-.0396 1.3815l-.0032.8981c-.0476.3225-.05.979-.0072 1.9691l-.0046 1.278c-.0003.0924.0108.1383.0341.1384.0226.0001.0345.012.0343.0346 0 .0232-.0233.0345-.0691.0344-.0232-.0002-.0347.0344-.0349.1034l-.0001.0065c-.0002.0711-.0008.2071-.0015.408-.0004.1155.0108.1728.0339.1728.0459.0003.0458.0122 0 .0346-.0467.0462-.0468.069-.0003.0691.0227 0 .0226.012-.0002.0346-.0232.0231-.041.1725-.0534.4488-.0129.2763-.0195.6277-.0211 1.0534l-.0026.7255c-.0007.2117-.0015.4305-.0023.6565-.0019.4954-.0036.979-.0053 1.4508-.0017.4724.0021.8981.0125 1.2782.0101.3799.0264.6623.0489.8464.022.1847.0334.3169.0331.3974-.0003.0809.0107.1556.0336.2247-.0003.0923-.0124.1726-.0353.2417-.0929.1611-.1051.4028-.0372.7252.0221.1847.1369.3691.3435.5539.0458.0234.1033.0695.1722.139l.1033.1039c.0457.0234.2011.0413.466.0535.2646.0128.4431.0077.5355-.0154.0918.0005.1496.0124.1726.0352.0227.0234.0863.0404.1899.0526.1036.0117.2243.0294.3625.0531.967.0725 1.6807.0519 2.142-.0613.0459-.0226.1151-.0395.2074-.0511.0918-.0111.1841-.0279.2766-.0508.184-.0221.3051-.0448.3629-.0679.0573-.0223.1438-.0684.2595-.1371.092-.0455.1733-.1316.2428-.2583.0696-.1259.1045-.2467.105-.3623.0003-.0917-.0051-.2358-.0158-.4319-.0111-.1954-.0217-.3973-.0323-.6046-.0111-.2072-.0219-.3915-.0325-.5528-.0113-.1609-.0164-.2646-.0162-.311l.0009-.2417c0-.0227.0573-.0344.1728-.034.1151.0004.3681.0014.76.0028.2532.0009.5008.0078.7426.0199.2417.0128.4085.0188.5009.0191.2299.0241.3971.0359.5007.0363s.2127-.0104.3283-.0333c.23-.0218.4719-.0555.7258-.101.2533-.0449.403-.0902.4495-.1365l.1388-.1377c.046-.0457.0922-.1147.1389-.2068.0924-.1836.1619-.2985.2085-.3447.0459.0003.0692-.0456.0696-.1379.0002-.0595-.0158-.0819-.045-.074.0047-.0648.0096-.1446.0148-.2393-.0183-.0054-.0273-.0154-.0272-.03.0002-.0458-.0117-.0691-.0342-.0692-.0464-.0229-.0343-.0693.0349-.138l.0344.0691.001-.0011c.0146-.2908.0314-.6841.0503-1.1791.0069-.0041.0116-.0128.0117-.0309l.0693-.0688.0692-.0343-.0691-.0002-.076-.0003c.0015-.0404.003-.0811.0045-.1225l.0032-.0848c.0006-.157.0011-.3054.0016-.4452l.001-.2841c.0008-.2125.0015-.4012.0021-.5661.0012-.3335-.0038-.6046-.0143-.8118-.0111-.2074-.0392-.3682-.0846-.4839-.0461-.1152-.1029-.2191-.1718-.3116-.0688-.0694-.1263-.1214-.172-.1561-.0464-.0346-.1498-.0868-.3103-.1565-.207-.0925-.3452-.093-.4146-.0015.0229-.0458-.0171-.0692-.1206-.0697-.1038-.0003-.3748.0333-.8122.1008-.0924.0229-.2419.0397-.4492.0502-.2073.0111-.4146.0158-.6219.0151-.3228.022-.6511.0494-.9848.0827-.3342.0333-.5476.0731-.6396.1187-.0464.023-.0576-.0116-.0341-.1039l.0009-.2418c.0002-.0458-.0116-.0691-.0343-.0691-.0232-.0228-.0344-.0633-.0341-.1211.0001-.0572.0117-.0976.035-.1207.0226 0 .0347-.0458.035-.138l.0004-.1037.2763.001c.0366.0001.0795.0003.1282.0005l.3286.0011c-.017-.0004-.0311-.0118-.0421-.0347-.0231-.046-.0229-.0805.0004-.1035.0228-.0228.0572-.0112.1034.0349.0227.0465.0225.081-.0003.1036l.0001-.0346c-.0229.0228-.0429.0341-.06.0343.0103.0001.0201.0001.03.0001.0096.0001.0194.0001.0299.0002.23.0008.4604-.0037.6909-.0148.23-.0105.4373-.0157.6219-.015l.9673.0035c.1381.0004.2763-.0045.4145-.0158.1382-.0108.2299-.0164.2764-.0163.1384-.0455.3112-.0679.5183-.0672.1384.0005.311-.0102.5184-.0327.2074-.0219.4719-.0555.7948-.1007.1151.0005.242-.0217.3804-.0678.0225.0002.0458-.0051.0691-.0169.0227-.0113.0459-.0172.0691-.0171l.1382.0005c.1382.0005.242-.0563.3115-.1715.0461-.0457.0692-.0457.069.0001l-.0001.0692c.0226.0001.0864-.0284.1903-.0858.1038-.0567.2249-.12.3633-.1886.1385-.0685.265-.1371.3808-.2059.1152-.0685.1845-.1143.2077-.1374.0461-.0457.0867-.08.1213-.1033.0346-.0225.0634-.0455.0866-.0687.0461-.0457.0922-.1145.139-.2067.0463-.0916.0924-.1605.1388-.2069.0461-.0457.0924-.1491.1394-.3103.0465-.1606.0928-.3106.1398-.4486.0466-.1838.0713-.6329.0739-1.347l.0023-.6216c.0241-.3913.0371-.7081.0381-.95l.0015-.44c.0003-.0749.0006-.147.0008-.2162.0007-.1954.0011-.3164.0013-.3627l.0006-.1728c.0002-.0459.0058-.0918.0178-.1381.0115-.0458.0175-.0803.0176-.1036.0231-.1148.0414-.3798.0547-.7943.0128-.4145.0199-.7134.0206-.8981l.2082-.2755.0048-1.3126c.0002-.0459-.023-.0919-.0687-.1386-.0463-.0228-.0461-.0347.0002-.0345.0459.0001.0692-.017.0693-.0516zm-.3782 9.0492-.0345-.0346c.0225.0464.0398.0691.0517.0693.0112 0 .0055-.0228-.017-.0691zm-3.7942 8.0005c.0222.0924.0453.1384.0685.1386l.0003-.1038c.0004-.0916-.0113-.1382-.034-.1383-.0232 0-.0346.0344-.0348.1035zm-9.9987 4.2475c-.0001.0225.0111.0343.0344.0345.0226.0001.0345-.0118.0346-.0344s-.0118-.0346-.0343-.0346c-.0233-.0001-.0347.0117-.0347.0345zm-2.7419-21.3584c.0008-.2073-.022-.3568-.0675-.4492-.046-.092-.0679-.3112-.0666-.6567-.0222-.2764-.0389-.4545-.0499-.5357-.0116-.0804-.04-.1555-.0857-.2247-.0461-.046-.0687-.092-.0685-.1384.0002-.0692-.0803-.1498-.241-.2428-.1152-.0694-.224-.1157-.3276-.1393-.1035-.023-.3053-.0584-.604-.1057-.0465-.0002-.0923-.023-.138-.0697-.0922-.0463-.2649-.0701-.5179-.0709-.3918-.0242-.8636-.0377-1.4162-.0398-.5528-.002-1.0137.0196-1.382.0641-.3456.0452-.6739.0726-.9848.0829-.3109.0106-.5701.0153-.7774.0144-.2536-.0009-.5413.004-.8635.014-.3229.0109-.6392.015-.9502.0139-.3108-.0011-.5989-.0075-.8635-.0204-.2649-.0122-.4436-.0188-.5353-.0192-.2071-.0234-.3281-.0356-.3626-.0358-.0346-.0001-.0518.0231-.0521.0689-.0002.0923-.0467.0921-.1382-.0006-.0462-.0459-.1093-.0693-.1897-.0696-.0694-.0004-.2356-.0009-.4992-.0018l-.1398-.0005c-.089-.0004-.178-.0007-.267-.001h-.0035-.0002c-.1171-.0004-.2341-.0009-.3511-.0013-.2073-.0008-.3574.0106-.4493.0329-.2306.0456-.4147.0676-.5529.0671-.1382-.0006-.2073.0225-.2075.0682-.0001.0465-.0121.0693-.0348.0691-.0231 0-.0345-.0116-.0344-.0347 0-.0228-.0577-.0347-.1726-.0351-.3686-.0014-.6457.1935-.8312.5842-.0234.0464-.0467.0862-.0695.1207-.0232.0344-.0467.0748-.0694.1205-.0469.0923-.07.1957-.0703.3107-.0484.5299-.0902 1.0479-.1266 1.5541-.0363.5066-.0547.8176-.0552.9325-.0013.3685-.014.5989-.0371.6907-.0004.1155.0108.1959.0338.2419.0223.0692.0222.1037-.0004.1037-.0231-.0002-.0348.0689-.0353.2071-.0005.1155-.0071.311-.0194.5872-.013.2762-.0306.4263-.0535.4489l-.0026.7254c.0211.4609.031.9791.029 1.5546-.0021.576-.0156 1.0363-.0396 1.3816l-.0033.8981c-.0476.3227-.0499.9789-.0071 1.969l-.0046 1.2782c-.0004.0923.0108.1383.034.1383.0226.0001.0345.0121.0344.0347-.0001.0232-.0233.0344-.0692.0343-.0231-.0001-.0347.0344-.0349.1036-.0001.0315-.0003.0774-.0005.1378-.0003.0718-.0006.1641-.0011.2766-.0004.1155.0109.1727.034.1728.0459.0002.0459.012-.0001.0346-.0466.0462-.0467.0689-.0002.069.0227.0001.0226.012-.0002.0345-.0233.0232-.0411.1726-.0535.449-.0128.2763-.0194.6277-.021 1.0534-.001.2756-.002.5654-.0031.8696l-.0018.5124c-.0011.2919-.0021.5798-.0032.8636l-.0021.5871c-.0017.4723.0021.8982.0125 1.2781.01.3801.0264.6625.0488.8466.0221.1847.0335.3169.0332.3973-.0003.081.0108.1556.0336.2247-.0003.0924-.0124.1727-.0353.2418-.0929.161-.1051.4026-.0372.7252.0221.1848.1369.3691.3434.5539.0458.0234.1035.0694.1722.1388l.1033.1041c.0458.0233.2011.0411.4661.0534.2645.0129.4431.0076.5355-.0153.0917.0004.1495.0124.1726.0351.0226.0233.0862.0404.1899.0526.1035.0117.2243.0295.3624.0531.967.0726 1.6807.0519 2.1421-.0613.0458-.0225.1151-.0396.2074-.0512.0918-.0108.1842-.0278.2765-.0506.1842-.022.3051-.0449.363-.0679.0573-.0224.1438-.0686.2595-.1371.0919-.0456.1733-.1317.2428-.2583.0695-.126.1045-.2469.1049-.3623.0004-.0918-.005-.2359-.0157-.4319-.0112-.1954-.0218-.3973-.0323-.6046-.0111-.2073-.0219-.3915-.0325-.5528-.0113-.1609-.0164-.2646-.0162-.311l.0009-.2418c0-.0227.0573-.0344.1728-.0339.0373.0002.0891.0003.1554.0006.0846.0002.1929.0006.3249.0011.0837.0003.1769.0006.2797.001.2532.0008.5008.0078.7426.02.2418.0127.4085.0187.5008.019.2299.0241.3971.036.5008.0364.1036.0003.2127-.0106.3283-.0333.23-.0219.4719-.0555.7258-.101.2533-.045.4029-.0903.4495-.1366l.1387-.1377c.046-.0457.0921-.1146.139-.2067.0924-.1837.1619-.2986.2085-.3447.0459.0001.0692-.0456.0695-.138.0002-.0594-.0158-.0817-.0448-.0739.0046-.0648.0095-.1446.0147-.2394-.0183-.0054-.0273-.0154-.0272-.03.0001-.0459-.0116-.0691-.0342-.0691-.0464-.0229-.0344-.0694.0349-.1382l.0344.0691.001-.001c.0146-.2909.0314-.6841.0503-1.1791.0069-.004.0116-.0128.0116-.0308l.0693-.069.0693-.0341-.1452-.0006c.0012-.03.0023-.0601.0034-.0905l.0044-.1167c.0019-.5296.0035-.9613.0047-1.2955.0012-.3335-.0038-.6046-.0144-.8118-.0111-.2073-.0391-.3682-.0846-.4839-.046-.1153-.1028-.2191-.1716-.3115-.0688-.0694-.1264-.1214-.1721-.1562-.0464-.0346-.1499-.0868-.3104-.1565-.207-.0925-.3451-.093-.4145-.0015.0228-.0457-.0171-.0693-.1208-.0696-.1035-.0003-.3745.0333-.812.1008-.0924.0228-.2419.0396-.4492.0502-.2073.0111-.4147.0158-.6219.015-.3228.022-.6512.0494-.9849.0828-.3342.0333-.5475.0731-.6395.1185-.0464.023-.0577-.0115-.0341-.1037l.0009-.2417c.0002-.046-.0116-.0692-.0343-.0694-.0231-.0226-.0344-.0632-.0342-.1209.0002-.0572.0118-.0977.035-.1208.0228.0001.0347-.0458.0351-.138l.0004-.1037.3891.0015c.0787.0003.1739.0006.2845.001l.0595.0002c-.017-.0004-.031-.0118-.0422-.0347-.023-.046-.0228-.0805.0004-.1037.0228-.0225.0572-.011.1035.035.0225.0464.0225.081-.0003.1037l.0001-.0346c-.023.0228-.0429.0341-.06.0343.0078 0 .0154.0001.0229.0001.0119 0 .0239.0001.037.0002.23.0008.4604-.0038.6909-.0149.23-.0106.4373-.0156.6218-.0151l.3455.0014.6217.0022c.1384.0005.2765-.0044.4147-.0158.1383-.0108.2299-.0164.2764-.0163.1384-.0453.3111-.0679.5184-.0671.1382.0004.311-.0102.5183-.0328.2073-.0218.4719-.0554.7949-.1007.115.0004.2418-.0218.3803-.0677.0225 0 .0459-.0052.0691-.017.0227-.0112.0459-.0171.0691-.0171l.0345.0002.1037.0003c.1382.0006.2421-.0563.3115-.1716.046-.0457.0692-.0455.0691.0003l-.0003.069c.0228.0002.0865-.0282.1902-.0856.1039-.0567.225-.1202.3635-.1886.1385-.0686.265-.1373.3808-.2059.1152-.0687.1845-.1143.2077-.1375.0461-.0456.0867-.08.1213-.1032.0347-.0225.0633-.0456.0866-.0687.0461-.0458.0922-.1146.139-.2068.0461-.0916.0923-.1604.1388-.2068.0461-.0456.0923-.1491.1394-.3104.0464-.1607.0928-.3105.1398-.4486.0465-.1838.0714-.6327.0739-1.3469l.0023-.6217c.0241-.3912.0372-.7082.038-.9498l.0043-1.192c.0002-.0458.0058-.0916.0177-.1379.0116-.0459.0176-.0805.0177-.1036.023-.115.0413-.3799.0547-.7944.0129-.4145.0199-.7133.0206-.8981l.2082-.2756.0048-1.3126c.0001-.0459-.023-.0918-.0687-.1384-.0462-.0228-.0462-.0348.0001-.0345.0459.0001.0693-.0172.0694-.0516zm-.3783 9.0493-.0344-.0347c.0226.0465.0397.0693.0517.0693.0112 0 .0054-.0228-.0171-.0692zm-3.7942 8.0004c.0223.0926.0454.1384.0686.1385l.0004-.1037c.0003-.0917-.0114-.1382-.0341-.1382-.0232-.0002-.0346.0344-.0349.1034zm-9.9986 4.2474c-.0002.0226.0111.0345.0344.0346.0226 0 .0346-.0117.0346-.0343.0001-.0228-.0118-.0346-.0344-.0348-.0232-.0001-.0346.0118-.0346.0345zm-2.7647-18.6984.0329.4142.0002-.0576c.0001-.0208.0002-.0417.0002-.0629.0005-.1264-.011-.2246-.0333-.2937zm.0283 1.6754c.0008-.1953.0015-.3854.0021-.57l.0018-.4997c.0002-.0621.0005-.1259.0007-.1912-.0457-.1843-.0675-.4375-.0663-.7602.0024-.6676-.0307-1.0709-.0993-1.2093-.0461-.092-.0683-.1957-.0679-.3112.0008-.2073-.0674-.4839-.2042-.8298-.137-.3459-.2743-.5996-.4118-.7615-.1151-.1153-.1952-.2192-.2407-.3118-.0461-.0919-.132-.2131-.2577-.3635-.1264-.15-.1894-.2022-.1896-.1563-.0001.0233-.0233.0346-.0691.0343-.0232 0-.0345-.0227-.0344-.0691.0003-.0691-.0572-.1384-.1719-.2079-.092-.0921-.1377-.1269-.1379-.1041-.0001.0463-.012.069-.0347.069-.0232-.0002-.0344-.0229-.0342-.0693.0001-.0459-.0231-.0459-.0692-.0002-.0465.0462-.0692.0461-.0691-.0002.0001-.0228-.023-.0347-.0689-.0348-.0465-.0003-.0578.0115-.0348.0344l.0345.0691c-.0234.0231-.0692-.0001-.138-.0695-.0689-.0694-.1151-.1267-.1375-.1733-.0462-.0692-.0343-.1038.0349-.1035l.1036-.0341-.0688-.0695c-.023-.0226-.0515-.046-.086-.0692-.0345-.0229-.0749-.0576-.1206-.1041-.0688-.0693-.224-.1504-.4654-.2436-.2415-.0927-.4432-.1511-.6039-.1748-.1846-.0235-.3399-.0412-.4662-.0536-.1267-.0118-.2589-.0182-.3972-.0186l-.5008-.0019c-.196-.0007-.4551.0102-.7774.0317-.1847.0226-.3455.0334-.4837.0328-.0698-.0002-.1278-.0004-.1741-.0006h-.0108c-.0401-.0002-.0706-.0003-.0915-.0003l-3.558-.013c-.2764-.0009-.524-.0073-.7426-.02-.2191-.0121-.3514-.0185-.3973-.0186-.0276-.0002-.0634-.0003-.1072-.0005l-.1-.0003c-.0923-.0003-.1959.0111-.3109.0335-.3689.0452-.5996.0788-.6914.1011-.0923.0228-.1616.0571-.2077.1028-.0465.0463-.0692.0463-.069-.0001 0-.0228-.0345-.0229-.1036-.0005-.0466.023-.0984.0461-.1558.0685-.0578.0231-.1097.046-.1556.0686-.1157.046-.2716.1544-.4676.3265-.1965.172-.318.3157-.3642.4304-.0467.0689-.1041.1265-.1733.1723-.0926.0459-.2025.1318-.3291.2577-.1273.1264-.2142.2357-.2603.3272-.0235.0465-.0928.1266-.2082.241-.0693.0691-.1042.1266-.1043.1725-.0001.0463-.0348.1035-.1042.1723-.116.1377-.2028.2471-.2603.3272-.058.0808-.1103.1782-.1565.2931-.0928.161-.1972.3566-.3129.5861-.1165.2301-.1741.3566-.1742.3794-.0001.0232-.0235.0808-.0697.1724-.0468.0922-.0696.1611-.0698.2071-.0002.0464-.0236.0923-.0697.138-.04654.0461-.06938.092-.06949.1378-.00011.0233-.02354.1035-.06996.2415-.04692.138-.07003.2416-.07024.3108-.00033.0689-.02371.1499-.06997.2414-.04676.0922-.09919.288-.15758.5868-.05888.2994-.10017.5178-.12322.6558l-.00194.5527c-.00044.0923-.00688.2364-.01895.4318-.01255.1959-.03057.3858-.05389.5698-.02376.1612-.04156.3053-.05336.4316-.01228.1266-.01834.2882-.01905.4835-.00036.1111-.00082.2351-.00132.372l-.00122.3362c-.00075.2137-.00173.4827-.00292.8067l-.00108.2987c-.0045 1.2435-.00249 2.1881.00703 2.8326.00898.645.03593 1.0942.08144 1.3475-.00011.0465.00498.1328.01634.2592.01088.1268.01645.2478.01607.3628-.00108.2995.02084.4723.06711.5183.02246.0465.03896.2712.04935.6738.00996.4032.01385.9387.01147 1.6064-.00097.2763.00985.4265.03296.4491.0224.0466.02229.0811-.00038.1037-.02327.0231-.03529.1845-.03637.4835.04427.4612.08929.6913.13572.6914.04589.0001.04583.0234-.00022.069-.06948.1154-.04729.2304.06781.3458.04567.0466.06877.1038.0685.1729-.0001.0241.00552.0568.01375.0933.00016.0069.00162.0136.00481.0206.01651.0657.04346.1473.08377.2493.06845.1729.13693.3059.20583.3979.0455.0925.0685.1504.0684.1729-.0001.0466.0224.0693.0689.0695.0458.0002.069.0233.0688.0693l-.0002.069c-.0001.0233.0224.0466.0688.0695.0225.0232.0516.0464.0861.0693.0345.0233.0742.058.1205.1042.1834.1852.2981.2773.3444.2775.0227 0 .0804.0235.1725.0697.0917.0467.1493.0697.1725.0697.0227.0001.057.0234.1033.0694.0227.0234.0916.0581.2069.1045.1148.0468.2355.099.3622.1567.1261.0582.2527.1046.3795.1395.1261.035.2125.0527.2588.0528.0459.0002.1382.0237.2762.0701.1148.0468.2529.0819.4142.1051.1607.0239.2643.0356.3107.0357.0459.0002.069.0121.0689.0348 0 .0232.0458.0346.1382.035.069.0003.1261.0237.1724.0697.0225.0234.1493.0584.3795.1051.0918.0235.1899.0412.2935.0527.1036.0123.178.03.2244.0527.1607.0239.253.0242.2763.001-.0234.0464.0111.0811.1032.1041.0917.0235.2071.0472.3452.0703.115.0004.2186.024.3107.0703.0916.0468.1951.0696.3107.0702.0458.0001.109.0062.1899.0179.0804.0122.1435.0177.1899.018.0917.0234.2245.0354.3971.0359.1728.0007.3568-.0041.5528-.0152.1955-.0106.3628-.0214.501-.0329.1382-.0107.2188-.0277.242-.0508.0461-.0457.1611-.0686.3457-.0679.184.0007.3682-.0212.5529-.067.1843-.0453.3571-.0677.5184-.0672.1609.0005.311-.0216.4494-.0675.1383-.0454.2765-.068.4148-.0676.1149.0004.2186-.0218.3111-.0679.046-.0226.1038-.0342.1728-.034.046.0003.1323-.0168.2592-.0508.1265-.0342.2594-.0796.3979-.1368.1383-.0567.2707-.12.3979-.1885.1265-.0687.2132-.1255.2596-.1718.0695-.0689.15-.1257.2425-.1719.092-.0455.1959-.1256.3118-.2405.1154-.1147.2193-.1947.3117-.2408.046-.0226.104-.0687.1732-.1376l.2428-.2409c.1612-.1145.2772-.252.3469-.4133.0461-.069.0869-.1491.1218-.2414.0349-.0916.0638-.1605.0871-.2069.0461-.0915.11-.2759.192-.552.0814-.2761.1805-.6212.2974-1.0353.0228-.0458.0402-.0916.0523-.138.0115-.0458.0289-.0916.0523-.1379.0464-.1148.0927-.2416.1395-.3794l.0701-.2761c.0002-.0227.0231-.1036.07-.2417.0464-.138.0699-.2182.0699-.2416.0001-.0225.0231-.1035.07-.2415.0229-.0457.0464-.1148.0698-.2069.0231-.0918.0466-.1726.07-.2416.0465-.1839.0703-.3106.0706-.3798l.0003-.1035c.0459.0001.0924-.1726.1399-.5178.023-.0457.0405-.1207.0528-.2243.0116-.1037.0292-.1899.0527-.2589.0467-.2297.0706-.4144.0711-.5524.0242-.4372.083-.7132.1758-.8284.0462-.0917.0697-.1953.0701-.3107l.0009-.2419c.0461-.0689.0812-.2243.1053-.4658.0236-.2418.0242-.3973.0016-.4665-.0227-.0918-.0225-.1495.0007-.1726.046-.0458.0695-.0917.0697-.138.024-.3913.0373-.8057.0389-1.2436.0016-.437-.0093-.7254-.0313-.8636l.0011-.3108c.0005-.1382.0065-.311.019-.5182.0079-.1342.0158-.2707.0238-.4097.0024-.0418.0048-.0838.0072-.1261.002-.0342.004-.0685.006-.103.012-.2186.0188-.4259.0195-.6218.0004-.1056.0007-.1994.001-.2817.0003-.07.0005-.1315.0007-.1846.0012-.3223.0131-.495.0364-.5181.0228-.0457.0352-.1665.0358-.3626zm-3.4278-7.3185c.0002-.0459-.0117-.0691-.0344-.0692l-.0005.1383.0347.0001z"/></g></g></svg>