<svg fill="none" height="26" viewBox="0 0 27 26" width="26" xmlns="http://www.w3.org/2000/svg"><path d="m4.5099 11.9487c.11358.0217.16989.0546.16989.0987 0 .0877.04568.132.1358.132.09135.0432.11381.0875.06807.1319h-.06807c-.09012.0875-.22615.0759-.40768-.0332-.1804-.1101-.22626-.2088-.13591-.2965.04574-.0443.12539-.0556.2379-.0329zm-.64569-.2636c-.04449.0214-.09023-.0329-.13585-.1647v.066c-.04467-.1762-.02222-.2865.06796-.3299.09129-.0441.13597 0 .13597.1321 0 .1751-.02234.2738-.06808.2965zm-.13585 2.3066c-.09029.0659-.15836.099-.20386.099l-.06814.0658c-.04443 0-.04443-.0444 0-.1318.04586-.0885.09154-.1543.13621-.1977.18141-.0887.27164-.0887.27164 0 0 .0434-.04449.0989-.13585.1647zm-.61171-3.1962c-.30388.2945-.37637.7604-.67961 1.0543.09135 0 .13603.0217.13603.066 0 .0875.02328.1316.06789.1316.0913.0434.0679.132-.06789.2639l-.06807-.1319c-.04763.0463-.08397.0666-.11488.0748-.03593.5156-.08072 1.5266-.13425 3.0297.02162-.0121.05814.0047.11327.0587v.132c0 .0431-.02239.0658-.06807.0658h-.05431c-.03321.9548-.01358 1.9118-.01358 2.8671 0 .7773-.09897 1.732.20386 2.4711.42491 1.0208 1.10048 1.0004 2.06296 1.1211 2.15541.2701 5.5162-.1167 7.2478-.0006h11.4176c0-1.1976.0678-2.394.0678-3.5916 0-2.6128.0501-5.2307-.0338-7.8427-.0246-.79015-.17-1.58483-.17-2.37268 0-.76871.2371-1.50802.0679-2.27354-.0446-.35236-.2719-.70345-.6796-1.05455-.5552-.27128-.7738-.53188-1.4611-.56013-.8573-.03747-1.6264-.09208-2.4806-.2307-1.8728-.12976-4.6613-.27721-6.3883.72482-.1806.08745-.3399.25219-.4757.49441-.136.2409-.2041.4716-.2041.69193 0 1.3637.2041 2.7208.2041 4.08604 0 .1708-3.00929.046-3.29632.0329-1.36489-.0653-2.68894-.0754-4.04368.1647-.49892.0879-.80386.1864-1.15535.5275z" fill="currentColor"/></svg>