<svg fill="none" viewBox="0 0 150 200" xmlns="http://www.w3.org/2000/svg"><g fill="#fff"><path d="m58.1317 96.33 1.1159.0071h.0156c11.4284-.0227 20.677-9.3045 20.6545-20.7342l-.0783-41.2315-7.4541.0142.0783 41.2315c.0145 7.3068-5.8942 13.2434-13.2005 13.2659l-11.4495-.0736h-.0156c-7.3118.0145-13.2509-5.9022-13.2647-13.2148l-.0792-41.2317-7.4541.0144.0792 41.2314c.0216 11.4233 9.295 20.6687 20.7172 20.6548l2.8813.0186-.1855 69.8159 7.4541.019z"/><path d="m42.9863 71.7761.1351-37.4253 7.4541.0269-.1351 37.4253z"/><path d="m56.9417 34.3244-.1351 37.4253 7.4541.0269.1351-37.4253z"/><path clip-rule="evenodd" d="m92.4162 166.114 7.4541-.014-.0901-47.144 23.6808-.046-.066-34.2724c-.036-19.3743-8.482-37.7785-23.147-50.4403-3.1709-2.7376-8.0847-.4764-8.0769 3.7068z" fill-rule="evenodd"/></g></svg>