<svg fill="none" height="254" viewBox="0 0 260 254" width="260" xmlns="http://www.w3.org/2000/svg"><path d="m147.913 111.142-32.127-23.7578-33.2614 23.7578-33.2996-24.6245 33.8591-25.7445 31.6209 25.675 33.768-25.675 32.74 26.5838zm65.851-56.5411c-19.247-23.3934-29.25-35.2722-47.846-44.193-8.652-4.15114-30.888-13.31858-58.802-9.495165-19.9409 2.731395-33.8154 10.866365-44.5581 17.164865-9.4144 5.5199-23.9858 14.0631-36.5222 29.9494-17.96371 22.764-21.06783 47.069-24.10542 70.854-1.546744 12.109-4.05033 33.134 1.46108 59.533 3.67761 17.613 6.82454 32.687 17.89624 46.019 18.6925 22.51 47.8773 25.484 73.7768 28.122 45.7316 4.66 80.5756-9.088 96.7856-15.704 24.466-9.988 39.587-16.16 51.862-32.505 23.915-31.846 14.684-72.55 12.418-82.542-5.106-22.5116-17.799-37.3438-42.366-67.2031z" fill="#2c2522"/><path d="m82.5239 79.5224c-3.5546 0-6.436 2.8815-6.436 6.4361s2.8814 6.436 6.436 6.436 6.4361-2.8814 6.4361-6.436-2.8815-6.4361-6.4361-6.4361z" fill="#000"/><path d="m154.349 85.956c0 3.5545-2.881 6.436-6.436 6.436s-6.436-2.8815-6.436-6.436c0-3.5546 2.881-6.4361 6.436-6.4361s6.436 2.8815 6.436 6.4361zm-71.8248 6.436c-3.5546 0-6.436-2.8815-6.436-6.436 0-3.5546 2.8814-6.4361 6.436-6.4361s6.4361 2.8815 6.4361 6.4361c0 3.5545-2.8815 6.436-6.4361 6.436zm32.1798-5.9458-31.6203-25.6749-33.8591 25.7442 33.2996 24.6255 33.2618-23.7586 32.127 23.7586 33.3-23.7859-32.741-26.5838z" fill="#fafafa"/><path d="m141.477 85.9585c0 3.5546 2.881 6.436 6.436 6.436 3.554 0 6.436-2.8814 6.436-6.436s-2.882-6.4361-6.436-6.4361c-3.555 0-6.436 2.8815-6.436 6.4361z" fill="#000"/></svg>