<svg width="300" height="300" viewBox="0 0 300 300" fill="none" xmlns="http://www.w3.org/2000/svg">
<path d="M74.2227 188.391C74.2227 188.513 74.256 188.573 74.3254 188.574C74.464 188.574 74.5334 188.453 74.5334 188.208C74.5334 187.965 74.4987 187.843 74.4307 187.843C74.3613 187.843 74.3267 187.965 74.3267 188.208L74.2227 188.391ZM72.9333 122.003C73.0013 122.003 73.0374 121.882 73.0374 121.637C73.0374 121.393 73.0027 121.27 72.9333 121.27C72.864 121.27 72.8293 121.393 72.8293 121.636C72.8293 121.882 72.864 122.003 72.9333 122.003ZM71.032 157.481C71.1 157.481 71.136 157.42 71.136 157.297C71.136 157.177 71.1013 157.115 71.032 157.115C70.9626 157.115 70.928 157.177 70.928 157.297C70.928 157.42 70.9626 157.481 71.032 157.481ZM67.0307 104.989C67.0307 104.745 66.9613 104.502 66.824 104.257C66.684 104.014 66.58 104.014 66.512 104.257C66.4426 104.502 66.4413 104.745 66.512 104.988C66.58 105.235 66.6667 105.354 66.7707 105.354C66.8747 105.354 66.9267 105.235 66.9267 104.989H67.0307ZM66.788 143.212C66.9267 143.092 66.9267 142.909 66.788 142.663C66.6493 142.42 66.408 142.297 66.0627 142.296C65.7853 142.296 65.6813 142.419 65.7507 142.661C65.8187 142.908 65.9067 143.15 66.0094 143.393C66.1134 143.64 66.1987 143.64 66.2694 143.393C66.2694 143.274 66.3733 143.211 66.58 143.212H66.996H66.788ZM65.344 133.884C65.4813 134.129 65.5507 134.007 65.5507 133.517L65.552 133.152C65.4813 133.152 65.4293 133.244 65.396 133.427C65.36 133.609 65.3773 133.763 65.448 133.884H65.344ZM63.5253 192.588C63.6626 192.833 63.7333 192.771 63.7333 192.405C63.7333 192.284 63.6973 192.222 63.6293 192.222C63.56 192.222 63.5253 192.284 63.5253 192.404V192.588ZM62.6453 132.052C62.8533 132.052 62.8173 131.932 62.5426 131.685C62.4026 131.442 62.2653 131.32 62.1266 131.32C62.0573 131.442 62.076 131.594 62.1786 131.777C62.2826 131.96 62.4026 132.052 62.5426 132.052H62.6453ZM60.1907 91.4491C60.1213 91.4491 60.0867 91.5719 60.0867 91.8145C60.0867 91.9372 60.1213 91.9971 60.1907 91.9985C60.2587 91.9985 60.2947 91.8772 60.2947 91.6332L60.1907 91.6318V91.4491ZM60.408 194.962C60.4774 194.842 60.4253 194.688 60.2533 194.505C60.08 194.321 59.9587 194.293 59.8893 194.413C59.82 194.536 59.8373 194.688 59.9413 194.871C60.0453 195.053 60.1654 195.145 60.304 195.145C60.4427 195.145 60.512 195.085 60.512 194.962H60.408ZM56.656 98.0305C56.7227 98.0305 56.7587 98.0931 56.7587 98.2131C56.7587 98.0931 56.7933 98.0305 56.8626 98.0305H56.656ZM55.892 137.532L56.4106 138.081C56.8266 138.328 56.964 138.448 56.8267 138.448H56.6187H56.9294C57.1374 138.448 57.2053 138.328 57.1387 138.081C57.068 137.716 56.8267 137.473 56.412 137.351L55.892 137.532ZM55.184 117.597C55.1147 117.477 55.08 117.537 55.08 117.78C55.08 118.025 55.148 118.147 55.288 118.147H55.4946L55.184 117.597ZM55.0973 99.3092C54.9573 99.5545 54.888 99.7372 54.888 99.8572H55.096C55.2347 99.8572 55.304 99.7371 55.304 99.4918C55.304 99.2491 55.2347 99.1892 55.0973 99.3092ZM52.9827 141.736C52.8427 141.736 52.808 141.799 52.8774 141.919L53.0854 142.285V141.919C53.0854 141.799 53.0493 141.736 52.9827 141.736ZM51.9854 96.5624C51.7067 96.5624 51.6373 96.6852 51.776 96.9278C51.844 97.0505 51.932 97.0824 52.036 97.0198C52.14 96.9598 52.192 96.8091 52.192 96.5624C52.192 96.3198 52.088 96.1972 51.8813 96.1972L51.9854 96.5624ZM57.544 148.689C57.544 147.715 57.5453 147.136 57.5453 146.953C57.5453 146.769 57.476 146.557 57.3387 146.312C57.0614 145.58 56.4734 145.03 55.5747 144.665C55.0894 144.544 54.6747 144.297 54.3293 143.932C54.052 143.689 53.8786 143.565 53.8106 143.565C53.6706 143.565 53.464 143.445 53.188 143.198C52.496 142.59 51.8026 142.466 51.112 142.832L50.2813 143.562C50.004 143.685 49.8987 143.991 49.968 144.476L49.9666 146.122C49.9666 146.733 50.0334 147.525 50.172 148.5C50.3094 149.477 50.3787 150.146 50.3787 150.512C50.4453 151.124 50.8613 151.49 51.6226 151.61C52.4533 151.857 52.9733 152.04 53.18 152.161H54.1147C54.3213 152.161 54.5813 152.193 54.8933 152.253C55.204 152.317 55.464 152.345 55.6707 152.345C56.2253 152.469 56.5533 152.501 56.6573 152.439C56.7613 152.379 56.8827 152.044 57.0213 151.432C57.0907 151.067 57.1426 150.641 57.1786 150.153C57.2133 149.666 57.232 149.054 57.232 148.324L57.544 148.689ZM50.3907 136.796C49.976 136.429 49.768 136.309 49.768 136.429C49.768 136.674 49.784 136.979 49.82 137.344C49.8533 137.709 49.9054 137.892 49.9747 137.892C49.9747 137.773 50.0094 137.709 50.0787 137.711C50.216 137.711 50.3547 137.65 50.4933 137.528L51.0133 137.345L50.3907 136.796ZM49.5413 158.009V157.826C49.5413 157.706 49.5053 157.644 49.4373 157.644C49.368 157.644 49.3333 157.706 49.3333 157.826V158.009H49.5413ZM49.0213 158.374C49.0893 158.374 49.1253 158.314 49.1253 158.192C49.1253 158.072 49.056 158.009 48.9173 158.009V158.192C48.9173 158.314 48.9853 158.374 49.1253 158.374H49.0213ZM48.5347 123.26C48.672 123.26 48.7427 123.141 48.7427 122.894V122.529C48.604 122.529 48.5347 122.652 48.5347 122.894C48.5347 123.141 48.568 123.26 48.6374 123.26H48.5347ZM48.2107 136.245C48.1414 136.245 48.1067 136.308 48.1067 136.428C48.1067 136.55 48.1414 136.61 48.2107 136.61V136.245ZM44.0493 145.385C44.1186 145.265 44.1187 145.082 44.0507 144.837C43.912 144.594 43.8254 144.502 43.7907 144.562C43.7547 144.625 43.7734 144.777 43.8427 145.02C43.8427 145.142 43.876 145.142 43.9467 145.02L44.0493 145.385ZM37.3707 183.785C37.4387 183.785 37.4747 183.725 37.4747 183.602C37.4747 183.482 37.4387 183.42 37.3707 183.42C37.3014 183.42 37.2667 183.482 37.2667 183.602C37.2667 183.725 37.3014 183.785 37.3707 183.785ZM34.144 78.4412C34.1426 79.0518 34.2813 79.0518 34.56 78.4412C34.6973 78.0758 34.6986 77.8332 34.56 77.7092C34.3533 77.5892 34.248 77.8318 34.248 78.4412H34.144ZM34.4613 185.977C34.392 185.977 34.3226 185.917 34.2546 185.795C34.0466 185.673 33.9427 185.491 33.944 185.245C34.012 185.003 33.9773 184.942 33.84 185.062C33.7 185.185 33.684 185.399 33.7867 185.703C33.8907 186.008 34.0107 186.223 34.1493 186.343C34.4253 186.467 34.6 186.467 34.6694 186.343L34.4613 185.977ZM33.7147 93.9851C33.7147 94.1091 33.8 94.1679 33.9747 94.1679C34.1454 94.1692 34.268 94.1091 34.3373 93.9864C34.3387 93.8664 34.372 93.8664 34.4413 93.9864C34.5093 94.1091 34.5453 94.0491 34.5453 93.8038L34.5466 93.2545L34.1307 93.6199C34.06 93.7425 33.9907 93.8025 33.9227 93.8025C33.8534 93.8025 33.8187 93.8664 33.8187 93.9851H33.7147ZM33.7253 82.6466C33.656 82.6466 33.6213 82.5865 33.6213 82.4638C33.6213 82.5865 33.5853 82.6466 33.5173 82.6466H33.7253ZM33.5027 99.6545C33.5707 99.5345 33.6054 99.2891 33.6067 98.9238C33.6067 98.6811 33.5373 98.6811 33.3987 98.9238C33.2587 99.1678 33.224 99.3799 33.2947 99.5639C33.3627 99.7466 33.4666 99.7772 33.6053 99.6545H33.5027ZM32.9906 91.2411C33.128 91.2411 33.1986 91.1812 33.1986 91.0585C33.1986 90.9385 33.1293 90.8158 32.9906 90.6931C32.8506 90.5731 32.7133 90.5731 32.576 90.6931C32.7133 90.6931 32.784 90.8158 32.7826 91.0585C32.7826 91.3038 32.8506 91.4237 32.9906 91.4237V91.2411ZM30.6174 189.265L30.5146 188.9C30.444 188.78 30.4107 188.78 30.4093 188.9C30.4093 189.265 30.4774 189.328 30.6174 189.082V189.265ZM46.0334 67.1838L47.1867 67.1078C47.6227 67.0545 49.7347 67.0811 50.9133 67.0824L52.6387 67.1158C53.8853 66.9971 55.1427 67.4104 56.2293 67.3891C56.8267 67.3758 58.3507 67.6397 58.916 67.6877C59.172 67.7091 59.7 67.8372 60.0466 67.8372C60.184 67.8372 60.6533 68.0319 60.7933 68.0932C60.9306 68.1559 61.196 68.3477 61.2653 68.3477C61.3346 68.3491 61.3534 68.3732 61.492 68.4332C61.6307 68.4959 61.6507 68.4612 61.7907 68.4612C62.136 68.4625 62.2293 68.7172 62.5986 68.7172C62.8533 68.7172 63.2787 69.1184 63.4347 69.2558C63.6067 69.4064 64.1547 70.4838 64.5693 70.9705C64.9853 71.4598 65.296 71.7026 65.504 71.7026C65.78 71.9492 66.1946 72.4972 66.748 73.3492C66.816 73.4732 66.904 73.5957 67.008 73.7157C67.1106 73.8384 67.2306 74.0226 67.3693 74.2652L67.7853 74.9959L67.888 75.1798C67.956 75.3024 68.008 75.4252 68.044 75.5452C68.0774 75.6678 68.1293 75.7919 68.1987 75.9119C68.544 76.5239 68.8373 77.1012 69.08 77.6492C69.3213 78.1985 69.4773 78.5958 69.5466 78.8385C69.5466 78.9611 69.684 79.2678 69.96 79.7532C70.168 80.1198 70.34 80.5478 70.4787 81.0344C70.5467 81.2798 70.616 81.5545 70.6853 81.8572C70.7533 82.1625 70.8573 82.4371 70.996 82.6811C71.1333 82.9264 71.2373 83.2012 71.3066 83.5038C71.3746 83.8092 71.444 84.0839 71.5133 84.3279C71.6507 84.8159 71.7546 85.1211 71.824 85.2424C71.9613 85.4878 72.0987 86.0358 72.2387 86.8878C72.3054 87.6198 72.4454 88.2918 72.652 88.8998C72.7894 89.3892 72.8587 89.9371 72.8573 90.5465C72.8573 91.1585 72.9253 91.5838 73.064 91.8264C73.2013 92.0731 73.2707 92.7411 73.2707 93.8385L73.268 96.5824C73.2667 97.1931 73.3346 97.8625 73.4733 98.5932C73.8173 100.423 73.92 101.584 73.7813 102.069C73.7813 102.192 73.8494 102.862 73.988 104.081C74.056 104.692 74.0907 105.209 74.0894 105.635C74.0894 106.064 74.0894 106.399 74.0894 106.641C74.088 107.373 74.156 107.921 74.296 108.288C74.4333 108.653 74.5026 109.142 74.5013 109.75C74.5013 110.362 74.5334 112.068 74.6 114.872L74.5986 116.884C74.6666 117.372 74.7174 118.378 74.752 119.901C74.784 121.426 74.8013 123.009 74.8 124.656C74.7986 126.303 74.7973 127.765 74.796 129.045C74.7946 130.325 74.7587 130.965 74.6894 130.965V131.332C74.7574 131.453 74.8093 131.82 74.844 132.429C74.8773 133.04 74.8947 133.649 74.8947 134.257L74.8853 143.95C75.092 145.78 75.1253 146.817 74.9867 147.06C74.9173 147.182 74.8827 147.305 74.8827 147.425L74.88 150.534C74.8773 152.852 74.84 154.192 74.772 154.557C74.632 155.047 74.564 155.412 74.5627 155.655C74.5627 156.02 74.528 156.266 74.4587 156.386C74.4587 156.632 74.3893 157.117 74.2507 157.849L74.872 158.581C74.732 159.436 74.5933 159.984 74.456 160.226C74.248 160.592 74.144 160.899 74.1427 161.141C74.212 161.387 74.1253 161.813 73.8827 162.421C73.6387 163.032 73.3454 163.641 72.9987 164.249C72.8587 164.614 72.7027 164.952 72.5307 165.254C72.356 165.56 72.2347 165.835 72.1667 166.077C72.0267 166.443 71.8546 166.748 71.6466 166.99C71.4386 167.237 71.3346 167.418 71.3346 167.54C71.3346 167.785 71.2307 167.905 71.0227 167.905C70.884 167.905 70.5373 168.15 69.984 168.636C69.4973 169.246 69.1866 169.549 69.0493 169.549C68.9786 169.549 68.7374 169.795 68.3214 170.28C67.9054 170.768 67.6613 171.01 67.5933 171.01C67.3867 171.01 67.42 171.316 67.6973 171.925C67.972 172.415 68.664 173.147 69.7707 174.121C70.116 174.488 70.4974 174.945 70.912 175.495C71.3267 176.044 71.8453 176.806 72.4666 177.782C73.6413 179.612 74.2627 180.956 74.332 181.807C74.332 181.931 74.4 182.479 74.5387 183.453C74.8827 185.528 75.0533 187.175 75.052 188.391C75.052 188.757 75.12 189.552 75.2587 190.769L75.4653 192.416L75.152 193.512C74.804 194.732 74.3693 195.63 73.7533 195.965C73.3547 196.181 73.1054 196.115 72.9227 196.197C72.6414 196.164 72.3947 195.995 72.3254 196.115C72.256 196.237 71.8907 196.164 71.5787 196.164C71.2667 196.164 70.8266 196.125 69.72 196.247C68.3346 196.367 66.98 196.384 65.804 196.447C64.6254 196.505 63.3013 196.598 62.816 196.38C62.4373 196.209 62.1374 195.815 61.2387 195.328C60.4774 194.963 60.028 194.658 59.8893 194.413C59.7507 194.169 59.6467 194.046 59.5787 194.046C59.3707 194.046 59.06 193.804 58.6453 193.315C58.5053 193.072 58.2987 192.948 58.0227 192.948C57.3294 192.704 56.8453 191.973 56.5706 190.752C56.432 190.267 56.364 189.96 56.364 189.837C56.364 189.717 56.2946 189.289 56.1573 188.557C56.0186 188.072 55.8813 187.642 55.744 187.276C55.604 187.033 55.3106 186.361 54.8626 185.264C54.4133 184.166 54.0507 183.252 53.7747 182.52C53.4987 181.788 53.188 181.119 52.8427 180.508C52.5667 179.899 52.3067 179.259 52.0653 178.587C51.8227 177.917 51.5306 177.155 51.1853 176.3L50.7707 175.201L50.764 182.882C50.8293 186.421 50.8107 188.766 50.7053 189.924C50.6013 191.084 50.3054 191.966 49.8214 192.574C48.8494 193.794 48.6254 194.596 48.488 194.473C48.348 194.473 48.0467 194.628 47.9093 194.871C47.7693 195.116 47.408 195.234 47.132 195.234C46.8547 195.234 46.1014 195.401 44.7174 195.4C43.8867 195.398 43.4226 195.518 42.9733 195.456C42.5213 195.394 42.084 195.472 41.808 195.472C41.5307 195.472 41.1333 195.428 40.788 195.488C40.4413 195.551 39.94 195.537 39.316 195.536C38.6933 195.536 38.1466 195.358 37.7306 195.358C37.316 195.358 37.18 195.39 36.9867 195.374C36.6787 195.326 36.5653 195.326 36.2266 195.31C35.9226 195.296 35.5533 195.464 34.792 195.4C34.0293 195.34 33.4227 195.072 33.2853 194.826C33.216 194.705 32.5987 194.516 32.1973 194.113C31.7253 193.639 31.1853 193.106 30.6667 192.374C30.148 191.642 29.82 190.851 29.6827 189.996C29.544 189.021 29.6134 188.656 29.8907 188.899C30.1667 189.145 30.1333 188.963 29.788 188.351C29.648 188.107 29.5453 187.833 29.4773 187.526C29.408 187.224 29.4413 187.071 29.5813 187.071C29.6493 187.071 29.6493 187.009 29.5813 186.888C29.512 186.766 29.4787 186.461 29.4787 185.973V185.059L29.48 183.777C29.5493 182.804 29.5867 181.92 29.5867 181.127C29.588 180.335 29.5533 178.904 29.4867 176.828C29.488 175.611 29.4707 174.605 29.4373 173.81C29.4027 173.018 29.3867 172.228 29.388 171.433C29.388 170.641 29.372 169.728 29.3387 168.689C29.304 167.656 29.2894 166.221 29.2907 164.392C29.292 162.687 29.2747 161.254 29.2427 160.094C29.208 158.937 29.192 158.297 29.192 158.173L29.1973 152.871C29.1987 150.433 29.184 148.269 29.1506 146.377C29.1173 144.489 29.0667 142.569 29 140.617L29.0094 130.924C29.012 127.877 29.0146 125.802 29.0146 124.706C29.016 123.609 29.0507 123 29.1213 122.877C29.188 122.757 29.2413 122.209 29.2773 121.232C29.312 120.257 29.332 119.282 29.332 118.305L29.3333 117.573C29.3333 117.088 29.3506 116.416 29.3866 115.562C29.4213 114.71 29.456 113.856 29.4933 113.001C29.528 112.151 29.58 111.113 29.652 109.893L29.548 109.526C29.4787 109.161 29.48 108.064 29.5507 106.236C29.62 105.504 29.6733 104.254 29.7093 102.486C29.7453 100.72 29.3854 99.2424 29.388 97.5344L29.3333 92.6877C29.4013 92.2011 29.3013 89.6079 29.3027 89.1199C29.3027 88.6332 29.3027 88.0544 29.304 87.3824C29.304 86.7144 29.3387 86.0105 29.4093 85.2799C29.4787 83.8159 29.532 82.5077 29.5693 81.3477C29.604 80.1904 29.656 79.4906 29.7266 79.2439C29.7946 79.0012 29.8467 78.5438 29.884 77.8731C29.9174 77.2038 29.9707 76.4412 30.0413 75.5865C30.1107 73.5145 30.7746 72.4331 30.88 71.7625C30.984 71.0931 31.2453 70.4545 31.66 69.8425C32.0067 69.2345 32.456 68.8372 33.0107 68.6558C33.564 68.4732 34.8907 67.9158 35.3467 67.8505C36.1 67.7425 36.5386 67.5904 36.9106 67.5691C37.3933 67.5398 38.2427 67.4918 38.576 67.5172C38.8773 67.5398 38.9453 67.5426 39.396 67.5426C39.8453 67.5439 40.416 67.4652 40.8306 67.4666L42.932 67.3385C43.6933 67.3385 44.4454 67.1492 45.0334 67.2105" fill="#212322"/>
<path d="M119.023 98.9801C118.851 99.5068 118.766 99.5068 118.766 98.9801C118.766 98.8761 118.707 98.7188 118.592 98.5081C118.478 98.2988 118.507 98.1934 118.679 98.1934C118.851 98.1934 119.023 98.2988 119.195 98.5081L119.023 98.8227V98.9801ZM118.335 125.26V124.788C118.278 124.579 118.219 124.473 118.163 124.473C118.106 124.473 118.077 124.579 118.077 124.788C118.077 125 118.106 125.157 118.163 125.26C118.219 125.367 118.25 125.367 118.25 125.26H118.335ZM117.647 101.34C117.589 101.34 117.56 101.289 117.56 101.183C117.56 101.289 117.531 101.34 117.475 101.34H117.647ZM116.872 97.4067C116.815 97.4067 116.787 97.4601 116.787 97.5641C116.787 97.7748 116.815 97.8787 116.872 97.8787H116.959C116.959 97.6694 116.929 97.5641 116.872 97.5641V97.4067ZM117.045 98.9801C117.045 98.8761 117.015 98.8227 116.959 98.8227C116.843 98.8227 116.787 98.928 116.787 99.1374C116.73 99.3494 116.744 99.452 116.829 99.452C116.916 99.452 116.987 99.3494 117.045 99.1374V98.9801ZM116.615 102.285C116.615 102.076 116.585 101.971 116.528 101.971C116.413 101.971 116.356 102.127 116.356 102.441C116.356 103.072 116.413 103.072 116.528 102.441L116.615 102.285ZM114.98 122.9C115.095 123.32 115.152 123.215 115.152 122.585C115.152 122.376 115.123 122.324 115.067 122.428C115.009 122.533 114.98 122.691 114.98 122.9ZM113.69 125.732C113.747 125.732 113.747 125.629 113.69 125.417C113.632 125.209 113.562 125.079 113.475 125.024C113.39 124.973 113.347 125.051 113.347 125.26C113.347 125.575 113.432 125.732 113.604 125.732H113.69ZM112.315 136.433C112.428 136.433 112.486 136.381 112.486 136.276C112.486 136.173 112.456 136.119 112.4 136.119L112.315 136.276C112.315 136.381 112.343 136.433 112.4 136.433H112.315ZM110.593 96.9347C110.649 96.9347 110.68 96.8827 110.68 96.7773C110.68 96.6733 110.649 96.6201 110.593 96.6201C110.536 96.6201 110.508 96.6733 110.508 96.7773C110.508 96.8827 110.536 96.9347 110.593 96.9347ZM110.336 99.2948C110.336 99.1921 110.306 99.1374 110.25 99.1374C110.192 99.1374 110.164 99.1921 110.164 99.2948H110.336ZM108.701 192.141C108.757 192.247 108.873 192.299 109.045 192.299C109.217 192.299 109.304 192.247 109.304 192.141C109.304 192.037 109.231 191.959 109.088 191.905C108.944 191.853 108.844 191.88 108.787 191.984V192.141H108.701ZM109.045 103.387C109.16 103.177 109.218 102.968 109.218 102.757C109.218 102.441 109.074 102.285 108.787 102.285C108.672 102.285 108.672 102.496 108.787 102.915C108.902 103.335 109.016 103.44 109.131 103.229L109.045 103.387ZM108.874 189.308C108.758 189.308 108.687 189.363 108.659 189.465C108.63 189.571 108.672 189.623 108.787 189.623C108.902 189.623 108.959 189.52 108.959 189.308C108.959 189.1 108.902 188.993 108.787 188.993L108.874 189.308ZM108.444 192.613C108.558 192.613 108.615 192.561 108.615 192.456V192.299C108.5 192.299 108.444 192.352 108.444 192.456C108.444 192.561 108.472 192.613 108.53 192.613H108.444ZM108.444 130.611C108.444 130.508 108.413 130.453 108.357 130.453C108.3 130.453 108.271 130.508 108.271 130.611H108.444ZM108.099 130.139C108.099 130.349 108.128 130.429 108.185 130.375C108.241 130.323 108.3 130.192 108.357 129.981C108.529 129.667 108.529 129.509 108.357 129.509C108.185 129.509 108.099 129.721 108.099 130.139ZM108.014 128.251C108.07 128.251 108.099 128.199 108.099 128.093C108.099 127.989 108.07 127.936 108.014 127.936C107.955 127.936 107.927 127.989 107.927 128.093C107.927 128.199 107.955 128.251 108.014 128.251ZM107.67 131.24C107.783 131.24 107.841 131.188 107.841 131.083C107.841 130.98 107.812 130.925 107.755 130.925L107.67 131.083C107.67 131.188 107.697 131.24 107.755 131.24H107.67ZM107.67 183.328H107.755C107.755 183.119 107.726 183.013 107.67 183.013C107.611 183.013 107.583 183.068 107.583 183.171C107.583 183.383 107.611 183.485 107.67 183.485V183.328ZM107.583 98.1934C107.526 98.1934 107.497 98.2988 107.497 98.5081C107.497 98.6135 107.526 98.6654 107.583 98.6654C107.639 98.6654 107.67 98.5627 107.67 98.3507C107.67 98.2481 107.639 98.1934 107.583 98.1934ZM107.67 126.519C107.783 126.519 107.841 126.416 107.841 126.204C107.841 125.996 107.812 125.889 107.755 125.889C107.697 125.889 107.67 125.787 107.67 125.575C107.67 125.472 107.639 125.417 107.583 125.417C107.467 125.417 107.411 125.575 107.411 125.889C107.411 126.204 107.467 126.361 107.583 126.361L107.67 126.519ZM107.239 96.3053C107.239 96.516 107.296 96.5681 107.411 96.4627C107.525 96.3587 107.611 96.2014 107.67 95.9894C107.726 95.8867 107.768 95.7814 107.799 95.6761C107.827 95.5721 107.87 95.4667 107.927 95.36C108.042 95.152 108.042 94.9428 107.927 94.7308C107.812 94.5228 107.698 94.416 107.583 94.416C107.467 94.416 107.439 94.5228 107.497 94.7308C107.497 94.8375 107.439 95.1 107.326 95.5187C107.21 95.9387 107.153 96.2013 107.153 96.3053H107.239ZM107.153 103.544C107.209 103.44 107.196 103.283 107.111 103.072C107.024 102.863 106.952 102.757 106.895 102.757V103.072C106.895 103.387 106.952 103.544 107.067 103.544H107.239H107.153ZM106.809 173.1C106.981 173.415 107.067 173.311 107.067 172.785C107.067 172.681 106.981 172.628 106.809 172.628C106.637 172.733 106.607 172.891 106.723 173.1H106.809ZM106.379 122.743C106.379 122.848 106.407 122.9 106.465 122.9H106.638C106.638 122.585 106.551 122.585 106.379 122.9V122.743ZM106.12 188.207C106.178 188.207 106.207 188.155 106.207 188.049C106.207 187.947 106.192 187.892 106.164 187.892C106.133 187.892 106.12 187.947 106.12 188.049C106.12 188.155 106.15 188.207 106.207 188.207H106.12ZM106.465 161.455C106.521 161.455 106.551 161.351 106.551 161.14H106.379C106.264 161.14 106.207 161.088 106.207 160.983C106.207 160.879 106.178 160.825 106.12 160.825L106.207 161.14C106.264 161.351 106.349 161.403 106.465 161.297V161.455ZM105.691 94.2588C105.747 94.2588 105.777 94.3133 105.777 94.416C105.777 94.3133 105.806 94.2588 105.863 94.2588H105.691ZM105.863 96.9347C105.919 96.8307 105.948 96.7254 105.948 96.6201C105.891 96.5161 105.82 96.5414 105.733 96.6987C105.648 96.8561 105.633 96.9881 105.691 97.0921C105.747 97.4068 105.833 97.4068 105.948 97.0921L105.863 96.9347ZM105.863 162.241C105.863 162.032 105.777 161.927 105.605 161.927C105.433 161.927 105.347 162.084 105.347 162.399C105.347 163.133 105.461 163.5 105.691 163.5C105.805 163.5 105.863 163.291 105.863 162.871V162.084V162.241ZM104.659 134.703H104.746C104.746 134.493 104.715 134.388 104.659 134.388C104.602 134.388 104.573 134.441 104.573 134.545C104.573 134.756 104.602 134.86 104.659 134.86V134.703ZM104.4 186.476C104.515 186.687 104.573 186.581 104.573 186.161C104.573 185.952 104.515 185.847 104.4 185.847C104.113 185.847 104.056 186.004 104.228 186.319L104.4 186.476ZM102.68 173.257C102.623 173.257 102.595 173.205 102.595 173.1C102.595 173.205 102.564 173.257 102.508 173.257H102.68ZM101.735 176.404C101.848 176.511 101.876 176.459 101.82 176.247C101.763 176.144 101.704 176.089 101.648 176.089L101.735 176.247V176.404ZM100.96 125.417C101.016 125.417 101.045 125.472 101.045 125.575C101.045 125.472 101.073 125.417 101.132 125.417H100.96ZM100.53 174.359H100.703C100.703 174.044 100.616 174.044 100.444 174.359C100.444 174.464 100.472 174.516 100.53 174.516V174.359ZM100.53 70.9748C100.472 70.9748 100.444 71.0293 100.444 71.132C100.444 71.2373 100.472 71.2894 100.53 71.2894C100.587 71.2894 100.616 71.2373 100.616 71.132C100.616 71.0293 100.587 70.9748 100.53 70.9748ZM100.272 167.12C100.387 167.225 100.444 167.199 100.444 167.041C100.444 166.884 100.387 166.753 100.272 166.648C100.213 166.648 100.213 166.596 100.272 166.491C100.328 166.387 100.3 166.333 100.185 166.333C99.9561 166.333 99.8428 166.544 99.8428 166.963C99.8428 167.277 99.8695 167.383 99.9281 167.277C99.9841 167.173 100.071 167.12 100.185 167.12H100.272ZM99.3255 101.497C99.1535 101.497 99.1241 101.604 99.2401 101.813C99.4681 102.233 99.5841 102.181 99.5841 101.655C99.5841 101.552 99.4681 101.497 99.2401 101.497H99.3255ZM99.4122 191.04C99.6402 191.353 99.7562 191.251 99.7562 190.725C99.7562 190.516 99.6402 190.409 99.4122 190.409C98.9522 190.409 98.8961 190.621 99.2401 191.04H99.4122ZM98.9815 162.713C98.9815 162.819 99.0681 162.871 99.2401 162.871C99.4121 162.871 99.4975 162.768 99.4975 162.556C99.4975 162.452 99.4121 162.399 99.2401 162.399C99.0681 162.399 98.9815 162.504 98.9815 162.713ZM98.8095 160.196C98.9241 160.196 98.9815 160.144 98.9815 160.039V159.88C98.8655 159.88 98.8095 159.935 98.8095 160.039C98.8095 160.144 98.8375 160.196 98.8961 160.196H98.8095ZM98.4655 168.379C98.4655 168.169 98.4362 168.064 98.3802 168.064C98.3215 168.064 98.2935 168.117 98.2935 168.221C98.2935 168.536 98.3508 168.591 98.4655 168.379ZM98.2935 190.409C98.2935 190.307 98.2642 190.252 98.2082 190.252C98.1495 190.252 98.1215 190.307 98.1215 190.409H98.2935ZM98.2082 159.409C98.2642 159.409 98.2935 159.357 98.2935 159.252C98.2935 159.148 98.2642 159.093 98.2082 159.093C98.1495 159.093 98.1215 159.148 98.1215 159.252C98.1215 159.357 98.1495 159.409 98.2082 159.409ZM97.7775 168.379C97.7775 168.799 97.8335 168.904 97.9495 168.693C98.0055 168.591 98.0215 168.457 97.9922 168.3C97.9628 168.143 97.9202 168.064 97.8642 168.064V168.379H97.7775ZM97.6055 158.149C97.7775 158.465 97.8642 158.361 97.8642 157.835C97.8642 157.627 97.8055 157.52 97.6921 157.52C97.4615 157.52 97.4041 157.627 97.5188 157.835L97.6055 158.149ZM97.6055 160.825V160.668C97.6055 160.564 97.5761 160.511 97.5188 160.511C97.4615 160.511 97.4335 160.564 97.4335 160.668V160.825H97.6055ZM97.3468 153.429C97.2895 153.429 97.2615 153.483 97.2615 153.585C97.2615 153.797 97.2895 153.901 97.3468 153.901H97.4335C97.4335 153.692 97.4042 153.585 97.3468 153.585V153.429ZM96.7455 174.044V173.887C96.7455 173.784 96.6881 173.729 96.5735 173.729C96.5161 173.729 96.4868 173.784 96.4868 173.887C96.4868 173.992 96.5442 174.044 96.6589 174.044H96.7455ZM96.4868 164.917C96.4868 165.128 96.5442 165.128 96.6589 164.917C96.7162 164.813 96.7455 164.656 96.7455 164.444C96.6882 164.236 96.6295 164.157 96.5735 164.208C96.5161 164.263 96.5161 164.392 96.5735 164.601L96.4868 164.917ZM95.5415 166.963C95.7135 166.544 95.6561 166.229 95.3695 166.019C95.1975 165.915 95.0535 165.967 94.9388 166.175L94.6815 166.491L94.9388 166.963C95.1668 167.489 95.3402 167.489 95.4548 166.963H95.5415ZM94.7668 77.8988C94.7095 77.7961 94.6815 77.7961 94.6815 77.8988C94.6815 78.2134 94.7375 78.268 94.8535 78.056L94.7668 77.7414V77.8988ZM94.7668 190.252C94.8242 190.149 94.7961 190.095 94.6815 190.095C94.6228 190.095 94.5948 190.149 94.5948 190.252V190.567L94.7668 190.252ZM94.3375 191.827C94.3935 191.827 94.4228 191.723 94.4228 191.512C94.4228 191.408 94.3935 191.353 94.3375 191.353C94.2788 191.353 94.2508 191.408 94.2508 191.512C94.2508 191.617 94.2788 191.669 94.3375 191.669V191.827ZM93.0469 167.749C93.0469 167.647 93.0175 167.592 92.9615 167.592C92.8455 167.592 92.7882 167.647 92.7882 167.749C92.7882 167.855 92.8175 167.907 92.8748 167.907L92.9615 167.749H93.0469ZM92.9615 156.891C93.0175 156.788 93.0321 156.655 93.0041 156.497C92.9748 156.34 92.9308 156.261 92.8748 156.261C92.8175 156.261 92.7735 156.34 92.7455 156.497C92.7162 156.655 92.7308 156.788 92.7882 156.891H92.9615ZM94.1655 70.8174V70.5028C94.1655 70.2934 94.1068 70.0854 93.9935 69.8734C93.9348 69.664 93.9068 69.664 93.9068 69.8734C93.9068 70.0854 93.8642 70.2148 93.7775 70.2668C93.6922 70.3214 93.6202 70.2428 93.5628 70.0308C93.5628 69.8214 93.4468 69.716 93.2188 69.716C93.0468 69.716 92.8748 69.8733 92.7028 70.188L92.5308 70.66H93.9935L94.1655 70.8174ZM92.7028 192.928C92.7588 192.195 92.7588 191.775 92.7028 191.669C92.6455 191.565 92.5868 191.565 92.5308 191.669C92.4722 191.775 92.4442 191.932 92.4442 192.141C92.4442 192.352 92.5015 192.561 92.6162 192.771C92.7309 192.981 92.7882 192.981 92.7882 192.771L92.7028 192.928ZM92.1015 164.76C92.0428 164.971 92.0708 165.073 92.1868 165.073C92.3002 165.073 92.4148 164.971 92.5308 164.76C92.6455 164.656 92.6162 164.601 92.4442 164.601C92.2148 164.601 92.1015 164.708 92.1015 164.917V164.76ZM92.0148 195.131C91.9575 195.237 91.9281 195.185 91.9281 194.973C91.9281 195.185 91.8988 195.343 91.8428 195.445L92.0148 195.131ZM91.9281 172.785C91.9281 172.576 91.8988 172.419 91.8428 172.313C91.7268 172.104 91.6708 172.104 91.6708 172.313C91.6121 172.524 91.5975 172.655 91.6282 172.707C91.6562 172.76 91.6988 172.681 91.7562 172.469L91.9281 172.785ZM91.3268 167.749C91.3268 167.855 91.3695 167.907 91.4561 167.907C91.5415 167.907 91.6121 167.855 91.6708 167.749L91.5841 167.592C91.4121 167.489 91.3268 167.54 91.3268 167.749ZM91.4122 177.663C91.3549 177.663 91.3268 177.612 91.3268 177.507C91.3268 177.612 91.2961 177.663 91.2401 177.663H91.4122ZM90.2948 190.567C90.3508 190.567 90.3802 190.516 90.3802 190.409C90.3802 190.307 90.3508 190.252 90.2948 190.252C90.2362 190.252 90.2082 190.359 90.2082 190.567C90.2082 190.673 90.2362 190.725 90.2948 190.725V190.567ZM90.2948 157.205C90.4668 157.205 90.5522 157.153 90.5522 157.048C90.5522 156.84 90.4949 156.733 90.3802 156.733C90.2642 156.733 90.2082 156.84 90.2082 157.048C90.2082 157.153 90.2949 157.205 90.4669 157.205H90.2948ZM87.3695 130.611C87.3121 130.508 87.2695 130.508 87.2401 130.611C87.2108 130.716 87.2268 130.823 87.2842 130.925C87.3402 131.031 87.3695 131.031 87.3695 130.925V130.611ZM87.1975 157.677C87.2548 157.575 87.2842 157.417 87.2842 157.205C87.2268 156.996 87.1681 156.867 87.1121 156.812C87.0548 156.76 87.0255 156.84 87.0255 157.048V157.363C86.9108 157.784 86.9682 157.784 87.1975 157.363V157.677ZM86.8535 158.307C86.7962 158.307 86.7681 158.256 86.7681 158.149C86.7681 158.256 86.7388 158.307 86.6815 158.307H86.8535ZM86.1655 186.791L86.0802 186.476C86.0215 186.373 85.9642 186.319 85.9082 186.319C85.8495 186.424 85.8655 186.555 85.9508 186.712C86.0362 186.869 86.1082 186.896 86.1655 186.791ZM85.4775 70.3454C85.5335 70.3454 85.5642 70.2933 85.5642 70.188C85.3922 69.8733 85.3055 69.928 85.3055 70.3454C85.3055 70.4507 85.3615 70.5028 85.4775 70.5028V70.3454ZM84.2735 70.9748C84.3295 70.8721 84.3015 70.8174 84.1868 70.8174C84.0722 70.8174 84.0148 70.924 84.0148 71.132C84.0148 71.344 84.0441 71.4468 84.1015 71.4468L84.2735 71.132V70.9748ZM83.7575 162.556C83.7575 162.661 83.7855 162.713 83.8428 162.713H83.9295C83.9295 162.609 83.9148 162.556 83.8868 162.556C83.8561 162.556 83.8428 162.609 83.8428 162.713L83.7575 162.556ZM83.9295 176.719C84.0442 176.301 84.1015 176.037 84.1015 175.932C84.1015 175.723 84.0442 175.775 83.9295 176.089C83.6989 176.931 83.6708 177.348 83.8428 177.348L84.0148 176.719H83.9295ZM82.5535 182.699C82.7815 182.699 82.7815 182.489 82.5535 182.069C82.3815 181.755 82.2948 181.755 82.2948 182.069C82.2948 182.281 82.3522 182.384 82.4669 182.384C82.5815 182.384 82.6388 182.439 82.6388 182.541C82.6388 182.648 82.5815 182.753 82.4669 182.856C82.3522 182.963 82.2948 183.147 82.2948 183.407C82.2948 183.669 82.3522 183.749 82.4669 183.644C82.5229 183.644 82.5535 183.54 82.5535 183.328C82.5535 183.119 82.5815 183.013 82.6388 183.013L82.5535 182.699ZM82.7255 162.241C82.7815 161.927 82.7815 161.717 82.7255 161.612C82.5535 161.297 82.4095 161.403 82.2948 161.927C82.2375 162.139 82.2655 162.241 82.3815 162.241C82.4948 162.241 82.5535 162.296 82.5535 162.399C82.5535 162.609 82.6095 162.504 82.7255 162.084V162.241ZM81.9508 74.2801C81.9508 74.4908 81.9948 74.5694 82.0802 74.5161C82.1668 74.4641 82.2375 74.3334 82.2948 74.1227V73.8081C82.2375 73.7041 82.1668 73.7041 82.0802 73.8081C81.9948 73.9134 81.9508 74.0187 81.9508 74.1227V74.2801ZM81.5215 153.585C81.5215 153.377 81.4908 153.247 81.4348 153.192C81.3775 153.141 81.3202 153.22 81.2629 153.429C81.2055 153.849 81.2055 154.059 81.2629 154.059C81.3775 154.059 81.4348 153.955 81.4348 153.744L81.5215 153.585ZM80.9189 73.0213C80.9749 73.1266 81.0041 73.284 81.0041 73.4933C81.0041 73.284 81.0335 73.2321 81.0908 73.3348L80.9189 73.0213ZM80.7468 161.769C81.0335 162.084 81.1762 162.084 81.1762 161.769C81.1762 161.665 81.0909 161.612 80.9189 161.612C80.7469 161.612 80.6895 161.665 80.7468 161.769ZM80.6615 167.435C80.7175 167.435 80.7468 167.383 80.7468 167.277C80.7468 167.173 80.7175 167.12 80.6615 167.12C80.6029 167.12 80.5749 167.173 80.5749 167.277C80.5749 167.383 80.6029 167.435 80.6615 167.435ZM79.9722 162.084C80.0295 162.084 80.0588 162.032 80.0588 161.927C80.0588 161.823 80.0295 161.769 79.9722 161.769C79.9148 161.769 79.8868 161.823 79.8868 161.927C79.8868 162.032 79.9148 162.084 79.9722 162.084ZM78.3389 102.441C78.3389 102.548 78.3668 102.6 78.4241 102.6C78.4815 102.6 78.5108 102.548 78.5108 102.441H78.3389ZM78.3389 179.237C78.3949 179.237 78.4241 179.185 78.4241 179.08C78.4241 178.976 78.3669 178.923 78.2522 178.923C78.1375 178.923 78.0375 178.976 77.9508 179.08C77.8655 179.185 77.8509 179.291 77.9082 179.395C78.0229 179.605 78.1375 179.552 78.2522 179.237C78.2522 179.133 78.3095 179.08 78.4241 179.08L78.3389 179.237ZM118.679 95.36C118.851 95.572 118.937 96.044 118.937 96.7773V102.915C118.937 103.229 118.879 103.492 118.766 103.701C118.65 103.912 118.65 104.069 118.766 104.173C118.879 104.279 118.937 104.463 118.937 104.724V107.163C118.937 108.948 118.879 110.259 118.766 111.097C118.707 111.412 118.679 111.781 118.679 112.199V122.271L118.507 122.112C118.391 122.009 118.348 122.035 118.378 122.192C118.407 122.349 118.478 122.481 118.592 122.585C118.65 122.585 118.692 122.64 118.722 122.743C118.75 122.848 118.766 123.136 118.766 123.608V129.667C118.766 134.179 118.75 137.64 118.722 140.052C118.692 142.467 118.679 144.223 118.679 145.324C118.679 146.427 118.664 147.083 118.636 147.292C118.607 147.503 118.592 147.66 118.592 147.764C118.535 147.975 118.507 148.499 118.507 149.337C118.564 150.281 118.592 151.516 118.592 153.036C118.592 154.557 118.564 155.475 118.507 155.789C118.391 156.209 118.335 157.048 118.335 158.307C118.335 158.833 118.32 159.62 118.292 160.668C118.263 161.717 118.219 162.713 118.163 163.657C118.106 164.601 118.062 165.704 118.034 166.963C118.004 168.221 117.991 169.428 117.991 170.581V175.775C117.933 175.88 117.991 177.191 118.163 179.709C118.278 180.865 118.348 181.939 118.378 182.935C118.407 183.933 118.421 184.641 118.421 185.059V190.409C118.421 190.831 118.277 191.827 117.991 193.4C117.875 193.715 117.776 193.951 117.69 194.108C117.604 194.265 117.388 194.501 117.045 194.816C116.815 195.028 116.586 195.209 116.356 195.367C116.127 195.524 115.927 195.657 115.755 195.76C115.123 195.972 114.607 196.129 114.207 196.232C113.804 196.339 113.475 196.417 113.218 196.468C112.959 196.523 112.715 196.547 112.486 196.547H111.625C110.708 196.547 110.192 196.444 110.077 196.232C110.02 196.129 109.905 196.129 109.733 196.232C109.445 196.444 108.959 196.417 108.271 196.153C107.583 195.893 107.095 195.603 106.809 195.288C106.751 195.185 106.68 195.028 106.593 194.816C106.508 194.607 106.407 194.399 106.294 194.187C106.178 193.769 106.106 193.4 106.079 193.085C106.048 192.771 106.005 192.037 105.948 190.883C105.891 189.623 105.848 188.836 105.82 188.521C105.791 188.207 105.719 188.155 105.605 188.364C105.547 188.469 105.433 188.469 105.26 188.364C104.859 188.049 104.746 188.155 104.916 188.679L105.088 189.151L104.916 189.465C104.802 189.677 104.687 189.78 104.573 189.78C104.457 189.78 104.4 189.835 104.4 189.939C104.457 190.149 104.4 190.437 104.228 190.803C104.056 191.172 103.884 191.353 103.712 191.353C103.597 191.353 103.54 191.46 103.54 191.669C103.54 191.88 103.511 191.984 103.455 191.984L103.283 192.299C103.167 192.509 102.908 192.797 102.508 193.164C102.107 193.532 101.676 193.82 101.218 194.029C100.644 194.451 100.328 194.713 100.272 194.816C100.156 195.028 99.9281 195.185 99.5841 195.288C99.2401 195.395 98.8962 195.5 98.5522 195.603C98.0922 195.709 97.7909 195.76 97.6482 195.76C97.5042 195.76 97.3761 195.865 97.2615 196.075C97.1455 196.181 96.6295 196.232 95.7135 196.232C95.2535 196.339 94.8242 196.389 94.4228 196.389H87.8855C87.3695 196.389 86.7962 196.339 86.1655 196.232C85.5335 196.129 85.1042 195.972 84.8748 195.76C84.5322 195.551 84.1575 195.445 83.7575 195.445C82.9535 195.343 82.4095 195.288 82.1228 195.288C81.8348 195.288 81.6348 195.237 81.5215 195.131C81.4055 194.921 81.2335 194.816 81.0041 194.816C80.7748 194.713 80.4588 194.476 80.0588 194.108C79.6575 193.741 79.4268 193.455 79.3708 193.243C79.1988 192.928 79.0548 192.719 78.9402 192.613C78.7108 192.404 78.4242 191.853 78.0802 190.96C77.7362 190.071 77.6202 189.52 77.7362 189.308L77.6509 188.993C77.5349 188.784 77.4788 188.419 77.4788 187.892C77.4788 187.683 77.4628 187.447 77.4348 187.184C77.4055 186.924 77.3922 186.687 77.3922 186.476V180.811C77.3348 180.181 77.2482 177.82 77.1335 173.729C77.1335 172.261 77.1628 171.475 77.2201 171.368C77.4495 171.16 77.4495 170.845 77.2201 170.424C77.1041 170.216 77.0482 169.165 77.0482 167.277V163.815C77.0482 163.397 77.0762 163.185 77.1335 163.185C77.1909 163.083 77.2201 162.949 77.2201 162.792C77.2201 162.635 77.1909 162.556 77.1335 162.556C77.0762 162.556 77.0762 162.189 77.1335 161.455C77.1909 160.721 77.1909 160.196 77.1335 159.88C77.0189 159.567 77.0189 158.779 77.1335 157.52V153.192C77.1335 153.036 77.1908 153.011 77.3055 153.115C77.5922 153.429 77.7362 153.483 77.7362 153.272C77.7362 153.063 77.6508 152.957 77.4788 152.957H77.2201L77.3055 147.449V136.433C77.3055 135.909 77.3348 135.595 77.3922 135.489C77.5068 135.385 77.5642 135.253 77.5642 135.096C77.5642 134.939 77.5068 134.86 77.3922 134.86C77.3348 134.86 77.3055 134.729 77.3055 134.467C77.3055 134.205 77.3348 133.549 77.3922 132.499V127.936C77.3922 126.888 77.4055 125.811 77.4348 124.709C77.4628 123.608 77.5069 122.796 77.5642 122.271C77.6202 121.956 77.6642 120.539 77.6935 118.021C77.7215 115.504 77.7362 112.777 77.7362 109.839V99.924C77.7362 98.7706 77.7495 76.4827 77.7788 75.5387C77.8081 74.5947 77.8509 73.8615 77.9082 73.3348C77.9642 73.1268 77.9949 72.8908 77.9949 72.6268V71.9188C77.9949 70.9748 78.0802 70.5028 78.2522 70.5028C78.3669 70.5028 78.4241 70.4507 78.4241 70.3454C78.4241 70.136 78.3949 70.0308 78.3389 70.0308C78.1082 70.0308 78.1082 69.664 78.3389 68.9294C78.4535 68.6147 78.7255 68.0908 79.1562 67.3561C79.5855 66.6228 79.8868 66.2027 80.0588 66.096C80.2308 65.9934 80.3455 65.9934 80.4028 66.096C80.5748 66.2027 80.6895 66.1508 80.7468 65.9388C80.8028 65.7308 81.0615 65.6787 81.5215 65.7814H82.3815C82.8388 65.6787 83.4562 65.6508 84.2309 65.7028C85.0042 65.7575 86.2722 65.832 87.1562 65.868C88.5295 65.9227 89.2855 65.7948 90.4895 65.7948L92.8349 65.9041L94.0615 65.9587C94.3442 66.0253 94.7695 66.0533 95.4762 66.0493C95.7455 66.048 96.0215 66.0121 96.1775 65.9881C96.3375 65.9721 96.5615 66.024 96.7201 65.9866C96.9175 65.9733 96.9961 66.0001 97.2721 66.0374C97.3441 66.0508 97.4082 66.1067 97.6975 66.0667C97.8282 66.0534 98.0949 66.0267 98.3975 66.028C98.8495 66.028 99.1562 65.976 99.5202 65.9787C100.03 65.9787 101.023 65.9654 101.195 66.2801C101.368 66.5948 100.888 70.7387 101.09 71.5254C101.29 72.3134 101.389 72.8641 101.389 73.1774C101.389 73.4934 101.419 73.7041 101.476 73.8081C101.591 74.2281 101.648 74.8054 101.648 75.5387V113.536C101.648 115.059 101.619 116.239 101.563 117.077C101.504 117.707 101.462 118.599 101.434 119.752C101.403 120.908 101.362 122.009 101.304 123.057C101.247 125.367 101.218 126.833 101.218 127.463C101.218 128.093 101.188 128.828 101.132 129.667C101.016 130.716 100.96 131.66 100.96 132.499V138.007C100.96 138.533 100.945 139.136 100.917 139.816C100.888 140.5 100.875 141.103 100.875 141.627C100.816 142.571 100.774 143.569 100.746 144.616C100.716 145.667 100.672 146.977 100.616 148.551V153.823C100.616 154.609 100.587 155.528 100.53 156.576C100.472 158.047 100.444 159.252 100.444 160.196C100.444 161.14 100.472 162.189 100.53 163.343C100.587 164.184 100.63 164.971 100.659 165.704C100.687 166.439 100.703 166.911 100.703 167.12V168.221C100.703 168.327 100.716 168.484 100.746 168.693C100.774 168.904 100.788 169.113 100.788 169.323C100.844 169.849 100.903 170.4 100.96 170.975C101.016 171.553 101.073 171.895 101.132 171.999C101.188 172.209 101.317 172.156 101.519 171.841C101.719 171.525 101.876 171.16 101.992 170.739C102.107 170.321 102.192 170.109 102.25 170.109C102.307 170.109 102.336 168.276 102.336 164.601V155.632C102.336 155.528 102.393 155.58 102.508 155.789C102.564 156.001 102.651 156.001 102.767 155.789V155.317C102.767 155.108 102.795 154.951 102.852 154.845C102.908 154.531 102.852 154.373 102.68 154.373C102.564 154.373 102.508 154.269 102.508 154.059V151.147C102.508 149.313 102.522 147.345 102.551 145.245C102.579 143.148 102.608 141.181 102.638 139.344C102.666 137.511 102.68 136.487 102.68 136.276C102.736 136.067 102.767 135.7 102.767 135.175V131.083C102.767 130.349 102.795 129.457 102.852 128.408C102.908 128.408 102.939 127.779 102.939 126.519V124.709C102.939 124.028 102.967 123.427 103.024 122.9C103.081 122.376 103.124 121.852 103.153 121.325C103.181 120.803 103.196 120.436 103.196 120.224C103.254 119.385 103.326 118.257 103.412 116.841C103.498 115.424 103.597 113.984 103.712 112.513C103.768 111.675 103.827 110.837 103.884 109.996C103.942 109.157 103.971 108.528 103.971 108.108C103.971 107.689 103.984 107.32 104.014 107.005C104.042 106.691 104.056 106.483 104.056 106.376V104.645C104.056 104.543 104.114 104.543 104.228 104.645C104.343 104.751 104.343 104.7 104.228 104.488C104.056 104.069 104.143 102.339 104.487 99.2948C104.543 98.9801 104.587 98.6134 104.616 98.1934C104.644 97.7747 104.687 97.46 104.746 97.2493C104.859 96.4107 104.96 95.624 105.045 94.888C105.132 94.156 105.203 93.684 105.26 93.472C105.317 93.3693 105.36 93.2361 105.389 93.0788C105.417 92.9214 105.461 92.74 105.519 92.528C105.575 92.3187 105.661 92.0308 105.777 91.6628C105.891 91.2961 106.006 90.9027 106.12 90.4827C106.407 89.6441 106.666 89.144 106.895 88.9866C107.124 88.8306 107.498 88.8054 108.014 88.908C108.472 88.908 108.73 88.8573 108.787 88.7506C108.844 88.7506 109.003 88.7267 109.26 88.672C109.519 88.6214 109.789 88.5934 110.077 88.5934H111.54C111.654 88.5934 111.811 88.5693 112.014 88.5146C112.214 88.464 112.428 88.4373 112.657 88.4373C113.288 88.4373 113.632 88.4908 113.69 88.5934C113.804 88.8054 113.861 88.8054 113.861 88.5934C114.035 88.1761 114.492 88.0187 115.239 88.1214C115.755 88.1214 116.012 88.228 116.012 88.4373C116.012 88.5427 116.099 88.5934 116.271 88.5934C116.615 88.3854 117.073 88.648 117.647 89.3813C117.819 89.592 118.004 90.1161 118.205 90.9547C118.407 91.7947 118.507 92.476 118.507 93V95.0454C118.564 95.6761 118.592 96.0694 118.592 96.2267C118.592 96.3827 118.564 96.4107 118.507 96.3053C118.391 96.3053 118.335 96.3587 118.335 96.4627C118.335 96.6734 118.391 96.7773 118.507 96.7773L118.679 95.36ZM77.3055 149.023C77.1908 149.233 77.1042 149.233 77.0482 149.023C76.9322 148.605 76.9908 148.393 77.2201 148.393C77.3921 148.393 77.3921 148.551 77.2201 148.865L77.3055 149.023Z" fill="#212322"/>
<path d="M159.592 40.036C159.668 40.036 159.707 39.8827 159.707 39.576C159.707 39.2707 159.668 39.1561 159.592 39.2321C159.515 39.3868 159.477 39.5387 159.477 39.6921C159.477 39.8454 159.515 39.9214 159.592 39.9214V40.036ZM158.901 76.8213C158.901 76.8986 158.825 76.9373 158.672 76.9373V76.8213C158.672 76.7466 158.748 76.7067 158.901 76.7067C158.977 76.7067 159.017 76.7466 159.017 76.8213H158.901ZM159.017 68.7747C158.788 69.0054 158.672 68.9667 158.672 68.66C158.672 68.2773 158.788 68.2 159.017 68.4307C159.093 68.584 159.093 68.7001 159.017 68.7747ZM154.189 29.8053C154.341 29.8053 154.419 29.7681 154.419 29.6908C154.419 29.6148 154.304 29.6148 154.075 29.6908C153.997 29.7681 154.035 29.8053 154.189 29.8053ZM153.615 33.3693C153.767 33.4453 153.804 33.4453 153.729 33.3693C153.652 33.2933 153.46 33.2534 153.155 33.2534C152.924 33.2534 152.809 33.3307 152.809 33.484C152.809 33.6387 152.885 33.7134 153.04 33.7134C153.115 33.7134 153.192 33.7534 153.269 33.8294C153.269 33.9054 153.345 33.944 153.499 33.944C153.575 33.944 153.575 33.9054 153.499 33.8294C153.345 33.6761 153.269 33.5614 153.269 33.484C153.269 33.408 153.345 33.3693 153.499 33.3693H153.615ZM151.429 32.4494C151.583 32.4494 151.621 32.4106 151.545 32.3346C151.468 32.2586 151.429 32.1441 151.429 31.9894C151.505 31.9134 151.488 31.856 151.372 31.8174C151.257 31.7787 151.16 31.7987 151.085 31.8747C150.931 32.0293 150.913 32.1614 151.028 32.276C151.143 32.392 151.276 32.4494 151.429 32.4494ZM149.705 83.8346L149.936 83.604C149.859 83.5293 149.763 83.5094 149.648 83.5467C149.533 83.5867 149.476 83.6441 149.476 83.7187C149.476 83.8734 149.552 83.8734 149.705 83.7187V83.8346ZM149.131 33.484C149.131 33.408 149.091 33.3693 149.016 33.3693C148.939 33.3693 148.901 33.2933 148.901 33.1387C148.747 33.4453 148.785 33.5986 149.016 33.5986L149.131 33.484ZM147.636 37.6227V37.5067C147.636 37.432 147.559 37.3921 147.407 37.3921C147.329 37.3921 147.292 37.432 147.292 37.5067C147.292 37.584 147.367 37.6227 147.521 37.6227H147.636ZM147.177 30.9548C147.177 31.0321 147.252 31.0693 147.407 31.0693C147.559 31.0693 147.636 31.0321 147.636 30.9548C147.636 30.8788 147.559 30.84 147.407 30.84C147.252 30.84 147.177 30.8788 147.177 30.9548ZM145.797 32.7948C146.027 32.4108 145.951 32.1441 145.568 31.9894C145.413 31.9134 145.24 31.932 145.049 32.0467C144.859 32.1614 144.763 32.296 144.763 32.4494C144.837 32.4494 144.877 32.4893 144.877 32.564C144.877 32.7186 144.915 32.7948 144.993 32.7948C145.299 33.1014 145.528 33.1014 145.683 32.7948H145.797ZM142.233 51.6466C142.233 51.4173 142.156 51.3014 142.004 51.3014C141.849 51.3014 141.753 51.3601 141.716 51.4748C141.676 51.5894 141.735 51.724 141.888 51.876C142.119 52.1066 142.233 52.0306 142.233 51.6466ZM140.969 267.899C141.199 267.593 141.455 268.413 141.149 268.489C140.765 268.643 140.395 267.899 140.624 268.129C140.7 268.359 140.855 268.359 141.084 268.129L140.969 267.899ZM138.555 102.341C138.325 102.572 138.363 102.687 138.671 102.687H138.785C138.785 102.457 138.708 102.419 138.555 102.572V102.341ZM137.635 92.916C137.559 93.1453 137.635 93.1854 137.865 93.0308C137.94 92.9548 137.94 92.916 137.865 92.916C137.711 92.916 137.635 92.9548 137.635 93.0308V92.916ZM139.245 104.296L139.129 103.721L139.015 103.147L138.555 103.607H138.211C138.056 103.607 137.94 103.647 137.865 103.721C137.559 104.028 137.559 104.105 137.865 103.952C137.94 103.876 137.94 103.913 137.865 104.067V104.411C137.865 104.565 137.788 104.641 137.635 104.641C137.481 104.641 137.405 104.719 137.405 104.871C137.405 104.948 137.559 104.968 137.865 104.928C138.171 104.891 138.516 104.796 138.9 104.641L139.245 104.296ZM136.831 89.9268C136.831 90.0041 136.868 90.0413 136.947 90.0413C137.021 90.0413 137.06 90.0041 137.06 89.9268H136.831ZM136.371 269.508V269.393C136.371 269.317 136.332 269.279 136.256 269.279C136.179 269.279 136.14 269.317 136.14 269.393V269.508H136.371ZM135.565 104.871C135.719 104.719 135.796 104.603 135.796 104.527C135.796 104.373 135.739 104.316 135.624 104.353C135.509 104.393 135.452 104.488 135.452 104.641C135.452 104.796 135.527 104.833 135.681 104.756L135.565 104.871ZM135.452 103.376C135.375 103.453 135.375 103.531 135.452 103.607C135.757 103.761 135.833 103.684 135.681 103.376C135.681 103.301 135.641 103.301 135.565 103.376H135.452ZM134.761 94.7547C134.837 94.7547 134.877 94.7173 134.877 94.64C134.877 94.564 134.837 94.5254 134.761 94.5254C134.684 94.5254 134.647 94.564 134.647 94.64C134.647 94.7173 134.684 94.7547 134.761 94.7547ZM134.301 75.4427C134.377 75.3667 134.377 75.2894 134.301 75.2121C134.072 75.0601 133.995 75.0973 134.072 75.328C134.072 75.4813 134.109 75.52 134.187 75.4427H134.301ZM132.348 74.1774C131.963 74.1774 131.925 74.332 132.232 74.6374C132.385 74.792 132.5 74.752 132.577 74.5226C132.653 74.3693 132.615 74.2933 132.463 74.2933L132.348 74.1774ZM132.463 86.9373L132.692 86.708C132.615 86.708 132.577 86.6708 132.577 86.5934C132.5 86.5174 132.463 86.46 132.463 86.4214C132.463 86.3827 132.423 86.3254 132.348 86.248C132.117 86.0187 132.003 85.9427 132.003 86.0187C132.003 86.172 132.079 86.3254 132.232 86.4774C132.308 86.556 132.348 86.708 132.348 86.9373C132.269 87.168 132.269 87.2067 132.348 87.0534L132.463 86.9373ZM131.657 78.6613C131.581 78.6613 131.619 78.8907 131.773 79.3507C131.848 79.7347 131.963 79.8506 132.117 79.696C132.269 79.5426 132.232 79.3508 132.003 79.1214L131.773 78.6613H131.657ZM131.657 91.4214C131.733 91.3454 131.773 91.2681 131.773 91.1908C131.543 91.1908 131.428 91.3066 131.428 91.536C131.428 91.6906 131.465 91.748 131.543 91.708C131.619 91.6707 131.695 91.576 131.773 91.4214H131.657ZM130.968 94.4106C131.199 94.64 131.313 94.564 131.313 94.18C131.313 94.028 131.236 93.9507 131.083 93.9507C130.776 93.9507 130.699 94.028 130.853 94.18L130.968 94.4106ZM130.624 83.7187C130.776 83.7961 130.891 83.7961 130.968 83.7187C131.044 83.6441 131.044 83.5668 130.968 83.4894C130.813 83.4134 130.699 83.4134 130.624 83.4894C130.545 83.5668 130.545 83.6441 130.624 83.7187ZM130.393 95.904C130.545 96.0586 130.624 95.9813 130.624 95.6746C130.624 95.5213 130.545 95.4453 130.393 95.4453C130.009 95.4453 129.933 95.56 130.163 95.7894L130.393 95.904ZM129.933 73.9481C129.779 74.1027 129.779 74.2173 129.933 74.2933C130.239 74.5226 130.355 74.5226 130.279 74.2933C130.124 73.9106 129.971 73.7947 129.819 73.9481H129.933ZM129.244 92.6854C129.319 92.7627 129.416 92.8 129.531 92.8C129.647 92.8 129.704 92.7627 129.704 92.6854C129.704 92.38 129.588 92.3413 129.359 92.5706C129.281 92.5706 129.244 92.648 129.244 92.8V92.6854ZM128.899 89.352C128.973 89.276 129.013 89.1613 129.013 89.0067C128.936 88.8547 128.86 88.7973 128.784 88.8346C128.707 88.8746 128.668 88.9694 128.668 89.1227C128.668 89.3521 128.744 89.392 128.899 89.2373V89.352ZM128.668 78.3161C128.668 78.3934 128.707 78.4307 128.784 78.4307H129.013C129.013 78.2013 128.899 78.2013 128.668 78.4307V78.3161ZM127.519 80.5C127.595 80.5 127.635 80.4253 127.635 80.2707C127.635 80.1173 127.595 80.04 127.519 80.04C127.443 80.04 127.404 80.1173 127.404 80.2707C127.404 80.4253 127.443 80.5 127.519 80.5ZM127.06 102.572C127.135 102.572 127.175 102.533 127.175 102.457C127.175 102.381 127.135 102.341 127.06 102.341C126.983 102.341 126.944 102.381 126.944 102.457C126.944 102.533 126.983 102.572 127.06 102.572ZM126.829 84.4093V84.064C126.753 83.9106 126.675 83.8346 126.6 83.8346C126.523 83.8346 126.485 83.9106 126.485 84.064C126.485 84.2186 126.523 84.3333 126.6 84.4093C126.675 84.4867 126.715 84.4867 126.715 84.4093H126.829ZM127.289 82.6841C127.365 82.6094 127.365 82.4548 127.289 82.2254C127.135 82.0721 127.02 81.9946 126.944 81.9946H126.6C126.523 81.9946 126.485 82.0721 126.485 82.2254C126.485 82.3788 126.523 82.4947 126.6 82.5693C126.753 82.724 126.944 82.6841 127.175 82.4548L127.289 82.6841ZM126.715 104.296C126.715 104.221 126.675 104.181 126.6 104.181C126.445 104.181 126.369 104.221 126.369 104.296C126.369 104.373 126.408 104.411 126.485 104.411C126.637 104.411 126.715 104.373 126.715 104.296ZM125.335 267.899C125.411 267.824 125.451 267.747 125.451 267.669H125.335C125.259 267.669 125.22 267.747 125.22 267.899C125.22 268.053 125.259 268.091 125.335 268.013V267.899ZM125.105 100.388C125.105 100.312 125.065 100.272 124.991 100.272C124.913 100.272 124.876 100.312 124.876 100.388C124.876 100.617 124.951 100.58 125.105 100.272V100.388ZM124.76 32.9093L124.991 32.6787C125.065 32.604 125.028 32.564 124.876 32.564C124.721 32.564 124.645 32.6414 124.645 32.7948C124.645 32.9481 124.684 33.0241 124.76 33.0241V32.9093ZM123.84 88.432C123.764 88.3573 123.727 88.3573 123.727 88.432C123.727 88.5866 123.744 88.6814 123.783 88.72C123.821 88.7587 123.84 88.7013 123.84 88.548C123.84 88.3947 123.801 88.28 123.727 88.2026L123.84 88.432ZM123.611 95.3294C123.687 95.3294 123.764 95.292 123.84 95.2147C123.916 95.1387 123.916 95.0613 123.84 94.9853C123.84 94.9093 123.764 94.8894 123.611 94.9268C123.457 94.9668 123.381 95.0241 123.381 95.1001L123.611 95.2147V95.3294ZM122.807 40.8413C122.959 40.8413 123.036 40.7653 123.036 40.6107C123.036 40.4587 122.996 40.3813 122.921 40.3813C122.844 40.3813 122.807 40.4587 122.807 40.6107C122.807 40.688 122.844 40.7267 122.921 40.7267L122.807 40.8413ZM122.576 77.0521C122.729 77.0521 122.807 77.0147 122.807 76.9373C122.807 76.784 122.729 76.7067 122.576 76.7067L122.461 76.9373C122.461 77.0147 122.537 77.0521 122.691 77.0521H122.576ZM122.691 72.568L122.461 72.4533H122.232L122.461 72.568H122.691ZM122.116 81.0747C122.192 81.0747 122.232 81.0373 122.232 80.96C122.232 80.6546 122.116 80.6147 121.887 80.8454C121.657 81.0747 121.695 81.1908 122.001 81.1908L122.116 81.0747ZM121.427 60.9587C121.349 60.9587 121.312 60.9974 121.312 61.0734C121.312 61.1507 121.349 61.188 121.427 61.188V60.9587ZM120.737 46.9334C120.583 47.0108 120.507 47.0881 120.507 47.1641C120.507 47.2401 120.583 47.2786 120.737 47.2786C120.889 47.2786 120.967 47.2027 120.967 47.048C120.967 46.896 120.889 46.8187 120.737 46.8187V46.9334ZM121.196 54.4054C121.349 54.4054 121.427 54.2907 121.427 54.0614C121.501 53.908 121.464 53.7933 121.312 53.716C121.157 53.64 121.005 53.6774 120.852 53.8307C120.697 53.9854 120.697 54.0614 120.852 54.0614C121.005 54.0614 121.1 54.1187 121.14 54.2334C121.177 54.3481 121.157 54.4453 121.081 54.5213C120.927 54.5213 120.812 54.4828 120.737 54.4054C120.507 54.1761 120.392 54.216 120.392 54.5213C120.392 54.9053 120.544 55.096 120.852 55.096C120.927 55.096 120.967 54.98 120.967 54.7507V54.5213L121.196 54.4054ZM120.507 78.776C120.507 78.7 120.468 78.6613 120.392 78.6613C120.237 78.7386 120.143 78.816 120.104 78.8906C120.065 78.968 120.085 79.0054 120.163 79.0054C120.315 79.0054 120.392 78.9307 120.392 78.776H120.507ZM119.357 32.4494C119.511 32.0667 119.433 31.8747 119.128 31.8747C119.051 31.8747 119.012 31.9894 119.012 32.2187C119.012 32.5267 119.128 32.564 119.357 32.3346V32.4494ZM118.553 43.2547C118.628 43.4094 118.705 43.4854 118.783 43.4854C118.859 43.4854 118.897 43.4094 118.897 43.2547C118.897 43.1801 118.82 43.14 118.668 43.14C118.513 43.14 118.475 43.1801 118.553 43.2547ZM118.553 39.0013C118.475 39.0013 118.437 39.0587 118.437 39.1733C118.437 39.2893 118.475 39.3868 118.553 39.4614C118.628 39.5388 118.668 39.4614 118.668 39.2321C118.668 39.0788 118.628 39.0013 118.553 39.0013ZM118.208 51.4173C118.284 51.4173 118.323 51.3414 118.323 51.1867C118.323 51.112 118.284 51.0721 118.208 51.0721C118.131 51.0721 118.093 51.1494 118.093 51.3014H118.208V51.4173ZM117.863 39.116C117.863 39.0414 117.824 39.0013 117.748 39.0013C117.671 39.0013 117.633 39.0414 117.633 39.116H117.863ZM116.943 70.1546C116.943 70.0013 116.904 69.964 116.829 70.04C116.673 70.1934 116.599 70.3093 116.599 70.3839C116.599 70.5386 116.636 70.576 116.713 70.4987C116.789 70.424 116.867 70.3093 116.943 70.1546ZM115.793 56.1294C115.869 56.1294 115.909 56.092 115.909 56.0146C115.909 55.94 115.869 55.9001 115.793 55.9001C115.717 55.9001 115.679 55.94 115.679 56.0146C115.679 56.092 115.755 56.1294 115.909 56.1294H115.793ZM114.989 52.2214C114.835 52.376 114.835 52.452 114.989 52.452C115.065 52.452 115.179 52.376 115.335 52.2214C115.487 52.0694 115.487 51.992 115.335 51.992C115.257 51.992 115.141 52.0694 114.989 52.2214ZM115.219 73.9481C115.449 73.9481 115.564 73.8719 115.564 73.7173C115.564 73.4879 115.409 73.4507 115.104 73.6027L114.644 73.8333V74.0627C114.644 74.14 114.797 74.1774 115.104 74.1774L115.219 73.9481ZM114.299 65.2108L114.644 64.8667C114.797 64.7134 114.873 64.5614 114.873 64.4067C114.873 64.3307 114.797 64.292 114.644 64.292C114.567 64.292 114.529 64.4453 114.529 64.7506L114.299 65.2108ZM113.84 77.6266C113.992 77.6266 114.069 77.5507 114.069 77.396C114.069 77.244 113.992 77.1667 113.84 77.1667C113.763 77.1667 113.724 77.2814 113.724 77.512C113.724 77.7414 113.763 77.856 113.84 77.856V77.6266ZM113.38 72.4533C113.455 72.4533 113.455 72.416 113.38 72.3387C113.225 72.1867 113.093 72.1081 112.977 72.1081C112.863 72.1081 112.88 72.1867 113.035 72.3387C113.188 72.4934 113.303 72.568 113.38 72.568V72.4533ZM112.691 59.6934C112.691 59.6187 112.651 59.5788 112.575 59.5788C112.268 59.7334 112.231 59.8081 112.46 59.8081C112.613 59.8081 112.691 59.7707 112.691 59.6934ZM112.575 68.5454C112.651 68.3921 112.651 68.2973 112.575 68.2573C112.497 68.22 112.421 68.2773 112.345 68.4307C112.191 68.66 112.231 68.7747 112.46 68.7747C112.613 68.7747 112.691 68.7001 112.691 68.5454H112.575ZM112.231 44.404C112.231 44.6346 112.345 44.6346 112.575 44.404V44.0601C112.497 43.9841 112.421 43.9841 112.345 44.0601C112.268 44.1374 112.231 44.252 112.231 44.404ZM112.116 32.3346C111.656 32.3346 111.616 32.4494 112 32.6787C112.384 32.9094 112.575 32.8706 112.575 32.564C112.575 32.4106 112.497 32.3346 112.345 32.3346H112.116ZM111.885 47.1641V46.9334H111.656C111.501 46.9334 111.464 47.0107 111.54 47.1641C111.616 47.2401 111.693 47.2401 111.771 47.1641H111.885ZM110.851 68.2C110.927 68.1254 110.965 68.048 110.965 67.9707C110.736 67.74 110.621 67.78 110.621 68.0853C110.621 68.24 110.696 68.24 110.851 68.0853V68.2ZM110.507 64.5213C110.428 64.5213 110.391 64.5614 110.391 64.6361C110.391 64.7134 110.428 64.7506 110.507 64.7506V64.5213ZM110.391 38.0814C110.544 38.0814 110.621 38.044 110.621 37.9666C110.621 37.892 110.544 37.852 110.391 37.852C110.237 37.852 110.161 37.892 110.161 37.9666C110.161 38.044 110.237 38.0814 110.391 38.0814ZM110.047 83.4894V83.3747C110.047 83.2987 110.007 83.2601 109.932 83.2601C109.853 83.2601 109.816 83.2987 109.816 83.3747V83.4894H110.047ZM108.437 77.856C108.589 77.704 108.667 77.5894 108.667 77.512C108.667 77.3587 108.609 77.3388 108.495 77.4548C108.38 77.5694 108.321 77.704 108.321 77.856C108.321 78.0106 108.36 78.0494 108.437 77.9707V77.856ZM107.977 40.2668C108.207 40.4961 108.321 40.4961 108.321 40.2668H108.092C108.015 40.2668 107.977 40.3053 107.977 40.3813V40.2668ZM107.977 63.6014C108.129 63.6014 108.207 63.5267 108.207 63.3721C108.129 63.2201 108.052 63.1427 107.977 63.1427C107.9 63.1427 107.863 63.2201 107.863 63.3721C107.863 63.5267 107.937 63.6014 108.092 63.6014H107.977ZM107.747 32.2187C107.823 32.2187 107.863 32.2586 107.863 32.3346C107.863 32.2586 107.9 32.2187 107.977 32.2187H107.747ZM107.632 43.14C107.707 43.14 107.747 43.1801 107.747 43.2547C107.747 43.1801 107.785 43.14 107.863 43.14H107.632ZM160.396 39.3467C160.396 39.576 160.377 40.056 160.339 40.784C160.299 41.5133 160.261 42.2601 160.224 43.0254C160.185 43.7921 160.127 44.7893 160.052 46.0133V46.8187C160.052 47.2027 160.032 47.8147 159.993 48.6574C159.955 49.5014 159.897 50.3828 159.821 51.3014C159.745 52.2214 159.668 53.1414 159.592 54.0614C159.515 54.98 159.437 55.6707 159.363 56.1294C159.207 56.9734 159.112 57.7013 159.075 58.3133C159.035 58.928 158.977 59.464 158.901 59.924C158.901 60.3827 158.825 60.9974 158.672 61.7627C158.672 62.0694 158.653 62.4347 158.615 62.8547C158.575 63.2773 158.557 63.6787 158.557 64.0614C158.557 64.3694 158.537 64.924 158.5 65.7293C158.46 66.5333 158.443 67.3574 158.443 68.2C158.443 69.044 158.48 70.1173 158.557 71.4186C158.632 71.5733 158.672 72.128 158.672 73.0853V76.2467C158.672 77.3961 158.653 78.4707 158.615 79.4653C158.575 80.4627 158.519 81 158.443 81.0747V81.3053C158.519 81.3827 158.557 81.9001 158.557 82.8574C158.557 83.8161 158.519 84.3333 158.443 84.4093C158.288 84.4093 158.288 84.4867 158.443 84.6387C158.595 84.7933 158.615 85.156 158.5 85.7306C158.385 86.3053 158.213 86.7853 157.983 87.168C157.676 87.628 157.523 87.9347 157.523 88.0881C157.368 88.4721 157.1 88.7773 156.719 89.0067C156.488 89.1613 156.257 89.2373 156.028 89.2373C155.799 89.2373 155.299 89.1987 154.533 89.1227L153.384 89.0067L153.269 88.6628L153.155 88.3174L153.04 88.7773C152.961 89.084 152.771 89.276 152.465 89.352C152.235 89.352 151.891 89.4293 151.429 89.5827C150.585 89.812 149.781 89.812 149.016 89.5827C148.556 89.4293 148.172 89.352 147.867 89.352C147.636 89.352 147.137 89.2761 146.372 89.1227C145.605 88.9694 144.993 88.8547 144.532 88.7773C144.073 88.7013 143.344 88.6628 142.349 88.6628H140.509V89.0067C140.509 89.1613 140.585 89.6214 140.739 90.3867C140.815 90.6934 140.855 91.1734 140.855 91.8241V96.9386C140.929 97.324 140.988 97.8214 141.027 98.4334C141.064 99.0481 141.101 99.64 141.141 100.216C141.179 100.791 141.199 101.289 141.199 101.709V102.457C140.969 102.687 140.929 102.956 141.084 103.261C141.236 103.416 141.313 266.597 141.313 267.899C141.389 269.203 141.352 269.988 141.199 270.256C141.044 270.525 140.469 270.735 139.475 270.888C139.32 270.965 139.111 271.023 138.843 271.06C138.573 271.1 138.363 271.157 138.211 271.232C137.365 271.537 136.947 271.5 136.947 271.117C136.947 270.888 136.907 270.773 136.831 270.773C136.601 270.773 136.485 270.888 136.485 271.117C136.485 271.348 136.332 271.463 136.027 271.463H135.221C134.991 271.463 134.721 271.385 134.416 271.232C134.109 271.08 133.764 271.003 133.383 271.003C132.997 270.927 132.731 270.888 132.577 270.888C132.423 270.888 132.04 270.927 131.428 271.003H129.704C129.013 271.08 128.361 271.137 127.749 271.175C127.135 271.215 126.637 271.271 126.255 271.348C125.717 271.423 125.296 271.423 124.991 271.348C124.836 271.271 124.568 271.232 124.185 271.232C123.879 271.232 123.533 271.117 123.152 270.888C122.767 270.657 122.499 270.468 122.347 270.313C122.192 270.16 122.116 269.816 122.116 269.279C122.116 269.048 122.097 268.839 122.059 268.647C122.02 268.456 122.001 268.321 122.001 268.244C121.924 268.168 121.847 105.293 121.771 104.527C121.695 103.761 121.657 103.187 121.657 102.801V101.767C121.58 101.155 121.541 100.312 121.541 99.2373C121.541 98.1653 121.58 97.2081 121.657 96.3641C121.732 95.0614 121.789 94.0281 121.829 93.2601C121.867 92.4948 121.887 92.0347 121.887 91.8813V91.4214C121.887 90.9614 121.867 90.348 121.829 89.5827C121.789 88.8173 121.732 88.3573 121.657 88.2026C121.58 87.972 121.427 87.84 121.196 87.8C120.967 87.7626 120.392 87.7427 119.472 87.7427C119.088 87.7427 118.628 87.724 118.093 87.6854C117.556 87.6467 117.096 87.5894 116.713 87.512C116.329 87.4374 115.984 87.3973 115.679 87.3973H108.783C108.321 87.3973 108.015 87.4374 107.863 87.512C107.555 87.6667 107.325 87.724 107.172 87.6854C107.019 87.6467 106.751 87.512 106.368 87.2827C105.983 87.1307 105.735 86.92 105.621 86.6507C105.505 86.3827 105.371 85.9426 105.219 85.328C105.141 85.176 105.084 84.9453 105.045 84.6387C105.007 84.3333 104.949 84.064 104.873 83.8346C104.796 83.452 104.759 82.7414 104.759 81.7067V70.8441C104.759 70.1547 104.833 69.8094 104.988 69.8094C105.064 69.8094 105.064 69.772 104.988 69.6947C104.911 69.6187 104.873 69.3493 104.873 68.8906C104.873 68.4306 104.833 67.0506 104.759 64.7506C104.759 64.216 104.739 63.584 104.701 62.8547C104.661 62.128 104.643 61.4947 104.643 60.9587V52.3934C104.643 50.9001 104.661 49.4454 104.701 48.0254C104.739 46.6081 104.759 45.3641 104.759 44.2894V38.5413C104.833 37.9293 104.873 37.2774 104.873 36.5881V30.4946L105.333 30.0347C105.563 29.8053 105.868 29.6146 106.252 29.46C106.405 29.46 106.54 29.4427 106.655 29.4027C106.771 29.3653 106.865 29.3454 106.943 29.3454C107.248 29.2694 107.977 29.1934 109.127 29.1147C110.276 29.0401 111.521 29 112.863 29H116.829C118.131 29 119.128 29.0401 119.817 29.1147C120.2 29.1147 120.889 29.1347 121.887 29.1733C122.881 29.212 123.956 29.2306 125.105 29.2306C126.255 29.2306 127.328 29.212 128.324 29.1733C129.319 29.1347 130.049 29.1147 130.508 29.1147C130.813 29.1147 131.581 29.0974 132.807 29.0588C134.032 29.0201 135.355 29 136.773 29C138.191 29 139.512 29.0201 140.739 29.0588C141.964 29.0974 142.768 29.1147 143.153 29.1147C143.459 29.1147 144.205 29.1347 145.395 29.1733C146.583 29.212 147.867 29.2306 149.247 29.2306C152.771 29.2306 154.649 29.2694 154.879 29.3454C155.261 29.5 155.683 29.7094 156.144 29.9774C156.603 30.2467 156.908 30.4574 157.063 30.6094C157.216 30.9174 157.56 31.3387 158.097 31.8747C158.709 32.4893 159.132 33.1787 159.363 33.944C159.592 34.7107 159.783 35.8227 159.937 37.2773V39.116L160.396 39.3467Z" fill="#212322"/>
<path d="M199.965 170.178L199.832 170.025C199.745 170.026 199.704 170.081 199.707 170.184C199.712 170.494 199.799 170.546 199.968 170.334L199.965 170.178ZM199.632 172.988C199.715 172.884 199.757 172.778 199.756 172.673L198.968 172.221C198.884 172.328 198.911 172.561 199.047 172.921C199.184 173.284 199.295 173.461 199.382 173.46L199.635 173.142L199.632 172.988ZM198.665 156.813C198.579 156.813 198.536 156.765 198.533 156.66C198.536 156.765 198.492 156.817 198.407 156.818H198.665V156.813ZM197.785 151.537C197.783 151.434 197.738 151.382 197.652 151.384C197.566 151.385 197.523 151.44 197.525 151.542H197.785V151.537ZM197.612 175.674C197.524 175.676 197.48 175.625 197.479 175.521C197.48 175.625 197.437 175.677 197.352 175.68H197.612V175.674ZM196.529 173.36C196.611 173.152 196.608 173.046 196.523 173.048C196.348 173.048 196.22 173.108 196.137 173.212C196.052 173.318 196.055 173.422 196.143 173.524C196.235 173.833 196.364 173.83 196.532 173.51L196.529 173.354V173.36ZM196.368 171.806C196.277 171.601 196.188 171.498 196.104 171.5C196.016 171.501 195.976 171.606 195.98 171.813C195.984 172.022 196.071 172.122 196.245 172.12C196.417 172.12 196.503 172.012 196.499 171.804H196.368V171.806ZM188.008 102.528C188.097 102.736 188.185 102.785 188.271 102.678C188.353 102.574 188.395 102.418 188.391 102.209C188.38 101.692 188.245 101.434 187.987 101.438C187.812 101.438 187.773 101.598 187.865 101.909C188.043 102.114 188.133 102.318 188.137 102.525H188.008V102.528ZM188.273 181.929C188.361 182.033 188.471 182.082 188.601 182.08C188.729 182.08 188.792 181.973 188.788 181.764L188.783 181.453C188.693 181.352 188.587 181.354 188.459 181.466C188.332 181.573 188.311 181.678 188.4 181.778L188.273 181.936V181.929ZM186.496 104.738C186.582 104.738 186.624 104.684 186.623 104.58C186.62 104.477 186.575 104.425 186.491 104.426C186.403 104.428 186.361 104.482 186.364 104.585C186.365 104.689 186.41 104.74 186.496 104.738ZM185.411 102.268C185.409 102.165 185.363 102.113 185.278 102.116C185.104 102.116 185.021 102.225 185.025 102.432C184.943 102.642 184.967 102.744 185.096 102.741C185.225 102.741 185.331 102.634 185.415 102.424L185.411 102.268ZM184.861 100.722C184.865 100.93 184.954 101.032 185.128 101.028C185.3 101.028 185.384 100.921 185.38 100.712C185.376 100.505 185.329 100.401 185.244 100.402C185.157 100.402 185.073 100.51 184.992 100.72H184.861V100.722ZM184.872 120.962C184.873 121.066 184.936 120.961 185.06 120.648C185.183 120.333 185.243 120.125 185.241 120.021H184.983C184.808 120.021 184.66 120.132 184.536 120.341C184.409 120.553 184.433 120.708 184.609 120.806C184.781 120.806 184.871 120.906 184.875 121.113L184.872 120.957V120.962ZM183.986 122.069C184.252 122.376 184.38 122.322 184.372 121.906C184.369 121.805 184.281 121.753 184.109 121.756C183.851 121.756 183.808 121.866 183.986 122.069ZM183.879 116.622C184.051 116.622 184.138 116.566 184.135 116.461C184.134 116.36 184.044 116.308 183.872 116.312C183.699 116.312 183.615 116.37 183.616 116.472C183.619 116.577 183.705 116.625 183.879 116.622ZM183.712 134.53C183.885 134.53 183.971 134.476 183.968 134.37C183.967 134.269 183.792 134.218 183.448 134.225C183.101 134.225 182.931 134.34 182.935 134.546C182.937 134.652 183.025 134.805 183.204 135.008L183.469 135.314H183.728C183.813 135.313 183.811 135.212 183.721 135.004C183.455 134.596 183.493 134.385 183.84 134.378L183.712 134.536V134.53ZM181.347 132.865C181.432 132.865 181.475 132.761 181.471 132.552C181.467 132.345 181.399 132.19 181.267 132.088C181.136 131.989 181.027 132.041 180.945 132.25C180.863 132.461 180.867 132.641 180.956 132.796C181.045 132.949 181.175 132.973 181.347 132.865ZM179.96 128.221C180.305 128.32 180.48 128.265 180.475 128.056C180.469 127.745 180.252 127.697 179.824 127.913C179.652 128.021 179.653 128.125 179.831 128.224H179.96V128.221ZM179.387 125.43H179.128C179.13 125.534 179.215 125.584 179.389 125.581L179.387 125.425V125.43ZM178.397 134.48C178.309 134.38 178.244 134.381 178.204 134.48C178.161 134.585 178.187 134.689 178.275 134.79C178.363 134.893 178.407 134.892 178.404 134.79L178.397 134.48ZM177.792 123.437C177.964 123.437 178.051 123.381 178.048 123.277C178.047 123.174 177.959 123.122 177.787 123.126C177.612 123.126 177.528 123.185 177.529 123.286C177.532 123.392 177.617 123.441 177.792 123.437ZM176.965 140.736L176.963 140.581C176.961 140.478 176.915 140.426 176.831 140.428C176.743 140.428 176.701 140.484 176.704 140.585L176.707 140.741H176.965V140.736ZM176.123 130.788C176.124 130.893 176.168 130.942 176.255 130.941C176.34 130.941 176.383 130.888 176.382 130.782C176.291 130.577 176.201 130.476 176.116 130.477C176.029 130.478 176.031 130.582 176.123 130.788ZM174.62 133.465C174.699 133.152 174.651 132.894 174.475 132.689C174.205 132.176 173.902 132.13 173.566 132.552C173.484 132.864 173.489 133.124 173.58 133.329C173.943 134.256 174.291 134.302 174.62 133.465ZM172.984 96.4398C172.896 96.3398 172.831 96.3411 172.789 96.4398C172.748 96.5451 172.772 96.649 172.861 96.7503C172.948 96.853 172.993 96.8517 172.991 96.7503L172.984 96.4383V96.4398ZM173.011 190.014C173.096 190.013 173.139 189.961 173.137 189.857C173.135 189.754 173.089 189.702 173.004 189.704C172.917 189.705 172.876 189.76 172.879 189.862C172.88 189.966 172.924 190.017 173.011 190.014ZM170.885 134.628C170.883 134.526 170.837 134.473 170.752 134.474C170.579 134.474 170.495 134.584 170.499 134.79C170.501 134.896 170.544 134.946 170.631 134.944C170.803 134.944 170.889 134.837 170.885 134.628ZM170.255 122.34C170.169 122.446 170.129 122.602 170.133 122.809C170.221 122.912 170.352 122.961 170.525 122.957C170.697 122.957 170.783 122.85 170.779 122.641C170.776 122.538 170.687 122.385 170.511 122.178C170.419 121.974 170.332 121.976 170.251 122.178L170.255 122.334V122.34ZM169.401 131.698C169.316 131.805 169.36 131.856 169.535 131.852C169.707 131.852 169.876 131.742 170.045 131.53C170.216 131.425 170.173 131.372 169.913 131.377C169.655 131.377 169.44 131.49 169.272 131.701H169.401V131.698ZM169.213 135.284C169.125 135.285 169.085 135.39 169.089 135.597C169.093 135.806 169.14 136.012 169.231 136.217C169.323 136.528 169.496 136.524 169.75 136.204C169.832 136.101 169.828 135.892 169.737 135.581C169.648 135.481 169.604 135.377 169.601 135.273L169.468 135.12L169.213 135.281V135.284ZM168.923 133.732C168.837 133.838 168.8 134.046 168.805 134.357C168.985 134.77 169.071 134.664 169.059 134.041C169.052 133.729 169.007 133.68 168.927 133.888L168.923 133.732ZM168.921 140.272C168.917 140.065 168.872 139.988 168.788 140.041C168.701 140.096 168.617 140.226 168.536 140.436C168.453 140.645 168.497 140.748 168.672 140.744C168.844 140.744 168.929 140.636 168.925 140.428L168.921 140.272ZM168.559 134.985C168.383 134.886 168.253 134.913 168.172 135.07C168.088 135.228 168.132 135.358 168.309 135.457C168.571 135.557 168.741 135.502 168.824 135.292C168.82 135.085 168.731 134.982 168.559 134.985ZM173.08 160.586L173.052 159.186C172.955 158.669 172.732 158.362 172.385 158.265C172.125 158.168 171.691 158.122 171.087 158.134C170.483 158.148 169.857 158.185 169.211 158.249C168.564 158.316 167.983 158.405 167.467 158.517C166.951 158.632 166.607 158.744 166.436 158.849C166.264 158.957 166.137 159.088 166.055 159.245C165.972 159.402 165.848 159.744 165.687 160.265C165.604 160.476 165.521 160.71 165.441 160.97C165.36 161.232 165.235 161.468 165.067 161.678C164.732 162.308 164.568 162.676 164.57 162.778C164.572 162.882 164.489 163.144 164.327 163.561C164.243 163.772 164.159 163.953 164.077 164.11C163.993 164.269 163.91 164.453 163.83 164.661C163.663 165.08 163.584 165.393 163.588 165.6C163.505 165.81 163.979 165.645 165.004 165.105C165.859 164.674 166.372 164.454 166.547 164.452C166.719 164.452 167.019 164.418 167.452 164.356C167.881 164.297 168.356 164.209 168.872 164.094C171.024 163.741 172.317 163.613 172.753 163.706C172.925 163.706 173.011 163.624 173.007 163.469C173.004 163.313 172.996 162.924 172.984 162.301L172.944 160.277L173.08 160.586ZM159.623 161.63L159.619 161.474C159.617 161.372 159.572 161.32 159.487 161.321C159.4 161.322 159.359 161.377 159.36 161.478L159.363 161.634H159.623V161.63ZM157.74 105.458C158.005 105.765 158.132 105.661 158.123 105.14L158.116 104.829C158.029 104.83 157.966 104.909 157.927 105.066C157.886 105.222 157.909 105.353 157.999 105.454H157.74V105.458ZM157.668 167.74C157.753 167.738 157.798 167.686 157.795 167.582C157.794 167.48 157.748 167.428 157.663 167.429C157.576 167.43 157.535 167.485 157.536 167.588C157.539 167.692 157.581 167.742 157.668 167.74ZM156.867 166.51C157.044 166.717 157.129 166.661 157.123 166.35C157.119 166.144 157.031 166.04 156.859 166.044C156.599 166.044 156.556 166.154 156.735 166.357L156.867 166.51ZM156.511 161.534C156.423 161.534 156.381 161.592 156.384 161.693C156.389 162.005 156.476 162.057 156.646 161.844C156.642 161.637 156.595 161.533 156.511 161.534ZM156.533 169.32C156.881 169.522 156.969 169.52 156.792 169.32C156.791 169.218 156.703 169.166 156.531 169.169C156.444 169.17 156.444 169.225 156.533 169.325M155.709 173.545C155.621 173.445 155.556 173.446 155.515 173.545C155.473 173.65 155.497 173.754 155.585 173.854C155.673 173.958 155.717 173.957 155.716 173.854L155.709 173.545ZM153.828 176.696C154.083 176.484 154.163 176.222 154.071 175.913C153.979 175.602 153.759 175.452 153.415 175.458C152.981 175.472 152.792 175.732 152.847 176.248C152.899 176.768 153.143 177.074 153.577 177.168C153.663 177.166 153.791 177.062 153.96 176.849L153.828 176.696ZM150.224 178.012L150.355 178.01C150.352 177.908 150.328 177.854 150.287 177.856C150.241 177.856 150.223 177.91 150.224 178.012C150.227 178.117 150.27 178.168 150.358 178.166L150.224 178.012ZM150.251 166.178C150.247 165.972 150.199 165.817 150.112 165.714C149.935 165.512 149.804 165.462 149.721 165.566C149.636 165.673 149.639 165.829 149.729 166.033C149.912 166.55 150.129 166.546 150.377 166.02L150.251 166.178ZM149.516 174.912C149.684 174.702 149.64 174.598 149.38 174.604C149.033 174.604 148.864 174.718 148.868 174.925C148.785 175.136 148.809 175.238 148.939 175.236C149.068 175.236 149.216 175.128 149.385 174.914H149.516V174.912ZM147.84 142.405H148.099L147.836 142.254C147.663 142.254 147.579 142.313 147.58 142.414C147.584 142.624 147.672 142.724 147.845 142.721L147.84 142.41V142.405ZM148.531 184.118C148.527 183.912 148.479 183.757 148.392 183.654C148.303 183.553 148.216 183.556 148.132 183.654C148.048 183.76 148.007 183.865 148.009 183.968C148.011 184.072 148.077 184.121 148.207 184.12C148.336 184.12 148.441 184.064 148.528 183.957L148.531 184.113V184.118ZM147.731 189.584C147.903 189.584 147.989 189.526 147.987 189.422C147.985 189.32 147.896 189.269 147.724 189.272C147.551 189.272 147.467 189.33 147.468 189.433C147.471 189.537 147.556 189.586 147.731 189.584ZM143.392 139.397C143.339 138.984 143.236 138.374 143.259 137.818C143.281 137.314 143.213 136.816 143.248 136.294C143.28 135.776 143.208 135.2 143.189 134.953C143.195 134.482 143.303 133.996 143.292 133.476C143.288 133.269 143.42 132.168 143.455 131.7C143.49 131.232 143.496 129.909 143.573 129.386C143.7 127.102 143.622 127.812 143.691 126.876C143.766 126.357 143.875 125.465 143.948 124.737C144.019 124.01 143.972 122.788 144.051 122.372C144.199 121.122 144.085 121.209 144.171 121.102C144.171 120.4 144.291 119.902 144.332 119.364C144.24 119.054 144.457 118 144.495 117.584C144.528 117.17 144.564 115.857 144.594 115.545C144.619 115.278 144.76 114.24 144.781 113.814C144.769 113.461 144.896 112.566 144.882 111.838C144.948 110.904 145.263 109.74 145.256 109.428C145.251 109.117 145.433 107.364 145.603 107.15C145.684 106.942 145.389 106.285 145.361 105.232C145.341 104.45 145.101 104.141 145.216 103.884C145.383 103.51 145.367 103.185 145.417 103.006C145.509 102.81 145.541 102.58 145.591 102.43C145.643 102.272 145.683 102.121 145.677 101.898C145.753 101.484 145.651 101.43 145.688 101.064C145.724 100.701 145.96 100.07 146.043 99.8597C146.207 99.4424 146.584 98.769 146.731 98.6196C146.969 98.377 147.855 97.6944 148.024 97.4824C148.107 97.3784 149.809 96.3424 149.851 96.1851C149.891 96.0291 150.396 95.7917 150.479 95.581C150.558 95.2677 151.457 94.7503 151.997 94.3903C152.713 93.913 154.041 92.7383 154.353 92.617C154.813 92.4397 156.268 91.5331 156.353 91.4277C156.776 91.2651 157.392 90.7437 158.177 90.1357C158.619 89.7944 158.811 89.5276 159.163 88.9596C159.754 88.0063 160.327 87.0997 160.497 86.8877C160.581 86.7837 164.053 80.6797 164.144 80.297C164.407 79.1864 168.401 75.1384 168.636 74.7598C168.955 74.2438 169.592 73.7171 170.122 73.3358C170.544 73.0304 170.913 72.5984 171.172 72.5931C171.429 72.4864 171.556 72.0917 172.035 71.8864C172.491 71.6917 172.665 71.537 173.097 71.4237C173.527 71.313 174.009 70.957 174.397 70.8957C174.785 70.837 175.625 70.5758 175.797 70.4678C176.183 70.3744 177.334 70.0837 177.548 70.0797C177.907 70.0664 178.928 69.905 179.317 69.897C179.705 69.8836 180.105 69.8077 180.631 69.8784C180.92 69.9171 181.175 69.913 181.855 70.0544C182.172 70.1197 182.613 70.225 182.88 70.2917C183.181 70.4117 183.449 70.5584 183.72 70.713C183.98 70.713 184.084 70.893 184.344 70.9383C184.604 70.9863 184.891 71.281 185.064 71.277C185.477 71.297 185.981 71.8251 186.175 71.9624C186.38 72.1544 187.3 72.5544 187.41 72.6904C187.468 72.7611 187.959 74.217 188.663 74.825C189.104 75.337 190.923 80.6464 191.108 81.2117C191.292 81.7797 193.745 91.1598 194.033 92.6064C194.127 93.0211 194.199 93.4077 194.251 93.769C194.3 94.133 194.371 94.4171 194.462 94.6211C194.551 94.8291 194.621 95.1131 194.673 95.4744C194.723 95.8384 194.793 96.1717 194.887 96.4824C194.979 96.7917 195.074 97.1784 195.17 97.6437C195.263 98.109 195.357 98.4956 195.452 98.8063C195.64 99.6343 195.743 100.462 195.76 101.292C195.776 102.124 195.877 102.95 196.067 103.776C196.256 104.605 196.359 105.433 196.375 106.261C196.393 107.196 196.489 107.765 196.668 107.969C196.755 108.072 196.805 108.381 196.816 108.9C196.823 109.21 196.916 109.677 197.103 110.296C197.192 110.502 197.241 110.736 197.247 110.993C197.251 111.253 197.256 111.486 197.26 111.693C197.271 112.214 197.32 112.576 197.411 112.781C197.591 113.193 197.693 113.969 197.716 115.11C197.736 116.148 197.838 116.976 198.024 117.596C198.208 118.214 198.304 118.68 198.311 118.99C198.316 119.302 198.367 119.717 198.465 120.233C198.56 120.753 198.709 121.785 198.915 123.338C199.004 123.546 199.052 123.778 199.057 124.037C199.063 124.296 199.068 124.53 199.072 124.737C199.08 125.153 199.173 125.566 199.355 125.977C199.535 126.389 199.633 126.96 199.648 127.684C199.749 128.514 199.805 129.109 199.812 129.472C199.82 129.836 199.873 130.43 199.977 131.258C200.079 132.088 200.135 132.684 200.141 133.045C200.149 133.41 200.157 133.85 200.168 134.369C200.175 134.68 200.228 135.25 200.332 136.078C200.433 136.908 200.531 137.476 200.624 137.785L200.768 145.1C200.787 146.034 200.885 146.708 201.067 147.118C201.245 147.426 201.253 147.842 201.091 148.364L201.119 149.764C201.125 150.076 201.083 150.232 200.999 150.233C200.911 150.233 200.871 150.341 200.875 150.548C200.877 150.652 200.92 150.702 201.008 150.701C201.091 150.597 201.16 150.802 201.215 151.318C201.267 151.838 201.301 152.461 201.316 153.185L201.347 154.742C201.348 154.846 201.378 155.286 201.438 156.064C201.495 156.841 201.536 157.801 201.559 158.941C201.714 162.469 201.801 164.725 201.821 165.709C201.841 166.697 201.896 167.397 201.992 167.808L202.014 168.897C201.931 169.109 201.919 169.653 201.981 170.533C202.041 171.414 202.116 171.958 202.207 172.164C202.388 172.576 202.488 173.248 202.505 174.182L202.564 177.138C202.668 178.072 202.724 178.693 202.731 179.004C202.737 179.316 202.696 179.525 202.613 179.629C202.44 179.629 202.444 179.842 202.625 180.252C202.715 180.458 202.765 180.769 202.773 181.184C202.777 181.392 202.783 181.649 202.789 181.961C202.795 182.272 202.844 182.582 202.938 182.892C203.125 183.721 203.231 184.653 203.251 185.689L202.882 186.63C202.983 187.46 202.995 188.082 202.917 188.498C202.839 188.916 202.599 189.854 202.195 191.314C202.112 191.526 201.729 194.644 201.264 195.066C200.796 195.492 200.423 195.572 199.971 195.54C199.491 195.508 199.205 195.614 198.688 195.676C198.171 195.74 198.191 195.706 197.813 195.69C197.421 195.69 197.291 195.67 197.052 195.677C196.692 195.693 196.4 195.758 195.968 195.766C195.276 195.78 195.105 195.752 194.773 195.782C194.517 195.782 193.883 195.797 193.152 195.914C192.419 196.03 191.535 196.07 190.757 196.086L189.007 195.886C188.49 195.998 188.247 195.916 188.161 195.917C188.075 195.918 188.284 195.978 187.839 195.917C187.633 195.889 187.387 195.808 187.302 195.809C187.215 195.809 186.733 196.086 186.564 196.101C186.239 196.13 185.847 196.181 185.243 196.193C184.122 196.317 184.331 196.193 182.905 196.224C181.481 196.252 180.593 196.284 180.161 196.19C179.464 195.994 178.781 196.078 178.264 196.089C177.744 195.994 177.072 196.201 176.332 195.852C175.591 195.504 175.075 193.973 174.636 193.565C173.931 192.957 173.487 192.241 173.297 191.412C173.296 191.31 173.249 191.206 173.161 191.104C173.075 191.105 172.942 190.901 172.76 190.488C172.579 190.078 172.487 189.769 172.483 189.56C172.482 189.457 172.565 189.402 172.739 189.4C172.913 189.5 172.999 189.448 172.995 189.238C172.991 189.032 172.901 188.929 172.729 188.932C172.556 188.932 172.379 188.654 172.195 188.086C172.009 187.52 171.913 186.924 171.901 186.301C171.897 186.094 171.892 185.834 171.885 185.524C171.88 185.212 171.829 184.954 171.74 184.748C171.648 184.438 171.593 183.87 171.577 183.038C171.573 182.832 171.587 182.493 171.623 182.025C171.656 181.557 171.668 181.065 171.657 180.545C171.727 179.714 171.763 179.246 171.76 179.142C171.759 179.04 171.671 179.041 171.5 179.142C171.072 179.361 170.127 179.586 168.663 179.821C167.198 180.06 165.861 180.189 164.653 180.212L162.711 180.25C162.536 180.25 162.02 180.369 161.161 180.592C160.472 180.71 160.043 180.874 159.875 181.085C159.792 181.294 159.695 181.764 159.579 182.492C159.464 183.221 159.249 184.47 158.94 186.241C158.705 187.492 158.388 188.952 157.99 190.62C157.907 190.83 157.848 191.116 157.812 191.478C157.775 191.845 157.717 192.234 157.64 192.65C157.569 193.484 157.411 194.109 157.16 194.528C156.232 195.792 154.216 196.454 151.107 196.516L147.609 196.584C146.832 196.6 146.333 196.609 146.12 196.613C145.903 196.613 145.664 196.518 145.401 196.316C144.961 196.013 144.652 195.606 144.469 195.089L144.066 194.318L143.83 182.334C143.826 182.128 143.529 181.398 143.629 179.89C143.729 178.385 143.624 177.034 143.775 175.889C143.919 174.433 143.76 172.186 143.971 169.69C144.18 167.196 143.992 164.158 144.137 162.701C144.121 161.872 144.2 160.932 144.144 159.706C144.097 158.657 143.843 157.302 143.869 156.418C143.896 155.538 143.843 155.14 143.913 154.306C143.989 153.89 143.967 152.969 144.001 152.501C144.035 152.034 143.89 151.71 143.972 151.501C144.132 150.874 144.008 150.72 143.992 149.888C143.983 149.474 143.983 148.912 144.019 148.546C144.055 148.182 143.972 147.529 143.968 147.32C144.132 146.904 143.884 146.824 143.865 145.89C143.847 144.956 143.674 144.676 143.84 144.256C143.795 143.874 143.768 143.214 143.764 143.005C143.759 142.798 143.687 143.006 143.677 142.068C143.673 141.672 143.627 141.484 143.605 141.21C143.599 141.158 143.685 141.106 143.596 140.898C143.42 140.8 143.543 140.584 143.501 140.384" fill="#212322"/>
<path d="M247.998 125.842C247.924 125.842 247.892 125.897 247.897 125.99C247.974 126.079 248.07 126.098 248.178 126.042C248.285 125.99 248.334 125.87 248.322 125.68C248.31 125.492 248.252 125.167 248.149 124.702C248.046 124.238 247.957 124.007 247.884 124.011L247.902 124.292C247.92 124.575 247.968 124.762 248.048 124.848C248.15 125.315 248.165 125.549 248.092 125.553L247.998 125.842ZM250.94 160.563C251.15 160.363 251.156 160.175 250.96 159.997C250.764 159.822 250.442 159.701 249.993 159.634C249.692 159.559 249.544 159.568 249.55 159.66C249.556 159.755 249.709 159.84 250.01 159.915C250.164 160 250.3 160.087 250.416 160.172C250.533 160.26 250.516 160.307 250.369 160.316C250.22 160.33 250.226 160.42 250.386 160.598C250.477 160.875 250.698 160.86 251.05 160.556H250.94V160.563ZM247.558 127.706C247.485 127.706 247.445 127.667 247.44 127.573C247.434 127.479 247.466 127.43 247.541 127.424C247.614 127.424 247.656 127.466 247.661 127.558C247.666 127.653 247.632 127.702 247.558 127.706ZM250.246 172.619L250.468 172.604C250.45 172.323 250.34 172.33 250.136 172.626C250.141 172.72 250.181 172.765 250.256 172.759L250.246 172.619ZM247.369 126.446C247.13 126.178 246.96 126.118 246.857 126.266C246.756 126.414 246.828 126.67 247.072 127.03C247.242 127.397 247.332 127.627 247.337 127.72C247.349 127.908 247.408 127.953 247.512 127.85C247.617 127.751 247.697 127.556 247.754 127.27C247.73 126.896 247.638 126.619 247.48 126.439L247.369 126.452V126.446ZM245.638 125.423C245.633 125.331 245.592 125.286 245.518 125.29C245.37 125.303 245.304 125.398 245.314 125.584C245.321 125.679 245.358 125.702 245.429 125.649C245.5 125.598 245.53 125.479 245.518 125.29L245.638 125.423ZM245.174 123.332C245.18 123.427 245.256 123.468 245.405 123.459C245.552 123.446 245.622 123.399 245.617 123.304L245.396 123.319L245.174 123.332ZM245.368 131.799C245.294 131.799 245.264 131.9 245.274 132.088C245.281 132.183 245.321 132.226 245.394 132.222C245.468 132.222 245.5 132.123 245.488 131.934C245.482 131.841 245.441 131.795 245.368 131.799ZM244.396 121.545C244.321 121.545 244.289 121.599 244.294 121.691C244.3 121.786 244.338 121.83 244.413 121.826C244.486 121.826 244.521 121.773 244.516 121.678C244.509 121.586 244.469 121.539 244.396 121.545ZM243.233 124.302C243.03 124.597 243.074 124.735 243.37 124.716H243.481C243.464 124.435 243.386 124.394 243.252 124.59L243.233 124.309V124.302ZM243.596 131.91C243.442 131.827 243.35 131.833 243.32 131.927C243.288 132.025 243.349 132.115 243.504 132.198L243.725 132.185L243.845 132.318C244.009 132.591 244.117 132.538 244.168 132.157C244.229 131.966 244.217 131.778 244.133 131.594C244.046 131.411 243.972 131.417 243.912 131.607C243.917 131.702 243.845 131.754 243.698 131.762L243.596 131.91ZM243.252 129.952L243.244 129.812C243.237 129.719 243.197 129.674 243.124 129.678C243.049 129.678 243.016 129.734 243.022 129.826L243.03 129.967L243.252 129.952ZM240.258 85.4832C240.11 85.4965 240.049 85.6872 240.073 86.0605C240.09 86.3418 240.154 86.4791 240.265 86.4724C240.376 86.4724 240.458 86.3192 240.516 86.0325C240.565 85.6538 240.52 85.5151 240.378 85.6178L240.258 85.4832ZM242.498 123.216C242.35 123.23 242.284 123.324 242.294 123.512C242.306 123.702 242.349 123.791 242.424 123.786C242.497 123.786 242.565 123.686 242.628 123.491C242.616 123.304 242.536 123.214 242.389 123.223L242.498 123.21V123.216ZM241.826 123.118C241.634 123.602 241.685 123.833 241.98 123.814L242.092 123.801L242.074 123.519C242.062 123.332 242.018 123.239 241.945 123.245C241.87 123.245 241.802 123.348 241.741 123.54L241.826 123.111V123.118ZM241.786 129.621C241.644 129.725 241.649 129.819 241.804 129.902C242.178 129.974 242.286 129.92 242.128 129.74C242.048 129.652 241.933 129.611 241.786 129.621ZM238.5 87.5712C238.42 87.4832 238.329 87.5111 238.228 87.6591C238.125 87.8071 238.113 87.9271 238.193 88.0151C238.284 88.2911 238.394 88.2844 238.526 87.9938C238.661 87.7978 238.656 87.7032 238.508 87.7125L238.5 87.5712ZM237.025 87.0978C236.945 87.0098 236.91 87.0592 236.922 87.2459C237.008 87.4312 237.089 87.5417 237.166 87.5844C237.241 87.6284 237.276 87.5552 237.264 87.3658L237.025 87.0978ZM237.99 122.226C237.997 122.321 238.11 122.359 238.332 122.346C238.553 122.332 238.661 122.279 238.656 122.185C238.644 121.998 238.564 121.907 238.416 121.916C238.268 121.93 238.201 122.025 238.213 122.213L237.99 122.226ZM238.981 138.132C238.92 138.327 238.996 138.369 239.213 138.259C239.285 138.259 239.357 138.204 239.425 138.104C239.186 137.838 239.004 137.898 238.88 138.281L238.981 138.132ZM240.653 172.086L240.644 171.944C240.638 171.852 240.597 171.807 240.525 171.811C240.45 171.811 240.417 171.867 240.422 171.959L240.432 172.099L240.653 172.086ZM238.061 137.624C238.068 137.719 238.142 137.762 238.292 137.753C238.438 137.739 238.51 137.692 238.504 137.596C238.492 137.41 238.412 137.321 238.265 137.33C238.116 137.343 238.049 137.438 238.061 137.624ZM236.665 133.048C236.509 132.966 236.44 133.017 236.452 133.203C236.464 133.393 236.526 133.506 236.64 133.545C236.753 133.586 236.841 133.51 236.904 133.317C236.897 133.225 236.814 133.087 236.656 132.908L236.665 133.048ZM235.362 124.651C235.288 124.651 235.256 124.706 235.261 124.798C235.278 125.079 235.354 125.123 235.492 124.926L235.372 124.791L235.362 124.651ZM237.914 174.518C238.197 174.313 238.229 174.215 238.008 174.228C237.637 174.252 237.462 174.404 237.48 174.686C237.492 174.875 237.636 174.818 237.914 174.518ZM234.109 133.067C234.114 133.16 234.153 133.204 234.228 133.2C234.301 133.2 234.336 133.147 234.33 133.053L234.109 133.067ZM236.864 168.366C237.134 167.972 237.05 167.789 236.608 167.815L236.054 167.85C235.826 167.771 235.716 167.779 235.721 167.871C235.67 168.251 235.833 168.478 236.208 168.547C236.122 168.364 236.134 168.247 236.242 168.192C236.35 168.139 236.446 168.206 236.532 168.386C236.537 168.481 236.573 168.478 236.642 168.386L236.864 168.372V168.366ZM214.364 181.921C214.437 181.921 214.469 181.82 214.457 181.632C214.445 181.446 214.402 181.353 214.329 181.357C214.254 181.357 214.226 181.505 214.245 181.787C214.256 181.975 214.298 182.066 214.373 182.06L214.364 181.921ZM213.69 181.82C213.617 181.82 213.584 181.877 213.589 181.969C213.596 182.063 213.634 182.107 213.709 182.102L213.69 181.82ZM205.624 91.5978C205.617 91.5058 205.541 91.4618 205.393 91.4711C205.244 91.4845 205.137 91.5364 205.07 91.6324C204.933 91.8311 205.049 91.9165 205.42 91.8938L205.513 91.6059L205.624 91.5926V91.5978ZM202.161 103.826L202.033 103.551C202.04 103.646 202.081 103.738 202.161 103.826ZM200.665 101.235L200.888 101.22C200.869 100.939 200.76 100.946 200.554 101.242C200.561 101.335 200.6 101.38 200.674 101.375L200.665 101.235ZM252.837 161.299C252.854 161.58 252.537 161.715 252.322 162C252.206 162.155 251.794 162.82 251.636 163.095L251.213 163.725C251.066 163.97 250.769 164.22 250.378 164.924C250.013 165.583 249.833 165.51 249.5 166.095C249.302 166.484 249.113 166.91 248.842 167.302C248.569 167.697 247.928 168.83 247.781 168.839C247.786 168.934 247.122 170.005 247.049 170.01C246.974 170.01 246.421 170.865 246.354 170.961C246.217 171.159 245.865 171.856 245.718 171.866C245.497 171.879 245.533 172.38 245.257 172.68C244.904 172.986 244.925 173.171 244.649 173.542C244.378 173.904 244.133 174.021 243.569 175.149C243.401 175.483 242.5 176.595 242.206 177.307C241.952 177.925 241.704 178.418 241.56 178.56L236.448 186.07L232.605 191.812L230.896 193.614C230.438 193.954 229.632 194.479 229.01 194.806C228.37 195.14 226.37 195.778 225.933 195.898C225.489 195.925 223.061 195.985 222.806 196.046C222.549 196.111 221.352 195.935 221.168 195.947C220.982 195.961 219.901 195.933 219.68 195.947C219.458 195.961 218.822 195.985 218.38 196.011L217.317 196.059L215.713 195.894C215.196 195.926 214.046 195.975 213.445 196.004C213.233 196.059 212.78 196.14 211.894 196.195C211.23 196.236 209.869 196.373 209.682 196.337C209.668 196.337 207.349 196.36 207.325 196.359C206.418 196.308 206.384 192.947 206.224 192.055C205.545 188.282 205.972 185.414 205.722 184.347C205.63 184.071 205.533 181.568 205.473 181.195C205.412 180.823 205.474 178.762 205.389 178.576C205.205 178.023 205.174 177.465 205.157 177.183C205.14 176.902 205.226 176.532 205.221 176.131C205.226 175.882 204.948 175.607 204.878 175.093C204.809 174.581 204.806 174.227 204.868 174.032L204.772 172.484C204.713 171.547 204.745 170.886 204.87 170.5C204.988 170.022 205.24 169.607 205.626 169.251C206.012 168.899 206.352 168.712 206.648 168.694C207.46 168.643 208.138 168.837 208.685 169.274C209.612 169.875 210.48 170.15 211.293 170.099C211.588 170.082 211.964 170.152 212.418 170.312C213.178 170.642 213.784 170.817 214.229 170.835C214.676 170.857 215.224 170.751 215.877 170.52C216.381 170.302 216.912 170.174 217.465 170.139C218.018 170.104 218.413 170.175 218.645 170.348C218.798 170.434 219.02 170.419 219.309 170.307C219.882 169.989 220.161 169.688 220.142 169.407C220.108 168.844 219.513 168.223 218.36 167.539C218.052 167.371 217.782 167.201 217.549 167.025C217.316 166.851 217.158 166.72 217.08 166.63C216.92 166.452 216.672 166.327 216.333 166.253C215.996 166.181 215.756 166.196 215.614 166.298C215.54 166.298 215.317 166.298 214.945 166.268C214.572 166.246 214.2 166.222 213.829 166.197C213.456 166.174 213.082 166.127 212.709 166.055C212.333 165.986 212.105 165.905 212.026 165.815C211.946 165.727 211.796 165.687 211.574 165.702C211.353 165.715 210.864 165.604 210.109 165.368C209.353 165.134 208.748 164.936 208.293 164.775C207.69 164.626 207.188 164.279 206.784 163.739C206.629 163.655 206.532 163.567 206.489 163.474C206.445 163.385 206.384 163.294 206.306 163.203C206.225 163.115 206.184 163.023 206.177 162.928L205.665 161.83C205.321 161.099 205.145 160.639 205.133 160.45C205.122 160.263 205.03 159.986 204.86 159.619C204.688 159.255 204.582 158.743 204.542 158.084C204.352 157.439 204.218 157.07 204.14 156.979C203.98 156.802 203.894 156.619 203.882 156.43C203.872 156.243 203.842 155.775 203.796 155.022L202.882 140.382L202.754 140.107C202.669 139.926 202.604 139.459 202.556 138.707C202.509 137.956 202.446 136.359 202.369 133.914C202.274 132.414 202.184 130.675 202.1 128.702C202.013 126.728 201.916 124.851 201.804 123.067C201.693 121.286 201.576 119.715 201.454 118.355C201.332 116.998 201.26 116.13 201.237 115.754L201.082 113.268C201.052 112.784 201.005 112.3 200.936 111.82C200.869 111.352 200.832 111.024 200.82 110.834C200.778 110.179 200.792 109.8 200.86 109.702C200.914 109.415 200.904 109.228 200.825 109.138C200.745 109.05 200.684 108.653 200.64 107.949C200.596 107.245 200.548 106.47 200.494 105.626C200.442 104.782 200.412 104.006 200.405 103.299C200.398 102.594 200.429 102.193 200.497 102.093L200.418 100.826C200.454 99.0351 199.944 98.4139 200.153 98.2112C200.294 98.1099 200.06 97.5059 200.054 97.4112C200.048 97.3192 200.184 96.5165 200.037 96.5245C199.962 96.5245 199.509 94.8512 199.542 94.1899C199.501 93.5339 198.558 89.9258 198.682 89.5405C198.744 89.3485 196.73 72.3218 196.649 71.6604C196.594 71.2084 197.46 67.2871 198.46 66.6725C198.918 66.3898 199.344 66.1632 199.784 66.0939C200.209 66.0272 200.649 66.0766 200.724 66.0712L201.417 66.0484L201.821 66.1391C201.962 66.0364 202.05 66.1125 202.29 66.0939C202.512 66.0779 202.672 66.0939 202.962 66.0712C203.132 66.0579 203.4 66.0299 203.75 66.0312C204.06 66.0312 204.449 66.0459 204.741 66.1272C204.909 66.1739 205.324 66.1419 205.654 66.1272C205.929 66.1139 206.321 66.1765 206.606 66.1765C206.893 66.1952 207.577 66.1632 207.754 66.1632C208.374 66.1632 209.286 66.1805 209.442 66.2631C209.736 66.2458 210.706 66.4058 210.922 66.2978C211.285 66.1831 212.208 66.3419 212.368 66.3152C212.48 66.2712 212.856 66.3831 212.986 66.3325C213.053 66.2351 213.368 66.4698 213.56 66.4285C213.966 66.3432 213.952 66.4124 214.462 66.2858C214.832 66.2618 215.11 66.2152 215.384 66.1472C215.489 66.1206 215.36 66.2472 216.166 66.1005C216.973 65.9579 217.046 66.0365 217.196 66.0271L217.701 66.0792C218.21 65.9552 218.413 66.0938 218.418 66.1858C218.437 66.4685 218.385 66.2779 218.738 65.9739C218.805 65.8766 218.922 66.1884 219.03 66.1324C219.14 66.0804 219.266 66.0712 219.564 66.0525C219.857 66.0352 219.556 66.1365 220.069 66.0525C220.222 66.0285 220.501 66.0285 220.893 65.9472L221.294 66.0284C221.366 66.0284 221.518 66.0125 222.18 65.9231C222.841 65.8365 222.528 66.0045 223.302 65.9565C224.078 65.9085 223.913 65.9565 224.69 65.9565C225.469 65.9565 226.046 66.3059 226.342 66.2872C226.717 66.3592 227.654 66.8591 228.028 66.8818C228.4 66.9071 229.294 67.8538 229.516 67.8404L230.433 68.5218L231.052 69.0978C231.668 69.5844 231.882 70.3244 232.221 70.3964C232.558 70.4698 233.18 71.7258 233.192 71.9138C233.197 72.0072 234.101 72.9351 234.19 73.1191C234.528 73.8218 235.296 75.0404 235.42 75.2298C235.628 75.5484 236.644 77.1432 237.102 77.8232C237.405 78.2712 237.813 78.8724 237.973 79.0497C238.052 79.1391 238.6 80.1299 238.749 80.1205L239.646 81.6005C239.953 81.7712 240.312 82.6791 240.466 82.7631C240.618 82.8485 241.04 83.6712 241.285 84.0312C241.694 84.6659 242.166 85.3952 242.34 85.6472C242.634 86.0139 243.054 86.8085 243.398 87.2538C243.534 87.4298 244.105 88.2738 244.425 88.6298C244.509 88.8152 244.733 89.2552 244.941 89.5672C245.173 89.9192 245.785 90.3511 246.101 90.9177C246.374 91.4097 247.102 92.5631 247.91 93.9645C248.634 95.2205 250.836 97.9898 251.49 99.2711C251.877 100.027 252.514 100.673 252.945 101.427C253.32 102.082 254.544 103.409 254.562 103.69C254.597 104.253 256.228 106.099 256.61 106.762C257.418 108.163 259.452 110.866 260.813 113.337C262.269 115.978 266.094 120.612 267.345 123.688L270.953 129.188L270.925 130.815C271.001 132.037 271.012 133.141 270.56 133.975C269.884 135.225 268.566 137.29 268.646 137.378L267.222 139.593C266.793 140.293 265.942 141.647 265.273 142.727C264.984 143.291 264.198 144.157 263.689 144.946C262.661 146.539 262.552 146.135 262.096 147.104C261.958 147.303 260.438 149.803 260.348 150.138C260.257 150.475 258.684 152.565 258.548 152.761C258.169 153.822 251.766 152.406 250.874 152.366C250.653 152.379 250.374 152.379 250.04 152.347C249.705 152.322 249.388 152.316 249.094 152.334L247.433 152.438C247.212 152.451 247.092 152.318 247.074 152.037C247.097 152.413 246.958 152.562 246.658 152.486L244.886 152.596C244.444 152.624 244.056 152.649 243.724 152.669C243.392 152.69 243.184 152.655 243.105 152.566C243.025 152.478 242.948 152.435 242.876 152.439C241.996 152.589 241.314 152.678 240.836 152.707C240.354 152.738 239.893 152.744 239.446 152.723C239.001 152.704 238.741 152.696 238.668 152.702C238.518 152.715 238.412 152.766 238.344 152.863C238.276 152.962 237.908 152.984 237.237 152.931C236.86 152.862 236.506 152.814 236.172 152.786C235.837 152.76 235.594 152.751 235.448 152.761C235.298 152.774 235.22 152.682 235.208 152.492C235.197 152.306 235.153 152.214 235.08 152.218C235.005 152.218 234.976 152.319 234.986 152.507C234.993 152.602 234.514 152.678 233.556 152.736C232.964 152.774 232.56 152.799 232.338 152.812C232.116 152.827 231.85 152.751 231.545 152.579C230.709 152.257 230.24 151.862 230.137 151.395C230.126 151.208 230.04 151.026 229.881 150.846C229.721 150.668 229.63 150.391 229.608 150.015C229.601 149.926 229.566 149.659 229.505 149.215C229.441 148.76 229.386 148.303 229.36 147.844C229.332 147.348 229.284 146.878 229.217 146.436C229.153 146.016 229.12 145.759 229.114 145.666C229.096 145.384 229.078 144.82 229.064 143.972C229.048 143.126 229.026 142.208 229.004 141.22C228.978 140.234 228.973 139.268 228.989 138.324C229.004 137.383 229.004 136.77 228.986 136.489C229.03 136.015 229.038 135.262 229.012 134.226C228.984 133.191 228.938 132.158 228.874 131.124C228.813 128.963 228.734 126.802 228.637 124.639C228.538 122.479 228.49 120.221 228.493 117.865C228.428 113.254 228.241 110.25 227.932 108.855C227.748 108.302 227.614 107.935 227.529 107.75C227.444 107.567 227.321 107.387 227.162 107.207C226.684 106.672 226.154 106.518 225.577 106.742C225.07 106.962 224.729 108.019 224.552 109.914C224.564 110.103 224.554 110.267 224.526 110.41C224.497 110.554 224.488 110.674 224.493 110.766L224.589 112.314C224.636 113.066 224.614 113.915 224.526 114.862C224.51 115.806 224.533 116.747 224.592 117.685C224.649 118.623 224.717 120.315 224.796 122.759C225.026 127.645 225.028 130.046 224.801 129.966C224.725 129.966 224.696 130.067 224.708 130.254C224.718 130.443 224.797 130.531 224.946 130.522C225.018 130.522 225.081 130.891 225.128 131.641C225.174 132.393 225.224 133.19 225.276 134.034C225.329 134.878 225.378 135.677 225.425 136.427C225.472 137.179 225.457 137.555 225.385 137.56C225.316 137.659 225.322 137.754 225.402 137.842C225.549 137.829 225.658 138.391 225.729 139.517C225.901 141.11 226.064 142.535 226.218 143.796C226.369 145.059 226.493 145.829 226.585 146.106C226.761 146.567 226.913 147.24 227.044 148.126C227.172 149.015 227.164 149.46 227.016 149.47L227.025 149.611C227.03 149.706 227.07 149.75 227.145 149.745L227.264 149.879C227.342 149.968 227.389 150.107 227.401 150.294C227.413 150.483 227.514 150.947 227.71 151.688C227.898 152.336 228.137 152.911 228.429 153.41C228.718 153.911 229.054 154.243 229.436 154.407C229.741 154.578 229.933 154.659 230.006 154.654L230.229 154.641C230.45 154.627 230.866 154.791 231.481 155.127C231.641 155.307 231.904 155.383 232.274 155.36C232.729 155.522 232.993 155.598 233.068 155.594C233.594 155.751 234.082 155.838 234.528 155.857C234.974 155.877 235.493 155.891 236.088 155.9C236.681 155.914 237.476 155.885 238.473 155.822C239.47 155.761 240.854 155.674 242.625 155.563L251.041 155.039C251.705 154.998 252.149 154.97 252.37 154.956C252.592 154.942 252.818 155.023 253.052 155.197C253.898 155.709 255.393 156.53 255.054 158.003C255.01 158.197 253.652 159.994 253.29 160.664L252.837 161.292V161.299Z" fill="#212322"/>
</svg>
