<svg fill="none" height="300" viewBox="0 0 300 300" width="300" xmlns="http://www.w3.org/2000/svg"><g fill="#212322"><path d="m74.2227 188.391c0 .122.0333.182.1027.183.1386 0 .208-.121.208-.366 0-.243-.0347-.365-.1027-.365-.0694 0-.104.122-.104.365zm-1.2894-66.388c.068 0 .1041-.121.1041-.366 0-.244-.0347-.367-.1041-.367-.0693 0-.104.123-.104.366 0 .246.0347.367.104.367zm-1.9013 35.478c.068 0 .104-.061.104-.184 0-.12-.0347-.182-.104-.182-.0694 0-.104.062-.104.182 0 .123.0346.184.104.184zm-4.0013-52.492c0-.244-.0694-.487-.2067-.732-.14-.243-.244-.243-.312 0-.0694.245-.0707.488 0 .731.068.247.1547.366.2587.366s.156-.119.156-.365zm-.2427 38.223c.1387-.12.1387-.303 0-.549-.1387-.243-.38-.366-.7253-.367-.2774 0-.3814.123-.312.365.068.247.156.489.2587.732.104.247.1893.247.26 0 0-.119.1039-.182.3106-.181h.416zm-1.444-9.328c.1373.245.2067.123.2067-.367l.0013-.365c-.0707 0-.1227.092-.156.275-.036.182-.0187.336.052.457zm-1.8187 58.704c.1373.245.208.183.208-.183 0-.121-.036-.183-.104-.183-.0693 0-.104.062-.104.182zm-.88-60.536c.208 0 .172-.12-.1027-.367-.14-.243-.2773-.365-.416-.365-.0693.122-.0506.274.052.457.104.183.224.275.364.275zm-2.4546-40.6029c-.0694 0-.104.1228-.104.3654 0 .1227.0346.1826.104.184.068 0 .104-.1213.104-.3653l-.104-.0014zm.2173 103.5129c.0694-.12.0173-.274-.1547-.457-.1733-.184-.2946-.212-.364-.092-.0693.123-.052.275.052.458.104.182.2241.274.3627.274.1387 0 .208-.06.208-.183zm-3.752-96.9315c.0667 0 .1027.0626.1027.1826 0-.12.0346-.1826.1039-.1826zm-.764 39.5015.5186.549c.416.247.5534.367.4161.367h-.208.3107c.208 0 .2759-.12.2093-.367-.0707-.365-.312-.608-.7267-.73zm-.708-19.935c-.0693-.12-.104-.06-.104.183 0 .245.068.367.208.367h.2066zm-.0867-18.2878c-.14.2453-.2093.428-.2093.548h.208c.1387 0 .208-.1201.208-.3654 0-.2427-.0693-.3026-.2067-.1826zm-2.1146 42.4268c-.14 0-.1747.063-.1053.183l.208.366v-.366c0-.12-.0361-.183-.1027-.183zm-.9973-45.1736c-.2787 0-.3481.1228-.2094.3654.068.1227.156.1546.26.092.104-.06.156-.2107.156-.4574 0-.2426-.104-.3652-.3107-.3652zm5.5586 52.1266c0-.974.0013-1.553.0013-1.736 0-.184-.0693-.396-.2066-.641-.2773-.732-.8653-1.282-1.764-1.647-.4853-.121-.9-.368-1.2454-.733-.2773-.243-.4507-.367-.5187-.367-.14 0-.3466-.12-.6226-.367-.692-.608-1.3854-.732-2.076-.366l-.8307.73c-.2773.123-.3826.429-.3133.914l-.0014 1.646c0 .611.0668 1.403.2054 2.378.1374.977.2067 1.646.2067 2.012.0666.612.4826.978 1.2439 1.098.8307.247 1.3507.43 1.5574.551h.9347c.2066 0 .4666.032.7786.092.3107.064.5707.092.7774.092.5546.124.8826.156.9866.094.104-.06.2254-.395.364-1.007.0694-.365.1213-.791.1573-1.279.0347-.487.0534-1.099.0534-1.829zm-7.1533-11.893c-.4147-.367-.6227-.487-.6227-.367 0 .245.016.55.052.915.0333.365.0854.548.1547.548 0-.119.0347-.183.104-.181.1373 0 .276-.061.4146-.183l.52-.183zm-.8494 21.213v-.183c0-.12-.036-.182-.104-.182-.0693 0-.104.062-.104.182v.183zm-.52.365c.068 0 .104-.06.104-.182 0-.12-.0693-.183-.208-.183v.183c0 .122.068.182.208.182zm-.4866-35.114c.1373 0 .208-.119.208-.366v-.365c-.1387 0-.208.123-.208.365 0 .247.0333.366.1027.366zm-.324 12.985c-.0693 0-.104.063-.104.183 0 .122.0347.182.104.182zm-4.1614 9.14c.0693-.12.0694-.303.0014-.548-.1387-.243-.2253-.335-.26-.275-.036.063-.0173.215.052.458 0 .122.0333.122.104 0zm-6.6786 38.4c.068 0 .104-.06.104-.183 0-.12-.036-.182-.104-.182-.0693 0-.104.062-.104.182 0 .123.0347.183.104.183zm-3.2267-105.3438c-.0014.6106.1373.6106.416 0 .1373-.3654.1386-.608 0-.732-.2067-.12-.312.1226-.312.732zm.3173 107.5358c-.0693 0-.1387-.06-.2067-.182-.208-.122-.3119-.304-.3106-.55.068-.242.0333-.303-.104-.183-.14.123-.156.337-.0533.641.104.305.224.52.3626.64.276.124.4507.124.5201 0zm-.7466-91.9919c0 .124.0853.1828.26.1828.1707.0013.2933-.0588.3626-.1815.0014-.12.0347-.12.104 0 .068.1227.104.0627.104-.1826l.0013-.5493-.4159.3654c-.0707.1226-.14.1826-.208.1826-.0693 0-.104.0639-.104.1826zm.0106-11.3385c-.0693 0-.104-.0601-.104-.1828 0 .1227-.036.1828-.104.1828zm-.2226 17.0079c.068-.12.1027-.3654.104-.7307 0-.2427-.0694-.2427-.208 0-.14.244-.1747.4561-.104.6401.068.1827.1719.2133.3106.0906zm-.5121-8.4134c.1374 0 .208-.0599.208-.1826 0-.12-.0693-.2427-.208-.3654-.14-.12-.2773-.12-.4146 0 .1373 0 .208.1227.2066.3654 0 .2453.068.3652.208.3652zm-2.3732 98.0239-.1028-.365c-.0706-.12-.1039-.12-.1053 0 0 .365.0681.428.2081.182zm15.416-122.0812 1.1533-.076c.436-.0533 2.548-.0267 3.7266-.0254l1.7254.0334c1.2466-.1187 2.504.2946 3.5906.2733.5974-.0133 2.1214.2506 2.6867.2986.256.0214.784.1495 1.1306.1495.1374 0 .6067.1947.7467.256.1373.0627.4027.2545.472.2545.0693.0014.0881.0255.2267.0855.1387.0627.1587.028.2987.028.3453.0013.4386.256.8079.256.2547 0 .6801.4012.8361.5386.172.1506.72 1.228 1.1346 1.7147.416.4893.7267.7321.9347.7321.276.2466.6906.7946 1.244 1.6466.068.124.156.2465.26.3665.1026.1227.2226.3069.3613.5495l.416.7307.1027.1839c.068.1226.12.2454.156.3654.0334.1226.0853.2467.1547.3667.3453.612.6386 1.1893.8813 1.7373.2413.5493.3973.9466.4666 1.1893 0 .1226.1374.4293.4134.9147.208.3666.38.7946.5187 1.2812.068.2454.1373.5201.2066.8228.068.3053.172.5799.3107.8239.1373.2453.2413.5201.3106.8227.068.3054.1374.5801.2067.8241.1374.488.2413.7932.3107.9145.1373.2454.2747.7934.4147 1.6454.0667.732.2067 1.404.4133 2.012.1374.4894.2067 1.0373.2053 1.6467 0 .612.068 1.0373.2067 1.2799.1373.2467.2067.9147.2067 2.0121l-.0027 2.7439c-.0013.6107.0666 1.2801.2053 2.0108.344 1.8298.4467 2.9908.308 3.4758 0 .123.0681.793.2067 2.012.068.611.1027 1.128.1014 1.554v1.006c-.0014.732.0666 1.28.2066 1.647.1373.365.2066.854.2053 1.462 0 .612.0321 2.318.0987 5.122l-.0014 2.012c.068.488.1188 1.494.1534 3.017.032 1.525.0493 3.108.048 4.755-.0014 1.647-.0027 3.109-.004 4.389-.0014 1.28-.0373 1.92-.1066 1.92v.367c.068.121.1199.488.1546 1.097.0333.611.0507 1.22.0507 1.828l-.0094 9.693c.2067 1.83.24 2.867.1014 3.11-.0694.122-.104.245-.104.365l-.0027 3.109c-.0027 2.318-.04 3.658-.108 4.023-.14.49-.208.855-.2093 1.098 0 .365-.0347.611-.104.731 0 .246-.0694.731-.208 1.463l.6213.732c-.14.855-.2787 1.403-.416 1.645-.208.366-.312.673-.3133.915.0693.246-.0174.672-.26 1.28-.244.611-.5373 1.22-.884 1.828-.14.365-.296.703-.468 1.005-.1747.306-.296.581-.364.823-.14.366-.3121.671-.5201.913-.208.247-.312.428-.312.55 0 .245-.1039.365-.3119.365-.1387 0-.4854.245-1.0387.731-.4867.61-.7974.913-.9347.913-.0707 0-.3119.246-.7279.731-.416.488-.6601.73-.7281.73-.2066 0-.1733.306.104.915.2747.49.9667 1.222 2.0734 2.196.3453.367.7267.824 1.1413 1.374.4147.549.9333 1.311 1.5546 2.287 1.1747 1.83 1.7961 3.174 1.8654 4.025 0 .124.068.672.2067 1.646.344 2.075.5146 3.722.5133 4.938 0 .366.068 1.161.2067 2.378l.2066 1.647-.3133 1.096c-.348 1.22-.7827 2.118-1.3987 2.453-.3986.216-.6479.15-.8306.232-.2813-.033-.528-.202-.5973-.082-.0694.122-.4347.049-.7467.049s-.7521-.039-1.8587.083c-1.3854.12-2.74.137-3.916.2-1.1786.058-2.5027.151-2.988-.067-.3787-.171-.6786-.565-1.5773-1.052-.7613-.365-1.2107-.67-1.3494-.915-.1386-.244-.2426-.367-.3106-.367-.208 0-.5187-.242-.9334-.731-.14-.243-.3466-.367-.6226-.367-.6933-.244-1.1774-.975-1.4521-2.196-.1386-.485-.2066-.792-.2066-.915 0-.12-.0694-.548-.2067-1.28-.1387-.485-.276-.915-.4133-1.281-.14-.243-.4334-.915-.8814-2.012-.4493-1.098-.8119-2.012-1.0879-2.744s-.5867-1.401-.932-2.012c-.276-.609-.536-1.249-.7774-1.921-.2426-.67-.5347-1.432-.88-2.287l-.4146-1.099-.0067 7.681c.0653 3.539.0467 5.884-.0587 7.042-.104 1.16-.3999 2.042-.8839 2.65-.972 1.22-1.196 2.022-1.3334 1.899-.14 0-.4413.155-.5787.398-.14.245-.5013.363-.7773.363-.2773 0-1.0306.167-2.4146.166-.8307-.002-1.2948.118-1.7441.056-.452-.062-.8893.016-1.1653.016-.2773 0-.6747-.044-1.02.016-.3467.063-.848.049-1.472.048-.6227 0-1.1694-.178-1.5854-.178-.4146 0-.5506.032-.7439.016-.308-.048-.4214-.048-.7601-.064-.304-.014-.6733.154-1.4346.09-.7627-.06-1.3693-.328-1.5067-.574-.0693-.121-.6866-.31-1.088-.713-.472-.474-1.012-1.007-1.5306-1.739-.5187-.732-.8467-1.523-.984-2.378-.1387-.975-.0693-1.34.208-1.097.276.246.2426.064-.1027-.548-.14-.244-.2427-.518-.3107-.825-.0693-.302-.036-.455.104-.455.068 0 .068-.062 0-.183-.0693-.122-.1026-.427-.1026-.915v-.914l.0013-1.282c.0693-.973.1067-1.857.1067-2.65.0013-.792-.0334-2.223-.1-4.299.0013-1.217-.016-2.223-.0494-3.018-.0346-.792-.0506-1.582-.0493-2.377 0-.792-.016-1.705-.0493-2.744-.0347-1.033-.0493-2.468-.048-4.297.0013-1.705-.016-3.138-.048-4.298-.0347-1.157-.0507-1.797-.0507-1.921l.0053-5.302c.0014-2.438-.0133-4.602-.0467-6.494-.0333-1.888-.0839-3.808-.1506-5.76l.0094-9.693c.0026-3.047.0052-5.122.0052-6.218.0014-1.097.0361-1.706.1067-1.829.0667-.12.12-.668.156-1.645.0347-.975.0547-1.95.0547-2.927l.0013-.732c0-.485.0173-1.157.0533-2.011.0347-.852.0694-1.706.1067-2.561.0347-.85.0867-1.888.1587-3.108l-.104-.367c-.0693-.365-.068-1.462.0027-3.29.0693-.732.1226-1.982.1586-3.75.036-1.766-.3239-3.2436-.3213-4.9516l-.0547-4.8467c.068-.4866-.032-3.0798-.0306-3.5678 0-.4867 0-1.0655.0013-1.7375 0-.668.0347-1.3719.1053-2.1025.0694-1.464.1227-2.7722.16-3.9322.0347-1.1573.0867-1.8571.1573-2.1038.068-.2427.1201-.7001.1574-1.3708.0334-.6693.0867-1.4319.1573-2.2866.0694-2.072.7333-3.1534.8387-3.824.104-.6694.3653-1.308.78-1.92.3467-.608.796-1.0053 1.3507-1.1867.5533-.1826 1.88-.74 2.336-.8053.7533-.108 1.1919-.2601 1.5639-.2814.4827-.0293 1.3321-.0773 1.6654-.0519.3013.0226.3693.0254.82.0254.4493.0013 1.02-.0774 1.4346-.076l2.1014-.1281c.7613 0 1.5134-.1893 2.1014-.128"/><path d="m119.023 98.9801c-.172.5267-.257.5267-.257 0 0-.104-.059-.2613-.174-.472-.114-.2093-.085-.3147.087-.3147s.344.1054.516.3147l-.172.3146zm-.688 26.2799v-.472c-.057-.209-.116-.315-.172-.315-.057 0-.086.106-.086.315 0 .212.029.369.086.472.056.107.087.107.087 0zm-.688-23.92c-.058 0-.087-.051-.087-.157 0 .106-.029.157-.085.157zm-.775-3.9333c-.057 0-.085.0534-.085.1574 0 .2107.028.3146.085.3146h.087c0-.2093-.03-.3146-.087-.3146zm.173 1.5734c0-.104-.03-.1574-.086-.1574-.116 0-.172.1053-.172.3147-.057.212-.043.3146.042.3146.087 0 .158-.1026.216-.3146zm-.43 3.3049c0-.209-.03-.314-.087-.314-.115 0-.172.156-.172.47 0 .631.057.631.172 0zm-1.635 20.615c.115.42.172.315.172-.315 0-.209-.029-.261-.085-.157-.058.105-.087.263-.087.472zm-1.29 2.832c.057 0 .057-.103 0-.315-.058-.208-.128-.338-.215-.393-.085-.051-.128.027-.128.236 0 .315.085.472.257.472zm-1.375 10.701c.113 0 .171-.052.171-.157 0-.103-.03-.157-.086-.157l-.085.157c0 .105.028.157.085.157zm-1.722-39.4983c.056 0 .087-.052.087-.1574 0-.104-.031-.1572-.087-.1572-.057 0-.085.0532-.085.1572 0 .1054.028.1574.085.1574zm-.257 2.3601c0-.1027-.03-.1574-.086-.1574-.058 0-.086.0547-.086.1574zm-1.635 92.8462c.056.106.172.158.344.158s.259-.052.259-.158c0-.104-.073-.182-.216-.236-.144-.052-.244-.025-.301.079v.157zm.344-88.754c.115-.21.173-.419.173-.63 0-.316-.144-.472-.431-.472-.115 0-.115.211 0 .63.115.42.229.525.344.314zm-.171 85.921c-.116 0-.187.055-.215.157-.029.106.013.158.128.158s.172-.103.172-.315c0-.208-.057-.315-.172-.315zm-.43 3.305c.114 0 .171-.052.171-.157v-.157c-.115 0-.171.053-.171.157 0 .105.028.157.086.157zm0-62.002c0-.103-.031-.158-.087-.158-.057 0-.086.055-.086.158zm-.345-.472c0 .21.029.29.086.236.056-.052.115-.183.172-.394.172-.314.172-.472 0-.472s-.258.212-.258.63zm-.085-1.888c.056 0 .085-.052.085-.158 0-.104-.029-.157-.085-.157-.059 0-.087.053-.087.157 0 .106.028.158.087.158zm-.344 2.989c.113 0 .171-.052.171-.157 0-.103-.029-.158-.086-.158l-.085.158c0 .105.027.157.085.157zm0 52.088h.085c0-.209-.029-.315-.085-.315-.059 0-.087.055-.087.158 0 .212.028.314.087.314zm-.087-85.1346c-.057 0-.086.1054-.086.3147 0 .1054.029.1573.086.1573.056 0 .087-.1027.087-.3147 0-.1026-.031-.1573-.087-.1573zm.087 28.3256c.113 0 .171-.103.171-.315 0-.208-.029-.315-.086-.315-.058 0-.085-.102-.085-.314 0-.103-.031-.158-.087-.158-.116 0-.172.158-.172.472 0 .315.056.472.172.472zm-.431-30.2137c0 .2107.057.2628.172.1574.114-.104.2-.2613.259-.4733.056-.1027.098-.208.129-.3133.028-.104.071-.2094.128-.3161.115-.208.115-.4172 0-.6292-.115-.208-.229-.3148-.344-.3148-.116 0-.144.1068-.086.3148 0 .1067-.058.3692-.171.7879-.116.42-.173.6826-.173.7866zm-.086 7.2387c.056-.104.043-.261-.042-.472-.087-.209-.159-.315-.216-.315v.315c0 .315.057.472.172.472h.172zm-.344 69.556c.172.315.258.211.258-.315 0-.104-.086-.157-.258-.157-.172.105-.202.263-.086.472zm-.43-50.357c0 .105.028.157.086.157h.173c0-.315-.087-.315-.259 0zm-.259 65.464c.058 0 .087-.052.087-.158 0-.102-.015-.157-.043-.157-.031 0-.044.055-.044.157 0 .106.03.158.087.158zm.345-26.752c.056 0 .086-.104.086-.315h-.172c-.115 0-.172-.052-.172-.157 0-.104-.029-.158-.087-.158l.087.315c.057.211.142.263.258.157zm-.774-67.1962c.056 0 .086.0545.086.1572 0-.1027.029-.1572.086-.1572zm.172 2.6759c.056-.104.085-.2093.085-.3146-.057-.104-.128-.0787-.215.0786-.085.1574-.1.2894-.042.3934.056.3147.142.3147.257 0zm0 65.3063c0-.209-.086-.314-.258-.314s-.258.157-.258.472c0 .734.114 1.101.344 1.101.114 0 .172-.209.172-.629v-.787zm-1.204-27.538h.087c0-.21-.031-.315-.087-.315-.057 0-.086.053-.086.157 0 .211.029.315.086.315zm-.259 51.773c.115.211.173.105.173-.315 0-.209-.058-.314-.173-.314-.287 0-.344.157-.172.472zm-1.72-13.219c-.057 0-.085-.052-.085-.157 0 .105-.031.157-.087.157zm-.945 3.147c.113.107.141.055.085-.157-.057-.103-.116-.158-.172-.158l.087.158zm-.775-50.987c.056 0 .085.055.085.158 0-.103.028-.158.087-.158zm-.43 48.942h.173c0-.315-.087-.315-.259 0 0 .105.028.157.086.157zm0-103.3842c-.058 0-.086.0545-.086.1572 0 .1053.028.1574.086.1574.057 0 .086-.0521.086-.1574 0-.1027-.029-.1572-.086-.1572zm-.258 96.1452c.115.105.172.079.172-.079 0-.157-.057-.288-.172-.393-.059 0-.059-.052 0-.157.056-.104.028-.158-.087-.158-.2289 0-.3422.211-.3422.63 0 .314.0267.42.0853.314.056-.104.1429-.157.2569-.157zm-.9465-65.623c-.172 0-.2014.107-.0854.316.228.42.344.368.344-.158 0-.103-.116-.158-.344-.158zm.0867 89.543c.228.313.344.211.344-.315 0-.209-.116-.316-.344-.316-.46 0-.5161.212-.1721.631zm-.4307-28.327c0 .106.0866.158.2586.158s.2574-.103.2574-.315c0-.104-.0854-.157-.2574-.157s-.2586.105-.2586.314zm-.172-2.517c.1146 0 .172-.052.172-.157v-.159c-.116 0-.172.055-.172.159 0 .105.028.157.0866.157zm-.344 8.183c0-.21-.0293-.315-.0853-.315-.0587 0-.0867.053-.0867.157 0 .315.0573.37.172.158zm-.172 22.03c0-.102-.0293-.157-.0853-.157-.0587 0-.0867.055-.0867.157zm-.0853-31c.056 0 .0853-.052.0853-.157 0-.104-.0293-.159-.0853-.159-.0587 0-.0867.055-.0867.159 0 .105.028.157.0867.157zm-.4307 8.97c0 .42.056.525.172.314.056-.102.072-.236.0427-.393-.0294-.157-.072-.236-.128-.236v.315zm-.172-10.23c.172.316.2587.212.2587-.314 0-.208-.0587-.315-.1721-.315-.2306 0-.288.107-.1733.315zm0 2.676v-.157c0-.104-.0294-.157-.0867-.157s-.0853.053-.0853.157v.157zm-.2587-7.396c-.0573 0-.0853.054-.0853.156 0 .212.028.316.0853.316h.0867c0-.209-.0293-.316-.0867-.316zm-.6013 20.615v-.157c0-.103-.0574-.158-.172-.158-.0574 0-.0867.055-.0867.158 0 .105.0574.157.1721.157zm-.2587-9.127c0 .211.0574.211.1721 0 .0573-.104.0866-.261.0866-.473-.0573-.208-.116-.287-.172-.236-.0574.055-.0574.184 0 .393zm-.9453 2.046c.172-.419.1146-.734-.172-.944-.172-.104-.316-.052-.4307.156l-.2573.316.2573.472c.228.526.4014.526.516 0zm-.7747-89.0642c-.0573-.1027-.0853-.1027-.0853 0 0 .3146.056.3692.172.1572l-.0867-.3146zm0 112.3532c.0574-.103.0293-.157-.0853-.157-.0587 0-.0867.054-.0867.157v.315zm-.4293 1.575c.056 0 .0853-.104.0853-.315 0-.104-.0293-.159-.0853-.159-.0587 0-.0867.055-.0867.159 0 .105.028.157.0867.157zm-1.2906-24.078c0-.102-.0294-.157-.0854-.157-.116 0-.1733.055-.1733.157 0 .106.0293.158.0866.158l.0867-.158zm-.0854-10.858c.056-.103.0706-.236.0426-.394-.0293-.157-.0733-.236-.1293-.236-.0573 0-.1013.079-.1293.236-.0293.158-.0147.291.0427.394zm1.204-86.0736v-.3146c0-.2094-.0587-.4174-.172-.6294-.0587-.2094-.0867-.2094-.0867 0 0 .212-.0426.3414-.1293.3934-.0853.0546-.1573-.024-.2147-.236 0-.2094-.116-.3148-.344-.3148-.172 0-.344.1573-.516.472l-.172.472h1.4627zm-1.4627 122.1106c.056-.733.056-1.153 0-1.259-.0573-.104-.116-.104-.172 0-.0586.106-.0866.263-.0866.472 0 .211.0573.42.172.63s.172.21.172 0zm-.6013-28.168c-.0587.211-.0307.313.0853.313.1134 0 .228-.102.344-.313.1147-.104.0854-.159-.0866-.159-.2294 0-.3427.107-.3427.316zm-.0867 30.371c-.0573.106-.0867.054-.0867-.158 0 .212-.0293.37-.0853.472zm-.0867-22.346c0-.209-.0293-.366-.0853-.472-.116-.209-.172-.209-.172 0-.0587.211-.0733.342-.0426.394.028.053.0706-.026.128-.238zm-.6013-5.036c0 .106.0427.158.1293.158.0854 0 .156-.052.2147-.158l-.0867-.157c-.172-.103-.2573-.052-.2573.157zm.0854 9.914c-.0573 0-.0854-.051-.0854-.156 0 .105-.0307.156-.0867.156zm-1.1174 12.904c.056 0 .0854-.051.0854-.158 0-.102-.0294-.157-.0854-.157-.0586 0-.0866.107-.0866.315 0 .106.028.158.0866.158zm0-33.362c.172 0 .2574-.052.2574-.157 0-.208-.0573-.315-.172-.315-.116 0-.172.107-.172.315 0 .105.0867.157.2587.157zm-2.9253-26.594c-.0574-.103-.1-.103-.1294 0-.0293.105-.0133.212.0441.314.056.106.0853.106.0853 0zm-.172 27.066c.0573-.102.0867-.26.0867-.472-.0574-.209-.1161-.338-.1721-.393-.0573-.052-.0866.028-.0866.236v.315c-.1147.421-.0573.421.172 0zm-.344.63c-.0573 0-.0854-.051-.0854-.158 0 .107-.0293.158-.0866.158zm-.688 28.484-.0853-.315c-.0587-.103-.116-.157-.172-.157-.0587.105-.0427.236.0426.393.0854.157.1574.184.2147.079zm-.688-116.4456c.056 0 .0867-.0521.0867-.1574-.172-.3147-.2587-.26-.2587.1574 0 .1053.056.1574.172.1574zm-1.204.6294c.056-.1027.028-.1574-.0867-.1574-.1146 0-.172.1066-.172.3146 0 .212.0293.3148.0867.3148l.172-.3148zm-.516 91.5812c0 .105.028.157.0853.157h.0867c0-.104-.0147-.157-.0427-.157-.0307 0-.044.053-.044.157zm.172 14.163c.1147-.418.172-.682.172-.787 0-.209-.0573-.157-.172.157-.2306.842-.2587 1.259-.0867 1.259l.172-.629zm-1.376 5.98c.228 0 .228-.21 0-.63-.172-.314-.2587-.314-.2587 0 0 .212.0574.315.1721.315.1146 0 .1719.055.1719.157 0 .107-.0573.212-.1719.315-.1147.107-.1721.291-.1721.551 0 .262.0574.342.1721.237.056 0 .0866-.104.0866-.316 0-.209.028-.315.0853-.315zm.172-20.458c.056-.314.056-.524 0-.629-.172-.315-.316-.209-.4307.315-.0573.212-.0293.314.0867.314.1133 0 .172.055.172.158 0 .21.056.105.172-.315zm-.7747-87.9609c0 .2107.044.2893.1294.236.0866-.052.1573-.1827.2146-.3934v-.3146c-.0573-.104-.128-.104-.2146 0-.0854.1053-.1294.2106-.1294.3146zm-.4293 79.3049c0-.208-.0307-.338-.0867-.393-.0573-.051-.1146.028-.1719.237-.0574.42-.0574.63 0 .63.1146 0 .1719-.104.1719-.315zm-.6026-80.5637c.056.1053.0852.2627.0852.472 0-.2093.0294-.2612.0867-.1585zm-.1721 88.7477c.2867.315.4294.315.4294 0 0-.104-.0853-.157-.2573-.157s-.2294.053-.1721.157zm-.0853 5.666c.056 0 .0853-.052.0853-.158 0-.104-.0293-.157-.0853-.157-.0586 0-.0866.053-.0866.157 0 .106.028.158.0866.158zm-.6893-5.351c.0573 0 .0866-.052.0866-.157 0-.104-.0293-.158-.0866-.158-.0574 0-.0854.054-.0854.158 0 .105.028.157.0854.157zm-1.6333-59.643c0 .107.0279.159.0852.159.0574 0 .0867-.052.0867-.159zm0 76.796c.056 0 .0852-.052.0852-.157 0-.104-.0572-.157-.1719-.157s-.2147.053-.3014.157c-.0853.105-.0999.211-.0426.315.1147.21.2293.157.344-.158 0-.104.0573-.157.1719-.157zm40.3401-83.877c.172.212.258.684.258 1.4173v6.1377c0 .314-.058.577-.171.786-.116.211-.116.368 0 .472.113.106.171.29.171.551v2.439c0 1.785-.058 3.096-.171 3.934-.059.315-.087.684-.087 1.102v10.072l-.172-.159c-.116-.103-.159-.077-.129.08.029.157.1.289.214.393.058 0 .1.055.13.158.028.105.044.393.044.865v6.059c0 4.512-.016 7.973-.044 10.385-.03 2.415-.043 4.171-.043 5.272 0 1.103-.015 1.759-.043 1.968-.029.211-.044.368-.044.472-.057.211-.085.735-.085 1.573.057.944.085 2.179.085 3.699 0 1.521-.028 2.439-.085 2.753-.116.42-.172 1.259-.172 2.518 0 .526-.015 1.313-.043 2.361-.029 1.049-.073 2.045-.129 2.989-.057.944-.101 2.047-.129 3.306-.03 1.258-.043 2.465-.043 3.618v5.194c-.058.105 0 1.416.172 3.934.115 1.156.185 2.23.215 3.226.029.998.043 1.706.043 2.124v5.35c0 .422-.144 1.418-.43 2.991-.116.315-.215.551-.301.708s-.302.393-.645.708c-.23.212-.459.393-.689.551-.229.157-.429.29-.601.393-.632.212-1.148.369-1.548.472-.403.107-.732.185-.989.236-.259.055-.503.079-.732.079h-.861c-.917 0-1.433-.103-1.548-.315-.057-.103-.172-.103-.344 0-.288.212-.774.185-1.462-.079-.688-.26-1.176-.55-1.462-.865-.058-.103-.129-.26-.216-.472-.085-.209-.186-.417-.299-.629-.116-.418-.188-.787-.215-1.102-.031-.314-.074-1.048-.131-2.202-.057-1.26-.1-2.047-.128-2.362-.029-.314-.101-.366-.215-.157-.058.105-.172.105-.345 0-.401-.315-.514-.209-.344.315l.172.472-.172.314c-.114.212-.229.315-.343.315-.116 0-.173.055-.173.159.057.21 0 .498-.172.864-.172.369-.344.55-.516.55-.115 0-.172.107-.172.316 0 .211-.029.315-.085.315l-.172.315c-.116.21-.375.498-.775.865-.401.368-.832.656-1.29.865-.574.422-.89.684-.946.787-.116.212-.3439.369-.6879.472-.344.107-.6879.212-1.0319.315-.46.106-.7613.157-.904.157-.144 0-.2721.105-.3867.315-.116.106-.632.157-1.548.157-.46.107-.8893.157-1.2907.157h-6.5373c-.516 0-1.0893-.05-1.72-.157-.632-.103-1.0613-.26-1.2907-.472-.3426-.209-.7173-.315-1.1173-.315-.804-.102-1.348-.157-1.6347-.157-.288 0-.488-.051-.6013-.157-.116-.21-.288-.315-.5174-.315-.2293-.103-.5453-.34-.9453-.708-.4013-.367-.632-.653-.688-.865-.172-.315-.316-.524-.4306-.63-.2294-.209-.516-.76-.86-1.653-.344-.889-.46-1.44-.344-1.652l-.0853-.315c-.116-.209-.1721-.574-.1721-1.101 0-.209-.016-.445-.044-.708-.0293-.26-.0426-.497-.0426-.708v-5.665c-.0574-.63-.144-2.991-.2587-7.082 0-1.468.0293-2.254.0866-2.361.2294-.208.2294-.523 0-.944-.116-.208-.1719-1.259-.1719-3.147v-3.462c0-.418.028-.63.0853-.63.0574-.102.0866-.236.0866-.393s-.0292-.236-.0866-.236c-.0573 0-.0573-.367 0-1.101.0574-.734.0574-1.259 0-1.575-.1146-.313-.1146-1.101 0-2.36v-4.328c0-.156.0573-.181.172-.077.2867.314.4307.368.4307.157 0-.209-.0854-.315-.2574-.315h-.2587l.0854-5.508v-11.016c0-.524.0293-.838.0867-.944.1146-.104.172-.236.172-.393s-.0574-.236-.172-.236c-.0574 0-.0867-.131-.0867-.393s.0293-.918.0867-1.968v-4.563c0-1.048.0133-2.125.0426-3.227.028-1.101.0721-1.913.1294-2.438.056-.315.1-1.732.1293-4.25.028-2.517.0427-5.244.0427-8.182v-9.915c0-1.1534.0133-23.4413.0426-24.3853s.0721-1.6772.1294-2.2039c.056-.208.0867-.444.0867-.708v-.708c0-.944.0853-1.416.2573-1.416.1147 0 .1719-.0521.1719-.1574 0-.2094-.0292-.3146-.0852-.3146-.2307 0-.2307-.3668 0-1.1014.1146-.3147.3866-.8386.8173-1.5733.4293-.7333.7306-1.1534.9026-1.2601.172-.1026.2867-.1026.344 0 .172.1067.2867.0548.344-.1572.056-.208.3147-.2601.7747-.1574h.86c.4573-.1027 1.0747-.1306 1.8494-.0786.7733.0547 2.0413.1292 2.9253.1652 1.3733.0547 2.1293-.0732 3.3333-.0732l2.3454.1093 1.2266.0546c.2827.0666.708.0946 1.4147.0906.2693-.0013.5453-.0372.7013-.0612.16-.016.384.0359.5426-.0015.1974-.0133.276.0135.552.0508.072.0134.1361.0693.4254.0293.1307-.0133.3974-.04.7-.0387.452 0 .7587-.052 1.1227-.0493.5098 0 1.5028-.0133 1.6748.3014.173.3147-.307 4.4586-.105 5.2453.2.788.299 1.3387.299 1.652 0 .316.03.5267.087.6307.115.42.172.9973.172 1.7306v37.9973c0 1.523-.029 2.703-.085 3.541-.059.63-.101 1.522-.129 2.675-.031 1.156-.072 2.257-.13 3.305-.057 2.31-.086 3.776-.086 4.406s-.03 1.365-.086 2.204c-.116 1.049-.172 1.993-.172 2.832v5.508c0 .526-.015 1.129-.043 1.809-.029.684-.042 1.287-.042 1.811-.059.944-.101 1.942-.129 2.989-.03 1.051-.074 2.361-.13 3.935v5.272c0 .786-.029 1.705-.086 2.753-.058 1.471-.086 2.676-.086 3.62s.028 1.993.086 3.147c.057.841.1 1.628.129 2.361.028.735.044 1.207.044 1.416v1.101c0 .106.013.263.043.472.028.211.042.42.042.63.056.526.115 1.077.172 1.652.056.578.113.92.172 1.024.056.21.185.157.387-.158.2-.316.357-.681.473-1.102.115-.418.2-.63.258-.63.057 0 .086-1.833.086-5.508v-8.969c0-.104.057-.052.172.157.056.212.143.212.259 0v-.472c0-.209.028-.366.085-.472.056-.314 0-.472-.172-.472-.116 0-.172-.104-.172-.314v-2.912c0-1.834.014-3.802.043-5.902.028-2.097.057-4.064.087-5.901.028-1.833.042-2.857.042-3.068.056-.209.087-.576.087-1.101v-4.092c0-.734.028-1.626.085-2.675.056 0 .087-.629.087-1.889v-1.81c0-.681.028-1.282.085-1.809.057-.524.1-1.048.129-1.575.028-.522.043-.889.043-1.101.058-.839.13-1.967.216-3.383.086-1.417.185-2.857.3-4.328.056-.838.115-1.676.172-2.517.058-.839.087-1.468.087-1.888 0-.419.013-.788.043-1.103.028-.314.042-.522.042-.629v-1.731c0-.102.058-.102.172 0 .115.106.115.055 0-.157-.172-.419-.085-2.149.259-5.1932.056-.3147.1-.6814.129-1.1014.028-.4187.071-.7334.13-.9441.113-.8386.214-1.6253.299-2.3613.087-.732.158-1.204.215-1.416.057-.1027.1-.2359.129-.3932.028-.1574.072-.3388.13-.5508.056-.2093.142-.4972.258-.8652.114-.3667.229-.7601.343-1.1801.287-.8386.546-1.3387.775-1.4961.229-.156.603-.1812 1.119-.0786.458 0 .716-.0507.773-.1574.057 0 .216-.0239.473-.0786.259-.0506.529-.0786.817-.0786h1.463c.114 0 .271-.0241.474-.0788.2-.0506.414-.0773.643-.0773.631 0 .975.0535 1.033.1561.114.212.171.212.171 0 .174-.4173.631-.5747 1.378-.472.516 0 .773.1066.773.3159 0 .1054.087.1561.259.1561.344-.208.802.0546 1.376.7879.172.2107.357.7348.558 1.5734.202.84.302 1.5213.302 2.0453v2.0454c.057.6307.085 1.024.085 1.1813 0 .156-.028.184-.085.0786-.116 0-.172.0534-.172.1574 0 .2107.056.3146.172.3146zm-41.3735 53.663c-.1147.21-.2013.21-.2573 0-.116-.418-.0574-.63.1719-.63.172 0 .172.158 0 .472z"/><path d="m159.592 40.036c.076 0 .115-.1533.115-.46 0-.3053-.039-.4199-.115-.3439-.077.1547-.115.3066-.115.46 0 .1533.038.2293.115.2293zm-.691 36.7853c0 .0773-.076.116-.229.116v-.116c0-.0747.076-.1146.229-.1146.076 0 .116.0399.116.1146zm.116-8.0466c-.229.2307-.345.192-.345-.1147 0-.3827.116-.46.345-.2293.076.1533.076.2694 0 .344zm-4.828-38.9694c.152 0 .23-.0372.23-.1145 0-.076-.115-.076-.344 0-.078.0773-.04.1145.114.1145zm-.574 3.564c.152.076.189.076.114 0-.077-.076-.269-.1159-.574-.1159-.231 0-.346.0773-.346.2306 0 .1547.076.2294.231.2294.075 0 .152.04.229.116 0 .076.076.1146.23.1146.076 0 .076-.0386 0-.1146-.154-.1533-.23-.268-.23-.3454 0-.076.076-.1147.23-.1147zm-2.186-.9199c.154 0 .192-.0388.116-.1148-.077-.076-.116-.1905-.116-.3452.076-.076.059-.1334-.057-.172-.115-.0387-.212-.0187-.287.0573-.154.1546-.172.2867-.057.4013.115.116.248.1734.401.1734zm-1.724 51.3852.231-.2306c-.077-.0747-.173-.0946-.288-.0573-.115.04-.172.0974-.172.172 0 .1547.076.1547.229 0zm-.574-50.3506c0-.076-.04-.1147-.115-.1147-.077 0-.115-.076-.115-.2306-.154.3066-.116.4599.115.4599zm-1.495 4.1387v-.116c0-.0747-.077-.1146-.229-.1146-.078 0-.115.0399-.115.1146 0 .0773.075.116.229.116zm-.459-6.6679c0 .0773.075.1145.23.1145.152 0 .229-.0372.229-.1145 0-.076-.077-.1148-.229-.1148-.155 0-.23.0388-.23.1148zm-1.38 1.84c.23-.384.154-.6507-.229-.8054-.155-.076-.328-.0574-.519.0573-.19.1147-.286.2493-.286.4027.074 0 .114.0399.114.1146 0 .1546.038.2308.116.2308.306.3066.535.3066.69 0zm-3.564 18.8518c0-.2293-.077-.3452-.229-.3452-.155 0-.251.0587-.288.1734-.04.1146.019.2492.172.4012.231.2306.345.1546.345-.2294zm-1.264 216.2524c.23-.306.486.514.18.59-.384.154-.754-.59-.525-.36.076.23.231.23.46 0zm-2.414-165.558c-.23.231-.192.346.116.346h.114c0-.23-.077-.268-.23-.115zm-.92-9.425c-.076.2293 0 .2694.23.1148.075-.076.075-.1148 0-.1148-.154 0-.23.0388-.23.1148zm1.61 11.38-.116-.575-.114-.574-.46.46h-.344c-.155 0-.271.04-.346.114-.306.307-.306.384 0 .231.075-.076.075-.039 0 .115v.344c0 .154-.077.23-.23.23-.154 0-.23.078-.23.23 0 .077.154.097.46.057.306-.037.651-.132 1.035-.287zm-2.414-14.3692c0 .0773.037.1145.116.1145.074 0 .113-.0372.113-.1145zm-.46 179.5812v-.115c0-.076-.039-.114-.115-.114-.077 0-.116.038-.116.114v.115zm-.806-164.637c.154-.152.231-.268.231-.344 0-.154-.057-.211-.172-.174-.115.04-.172.135-.172.288 0 .155.075.192.229.115zm-.113-1.495c-.077.077-.077.155 0 .231.305.154.381.077.229-.231 0-.075-.04-.075-.116 0zm-.691-8.6213c.076 0 .116-.0374.116-.1147 0-.076-.04-.1146-.116-.1146-.077 0-.114.0386-.114.1146 0 .0773.037.1147.114.1147zm-.46-19.312c.076-.076.076-.1533 0-.2306-.229-.152-.306-.1148-.229.1159 0 .1533.037.192.115.1147zm-1.953-1.2653c-.385 0-.423.1546-.116.46.153.1546.268.1146.345-.1148.076-.1533.038-.2293-.114-.2293zm.115 12.7599.229-.2293c-.077 0-.115-.0372-.115-.1146-.077-.076-.114-.1334-.114-.172 0-.0387-.04-.096-.115-.1734-.231-.2293-.345-.3053-.345-.2293 0 .1533.076.3067.229.4587.076.0786.116.2306.116.4599-.079.2307-.079.2694 0 .1161zm-.806-8.276c-.076 0-.038.2294.116.6894.075.384.19.4999.344.3453.152-.1534.115-.3452-.114-.5746l-.23-.4601zm0 12.7601c.076-.076.116-.1533.116-.2306-.23 0-.345.1158-.345.3452 0 .1546.037.212.115.172.076-.0373.152-.132.23-.2866zm-.689 2.9892c.231.2294.345.1534.345-.2306 0-.152-.077-.2293-.23-.2293-.307 0-.384.0773-.23.2293zm-.344-10.6919c.152.0774.267.0774.344 0 .076-.0746.076-.1519 0-.2293-.155-.076-.269-.076-.344 0-.079.0774-.079.1547 0 .2293zm-.231 12.1853c.152.1546.231.0773.231-.2294 0-.1533-.079-.2293-.231-.2293-.384 0-.46.1147-.23.3441zm-.46-21.9559c-.154.1546-.154.2692 0 .3452.306.2293.422.2293.346 0-.155-.3827-.308-.4986-.46-.3452zm-.689 18.7373c.075.0773.172.1146.287.1146.116 0 .173-.0373.173-.1146 0-.3054-.116-.3441-.345-.1148-.078 0-.115.0774-.115.2294zm-.345-3.3334c.074-.076.114-.1907.114-.3453-.077-.152-.153-.2094-.229-.1721-.077.04-.116.1348-.116.2881 0 .2294.076.2693.231.1146zm-.231-11.0359c0 .0773.039.1146.116.1146h.229c0-.2294-.114-.2294-.345 0zm-1.149 2.1839c.076 0 .116-.0747.116-.2293 0-.1534-.04-.2307-.116-.2307s-.115.0773-.115.2307c0 .1546.039.2293.115.2293zm-.459 22.072c.075 0 .115-.039.115-.115s-.04-.116-.115-.116c-.077 0-.116.04-.116.116s.039.115.116.115zm-.231-18.1627v-.3453c-.076-.1534-.154-.2294-.229-.2294-.077 0-.115.076-.115.2294 0 .1546.038.2693.115.3453.075.0774.115.0774.115 0zm.46-1.7252c.076-.0747.076-.2293 0-.4587-.154-.1533-.269-.2308-.345-.2308h-.344c-.077 0-.115.0775-.115.2308 0 .1534.038.2693.115.3439.153.1547.344.1148.575-.1145zm-.574 21.6119c0-.075-.04-.115-.115-.115-.155 0-.231.04-.231.115 0 .077.039.115.116.115.152 0 .23-.038.23-.115zm-1.38 163.603c.076-.075.116-.152.116-.23h-.116c-.076 0-.115.078-.115.23 0 .154.039.192.115.114zm-.23-167.511c0-.076-.04-.116-.114-.116-.078 0-.115.04-.115.116 0 .229.075.192.229-.116zm-.345-67.4787.231-.2306c.074-.0747.037-.1147-.115-.1147-.155 0-.231.0774-.231.2308 0 .1533.039.2293.115.2293zm-.92 55.5227c-.076-.0747-.113-.0747-.113 0 0 .1546.017.2494.056.288.038.0387.057-.0187.057-.172s-.039-.268-.113-.3454zm-.229 6.8974c.076 0 .153-.0374.229-.1147.076-.076.076-.1534 0-.2294 0-.076-.076-.0959-.229-.0585-.154.04-.23.0973-.23.1733l.23.1146zm-.804-54.4881c.152 0 .229-.076.229-.2306 0-.152-.04-.2294-.115-.2294-.077 0-.114.0774-.114.2294 0 .0773.037.116.114.116zm-.231 36.2108c.153 0 .231-.0374.231-.1148 0-.1533-.078-.2306-.231-.2306l-.115.2306c0 .0774.076.1148.23.1148zm.115-4.4841-.23-.1147h-.229l.229.1147zm-.575 8.5067c.076 0 .116-.0374.116-.1147 0-.3054-.116-.3453-.345-.1146-.23.2293-.192.3454.114.3454zm-.689-20.116c-.078 0-.115.0387-.115.1147 0 .0773.037.1146.115.1146zm-.69-14.0253c-.154.0774-.23.1547-.23.2307s.076.1145.23.1145c.152 0 .23-.0759.23-.2306 0-.152-.078-.2293-.23-.2293zm.459 7.472c.153 0 .231-.1147.231-.344.074-.1534.037-.2681-.115-.3454-.155-.076-.307-.0386-.46.1147-.155.1547-.155.2307 0 .2307.153 0 .248.0573.288.172.037.1147.017.2119-.059.2879-.154 0-.269-.0385-.344-.1159-.23-.2293-.345-.1894-.345.1159 0 .384.152.5747.46.5747.075 0 .115-.116.115-.3453v-.2294zm-.689 24.3706c0-.076-.039-.1147-.115-.1147-.155.0773-.249.1547-.288.2293-.039.0774-.019.1148.059.1148.152 0 .229-.0747.229-.2294zm-1.15-46.3266c.154-.3827.076-.5747-.229-.5747-.077 0-.116.1147-.116.344 0 .308.116.3453.345.1159zm-.804 10.8053c.075.1547.152.2307.23.2307.076 0 .114-.076.114-.2307 0-.0746-.077-.1147-.229-.1147-.155 0-.193.0401-.115.1147zm0-4.2534c-.078 0-.116.0574-.116.172 0 .116.038.2135.116.2881.075.0774.115 0 .115-.2293 0-.1533-.04-.2308-.115-.2308zm-.345 12.416c.076 0 .115-.0759.115-.2306 0-.0747-.039-.1146-.115-.1146-.077 0-.115.0773-.115.2293h.115zm-.345-12.3013c0-.0746-.039-.1147-.115-.1147-.077 0-.115.0401-.115.1147zm-.92 31.0386c0-.1533-.039-.1906-.114-.1146-.156.1534-.23.2693-.23.3439 0 .1547.037.1921.114.1148.076-.0747.154-.1894.23-.3441zm-1.15-14.0252c.076 0 .116-.0374.116-.1148 0-.0746-.04-.1145-.116-.1145s-.114.0399-.114.1145c0 .0774.076.1148.23.1148zm-.804-3.908c-.154.1546-.154.2306 0 .2306.076 0 .19-.076.346-.2306.152-.152.152-.2294 0-.2294-.078 0-.194.0774-.346.2294zm.23 21.7267c.23 0 .345-.0762.345-.2308 0-.2294-.155-.2666-.46-.1146l-.46.2306v.2294c0 .0773.153.1147.46.1147zm-.92-8.7373.345-.3441c.153-.1533.229-.3053.229-.46 0-.076-.076-.1147-.229-.1147-.077 0-.115.1533-.115.4586zm-.459 12.4158c.152 0 .229-.0759.229-.2306 0-.152-.077-.2293-.229-.2293-.077 0-.116.1147-.116.3453 0 .2294.039.344.116.344zm-.46-5.1733c.075 0 .075-.0373 0-.1146-.155-.152-.287-.2306-.403-.2306-.114 0-.097.0786.058.2306.153.1547.268.2293.345.2293zm-.689-12.7599c0-.0747-.04-.1146-.116-.1146-.307.1546-.344.2293-.115.2293.153 0 .231-.0374.231-.1147zm-.116 8.852c.076-.1533.076-.2481 0-.2881-.078-.0373-.154.02-.23.1734-.154.2293-.114.344.115.344.153 0 .231-.0746.231-.2293zm-.344-24.1414c0 .2306.114.2306.344 0v-.3439c-.078-.076-.154-.076-.23 0-.077.0773-.114.1919-.114.3439zm-.115-12.0694c-.46 0-.5.1148-.116.3441.384.2307.575.1919.575-.1147 0-.1534-.078-.2294-.23-.2294zm-.231 14.8295v-.2307h-.229c-.155 0-.192.0773-.116.2307.076.076.153.076.231 0zm-1.034 21.0359c.076-.0746.114-.152.114-.2293-.229-.2307-.344-.1907-.344.1146 0 .1547.075.1547.23 0zm-.344-3.6787c-.079 0-.116.0401-.116.1148 0 .0773.037.1145.116.1145zm-.116-26.4399c.153 0 .23-.0374.23-.1148 0-.0746-.077-.1146-.23-.1146-.154 0-.23.04-.23.1146 0 .0774.076.1148.23.1148zm-.344 45.408v-.1147c0-.076-.04-.1146-.115-.1146-.079 0-.116.0386-.116.1146v.1147zm-1.61-5.6334c.152-.152.23-.2666.23-.344 0-.1533-.058-.1732-.172-.0572-.115.1146-.174.2492-.174.4012 0 .1546.039.1934.116.1147zm-.46-37.5892c.23.2293.344.2293.344 0h-.229c-.077 0-.115.0385-.115.1145zm0 23.3346c.152 0 .23-.0747.23-.2293-.078-.152-.155-.2294-.23-.2294-.077 0-.114.0774-.114.2294 0 .1546.074.2293.229.2293zm-.23-31.3827c.076 0 .116.0399.116.1159 0-.076.037-.1159.114-.1159zm-.115 10.9213c.075 0 .115.0401.115.1147 0-.0746.038-.1147.116-.1147zm52.764-3.7933c0 .2293-.019.7093-.057 1.4373-.04.7293-.078 1.4761-.115 2.2414-.039.7667-.097 1.7639-.172 2.9879v.8054c0 .384-.02.996-.059 1.8387-.038.844-.096 1.7254-.172 2.644-.076.92-.153 1.84-.229 2.76-.077.9186-.155 1.6093-.229 2.068-.156.844-.251 1.5719-.288 2.1839-.04.6147-.098 1.1507-.174 1.6107 0 .4587-.076 1.0734-.229 1.8387 0 .3067-.019.672-.057 1.092-.04.4226-.058.824-.058 1.2067 0 .308-.02.8626-.057 1.6679-.04.804-.057 1.6281-.057 2.4707 0 .844.037 1.9173.114 3.2186.075.1547.115.7094.115 1.6667v3.1614c0 1.1494-.019 2.224-.057 3.2186-.04.9974-.096 1.5347-.172 1.6094v.2306c.076.0774.114.5948.114 1.5521 0 .9587-.038 1.4759-.114 1.5519-.155 0-.155.0774 0 .2294.152.1546.172.5173.057 1.0919-.115.5747-.287 1.0547-.517 1.4374-.307.46-.46.7667-.46.9201-.155.384-.423.6892-.804.9186-.231.1546-.462.2306-.691.2306s-.729-.0386-1.495-.1146l-1.149-.116-.115-.3439-.114-.3454-.115.4599c-.079.3067-.269.4987-.575.5747-.23 0-.574.0773-1.036.2307-.844.2293-1.648.2293-2.413 0-.46-.1534-.844-.2307-1.149-.2307-.231 0-.73-.0759-1.495-.2293-.767-.1533-1.379-.268-1.84-.3454-.459-.076-1.188-.1145-2.183-.1145h-1.84v.3439c0 .1546.076.6147.23 1.38.076.3067.116.7867.116 1.4374v5.1145c.074.3854.133.8828.172 1.4948.037.6147.074 1.2066.114 1.7826.038.575.058 1.073.058 1.493v.748c-.23.23-.27.499-.115.804.152.155.229 163.336.229 164.638.076 1.304.039 2.089-.114 2.357-.155.269-.73.479-1.724.632-.155.077-.364.135-.632.172-.27.04-.48.097-.632.172-.846.305-1.264.268-1.264-.115 0-.229-.04-.344-.116-.344-.23 0-.346.115-.346.344 0 .231-.153.346-.458.346h-.806c-.23 0-.5-.078-.805-.231-.307-.152-.652-.229-1.033-.229-.386-.076-.652-.115-.806-.115s-.537.039-1.149.115h-1.724c-.691.077-1.343.134-1.955.172-.614.04-1.112.096-1.494.173-.538.075-.959.075-1.264 0-.155-.077-.423-.116-.806-.116-.306 0-.652-.115-1.033-.344-.385-.231-.653-.42-.805-.575-.155-.153-.231-.497-.231-1.034 0-.231-.019-.44-.057-.632-.039-.191-.058-.326-.058-.403-.077-.076-.154-162.951-.23-163.717s-.114-1.34-.114-1.726v-1.034c-.077-.612-.116-1.455-.116-2.5297 0-1.072.039-2.0292.116-2.8732.075-1.3027.132-2.336.172-3.104.038-.7653.058-1.2254.058-1.3788v-.4599c0-.46-.02-1.0734-.058-1.8387-.04-.7654-.097-1.2254-.172-1.3801-.077-.2306-.23-.3626-.461-.4026-.229-.0374-.804-.0573-1.724-.0573-.384 0-.844-.0187-1.379-.0573-.537-.0387-.997-.096-1.38-.1734-.384-.0746-.729-.1147-1.034-.1147h-6.896c-.462 0-.768.0401-.92.1147-.308.1547-.538.212-.691.1734-.153-.0387-.421-.1734-.804-.4027-.385-.152-.633-.3627-.747-.632-.116-.268-.25-.7081-.402-1.3227-.078-.152-.135-.3827-.174-.6893-.038-.3054-.096-.5747-.172-.8041-.077-.3826-.114-1.0932-.114-2.1279v-10.8626c0-.6894.074-1.0347.229-1.0347.076 0 .076-.0374 0-.1147-.077-.076-.115-.3454-.115-.8041 0-.46-.04-1.84-.114-4.14 0-.5346-.02-1.1666-.058-1.8959-.04-.7267-.058-1.36-.058-1.896v-8.5653c0-1.4933.018-2.948.058-4.368.038-1.4173.058-2.6613.058-3.736v-5.7481c.074-.612.114-1.2639.114-1.9532v-6.0935l.46-.4599c.23-.2294.535-.4201.919-.5747.153 0 .288-.0173.403-.0573.116-.0374.21-.0573.288-.0573.305-.076 1.034-.152 2.184-.2307 1.149-.0746 2.394-.1147 3.736-.1147h3.966c1.302 0 2.299.0401 2.988.1147.383 0 1.072.02 2.07.0586.994.0387 2.069.0573 3.218.0573 1.15 0 2.223-.0186 3.219-.0573.995-.0386 1.725-.0586 2.184-.0586.305 0 1.073-.0173 2.299-.0559 1.225-.0387 2.548-.0588 3.966-.0588s2.739.0201 3.966.0588c1.225.0386 2.029.0559 2.414.0559.306 0 1.052.02 2.242.0586 1.188.0387 2.472.0573 3.852.0573 3.524 0 5.402.0388 5.632.1148.382.1546.804.364 1.265.632.459.2693.764.48.919.632.153.308.497.7293 1.034 1.2653.612.6146 1.035 1.304 1.266 2.0693.229.7667.42 1.8787.574 3.3333v1.8387z"/><path d="m199.965 170.178-.133-.153c-.087.001-.128.056-.125.159.005.31.092.362.261.15zm-.333 2.81c.083-.104.125-.21.124-.315l-.788-.452c-.084.107-.057.34.079.7.137.363.248.54.335.539l.253-.318zm-.967-16.175c-.086 0-.129-.048-.132-.153.003.105-.041.157-.126.158h.258zm-.88-5.276c-.002-.103-.047-.155-.133-.153-.086.001-.129.056-.127.158h.26zm-.173 24.137c-.088.002-.132-.049-.133-.153.001.104-.042.156-.127.159h.26zm-1.083-2.314c.082-.208.079-.314-.006-.312-.175 0-.303.06-.386.164-.085.106-.082.21.006.312.092.309.221.306.389-.014l-.003-.156zm-.161-1.554c-.091-.205-.18-.308-.264-.306-.088.001-.128.106-.124.313.004.209.091.309.265.307.172 0 .258-.108.254-.316h-.131zm-8.36-69.278c.089.208.177.257.263.15.082-.104.124-.26.12-.469-.011-.517-.146-.775-.404-.771-.175 0-.214.16-.122.471.178.205.268.409.272.616h-.129zm.265 79.401c.088.104.198.153.328.151.128 0 .191-.107.187-.316l-.005-.311c-.09-.101-.196-.099-.324.013-.127.107-.148.212-.059.312l-.127.158zm-1.777-77.191c.086 0 .128-.054.127-.158-.003-.103-.048-.155-.132-.154-.088.002-.13.056-.127.159.001.104.046.155.132.153zm-1.085-2.47c-.002-.103-.048-.155-.133-.152-.174 0-.257.109-.253.316-.082.21-.058.312.071.309.129 0 .235-.107.319-.317zm-.55-1.546c.004.208.093.31.267.306.172 0 .256-.107.252-.316-.004-.207-.051-.311-.136-.31-.087 0-.171.108-.252.318h-.131zm.011 20.24c.001.104.064-.001.188-.314.123-.315.183-.523.181-.627h-.258c-.175 0-.323.111-.447.32-.127.212-.103.367.073.465.172 0 .262.1.266.307l-.003-.156zm-.886 1.107c.266.307.394.253.386-.163-.003-.101-.091-.153-.263-.15-.258 0-.301.11-.123.313zm-.107-5.447c.172 0 .259-.056.256-.161-.001-.101-.091-.153-.263-.149-.173 0-.257.058-.256.16.003.105.089.153.263.15zm-.167 17.908c.173 0 .259-.054.256-.16-.001-.101-.176-.152-.52-.145-.347 0-.517.115-.513.321.002.106.09.259.269.462l.265.306h.259c.085-.001.083-.102-.007-.31-.266-.408-.228-.619.119-.626l-.128.158zm-2.365-1.665c.085 0 .128-.104.124-.313-.004-.207-.072-.362-.204-.464-.131-.099-.24-.047-.322.162-.082.211-.078.391.011.546.089.153.219.177.391.069zm-1.387-4.644c.345.099.52.044.515-.165-.006-.311-.223-.359-.651-.143-.172.108-.171.212.007.311h.129zm-.573-2.791h-.259c.002.104.087.154.261.151l-.002-.156zm-.99 9.05c-.088-.1-.153-.099-.193 0-.043.105-.017.209.071.31.088.103.132.102.129 0zm-.605-11.043c.172 0 .259-.056.256-.16-.001-.103-.089-.155-.261-.151-.175 0-.259.059-.258.16.003.106.088.155.263.151zm-.827 17.299-.002-.155c-.002-.103-.048-.155-.132-.153-.088 0-.13.056-.127.157l.003.156h.258zm-.842-9.948c.001.105.045.154.132.153.085 0 .128-.053.127-.159-.091-.205-.181-.306-.266-.305-.087.001-.085.105.007.311zm-1.503 2.677c.079-.313.031-.571-.145-.776-.27-.513-.573-.559-.909-.137-.082.312-.077.572.014.777.363.927.711.973 1.04.136zm-1.636-37.0252c-.088-.1-.153-.0987-.195 0-.041.1053-.017.2092.072.3105.087.1027.132.1014.13 0l-.007-.312zm.027 93.5742c.085-.001.128-.053.126-.157-.002-.103-.048-.155-.133-.153-.087.001-.128.056-.125.158.001.104.045.155.132.152zm-2.126-55.386c-.002-.102-.048-.155-.133-.154-.173 0-.257.11-.253.316.002.106.045.156.132.154.172 0 .258-.107.254-.316zm-.63-12.288c-.086.106-.126.262-.122.469.088.103.219.152.392.148.172 0 .258-.107.254-.316-.003-.103-.092-.256-.268-.463-.092-.204-.179-.202-.26 0l.004.156zm-.854 9.358c-.085.107-.041.158.134.154.172 0 .341-.11.51-.322.171-.105.128-.158-.132-.153-.258 0-.473.113-.641.324h.129zm-.188 3.586c-.088.001-.128.106-.124.313.004.209.051.415.142.62.092.311.265.307.519-.013.082-.103.078-.312-.013-.623-.089-.1-.133-.204-.136-.308l-.133-.153-.255.161zm-.29-1.552c-.086.106-.123.314-.118.625.18.413.266.307.254-.316-.007-.312-.052-.361-.132-.153zm-.002 6.54c-.004-.207-.049-.284-.133-.231-.087.055-.171.185-.252.395-.083.209-.039.312.136.308.172 0 .257-.108.253-.316zm-.362-5.287c-.176-.099-.306-.072-.387.085-.084.158-.04.288.137.387.262.1.432.045.515-.165-.004-.207-.093-.31-.265-.307zm4.521 25.601-.028-1.4c-.097-.517-.32-.824-.667-.921-.26-.097-.694-.143-1.298-.131-.604.014-1.23.051-1.876.115-.647.067-1.228.156-1.744.268-.516.115-.86.227-1.031.332-.172.108-.299.239-.381.396-.083.157-.207.499-.368 1.02-.083.211-.166.445-.246.705-.081.262-.206.498-.374.708-.335.63-.499.998-.497 1.1.002.104-.081.366-.243.783-.084.211-.168.392-.25.549-.084.159-.167.343-.247.551-.167.419-.246.732-.242.939-.083.21.391.045 1.416-.495.855-.431 1.368-.651 1.543-.653.172 0 .472-.034.905-.096.429-.059.904-.147 1.42-.262 2.152-.353 3.445-.481 3.881-.388.172 0 .258-.082.254-.237-.003-.156-.011-.545-.023-1.168l-.04-2.024zm-13.457 1.044-.004-.156c-.002-.102-.047-.154-.132-.153-.087.001-.128.056-.127.157l.003.156h.26zm-1.883-56.172c.265.307.392.203.383-.318l-.007-.311c-.087.001-.15.08-.189.237-.041.156-.018.287.072.388h-.259zm-.072 62.282c.085-.002.13-.054.127-.158-.001-.102-.047-.154-.132-.153-.087.001-.128.056-.127.159.003.104.045.154.132.152zm-.801-1.23c.177.207.262.151.256-.16-.004-.206-.092-.31-.264-.306-.26 0-.303.11-.124.313zm-.356-4.976c-.088 0-.13.058-.127.159.005.312.092.364.262.151-.004-.207-.051-.311-.135-.31zm.022 7.786c.348.202.436.2.259 0-.001-.102-.089-.154-.261-.151-.087.001-.087.056.002.156m-.824 4.22c-.088-.1-.153-.099-.194 0-.042.105-.018.209.07.309.088.104.132.103.131 0zm-1.881 3.151c.255-.212.335-.474.243-.783-.092-.311-.312-.461-.656-.455-.434.014-.623.274-.568.79.052.52.296.826.73.92.086-.002.214-.106.383-.319zm-3.604 1.316.131-.002c-.003-.102-.027-.156-.068-.154-.046 0-.064.054-.063.156.003.105.046.156.134.154zm.027-11.834c-.004-.206-.052-.361-.139-.464-.177-.202-.308-.252-.391-.148-.085.107-.082.263.008.467.183.517.4.513.648-.013zm-.735 8.734c.168-.21.124-.314-.136-.308-.347 0-.516.114-.512.321-.083.211-.059.313.071.311.129 0 .277-.108.446-.322h.131zm-1.676-32.507h.259l-.263-.151c-.173 0-.257.059-.256.16.004.21.092.31.265.307l-.005-.311zm.691 41.713c-.004-.206-.052-.361-.139-.464-.089-.101-.176-.098-.26 0-.084.106-.125.211-.123.314.002.104.068.153.198.152.129 0 .234-.056.321-.163l.003.156zm-.8 5.466c.172 0 .258-.058.256-.162-.002-.102-.091-.153-.263-.15-.173 0-.257.058-.256.161.003.104.088.153.263.151zm-4.339-50.187c-.053-.413-.156-1.023-.133-1.579.022-.504-.046-1.002-.011-1.524.032-.518-.04-1.094-.059-1.341.006-.471.114-.957.103-1.477-.004-.207.128-1.308.163-1.776s.041-1.791.118-2.314c.127-2.284.049-1.574.118-2.51.075-.519.184-1.411.257-2.139.071-.727.024-1.949.103-2.365.148-1.25.034-1.163.12-1.27 0-.702.12-1.2.161-1.738-.092-.31.125-1.364.163-1.78.033-.414.069-1.727.099-2.039.025-.267.166-1.305.187-1.731-.012-.353.115-1.248.101-1.976.066-.934.381-2.098.374-2.41-.005-.311.177-2.064.347-2.278.081-.208-.214-.865-.242-1.918-.02-.782-.26-1.091-.145-1.348.167-.374.151-.699.201-.878.092-.196.124-.426.174-.576.052-.158.092-.309.086-.532.076-.414-.026-.468.011-.834.036-.363.272-.994.355-1.2043.164-.4173.541-1.0907.688-1.2401.238-.2426 1.124-.9252 1.293-1.1372.083-.104 1.785-1.14 1.827-1.2973.04-.156.545-.3934.628-.6041.079-.3133.978-.8307 1.518-1.1907.716-.4773 2.044-1.652 2.356-1.7733.46-.1773 1.915-1.0839 2-1.1893.423-.1626 1.039-.684 1.824-1.292.442-.3413.634-.6081.986-1.1761.591-.9533 1.164-1.8599 1.334-2.0719.084-.104 3.556-6.208 3.647-6.5907.263-1.1106 4.257-5.1586 4.492-5.5372.319-.516.956-1.0427 1.486-1.424.422-.3054.791-.7374 1.05-.7427.257-.1067.384-.5014.863-.7067.456-.1947.63-.3494 1.062-.4627.43-.1107.912-.4667 1.3-.528.388-.0587 1.228-.3199 1.4-.4279.386-.0934 1.537-.3841 1.751-.3881.359-.0133 1.38-.1747 1.769-.1827.388-.0134.788-.0893 1.314-.0186.289.0387.544.0346 1.224.176.317.0653.758.1706 1.025.2373.301.12.569.2667.84.4213.26 0 .364.18.624.2253.26.048.547.3427.72.3387.413.02.917.5481 1.111.6854.205.192 1.125.592 1.235.728.058.0707.549 1.5266 1.253 2.1346.441.512 2.26 5.8214 2.445 6.3867.184.568 2.637 9.9481 2.925 11.3947.094.4147.166.8013.218 1.1626.049.364.12.6481.211.8521.089.208.159.492.211.8533.05.364.12.6973.214 1.008.092.3093.187.696.283 1.1613.093.4653.187.8519.282 1.1626.188.828.291 1.6557.308 2.4857.016.832.117 1.658.307 2.484.189.829.292 1.657.308 2.485.018.935.114 1.504.293 1.708.087.103.137.412.148.931.007.31.1.777.287 1.396.089.206.138.44.144.697.004.26.009.493.013.7.011.521.06.883.151 1.088.18.412.282 1.188.305 2.329.02 1.038.122 1.866.308 2.486.184.618.28 1.084.287 1.394.005.312.056.727.154 1.243.095.52.244 1.552.45 3.105.089.208.137.44.142.699.006.259.011.493.015.7.008.416.101.829.283 1.24.18.412.278.983.293 1.707.101.83.157 1.425.164 1.788.008.364.061.958.165 1.786.102.83.158 1.426.164 1.787.008.365.016.805.027 1.324.007.311.06.881.164 1.709.101.83.199 1.398.292 1.707l.144 7.315c.019.934.117 1.608.299 2.018.178.308.186.724.024 1.246l.028 1.4c.006.312-.036.468-.12.469-.088 0-.128.108-.124.315.002.104.045.154.133.153.083-.104.152.101.207.617.052.52.086 1.143.101 1.867l.031 1.557c.001.104.031.544.091 1.322.057.777.098 1.737.121 2.877.155 3.528.242 5.784.262 6.768.02.988.075 1.688.171 2.099l.022 1.089c-.083.212-.095.756-.033 1.636.06.881.135 1.425.226 1.631.181.412.281 1.084.298 2.018l.059 2.956c.104.934.16 1.555.167 1.866.006.312-.035.521-.118.625-.173 0-.169.213.012.623.09.206.14.517.148.932.004.208.01.465.016.777.006.311.055.621.149.931.187.829.293 1.761.313 2.797l-.369.941c.101.83.113 1.452.035 1.868-.078.418-.318 1.356-.722 2.816-.083.212-.466 3.33-.931 3.752-.468.426-.841.506-1.293.474-.48-.032-.766.074-1.283.136-.517.064-.497.03-.875.014-.392 0-.522-.02-.761-.013-.36.016-.652.081-1.084.089-.692.014-.863-.014-1.195.016-.256 0-.89.015-1.621.132-.733.116-1.617.156-2.395.172l-1.75-.2c-.517.112-.76.03-.846.031s.123.061-.322 0c-.206-.028-.452-.109-.537-.108-.087 0-.569.277-.738.292-.325.029-.717.08-1.321.092-1.121.124-.912 0-2.338.031-1.424.028-2.312.06-2.744-.034-.697-.196-1.38-.112-1.897-.101-.52-.095-1.192.112-1.932-.237-.741-.348-1.257-1.879-1.696-2.287-.705-.608-1.149-1.324-1.339-2.153-.001-.102-.048-.206-.136-.308-.086.001-.219-.203-.401-.616-.181-.41-.273-.719-.277-.928-.001-.103.082-.158.256-.16.174.1.26.048.256-.162-.004-.206-.094-.309-.266-.306-.173 0-.35-.278-.534-.846-.186-.566-.282-1.162-.294-1.785-.004-.207-.009-.467-.016-.777-.005-.312-.056-.57-.145-.776-.092-.31-.147-.878-.163-1.71-.004-.206.01-.545.046-1.013.033-.468.045-.96.034-1.48.07-.831.106-1.299.103-1.403-.001-.102-.089-.101-.26 0-.428.219-1.373.444-2.837.679-1.465.239-2.802.368-4.01.391l-1.942.038c-.175 0-.691.119-1.55.342-.689.118-1.118.282-1.286.493-.083.209-.18.679-.296 1.407-.115.729-.33 1.978-.639 3.749-.235 1.251-.552 2.711-.95 4.379-.083.21-.142.496-.178.858-.037.367-.095.756-.172 1.172-.071.834-.229 1.459-.48 1.878-.928 1.264-2.944 1.926-6.053 1.988l-3.498.068c-.777.016-1.276.025-1.489.029-.217 0-.456-.095-.719-.297-.44-.303-.749-.71-.932-1.227l-.403-.771-.236-11.984c-.004-.206-.301-.936-.201-2.444.1-1.505-.005-2.856.146-4.001.144-1.456-.015-3.703.196-6.199.209-2.494.021-5.532.166-6.989-.016-.829.063-1.769.007-2.995-.047-1.049-.301-2.404-.275-3.288.027-.88-.026-1.278.044-2.112.076-.416.054-1.337.088-1.805.034-.467-.111-.791-.029-1 .16-.627.036-.781.02-1.613-.009-.414-.009-.976.027-1.342.036-.364-.047-1.017-.051-1.226.164-.416-.084-.496-.103-1.43-.018-.934-.191-1.214-.025-1.634-.045-.382-.072-1.042-.076-1.251-.005-.207-.077.001-.087-.937-.004-.396-.05-.584-.072-.858-.006-.052.08-.104-.009-.312-.176-.098-.053-.314-.095-.514"/><path d="m247.998 125.842c-.074 0-.106.055-.101.148.077.089.173.108.281.052.107-.052.156-.172.144-.362-.012-.188-.07-.513-.173-.978-.103-.464-.192-.695-.265-.691l.018.281c.018.283.066.47.146.556.102.467.117.701.044.705zm2.942 34.721c.21-.2.216-.388.02-.566-.196-.175-.518-.296-.967-.363-.301-.075-.449-.066-.443.026.006.095.159.18.46.255.154.085.29.172.406.257.117.088.1.135-.047.144-.149.014-.143.104.017.282.091.277.312.262.664-.042h-.11zm-3.382-32.857c-.073 0-.113-.039-.118-.133-.006-.094.026-.143.101-.149.073 0 .115.042.12.134.005.095-.029.144-.103.148zm2.688 44.913.222-.015c-.018-.281-.128-.274-.332.022.005.094.045.139.12.133zm-2.877-46.173c-.239-.268-.409-.328-.512-.18-.101.148-.029.404.215.764.17.367.26.597.265.69.012.188.071.233.175.13.105-.099.185-.294.242-.58-.024-.374-.116-.651-.274-.831l-.111.013zm-1.731-1.023c-.005-.092-.046-.137-.12-.133-.148.013-.214.108-.204.294.007.095.044.118.115.065.071-.051.101-.17.089-.359zm-.464-2.091c.006.095.082.136.231.127.147-.013.217-.06.212-.155l-.221.015zm.194 8.467c-.074 0-.104.101-.094.289.007.095.047.138.12.134.074 0 .106-.099.094-.288-.006-.093-.047-.139-.12-.135zm-.972-10.254c-.075 0-.107.054-.102.146.006.095.044.139.119.135.073 0 .108-.053.103-.148-.007-.092-.047-.139-.12-.133zm-1.163 2.757c-.203.295-.159.433.137.414h.111c-.017-.281-.095-.322-.229-.126l-.019-.281zm.363 7.608c-.154-.083-.246-.077-.276.017-.032.098.029.188.184.271l.221-.013.12.133c.164.273.272.22.323-.161.061-.191.049-.379-.035-.563-.087-.183-.161-.177-.221.013.005.095-.067.147-.214.155zm-.344-1.958-.008-.14c-.007-.093-.047-.138-.12-.134-.075 0-.108.056-.102.148l.008.141zm-2.994-44.4688c-.148.0133-.209.204-.185.5773.017.2813.081.4186.192.4119.111 0 .193-.1532.251-.4399.049-.3787.004-.5174-.138-.4147zm2.24 37.7328c-.148.014-.214.108-.204.296.012.19.055.279.13.274.073 0 .141-.1.204-.295-.012-.187-.092-.277-.239-.268l.109-.013zm-.672-.098c-.192.484-.141.715.154.696l.112-.013-.018-.282c-.012-.187-.056-.28-.129-.274-.075 0-.143.103-.204.295l.085-.429zm-.04 6.503c-.142.104-.137.198.018.281.374.072.482.018.324-.162-.08-.088-.195-.129-.342-.119zm-3.286-42.0498c-.08-.088-.171-.0601-.272.0879-.103.148-.115.268-.035.356.091.276.201.2693.333-.0213.135-.196.13-.2906-.018-.2813zm-1.475-.4734c-.08-.088-.115-.0386-.103.1481.086.1853.167.2958.244.3385.075.044.11-.0292.098-.2186zm.965 35.1282c.007.095.12.133.342.12.221-.014.329-.067.324-.161-.012-.187-.092-.278-.24-.269-.148.014-.215.109-.203.297zm.991 15.906c-.061.195.015.237.232.127.072 0 .144-.055.212-.155-.239-.266-.421-.206-.545.177zm1.672 33.954-.009-.142c-.006-.092-.047-.137-.119-.133-.075 0-.108.056-.103.148l.01.14zm-2.592-34.462c.007.095.081.138.231.129.146-.014.218-.061.212-.157-.012-.186-.092-.275-.239-.266-.149.013-.216.108-.204.294zm-1.396-4.576c-.156-.082-.225-.031-.213.155.012.19.074.303.188.342.113.041.201-.035.264-.228-.007-.092-.09-.23-.248-.409zm-1.303-8.397c-.074 0-.106.055-.101.147.017.281.093.325.231.128l-.12-.135zm2.552 49.867c.283-.205.315-.303.094-.29-.371.024-.546.176-.528.458.012.189.156.132.434-.168zm-3.805-41.451c.005.093.044.137.119.133.073 0 .108-.053.102-.147zm2.755 35.299c.27-.394.186-.577-.256-.551l-.554.035c-.228-.079-.338-.071-.333.021-.051.38.112.607.487.676-.086-.183-.074-.3.034-.355.108-.053.204.014.29.194.005.095.041.092.11 0l.222-.014zm-22.5 13.555c.073 0 .105-.101.093-.289-.012-.186-.055-.279-.128-.275-.075 0-.103.148-.084.43.011.188.053.279.128.273zm-.674-.101c-.073 0-.106.057-.101.149.007.094.045.138.12.133zm-8.066-90.2222c-.007-.092-.083-.136-.231-.1267-.149.0134-.256.0653-.323.1613-.137.1987-.021.2841.35.2614l.093-.2879.111-.0133zm-3.463 12.2282-.128-.275c.007.095.048.187.128.275zm-1.496-2.591.223-.015c-.019-.281-.128-.274-.334.022.007.093.046.138.12.133zm52.172 60.064c.017.281-.3.416-.515.701-.116.155-.528.82-.686 1.095l-.423.63c-.147.245-.444.495-.835 1.199-.365.659-.545.586-.878 1.171-.198.389-.387.815-.658 1.207-.273.395-.914 1.528-1.061 1.537.005.095-.659 1.166-.732 1.171-.075 0-.628.855-.695.951-.137.198-.489.895-.636.905-.221.013-.185.514-.461.814-.353.306-.332.491-.608.862-.271.362-.516.479-1.08 1.607-.168.334-1.069 1.446-1.363 2.158-.254.618-.502 1.111-.646 1.253l-5.112 7.51-3.843 5.742-1.709 1.802c-.458.34-1.264.865-1.886 1.192-.64.334-2.64.972-3.077 1.092-.444.027-2.872.087-3.127.148-.257.065-1.454-.111-1.638-.099-.186.014-1.267-.014-1.488 0-.222.014-.858.038-1.3.064l-1.063.048-1.604-.165c-.517.032-1.667.081-2.268.11-.212.055-.665.136-1.551.191-.664.041-2.025.178-2.212.142-.014 0-2.333.023-2.357.022-.907-.051-.941-3.412-1.101-4.304-.679-3.773-.252-6.641-.502-7.708-.092-.276-.189-2.779-.249-3.152-.061-.372.001-2.433-.084-2.619-.184-.553-.215-1.111-.232-1.393-.017-.281.069-.651.064-1.052.005-.249-.273-.524-.343-1.038-.069-.512-.072-.866-.01-1.061l-.096-1.548c-.059-.937-.027-1.598.098-1.984.118-.478.37-.893.756-1.249.386-.352.726-.539 1.022-.557.812-.051 1.49.143 2.037.58.927.601 1.795.876 2.608.825.295-.017.671.053 1.125.213.76.33 1.366.505 1.811.523.447.022.995-.084 1.648-.315.504-.218 1.035-.346 1.588-.381s.948.036 1.18.209c.153.086.375.071.664-.041.573-.318.852-.619.833-.9-.034-.563-.629-1.184-1.782-1.868-.308-.168-.578-.338-.811-.514-.233-.174-.391-.305-.469-.395-.16-.178-.408-.303-.747-.377-.337-.072-.577-.057-.719.045-.074 0-.297 0-.669-.03-.373-.022-.745-.046-1.116-.071-.373-.023-.747-.07-1.12-.142-.376-.069-.604-.15-.683-.24-.08-.088-.23-.128-.452-.113-.221.013-.71-.098-1.465-.334-.756-.234-1.361-.432-1.816-.593-.603-.149-1.105-.496-1.509-1.036-.155-.084-.252-.172-.295-.265-.044-.089-.105-.18-.183-.271-.081-.088-.122-.18-.129-.275l-.512-1.098c-.344-.731-.52-1.191-.532-1.38-.011-.187-.103-.464-.273-.831-.172-.364-.278-.876-.318-1.535-.19-.645-.324-1.014-.402-1.105-.16-.177-.246-.36-.258-.549-.01-.187-.04-.655-.086-1.408l-.914-14.64-.128-.275c-.085-.181-.15-.648-.198-1.4-.047-.751-.11-2.348-.187-4.793-.095-1.5-.185-3.239-.269-5.212-.087-1.974-.184-3.851-.296-5.635-.111-1.781-.228-3.352-.35-4.712-.122-1.357-.194-2.225-.217-2.601l-.155-2.486c-.03-.484-.077-.968-.146-1.448-.067-.468-.104-.796-.116-.986-.042-.655-.028-1.034.04-1.132.054-.287.044-.474-.035-.564-.08-.088-.141-.485-.185-1.189s-.092-1.479-.146-2.323c-.052-.844-.082-1.62-.089-2.327-.007-.705.024-1.106.092-1.206l-.079-1.267c.036-1.7909-.474-2.4121-.265-2.6148.141-.1013-.093-.7053-.099-.8-.006-.092.13-.8947-.017-.8867-.075 0-.528-1.6733-.495-2.3346-.041-.656-.984-4.2641-.86-4.6494.062-.192-1.952-17.2187-2.033-17.8801-.055-.452.811-4.3733 1.811-4.9879.458-.2827.884-.5093 1.324-.5786.425-.0667.865-.0173.94-.0227l.693-.0228.404.0907c.141-.1027.229-.0266.469-.0452.222-.016.382 0 .672-.0227.17-.0133.438-.0413.788-.04.31 0 .699.0147.991.096.168.0467.583.0147.913 0 .275-.0133.667.0493.952.0493.287.0187.971-.0133 1.148-.0133.62 0 1.532.0173 1.688.0999.294-.0173 1.264.1427 1.48.0347.363-.1147 1.286.0441 1.446.0174.112-.044.488.0679.618.0173.067-.0974.382.1373.574.096.406-.0853.392-.0161.902-.1427.37-.024.648-.0706.922-.1386.105-.0266-.024.1.782-.0467.807-.1426.88-.064 1.03-.0734l.505.0521c.509-.124.712.0146.717.1066.019.2827-.033.0921.32-.2119.067-.0973.184.2145.292.1585.11-.052.236-.0612.534-.0799.293-.0173-.008.084.505 0 .153-.024.432-.024.824-.1053l.401.0812c.072 0 .224-.0159.886-.1053.661-.0866.348.0814 1.122.0334.776-.048.611 0 1.388 0 .779 0 1.356.3494 1.652.3307.375.072 1.312.5719 1.686.5946.372.0253 1.266.972 1.488.9586l.917.6814.619.576c.616.4866.83 1.2266 1.169 1.2986.337.0734.959 1.3294.971 1.5174.005.0934.909 1.0213.998 1.2053.338.7027 1.106 1.9213 1.23 2.1107.208.3186 1.224 1.9134 1.682 2.5934.303.448.711 1.0492.871 1.2265.079.0894.627 1.0802.776 1.0708l.897 1.48c.307.1707.666 1.0786.82 1.1626.152.0854.574.9081.819 1.2681.409.6347.881 1.364 1.055 1.616.294.3667.714 1.1613 1.058 1.6066.136.176.707 1.02 1.027 1.376.084.1854.308.6254.516.9374.232.352.844.7839 1.16 1.3505.273.492 1.001 1.6454 1.809 3.0468.724 1.256 2.926 4.0253 3.58 5.3066.387.7559 1.024 1.4019 1.455 2.1559.375.655 1.599 1.982 1.617 2.263.035.563 1.666 2.409 2.048 3.072.808 1.401 2.842 4.104 4.203 6.575 1.456 2.641 5.281 7.275 6.532 10.351l3.608 5.5-.028 1.627c.076 1.222.087 2.326-.365 3.16-.676 1.25-1.994 3.315-1.914 3.403l-1.424 2.215c-.429.7-1.28 2.054-1.949 3.134-.289.564-1.075 1.43-1.584 2.219-1.028 1.593-1.137 1.189-1.593 2.158-.138.199-1.658 2.699-1.748 3.034-.091.337-1.664 2.427-1.8 2.623-.379 1.061-6.782-.355-7.674-.395-.221.013-.5.013-.834-.019-.335-.025-.652-.031-.946-.013l-1.661.104c-.221.013-.341-.12-.359-.401.023.376-.116.525-.416.449l-1.772.11c-.442.028-.83.053-1.162.073-.332.021-.54-.014-.619-.103-.08-.088-.157-.131-.229-.127-.88.15-1.562.239-2.04.268-.482.031-.943.037-1.39.016-.445-.019-.705-.027-.778-.021-.15.013-.256.064-.324.161-.068.099-.436.121-1.107.068-.377-.069-.731-.117-1.065-.145-.335-.026-.578-.035-.724-.025-.15.013-.228-.079-.24-.269-.011-.186-.055-.278-.128-.274-.075 0-.104.101-.094.289.007.095-.472.171-1.43.229-.592.038-.996.063-1.218.076-.222.015-.488-.061-.793-.233-.836-.322-1.305-.717-1.408-1.184-.011-.187-.097-.369-.256-.549-.16-.178-.251-.455-.273-.831-.007-.089-.042-.356-.103-.8-.064-.455-.119-.912-.145-1.371-.028-.496-.076-.966-.143-1.408-.064-.42-.097-.677-.103-.77-.018-.282-.036-.846-.05-1.694-.016-.846-.038-1.764-.06-2.752-.026-.986-.031-1.952-.015-2.896.015-.941.015-1.554-.003-1.835.044-.474.052-1.227.026-2.263-.028-1.035-.074-2.068-.138-3.102-.061-2.161-.14-4.322-.237-6.485-.099-2.16-.147-4.418-.144-6.774-.065-4.611-.252-7.615-.561-9.01-.184-.553-.318-.92-.403-1.105-.085-.183-.208-.363-.367-.543-.478-.535-1.008-.689-1.585-.465-.507.22-.848 1.277-1.025 3.172.012.189.002.353-.026.496-.029.144-.038.264-.033.356l.096 1.548c.047.752.025 1.601-.063 2.548-.016.944.007 1.885.066 2.823.057.938.125 2.63.204 5.074.23 4.886.232 7.287.005 7.207-.076 0-.105.101-.093.288.01.189.089.277.238.268.072 0 .135.369.182 1.119.046.752.096 1.549.148 2.393.053.844.102 1.643.149 2.393.047.752.032 1.128-.04 1.133-.069.099-.063.194.017.282.147-.013.256.549.327 1.675.172 1.593.335 3.018.489 4.279.151 1.263.275 2.033.367 2.31.176.461.328 1.134.459 2.02.128.889.12 1.334-.028 1.344l.009.141c.005.095.045.139.12.134l.119.134c.078.089.125.228.137.415.012.189.113.653.309 1.394.188.648.427 1.223.719 1.722.289.501.625.833 1.007.997.305.171.497.252.57.247l.223-.013c.221-.014.637.15 1.252.486.16.18.423.256.793.233.455.162.719.238.794.234.526.157 1.014.244 1.46.263.446.02.965.034 1.56.043.593.014 1.388-.015 2.385-.078.997-.061 2.381-.148 4.152-.259l8.416-.524c.664-.041 1.108-.069 1.329-.083.222-.014.448.067.682.241.846.512 2.341 1.333 2.002 2.806-.044.194-1.402 1.991-1.764 2.661l-.453.628z"/></g></svg>