<svg fill="none" height="19" viewBox="0 0 22 19" width="22" xmlns="http://www.w3.org/2000/svg" xmlns:xlink="http://www.w3.org/1999/xlink"><mask id="a" fill="#000" height="19" maskUnits="userSpaceOnUse" width="21" x=".499997" y="-.000003"><path d="m.499997-.000003h21v19h-21z" fill="#fff"/><path d="m12.0701.766632c0 .006956-.0184.01391-.0396.01391-.041 0-.1543.051465-.2449.112666-.0481.03199-.1826.193342-.1826.218372 0 .00696-.0099.02087-.0213.0306-.0113.00974-.0212.02643-.0212.03756 0 .01112-.0085.04033-.0198.06398-.0651.14187-.0651.12379-.0651 1.80542 0 1.25878-.0043 1.58426-.017 1.58426-.9287-.00139-1.74418.02364-1.81638.05564-.01557.00695-.09202.01669-.16988.02086-.07787.00556-.14724.01391-.15573.02086-.00708.00557-.05804.01391-.11184.01948-.0538.00556-.10476.01391-.11326.01947-.00849.00556-.0637.01669-.12175.02643-.05804.00973-.15006.02642-.20527.03894-.0538.01113-.13733.02782-.18263.03478-.04672.00834-.0906.01947-.0991.02503-.00849.00557-.04672.01669-.08636.02643-.12458.02782-.19819.04729-.21943.05842-.01274.00695-.04389.01669-.07078.02225-.0269.00557-.05522.0153-.06371.02087-.00708.00556-.04106.0153-.07362.02086-.03397.00556-.06087.0153-.06087.02226 0 .00695-.01416.01251-.03115.01251-.03822 0-.21518.05703-.22085.07233-.00283.00557-.0184.01113-.03539.01113s-.04672.00834-.06654.01808-.06654.02921-.10618.04312c-.03822.01391-.09626.03616-.12741.05007-.03114.01252-.08494.03478-.12033.04869-.0354.01391-.08353.03338-.10901.04311-.02407.01113-.05097.01948-.05946.01948-.0085 0-.01557.00556-.01557.01252 0 .00695-.01841.01669-.04248.02225-.02265.00556-.04247.01391-.04247.02086 0 .00696-.0184.0153-.04247.02087-.02265.00556-.04247.0153-.04247.02225 0 .00696-.00849.01252-.01982.01252-.02123 0-.39073.17665-.40489.19334-.00425.00417-.03539.02225-.07078.04034-.11751.05981-.21944.11822-.22369.13074-.00283.00557-.01274.01113-.02265.01113-.00849 0-.04955.02225-.09202.04868-.04105.02643-.08069.04869-.08777.04869s-.01274.00556-.01274.0139c0 .00696-.00566.01391-.01416.01391-.01274 0-.08494.04312-.15573.0932-.0184.0139-.0453.0292-.05946.03477-.01415.00556-.02548.01669-.02548.02503 0 .00696-.00708.01391-.01415.01391-.01699 0-.10335.05703-.11043.07233-.00283.00696-.01133.01113-.0184.01113-.00708 0-.04247.02225-.07928.05007-.15573.11267-.20811.153-.23359.17526-.01416.01391-.03115.02504-.03823.02504-.00566 0-.0269.0139-.04672.0306-.01982.01808-.06087.05007-.0906.07372-.02831.02225-.0722.05841-.09627.07789-.02407.01947-.06229.05146-.08494.06954-.02407.01809-.06229.05147-.08636.07511-.02406.02226-.06654.05842-.09485.07929-.05663.04172-.61583.58836-.68803.6732-.07928.09041-.17838.2003-.2166.24202-.01982.02087-.05238.05981-.07079.08485-.0184.02643-.04388.05703-.05521.06955-.03539.03616-.07645.08623-.11326.1377-.0184.02642-.03822.05146-.04388.05563-.01416.01113-.11184.13771-.11184.14744 0 .00417-.0085.0153-.01699.02504-.00991.01113-.0269.0306-.03681.04451-.03256.04868-.15714.22115-.16847.23506-.00708.00696-.03539.05147-.06371.09737-.06229.10015-.17554.27262-.19253.29209-.00566.00696-.0269.04451-.04672.08346-.0184.03755-.03822.07233-.04389.0765-.00566.00417-.01698.02364-.02406.04173-.01841.04033-.04389.08206-.06937.10849-.0085.00973-.01699.02782-.01699.03894 0 .01113-.00566.01948-.01274.01948s-.01699.01947-.02265.04172c-.00567.02365-.01416.04173-.02124.04173s-.01557.01947-.02123.04173c-.00567.02365-.01416.04173-.02124.04173s-.01557.01808-.02123.04173c-.00567.02225-.01416.04172-.02124.04172s-.01557.01948-.02124.04173c-.00566.02365-.01415.04173-.02123.04173s-.01557.01947-.02124.04173c-.00566.02364-.01415.04172-.02123.04172s-.01557.01948-.02124.04173c-.00566.02365-.01557.04173-.02265.04173s-.01274.00834-.01274.01808-.01274.04034-.02831.06955c-.01558.02782-.02832.06119-.02832.07229 0 .0112-.00566.0209-.01274.0209s-.01699.0195-.02265.0431c-.00566.0237-.0184.0584-.02973.0793s-.01982.0459-.01982.0542c0 .0098-.00566.0181-.01416.0181-.00708 0-.01699.0223-.02265.0487-.00425.0264-.01416.0487-.01982.0487-.00708 0-.01557.0195-.02123.0431-.00567.0237-.01841.0584-.02973.0793-.01133.0209-.01982.0473-.01982.0598 0 .0195-.02407.0779-.05522.1377-.00707.0125-.01698.0417-.02265.0682-.00566.025-.0184.0612-.02973.082-.01132.0209-.01982.0515-.01982.0682 0 .0181-.00566.032-.01274.032-.00849 0-.0184.0278-.02406.0626-.00425.0347-.01416.0626-.02124.0626-.00566 0-.01557.0278-.02124.0625-.00424.0348-.01415.0654-.01982.0696-.00707.0042-.01557.0389-.02123.0765-.00566.0375-.01557.0723-.02124.0765-.00707.0042-.01698.0417-.02123.0834-.00566.0432-.01557.0807-.02265.0835-.00567.0042-.01558.0362-.02124.0696-.00425.0347-.01416.0653-.01982.0695-.00708.0042-.01557.0403-.02123.0807-.00567.0389-.01558.0779-.02124.0862-.00566.007-.01557.0543-.02123.1043-.00567.0501-.01558.0932-.02124.0974s-.0184.057-.0269.1182c-.00849.0612-.02123.1391-.02831.1739-.0085.0348-.01416.089-.01558.1224 0 .032-.00566.0695-.01415.0834-.01416.0251-.03539.192-.05805.4688-.00707.0918-.01982.2017-.02689.2434-.02124.1196-.03115.8971-.01558 1.1684.02407.4033.04247.6161.05663.6676.0085.0264.01699.096.02265.153.00425.057.01274.1322.02124.1669.00708.0348.01982.1099.02831.1669.00708.0571.02407.1544.03539.2156.01275.0612.02973.1516.03823.2017.00849.0501.01982.0932.02407.0974.00566.0041.01698.0445.02548.0904.0184.0974.04389.1961.06087.2364.00708.0153.01699.0557.02265.0905.00425.0347.01416.0681.01982.0765.00567.0069.01699.0417.02549.0765.03114.1307.04813.1891.05946.2114.00849.0125.0184.0487.02265.0806.00566.0306.01415.0557.02123.0557s.01274.0125.01274.0278.01841.0821.04106.1488c.02265.0682.0453.1447.05097.1711.00566.0264.01557.057.02123.0696.00991.0194.01982.0528.05804.2016.0085.0306.01982.0668.0269.0793.0085.0125.01841.0487.02265.0807.00567.0306.01416.0556.02124.0556s.01274.0139.01416.0306c0 .0181.01132.064.02406.1044.02407.0723.02407.0723.04106.0347.00991-.0208.02123-.0626.0269-.0918.00566-.0306.0184-.0709.02831-.0904.01133-.0195.01982-.0501.01982-.0667 0-.0167.00566-.0334.01274-.039.0085-.0042.01841-.0362.02407-.0695.00425-.0348.01416-.0626.01982-.0626s.01557-.0278.01982-.0626c.00566-.0334.01557-.0654.02123-.0696.00708-.0027.01558-.0333.02124-.0653.00991-.064.04672-.1864.06371-.2198.00708-.0125.01698-.0487.02265-.0821.00566-.032.0184-.0765.02973-.0959.01132-.0209.01982-.0515.01982-.0682s.00566-.0334.01274-.0376c.00708-.0055.01699-.0347.02265-.0681.00566-.032.01416-.0654.01982-.0723.00566-.0084.02548-.0668.04247-.1322.0184-.0653.04106-.1377.05238-.1627.01133-.0237.01982-.0529.01982-.064s.00991-.0389.02124-.0598c.01132-.0223.02123-.0515.02123-.0654 0-.0125.00567-.0236.01274-.0236.00708 0 .01699-.0251.02265-.0557.00567-.0306.01558-.0556.02124-.0556.00708 0 .01557-.0209.02124-.0445.00849-.0459.03822-.1196.0637-.1669.0085-.0139.01416-.032.01416-.0417.00142-.0098.01274-.0432.02831-.0738.01558-.0306.0269-.0639.02832-.0737 0-.0083.00708-.0167.01415-.0167.0085 0 .01416-.0083.01416-.0181 0-.0097.01274-.0403.02832-.0695.01557-.0278.02831-.0612.02831-.0723 0-.0112.00708-.0209.01416-.0209.00849 0 .01415-.0069.01415-.0153 0-.0278.08636-.2059.17697-.3672.03539-.0612.08069-.146.10193-.1878.02265-.0417.04388-.0793.05096-.0806.00566-.0028.00991-.0126.00991-.0223 0-.0083.02265-.0487.04955-.0904.0269-.0403.04955-.0779.04955-.0849 0-.0069.00566-.0139.01133-.0166.00566-.0028.0368-.0446.06653-.0946.07079-.1169.28598-.4298.31995-.4674.01558-.0153.0269-.0348.0269-.0431s.00566-.0181.01133-.0209c.00566-.0027.05521-.0612.10901-.1293.05379-.0696.1175-.1475.14015-.1753.02407-.0278.07645-.0862.11467-.1321.09627-.1113.23784-.2615.25058-.2671.00566-.0028.01133-.0111.01133-.0181 0-.025.48558-.4854.61583-.5855.02406-.0167.05804-.0487.07786-.0682s.07645-.0667.12741-.1043c.05097-.0376.0991-.0751.10618-.0835.0085-.0097.0807-.0639.16281-.1224.08211-.0584.15856-.1154.1713-.1265.01274-.0112.02689-.0209.03256-.0209.00708 0 .03539-.0195.06512-.0417.02973-.0237.05804-.0418.06371-.0418.00566 0 .03397-.0166.06229-.0389.06795-.0501.10193-.0709.13307-.0807.01274-.0055.02407-.0139.02407-.0208 0-.0084.01133-.0181.02548-.0223.01274-.0056.04955-.025.0807-.0445.07786-.0487.09343-.0584.17838-.1043.12316-.0654.13307-.071.14015-.0793.01274-.0139.56062-.2768.57761-.2768.00849 0 .01698-.007.01698-.0139 0-.0084.0085-.0139.01982-.0139.00991 0 .04955-.0125.08778-.0292.03822-.0153.08211-.0334.09768-.039.04814-.0194.18263-.0737.22934-.0932.02407-.0111.05097-.0194.05946-.0194.0085 0 .0269-.0056.04106-.0139.04105-.0237.31995-.1113.35251-.1113.01699 0 .03398-.0056.03822-.0125.00425-.007.03256-.0167.06088-.0223.02973-.0056.06087-.0139.06795-.0209.0085-.0055.04672-.018.08494-.0264.03964-.0097.1076-.0264.1529-.0375.04389-.0098.12033-.0292.16988-.0418.04814-.0111.126-.0278.17272-.0347.04672-.007.09485-.0167.10618-.0209.02548-.0097.22934-.0431.40347-.0654.07079-.0097.13449-.0208.14157-.025.0085-.0056.09769-.0139.1982-.0195.10193-.0056.19678-.0153.21238-.0209.0325-.0125.504-.0194 1.0504-.0166l.3724.0027.0042 1.5398c.0042 1.2337.0085 1.5564.0241 1.6204.0099.0445.024.0807.0297.0807.0071 0 .0156.0222.0212.0487.0043.0264.017.0542.0283.064.0114.0083.0199.025.0199.0347 0 .0112.007.0195.0141.0195.0085 0 .0142.0083.0142.0195 0 .0264.1798.203.2067.203.0099 0 .0198.0056.0198.0112 0 .0125.0679.0417.1628.0695.1897.0543.3766.0306.613-.0765.0283-.0139.0552-.0278.0595-.032.0042-.0055.0325-.0236.0637-.0417.0311-.0181.0623-.0417.0679-.0515.0057-.0097.0213-.018.0312-.018.0113 0 .0212-.0056.0212-.0112 0-.0055.034-.0347.075-.0653.0397-.0293.0793-.0612.085-.0724.0056-.0097.0212-.0181.0311-.0181.0113 0 .0213-.0055.0213-.0111 0-.0055.0339-.0348.075-.0654.0396-.0292.0793-.0612.0849-.0723.0057-.0097.017-.0181.0241-.0181s.034-.0194.0595-.0431c.0254-.0236.0622-.0528.0821-.0654.0198-.0125.041-.0306.0467-.0403.0056-.0097.0212-.0181.0311-.0181.0114 0 .0213-.0055.0213-.0111s.0339-.0348.075-.0654c.0396-.0292.0793-.0612.0849-.0723.0057-.0097.0213-.0181.0312-.0181.0113 0 .0212-.0056.0212-.0111 0-.0056.034-.0348.0751-.0654.0396-.0292.0792-.0612.0849-.0723.0057-.0098.0184-.0181.0269-.0181.0127 0 .0552-.0334.1699-.1335.0198-.0181.041-.0334.0467-.0334.0099 0 .0595-.0403.1656-.1335.0199-.0181.0439-.0334.0524-.0334s.0156-.0056.0156-.0111c0-.0056.034-.0348.075-.0654.0397-.0292.0793-.0612.085-.0723.0056-.0098.0212-.0181.0311-.0181.0113 0 .0212-.0056.0212-.0112 0-.0055.034-.0347.0751-.0653.0396-.0292.0793-.0612.0849-.0724.0057-.0097.0184-.018.0269-.018.0128 0 .0552-.0334.1699-.1336.0198-.0181.0439-.0334.0524-.0334s.0156-.0055.0156-.0111c0-.0055.0339-.0348.075-.0654.0396-.0292.0793-.0612.0849-.0723.0057-.0097.0213-.0181.0312-.0181.0113 0 .0212-.0055.0212-.0111s.034-.0348.075-.0654c.0397-.0292.0793-.0612.085-.0723.0056-.0097.0212-.0181.0311-.0181.0114 0 .0213-.0055.0213-.0111s.0339-.0348.075-.0654c.0396-.0292.0793-.0612.0849-.0723.0057-.0097.0184-.0181.0269-.0181.0128 0 .0552-.0334.1699-.1335.0198-.0181.0411-.0334.0453-.0334.0043 0 .0269-.0195.051-.0417.0241-.0223.0481-.0418.0538-.0418.0056 0 .0325-.0208.0609-.0459.0509-.0431.0906-.0751.1755-.1377.0241-.0166.0453-.0347.0496-.0403.0042-.0042.0523-.0417.1061-.0834.0552-.0404.102-.0779.1062-.0835.0043-.0042.0524-.0417.1062-.0835.0552-.0403.1062-.0806.1132-.089.0085-.0097.0553-.0473.1062-.0834.051-.0376.0949-.0724.0991-.0779.0043-.0042.0524-.0417.1062-.0835.0552-.0403.1019-.0779.1062-.0834.0042-.0042.0524-.0418.1062-.0835.0552-.0403.1061-.0807.1132-.089.0085-.0097.0552-.0473.1062-.0835.051-.0375.0948-.0723.0991-.0779.0042-.0041.0524-.0417.1062-.0834.0552-.0403.1019-.0779.1061-.0835.0043-.0041.0524-.0417.1062-.0834.0552-.0404.1062-.0807.1133-.089.0085-.0098.0552-.0473.1062-.0849.0509-.0361.0991-.0737.1061-.0834.0085-.0084.0552-.0459.1062-.0821.051-.03756.0949-.07233.0991-.0779.0043-.00417.0524-.04172.1062-.08345.0552-.04034.1019-.07789.1062-.08346.0042-.00417.0523-.04172.1061-.08345.0553-.04034.1062-.08068.1133-.08902.0085-.00974.0552-.04729.1062-.08346.0509-.03755.0948-.07232.0991-.07789.0042-.00417.0524-.04173.1061-.08345.0553-.04034.102-.0779.1062-.08346.0043-.00417.0524-.04173.1062-.08345.0552-.04034.1019-.0779.1062-.08346.0042-.00417.0524-.04173.1062-.08346.0552-.04033.1019-.07789.1061-.08345.0043-.00417.0524-.04173.1062-.08346.0552-.04033.1019-.07789.1062-.08345.0042-.00417.051-.04173.1048-.08207.0523-.04033.1075-.08206.1203-.0918.0127-.01112.0679-.05563.1217-.10153.0553-.04451.1275-.11406.1628-.15579.068-.07928.1699-.23924.1699-.26706 0-.00973.0099-.03477.0213-.05563.0113-.02087.024-.06259.0297-.09041s.017-.05981.0255-.07094c.0198-.02504.0198-.41728-.0014-.42979-.0071-.00557-.0184-.03339-.0241-.0612-.0057-.02782-.0184-.06955-.0297-.09041-.0114-.02087-.0213-.0459-.0213-.05286 0-.04034-.1345-.24202-.2222-.33382-.0213-.02365-.0836-.0765-.1388-.11823-.0538-.04173-.1175-.09319-.1415-.11405-.0227-.02226-.0468-.03895-.0524-.03895-.0071 0-.0227-.01113-.0368-.02504-.0411-.03894-.1614-.13492-.1756-.14048-.0071-.00278-.0311-.02087-.0538-.04173-.0509-.04729-.1415-.11823-.1571-.12379-.0142-.00556-.0765-.05703-.1515-.12518-.0269-.02365-.0552-.04451-.0609-.04451-.0071 0-.024-.01113-.0382-.02504-.0396-.03616-.0892-.07511-.143-.11267-.0255-.01808-.0651-.05007-.0863-.06954-.0553-.05007-.143-.11823-.16-.12518-.0071-.00279-.0241-.0153-.0368-.02782-.0382-.03617-.16-.13353-.1727-.1377-.0142-.00557-.0765-.05703-.1515-.12519-.0269-.02364-.0552-.04451-.0609-.04451-.0071 0-.0241-.01112-.0382-.02503-.0411-.03895-.1614-.13492-.1756-.14049-.007-.00278-.0311-.02086-.0538-.04172-.0509-.0473-.1415-.11823-.1571-.1238-.0142-.00556-.0765-.05702-.1515-.12518-.0269-.02364-.0552-.04451-.0609-.04451-.007 0-.0311-.01669-.0538-.03894-.0538-.05008-.1429-.11962-.1599-.12658-.0071-.00278-.0312-.02086-.0538-.04173-.0524-.04729-.1416-.11822-.1586-.12379-.0057-.00278-.0297-.02225-.0524-.04173-.0552-.05007-.1217-.10292-.2067-.16552-.0382-.02921-.0863-.06676-.1061-.08345-.0298-.02643-.1204-.09876-.177-.14048-.0198-.01391-.1911-.15022-.2407-.19056-.0226-.01947-.0736-.05842-.1132-.08624-.0383-.02782-.0836-.06398-.0991-.07928-.0156-.01669-.0538-.0459-.085-.06676-.0311-.02087-.0849-.0626-.1203-.0932s-.068-.05702-.0736-.05702c-.0057 0-.0298-.0167-.0524-.03895-.0538-.04868-.143-.11962-.16-.12657-.0071-.00279-.0297-.01948-.0509-.03756-.1275-.11266-.1501-.13075-.1586-.13075-.0113 0-.0665-.0445-.1529-.1224-.0269-.02364-.0552-.04451-.0609-.04451-.007 0-.0311-.01669-.0552-.03894-.1132-.10154-.1288-.11406-.1401-.11406-.0071 0-.0354-.02086-.0623-.0459-.1317-.11544-.1572-.13492-.1657-.13492-.0113 0-.0665-.04451-.1529-.1224-.0269-.02364-.0538-.04451-.0594-.04451-.0113 0-.0666-.04451-.1529-.1224-.0269-.02365-.0552-.04451-.0609-.04451-.0071 0-.0311-.01669-.0538-.03894-.0524-.0473-.143-.11962-.1585-.12519-.0142-.00556-.0765-.05703-.1515-.12518-.0269-.02365-.0538-.04451-.0609-.04451-.0113 0-.0609-.03895-.143-.11545-.0311-.02781-.0623-.05146-.0694-.05146-.007 0-.0311-.01669-.0538-.03895-.0552-.05007-.1429-.11962-.1613-.12657-.0071-.00278-.0241-.0153-.0369-.02782-.0382-.03616-.1599-.13353-.1727-.1377-.0141-.00556-.0764-.05703-.1514-.12518-.0269-.02365-.0553-.04451-.0609-.04451-.0071 0-.0241-.01113-.0382-.02504-.0354-.03199-.143-.11823-.1685-.13353-.0128-.00556-.0326-.02225-.0453-.03477-.0397-.03617-.16-.13353-.1741-.1377-.0128-.00557-.0538-.03895-.1289-.104322-.0509-.044508-.201-.134918-.2251-.134918-.0071 0-.034-.008347-.058-.019474-.1076-.047291-.1968-.063982-.327-.063982-.0807 0-.136.005563-.136.013908zm.3242.955568c.0284.02086.0581.04312.0652.04868.0184.01391.1458.11545.1883.15022.0184.0153.0523.04034.0778.05842.0595.04172.075.05285.1218.09597.0226.01947.0623.05146.0877.06955.0524.03616.1034.0765.1388.10988.0127.01113.0439.03616.0679.05286.0453.03199.1005.0751.1444.11405.0128.01113.0453.03616.0722.05564.0524.03616.1048.07789.1402.11127.0127.01113.0453.03617.0722.05564.0524.03616.1048.07789.1401.11127.0128.01113.0453.03617.0722.05564.0524.03616.1048.07789.1402.11127.0127.01113.0453.03617.0722.05564.0524.03616.1048.07789.1402.11127.0127.01113.0453.03617.0722.05564.0523.03616.1047.07789.1401.11127.0128.01113.0453.03617.0722.05564.0524.03617.0949.06955.1529.12101.0198.01808.0411.03199.0467.03199.0071 0 .0298.01669.0524.03756.0609.05703.1274.11127.1784.14744.058.04033.0736.05146.1203.09458.0227.01947.0623.05146.0878.06954.0524.03617.1033.0765.1387.10989.0128.01112.0453.03616.0722.05563.0269.01948.0595.04451.0722.05564.0269.02504.1232.10015.1402.11127.017.01113.1132.08624.1401.11128.0128.01113.0453.03616.0722.05564.0638.0445.0779.05563.126.09875.0227.01947.0623.05146.0878.06955.0524.03616.1034.0765.1416.11127.0127.01252.0325.02921.0453.03477.0241.01391.1331.10015.1656.13075.0113.01113.0439.03616.0708.05564.0524.03616.1048.07789.1402.11127.0127.01113.0453.03616.0722.05564.0523.03616.1047.07789.1401.11127.0128.01113.0439.03617.068.05286.0453.03199.0863.06398.1557.12379.0198.01808.0425.03199.0481.03199.0071 0 .0312.01669.0552.03755.0227.02226.0609.05564.0836.07512.0226.01947.0623.05146.0877.06954.0524.03617.1034.0765.1388.10988.0127.01113.0453.03617.0722.05564.0524.03616.1047.07789.1401.11127.0128.01113.0453.03617.0722.05564s.0595.04451.0722.05564c.0439.03894.0991.08206.1444.11405.0496.03478.1006.07511.1359.1085.0128.01112.0454.03616.0723.05563.0523.03617.1047.07789.1401.11128.0127.01112.0453.03616.0722.05563.0269.01948.0595.04451.0722.05564.0439.03895.0991.08206.1444.11406.0496.03477.1005.07511.1359.10849.0128.01113.0453.03616.0722.05564.0524.03616.1048.07789.1402.11127.0127.01113.0453.03616.0722.05564.0524.03616.1047.07789.1401.11127.0128.01113.0453.03616.0722.05564.0269.01947.0595.04451.0722.05563.0269.02504.1232.10015.1402.11128.017.01112.1132.08624.1401.11127.0128.01113.0453.03617.0722.05564.0269.01808.0652.04868.085.06537.0198.01808.0396.03199.0439.03199.0056 0 .0297.0306.0538.06677.0325.05146.0438.08345.0438.13213 0 .03617-.0056.06538-.0141.06538-.0071 0-.0142.00973-.0142.02086 0 .02226-.1458.17387-.167.17387-.0113 0-.034.01808-.1614.13074-.0212.01809-.0439.03478-.051.03756-.0155.00695-.1047.0765-.1585.12518-.0227.02087-.0467.03895-.0538.04173-.0142.00556-.1331.10154-.1742.13909-.0127.01252-.0297.02504-.0368.02782-.017.00696-.1047.07511-.1599.12518-.0227.02087-.0468.03895-.0538.04173-.0156.00696-.1048.0765-.1586.12518-.0226.02087-.0467.03895-.0538.04173-.0141.00557-.1331.10154-.1741.13909-.0128.01252-.0298.02504-.0368.02782-.0184.00696-.1062.0765-.1614.12797-.0227.02086-.0453.03755-.0482.03755-.0042 0-.0184.01113-.0325.02365-.0142.01391-.0411.03477-.0595.0459s-.0509.03755-.0736.05842c-.0226.02225-.0439.03894-.0467.03894-.0043 0-.0184.01113-.0326.02365-.0141.01391-.041.03477-.0594.0459s-.0496.03755-.0722.05703c-.0213.02086-.0453.03894-.0524.04173-.0142.00556-.1331.10153-.1741.13909-.0128.01252-.0298.02503-.0369.02782-.0169.00695-.1047.07511-.1599.12518-.0227.02086-.0467.03894-.0538.04173-.0156.00695-.1048.0765-.1586.12518-.0226.02086-.0467.03895-.0538.04173-.0141.00556-.1331.10153-.1741.13913-.0128.0125-.0297.025-.0368.0278-.0184.0069-.1062.0765-.1614.1266-.0227.0222-.0453.0389-.0481.0389-.0043 0-.0184.0111-.0326.0236-.0142.014-.0411.0348-.0595.0459-.0184.0112-.0495.0376-.0722.0571-.0212.0208-.0453.0389-.0523.0417-.0142.0056-.1345.1015-.1756.1405-.0141.0139-.0311.025-.0382.025-.0099 0-.0354.0209-.1614.1322-.0212.0194-.0453.0347-.051.0347-.0099 0-.0368.0209-.1614.1322-.0212.0194-.0453.0347-.0509.0347-.0099 0-.0368.0209-.1614.1322-.0213.0195-.0453.0348-.051.0348-.0099 0-.0368.0208-.1614.1321-.0212.0195-.0453.0348-.0509.0348-.0099 0-.0368.0208-.1614.1321-.0213.0195-.0453.0348-.051.0348-.0099 0-.0368.0208-.1614.1321-.0212.0195-.0453.0348-.0509.0348-.01 0-.0369.0208-.1614.1321-.0213.0195-.0453.0348-.051.0348-.0113 0-.0793.057-.1586.1321-.0198.0195-.0424.0348-.0481.0348-.0099 0-.058.039-.1656.1335-.0199.0181-.0439.0334-.0524.0334s-.0156.0056-.0156.0111c0 .0056-.034.0348-.0736.0654-.0411.0292-.0807.0612-.0864.0723-.0056.0098-.0184.0181-.0269.0181-.0127 0-.0552.0334-.1698.1336-.0199.018-.0411.0333-.0468.0333-.0099 0-.0594.0404-.1656.1336-.0198.018-.0411.0333-.0467.0333-.0099 0-.0595.0404-.1657.1336-.0198.0181-.041.0334-.0467.0334-.0056 0-.0339.0208-.0637.0445-.0991.0862-.1444.1224-.1515.1224-.007 0-.0637.0473-.1628.1335-.0198.0181-.041.0334-.0467.0334-.0099 0-.0594.0403-.1656.1335-.0198.0181-.0411.0334-.0467.0334-.0057 0-.034.0209-.0623.0445-.0283.025-.0736.0612-.0991.0807-.0269.0194-.0708.0556-.1005.0806-.0298.0237-.0567.0446-.0623.0446-.0057 0-.0241.0153-.0425.0347-.0184.0195-.0396.0348-.0496.0348-.0113 0-.0155-.4687-.0155-1.8068v-1.80681l-.194-.00835c-.1076-.00278-.361-.01252-.5634-.02086-.4516-.01669-1.2331-.01669-1.444-.00139-.085.00695-.24213.01947-.34689.02642-.10476.00835-.20103.01948-.21235.02365-.01982.00695-.1529.02643-.43887.06264-.05804.0069-.12175.018-.14157.0264-.01982.0069-.07362.0167-.12033.0222-.04672.0042-.09061.0139-.0991.0195-.00708.007-.05097.0153-.09486.0209-.0453.0055-.08211.0153-.08211.0208 0 .0056-.03539.0153-.07786.0209-.04247.0042-.08069.0153-.08494.0223-.00566.0069-.02407.0125-.04247.0125-.01841 0-.05097.0069-.07362.0167-.03681.0153-.08777.0292-.25199.0667-.03823.0098-.07645.0223-.08495.0278-.00707.0056-.04105.0153-.07361.0209-.03398.0056-.06371.0153-.06937.0223-.00425.0069-.01841.0125-.03115.0125s-.04247.0097-.06512.0208c-.02123.0112-.04672.0209-.05663.0209-.00849 0-.03397.0097-.05521.0209-.02124.0111-.06087.0236-.08777.0292-.0269.0042-.04955.0139-.04955.0195 0 .0055-.02265.0153-.05097.0208-.02831.0042-.06229.0139-.07503.0209-.01274.0069-.04813.0222-.07928.0348-.08211.0333-.13308.0542-.20669.089-.03539.0153-.0722.0292-.08211.0292-.0085 0-.01558.0055-.01558.0139 0 .0069-.0099.0139-.02123.0139s-.05804.0181-.10193.0403c-.41055.1989-.53089.2601-.55212.2782-.00991.0084-.02124.0153-.0269.0153-.00425 0-.0722.0376-.15007.0835-.07645.0459-.14298.0834-.14723.0834-.01133 0-.09768.0612-.10193.0724-.00283.0069-.01416.0111-.02407.0111s-.05521.0278-.10193.0598c-.0453.0334-.08919.064-.09627.0668-.04105.0167-.1628.1001-.1628.1112 0 .007-.00566.0126-.01274.0126-.01133 0-.19537.1279-.27748.1905-.00708.007-.05521.0431-.10476.0807-.05097.0389-.10193.0793-.11609.0904-.01274.0111-.07503.064-.14015.1182-.06371.0529-.13874.1183-.16422.1433-.0269.0236-.0538.0445-.05946.0445-.01275 0-.58469.5703-.70644.7038-.04813.0529-.10901.1224-.13449.1558-.02548.032-.05097.0584-.05663.0584s-.01132.007-.01132.0153c0 .0097-.01416.0292-.03115.0459-.04247.039-.13874.1558-.13874.1683 0 .0042-.01557.025-.03539.0459-.0538.057-.21943.2796-.21943.2949 0 .0083-.00425.0139-.00991.0139-.00708 0-.02124.0167-.03398.0389-.01274.0209-.06654.0974-.1175.1697-.05097.0724-.09344.1391-.09344.1475 0 .0097-.00425.0194-.00991.0222-.01699.007-.07503.0918-.07503.1085 0 .007-.00567.0139-.01274.0139-.00708 0-.01841.0139-.02407.0306-.00425.0181-.02548.0571-.04672.0877-.01982.0306-.04955.0806-.06512.1112s-.03256.0585-.03681.0626c-.01416.0112-.1175.2003-.22085.402-.09485.1864-.09627.1864-.10759.1391-.05946-.2323-.08211-1.448-.03398-1.8972.03964-.3742.0538-.4855.06654-.5091.00566-.0111.01557-.0709.02123-.1321.00567-.0599.01558-.1169.02266-.1238.00566-.0084.01557-.0585.02123-.1113.00566-.0543.01416-.1043.01982-.1113.00566-.0083.01557-.0528.02124-.1015.00566-.0473.01557-.089.02123-.0932s.01557-.0403.02124-.0807c.00566-.0389.01557-.0793.02123-.0862.00567-.0084.01558-.0404.02124-.0723.00566-.0334.01415-.0626.02123-.0668.00567-.0042.01558-.039.02124-.0765.00566-.0376.01416-.0723.02123-.0765.00567-.0042.01558-.0348.01982-.0696.00567-.0333.01558-.0653.02266-.0695.00707-.0042.01698-.0362.02265-.0696.00424-.0347.01415-.0667.02123-.0709s.01274-.0181.01274-.0306.00991-.0417.02124-.0626c.01132-.0208.02407-.0598.02973-.0862.00425-.0264.01416-.0487.01982-.0487s.01557-.0223.02123-.0501c.00425-.0278.01416-.0612.02124-.0737.0269-.0487.05663-.1182.05663-.1307 0-.007.00991-.0348.02265-.0626.01132-.0292.03114-.0724.04105-.0974.02973-.0668.05522-.1224.11184-.2406.02832-.0584.05097-.1127.05097-.1224 0-.0084.00708-.0153.01416-.0153.00849 0 .01415-.0056.01415-.0139 0-.0223.06088-.153.0722-.153.00567 0 .01416-.01673.01982-.03759.00425-.02087.01416-.04173.01841-.0459.00566-.00418.02831-.04173.04955-.08346.02123-.04173.05804-.10849.08069-.14605.02407-.03894.04955-.08623.05805-.10849.00849-.02086.01982-.03755.02689-.03755.00567 0 .01416-.01113.01982-.02504.00425-.01252.02124-.04312.03681-.06537.01558-.02365.0354-.05703.04531-.0765.00991-.01948.02406-.04173.03256-.05008.00707-.00834.02689-.03755.04247-.06537.01557-.02782.03256-.05146.03822-.05146.00708 0 .01133-.00696.01133-.01391 0-.01391.05238-.0932.0722-.11128.00424-.00417.02265-.03199.04105-.06259.01841-.0306.03681-.05842.04106-.06259.00566-.00417.02973-.03895.05663-.0765.02689-.03895.05521-.0765.0637-.08346.0085-.00834.03681-.0459.06371-.08345.0269-.03895.05521-.0765.06512-.08346.0085-.00834.04955-.05703.08919-.10988.04106-.05146.08211-.10293.09202-.11266.00991-.00974.06512-.07233.12317-.14049.13874-.15856.62432-.63982.77863-.76918.06654-.05564.14582-.1224.17697-.14883.03114-.02642.09768-.08067.14864-.11962.05097-.04033.09486-.0765.0991-.08067.00425-.00417.03256-.02504.06513-.0459.03114-.02086.06936-.04868.08494-.06259.10193-.08763.68803-.46179.72484-.46179.00849 0 .01698-.00556.01982-.01113.00566-.01251.11608-.07789.2166-.12796.03964-.01947.07362-.03895.07786-.04451.00425-.00417.02548-.01391.04672-.01808.02124-.00557.03822-.0153.03822-.02087 0-.00556.01699-.0153.03823-.02086.02123-.00417.04247-.01391.04672-.01808.01274-.01808.12599-.07233.14723-.07233.01274 0 .02265-.00556.02265-.01391 0-.00695.01699-.01808.03681-.02225.02123-.00557.07362-.02782.1175-.04869.04389-.02225.08919-.04033.10052-.04033.01132 0 .03397-.00974.04813-.02087.01557-.01113.03964-.02086.0538-.02086.01415 0 .02548-.00696.02548-.01391 0-.00835.01133-.01391.02548-.01391.01274-.00139.04955-.01252.0807-.02782.03114-.0153.06795-.02643.08211-.02782.01274 0 .02407-.00556.02407-.01252 0-.00695.02548-.01669.05662-.02225.03115-.00556.05946-.01391.06371-.02086.00425-.00696.03256-.0153.06371-.02087.03114-.00556.05946-.01391.0637-.02086.00425-.00696.03256-.0153.06371-.02087.03114-.00556.05946-.0139.06371-.02086.00424-.00695.03256-.0153.0637-.02086.03115-.00557.05946-.01391.06371-.02087.00425-.00695.03398-.0153.06795-.02086.03256-.00556.06654-.0153.07362-.02086.01416-.01113.08777-.02782.25199-.05842.04389-.00835.0807-.01948.0807-.02504s.03822-.01391.08494-.01947c.04672-.00557.08777-.0153.09061-.02087.00424-.00695.05238-.0153.10759-.02086.0538-.00556.10193-.0153.10476-.02086.00425-.00696.05663-.0153.11609-.02087.05946-.00556.1175-.0153.13024-.02225.03256-.01669.29447-.04312.80269-.07789.2095-.01531.7433-.0167 1.0476-.00279.1246.00696.4092.0153.6343.02087l.4063.00834v-1.91391c0-1.05432.0042-1.9153.0099-1.9153.0042 0 .0311.01669.0594.03756z" fill="#000"/></mask><path d="m12.0701.766632c0 .006956-.0184.01391-.0396.01391-.041 0-.1543.051465-.2449.112666-.0481.03199-.1826.193342-.1826.218372 0 .00696-.0099.02087-.0213.0306-.0113.00974-.0212.02643-.0212.03756 0 .01112-.0085.04033-.0198.06398-.0651.14187-.0651.12379-.0651 1.80542 0 1.25878-.0043 1.58426-.017 1.58426-.9287-.00139-1.74418.02364-1.81638.05564-.01557.00695-.09202.01669-.16988.02086-.07787.00556-.14724.01391-.15573.02086-.00708.00557-.05804.01391-.11184.01948-.0538.00556-.10476.01391-.11326.01947-.00849.00556-.0637.01669-.12175.02643-.05804.00973-.15006.02642-.20527.03894-.0538.01113-.13733.02782-.18263.03478-.04672.00834-.0906.01947-.0991.02503-.00849.00557-.04672.01669-.08636.02643-.12458.02782-.19819.04729-.21943.05842-.01274.00695-.04389.01669-.07078.02225-.0269.00557-.05522.0153-.06371.02087-.00708.00556-.04106.0153-.07362.02086-.03397.00556-.06087.0153-.06087.02226 0 .00695-.01416.01251-.03115.01251-.03822 0-.21518.05703-.22085.07233-.00283.00557-.0184.01113-.03539.01113s-.04672.00834-.06654.01808-.06654.02921-.10618.04312c-.03822.01391-.09626.03616-.12741.05007-.03114.01252-.08494.03478-.12033.04869-.0354.01391-.08353.03338-.10901.04311-.02407.01113-.05097.01948-.05946.01948-.0085 0-.01557.00556-.01557.01252 0 .00695-.01841.01669-.04248.02225-.02265.00556-.04247.01391-.04247.02086 0 .00696-.0184.0153-.04247.02087-.02265.00556-.04247.0153-.04247.02225 0 .00696-.00849.01252-.01982.01252-.02123 0-.39073.17665-.40489.19334-.00425.00417-.03539.02225-.07078.04034-.11751.05981-.21944.11822-.22369.13074-.00283.00557-.01274.01113-.02265.01113-.00849 0-.04955.02225-.09202.04868-.04105.02643-.08069.04869-.08777.04869s-.01274.00556-.01274.0139c0 .00696-.00566.01391-.01416.01391-.01274 0-.08494.04312-.15573.0932-.0184.0139-.0453.0292-.05946.03477-.01415.00556-.02548.01669-.02548.02503 0 .00696-.00708.01391-.01415.01391-.01699 0-.10335.05703-.11043.07233-.00283.00696-.01133.01113-.0184.01113-.00708 0-.04247.02225-.07928.05007-.15573.11267-.20811.153-.23359.17526-.01416.01391-.03115.02504-.03823.02504-.00566 0-.0269.0139-.04672.0306-.01982.01808-.06087.05007-.0906.07372-.02831.02225-.0722.05841-.09627.07789-.02407.01947-.06229.05146-.08494.06954-.02407.01809-.06229.05147-.08636.07511-.02406.02226-.06654.05842-.09485.07929-.05663.04172-.61583.58836-.68803.6732-.07928.09041-.17838.2003-.2166.24202-.01982.02087-.05238.05981-.07079.08485-.0184.02643-.04388.05703-.05521.06955-.03539.03616-.07645.08623-.11326.1377-.0184.02642-.03822.05146-.04388.05563-.01416.01113-.11184.13771-.11184.14744 0 .00417-.0085.0153-.01699.02504-.00991.01113-.0269.0306-.03681.04451-.03256.04868-.15714.22115-.16847.23506-.00708.00696-.03539.05147-.06371.09737-.06229.10015-.17554.27262-.19253.29209-.00566.00696-.0269.04451-.04672.08346-.0184.03755-.03822.07233-.04389.0765-.00566.00417-.01698.02364-.02406.04173-.01841.04033-.04389.08206-.06937.10849-.0085.00973-.01699.02782-.01699.03894 0 .01113-.00566.01948-.01274.01948s-.01699.01947-.02265.04172c-.00567.02365-.01416.04173-.02124.04173s-.01557.01947-.02123.04173c-.00567.02365-.01416.04173-.02124.04173s-.01557.01808-.02123.04173c-.00567.02225-.01416.04172-.02124.04172s-.01557.01948-.02124.04173c-.00566.02365-.01415.04173-.02123.04173s-.01557.01947-.02124.04173c-.00566.02364-.01415.04172-.02123.04172s-.01557.01948-.02124.04173c-.00566.02365-.01557.04173-.02265.04173s-.01274.00834-.01274.01808-.01274.04034-.02831.06955c-.01558.02782-.02832.06119-.02832.07229 0 .0112-.00566.0209-.01274.0209s-.01699.0195-.02265.0431c-.00566.0237-.0184.0584-.02973.0793s-.01982.0459-.01982.0542c0 .0098-.00566.0181-.01416.0181-.00708 0-.01699.0223-.02265.0487-.00425.0264-.01416.0487-.01982.0487-.00708 0-.01557.0195-.02123.0431-.00567.0237-.01841.0584-.02973.0793-.01133.0209-.01982.0473-.01982.0598 0 .0195-.02407.0779-.05522.1377-.00707.0125-.01698.0417-.02265.0682-.00566.025-.0184.0612-.02973.082-.01132.0209-.01982.0515-.01982.0682 0 .0181-.00566.032-.01274.032-.00849 0-.0184.0278-.02406.0626-.00425.0347-.01416.0626-.02124.0626-.00566 0-.01557.0278-.02124.0625-.00424.0348-.01415.0654-.01982.0696-.00707.0042-.01557.0389-.02123.0765-.00566.0375-.01557.0723-.02124.0765-.00707.0042-.01698.0417-.02123.0834-.00566.0432-.01557.0807-.02265.0835-.00567.0042-.01558.0362-.02124.0696-.00425.0347-.01416.0653-.01982.0695-.00708.0042-.01557.0403-.02123.0807-.00567.0389-.01558.0779-.02124.0862-.00566.007-.01557.0543-.02123.1043-.00567.0501-.01558.0932-.02124.0974s-.0184.057-.0269.1182c-.00849.0612-.02123.1391-.02831.1739-.0085.0348-.01416.089-.01558.1224 0 .032-.00566.0695-.01415.0834-.01416.0251-.03539.192-.05805.4688-.00707.0918-.01982.2017-.02689.2434-.02124.1196-.03115.8971-.01558 1.1684.02407.4033.04247.6161.05663.6676.0085.0264.01699.096.02265.153.00425.057.01274.1322.02124.1669.00708.0348.01982.1099.02831.1669.00708.0571.02407.1544.03539.2156.01275.0612.02973.1516.03823.2017.00849.0501.01982.0932.02407.0974.00566.0041.01698.0445.02548.0904.0184.0974.04389.1961.06087.2364.00708.0153.01699.0557.02265.0905.00425.0347.01416.0681.01982.0765.00567.0069.01699.0417.02549.0765.03114.1307.04813.1891.05946.2114.00849.0125.0184.0487.02265.0806.00566.0306.01415.0557.02123.0557s.01274.0125.01274.0278.01841.0821.04106.1488c.02265.0682.0453.1447.05097.1711.00566.0264.01557.057.02123.0696.00991.0194.01982.0528.05804.2016.0085.0306.01982.0668.0269.0793.0085.0125.01841.0487.02265.0807.00567.0306.01416.0556.02124.0556s.01274.0139.01416.0306c0 .0181.01132.064.02406.1044.02407.0723.02407.0723.04106.0347.00991-.0208.02123-.0626.0269-.0918.00566-.0306.0184-.0709.02831-.0904.01133-.0195.01982-.0501.01982-.0667 0-.0167.00566-.0334.01274-.039.0085-.0042.01841-.0362.02407-.0695.00425-.0348.01416-.0626.01982-.0626s.01557-.0278.01982-.0626c.00566-.0334.01557-.0654.02123-.0696.00708-.0027.01558-.0333.02124-.0653.00991-.064.04672-.1864.06371-.2198.00708-.0125.01698-.0487.02265-.0821.00566-.032.0184-.0765.02973-.0959.01132-.0209.01982-.0515.01982-.0682s.00566-.0334.01274-.0376c.00708-.0055.01699-.0347.02265-.0681.00566-.032.01416-.0654.01982-.0723.00566-.0084.02548-.0668.04247-.1322.0184-.0653.04106-.1377.05238-.1627.01133-.0237.01982-.0529.01982-.064s.00991-.0389.02124-.0598c.01132-.0223.02123-.0515.02123-.0654 0-.0125.00567-.0236.01274-.0236.00708 0 .01699-.0251.02265-.0557.00567-.0306.01558-.0556.02124-.0556.00708 0 .01557-.0209.02124-.0445.00849-.0459.03822-.1196.0637-.1669.0085-.0139.01416-.032.01416-.0417.00142-.0098.01274-.0432.02831-.0738.01558-.0306.0269-.0639.02832-.0737 0-.0083.00708-.0167.01415-.0167.0085 0 .01416-.0083.01416-.0181 0-.0097.01274-.0403.02832-.0695.01557-.0278.02831-.0612.02831-.0723 0-.0112.00708-.0209.01416-.0209.00849 0 .01415-.0069.01415-.0153 0-.0278.08636-.2059.17697-.3672.03539-.0612.08069-.146.10193-.1878.02265-.0417.04388-.0793.05096-.0806.00566-.0028.00991-.0126.00991-.0223 0-.0083.02265-.0487.04955-.0904.0269-.0403.04955-.0779.04955-.0849 0-.0069.00566-.0139.01133-.0166.00566-.0028.0368-.0446.06653-.0946.07079-.1169.28598-.4298.31995-.4674.01558-.0153.0269-.0348.0269-.0431s.00566-.0181.01133-.0209c.00566-.0027.05521-.0612.10901-.1293.05379-.0696.1175-.1475.14015-.1753.02407-.0278.07645-.0862.11467-.1321.09627-.1113.23784-.2615.25058-.2671.00566-.0028.01133-.0111.01133-.0181 0-.025.48558-.4854.61583-.5855.02406-.0167.05804-.0487.07786-.0682s.07645-.0667.12741-.1043c.05097-.0376.0991-.0751.10618-.0835.0085-.0097.0807-.0639.16281-.1224.08211-.0584.15856-.1154.1713-.1265.01274-.0112.02689-.0209.03256-.0209.00708 0 .03539-.0195.06512-.0417.02973-.0237.05804-.0418.06371-.0418.00566 0 .03397-.0166.06229-.0389.06795-.0501.10193-.0709.13307-.0807.01274-.0055.02407-.0139.02407-.0208 0-.0084.01133-.0181.02548-.0223.01274-.0056.04955-.025.0807-.0445.07786-.0487.09343-.0584.17838-.1043.12316-.0654.13307-.071.14015-.0793.01274-.0139.56062-.2768.57761-.2768.00849 0 .01698-.007.01698-.0139 0-.0084.0085-.0139.01982-.0139.00991 0 .04955-.0125.08778-.0292.03822-.0153.08211-.0334.09768-.039.04814-.0194.18263-.0737.22934-.0932.02407-.0111.05097-.0194.05946-.0194.0085 0 .0269-.0056.04106-.0139.04105-.0237.31995-.1113.35251-.1113.01699 0 .03398-.0056.03822-.0125.00425-.007.03256-.0167.06088-.0223.02973-.0056.06087-.0139.06795-.0209.0085-.0055.04672-.018.08494-.0264.03964-.0097.1076-.0264.1529-.0375.04389-.0098.12033-.0292.16988-.0418.04814-.0111.126-.0278.17272-.0347.04672-.007.09485-.0167.10618-.0209.02548-.0097.22934-.0431.40347-.0654.07079-.0097.13449-.0208.14157-.025.0085-.0056.09769-.0139.1982-.0195.10193-.0056.19678-.0153.21238-.0209.0325-.0125.504-.0194 1.0504-.0166l.3724.0027.0042 1.5398c.0042 1.2337.0085 1.5564.0241 1.6204.0099.0445.024.0807.0297.0807.0071 0 .0156.0222.0212.0487.0043.0264.017.0542.0283.064.0114.0083.0199.025.0199.0347 0 .0112.007.0195.0141.0195.0085 0 .0142.0083.0142.0195 0 .0264.1798.203.2067.203.0099 0 .0198.0056.0198.0112 0 .0125.0679.0417.1628.0695.1897.0543.3766.0306.613-.0765.0283-.0139.0552-.0278.0595-.032.0042-.0055.0325-.0236.0637-.0417.0311-.0181.0623-.0417.0679-.0515.0057-.0097.0213-.018.0312-.018.0113 0 .0212-.0056.0212-.0112 0-.0055.034-.0347.075-.0653.0397-.0293.0793-.0612.085-.0724.0056-.0097.0212-.0181.0311-.0181.0113 0 .0213-.0055.0213-.0111 0-.0055.0339-.0348.075-.0654.0396-.0292.0793-.0612.0849-.0723.0057-.0097.017-.0181.0241-.0181s.034-.0194.0595-.0431c.0254-.0236.0622-.0528.0821-.0654.0198-.0125.041-.0306.0467-.0403.0056-.0097.0212-.0181.0311-.0181.0114 0 .0213-.0055.0213-.0111s.0339-.0348.075-.0654c.0396-.0292.0793-.0612.0849-.0723.0057-.0097.0213-.0181.0312-.0181.0113 0 .0212-.0056.0212-.0111 0-.0056.034-.0348.0751-.0654.0396-.0292.0792-.0612.0849-.0723.0057-.0098.0184-.0181.0269-.0181.0127 0 .0552-.0334.1699-.1335.0198-.0181.041-.0334.0467-.0334.0099 0 .0595-.0403.1656-.1335.0199-.0181.0439-.0334.0524-.0334s.0156-.0056.0156-.0111c0-.0056.034-.0348.075-.0654.0397-.0292.0793-.0612.085-.0723.0056-.0098.0212-.0181.0311-.0181.0113 0 .0212-.0056.0212-.0112 0-.0055.034-.0347.0751-.0653.0396-.0292.0793-.0612.0849-.0724.0057-.0097.0184-.018.0269-.018.0128 0 .0552-.0334.1699-.1336.0198-.0181.0439-.0334.0524-.0334s.0156-.0055.0156-.0111c0-.0055.0339-.0348.075-.0654.0396-.0292.0793-.0612.0849-.0723.0057-.0097.0213-.0181.0312-.0181.0113 0 .0212-.0055.0212-.0111s.034-.0348.075-.0654c.0397-.0292.0793-.0612.085-.0723.0056-.0097.0212-.0181.0311-.0181.0114 0 .0213-.0055.0213-.0111s.0339-.0348.075-.0654c.0396-.0292.0793-.0612.0849-.0723.0057-.0097.0184-.0181.0269-.0181.0128 0 .0552-.0334.1699-.1335.0198-.0181.0411-.0334.0453-.0334.0043 0 .0269-.0195.051-.0417.0241-.0223.0481-.0418.0538-.0418.0056 0 .0325-.0208.0609-.0459.0509-.0431.0906-.0751.1755-.1377.0241-.0166.0453-.0347.0496-.0403.0042-.0042.0523-.0417.1061-.0834.0552-.0404.102-.0779.1062-.0835.0043-.0042.0524-.0417.1062-.0835.0552-.0403.1062-.0806.1132-.089.0085-.0097.0553-.0473.1062-.0834.051-.0376.0949-.0724.0991-.0779.0043-.0042.0524-.0417.1062-.0835.0552-.0403.1019-.0779.1062-.0834.0042-.0042.0524-.0418.1062-.0835.0552-.0403.1061-.0807.1132-.089.0085-.0097.0552-.0473.1062-.0835.051-.0375.0948-.0723.0991-.0779.0042-.0041.0524-.0417.1062-.0834.0552-.0403.1019-.0779.1061-.0835.0043-.0041.0524-.0417.1062-.0834.0552-.0404.1062-.0807.1133-.089.0085-.0098.0552-.0473.1062-.0849.0509-.0361.0991-.0737.1061-.0834.0085-.0084.0552-.0459.1062-.0821.051-.03756.0949-.07233.0991-.0779.0043-.00417.0524-.04172.1062-.08345.0552-.04034.1019-.07789.1062-.08346.0042-.00417.0523-.04172.1061-.08345.0553-.04034.1062-.08068.1133-.08902.0085-.00974.0552-.04729.1062-.08346.0509-.03755.0948-.07232.0991-.07789.0042-.00417.0524-.04173.1061-.08345.0553-.04034.102-.0779.1062-.08346.0043-.00417.0524-.04173.1062-.08345.0552-.04034.1019-.0779.1062-.08346.0042-.00417.0524-.04173.1062-.08346.0552-.04033.1019-.07789.1061-.08345.0043-.00417.0524-.04173.1062-.08346.0552-.04033.1019-.07789.1062-.08345.0042-.00417.051-.04173.1048-.08207.0523-.04033.1075-.08206.1203-.0918.0127-.01112.0679-.05563.1217-.10153.0553-.04451.1275-.11406.1628-.15579.068-.07928.1699-.23924.1699-.26706 0-.00973.0099-.03477.0213-.05563.0113-.02087.024-.06259.0297-.09041s.017-.05981.0255-.07094c.0198-.02504.0198-.41728-.0014-.42979-.0071-.00557-.0184-.03339-.0241-.0612-.0057-.02782-.0184-.06955-.0297-.09041-.0114-.02087-.0213-.0459-.0213-.05286 0-.04034-.1345-.24202-.2222-.33382-.0213-.02365-.0836-.0765-.1388-.11823-.0538-.04173-.1175-.09319-.1415-.11405-.0227-.02226-.0468-.03895-.0524-.03895-.0071 0-.0227-.01113-.0368-.02504-.0411-.03894-.1614-.13492-.1756-.14048-.0071-.00278-.0311-.02087-.0538-.04173-.0509-.04729-.1415-.11823-.1571-.12379-.0142-.00556-.0765-.05703-.1515-.12518-.0269-.02365-.0552-.04451-.0609-.04451-.0071 0-.024-.01113-.0382-.02504-.0396-.03616-.0892-.07511-.143-.11267-.0255-.01808-.0651-.05007-.0863-.06954-.0553-.05007-.143-.11823-.16-.12518-.0071-.00279-.0241-.0153-.0368-.02782-.0382-.03617-.16-.13353-.1727-.1377-.0142-.00557-.0765-.05703-.1515-.12519-.0269-.02364-.0552-.04451-.0609-.04451-.0071 0-.0241-.01112-.0382-.02503-.0411-.03895-.1614-.13492-.1756-.14049-.007-.00278-.0311-.02086-.0538-.04172-.0509-.0473-.1415-.11823-.1571-.1238-.0142-.00556-.0765-.05702-.1515-.12518-.0269-.02364-.0552-.04451-.0609-.04451-.007 0-.0311-.01669-.0538-.03894-.0538-.05008-.1429-.11962-.1599-.12658-.0071-.00278-.0312-.02086-.0538-.04173-.0524-.04729-.1416-.11822-.1586-.12379-.0057-.00278-.0297-.02225-.0524-.04173-.0552-.05007-.1217-.10292-.2067-.16552-.0382-.02921-.0863-.06676-.1061-.08345-.0298-.02643-.1204-.09876-.177-.14048-.0198-.01391-.1911-.15022-.2407-.19056-.0226-.01947-.0736-.05842-.1132-.08624-.0383-.02782-.0836-.06398-.0991-.07928-.0156-.01669-.0538-.0459-.085-.06676-.0311-.02087-.0849-.0626-.1203-.0932s-.068-.05702-.0736-.05702c-.0057 0-.0298-.0167-.0524-.03895-.0538-.04868-.143-.11962-.16-.12657-.0071-.00279-.0297-.01948-.0509-.03756-.1275-.11266-.1501-.13075-.1586-.13075-.0113 0-.0665-.0445-.1529-.1224-.0269-.02364-.0552-.04451-.0609-.04451-.007 0-.0311-.01669-.0552-.03894-.1132-.10154-.1288-.11406-.1401-.11406-.0071 0-.0354-.02086-.0623-.0459-.1317-.11544-.1572-.13492-.1657-.13492-.0113 0-.0665-.04451-.1529-.1224-.0269-.02364-.0538-.04451-.0594-.04451-.0113 0-.0666-.04451-.1529-.1224-.0269-.02365-.0552-.04451-.0609-.04451-.0071 0-.0311-.01669-.0538-.03894-.0524-.0473-.143-.11962-.1585-.12519-.0142-.00556-.0765-.05703-.1515-.12518-.0269-.02365-.0538-.04451-.0609-.04451-.0113 0-.0609-.03895-.143-.11545-.0311-.02781-.0623-.05146-.0694-.05146-.007 0-.0311-.01669-.0538-.03895-.0552-.05007-.1429-.11962-.1613-.12657-.0071-.00278-.0241-.0153-.0369-.02782-.0382-.03616-.1599-.13353-.1727-.1377-.0141-.00556-.0764-.05703-.1514-.12518-.0269-.02365-.0553-.04451-.0609-.04451-.0071 0-.0241-.01113-.0382-.02504-.0354-.03199-.143-.11823-.1685-.13353-.0128-.00556-.0326-.02225-.0453-.03477-.0397-.03617-.16-.13353-.1741-.1377-.0128-.00557-.0538-.03895-.1289-.104322-.0509-.044508-.201-.134918-.2251-.134918-.0071 0-.034-.008347-.058-.019474-.1076-.047291-.1968-.063982-.327-.063982-.0807 0-.136.005563-.136.013908zm.3242.955568c.0284.02086.0581.04312.0652.04868.0184.01391.1458.11545.1883.15022.0184.0153.0523.04034.0778.05842.0595.04172.075.05285.1218.09597.0226.01947.0623.05146.0877.06955.0524.03616.1034.0765.1388.10988.0127.01113.0439.03616.0679.05286.0453.03199.1005.0751.1444.11405.0128.01113.0453.03616.0722.05564.0524.03616.1048.07789.1402.11127.0127.01113.0453.03617.0722.05564.0524.03616.1048.07789.1401.11127.0128.01113.0453.03617.0722.05564.0524.03616.1048.07789.1402.11127.0127.01113.0453.03617.0722.05564.0524.03616.1048.07789.1402.11127.0127.01113.0453.03617.0722.05564.0523.03616.1047.07789.1401.11127.0128.01113.0453.03617.0722.05564.0524.03617.0949.06955.1529.12101.0198.01808.0411.03199.0467.03199.0071 0 .0298.01669.0524.03756.0609.05703.1274.11127.1784.14744.058.04033.0736.05146.1203.09458.0227.01947.0623.05146.0878.06954.0524.03617.1033.0765.1387.10989.0128.01112.0453.03616.0722.05563.0269.01948.0595.04451.0722.05564.0269.02504.1232.10015.1402.11127.017.01113.1132.08624.1401.11128.0128.01113.0453.03616.0722.05564.0638.0445.0779.05563.126.09875.0227.01947.0623.05146.0878.06955.0524.03616.1034.0765.1416.11127.0127.01252.0325.02921.0453.03477.0241.01391.1331.10015.1656.13075.0113.01113.0439.03616.0708.05564.0524.03616.1048.07789.1402.11127.0127.01113.0453.03616.0722.05564.0523.03616.1047.07789.1401.11127.0128.01113.0439.03617.068.05286.0453.03199.0863.06398.1557.12379.0198.01808.0425.03199.0481.03199.0071 0 .0312.01669.0552.03755.0227.02226.0609.05564.0836.07512.0226.01947.0623.05146.0877.06954.0524.03617.1034.0765.1388.10988.0127.01113.0453.03617.0722.05564.0524.03616.1047.07789.1401.11127.0128.01113.0453.03617.0722.05564s.0595.04451.0722.05564c.0439.03894.0991.08206.1444.11405.0496.03478.1006.07511.1359.1085.0128.01112.0454.03616.0723.05563.0523.03617.1047.07789.1401.11128.0127.01112.0453.03616.0722.05563.0269.01948.0595.04451.0722.05564.0439.03895.0991.08206.1444.11406.0496.03477.1005.07511.1359.10849.0128.01113.0453.03616.0722.05564.0524.03616.1048.07789.1402.11127.0127.01113.0453.03616.0722.05564.0524.03616.1047.07789.1401.11127.0128.01113.0453.03616.0722.05564.0269.01947.0595.04451.0722.05563.0269.02504.1232.10015.1402.11128.017.01112.1132.08624.1401.11127.0128.01113.0453.03617.0722.05564.0269.01808.0652.04868.085.06537.0198.01808.0396.03199.0439.03199.0056 0 .0297.0306.0538.06677.0325.05146.0438.08345.0438.13213 0 .03617-.0056.06538-.0141.06538-.0071 0-.0142.00973-.0142.02086 0 .02226-.1458.17387-.167.17387-.0113 0-.034.01808-.1614.13074-.0212.01809-.0439.03478-.051.03756-.0155.00695-.1047.0765-.1585.12518-.0227.02087-.0467.03895-.0538.04173-.0142.00556-.1331.10154-.1742.13909-.0127.01252-.0297.02504-.0368.02782-.017.00696-.1047.07511-.1599.12518-.0227.02087-.0468.03895-.0538.04173-.0156.00696-.1048.0765-.1586.12518-.0226.02087-.0467.03895-.0538.04173-.0141.00557-.1331.10154-.1741.13909-.0128.01252-.0298.02504-.0368.02782-.0184.00696-.1062.0765-.1614.12797-.0227.02086-.0453.03755-.0482.03755-.0042 0-.0184.01113-.0325.02365-.0142.01391-.0411.03477-.0595.0459s-.0509.03755-.0736.05842c-.0226.02225-.0439.03894-.0467.03894-.0043 0-.0184.01113-.0326.02365-.0141.01391-.041.03477-.0594.0459s-.0496.03755-.0722.05703c-.0213.02086-.0453.03894-.0524.04173-.0142.00556-.1331.10153-.1741.13909-.0128.01252-.0298.02503-.0369.02782-.0169.00695-.1047.07511-.1599.12518-.0227.02086-.0467.03894-.0538.04173-.0156.00695-.1048.0765-.1586.12518-.0226.02086-.0467.03895-.0538.04173-.0141.00556-.1331.10153-.1741.13913-.0128.0125-.0297.025-.0368.0278-.0184.0069-.1062.0765-.1614.1266-.0227.0222-.0453.0389-.0481.0389-.0043 0-.0184.0111-.0326.0236-.0142.014-.0411.0348-.0595.0459-.0184.0112-.0495.0376-.0722.0571-.0212.0208-.0453.0389-.0523.0417-.0142.0056-.1345.1015-.1756.1405-.0141.0139-.0311.025-.0382.025-.0099 0-.0354.0209-.1614.1322-.0212.0194-.0453.0347-.051.0347-.0099 0-.0368.0209-.1614.1322-.0212.0194-.0453.0347-.0509.0347-.0099 0-.0368.0209-.1614.1322-.0213.0195-.0453.0348-.051.0348-.0099 0-.0368.0208-.1614.1321-.0212.0195-.0453.0348-.0509.0348-.0099 0-.0368.0208-.1614.1321-.0213.0195-.0453.0348-.051.0348-.0099 0-.0368.0208-.1614.1321-.0212.0195-.0453.0348-.0509.0348-.01 0-.0369.0208-.1614.1321-.0213.0195-.0453.0348-.051.0348-.0113 0-.0793.057-.1586.1321-.0198.0195-.0424.0348-.0481.0348-.0099 0-.058.039-.1656.1335-.0199.0181-.0439.0334-.0524.0334s-.0156.0056-.0156.0111c0 .0056-.034.0348-.0736.0654-.0411.0292-.0807.0612-.0864.0723-.0056.0098-.0184.0181-.0269.0181-.0127 0-.0552.0334-.1698.1336-.0199.018-.0411.0333-.0468.0333-.0099 0-.0594.0404-.1656.1336-.0198.018-.0411.0333-.0467.0333-.0099 0-.0595.0404-.1657.1336-.0198.0181-.041.0334-.0467.0334-.0056 0-.0339.0208-.0637.0445-.0991.0862-.1444.1224-.1515.1224-.007 0-.0637.0473-.1628.1335-.0198.0181-.041.0334-.0467.0334-.0099 0-.0594.0403-.1656.1335-.0198.0181-.0411.0334-.0467.0334-.0057 0-.034.0209-.0623.0445-.0283.025-.0736.0612-.0991.0807-.0269.0194-.0708.0556-.1005.0806-.0298.0237-.0567.0446-.0623.0446-.0057 0-.0241.0153-.0425.0347-.0184.0195-.0396.0348-.0496.0348-.0113 0-.0155-.4687-.0155-1.8068v-1.80681l-.194-.00835c-.1076-.00278-.361-.01252-.5634-.02086-.4516-.01669-1.2331-.01669-1.444-.00139-.085.00695-.24213.01947-.34689.02642-.10476.00835-.20103.01948-.21235.02365-.01982.00695-.1529.02643-.43887.06264-.05804.0069-.12175.018-.14157.0264-.01982.0069-.07362.0167-.12033.0222-.04672.0042-.09061.0139-.0991.0195-.00708.007-.05097.0153-.09486.0209-.0453.0055-.08211.0153-.08211.0208 0 .0056-.03539.0153-.07786.0209-.04247.0042-.08069.0153-.08494.0223-.00566.0069-.02407.0125-.04247.0125-.01841 0-.05097.0069-.07362.0167-.03681.0153-.08777.0292-.25199.0667-.03823.0098-.07645.0223-.08495.0278-.00707.0056-.04105.0153-.07361.0209-.03398.0056-.06371.0153-.06937.0223-.00425.0069-.01841.0125-.03115.0125s-.04247.0097-.06512.0208c-.02123.0112-.04672.0209-.05663.0209-.00849 0-.03397.0097-.05521.0209-.02124.0111-.06087.0236-.08777.0292-.0269.0042-.04955.0139-.04955.0195 0 .0055-.02265.0153-.05097.0208-.02831.0042-.06229.0139-.07503.0209-.01274.0069-.04813.0222-.07928.0348-.08211.0333-.13308.0542-.20669.089-.03539.0153-.0722.0292-.08211.0292-.0085 0-.01558.0055-.01558.0139 0 .0069-.0099.0139-.02123.0139s-.05804.0181-.10193.0403c-.41055.1989-.53089.2601-.55212.2782-.00991.0084-.02124.0153-.0269.0153-.00425 0-.0722.0376-.15007.0835-.07645.0459-.14298.0834-.14723.0834-.01133 0-.09768.0612-.10193.0724-.00283.0069-.01416.0111-.02407.0111s-.05521.0278-.10193.0598c-.0453.0334-.08919.064-.09627.0668-.04105.0167-.1628.1001-.1628.1112 0 .007-.00566.0126-.01274.0126-.01133 0-.19537.1279-.27748.1905-.00708.007-.05521.0431-.10476.0807-.05097.0389-.10193.0793-.11609.0904-.01274.0111-.07503.064-.14015.1182-.06371.0529-.13874.1183-.16422.1433-.0269.0236-.0538.0445-.05946.0445-.01275 0-.58469.5703-.70644.7038-.04813.0529-.10901.1224-.13449.1558-.02548.032-.05097.0584-.05663.0584s-.01132.007-.01132.0153c0 .0097-.01416.0292-.03115.0459-.04247.039-.13874.1558-.13874.1683 0 .0042-.01557.025-.03539.0459-.0538.057-.21943.2796-.21943.2949 0 .0083-.00425.0139-.00991.0139-.00708 0-.02124.0167-.03398.0389-.01274.0209-.06654.0974-.1175.1697-.05097.0724-.09344.1391-.09344.1475 0 .0097-.00425.0194-.00991.0222-.01699.007-.07503.0918-.07503.1085 0 .007-.00567.0139-.01274.0139-.00708 0-.01841.0139-.02407.0306-.00425.0181-.02548.0571-.04672.0877-.01982.0306-.04955.0806-.06512.1112s-.03256.0585-.03681.0626c-.01416.0112-.1175.2003-.22085.402-.09485.1864-.09627.1864-.10759.1391-.05946-.2323-.08211-1.448-.03398-1.8972.03964-.3742.0538-.4855.06654-.5091.00566-.0111.01557-.0709.02123-.1321.00567-.0599.01558-.1169.02266-.1238.00566-.0084.01557-.0585.02123-.1113.00566-.0543.01416-.1043.01982-.1113.00566-.0083.01557-.0528.02124-.1015.00566-.0473.01557-.089.02123-.0932s.01557-.0403.02124-.0807c.00566-.0389.01557-.0793.02123-.0862.00567-.0084.01558-.0404.02124-.0723.00566-.0334.01415-.0626.02123-.0668.00567-.0042.01558-.039.02124-.0765.00566-.0376.01416-.0723.02123-.0765.00567-.0042.01558-.0348.01982-.0696.00567-.0333.01558-.0653.02266-.0695.00707-.0042.01698-.0362.02265-.0696.00424-.0347.01415-.0667.02123-.0709s.01274-.0181.01274-.0306.00991-.0417.02124-.0626c.01132-.0208.02407-.0598.02973-.0862.00425-.0264.01416-.0487.01982-.0487s.01557-.0223.02123-.0501c.00425-.0278.01416-.0612.02124-.0737.0269-.0487.05663-.1182.05663-.1307 0-.007.00991-.0348.02265-.0626.01132-.0292.03114-.0724.04105-.0974.02973-.0668.05522-.1224.11184-.2406.02832-.0584.05097-.1127.05097-.1224 0-.0084.00708-.0153.01416-.0153.00849 0 .01415-.0056.01415-.0139 0-.0223.06088-.153.0722-.153.00567 0 .01416-.01673.01982-.03759.00425-.02087.01416-.04173.01841-.0459.00566-.00418.02831-.04173.04955-.08346.02123-.04173.05804-.10849.08069-.14605.02407-.03894.04955-.08623.05805-.10849.00849-.02086.01982-.03755.02689-.03755.00567 0 .01416-.01113.01982-.02504.00425-.01252.02124-.04312.03681-.06537.01558-.02365.0354-.05703.04531-.0765.00991-.01948.02406-.04173.03256-.05008.00707-.00834.02689-.03755.04247-.06537.01557-.02782.03256-.05146.03822-.05146.00708 0 .01133-.00696.01133-.01391 0-.01391.05238-.0932.0722-.11128.00424-.00417.02265-.03199.04105-.06259.01841-.0306.03681-.05842.04106-.06259.00566-.00417.02973-.03895.05663-.0765.02689-.03895.05521-.0765.0637-.08346.0085-.00834.03681-.0459.06371-.08345.0269-.03895.05521-.0765.06512-.08346.0085-.00834.04955-.05703.08919-.10988.04106-.05146.08211-.10293.09202-.11266.00991-.00974.06512-.07233.12317-.14049.13874-.15856.62432-.63982.77863-.76918.06654-.05564.14582-.1224.17697-.14883.03114-.02642.09768-.08067.14864-.11962.05097-.04033.09486-.0765.0991-.08067.00425-.00417.03256-.02504.06513-.0459.03114-.02086.06936-.04868.08494-.06259.10193-.08763.68803-.46179.72484-.46179.00849 0 .01698-.00556.01982-.01113.00566-.01251.11608-.07789.2166-.12796.03964-.01947.07362-.03895.07786-.04451.00425-.00417.02548-.01391.04672-.01808.02124-.00557.03822-.0153.03822-.02087 0-.00556.01699-.0153.03823-.02086.02123-.00417.04247-.01391.04672-.01808.01274-.01808.12599-.07233.14723-.07233.01274 0 .02265-.00556.02265-.01391 0-.00695.01699-.01808.03681-.02225.02123-.00557.07362-.02782.1175-.04869.04389-.02225.08919-.04033.10052-.04033.01132 0 .03397-.00974.04813-.02087.01557-.01113.03964-.02086.0538-.02086.01415 0 .02548-.00696.02548-.01391 0-.00835.01133-.01391.02548-.01391.01274-.00139.04955-.01252.0807-.02782.03114-.0153.06795-.02643.08211-.02782.01274 0 .02407-.00556.02407-.01252 0-.00695.02548-.01669.05662-.02225.03115-.00556.05946-.01391.06371-.02086.00425-.00696.03256-.0153.06371-.02087.03114-.00556.05946-.01391.0637-.02086.00425-.00696.03256-.0153.06371-.02087.03114-.00556.05946-.0139.06371-.02086.00424-.00695.03256-.0153.0637-.02086.03115-.00557.05946-.01391.06371-.02087.00425-.00695.03398-.0153.06795-.02086.03256-.00556.06654-.0153.07362-.02086.01416-.01113.08777-.02782.25199-.05842.04389-.00835.0807-.01948.0807-.02504s.03822-.01391.08494-.01947c.04672-.00557.08777-.0153.09061-.02087.00424-.00695.05238-.0153.10759-.02086.0538-.00556.10193-.0153.10476-.02086.00425-.00696.05663-.0153.11609-.02087.05946-.00556.1175-.0153.13024-.02225.03256-.01669.29447-.04312.80269-.07789.2095-.01531.7433-.0167 1.0476-.00279.1246.00696.4092.0153.6343.02087l.4063.00834v-1.91391c0-1.05432.0042-1.9153.0099-1.9153.0042 0 .0311.01669.0594.03756z" fill="#fff"/><path d="m12.0701.766632c0 .006956-.0184.01391-.0396.01391-.041 0-.1543.051465-.2449.112666-.0481.03199-.1826.193342-.1826.218372 0 .00696-.0099.02087-.0213.0306-.0113.00974-.0212.02643-.0212.03756 0 .01112-.0085.04033-.0198.06398-.0651.14187-.0651.12379-.0651 1.80542 0 1.25878-.0043 1.58426-.017 1.58426-.9287-.00139-1.74418.02364-1.81638.05564-.01557.00695-.09202.01669-.16988.02086-.07787.00556-.14724.01391-.15573.02086-.00708.00557-.05804.01391-.11184.01948-.0538.00556-.10476.01391-.11326.01947-.00849.00556-.0637.01669-.12175.02643-.05804.00973-.15006.02642-.20527.03894-.0538.01113-.13733.02782-.18263.03478-.04672.00834-.0906.01947-.0991.02503-.00849.00557-.04672.01669-.08636.02643-.12458.02782-.19819.04729-.21943.05842-.01274.00695-.04389.01669-.07078.02225-.0269.00557-.05522.0153-.06371.02087-.00708.00556-.04106.0153-.07362.02086-.03397.00556-.06087.0153-.06087.02226 0 .00695-.01416.01251-.03115.01251-.03822 0-.21518.05703-.22085.07233-.00283.00557-.0184.01113-.03539.01113s-.04672.00834-.06654.01808-.06654.02921-.10618.04312c-.03822.01391-.09626.03616-.12741.05007-.03114.01252-.08494.03478-.12033.04869-.0354.01391-.08353.03338-.10901.04311-.02407.01113-.05097.01948-.05946.01948-.0085 0-.01557.00556-.01557.01252 0 .00695-.01841.01669-.04248.02225-.02265.00556-.04247.01391-.04247.02086 0 .00696-.0184.0153-.04247.02087-.02265.00556-.04247.0153-.04247.02225 0 .00696-.00849.01252-.01982.01252-.02123 0-.39073.17665-.40489.19334-.00425.00417-.03539.02225-.07078.04034-.11751.05981-.21944.11822-.22369.13074-.00283.00557-.01274.01113-.02265.01113-.00849 0-.04955.02225-.09202.04868-.04105.02643-.08069.04869-.08777.04869s-.01274.00556-.01274.0139c0 .00696-.00566.01391-.01416.01391-.01274 0-.08494.04312-.15573.0932-.0184.0139-.0453.0292-.05946.03477-.01415.00556-.02548.01669-.02548.02503 0 .00696-.00708.01391-.01415.01391-.01699 0-.10335.05703-.11043.07233-.00283.00696-.01133.01113-.0184.01113-.00708 0-.04247.02225-.07928.05007-.15573.11267-.20811.153-.23359.17526-.01416.01391-.03115.02504-.03823.02504-.00566 0-.0269.0139-.04672.0306-.01982.01808-.06087.05007-.0906.07372-.02831.02225-.0722.05841-.09627.07789-.02407.01947-.06229.05146-.08494.06954-.02407.01809-.06229.05147-.08636.07511-.02406.02226-.06654.05842-.09485.07929-.05663.04172-.61583.58836-.68803.6732-.07928.09041-.17838.2003-.2166.24202-.01982.02087-.05238.05981-.07079.08485-.0184.02643-.04388.05703-.05521.06955-.03539.03616-.07645.08623-.11326.1377-.0184.02642-.03822.05146-.04388.05563-.01416.01113-.11184.13771-.11184.14744 0 .00417-.0085.0153-.01699.02504-.00991.01113-.0269.0306-.03681.04451-.03256.04868-.15714.22115-.16847.23506-.00708.00696-.03539.05147-.06371.09737-.06229.10015-.17554.27262-.19253.29209-.00566.00696-.0269.04451-.04672.08346-.0184.03755-.03822.07233-.04389.0765-.00566.00417-.01698.02364-.02406.04173-.01841.04033-.04389.08206-.06937.10849-.0085.00973-.01699.02782-.01699.03894 0 .01113-.00566.01948-.01274.01948s-.01699.01947-.02265.04172c-.00567.02365-.01416.04173-.02124.04173s-.01557.01947-.02123.04173c-.00567.02365-.01416.04173-.02124.04173s-.01557.01808-.02123.04173c-.00567.02225-.01416.04172-.02124.04172s-.01557.01948-.02124.04173c-.00566.02365-.01415.04173-.02123.04173s-.01557.01947-.02124.04173c-.00566.02364-.01415.04172-.02123.04172s-.01557.01948-.02124.04173c-.00566.02365-.01557.04173-.02265.04173s-.01274.00834-.01274.01808-.01274.04034-.02831.06955c-.01558.02782-.02832.06119-.02832.07229 0 .0112-.00566.0209-.01274.0209s-.01699.0195-.02265.0431c-.00566.0237-.0184.0584-.02973.0793s-.01982.0459-.01982.0542c0 .0098-.00566.0181-.01416.0181-.00708 0-.01699.0223-.02265.0487-.00425.0264-.01416.0487-.01982.0487-.00708 0-.01557.0195-.02123.0431-.00567.0237-.01841.0584-.02973.0793-.01133.0209-.01982.0473-.01982.0598 0 .0195-.02407.0779-.05522.1377-.00707.0125-.01698.0417-.02265.0682-.00566.025-.0184.0612-.02973.082-.01132.0209-.01982.0515-.01982.0682 0 .0181-.00566.032-.01274.032-.00849 0-.0184.0278-.02406.0626-.00425.0347-.01416.0626-.02124.0626-.00566 0-.01557.0278-.02124.0625-.00424.0348-.01415.0654-.01982.0696-.00707.0042-.01557.0389-.02123.0765-.00566.0375-.01557.0723-.02124.0765-.00707.0042-.01698.0417-.02123.0834-.00566.0432-.01557.0807-.02265.0835-.00567.0042-.01558.0362-.02124.0696-.00425.0347-.01416.0653-.01982.0695-.00708.0042-.01557.0403-.02123.0807-.00567.0389-.01558.0779-.02124.0862-.00566.007-.01557.0543-.02123.1043-.00567.0501-.01558.0932-.02124.0974s-.0184.057-.0269.1182c-.00849.0612-.02123.1391-.02831.1739-.0085.0348-.01416.089-.01558.1224 0 .032-.00566.0695-.01415.0834-.01416.0251-.03539.192-.05805.4688-.00707.0918-.01982.2017-.02689.2434-.02124.1196-.03115.8971-.01558 1.1684.02407.4033.04247.6161.05663.6676.0085.0264.01699.096.02265.153.00425.057.01274.1322.02124.1669.00708.0348.01982.1099.02831.1669.00708.0571.02407.1544.03539.2156.01275.0612.02973.1516.03823.2017.00849.0501.01982.0932.02407.0974.00566.0041.01698.0445.02548.0904.0184.0974.04389.1961.06087.2364.00708.0153.01699.0557.02265.0905.00425.0347.01416.0681.01982.0765.00567.0069.01699.0417.02549.0765.03114.1307.04813.1891.05946.2114.00849.0125.0184.0487.02265.0806.00566.0306.01415.0557.02123.0557s.01274.0125.01274.0278.01841.0821.04106.1488c.02265.0682.0453.1447.05097.1711.00566.0264.01557.057.02123.0696.00991.0194.01982.0528.05804.2016.0085.0306.01982.0668.0269.0793.0085.0125.01841.0487.02265.0807.00567.0306.01416.0556.02124.0556s.01274.0139.01416.0306c0 .0181.01132.064.02406.1044.02407.0723.02407.0723.04106.0347.00991-.0208.02123-.0626.0269-.0918.00566-.0306.0184-.0709.02831-.0904.01133-.0195.01982-.0501.01982-.0667 0-.0167.00566-.0334.01274-.039.0085-.0042.01841-.0362.02407-.0695.00425-.0348.01416-.0626.01982-.0626s.01557-.0278.01982-.0626c.00566-.0334.01557-.0654.02123-.0696.00708-.0027.01558-.0333.02124-.0653.00991-.064.04672-.1864.06371-.2198.00708-.0125.01698-.0487.02265-.0821.00566-.032.0184-.0765.02973-.0959.01132-.0209.01982-.0515.01982-.0682s.00566-.0334.01274-.0376c.00708-.0055.01699-.0347.02265-.0681.00566-.032.01416-.0654.01982-.0723.00566-.0084.02548-.0668.04247-.1322.0184-.0653.04106-.1377.05238-.1627.01133-.0237.01982-.0529.01982-.064s.00991-.0389.02124-.0598c.01132-.0223.02123-.0515.02123-.0654 0-.0125.00567-.0236.01274-.0236.00708 0 .01699-.0251.02265-.0557.00567-.0306.01558-.0556.02124-.0556.00708 0 .01557-.0209.02124-.0445.00849-.0459.03822-.1196.0637-.1669.0085-.0139.01416-.032.01416-.0417.00142-.0098.01274-.0432.02831-.0738.01558-.0306.0269-.0639.02832-.0737 0-.0083.00708-.0167.01415-.0167.0085 0 .01416-.0083.01416-.0181 0-.0097.01274-.0403.02832-.0695.01557-.0278.02831-.0612.02831-.0723 0-.0112.00708-.0209.01416-.0209.00849 0 .01415-.0069.01415-.0153 0-.0278.08636-.2059.17697-.3672.03539-.0612.08069-.146.10193-.1878.02265-.0417.04388-.0793.05096-.0806.00566-.0028.00991-.0126.00991-.0223 0-.0083.02265-.0487.04955-.0904.0269-.0403.04955-.0779.04955-.0849 0-.0069.00566-.0139.01133-.0166.00566-.0028.0368-.0446.06653-.0946.07079-.1169.28598-.4298.31995-.4674.01558-.0153.0269-.0348.0269-.0431s.00566-.0181.01133-.0209c.00566-.0027.05521-.0612.10901-.1293.05379-.0696.1175-.1475.14015-.1753.02407-.0278.07645-.0862.11467-.1321.09627-.1113.23784-.2615.25058-.2671.00566-.0028.01133-.0111.01133-.0181 0-.025.48558-.4854.61583-.5855.02406-.0167.05804-.0487.07786-.0682s.07645-.0667.12741-.1043c.05097-.0376.0991-.0751.10618-.0835.0085-.0097.0807-.0639.16281-.1224.08211-.0584.15856-.1154.1713-.1265.01274-.0112.02689-.0209.03256-.0209.00708 0 .03539-.0195.06512-.0417.02973-.0237.05804-.0418.06371-.0418.00566 0 .03397-.0166.06229-.0389.06795-.0501.10193-.0709.13307-.0807.01274-.0055.02407-.0139.02407-.0208 0-.0084.01133-.0181.02548-.0223.01274-.0056.04955-.025.0807-.0445.07786-.0487.09343-.0584.17838-.1043.12316-.0654.13307-.071.14015-.0793.01274-.0139.56062-.2768.57761-.2768.00849 0 .01698-.007.01698-.0139 0-.0084.0085-.0139.01982-.0139.00991 0 .04955-.0125.08778-.0292.03822-.0153.08211-.0334.09768-.039.04814-.0194.18263-.0737.22934-.0932.02407-.0111.05097-.0194.05946-.0194.0085 0 .0269-.0056.04106-.0139.04105-.0237.31995-.1113.35251-.1113.01699 0 .03398-.0056.03822-.0125.00425-.007.03256-.0167.06088-.0223.02973-.0056.06087-.0139.06795-.0209.0085-.0055.04672-.018.08494-.0264.03964-.0097.1076-.0264.1529-.0375.04389-.0098.12033-.0292.16988-.0418.04814-.0111.126-.0278.17272-.0347.04672-.007.09485-.0167.10618-.0209.02548-.0097.22934-.0431.40347-.0654.07079-.0097.13449-.0208.14157-.025.0085-.0056.09769-.0139.1982-.0195.10193-.0056.19678-.0153.21238-.0209.0325-.0125.504-.0194 1.0504-.0166l.3724.0027.0042 1.5398c.0042 1.2337.0085 1.5564.0241 1.6204.0099.0445.024.0807.0297.0807.0071 0 .0156.0222.0212.0487.0043.0264.017.0542.0283.064.0114.0083.0199.025.0199.0347 0 .0112.007.0195.0141.0195.0085 0 .0142.0083.0142.0195 0 .0264.1798.203.2067.203.0099 0 .0198.0056.0198.0112 0 .0125.0679.0417.1628.0695.1897.0543.3766.0306.613-.0765.0283-.0139.0552-.0278.0595-.032.0042-.0055.0325-.0236.0637-.0417.0311-.0181.0623-.0417.0679-.0515.0057-.0097.0213-.018.0312-.018.0113 0 .0212-.0056.0212-.0112 0-.0055.034-.0347.075-.0653.0397-.0293.0793-.0612.085-.0724.0056-.0097.0212-.0181.0311-.0181.0113 0 .0213-.0055.0213-.0111 0-.0055.0339-.0348.075-.0654.0396-.0292.0793-.0612.0849-.0723.0057-.0097.017-.0181.0241-.0181s.034-.0194.0595-.0431c.0254-.0236.0622-.0528.0821-.0654.0198-.0125.041-.0306.0467-.0403.0056-.0097.0212-.0181.0311-.0181.0114 0 .0213-.0055.0213-.0111s.0339-.0348.075-.0654c.0396-.0292.0793-.0612.0849-.0723.0057-.0097.0213-.0181.0312-.0181.0113 0 .0212-.0056.0212-.0111 0-.0056.034-.0348.0751-.0654.0396-.0292.0792-.0612.0849-.0723.0057-.0098.0184-.0181.0269-.0181.0127 0 .0552-.0334.1699-.1335.0198-.0181.041-.0334.0467-.0334.0099 0 .0595-.0403.1656-.1335.0199-.0181.0439-.0334.0524-.0334s.0156-.0056.0156-.0111c0-.0056.034-.0348.075-.0654.0397-.0292.0793-.0612.085-.0723.0056-.0098.0212-.0181.0311-.0181.0113 0 .0212-.0056.0212-.0112 0-.0055.034-.0347.0751-.0653.0396-.0292.0793-.0612.0849-.0724.0057-.0097.0184-.018.0269-.018.0128 0 .0552-.0334.1699-.1336.0198-.0181.0439-.0334.0524-.0334s.0156-.0055.0156-.0111c0-.0055.0339-.0348.075-.0654.0396-.0292.0793-.0612.0849-.0723.0057-.0097.0213-.0181.0312-.0181.0113 0 .0212-.0055.0212-.0111s.034-.0348.075-.0654c.0397-.0292.0793-.0612.085-.0723.0056-.0097.0212-.0181.0311-.0181.0114 0 .0213-.0055.0213-.0111s.0339-.0348.075-.0654c.0396-.0292.0793-.0612.0849-.0723.0057-.0097.0184-.0181.0269-.0181.0128 0 .0552-.0334.1699-.1335.0198-.0181.0411-.0334.0453-.0334.0043 0 .0269-.0195.051-.0417.0241-.0223.0481-.0418.0538-.0418.0056 0 .0325-.0208.0609-.0459.0509-.0431.0906-.0751.1755-.1377.0241-.0166.0453-.0347.0496-.0403.0042-.0042.0523-.0417.1061-.0834.0552-.0404.102-.0779.1062-.0835.0043-.0042.0524-.0417.1062-.0835.0552-.0403.1062-.0806.1132-.089.0085-.0097.0553-.0473.1062-.0834.051-.0376.0949-.0724.0991-.0779.0043-.0042.0524-.0417.1062-.0835.0552-.0403.1019-.0779.1062-.0834.0042-.0042.0524-.0418.1062-.0835.0552-.0403.1061-.0807.1132-.089.0085-.0097.0552-.0473.1062-.0835.051-.0375.0948-.0723.0991-.0779.0042-.0041.0524-.0417.1062-.0834.0552-.0403.1019-.0779.1061-.0835.0043-.0041.0524-.0417.1062-.0834.0552-.0404.1062-.0807.1133-.089.0085-.0098.0552-.0473.1062-.0849.0509-.0361.0991-.0737.1061-.0834.0085-.0084.0552-.0459.1062-.0821.051-.03756.0949-.07233.0991-.0779.0043-.00417.0524-.04172.1062-.08345.0552-.04034.1019-.07789.1062-.08346.0042-.00417.0523-.04172.1061-.08345.0553-.04034.1062-.08068.1133-.08902.0085-.00974.0552-.04729.1062-.08346.0509-.03755.0948-.07232.0991-.07789.0042-.00417.0524-.04173.1061-.08345.0553-.04034.102-.0779.1062-.08346.0043-.00417.0524-.04173.1062-.08345.0552-.04034.1019-.0779.1062-.08346.0042-.00417.0524-.04173.1062-.08346.0552-.04033.1019-.07789.1061-.08345.0043-.00417.0524-.04173.1062-.08346.0552-.04033.1019-.07789.1062-.08345.0042-.00417.051-.04173.1048-.08207.0523-.04033.1075-.08206.1203-.0918.0127-.01112.0679-.05563.1217-.10153.0553-.04451.1275-.11406.1628-.15579.068-.07928.1699-.23924.1699-.26706 0-.00973.0099-.03477.0213-.05563.0113-.02087.024-.06259.0297-.09041s.017-.05981.0255-.07094c.0198-.02504.0198-.41728-.0014-.42979-.0071-.00557-.0184-.03339-.0241-.0612-.0057-.02782-.0184-.06955-.0297-.09041-.0114-.02087-.0213-.0459-.0213-.05286 0-.04034-.1345-.24202-.2222-.33382-.0213-.02365-.0836-.0765-.1388-.11823-.0538-.04173-.1175-.09319-.1415-.11405-.0227-.02226-.0468-.03895-.0524-.03895-.0071 0-.0227-.01113-.0368-.02504-.0411-.03894-.1614-.13492-.1756-.14048-.0071-.00278-.0311-.02087-.0538-.04173-.0509-.04729-.1415-.11823-.1571-.12379-.0142-.00556-.0765-.05703-.1515-.12518-.0269-.02365-.0552-.04451-.0609-.04451-.0071 0-.024-.01113-.0382-.02504-.0396-.03616-.0892-.07511-.143-.11267-.0255-.01808-.0651-.05007-.0863-.06954-.0553-.05007-.143-.11823-.16-.12518-.0071-.00279-.0241-.0153-.0368-.02782-.0382-.03617-.16-.13353-.1727-.1377-.0142-.00557-.0765-.05703-.1515-.12519-.0269-.02364-.0552-.04451-.0609-.04451-.0071 0-.0241-.01112-.0382-.02503-.0411-.03895-.1614-.13492-.1756-.14049-.007-.00278-.0311-.02086-.0538-.04172-.0509-.0473-.1415-.11823-.1571-.1238-.0142-.00556-.0765-.05702-.1515-.12518-.0269-.02364-.0552-.04451-.0609-.04451-.007 0-.0311-.01669-.0538-.03894-.0538-.05008-.1429-.11962-.1599-.12658-.0071-.00278-.0312-.02086-.0538-.04173-.0524-.04729-.1416-.11822-.1586-.12379-.0057-.00278-.0297-.02225-.0524-.04173-.0552-.05007-.1217-.10292-.2067-.16552-.0382-.02921-.0863-.06676-.1061-.08345-.0298-.02643-.1204-.09876-.177-.14048-.0198-.01391-.1911-.15022-.2407-.19056-.0226-.01947-.0736-.05842-.1132-.08624-.0383-.02782-.0836-.06398-.0991-.07928-.0156-.01669-.0538-.0459-.085-.06676-.0311-.02087-.0849-.0626-.1203-.0932s-.068-.05702-.0736-.05702c-.0057 0-.0298-.0167-.0524-.03895-.0538-.04868-.143-.11962-.16-.12657-.0071-.00279-.0297-.01948-.0509-.03756-.1275-.11266-.1501-.13075-.1586-.13075-.0113 0-.0665-.0445-.1529-.1224-.0269-.02364-.0552-.04451-.0609-.04451-.007 0-.0311-.01669-.0552-.03894-.1132-.10154-.1288-.11406-.1401-.11406-.0071 0-.0354-.02086-.0623-.0459-.1317-.11544-.1572-.13492-.1657-.13492-.0113 0-.0665-.04451-.1529-.1224-.0269-.02364-.0538-.04451-.0594-.04451-.0113 0-.0666-.04451-.1529-.1224-.0269-.02365-.0552-.04451-.0609-.04451-.0071 0-.0311-.01669-.0538-.03894-.0524-.0473-.143-.11962-.1585-.12519-.0142-.00556-.0765-.05703-.1515-.12518-.0269-.02365-.0538-.04451-.0609-.04451-.0113 0-.0609-.03895-.143-.11545-.0311-.02781-.0623-.05146-.0694-.05146-.007 0-.0311-.01669-.0538-.03895-.0552-.05007-.1429-.11962-.1613-.12657-.0071-.00278-.0241-.0153-.0369-.02782-.0382-.03616-.1599-.13353-.1727-.1377-.0141-.00556-.0764-.05703-.1514-.12518-.0269-.02365-.0553-.04451-.0609-.04451-.0071 0-.0241-.01113-.0382-.02504-.0354-.03199-.143-.11823-.1685-.13353-.0128-.00556-.0326-.02225-.0453-.03477-.0397-.03617-.16-.13353-.1741-.1377-.0128-.00557-.0538-.03895-.1289-.104322-.0509-.044508-.201-.134918-.2251-.134918-.0071 0-.034-.008347-.058-.019474-.1076-.047291-.1968-.063982-.327-.063982-.0807 0-.136.005563-.136.013908zm.3242.955568c.0284.02086.0581.04312.0652.04868.0184.01391.1458.11545.1883.15022.0184.0153.0523.04034.0778.05842.0595.04172.075.05285.1218.09597.0226.01947.0623.05146.0877.06955.0524.03616.1034.0765.1388.10988.0127.01113.0439.03616.0679.05286.0453.03199.1005.0751.1444.11405.0128.01113.0453.03616.0722.05564.0524.03616.1048.07789.1402.11127.0127.01113.0453.03617.0722.05564.0524.03616.1048.07789.1401.11127.0128.01113.0453.03617.0722.05564.0524.03616.1048.07789.1402.11127.0127.01113.0453.03617.0722.05564.0524.03616.1048.07789.1402.11127.0127.01113.0453.03617.0722.05564.0523.03616.1047.07789.1401.11127.0128.01113.0453.03617.0722.05564.0524.03617.0949.06955.1529.12101.0198.01808.0411.03199.0467.03199.0071 0 .0298.01669.0524.03756.0609.05703.1274.11127.1784.14744.058.04033.0736.05146.1203.09458.0227.01947.0623.05146.0878.06954.0524.03617.1033.0765.1387.10989.0128.01112.0453.03616.0722.05563.0269.01948.0595.04451.0722.05564.0269.02504.1232.10015.1402.11127.017.01113.1132.08624.1401.11128.0128.01113.0453.03616.0722.05564.0638.0445.0779.05563.126.09875.0227.01947.0623.05146.0878.06955.0524.03616.1034.0765.1416.11127.0127.01252.0325.02921.0453.03477.0241.01391.1331.10015.1656.13075.0113.01113.0439.03616.0708.05564.0524.03616.1048.07789.1402.11127.0127.01113.0453.03616.0722.05564.0523.03616.1047.07789.1401.11127.0128.01113.0439.03617.068.05286.0453.03199.0863.06398.1557.12379.0198.01808.0425.03199.0481.03199.0071 0 .0312.01669.0552.03755.0227.02226.0609.05564.0836.07512.0226.01947.0623.05146.0877.06954.0524.03617.1034.0765.1388.10988.0127.01113.0453.03617.0722.05564.0524.03616.1047.07789.1401.11127.0128.01113.0453.03617.0722.05564s.0595.04451.0722.05564c.0439.03894.0991.08206.1444.11405.0496.03478.1006.07511.1359.1085.0128.01112.0454.03616.0723.05563.0523.03617.1047.07789.1401.11128.0127.01112.0453.03616.0722.05563.0269.01948.0595.04451.0722.05564.0439.03895.0991.08206.1444.11406.0496.03477.1005.07511.1359.10849.0128.01113.0453.03616.0722.05564.0524.03616.1048.07789.1402.11127.0127.01113.0453.03616.0722.05564.0524.03616.1047.07789.1401.11127.0128.01113.0453.03616.0722.05564.0269.01947.0595.04451.0722.05563.0269.02504.1232.10015.1402.11128.017.01112.1132.08624.1401.11127.0128.01113.0453.03617.0722.05564.0269.01808.0652.04868.085.06537.0198.01808.0396.03199.0439.03199.0056 0 .0297.0306.0538.06677.0325.05146.0438.08345.0438.13213 0 .03617-.0056.06538-.0141.06538-.0071 0-.0142.00973-.0142.02086 0 .02226-.1458.17387-.167.17387-.0113 0-.034.01808-.1614.13074-.0212.01809-.0439.03478-.051.03756-.0155.00695-.1047.0765-.1585.12518-.0227.02087-.0467.03895-.0538.04173-.0142.00556-.1331.10154-.1742.13909-.0127.01252-.0297.02504-.0368.02782-.017.00696-.1047.07511-.1599.12518-.0227.02087-.0468.03895-.0538.04173-.0156.00696-.1048.0765-.1586.12518-.0226.02087-.0467.03895-.0538.04173-.0141.00557-.1331.10154-.1741.13909-.0128.01252-.0298.02504-.0368.02782-.0184.00696-.1062.0765-.1614.12797-.0227.02086-.0453.03755-.0482.03755-.0042 0-.0184.01113-.0325.02365-.0142.01391-.0411.03477-.0595.0459s-.0509.03755-.0736.05842c-.0226.02225-.0439.03894-.0467.03894-.0043 0-.0184.01113-.0326.02365-.0141.01391-.041.03477-.0594.0459s-.0496.03755-.0722.05703c-.0213.02086-.0453.03894-.0524.04173-.0142.00556-.1331.10153-.1741.13909-.0128.01252-.0298.02503-.0369.02782-.0169.00695-.1047.07511-.1599.12518-.0227.02086-.0467.03894-.0538.04173-.0156.00695-.1048.0765-.1586.12518-.0226.02086-.0467.03895-.0538.04173-.0141.00556-.1331.10153-.1741.13913-.0128.0125-.0297.025-.0368.0278-.0184.0069-.1062.0765-.1614.1266-.0227.0222-.0453.0389-.0481.0389-.0043 0-.0184.0111-.0326.0236-.0142.014-.0411.0348-.0595.0459-.0184.0112-.0495.0376-.0722.0571-.0212.0208-.0453.0389-.0523.0417-.0142.0056-.1345.1015-.1756.1405-.0141.0139-.0311.025-.0382.025-.0099 0-.0354.0209-.1614.1322-.0212.0194-.0453.0347-.051.0347-.0099 0-.0368.0209-.1614.1322-.0212.0194-.0453.0347-.0509.0347-.0099 0-.0368.0209-.1614.1322-.0213.0195-.0453.0348-.051.0348-.0099 0-.0368.0208-.1614.1321-.0212.0195-.0453.0348-.0509.0348-.0099 0-.0368.0208-.1614.1321-.0213.0195-.0453.0348-.051.0348-.0099 0-.0368.0208-.1614.1321-.0212.0195-.0453.0348-.0509.0348-.01 0-.0369.0208-.1614.1321-.0213.0195-.0453.0348-.051.0348-.0113 0-.0793.057-.1586.1321-.0198.0195-.0424.0348-.0481.0348-.0099 0-.058.039-.1656.1335-.0199.0181-.0439.0334-.0524.0334s-.0156.0056-.0156.0111c0 .0056-.034.0348-.0736.0654-.0411.0292-.0807.0612-.0864.0723-.0056.0098-.0184.0181-.0269.0181-.0127 0-.0552.0334-.1698.1336-.0199.018-.0411.0333-.0468.0333-.0099 0-.0594.0404-.1656.1336-.0198.018-.0411.0333-.0467.0333-.0099 0-.0595.0404-.1657.1336-.0198.0181-.041.0334-.0467.0334-.0056 0-.0339.0208-.0637.0445-.0991.0862-.1444.1224-.1515.1224-.007 0-.0637.0473-.1628.1335-.0198.0181-.041.0334-.0467.0334-.0099 0-.0594.0403-.1656.1335-.0198.0181-.0411.0334-.0467.0334-.0057 0-.034.0209-.0623.0445-.0283.025-.0736.0612-.0991.0807-.0269.0194-.0708.0556-.1005.0806-.0298.0237-.0567.0446-.0623.0446-.0057 0-.0241.0153-.0425.0347-.0184.0195-.0396.0348-.0496.0348-.0113 0-.0155-.4687-.0155-1.8068v-1.80681l-.194-.00835c-.1076-.00278-.361-.01252-.5634-.02086-.4516-.01669-1.2331-.01669-1.444-.00139-.085.00695-.24213.01947-.34689.02642-.10476.00835-.20103.01948-.21235.02365-.01982.00695-.1529.02643-.43887.06264-.05804.0069-.12175.018-.14157.0264-.01982.0069-.07362.0167-.12033.0222-.04672.0042-.09061.0139-.0991.0195-.00708.007-.05097.0153-.09486.0209-.0453.0055-.08211.0153-.08211.0208 0 .0056-.03539.0153-.07786.0209-.04247.0042-.08069.0153-.08494.0223-.00566.0069-.02407.0125-.04247.0125-.01841 0-.05097.0069-.07362.0167-.03681.0153-.08777.0292-.25199.0667-.03823.0098-.07645.0223-.08495.0278-.00707.0056-.04105.0153-.07361.0209-.03398.0056-.06371.0153-.06937.0223-.00425.0069-.01841.0125-.03115.0125s-.04247.0097-.06512.0208c-.02123.0112-.04672.0209-.05663.0209-.00849 0-.03397.0097-.05521.0209-.02124.0111-.06087.0236-.08777.0292-.0269.0042-.04955.0139-.04955.0195 0 .0055-.02265.0153-.05097.0208-.02831.0042-.06229.0139-.07503.0209-.01274.0069-.04813.0222-.07928.0348-.08211.0333-.13308.0542-.20669.089-.03539.0153-.0722.0292-.08211.0292-.0085 0-.01558.0055-.01558.0139 0 .0069-.0099.0139-.02123.0139s-.05804.0181-.10193.0403c-.41055.1989-.53089.2601-.55212.2782-.00991.0084-.02124.0153-.0269.0153-.00425 0-.0722.0376-.15007.0835-.07645.0459-.14298.0834-.14723.0834-.01133 0-.09768.0612-.10193.0724-.00283.0069-.01416.0111-.02407.0111s-.05521.0278-.10193.0598c-.0453.0334-.08919.064-.09627.0668-.04105.0167-.1628.1001-.1628.1112 0 .007-.00566.0126-.01274.0126-.01133 0-.19537.1279-.27748.1905-.00708.007-.05521.0431-.10476.0807-.05097.0389-.10193.0793-.11609.0904-.01274.0111-.07503.064-.14015.1182-.06371.0529-.13874.1183-.16422.1433-.0269.0236-.0538.0445-.05946.0445-.01275 0-.58469.5703-.70644.7038-.04813.0529-.10901.1224-.13449.1558-.02548.032-.05097.0584-.05663.0584s-.01132.007-.01132.0153c0 .0097-.01416.0292-.03115.0459-.04247.039-.13874.1558-.13874.1683 0 .0042-.01557.025-.03539.0459-.0538.057-.21943.2796-.21943.2949 0 .0083-.00425.0139-.00991.0139-.00708 0-.02124.0167-.03398.0389-.01274.0209-.06654.0974-.1175.1697-.05097.0724-.09344.1391-.09344.1475 0 .0097-.00425.0194-.00991.0222-.01699.007-.07503.0918-.07503.1085 0 .007-.00567.0139-.01274.0139-.00708 0-.01841.0139-.02407.0306-.00425.0181-.02548.0571-.04672.0877-.01982.0306-.04955.0806-.06512.1112s-.03256.0585-.03681.0626c-.01416.0112-.1175.2003-.22085.402-.09485.1864-.09627.1864-.10759.1391-.05946-.2323-.08211-1.448-.03398-1.8972.03964-.3742.0538-.4855.06654-.5091.00566-.0111.01557-.0709.02123-.1321.00567-.0599.01558-.1169.02266-.1238.00566-.0084.01557-.0585.02123-.1113.00566-.0543.01416-.1043.01982-.1113.00566-.0083.01557-.0528.02124-.1015.00566-.0473.01557-.089.02123-.0932s.01557-.0403.02124-.0807c.00566-.0389.01557-.0793.02123-.0862.00567-.0084.01558-.0404.02124-.0723.00566-.0334.01415-.0626.02123-.0668.00567-.0042.01558-.039.02124-.0765.00566-.0376.01416-.0723.02123-.0765.00567-.0042.01558-.0348.01982-.0696.00567-.0333.01558-.0653.02266-.0695.00707-.0042.01698-.0362.02265-.0696.00424-.0347.01415-.0667.02123-.0709s.01274-.0181.01274-.0306.00991-.0417.02124-.0626c.01132-.0208.02407-.0598.02973-.0862.00425-.0264.01416-.0487.01982-.0487s.01557-.0223.02123-.0501c.00425-.0278.01416-.0612.02124-.0737.0269-.0487.05663-.1182.05663-.1307 0-.007.00991-.0348.02265-.0626.01132-.0292.03114-.0724.04105-.0974.02973-.0668.05522-.1224.11184-.2406.02832-.0584.05097-.1127.05097-.1224 0-.0084.00708-.0153.01416-.0153.00849 0 .01415-.0056.01415-.0139 0-.0223.06088-.153.0722-.153.00567 0 .01416-.01673.01982-.03759.00425-.02087.01416-.04173.01841-.0459.00566-.00418.02831-.04173.04955-.08346.02123-.04173.05804-.10849.08069-.14605.02407-.03894.04955-.08623.05805-.10849.00849-.02086.01982-.03755.02689-.03755.00567 0 .01416-.01113.01982-.02504.00425-.01252.02124-.04312.03681-.06537.01558-.02365.0354-.05703.04531-.0765.00991-.01948.02406-.04173.03256-.05008.00707-.00834.02689-.03755.04247-.06537.01557-.02782.03256-.05146.03822-.05146.00708 0 .01133-.00696.01133-.01391 0-.01391.05238-.0932.0722-.11128.00424-.00417.02265-.03199.04105-.06259.01841-.0306.03681-.05842.04106-.06259.00566-.00417.02973-.03895.05663-.0765.02689-.03895.05521-.0765.0637-.08346.0085-.00834.03681-.0459.06371-.08345.0269-.03895.05521-.0765.06512-.08346.0085-.00834.04955-.05703.08919-.10988.04106-.05146.08211-.10293.09202-.11266.00991-.00974.06512-.07233.12317-.14049.13874-.15856.62432-.63982.77863-.76918.06654-.05564.14582-.1224.17697-.14883.03114-.02642.09768-.08067.14864-.11962.05097-.04033.09486-.0765.0991-.08067.00425-.00417.03256-.02504.06513-.0459.03114-.02086.06936-.04868.08494-.06259.10193-.08763.68803-.46179.72484-.46179.00849 0 .01698-.00556.01982-.01113.00566-.01251.11608-.07789.2166-.12796.03964-.01947.07362-.03895.07786-.04451.00425-.00417.02548-.01391.04672-.01808.02124-.00557.03822-.0153.03822-.02087 0-.00556.01699-.0153.03823-.02086.02123-.00417.04247-.01391.04672-.01808.01274-.01808.12599-.07233.14723-.07233.01274 0 .02265-.00556.02265-.01391 0-.00695.01699-.01808.03681-.02225.02123-.00557.07362-.02782.1175-.04869.04389-.02225.08919-.04033.10052-.04033.01132 0 .03397-.00974.04813-.02087.01557-.01113.03964-.02086.0538-.02086.01415 0 .02548-.00696.02548-.01391 0-.00835.01133-.01391.02548-.01391.01274-.00139.04955-.01252.0807-.02782.03114-.0153.06795-.02643.08211-.02782.01274 0 .02407-.00556.02407-.01252 0-.00695.02548-.01669.05662-.02225.03115-.00556.05946-.01391.06371-.02086.00425-.00696.03256-.0153.06371-.02087.03114-.00556.05946-.01391.0637-.02086.00425-.00696.03256-.0153.06371-.02087.03114-.00556.05946-.0139.06371-.02086.00424-.00695.03256-.0153.0637-.02086.03115-.00557.05946-.01391.06371-.02087.00425-.00695.03398-.0153.06795-.02086.03256-.00556.06654-.0153.07362-.02086.01416-.01113.08777-.02782.25199-.05842.04389-.00835.0807-.01948.0807-.02504s.03822-.01391.08494-.01947c.04672-.00557.08777-.0153.09061-.02087.00424-.00695.05238-.0153.10759-.02086.0538-.00556.10193-.0153.10476-.02086.00425-.00696.05663-.0153.11609-.02087.05946-.00556.1175-.0153.13024-.02225.03256-.01669.29447-.04312.80269-.07789.2095-.01531.7433-.0167 1.0476-.00279.1246.00696.4092.0153.6343.02087l.4063.00834v-1.91391c0-1.05432.0042-1.9153.0099-1.9153.0042 0 .0311.01669.0594.03756z" mask="url(#a)" stroke="#fff" stroke-width=".4"/></svg>