<svg width="58" height="105" viewBox="0 0 58 105" fill="none" xmlns="http://www.w3.org/2000/svg">
<g clip-path="url(#clip0_762_1133)">
<mask id="mask0_762_1133" style="mask-type:luminance" maskUnits="userSpaceOnUse" x="0" y="0" width="58" height="105">
<path d="M0.411621 0.877141H57.1419V104.895H0.411621V0.877141Z" fill="white"/>
</mask>
<g mask="url(#mask0_762_1133)">
<path d="M57.1419 104.895H0.411621V29.2423C0.411621 13.5767 13.1112 0.877141 28.7768 0.877141C44.4423 0.877141 57.1419 13.5767 57.1419 29.2423V104.895Z" fill="#FF7434"/>
<path d="M52.1645 53.5802H5.38745C5.38745 65.5516 14.3838 75.4157 25.9833 76.7968V104.895H31.5687V76.7968C43.1682 75.4157 52.1645 65.5516 52.1645 53.5802Z" fill="white"/>
<path d="M44.4113 47.9664C41.9967 50.381 38.0823 50.381 35.6681 47.9664C33.2535 45.5519 33.2535 41.6375 35.6681 39.2233C38.0823 36.8087 41.9967 36.8087 44.4113 39.2233C46.8258 41.6375 46.8258 45.5519 44.4113 47.9664Z" fill="white"/>
</g>
</g>
<defs>
<clipPath id="clip0_762_1133">
<rect width="56.7303" height="104.018" fill="white" transform="translate(0.411621 0.876953)"/>
</clipPath>
</defs>
</svg>
