<svg width="58" height="105" viewBox="0 0 58 105" fill="none" xmlns="http://www.w3.org/2000/svg">
<g clip-path="url(#clip0_762_1118)">
<mask id="mask0_762_1118" style="mask-type:luminance" maskUnits="userSpaceOnUse" x="0" y="0" width="58" height="105">
<path d="M0.964844 0.877141H57.6951V104.895H0.964844V0.877141Z" fill="white"/>
</mask>
<g mask="url(#mask0_762_1118)">
<path d="M57.6951 104.895H0.964844V29.2423C0.964844 13.5767 13.6644 0.877141 29.33 0.877141C44.9956 0.877141 57.6951 13.5767 57.6951 29.2423V104.895Z" fill="#F3BB44"/>
<path d="M36.2642 90.9922H20.3582C16.6778 90.9922 13.6946 88.0086 13.6946 84.3286V62.9243H42.9278V84.3286C42.9278 88.0086 39.9445 90.9922 36.2642 90.9922Z" fill="white"/>
<path d="M41.1375 81.2511C42.2026 81.9707 43.4864 82.3906 44.8686 82.3906C48.5542 82.3906 51.542 79.4031 51.542 75.7172C51.542 72.0315 48.5542 69.0437 44.8686 69.0437C43.4187 69.0437 42.0771 69.5063 40.9827 70.2915" stroke="white" stroke-width="3.87849" stroke-miterlimit="10"/>
<path d="M27.49 57.5088C32.8225 45.5708 14.5665 41.431 30.6178 31.5204C23.9834 44.1611 45.3839 46.6525 27.49 57.5088Z" fill="white"/>
</g>
</g>
<defs>
<clipPath id="clip0_762_1118">
<rect width="56.7303" height="104.018" fill="white" transform="translate(0.964844 0.876953)"/>
</clipPath>
</defs>
</svg>
