<svg width="57" height="105" viewBox="0 0 57 105" fill="none" xmlns="http://www.w3.org/2000/svg">
<g clip-path="url(#clip0_762_1173)">
<mask id="mask0_762_1173" style="mask-type:luminance" maskUnits="userSpaceOnUse" x="0" y="0" width="57" height="105">
<path d="M0.187988 0.895208H56.9183V104.913H0.187988V0.895208Z" fill="white"/>
</mask>
<g mask="url(#mask0_762_1173)">
<path d="M56.9183 104.913H0.187988V29.2603C0.187988 13.5948 12.8876 0.895208 28.5531 0.895208C44.2187 0.895208 56.9183 13.5948 56.9183 29.2603V104.913Z" fill="#72DFFC"/>
<path d="M44.0228 57.4854V47.9908C44.0228 41.8656 37.0969 36.9001 28.5529 36.9001C20.0093 36.9001 13.0834 41.8656 13.0834 47.9908V57.4854H7.40283V88.1519H13.0834V68.2922C13.0834 72.8209 16.8713 76.7128 22.298 78.4355V53.2208C22.298 50.7438 25.0983 48.7358 28.5529 48.7362C32.008 48.7362 34.8082 50.7438 34.8082 53.2208V78.4355C40.2349 76.7128 44.0228 72.8209 44.0228 68.2922V88.1519H49.7034V57.4854H44.0228Z" fill="white"/>
<path d="M33.4723 54.2971C33.4723 58.3208 31.3257 58.3208 31.3257 62.3446C31.3257 66.3684 33.4723 66.3684 33.4723 70.3918C33.4723 74.4159 31.3257 74.4159 31.3257 78.4396C31.3257 82.4641 33.4723 82.4641 33.4723 86.4885C33.4723 90.513 31.3257 90.513 31.3257 94.5371" stroke="white" stroke-width="1.05777" stroke-miterlimit="10"/>
<path d="M29.8267 54.2971C29.8267 58.3208 27.6802 58.3208 27.6802 62.3446C27.6802 66.3684 29.8267 66.3684 29.8267 70.3918C29.8267 74.4159 27.6802 74.4159 27.6802 78.4396C27.6802 82.4641 29.8267 82.4641 29.8267 86.4885C29.8267 90.513 27.6802 90.513 27.6802 94.5371" stroke="white" stroke-width="1.05777" stroke-miterlimit="10"/>
<path d="M25.7813 54.2971C25.7813 58.3208 23.6348 58.3208 23.6348 62.3446C23.6348 66.3684 25.7813 66.3684 25.7813 70.3918C25.7813 74.4159 23.6348 74.4159 23.6348 78.4396C23.6348 82.4641 25.7813 82.4641 25.7813 86.4885C25.7813 90.513 23.6348 90.513 23.6348 94.5371" stroke="white" stroke-width="1.05777" stroke-miterlimit="10"/>
</g>
</g>
<defs>
<clipPath id="clip0_762_1173">
<rect width="56.7303" height="104.018" fill="white" transform="translate(0.187988 0.89502)"/>
</clipPath>
</defs>
</svg>
