<svg width="58" height="105" viewBox="0 0 58 105" fill="none" xmlns="http://www.w3.org/2000/svg">
<g clip-path="url(#clip0_762_1146)">
<mask id="mask0_762_1146" style="mask-type:luminance" maskUnits="userSpaceOnUse" x="0" y="0" width="58" height="105">
<path d="M0.858154 0.877141H57.5885V104.895H0.858154V0.877141Z" fill="white"/>
</mask>
<g mask="url(#mask0_762_1146)">
<path d="M57.5885 104.895H0.858154V29.2423C0.858154 13.5767 13.5577 0.877141 29.2233 0.877141C44.8889 0.877141 57.5885 13.5767 57.5885 29.2423V104.895Z" fill="#7740BA"/>
<path d="M15.2332 82.1709L16.8072 79.9344L13.6924 75.4128L16.8072 70.8915L13.6924 66.3706L16.8072 61.8497L13.6924 57.3274L16.8072 52.8033L13.6924 48.281L16.8072 43.7555L15.2339 41.5166" stroke="white" stroke-width="2.82072" stroke-miterlimit="10"/>
<path d="M43.2136 41.5156L41.6396 43.7521L44.7544 48.2737L41.6396 52.795L44.7544 57.3159L41.6396 61.8368L44.7544 66.3591L41.6396 70.8832L44.7544 75.4055L41.6396 79.931L43.2129 82.1699" stroke="white" stroke-width="2.82072" stroke-miterlimit="10"/>
<path d="M47.0647 80.1169V85.5345C47.0647 87.1038 45.7926 88.376 44.2232 88.376H14.2224C12.653 88.376 11.3809 87.1038 11.3809 85.5345V80.1169H47.0647Z" fill="white"/>
<path d="M11.3809 43.5693V38.1518C11.3809 36.5824 12.653 35.3103 14.2224 35.3103H44.2232C45.7926 35.3103 47.0647 36.5824 47.0647 38.1518V43.5693H11.3809Z" fill="white"/>
</g>
</g>
<defs>
<clipPath id="clip0_762_1146">
<rect width="56.7303" height="104.018" fill="white" transform="translate(0.858154 0.876953)"/>
</clipPath>
</defs>
</svg>
