<svg width="58" height="105" viewBox="0 0 58 105" fill="none" xmlns="http://www.w3.org/2000/svg">
<g clip-path="url(#clip0_762_1190)">
<mask id="mask0_762_1190" style="mask-type:luminance" maskUnits="userSpaceOnUse" x="0" y="0" width="58" height="105">
<path d="M0.634766 0.895208H57.3651V104.913H0.634766V0.895208Z" fill="white"/>
</mask>
<g mask="url(#mask0_762_1190)">
<path d="M57.3651 104.913H0.634766V29.2603C0.634766 13.5948 13.3343 0.895208 28.9999 0.895208C44.6655 0.895208 57.3651 13.5948 57.3651 29.2603V104.913Z" fill="#00D697"/>
<path d="M37.8008 56.8936C44.8956 56.8935 50.6474 51.1417 50.6475 44.0469C50.6475 36.952 44.8956 31.2002 37.8008 31.2002C30.7056 31.2002 24.9541 36.9521 24.9541 44.0469C24.9541 51.1417 30.7056 56.8935 37.8008 56.8936Z" fill="white"/>
<path d="M16.8487 43.5534L10.4087 61.9448H23.2888L16.8487 43.5534Z" fill="white"/>
<path d="M25.2771 63.3555L16.8488 39.286L8.42065 63.3555H25.2771ZM16.8488 47.8212L21.3005 60.5345H12.3971L16.8488 47.8212Z" fill="white"/>
<path d="M18.2592 73.1978V62.4845H15.4382V73.1978H18.2592Z" fill="white"/>
<path d="M39.2113 73.1978V55.4826H36.3904V73.1978H39.2113Z" fill="white"/>
<path d="M51.5264 74.6084V71.7874H6.47388V74.6084H51.5264Z" fill="white"/>
</g>
</g>
<defs>
<clipPath id="clip0_762_1190">
<rect width="56.7303" height="104.018" fill="white" transform="translate(0.634766 0.89502)"/>
</clipPath>
</defs>
</svg>
