<svg fill="none" height="655" viewBox="0 0 450 655" width="450" xmlns="http://www.w3.org/2000/svg" xmlns:xlink="http://www.w3.org/1999/xlink"><clipPath id="a"><path d="m0 0h450v655h-450z"/></clipPath><g clip-path="url(#a)"><path d="m172.475 426.613-.106-.018-24.254-5.536c-102.3419-29.957-165.0931-134.536-141.79095-239.883l397.98795 90.793c-24.693 105.043-126.617 172.064-231.837 154.644z" stroke="#212322" stroke-width="2.76639"/><path d="m372.694 285.914c-19.273 84.486-111.892 135.406-206.871 113.745-94.9798-21.67-156.34762-107.723-137.0659-192.209z" fill="#ff690e"/><path d="m375.237 174.188-235.272 147.854" stroke="#212322" stroke-miterlimit="10" stroke-width="2.76639"/><path d="m306.888 262.251c25.902 0 46.899-20.997 46.899-46.899s-20.997-46.9-46.899-46.9-46.9 20.998-46.9 46.9 20.998 46.899 46.9 46.899z" fill="#00e9a4"/><path d="m227.466 312.166c25.902 0 46.9-20.997 46.9-46.899s-20.998-46.9-46.9-46.9-46.9 20.998-46.9 46.9 20.998 46.899 46.9 46.899z" fill="#00e9a4"/><path d="m328.505 236.275c7.995 0 14.477-6.482 14.477-14.477 0-7.996-6.482-14.478-14.477-14.478-7.996 0-14.478 6.482-14.478 14.478 0 7.995 6.482 14.477 14.478 14.477z" fill="#ff690e"/><path d="m247.153 287.398c7.996 0 14.478-6.482 14.478-14.477 0-7.996-6.482-14.478-14.478-14.478-7.995 0-14.477 6.482-14.477 14.478 0 7.995 6.482 14.477 14.477 14.477z" fill="#ff690e"/><path d="m119.918 121.774c-20.0012 5.386-35.6221 21.006-40.9982 40.998-5.3852-20.001-21.0061-35.622-40.9979-40.998 20.001-5.385 35.6219-21.006 40.9979-40.9976 5.3853 20.0006 21.0062 35.6216 40.9982 40.9976z" fill="#212322"/><path d="m450.133 217.759c-11.518 3.098-20.518 12.098-23.625 23.625-3.099-11.518-12.099-20.518-23.625-23.625 11.517-3.099 20.517-12.099 23.625-23.625 3.098 11.517 12.098 20.517 23.625 23.625z" fill="#212322"/><g stroke="#212322" stroke-miterlimit="10" stroke-width="2.76639"><path d="m246.154 46.9991c-20.185 5.4313-35.944 21.1998-41.376 41.376-5.431-20.1855-21.199-35.9447-41.376-41.376 20.186-5.4314 35.945-21.1998 41.376-41.37605 5.432 20.18545 21.2 35.94465 41.376 41.37605z"/><path d="m147.762 422.39-54.2308 221.237"/><path d="m169.358 426.466-54.221 221.228"/></g></g></svg>