<svg fill="none" height="590" viewBox="0 0 450 590" width="450" xmlns="http://www.w3.org/2000/svg"><path d="m2 205v331.093c0 28.117 23.8558 50.907 53.2885 50.907h218.4235c29.432 0 53.288-22.79 53.288-50.907v-331.093" stroke="#000" stroke-miterlimit="10" stroke-width="3"/><path d="m1.25 403.161v-217.895h326.343v38.609 1.553l1.517-.332c6.506-1.424 13.194-2.21 19.978-2.296v.002h1.25c54.263 0 98.412 44.181 98.412 98.487 0 54.307-44.149 98.488-98.412 98.488-7.446 0-14.798-.839-21.936-2.462l-1.39-.316-.131 1.42c-7.688 83.029-77.491 148.037-162.46 148.037-90.1199 0-163.171-73.114-163.171-163.295zm349.088-28.099h1.25v-.024c29.056-.667 52.482-24.525 52.482-53.758 0-29.651-24.101-53.772-53.732-53.772-7.687 0-15.147 1.604-22.009 4.7l-.736.332v.807 95.866.808l.736.332c6.871 3.094 14.34 4.709 22.009 4.709z" fill="#fff" stroke="#000" stroke-width="2.5"/><g stroke-miterlimit="10"><path d="m140.234 143c39.902-63.8509-96.7079-85.9898 23.407-139-49.65 67.6097 110.497 80.9344-23.407 139z" stroke="#000" stroke-width="3"/><path d="m289.176 40.5312v50.4827" stroke="#ff7434" stroke-width="3"/><path d="m271.336 47.9258 35.677 35.6948" stroke="#ff7434" stroke-width="3"/><path d="m307.013 47.9258-35.677 35.6948" stroke="#ff7434" stroke-width="3"/><path d="m314.403 65.7734h-50.454" stroke="#ff7434" stroke-width="3"/><path d="m42.293 120.758v35.695" stroke="#ff7434" stroke-width="3"/><path d="m29.6875 125.988 25.2223 25.242" stroke="#ff7434" stroke-width="3"/><path d="m54.9098 125.988-25.2223 25.242" stroke="#ff7434" stroke-width="3"/><path d="m60.1382 138.605h-35.6773" stroke="#ff7434" stroke-width="2"/></g><path d="m164.593 525.865c-71.336 0-129.1594-57.867-129.1594-129.257v-129.558c33.9505-24.335 79.0264-26.394 115.0434-5.241l19.777 11.615c29.148 17.12 64.731 19.254 95.709 5.741l27.779-12.115v129.558c0 71.39-57.823 129.257-129.159 129.257z" fill="#fdb814"/><path d="m293.75 267.05c-33.95-24.335-79.026-26.394-115.043-5.241l-19.777 11.615c-29.148 17.12-64.731 19.254-95.7092 5.741l-27.7794-12.115" stroke="#000" stroke-miterlimit="10" stroke-width="3"/></svg>