<svg fill="none" height="598" viewBox="0 0 450 598" width="450" xmlns="http://www.w3.org/2000/svg" xmlns:xlink="http://www.w3.org/1999/xlink"><mask id="a" height="312" maskUnits="userSpaceOnUse" width="308" x="71" y="195"><path d="m378.198 195.133c0 60.656-68.592 109.83-153.198 109.83-84.607 0-153.1992-49.174-153.1992-109.83v201.054c0 60.657 68.5922 109.83 153.1992 109.83 84.606 0 153.198-49.173 153.198-109.83v-201.045z" fill="#fff"/></mask><path d="m225 306.984c84.609 0 153.198-49.172 153.198-109.83 0-60.657-68.589-109.8298-153.198-109.8298-84.61 0-153.1992 49.1728-153.1992 109.8298 0 60.658 68.5892 109.83 153.1992 109.83z" fill="#ff7434"/><path clip-rule="evenodd" d="m361.437 247.157c-25.378 35.518-76.948 59.827-136.437 59.827-59.493 0-111.065-24.311-136.4414-59.832 25.3774-35.519 76.9474-59.828 136.4374-59.828 59.492 0 111.065 24.312 136.441 59.833z" fill="#72dffc" fill-rule="evenodd"/><path d="m225 306.213c42.535 0 81.096-12.359 109.055-32.403 21.753-15.595 37.137-35.887 42.893-58.651v181.028c0 29.822-16.859 56.937-44.35 76.645-27.488 19.707-65.526 31.935-107.598 31.935s-80.111-12.228-107.599-31.935c-27.4908-19.708-44.3502-46.823-44.3502-76.645v-181.028c5.7561 22.764 21.14 43.056 42.8932 58.651 27.959 20.044 66.521 32.403 109.056 32.403z" fill="#fff" stroke="#000" stroke-width="2.5"/><path d="m71.8019 291.188h-56.2511v303.698h56.2511z" fill="#ff7434"/><path d="m434.443 291.188h-56.252v303.698h56.252z" fill="#ff7434"/><g stroke-miterlimit="10" stroke-width="3"><path d="m1.5 308.486h12.5456v18.062h-12.5456z" fill="#ff7434" stroke="#000"/><path d="m435.953 308.486h12.546v18.062h-12.546z" fill="#ff7434" stroke="#000"/><g mask="url(#a)" stroke="#000"><path d="m378.198 267.902c0 60.657-68.592 109.83-153.198 109.83-84.607 0-153.1992-49.173-153.1992-109.83"/><path d="m378.198 345.207c0 60.657-68.592 109.83-153.198 109.83-84.607 0-153.1992-49.173-153.1992-109.83"/></g><path d="m116.184 345.207 5.886 81.357" stroke="#000"/><path d="m332.824 345.207-5.886 81.357" stroke="#000"/><path d="m36.0898 2c14.4442 0 14.4442 13.5956 28.8794 13.5956s14.4442-13.5956 28.8794-13.5956c14.4354 0 14.4444 13.5956 28.8884 13.5956s14.444-13.5956 28.888-13.5956c14.445 0 14.445 13.5956 28.889 13.5956" stroke="#72dffc"/><path d="m36.0898 25.084c14.4442 0 14.4442 13.5956 28.8794 13.5956s14.4442-13.5956 28.8794-13.5956c14.4354 0 14.4444 13.5956 28.8884 13.5956s14.444-13.5956 28.888-13.5956c14.445 0 14.445 13.5956 28.889 13.5956" stroke="#72dffc"/><path d="m36.0898 50.6934c14.4442 0 14.4442 13.5956 28.8794 13.5956s14.4442-13.5956 28.8794-13.5956c14.4354 0 14.4444 13.5956 28.8884 13.5956s14.444-13.5956 28.888-13.5956c14.445 0 14.445 13.5956 28.889 13.5956" stroke="#72dffc"/><path d="m324.965 61.5312c10.95 0 10.95 10.3006 21.892 10.3006 10.941 0 10.95-10.3006 21.892-10.3006 10.941 0 10.95 10.3006 21.892 10.3006 10.941 0 10.95-10.3006 21.901-10.3006 10.95 0 10.95 10.3006 21.901 10.3006" stroke="#72dffc"/><path d="m324.965 79.0371c10.95 0 10.95 10.3005 21.892 10.3005 10.941 0 10.95-10.3005 21.892-10.3005 10.941 0 10.95 10.3005 21.892 10.3005 10.941 0 10.95-10.3005 21.901-10.3005 10.95 0 10.95 10.3005 21.901 10.3005" stroke="#72dffc"/><path d="m324.965 98.4453c10.95 0 10.95 10.3007 21.892 10.3007 10.941 0 10.95-10.3007 21.892-10.3007 10.941 0 10.95 10.3007 21.892 10.3007 10.941 0 10.95-10.3007 21.901-10.3007 10.95 0 10.95 10.3007 21.901 10.3007" stroke="#72dffc"/><path d="m248.732 279.002c0 31.597-10.834 31.597-10.834 63.184 0 31.597 10.834 31.597 10.834 63.194 0 31.596-10.834 31.596-10.834 63.193s10.834 31.597 10.834 63.193c0 31.597-10.834 31.597-10.834 63.194" stroke="#72dffc"/><path d="m225.65 279.002c0 31.597-10.834 31.597-10.834 63.184 0 31.597 10.834 31.597 10.834 63.194 0 31.596-10.834 31.596-10.834 63.193s10.834 31.597 10.834 63.193c0 31.597-10.834 31.597-10.834 63.194" stroke="#72dffc"/><path d="m200.036 279.002c0 31.597-10.833 31.597-10.833 63.184 0 31.597 10.833 31.597 10.833 63.194 0 31.596-10.833 31.596-10.833 63.193s10.833 31.597 10.833 63.193c0 31.597-10.833 31.597-10.833 63.194" stroke="#72dffc"/></g></svg>