<svg fill="none" height="513" viewBox="0 0 450 513" width="450" xmlns="http://www.w3.org/2000/svg"><path d="m224.497 102.76-222.497-100.80102v420.08602l222.497-50.963z" fill="#ff50bb" stroke="#fff" stroke-miterlimit="10" stroke-width="1.3656"/><path d="m224.496 102.76 222.505-100.80102v420.08602l-222.505-50.963z" fill="#ff50bb" stroke="#fff" stroke-miterlimit="10" stroke-width="1.3656"/><path d="m197.135 34.0736c5.417 2.8791 11.577 4.188 17.699 3.5555 14.724-1.4566 28.476 9.9711 29.321 24.9191.421 7.4327-2.322 14.4551-7.303 19.9138 7.345 28.392 26.619 152.279 28.916 181.421 2.917 41.475-3.026 81.121 0 122.158.645 8.743 2.095 16.813 4.298 22.998 1.607 4.508 4.223 10.417 9.247 11.945 8.556 2.604 15.586 10.796 21.226 17.368l.189.221c4.614 5.373 8.347 10.484 10.113 12.985h-140.827c.306-7.409 3.697-14.531 8.073-20.41 10.284-13.827 17.458-33.709 10.495-50.489-6.875-16.569-23.314-27.233-37.893-36.392-29.194-18.351-51.3804-43.821-51.3804-80.384 0-33.422 17.9934-53.022 34.2064-63.926l57.381-135.4525c.174-.8672.185-1.8259.185-2.7088l-.081-24.5691v-.0011c-.012-2.9068 3.086-4.7745 5.651-3.4097l.482.2571z" fill="#fff" stroke="#000" stroke-width="2.04673"/><path d="m162.819 180.303s-47.249 57.499 35.511 118.97c28.195 20.943 61.23 34.345 95.913 39.877 12.863 2.05 26.113 3.649 35.141 3.416 23.355-.611 39.949 54.091 39.949 54.091l47.94-12.293s-44.869-136.448-106.332-183.158c-33.405-25.389-101.412-60.852-148.13-20.895z" fill="#fff" stroke="#000" stroke-miterlimit="10" stroke-width="2.0484"/><path d="m422.688 489.659v-18.54h-21.683v-18.539h-352.2637v18.539h-21.6829v18.54h-22.8084v18.539h441.239v-18.539z" fill="#72dffc"/><path d="m227.114 452.58v18.539h-17.977v18.54h-20.895v18.539" stroke="#000" stroke-miterlimit="10" stroke-width="2.0484"/></svg>