<svg fill="none" height="513" viewBox="0 0 450 513" width="450" xmlns="http://www.w3.org/2000/svg"><path d="m224.497 102.76-222.497-100.80102v420.08602l222.497-50.963z" fill="#ff50bb" stroke="#fff" stroke-miterlimit="10" stroke-width="1.3656"/><path d="m224.496 102.76 222.505-100.80102v420.08602l-222.505-50.963z" fill="#ff50bb" stroke="#fff" stroke-miterlimit="10" stroke-width="1.3656"/><path d="m248.89 169.338-.054-.685c-2.051-26.181-5.768-62.236-11.845-85.6534l-.139-.5373.374-.4099c4.647-5.0879 7.355-11.9766 6.929-19.5039-.75-13.2706-11.499-24.1059-24.756-24.9966-1.55-.1007-3.077-.0697-4.565.0775-6.122.6325-12.282-.6764-17.699-3.5555l-.002-.0007-.481-.2569c-.001 0-.001-.0001-.001-.0002-2.565-1.3648-5.663.5029-5.651 3.4097v.0011l.081 24.5691v.0447l-.004.0445c-.062.7423-.101 1.4847-.101 2.2215v.2072l-.08.1909-57.009 135.0012-.119.281-.253.17c-16.213 10.904-34.2065 30.504-34.2065 63.926 0 30.373 13.4945 50.09 28.7025 63.778 7.616 6.855 15.662 12.196 22.678 16.606 1.345.845 2.657 1.658 3.924 2.444 5.286 3.278 9.786 6.07 12.585 8.613.852.775 1.758 1.577 2.699 2.41 6.424 5.689 14.501 12.842 18.685 22.925 4.847 11.682 4.422 27.091-8.911 48.489l-.046.074zm0 0 .653.21m-.653-.21.653.21m0 0c23.841 7.672 45.807 21.08 60.787 32.465 30.515 23.191 57.011 68.772 75.909 108.719 9.436 19.945 16.955 38.436 22.115 51.94 2.58 6.752 4.57 12.256 5.914 16.071.672 1.907 1.183 3.392 1.526 4.4.061.181.117.346.168.496m-166.419-214.091 166.419 214.091m0 0-45.936 11.779c-.121-.378-.279-.862-.473-1.442-.503-1.504-1.246-3.651-2.211-6.223-1.93-5.143-4.75-12.002-8.309-18.85-3.554-6.838-7.871-13.715-12.807-18.859-4.924-5.129-10.601-8.672-16.86-8.508-8.925.231-22.092-1.354-34.954-3.404-7.09-1.137-14.109-2.609-21.033-4.402l-1.279-.332v1.134c-5.728 13.811-7.614 34.124-6.332 51.509.645 8.743 2.095 16.813 4.298 22.998 1.102 3.091 2.405 5.75 3.918 7.793 1.511 2.039 3.281 3.529 5.329 4.152 3.328 1.013 7.039 3.475 10.778 6.7 3.721 3.21 7.391 7.107 10.637 10.889 3.245 3.779 6.052 7.427 8.049 10.131.842 1.141 1.54 2.112 2.064 2.854h-140.827c.24-5.822 2.482-11.238 4.764-15.305 1.204-2.144 2.407-3.893 3.309-5.105.45-.605.824-1.075 1.084-1.391.129-.158.231-.278.298-.357.034-.04.059-.069.076-.088l.018-.02.004-.005z" fill="#fff" stroke="#000" stroke-width="2.04673"/><path d="m162.819 180.303s-47.249 57.499 35.511 118.97c28.195 20.943 61.23 34.345 95.913 39.877 12.863 2.05 26.113 3.649 35.141 3.416 23.355-.611 39.949 54.091 39.949 54.091l47.94-12.293s-44.869-136.448-106.332-183.158c-33.405-25.389-101.412-60.852-148.13-20.895z" fill="#fff" stroke="#000" stroke-miterlimit="10" stroke-width="2.0484"/><path d="m422.688 489.659v-18.54h-21.683v-18.539h-352.2637v18.539h-21.6829v18.54h-22.8084v18.539h441.239v-18.539z" fill="#72dffc"/><path d="m227.114 452.58v18.539h-17.977v18.54h-20.895v18.539" stroke="#000" stroke-miterlimit="10" stroke-width="2.0484"/></svg>