<svg fill="none" height="477" viewBox="0 0 449 477" width="449" xmlns="http://www.w3.org/2000/svg"><path d="m438.34 339.555c4.783 0 8.661-3.887 8.661-8.681s-3.878-8.681-8.661-8.681-8.66 3.887-8.66 8.681 3.877 8.681 8.66 8.681z" stroke="#fff" stroke-miterlimit="10" stroke-width="1.4092"/><path d="m438.34 339.555c4.783 0 8.661-3.887 8.661-8.681s-3.878-8.681-8.661-8.681-8.66 3.887-8.66 8.681 3.877 8.681 8.66 8.681z" stroke="#fff" stroke-miterlimit="10" stroke-width="1.4092"/><path d="m438.34 339.555c4.783 0 8.661-3.887 8.661-8.681s-3.878-8.681-8.661-8.681-8.66 3.887-8.66 8.681 3.877 8.681 8.66 8.681z" stroke="#fff" stroke-miterlimit="10" stroke-width="1.4092"/><path d="m438.34 339.555c4.783 0 8.661-3.887 8.661-8.681s-3.878-8.681-8.661-8.681-8.66 3.887-8.66 8.681 3.877 8.681 8.66 8.681z" stroke="#000" stroke-miterlimit="10" stroke-width="2.11381"/><path d="m130.354 168.956 29.405-30.58 35.275 11.168 19.543-24.344 33.89 16.15 27.099-20.969 21.364 18.066 24.983-14.226 13.982 23.689 18.179-13.501 7.353 24.986-85.53 271.342s-42.572-3.657-61.44 21.899l-84.117-283.687z" fill="#7a5cff"/><path d="m415.419 189.559-75.967 241.058c-4.089 12.976-17.917 20.178-30.857 16.081l-35.053-11.098 90.783-288.069 35.053 11.098c12.94 4.097 20.131 17.954 16.041 30.93z" fill="#fff" stroke="#000" stroke-width="2.5"/><path d="m222.669 454.323-67.121 20.274-4.997-16.619-.36-1.199-1.198.362-58.7188 17.736c-6.5024 1.964-13.38-1.732-15.3445-8.254h-.0001l-72.81718-242.201c-1.962187-6.526 1.7343-13.422 8.24008-15.387l58.0089-17.522.1635-.049.1442-.091.5-.317.5424-.344.0365-.641.0285-.5.0125-.22-.0635-.211-4.9093-16.329 67.1218-20.274z" fill="#fff" stroke="#000" stroke-width="2.5"/><path d="m59.7832 136.792c6.9068 0 12.5058-5.612 12.5058-12.534 0-6.923-5.599-12.535-12.5058-12.535s-12.5059 5.612-12.5059 12.535c0 6.922 5.5991 12.534 12.5059 12.534z" fill="#000" stroke="#000" stroke-miterlimit="10" stroke-width="2.11381"/><path d="m231.826 16.2742c3.382 0 6.123-2.7477 6.123-6.1371 0-3.38943-2.741-6.1371-6.123-6.1371s-6.123 2.74767-6.123 6.1371c0 3.3894 2.741 6.1371 6.123 6.1371z" fill="#000" stroke="#000" stroke-miterlimit="10" stroke-width="2.11381"/><path d="m145.904 24.3703 6.522 25.39.184.7148.714.1845 25.336 6.5403-25.336 6.5403-.714.1844-.184.7148-6.522 25.3841-6.529-25.3844-.184-.7145-.714-.1844-25.335-6.5403 25.335-6.5403.714-.1845.184-.7146z" fill="#fff" stroke="#000" stroke-width="2.5"/><path d="m330.111 70.3335 4.031 15.6883.052.2014.201.052 15.663 4.0483-15.663 4.0418-.201.052-.052.2014-4.031 15.6883-4.031-15.6883-.052-.2014-.201-.052-15.657-4.0418 15.657-4.0483.201-.052.052-.2014z" fill="#000" stroke="#000" stroke-width=".704602"/><path d="m392.941 403.513 2.23 8.675.147.572.572.148 8.67 2.237-8.67 2.238-.572.148-.147.571-2.23 8.681-2.23-8.681-.147-.571-.571-.148-8.665-2.238 8.665-2.237.571-.148.147-.572z" fill="#fff" stroke="#000" stroke-width="2"/><path d="m90.723 204.513-72.3285 21.846 68.9394 229.302 72.3281-21.846z" fill="#a38fff"/><g stroke-miterlimit="10"><path d="m25.3047 249.281 72.3286-21.849" stroke="#000" stroke-width="2.11381"/><path d="m32.1992 272.209 72.3288-21.85" stroke="#000" stroke-width="2.11381"/><path d="m45.9922 318.072 72.3288-21.857" stroke="#000" stroke-width="2.11381"/><path d="m39.0977 295.137 72.3283-21.85" stroke="#000" stroke-width="2.11381"/><path d="m52.8867 341 72.3283-21.85" stroke="#000" stroke-width="2.11381"/><path d="m66.6797 386.856 72.3283-21.85" stroke="#000" stroke-width="2.11381"/><path d="m59.7812 363.928 72.3288-21.85" stroke="#000" stroke-width="2.11381"/><path d="m73.5703 409.79 72.3357-21.856" stroke="#000" stroke-width="2.11381"/><path d="m80.4648 432.719 72.3352-21.85" stroke="#000" stroke-width="2.11381"/></g><path d="m95.8878 221.687-41.044 12.397 3.4602 11.509 41.044-12.397z" fill="#000"/><path d="m109.677 267.548-41.0442 12.397 3.4603 11.51 41.0439-12.398z" fill="#000"/><path d="m123.474 313.406-41.0443 12.397 3.4602 11.509 41.0441-12.397z" fill="#000"/><path d="m137.255 359.271-41.0441 12.397 3.4603 11.509 41.0438-12.397z" fill="#000"/><path d="m151.048 405.134-41.044 12.397 3.46 11.51 41.044-12.398z" fill="#000"/></svg>