<svg fill="none" height="501" viewBox="0 0 450 501" width="450" xmlns="http://www.w3.org/2000/svg" xmlns:xlink="http://www.w3.org/1999/xlink"><mask id="a" fill="#fff"><path clip-rule="evenodd" d="m224.518 172.433s11.384-7.039 11.384-15.731c0-8.684-11.384-15.731-11.384-15.731s-11.383 7.047-11.383 15.731 11.383 15.731 11.383 15.731zm7.717.001h-15.426c-9.156 0-16.601 7.374-16.741 16.517h-17.58v38.804h19.336v15.319h-83.178-.035l-7.224-54.074h-27.2108l-7.2245 54.074h-.1626v45.835 211.347h41.8569v-211.347h83.178v8.254h45.4v-8.254h83.166v211.347h41.856v-257.182h-.001-.326l-7.097-54.074h-27.208l-7.096 54.074h-.128-83.166v-15.319h19.334v-38.804h-17.582c-.14-9.143-7.585-16.517-16.741-16.517z" fill="#fff" fill-rule="evenodd"/></mask><path clip-rule="evenodd" d="m224.518 172.433s11.384-7.039 11.384-15.731c0-8.684-11.384-15.731-11.384-15.731s-11.383 7.047-11.383 15.731 11.383 15.731 11.383 15.731zm7.717.001h-15.426c-9.156 0-16.601 7.374-16.741 16.517h-17.58v38.804h19.336v15.319h-83.178-.035l-7.224-54.074h-27.2108l-7.2245 54.074h-.1626v45.835 211.347h41.8569v-211.347h83.178v8.254h45.4v-8.254h83.166v211.347h41.856v-257.182h-.001-.326l-7.097-54.074h-27.208l-7.096 54.074h-.128-83.166v-15.319h19.334v-38.804h-17.582c-.14-9.143-7.585-16.517-16.741-16.517z" fill="#fff" fill-rule="evenodd"/><path d="m224.518 172.433-1.316 2.126 1.316.814 1.315-.814zm0-31.462 1.316-2.126-1.316-.815-1.316.815zm-24.45 47.98v2.5h2.462l.038-2.462zm-17.58 0v-2.5h-2.5v2.5zm0 38.804h-2.5v2.5h2.5zm19.336 0h2.5v-2.5h-2.5zm0 15.319v2.5h2.5v-2.5zm-83.213 0-2.478.331.29 2.169h2.188zm-7.224-54.074 2.478-.331-.29-2.169h-2.188zm-27.2108 0v-2.5h-2.1882l-.2898 2.169zm-7.2245 54.074v2.5h2.1882l.2898-2.169zm-.1626 0v-2.5h-2.5v2.5zm0 257.182h-2.5v2.5h2.5zm41.8569 0v2.5h2.5v-2.5zm0-211.347v-2.5h-2.5v2.5zm83.178 0h2.5v-2.5h-2.5zm0 8.254h-2.5v2.5h2.5zm45.4 0v2.5h2.5v-2.5zm0-8.254v-2.5h-2.5v2.5zm83.166 0h2.5v-2.5h-2.5zm0 211.347h-2.5v2.5h2.5zm41.856 0v2.5h2.5v-2.5zm0-257.182h2.5v-2.5h-2.5zm-.327 0-2.479.326.286 2.174h2.193zm-7.097-54.074 2.479-.325-.286-2.175h-2.193zm-27.208 0v-2.5h-2.193l-.285 2.175zm-7.096 54.074v2.5h2.193l.285-2.174zm-83.294 0h-2.5v2.5h2.5zm0-15.319v-2.5h-2.5v2.5zm19.334 0v2.5h2.5v-2.5zm0-38.804h2.5v-2.5h-2.5zm-17.582 0-2.499.038.037 2.462h2.462zm-15.574-32.249c0 3.306-2.222 6.62-4.96 9.357-1.315 1.316-2.64 2.389-3.639 3.134-.498.371-.909.657-1.191.847-.141.094-.249.165-.319.21-.035.022-.06.039-.076.048-.007.005-.012.008-.015.009-.001.001-.001.002-.001.001h.001s0 0 0-.001c.001 0 .002 0 1.316 2.126 1.315 2.126 1.316 2.126 1.316 2.126.001 0 .001-.001.002-.001.001-.001.002-.002.004-.003.003-.001.006-.004.011-.006.008-.006.02-.013.034-.022.028-.017.066-.042.115-.073.096-.062.233-.151.403-.266.341-.229.819-.562 1.388-.986 1.136-.847 2.657-2.077 4.187-3.607 2.955-2.955 6.424-7.507 6.424-12.893zm-8.884-15.731c-1.316 2.125-1.316 2.125-1.317 2.125v-.001c-.001 0-.001 0-.001 0s0 0 .001.001c.003.001.008.004.015.009.015.01.041.026.076.048.07.045.178.116.319.211.282.19.693.476 1.191.847.999.746 2.324 1.82 3.64 3.136 2.738 2.739 4.96 6.053 4.96 9.355h5c0-5.382-3.469-9.934-6.424-12.89-1.53-1.531-3.051-2.761-4.186-3.608-.569-.425-1.047-.758-1.388-.987-.17-.115-.307-.204-.403-.266-.049-.032-.087-.056-.115-.074-.014-.009-.026-.016-.034-.021-.005-.003-.008-.005-.011-.007-.002-.001-.003-.002-.004-.002 0-.001-.001-.001-.001-.001-.001-.001-.002-.001-1.318 2.125zm-8.883 15.731c0-3.302 2.222-6.616 4.96-9.355 1.315-1.316 2.64-2.39 3.64-3.136.497-.371.909-.657 1.191-.847.141-.095.249-.166.319-.211.035-.022.06-.038.075-.048.008-.005.013-.008.015-.009.001-.001.002-.001.002-.001h-.001s-.001.001-.001.001-.001 0-1.317-2.125c-1.316-2.126-1.316-2.126-1.317-2.125 0 0-.001 0-.001.001-.001 0-.003.001-.004.002-.003.002-.007.004-.011.007-.009.005-.02.012-.034.021-.028.018-.066.042-.115.074-.097.062-.233.151-.403.266-.341.229-.819.562-1.388.987-1.135.847-2.656 2.077-4.187 3.608-2.954 2.956-6.423 7.508-6.423 12.89zm8.883 15.731c1.316-2.125 1.317-2.125 1.317-2.125s.001 0 .001.001h.001s-.001 0-.002-.001c-.002-.001-.007-.004-.015-.009-.015-.01-.04-.026-.075-.048-.07-.046-.178-.116-.319-.211-.282-.19-.694-.476-1.191-.847-1-.746-2.325-1.82-3.64-3.136-2.738-2.739-4.96-6.054-4.96-9.355h-5c0 5.382 3.469 9.934 6.423 12.889 1.531 1.531 3.052 2.762 4.187 3.609.569.425 1.047.758 1.388.987.17.115.306.204.403.266.049.031.087.056.115.074.014.008.025.016.034.021.004.003.008.005.011.007.001.001.003.001.004.002 0 0 .001.001.001.001.001 0 .001.001 1.317-2.125zm-7.709 2.501h15.426v-5h-15.426zm-14.241 14.055c.119-7.784 6.458-14.055 14.241-14.055v-5c-10.529 0-19.08 8.477-19.241 18.979zm-20.08 2.462h17.58v-5h-17.58zm2.5 36.304v-38.804h-5v38.804zm16.836-2.5h-19.336v5h19.336zm2.5 17.819v-15.319h-5v15.319zm-85.678 2.5h83.178v-5h-83.178zm-.035 0h.035v-5h-.035zm-9.702-56.243 7.224 54.074 4.956-.662-7.224-54.074zm-24.7328 2.169h27.2108v-5h-27.2108zm-4.7465 51.905 7.2245-54.074-4.956-.662-7.2245 54.074zm-2.6406 2.169h.1626v-5h-.1626zm2.5 43.335v-45.835h-5v45.835zm0 211.347v-211.347h-5v211.347zm39.3569-2.5h-41.8569v5h41.8569zm-2.5-208.847v211.347h5v-211.347zm85.678-2.5h-83.178v5h83.178zm2.5 10.754v-8.254h-5v8.254zm42.9-2.5h-45.4v5h45.4zm-2.5-5.754v8.254h5v-8.254zm85.666-2.5h-83.166v5h83.166zm2.5 213.847v-211.347h-5v211.347zm39.356-2.5h-41.856v5h41.856zm-2.5-254.682v257.182h5v-257.182zm2.499 2.5h.001v-5h-.001zm-.326 0h.326v-5h-.326zm-9.576-56.249 7.097 54.075 4.958-.651-7.097-54.074zm-24.729 2.175h27.208v-5h-27.208zm-4.618 51.9 7.097-54.075-4.957-.65-7.097 54.074zm-2.606 2.174h.128v-5h-.128zm-83.166 0h83.166v-5h-83.166zm-2.5-17.819v15.319h5v-15.319zm21.834-2.5h-19.334v5h19.334zm-2.5-36.304v38.804h5v-38.804zm-15.082 2.5h17.582v-5h-17.582zm-16.741-16.517c7.783 0 14.122 6.271 14.242 14.055l4.999-.076c-.161-10.502-8.712-18.979-19.241-18.979z" fill="#000" mask="url(#a)"/><path d="m76.7891 359.033h10.5038v.525c0 5.649 4.5662 10.225 10.2027 10.225 5.6364 0 10.2024-4.576 10.2024-10.225v-.525h10.948" fill="#fff"/><path d="m76.7891 359.033h10.5038v.525c0 5.649 4.5662 10.225 10.2027 10.225 5.6364 0 10.2024-4.576 10.2024-10.225v-.525h10.948" stroke="#000" stroke-miterlimit="10" stroke-width="2.5"/><path d="m330.391 359.033h10.503v.525c0 5.649 4.567 10.225 10.203 10.225 5.637 0 10.203-4.576 10.203-10.225v-.525h10.948" fill="#fff"/><path d="m330.391 359.033h10.503v.525c0 5.649 4.567 10.225 10.203 10.225 5.637 0 10.203-4.576 10.203-10.225v-.525h10.948" stroke="#000" stroke-miterlimit="10" stroke-width="2.5"/><path d="m76.7266 288.907h10.0282v-5.895h21.8002v5.895h10.029" fill="#fff"/><path d="m76.7266 288.907h10.0282v-5.895h21.8002v5.895h10.029" stroke="#000" stroke-miterlimit="10" stroke-width="2.5"/><path d="m330.391 288.907h10.028v-5.895h21.8v5.895h10.029" fill="#fff"/><g stroke="#000" stroke-miterlimit="10" stroke-width="2.5"><path d="m330.391 288.907h10.028v-5.895h21.8v5.895h10.029"/><path d="m97.7244 453.943h-10.8924l5.4462-23.708 5.4462-23.708 5.4386 23.708 5.446 23.708z" fill="#fff"/><path d="m351.353 453.943h-10.884l5.446-23.708 5.438-23.708 5.446 23.708 5.438 23.708z" fill="#fff"/></g><path d="m118.656 288.908v27.291l.175-.452c4.661-11.918 13.778-21.547 25.415-26.839z" fill="#755efa"/><path d="m330.387 288.908v27.291l-.175-.452c-4.661-11.918-13.778-21.547-25.415-26.839z" fill="#755efa"/><path d="m76.7266 453.943h41.8574" stroke="#000" stroke-miterlimit="10" stroke-width="3"/><path d="m330.391 453.943h41.857" stroke="#000" stroke-miterlimit="10" stroke-width="3"/><path d="m233.364 243.074h-16.743v54.09h16.743z" fill="#755efa"/><path d="m50.2283 144.885c27.7404 0 50.2287-22.538 50.2287-50.34s-22.4883-50.3399-50.2287-50.3399c-27.7403 0-50.2283 22.5379-50.2283 50.3399s22.488 50.34 50.2283 50.34z" fill="#00d697"/><path d="m50.2266 83.2695v139.5475" stroke="#000" stroke-miterlimit="10" stroke-width="2.5"/><path d="m24.3281 92.6387 25.7642 25.8293" stroke="#000" stroke-miterlimit="10" stroke-width="2.5"/><path d="m50.2266 130.854 22.5932-22.643" stroke="#000" stroke-miterlimit="10" stroke-width="2.5"/><path d="m150.691 83.0895c22.894 0 41.453-18.6002 41.453-41.5447 0-22.9446-18.559-41.5448-41.453-41.5448s-41.453 18.6002-41.453 41.5448c0 22.9445 18.559 41.5447 41.453 41.5447z" fill="#00d697"/><path d="m150.688 32.2402v115.1718" stroke="#000" stroke-miterlimit="10" stroke-width="2.5"/><path d="m129.309 39.9805 21.269 21.3166" stroke="#000" stroke-miterlimit="10" stroke-width="2.5"/><path d="m150.688 71.513 18.645-18.6868" stroke="#000" stroke-miterlimit="10" stroke-width="2.5"/><path d="m399.771 144.885c27.741 0 50.229-22.538 50.229-50.34s-22.488-50.3399-50.229-50.3399c-27.74 0-50.228 22.5379-50.228 50.3399s22.488 50.34 50.228 50.34z" fill="#00d697"/><path d="m399.77 83.2695v139.5475" stroke="#000" stroke-miterlimit="10" stroke-width="2.5"/><path d="m425.667 92.6387-25.772 25.8293" stroke="#000" stroke-miterlimit="10" stroke-width="2.5"/><path d="m399.773 130.854-22.601-22.643" stroke="#000" stroke-miterlimit="10" stroke-width="2.5"/><path d="m299.304 83.0895c22.894 0 41.453-18.6002 41.453-41.5447 0-22.9446-18.559-41.5448-41.453-41.5448-22.893 0-41.452 18.6002-41.452 41.5448 0 22.9445 18.559 41.5447 41.452 41.5447z" fill="#00d697"/><path d="m299.301 32.2402v115.1718" stroke="#000" stroke-miterlimit="10" stroke-width="2.5"/><path d="m320.672 39.9805-21.262 21.3166" stroke="#000" stroke-miterlimit="10" stroke-width="2.5"/><path d="m299.306 71.513-18.646-18.6868" stroke="#000" stroke-miterlimit="10" stroke-width="2.5"/></svg>