<svg fill="none" height="519" viewBox="0 0 450 519" width="450" xmlns="http://www.w3.org/2000/svg"><path d="m229.523 404.557c85.82 0 155.391-69.628 155.391-155.519 0-85.89-69.571-155.5185-155.391-155.5185s-155.3902 69.6285-155.3902 155.5185c0 85.891 69.5702 155.519 155.3902 155.519z" fill="#ff4133"/><path d="m49.7306 150.912v51.842h-5.394v-51.842h-10.5214v51.842h-5.394v-51.842h-10.5214v51.842h-5.394v-51.842h-10.52142v88.846c0 13.344 8.95952 24.59 21.17992 28.06v244.235h15.923v-244.235c12.228-3.47 21.1799-14.709 21.1799-28.06v-88.846h-10.5214z" fill="#fff" stroke="#000" stroke-width="2.48088"/><path d="m432.095 150.912s-36.798 70.394-36.798 215.771h36.798v145.362h15.923v-361.133z" fill="#fff" stroke="#000" stroke-width="2.48088"/><g stroke="#f3bb44"><path d="m68.6328 0v83.3407" stroke-miterlimit="10" stroke-width="2.97706"/><path d="m39.1914 12.207 58.8847 58.9257" stroke-miterlimit="10" stroke-width="2.97706"/><path d="m98.0761 12.207-58.8847 58.9257" stroke-miterlimit="10" stroke-width="2.97706"/><path d="m110.268 41.6719h-83.2641" stroke-miterlimit="10" stroke-width="2.97706"/><path d="m374.488 47.2754v41.6704" stroke-miterlimit="10" stroke-width="2.97706"/><path d="m359.77 53.375 29.438 29.4628" stroke-miterlimit="10" stroke-width="2.97706"/><path d="m389.208 53.375-29.438 29.4628" stroke-miterlimit="10" stroke-width="2.97706"/><path d="m395.3 68.1074h-41.636" stroke-miterlimit="10" stroke-width="2.97706"/><path d="m124.676 443.377v41.67" stroke-miterlimit="10" stroke-width="2.97706"/><path d="m109.957 449.477 29.439 29.462" stroke-miterlimit="10" stroke-width="2.97706"/><path d="m139.396 449.477-29.439 29.462" stroke-miterlimit="10" stroke-width="2.97706"/><path d="m145.488 464.209h-41.629" stroke-miterlimit="10" stroke-width="2.97706"/></g><path d="m302.412 255.956c0-48.655-39.404-88.091-88.018-88.091-48.615 0-88.019 39.436-88.019 88.091z" fill="#f3bb44"/><path d="m311.823 255.956c0-9.005 4.807-18.521 2.59-26.817s-11.276-14.411-15.626-21.937-5.005-18.308-11.192-24.507c-6.186-6.199-16.86-6.786-24.486-11.201-7.512-4.354-13.333-13.344-21.919-15.639s-17.805 2.593-26.795 2.593-18.506-4.812-26.795-2.593c-8.586 2.295-14.399 11.285-21.919 15.639-7.519 4.354-18.292 5.01-24.486 11.201-6.194 6.192-6.781 16.874-11.192 24.507-4.411 7.632-13.333 13.343-15.626 21.937-2.217 8.303 2.591 17.819 2.591 26.817" stroke="#000" stroke-miterlimit="10" stroke-width="2.97706"/><path d="m329.189 322.421c0-48.655-39.403-88.091-88.018-88.091s-88.019 39.436-88.019 88.091z" fill="#f3bb44"/><path d="m338.6 322.421c0-9.006 4.807-18.522 2.59-26.817-2.293-8.594-11.275-14.412-15.625-21.937-4.412-7.633-5.006-18.308-11.192-24.507-6.187-6.191-16.86-6.786-24.487-11.201-7.626-4.415-13.332-13.344-21.919-15.639-8.586-2.295-17.804 2.593-26.795 2.593-8.99 0-18.505-4.812-26.794-2.593s-14.4 11.285-21.919 15.639c-7.627 4.415-18.293 5.01-24.487 11.201s-6.78 16.874-11.192 24.507c-4.411 7.632-13.332 13.343-15.625 21.937-2.218 8.303 2.59 17.819 2.59 26.817" stroke="#000" stroke-miterlimit="10" stroke-width="2.97706"/></svg>