<svg width="471" height="151" viewBox="0 0 471 151" fill="none" xmlns="http://www.w3.org/2000/svg">
<path d="M81.2229 72.6272V41.1051C81.2229 36.3768 80.4001 31.8384 78.8936 27.6228C78.248 25.8188 77.4821 24.0782 76.5959 22.4008C73.9501 17.3877 70.2662 13.0075 65.8354 9.53247C64.3479 8.36147 62.7718 7.29807 61.1197 6.34862C55.999 3.39264 50.1693 1.54436 43.9472 1.10761C43.0104 1.04431 42.0673 1 41.1115 1C40.1557 1 39.2062 1.04431 38.2631 1.11394C32.5663 1.51271 27.1987 3.10147 22.4008 5.63336C20.7171 6.52585 19.103 7.53227 17.5712 8.63998C12.9948 11.9631 9.15269 16.223 6.3233 21.1475C5.38017 22.7869 4.55098 24.5023 3.84205 26.2809C2.01276 30.87 1 35.8704 1 41.1051V148.071H81.2102V72.6272H81.2229ZM62.8857 14.457C66.4683 17.3877 69.4433 21.0272 71.6144 25.1606L57.651 32.8891C56.6129 31.5093 55.4103 30.2686 54.0621 29.1863L62.8857 14.4633V14.457ZM43.9472 6.80436C49.0996 7.22845 53.9355 8.78556 58.1954 11.2352L49.1945 26.2556C47.5425 25.553 45.7828 25.0593 43.9409 24.8061V6.80436H43.9472ZM41.1115 30.2876C49.3844 30.2876 56.1129 37.0161 56.1129 45.2891C56.1129 53.562 49.3844 60.2905 41.1115 60.2905C32.8385 60.2905 26.11 53.562 26.11 45.2891C26.11 37.0161 32.8385 30.2876 41.1115 30.2876ZM64.4745 93.3823H43.9472V65.7657C45.5423 65.5442 47.0804 65.1454 48.5362 64.5821L64.4745 93.3823ZM38.2631 65.7657V93.3823H15.6027L33.0157 64.3162C34.6678 65.0188 36.4275 65.5125 38.2631 65.7657ZM38.2631 6.80436V24.8124C36.668 25.034 35.1299 25.4391 33.674 26.0024L25.1606 10.6148C29.1356 8.52604 33.5664 7.1968 38.2631 6.81069V6.80436ZM20.3563 13.6594L28.7115 28.7495C27.3316 29.7876 26.091 30.9902 25.0086 32.3321L11.2098 24.0655C13.5329 20.0082 16.6471 16.4635 20.3563 13.6531V13.6594ZM6.68409 41.1051C6.68409 36.9402 7.431 32.9398 8.79189 29.2432L22.078 37.206C21.3754 38.8581 20.8817 40.6177 20.6285 42.4534H6.67776V41.1115L6.68409 41.1051ZM6.68409 48.1248H20.6348C20.8563 49.7199 21.2551 51.258 21.8185 52.7138L6.68409 61.0881V48.1248ZM6.68409 67.576L24.5719 57.6763C25.61 59.0562 26.8126 60.2969 28.1545 61.3792L8.98811 93.376H6.68409V67.576ZM57.4928 142.387H6.68409V99.0538H25.3631V113.156H36.073V123.866H46.7829V134.576H57.4928V142.381V142.387ZM75.5388 101.643V142.387H63.1769V128.905H52.467V118.195H41.7571V107.485H31.0472V99.0601H75.5452V101.643H75.5388ZM75.5388 93.376H70.9624L53.5051 61.8223C54.8849 60.7842 56.1256 59.5816 57.2079 58.2397L75.5388 69.2218V93.3823V93.376ZM75.5388 62.6009L60.1386 53.3785C60.8412 51.7264 61.3349 49.9667 61.5881 48.1248H75.5388V62.6009ZM75.5388 42.447H61.5881C61.3666 40.8519 60.9678 39.3138 60.3981 37.8517L73.8298 30.4206C74.9312 33.788 75.5325 37.3769 75.5325 41.1051V42.447H75.5388Z" fill="#1F7E89" stroke="#1F7E89" stroke-width="1.58243"/>
<path d="M255.586 42.3364H235.344V106.249H255.586C275.564 106.249 287.781 92.4525 287.781 74.0213C287.781 55.5901 276.01 42.3299 255.586 42.3299V42.3364ZM255.14 97.7915H245.155V50.787H255.14C269.944 50.787 277.789 59.5991 277.789 74.0213C277.789 88.4435 269.853 97.7915 255.14 97.7915Z" fill="#1F7E89"/>
<path d="M311.632 42.3364L287.108 106.249H297.01L302.895 90.3996H330.543L336.337 106.249H346.769L322.426 42.3364H311.639H311.632ZM305.837 82.4848L316.806 53.0207L327.594 82.4848H305.837Z" fill="#1F7E89"/>
<path d="M378.873 80.9677H400.991C399.206 91.9167 391.717 99.2182 379.856 99.2182C365.589 99.2182 356.936 88.5339 356.936 74.3828C356.936 59.3409 366.029 49.8121 378.698 49.8121C389.667 49.8121 396.71 56.1323 399.122 64.3247H410.537C406.611 51.0646 395.468 41 378.97 41C360.331 41 346.776 55.3318 346.776 74.2021C346.776 93.0723 361.043 107.585 379.507 107.585C399.129 107.585 411.701 93.6081 411.345 73.1369H378.886V80.9677H378.873Z" fill="#1F7E89"/>
<path d="M446.65 42.3364H435.863L411.339 106.249H421.24L427.126 90.3996H454.773L460.568 106.249H471L446.657 42.3364H446.65ZM430.062 82.4848L441.03 53.0207L451.818 82.4848H430.062Z" fill="#1F7E89"/>
<path d="M224.052 43.1433L224.006 42.317H214.079V52.7753C214.079 64.938 214.079 77.1007 214.079 89.2634C214.079 89.8509 214.066 90.5223 213.956 91.1485C213.439 93.9503 211.9 95.8612 209.384 96.8296C206.933 97.7721 204.604 97.3331 202.464 95.5255C200.666 94.0084 199.793 91.949 199.799 89.2182C199.819 79.7347 199.819 70.0768 199.799 59.6959C199.799 58.5597 199.696 57.3977 199.502 56.2292C198.402 49.612 193.468 44.3635 186.929 42.8593C186.082 42.6656 185.228 42.5623 184.394 42.459C184.019 42.4138 183.65 42.3686 183.282 42.317H181.788H181.645C181.238 42.3815 180.824 42.4396 180.41 42.4913C179.485 42.6139 178.528 42.7431 177.59 42.9948C170.243 44.9703 165.302 51.5294 165.296 59.3215C165.283 70.1866 165.283 81.0452 165.289 91.9103V106.171H175.307V97.3848C175.307 84.6733 175.307 71.9619 175.307 59.2505C175.307 58.7857 175.327 58.3338 175.366 57.8948C175.566 55.4997 176.957 53.3693 179.078 52.2072C181.206 51.0387 183.657 51.0065 185.791 52.1233C188.507 53.5436 189.891 55.8354 189.898 58.9406C189.898 62.9367 189.898 66.9264 189.898 70.9161C189.898 76.8748 189.898 82.8334 189.917 88.7986C189.917 90.1608 190.066 91.5423 190.337 92.898C191.489 98.592 196.139 105.48 205.458 106.171C206.021 106.21 206.577 106.236 207.127 106.236C211.764 106.236 215.683 104.725 218.794 101.73C222.318 98.3338 224.11 93.918 224.11 88.6114C224.11 75.6933 224.11 62.7818 224.11 49.8638V45.022C224.11 44.7766 224.084 43.3822 224.071 43.1304L224.052 43.1433Z" fill="#1F7E89"/>
<path d="M134.984 42.3364H123.064V50.8386H134.984V97.7398H123.064V106.249H134.984H144.795H156.714V97.7398H144.795V50.8386H156.714V42.3364H144.795H134.984Z" fill="#1F7E89"/>
</svg>
