<svg width="499" height="161" viewBox="0 0 499 161" fill="none" xmlns="http://www.w3.org/2000/svg">
<path d="M87.7227 78.4305V44.3545C87.7227 39.2431 86.8332 34.337 85.2047 29.7799C84.5067 27.8297 83.6788 25.948 82.7208 24.1347C79.8606 18.7154 75.8782 13.9804 71.0884 10.2238C69.4804 8.95791 67.7766 7.80836 65.9907 6.78197C60.4551 3.58649 54.1531 1.58846 47.4268 1.11632C46.4141 1.0479 45.3946 1 44.3614 1C43.3281 1 42.3018 1.0479 41.2822 1.12317C35.1239 1.55425 29.3214 3.27173 24.1347 6.00876C22.3146 6.97356 20.5697 8.06153 18.9138 9.25898C13.9667 12.8513 9.81323 17.4564 6.7546 22.7799C5.73506 24.5521 4.83869 26.4065 4.07232 28.3292C2.09481 33.2901 1 38.6957 1 44.3545V159.987H87.709V78.4305H87.7227ZM67.8998 15.5473C71.7727 18.7154 74.9887 22.6499 77.3357 27.1181L62.241 35.4729C61.1188 33.9812 59.8187 32.64 58.3613 31.47L67.8998 15.5541V15.5473ZM47.4268 7.27464C52.9967 7.73309 58.2244 9.41636 62.8295 12.0644L53.0993 28.3019C51.3134 27.5423 49.4112 27.0086 47.42 26.7349V7.27464H47.4268ZM44.3614 32.6606C53.3046 32.6606 60.5782 39.9342 60.5782 48.8775C60.5782 57.8207 53.3046 65.0944 44.3614 65.0944C35.4181 65.0944 28.1445 57.8207 28.1445 48.8775C28.1445 39.9342 35.4181 32.6606 44.3614 32.6606ZM69.6173 100.867H47.4268V71.0132C49.1512 70.7737 50.8139 70.3426 52.3877 69.7336L69.6173 100.867ZM41.2822 71.0132V100.867H16.7858L35.6097 69.4462C37.3956 70.2057 39.2979 70.7395 41.2822 71.0132ZM41.2822 7.27464V26.7417C39.5579 26.9812 37.8951 27.4192 36.3214 28.0282L27.1181 11.3939C31.4152 9.13581 36.205 7.69888 41.2822 7.28148V7.27464ZM21.9246 14.6851L30.9568 30.9978C29.4651 32.12 28.1239 33.4201 26.9539 34.8707L12.0371 25.9343C14.5483 21.5482 17.9148 17.7164 21.9246 14.6783V14.6851ZM7.14462 44.3545C7.14462 39.8521 7.95205 35.5276 9.4232 31.5315L23.7858 40.1395C23.0262 41.9254 22.4925 43.8276 22.2188 45.812H7.13779V44.3614L7.14462 44.3545ZM7.14462 51.9429H22.2257C22.4651 53.6673 22.8962 55.33 23.5052 56.9038L7.14462 65.9565V51.9429ZM7.14462 72.9701L26.4817 62.2684C27.6039 63.7601 28.904 65.1012 30.3546 66.2713L9.63532 100.86H7.14462V72.9701ZM62.0699 153.842H7.14462V106.998H27.3371V122.243H38.9147V133.821H50.4923V145.399H62.0699V153.836V153.842ZM81.5781 109.797V153.842H68.2146V139.268H56.6369V127.69H45.0593V116.113H33.4817V107.005H81.5849V109.797H81.5781ZM81.5781 100.86H76.6309L57.7591 66.7503C59.2508 65.6281 60.5919 64.328 61.762 62.8774L81.5781 74.7492V100.867V100.86ZM81.5781 67.5919L64.9301 57.6223C65.6897 55.8364 66.2234 53.9341 66.4971 51.9429H81.5781V67.5919ZM81.5781 45.8051H66.4971C66.2576 44.0808 65.8265 42.4181 65.2107 40.8374L79.7306 32.8043C80.9212 36.4445 81.5712 40.3242 81.5712 44.3545V45.8051H81.5781Z" fill="#1F7E89" stroke="#1F7E89" stroke-width="1.71064"/>
<path d="M270.358 46.6228H248.94V114.364H270.358C291.494 114.364 304.42 99.7417 304.42 80.2062C304.42 60.6706 291.967 46.616 270.358 46.616V46.6228ZM269.886 105.4H259.321V55.5798H269.886C285.548 55.5798 293.848 64.9199 293.848 80.2062C293.848 95.4925 285.452 105.4 269.886 105.4Z" fill="#1F7E89"/>
<path d="M329.655 46.6228L303.708 114.364H314.184L320.411 97.5657H349.663L355.794 114.364H366.831L341.076 46.6228H329.662H329.655ZM323.524 89.1768L335.13 57.9473L346.543 89.1768H323.524Z" fill="#1F7E89"/>
<path d="M400.798 87.5688H424.199C422.311 99.1738 414.387 106.913 401.838 106.913C386.743 106.913 377.588 95.5882 377.588 80.5893C377.588 64.6461 387.208 54.5465 400.613 54.5465C412.218 54.5465 419.669 61.2454 422.222 69.9286H434.299C430.145 55.874 418.356 45.2064 400.9 45.2064C381.18 45.2064 366.838 60.3969 366.838 80.3977C366.838 100.399 381.933 115.781 401.468 115.781C422.229 115.781 435.531 100.967 435.154 79.2687H400.811V87.5688H400.798Z" fill="#1F7E89"/>
<path d="M472.508 46.6228H461.094L435.147 114.364H445.623L451.85 97.5657H481.102L487.233 114.364H498.27L472.515 46.6228H472.508ZM454.957 89.1768L466.562 57.9473L477.975 89.1768H454.957Z" fill="#1F7E89"/>
<path d="M236.993 47.4782L236.945 46.6023H226.442V57.6873C226.442 70.5787 226.442 83.4701 226.442 96.3615C226.442 96.9841 226.428 97.6958 226.312 98.3595C225.765 101.329 224.136 103.355 221.474 104.381C218.881 105.38 216.418 104.915 214.153 102.999C212.251 101.391 211.327 99.208 211.334 96.3136C211.354 86.2618 211.354 76.0253 211.334 65.0225C211.334 63.8182 211.224 62.5865 211.019 61.348C209.856 54.3344 204.635 48.7714 197.717 47.1771C196.821 46.9718 195.917 46.8623 195.035 46.7528C194.638 46.7049 194.248 46.657 193.858 46.6023H192.277H192.127C191.696 46.6707 191.258 46.7323 190.82 46.787C189.841 46.9171 188.829 47.0539 187.836 47.3208C180.063 49.4146 174.835 56.3667 174.829 64.6256C174.815 76.1417 174.815 87.6509 174.822 99.1669V114.282H185.421V104.969C185.421 91.4964 185.421 78.0234 185.421 64.5504C185.421 64.0577 185.441 63.5787 185.483 63.1134C185.695 60.5748 187.166 58.3168 189.41 57.0851C191.661 55.8466 194.255 55.8124 196.513 56.9962C199.387 58.5015 200.851 60.9306 200.858 64.2219C200.858 68.4575 200.858 72.6862 200.858 76.9149C200.858 83.2306 200.858 89.5463 200.878 95.8688C200.878 97.3126 201.036 98.7769 201.323 100.214C202.541 106.249 207.461 113.55 217.321 114.282C217.916 114.323 218.505 114.351 219.086 114.351C223.992 114.351 228.139 112.749 231.43 109.574C235.16 105.975 237.055 101.295 237.055 95.6704C237.055 81.9784 237.055 68.2933 237.055 54.6013V49.4693C237.055 49.2093 237.028 47.7313 237.014 47.4645L236.993 47.4782Z" fill="#1F7E89"/>
<path d="M142.758 46.6228H130.147V55.6345H142.758V105.346H130.147V114.364H142.758H153.138H165.749V105.346H153.138V55.6345H165.749V46.6228H153.138H142.758Z" fill="#1F7E89"/>
</svg>
